<?xml version="1.0" encoding="UTF-8"?>
<!DOCTYPE svg PUBLIC "-//W3C//DTD SVG 1.1//EN" "http://www.w3.org/Graphics/SVG/1.1/DTD/svg11.dtd">
<svg xmlns="http://www.w3.org/2000/svg" version="1.1" width="2052px" height="468px" style="shape-rendering:geometricPrecision; text-rendering:geometricPrecision; image-rendering:optimizeQuality; fill-rule:evenodd; clip-rule:evenodd" xmlns:xlink="http://www.w3.org/1999/xlink">
<g><path style="opacity:0.964" fill="#fefffe" d="M 211.5,-0.5 C 226.167,-0.5 240.833,-0.5 255.5,-0.5C 338.901,10.2693 401.067,52.2693 442,125.5C 471.901,187.621 475.567,251.287 453,316.5C 423.89,388.277 372.39,435.777 298.5,459C 284.238,462.928 269.904,465.762 255.5,467.5C 240.833,467.5 226.167,467.5 211.5,467.5C 128.9,457.04 67.0665,415.707 26,343.5C 11.776,315.672 2.94266,286.338 -0.5,255.5C -0.5,240.833 -0.5,226.167 -0.5,211.5C 9.97012,128.892 51.3035,67.059 123.5,26C 151.328,11.776 180.662,2.94266 211.5,-0.5 Z M 227.5,30.5 C 306.842,31.7366 367.342,65.7366 409,132.5C 446.01,202.08 445.01,271.08 406,339.5C 365.426,401.221 307.926,433.554 233.5,436.5C 149.718,432.39 88.551,393.39 50,319.5C 20.6999,251.368 25.3666,185.701 64,122.5C 103.645,65.7529 158.145,35.0862 227.5,30.5 Z M 221.5,116.5 C 223.903,116.393 225.736,117.393 227,119.5C 257.022,170.879 286.522,222.545 315.5,274.5C 314.871,276.997 313.204,278.33 310.5,278.5C 285.238,275.794 259.905,274.961 234.5,276C 220.302,277.466 206.636,280.966 193.5,286.5C 179.093,264.031 165.426,241.031 152.5,217.5C 169.737,203.431 183.904,186.764 195,167.5C 203.336,150.159 212.169,133.159 221.5,116.5 Z M 287.5,167.5 C 299.035,167.173 305.702,173.006 307.5,185C 307.025,188.737 305.858,192.237 304,195.5C 298.726,185.939 293.226,176.606 287.5,167.5 Z M 126.5,232.5 C 127.458,232.953 128.292,233.619 129,234.5C 141.516,256.343 154.016,278.177 166.5,300C 153.87,309.15 140.203,316.483 125.5,322C 103.284,324.476 88.1178,315.31 80,294.5C 76.5571,279.435 80.0571,266.269 90.5,255C 102.396,247.225 114.396,239.725 126.5,232.5 Z M 179.5,326.5 C 180.675,326.281 181.675,326.614 182.5,327.5C 191.2,342.372 199.7,357.372 208,372.5C 209.375,381.458 205.542,385.625 196.5,385C 194.04,383.542 191.873,381.709 190,379.5C 182,365.5 174,351.5 166,337.5C 165.251,336.365 165.417,335.365 166.5,334.5C 171.065,332.059 175.398,329.392 179.5,326.5 Z"/></g>
<g><path style="opacity:0.942" fill="#e7cf1d" d="M 320.5,70.5 C 330.875,70.2099 336.541,75.2099 337.5,85.5C 337,87.5 336.5,89.5 336,91.5C 329.667,102.5 323.333,113.5 317,124.5C 312.088,129.681 306.255,131.181 299.5,129C 291.963,124.968 289.463,118.802 292,110.5C 298.414,98.6705 305.08,87.0038 312,75.5C 314.682,73.415 317.516,71.7483 320.5,70.5 Z"/></g>
<g><path style="opacity:0.96" fill="#e7cf1d" d="M 332.5,166.5 C 339.33,187.723 334.997,206.223 319.5,222C 327.379,234.923 334.879,248.089 342,261.5C 346.811,275.753 343.978,288.253 333.5,299C 329.391,302.388 324.725,304.721 319.5,306C 295.497,305.422 271.497,304.755 247.5,304C 233.58,304.217 220.247,307.05 207.5,312.5C 214.8,325.629 222.3,338.629 230,351.5C 240.267,368.081 239.933,384.414 229,400.5C 216.982,413.131 202.482,416.965 185.5,412C 176.846,409.01 170.346,403.51 166,395.5C 156.833,379.833 147.667,364.167 138.5,348.5C 104.885,356.911 78.3852,346.911 59,318.5C 50.4645,301.713 48.1312,284.046 52,265.5C 56.0687,250.514 64.2354,238.347 76.5,229C 94.8374,217.496 113.504,206.496 132.5,196C 147.806,184.861 159.972,171.028 169,154.5C 178.156,135.519 187.823,116.853 198,98.5C 211.185,86.4979 225.685,84.6646 241.5,93C 245.331,96.4666 248.831,100.3 252,104.5C 258.247,115.996 264.747,127.33 271.5,138.5C 272.333,138.833 273.167,139.167 274,139.5C 290.175,135.501 305.008,138.334 318.5,148C 321.704,150.869 324.537,154.035 327,157.5C 327.031,153.232 328.031,149.232 330,145.5C 343.576,135.796 358.076,127.796 373.5,121.5C 376.673,122.21 379.673,123.377 382.5,125C 384.633,129.102 387.3,132.769 390.5,136C 387.743,140.179 384.743,144.179 381.5,148C 369.996,154.92 358.329,161.586 346.5,168C 341.647,168.882 336.981,168.382 332.5,166.5 Z M 221.5,116.5 C 212.169,133.159 203.336,150.159 195,167.5C 183.904,186.764 169.737,203.431 152.5,217.5C 165.426,241.031 179.093,264.031 193.5,286.5C 206.636,280.966 220.302,277.466 234.5,276C 259.905,274.961 285.238,275.794 310.5,278.5C 313.204,278.33 314.871,276.997 315.5,274.5C 286.522,222.545 257.022,170.879 227,119.5C 225.736,117.393 223.903,116.393 221.5,116.5 Z M 287.5,167.5 C 293.226,176.606 298.726,185.939 304,195.5C 305.858,192.237 307.025,188.737 307.5,185C 305.702,173.006 299.035,167.173 287.5,167.5 Z M 126.5,232.5 C 114.396,239.725 102.396,247.225 90.5,255C 80.0571,266.269 76.5571,279.435 80,294.5C 88.1178,315.31 103.284,324.476 125.5,322C 140.203,316.483 153.87,309.15 166.5,300C 154.016,278.177 141.516,256.343 129,234.5C 128.292,233.619 127.458,232.953 126.5,232.5 Z M 179.5,326.5 C 175.398,329.392 171.065,332.059 166.5,334.5C 165.417,335.365 165.251,336.365 166,337.5C 174,351.5 182,365.5 190,379.5C 191.873,381.709 194.04,383.542 196.5,385C 205.542,385.625 209.375,381.458 208,372.5C 199.7,357.372 191.2,342.372 182.5,327.5C 181.675,326.614 180.675,326.281 179.5,326.5 Z"/></g>
<g><path style="opacity:0.964" fill="#fefffe" d="M 2051.5,145.5 C 2051.5,151.167 2051.5,156.833 2051.5,162.5C 2042.55,182.965 2027.55,189.132 2006.5,181C 1993.24,172.103 1988.41,159.936 1992,144.5C 1998.05,128.562 2009.55,121.395 2026.5,123C 2039.15,125.824 2047.49,133.324 2051.5,145.5 Z"/></g>
<g><path style="opacity:0.97" fill="#fefffe" d="M 1590.5,127.5 C 1623.5,127.5 1656.5,127.5 1689.5,127.5C 1689.5,140.5 1689.5,153.5 1689.5,166.5C 1656.5,166.5 1623.5,166.5 1590.5,166.5C 1590.5,153.5 1590.5,140.5 1590.5,127.5 Z"/></g>
<g><path style="opacity:0.954" fill="#e7cf1d" d="M 603.5,133.5 C 605.467,133.261 607.301,133.594 609,134.5C 643,203.167 677,271.833 711,340.5C 745.089,271.987 778.923,203.321 812.5,134.5C 814.167,133.167 815.833,133.167 817.5,134.5C 830.019,219.134 842.353,303.801 854.5,388.5C 845.833,388.5 837.167,388.5 828.5,388.5C 820.417,328.749 811.917,269.082 803,209.5C 773.667,268.833 744.333,328.167 715,387.5C 712.205,388.783 709.372,388.783 706.5,387.5C 677,327.833 647.5,268.167 618,208.5C 608.998,268.347 600.498,328.347 592.5,388.5C 584.167,388.5 575.833,388.5 567.5,388.5C 579.127,303.445 591.127,218.445 603.5,133.5 Z"/></g>
<g><path style="opacity:0.98" fill="#fefffe" d="M 1361.5,133.5 C 1388.52,133.191 1415.52,133.691 1442.5,135C 1477.39,135.583 1499.89,152.416 1510,185.5C 1520.01,228.451 1505.17,258.785 1465.5,276.5C 1485.42,313.341 1505.09,350.341 1524.5,387.5C 1506.5,388.833 1488.5,388.833 1470.5,387.5C 1451.58,352.659 1432.91,317.659 1414.5,282.5C 1413.31,281.571 1411.98,281.238 1410.5,281.5C 1410.5,317.167 1410.5,352.833 1410.5,388.5C 1394.17,388.5 1377.83,388.5 1361.5,388.5C 1361.5,303.5 1361.5,218.5 1361.5,133.5 Z M 1410.5,181.5 C 1423.98,181.276 1437.32,182.443 1450.5,185C 1465.1,194.188 1468.6,206.688 1461,222.5C 1455.46,228.351 1448.63,231.517 1440.5,232C 1430.51,232.5 1420.51,232.666 1410.5,232.5C 1410.5,215.5 1410.5,198.5 1410.5,181.5 Z"/></g>
<g><path style="opacity:0.939" fill="#e7cf1d" d="M 355.5,190.5 C 369.559,190.071 383.559,190.571 397.5,192C 404.999,195.499 407.833,201.333 406,209.5C 404.073,214.428 400.573,217.594 395.5,219C 380.432,219.951 365.432,219.617 350.5,218C 344.15,214.292 341.65,208.792 343,201.5C 344.891,195.153 349.057,191.486 355.5,190.5 Z"/></g>
<g><path style="opacity:0.95" fill="#e7cf1d" d="M 973.5,195.5 C 1010.2,191.217 1039.7,203.551 1062,232.5C 1062.5,221.505 1062.67,210.505 1062.5,199.5C 1070.83,199.5 1079.17,199.5 1087.5,199.5C 1087.5,262.5 1087.5,325.5 1087.5,388.5C 1079.17,388.5 1070.83,388.5 1062.5,388.5C 1062.67,378.161 1062.5,367.828 1062,357.5C 1033.93,389.74 999.097,400.24 957.5,389C 914.696,371.672 892.363,339.839 890.5,293.5C 892.309,252.037 911.643,221.87 948.5,203C 956.723,199.7 965.057,197.2 973.5,195.5 Z M 980.5,219.5 C 1016.45,217.381 1042.28,232.381 1058,264.5C 1070.36,299.218 1063.19,329.052 1036.5,354C 1005.81,375.876 975.139,375.876 944.5,354C 917.659,329.471 910.159,299.971 922,265.5C 933.432,239.723 952.932,224.39 980.5,219.5 Z"/></g>
<g><path style="opacity:0.951" fill="#e7cf1d" d="M 1222.5,195.5 C 1272.31,192.482 1299.48,215.816 1304,265.5C 1305.35,306.487 1305.85,347.487 1305.5,388.5C 1296.83,388.5 1288.17,388.5 1279.5,388.5C 1279.67,348.499 1279.5,308.499 1279,268.5C 1275.63,229.798 1254.8,213.632 1216.5,220C 1190.2,228.632 1174.04,246.466 1168,273.5C 1167.05,280.807 1166.38,288.14 1166,295.5C 1165.5,326.498 1165.33,357.498 1165.5,388.5C 1157.17,388.5 1148.83,388.5 1140.5,388.5C 1140.5,325.5 1140.5,262.5 1140.5,199.5C 1148.83,199.5 1157.17,199.5 1165.5,199.5C 1165.33,210.172 1165.5,220.839 1166,231.5C 1180.52,212.504 1199.35,200.504 1222.5,195.5 Z"/></g>
<g><path style="opacity:0.975" fill="#fefffe" d="M 1862.5,195.5 C 1912.94,192.789 1945.77,215.456 1961,263.5C 1966.94,289.04 1965.27,314.04 1956,338.5C 1935.03,380.737 1901.2,398.237 1854.5,391C 1840.45,387.394 1828.28,380.561 1818,370.5C 1817.5,399.498 1817.33,428.498 1817.5,457.5C 1801.5,457.5 1785.5,457.5 1769.5,457.5C 1769.5,371.5 1769.5,285.5 1769.5,199.5C 1785.5,199.5 1801.5,199.5 1817.5,199.5C 1817.33,205.842 1817.5,212.175 1818,218.5C 1830.75,206.709 1845.58,199.042 1862.5,195.5 Z M 1858.5,239.5 C 1881.25,237.455 1898.41,246.122 1910,265.5C 1918.92,285.323 1918.59,304.989 1909,324.5C 1893.81,346.564 1873.31,353.73 1847.5,346C 1821.78,332.718 1811.28,311.552 1816,282.5C 1821.05,258.951 1835.22,244.618 1858.5,239.5 Z"/></g>
<g><path style="opacity:0.977" fill="#fefffe" d="M 1557.5,199.5 C 1573.5,199.5 1589.5,199.5 1605.5,199.5C 1605.33,232.168 1605.5,264.835 1606,297.5C 1605.43,310.432 1607.77,322.765 1613,334.5C 1622.91,347.164 1635.74,351.33 1651.5,347C 1662.83,342.999 1670,335.166 1673,323.5C 1674.1,315.876 1674.76,308.209 1675,300.5C 1675.5,266.835 1675.67,233.168 1675.5,199.5C 1691.5,199.5 1707.5,199.5 1723.5,199.5C 1723.86,237.514 1723.36,275.514 1722,313.5C 1718.97,365.193 1691.64,391.86 1640,393.5C 1597.72,394.188 1571.38,374.188 1561,333.5C 1559.42,324.565 1558.42,315.565 1558,306.5C 1557.5,270.835 1557.33,235.168 1557.5,199.5 Z"/></g>
<g><path style="opacity:0.976" fill="#fefffe" d="M 1997.5,199.5 C 2013.5,199.5 2029.5,199.5 2045.5,199.5C 2045.5,262.5 2045.5,325.5 2045.5,388.5C 2029.5,388.5 2013.5,388.5 1997.5,388.5C 1997.5,325.5 1997.5,262.5 1997.5,199.5 Z"/></g>
</svg>
