<svg xmlns="http://www.w3.org/2000/svg" width="200" height="60" viewBox="0 0 200 60"><g fill="none"><path fill="#002E5F" d="M42 2L33.1.5l.8 5z"/><path fill="#008BCB" d="M45.3 9.6l-4.5 2.2-16-2.3L41.9 2z"/><path fill="#002E5F" d="M24.8 9.5l21.9 3.2-15.6 8-7.5-.5z"/><path fill="#008BCB" d="M50.8 21.9l-7 4-20.6-1.2 23.5-12z"/><path fill="#002E5F" d="M23.2 24.7l29.6 1.8-19 11.9-12.1.5z"/><path fill="#008BCB" d="M57.7 37.4l-4.9-10.9L.7 59 32 55.7z"/><path fill="#002E5F" d="M73.5 13.6a4 4 0 0 0-2.9 1.1v11.8h-4.5V4.1h4.5v7.6a6.3 6.3 0 0 1 4.1-1.4 6 6 0 0 1 4.8 1.8c1.1 1.3 1.7 3.2 1.7 5.7v8.7h-4.6v-8.7c.1-1.1-.2-2.3-.8-3.3-.5-.6-1.4-1-2.3-1zm10.8-7.2c0-.6.2-1.2.6-1.7 1.2-.7 2.8-.7 4 0 .4.5.7 1.1.6 1.7 0 .7-.1 1.3-.6 1.8-1.2.7-2.8.7-4 0-.4-.5-.6-1.1-.6-1.8zm.3 4.3h4.6v15.8h-4.6V10.7zm7.3 7.7c0-1.2.2-2.3.5-3.4.4-1 .9-1.8 1.6-2.5a6.6 6.6 0 0 1 7.2-1.8c.6.2 1.2.5 1.7 1v-1h4.5V25c0 1.2-.1 2.3-.4 3.5a5.4 5.4 0 0 1-4 3.7c-1.3.3-2.6.5-3.9.4-1 0-2 0-3-.2-.9-.2-1.7-.5-2.6-1l.3-3.5c.7.5 1.5.9 2.3 1.2a9 9 0 0 0 2.7.4c1 0 2-.3 3-.9.7-.7 1.1-1.7 1-2.8v-.7c-.4.5-1 .8-1.6 1-.8.3-1.5.4-2.3.4-1.9 0-3.7-.8-5-2.2a7.6 7.6 0 0 1-1.5-2.5c-.3-1.1-.5-2.3-.5-3.4zm4.6 0c0 1.3.3 2.6 1 3.6a3 3 0 0 0 2.5 1.2c.5 0 1 0 1.6-.3.5-.2 1-.5 1.3-.9v-7.3l-1.3-.8c-.5-.2-1-.4-1.6-.4a3 3 0 0 0-2.5 1.2c-.7 1.1-1 2.4-1 3.7zm22-4.8a4 4 0 0 0-1.7.3l-1.3.8v11.8H111V4.1h4.5v7.6a6.3 6.3 0 0 1 4.1-1.4 6 6 0 0 1 4.8 1.8c1.1 1.3 1.7 3.2 1.7 5.7v8.7h-4.6v-8.7c.1-1.1-.1-2.3-.7-3.3-.6-.6-1.5-1-2.4-1zM142 10.6l2.8 10.6 3-10.6h4.6l-5.2 15.9h-4.6l-2.7-10.2-2.7 10.2h-4.7l-5.2-15.9h4.7l3 10.6 2.8-10.6zM158.9 26.9c-.8 0-1.6-.1-2.3-.4-.7-.2-1.3-.5-1.9-1a4.6 4.6 0 0 1-1.7-3.7c0-1.6.7-3 1.9-4s3-1.5 5.4-1.5h3v-.7c0-.6-.2-1.2-.7-1.6-.7-.3-1.6-.5-2.4-.4a11.2 11.2 0 0 0-5.4 1.3l-.4-3.2a15 15 0 0 1 6.3-1.4c2.5 0 4.3.4 5.4 1.4 1.2 1 1.8 2.5 1.8 4.6v10.2h-4.6v-1a7 7 0 0 1-2 1c-.8.3-1.6.4-2.4.4zm1.1-3.2c.6 0 1.2 0 1.8-.3.6-.2 1-.5 1.4-1v-3h-2.8c-.7 0-1.5.2-2.2.7-.4.4-.6 1-.6 1.6 0 .6.2 1.2.6 1.5.5.4 1.2.6 1.8.5zM175.4 26.5L169 10.6h4.8l3.7 10.6 3.8-10.6h4.7l-8 21.8h-4.8zM193 26.9c-1.1 0-2.2-.1-3.2-.3-1-.2-1.9-.5-2.8-1l.2-3.6a9.5 9.5 0 0 0 5.3 1.6c1.7 0 2.5-.5 2.5-1.6l-.1-.6-.5-.6a17.8 17.8 0 0 0-2.5-1c-1.4-.3-2.7-1-3.7-2a4.2 4.2 0 0 1-1.1-2.8 4 4 0 0 1 1.7-3.6 8.2 8.2 0 0 1 4.8-1.1 13.6 13.6 0 0 1 5.2 1l-.3 3.4a10 10 0 0 0-4.5-1.2c-.6 0-1.2 0-1.8.4a1 1 0 0 0-.5.9c0 .4.2.8.6 1.1.8.5 1.6.8 2.4 1l2.4 1 1.5 1.1.8 1.4a5 5 0 0 1-1.4 5.2c-1.2.8-2.8 1.3-5 1.3zM68 44.7c0 1.2.4 2.3 1.3 3.2.9.8 2 1.2 3.2 1.1.8 0 1.5 0 2.3-.2.7-.2 1.3-.6 1.9-1l.2 2a7 7 0 0 1-2 .9c-.7.2-1.6.3-2.4.3-1 0-2-.2-3-.6a6 6 0 0 1-3.4-3.8 9 9 0 0 1-.5-2.8c0-1 .2-2 .5-3 .2-.8.6-1.5 1.2-2.2.5-.6 1.2-1.1 2-1.5.8-.3 1.6-.5 2.5-.5 1 0 1.8.2 2.7.6.7.3 1.4.8 2 1.4a10 10 0 0 1 1.6 5.2v.9H67.9zm7.7-1.9a5 5 0 0 0-1.1-3 3.5 3.5 0 0 0-2.8-1.2c-1 0-2 .4-2.7 1.1a5 5 0 0 0-1.2 3.1h7.8zm10.8-4.2c-.7 0-1.4.2-2 .5-.7.3-1.2.7-1.6 1.2v10.4h-2.2V37h2.2v1l1.7-1a6 6 0 0 1 2.2-.4c1.6 0 3.1.5 4.2 1.6 1 1 1.5 2.6 1.5 4.7v7.8h-2.2v-7.8c0-1.5-.3-2.6-1-3.3-.7-.7-1.7-1-2.8-1zm18.7-1.6h2.2v12.7c0 2.2-.5 3.8-1.5 4.8S103.3 56 101 56c-1.7 0-3.2-.4-4.7-1.1l.2-2.3c.7.5 1.4.8 2.2 1 .7.3 1.6.4 2.4.4 1 .1 2.1-.2 3-.9.7-.6 1-1.6 1-3.1v-.7a5 5 0 0 1-1.7 1 6.1 6.1 0 0 1-8-3.7c-.6-2-.6-4 0-6 .4-.7.8-1.5 1.4-2.1a6 6 0 0 1 4.4-2c.8 0 1.5.2 2.2.5a5 5 0 0 1 1.7 1v-1zm0 3.3a4 4 0 0 0-1.6-1.3 5 5 0 0 0-2-.4c-.6 0-1.2 0-1.7.3-.5.2-1 .6-1.3 1-.4.4-.7 1-.9 1.6-.4 1.4-.4 3 0 4.4.2.6.5 1.1.9 1.6.3.4.8.7 1.3 1a4.9 4.9 0 0 0 3.7-.1 4 4 0 0 0 1.6-1.4v-6.7zM111 31.3h2.2v19.4H111zM121 51c-.7 0-1.4 0-2-.3a5 5 0 0 1-1.8-.8c-.4-.4-.8-.8-1-1.4-.4-.5-.5-1.2-.5-1.8a4 4 0 0 1 1.6-3.4 7 7 0 0 1 4.4-1.2h3.5v-1c0-.7-.3-1.5-.9-2a5 5 0 0 0-2.6-.5 10.3 10.3 0 0 0-4.5 1l-.3-1.9a10.7 10.7 0 0 1 4.8-1c.8 0 1.6 0 2.4.2.7.2 1.3.5 1.8.9s.9 1 1.1 1.5c.3.8.4 1.6.4 2.4v9h-2.2v-1c-.5.4-1.2.8-1.8 1l-2.4.3zm.2-2c.8 0 1.6 0 2.3-.4.7-.2 1.3-.7 1.7-1.3V44h-3.4c-1 0-2 .2-2.9.7-.6.4-1 1.2-1 1.9a2 2 0 0 0 1 1.9c.7.4 1.5.6 2.3.5zm15.4-10.4c-.7 0-1.5.2-2.1.5-.6.3-1.1.7-1.5 1.2v10.4h-2.3V37h2.3v1c.4-.4 1-.7 1.6-1a6 6 0 0 1 2.2-.4c1.6 0 3.1.5 4.3 1.6 1 1 1.5 2.6 1.5 4.7v7.8h-2.2v-7.8c0-1.5-.4-2.6-1-3.3-.7-.7-1.8-1-2.8-1zm18.7 11a5 5 0 0 1-1.7 1 6.4 6.4 0 0 1-4.7-.1c-.7-.3-1.4-.8-2-1.4-.6-.7-1-1.4-1.3-2.3-.7-1.9-.7-4 0-6a5.7 5.7 0 0 1 3.4-3.7 6.4 6.4 0 0 1 4.6 0 5 5 0 0 1 1.7 1v-6.8h2.2v19.4h-2.2v-1zm0-9.3a4 4 0 0 0-1.6-1.3 5 5 0 0 0-3.8 0c-.5.2-1 .5-1.4 1-.4.4-.7 1-.9 1.6-.2.7-.3 1.5-.3 2.2 0 .8.1 1.6.3 2.3.2.6.5 1.1 1 1.6.3.4.8.8 1.4 1 .5.2 1 .3 1.7.3a5 5 0 0 0 2-.4 4 4 0 0 0 1.6-1.3v-7z"/></g></svg>