<?xml version="1.0" encoding="UTF-8"?>
<svg width="286px" height="85px" viewBox="0 0 286 85" xmlns="http://www.w3.org/2000/svg" xmlns:xlink="http://www.w3.org/1999/xlink" version="1.1">
 <path id="Path" d="M59.06 2.95 L46.57 0.87 47.69 7.9 Z" fill="#011e41" fill-opacity="1" stroke="none"/>
 <path id="Path-1" d="M63.89 13.79 L57.49 16.92 34.61 13.59 59.06 2.95 Z" fill="#0082ca" fill-opacity="1" stroke="none"/>
 <path id="Path-2" d="M34.61 13.59 L65.83 18.14 43.56 29.58 33 28.94 Z" fill="#011e41" fill-opacity="1" stroke="none"/>
 <path id="Path-3" d="M71.67 31.27 L61.71 37.1 32.33 35.34 65.83 18.14 Z" fill="#0082ca" fill-opacity="1" stroke="none"/>
 <path id="Path-4" d="M32.33 35.34 L74.61 37.87 47.4 54.81 30.21 55.54 Z" fill="#011e41" fill-opacity="1" stroke="none"/>
 <path id="Path-5" d="M81.52 53.38 L74.61 37.87 0.3 84.15 45.05 79.44 Z" fill="#0082ca" fill-opacity="1" stroke="none"/>
 <path id="Path-6" d="M103.21 15.26 C101.981 15.237 100.764 15.508 99.66 16.05 98.671 16.54 97.806 17.247 97.13 18.12 L97.13 35.32 93.44 35.32 93.44 12.53 97.13 12.53 97.13 14.38 C97.95 13.64 98.899 13.057 99.93 12.66 101.129 12.201 102.406 11.977 103.69 12 106.265 11.861 108.781 12.812 110.62 14.62 112.31 16.36 113.15 18.97 113.15 22.43 L113.15 35.32 109.45 35.32 109.45 22.32 C109.45 19.83 108.93 18.02 107.89 16.91 106.636 15.719 104.934 15.119 103.21 15.26 Z M126.09 35.85 C124.908 35.857 123.73 35.702 122.59 35.39 121.582 35.103 120.636 34.632 119.8 34 119.037 33.408 118.421 32.649 118 31.78 117.54 30.795 117.315 29.717 117.34 28.63 117.262 26.478 118.231 24.42 119.94 23.11 121.67 21.75 124.13 21.11 127.33 21.11 L133 21.11 133 19.48 C133.141 18.213 132.615 16.964 131.61 16.18 130.24 15.459 128.694 15.141 127.15 15.26 125.843 15.266 124.542 15.421 123.27 15.72 122.012 15.992 120.8 16.443 119.67 17.06 L119.27 13.76 C120.462 13.195 121.713 12.766 123 12.48 124.391 12.16 125.813 11.999 127.24 12 128.603 11.983 129.963 12.131 131.29 12.44 132.385 12.686 133.41 13.174 134.29 13.87 135.119 14.559 135.751 15.457 136.12 16.47 136.56 17.732 136.767 19.064 136.73 20.4 L136.73 35.32 133 35.32 133 33.56 C132.147 34.359 131.12 34.948 130 35.28 128.734 35.67 127.415 35.862 126.09 35.85 Z M126.44 32.59 C127.757 32.609 129.064 32.371 130.29 31.89 131.383 31.473 132.327 30.738 133 29.78 L133 24.23 127.45 24.23 C125.753 24.095 124.058 24.505 122.61 25.4 121.61 26.133 121.034 27.311 121.07 28.55 120.981 29.772 121.553 30.947 122.57 31.63 123.741 32.315 125.085 32.648 126.44 32.59 Z M139.67 12.53 L143.76 12.53 143.76 5.71 147.46 5.71 147.46 12.53 154.36 12.53 154.36 15.7 147.46 15.7 147.46 26.61 C147.44 27.635 147.521 28.66 147.7 29.67 147.811 30.325 148.067 30.947 148.45 31.49 148.768 31.921 149.223 32.232 149.74 32.37 150.36 32.53 151 32.604 151.64 32.59 152.381 32.588 153.119 32.501 153.84 32.33 L154.28 35.59 C153.78 35.67 153.28 35.74 152.71 35.78 152.14 35.82 151.71 35.85 151.28 35.85 149.239 36.003 147.22 35.337 145.67 34 Q143.77 32.12 143.76 28.08 L143.76 15.7 139.67 15.7 Z M157.67 5.53 C157.67 4.243 158.713 3.2 160 3.2 161.287 3.2 162.33 4.243 162.33 5.53 162.33 6.817 161.287 7.86 160 7.86 158.713 7.86 157.67 6.817 157.67 5.53 Z M158.15 12.53 L161.85 12.53 161.85 35.32 158.15 35.32 Z M166.43 23.93 C166.417 22.311 166.678 20.702 167.2 19.17 167.676 17.777 168.424 16.492 169.4 15.39 170.365 14.325 171.544 13.477 172.86 12.9 175.792 11.7 179.078 11.7 182.01 12.9 183.325 13.474 184.501 14.323 185.46 15.39 186.443 16.487 187.192 17.773 187.66 19.17 188.687 22.264 188.687 25.606 187.66 28.7 187.187 30.088 186.439 31.367 185.46 32.46 184.503 33.546 183.323 34.412 182 35 179.068 36.2 175.782 36.2 172.85 35 171.534 34.423 170.355 33.575 169.39 32.51 168.419 31.412 167.671 30.135 167.19 28.75 166.659 27.199 166.398 25.569 166.42 23.93 Z M170.22 23.93 C170.096 26.195 170.764 28.433 172.11 30.26 173.482 31.745 175.413 32.59 177.435 32.59 179.457 32.59 181.388 31.745 182.76 30.26 184.106 28.433 184.774 26.195 184.65 23.93 184.776 21.661 184.107 19.42 182.76 17.59 181.388 16.105 179.457 15.26 177.435 15.26 175.413 15.26 173.482 16.105 172.11 17.59 170.759 19.418 170.087 21.66 170.21 23.93 Z M202.76 15.26 C201.534 15.237 200.32 15.508 199.22 16.05 198.229 16.537 197.363 17.245 196.69 18.12 L196.69 35.32 193 35.32 193 12.53 196.7 12.53 196.7 14.38 C197.515 13.638 198.461 13.054 199.49 12.66 200.69 12.203 201.966 11.979 203.25 12 205.826 11.857 208.343 12.809 210.18 14.62 211.87 16.36 212.71 18.97 212.71 22.43 L212.71 35.32 209 35.32 209 22.32 C209 19.83 208.48 18.02 207.44 16.91 206.181 15.721 204.476 15.122 202.75 15.26 Z M225.42 35.85 C224.241 35.857 223.067 35.702 221.93 35.39 220.919 35.112 219.97 34.647 219.13 34.02 218.346 33.428 217.713 32.661 217.28 31.78 216.82 30.795 216.595 29.717 216.62 28.63 216.547 26.479 217.515 24.424 219.22 23.11 220.95 21.75 223.41 21.11 226.61 21.11 L232.33 21.11 232.33 19.48 C232.47 18.216 231.948 16.969 230.95 16.18 229.575 15.461 228.027 15.142 226.48 15.26 225.177 15.267 223.879 15.421 222.61 15.72 221.349 15.994 220.134 16.445 219 17.06 L218.6 13.76 C219.79 13.199 221.037 12.769 222.32 12.48 223.714 12.16 225.14 11.999 226.57 12 227.933 11.984 229.293 12.132 230.62 12.44 231.715 12.686 232.74 13.174 233.62 13.87 234.444 14.563 235.071 15.459 235.44 16.47 235.863 17.735 236.053 19.067 236 20.4 L236 35.32 232.3 35.32 232.3 33.56 C231.447 34.359 230.42 34.948 229.3 35.28 228.04 35.668 226.728 35.86 225.41 35.85 Z M225.78 32.59 C227.097 32.608 228.404 32.37 229.63 31.89 230.721 31.472 231.661 30.737 232.33 29.78 L232.33 24.23 226.79 24.23 C225.093 24.095 223.398 24.505 221.95 25.4 220.946 26.129 220.369 27.31 220.41 28.55 220.321 29.769 220.889 30.943 221.9 31.63 223.071 32.314 224.415 32.647 225.77 32.59 Z M241.68 3.2 L245.37 3.2 245.37 35.32 241.68 35.32 Z M104.13 53.71 C102.576 53.697 101.085 54.318 100 55.43 L100 72.32 93.45 72.32 93.45 40.2 100 40.2 100 51 C100.77 50.382 101.634 49.892 102.56 49.55 103.629 49.157 104.761 48.964 105.9 48.98 108.468 48.832 110.971 49.823 112.74 51.69 Q115.19 54.39 115.18 59.69 L115.18 72.27 108.63 72.27 108.63 59.82 C108.766 58.18 108.374 56.54 107.51 55.14 106.681 54.144 105.422 53.611 104.13 53.71 Z M119.71 43.5 C119.646 42.597 119.957 41.707 120.57 41.04 121.385 40.397 122.417 40.096 123.45 40.2 124.485 40.1 125.519 40.401 126.34 41.04 127.484 42.492 127.484 44.538 126.34 45.99 125.51 46.608 124.48 46.897 123.45 46.8 122.423 46.899 121.395 46.61 120.57 45.99 119.95 45.315 119.639 44.413 119.71 43.5 Z M120.15 49.5 L126.71 49.5 126.71 72.29 120.15 72.29 Z M130.67 60.63 C130.648 58.982 130.919 57.343 131.47 55.79 131.944 54.435 132.681 53.188 133.64 52.12 134.543 51.129 135.638 50.332 136.86 49.78 138.098 49.235 139.437 48.959 140.79 48.97 141.894 48.961 142.991 49.147 144.03 49.52 144.924 49.837 145.742 50.338 146.43 50.99 L146.43 49.53 153 49.53 153 70.17 C153.038 71.861 152.815 73.547 152.34 75.17 151.955 76.462 151.233 77.628 150.25 78.55 149.199 79.505 147.933 80.191 146.56 80.55 144.771 81.012 142.927 81.228 141.08 81.19 139.648 81.196 138.218 81.066 136.81 80.8 135.509 80.551 134.25 80.12 133.07 79.52 L133.42 74.37 C134.459 75.108 135.61 75.672 136.83 76.04 138.064 76.422 139.348 76.617 140.64 76.62 142.142 76.694 143.626 76.269 144.86 75.41 145.998 74.407 146.589 72.921 146.45 71.41 L146.45 70.41 C145.762 71.062 144.944 71.563 144.05 71.88 143.012 72.258 141.914 72.444 140.81 72.43 139.457 72.441 138.118 72.165 136.88 71.62 135.659 71.071 134.563 70.278 133.66 69.29 132.703 68.217 131.966 66.967 131.49 65.61 130.919 64.023 130.641 62.346 130.67 60.66 Z M137.32 60.63 C137.171 62.49 137.677 64.344 138.75 65.87 139.587 66.954 140.881 67.586 142.25 67.58 143.048 67.587 143.84 67.437 144.58 67.14 145.286 66.864 145.919 66.43 146.43 65.87 L146.43 55.43 C145.908 54.886 145.278 54.457 144.58 54.17 143.842 53.861 143.05 53.705 142.25 53.71 140.878 53.704 139.583 54.34 138.75 55.43 137.79 56.57 137.32 58.31 137.32 60.66 Z M168.84 53.63 C168.028 53.621 167.224 53.784 166.48 54.11 165.812 54.403 165.207 54.825 164.7 55.35 L164.7 72.24 158.14 72.24 158.14 40.2 164.7 40.2 164.7 51 C165.465 50.38 166.326 49.891 167.25 49.55 168.324 49.164 169.459 48.977 170.6 49 173.168 48.852 175.671 49.843 177.44 51.71 Q179.88 54.41 179.88 59.71 L179.88 72.29 173.32 72.29 173.32 59.82 C173.32 57.65 172.95 56.09 172.2 55.14 171.376 54.15 170.125 53.618 168.84 53.71 Z M202.67 49.45 L206.8 64.59 211 49.53 217.68 49.53 210.25 72.32 203.56 72.32 199.69 57.67 195.82 72.32 189.13 72.32 181.69 49.53 188.38 49.53 192.6 64.67 196.74 49.53 Z M227.11 72.77 C225.991 72.781 224.878 72.616 223.81 72.28 222.834 71.985 221.922 71.51 221.12 70.88 220.358 70.259 219.743 69.477 219.32 68.59 218.866 67.614 218.64 66.547 218.66 65.47 218.583 63.249 219.581 61.128 221.34 59.77 Q224.02 57.63 229.18 57.63 L233.4 57.63 233.4 56.63 C233.492 55.738 233.113 54.863 232.4 54.32 231.356 53.804 230.191 53.579 229.03 53.67 227.636 53.669 226.247 53.851 224.9 54.21 223.615 54.545 222.373 55.028 221.2 55.65 L220.6 51 C221.921 50.354 223.314 49.867 224.75 49.55 226.373 49.178 228.034 48.993 229.7 49 Q235.02 49 237.49 51 C239.13 52.34 239.96 54.57 239.96 57.71 L239.96 72.32 233.4 72.32 233.4 70.82 C232.546 71.496 231.587 72.027 230.56 72.39 229.441 72.721 228.277 72.877 227.11 72.85 Z M228.69 68.24 C229.591 68.24 230.485 68.081 231.33 67.77 232.137 67.496 232.854 67.005 233.4 66.35 L233.4 62.2 229.4 62.2 C228.274 62.09 227.146 62.396 226.23 63.06 225.589 63.668 225.249 64.528 225.3 65.41 225.23 66.247 225.569 67.067 226.21 67.61 226.933 68.119 227.807 68.369 228.69 68.32 Z M250.82 72.24 L241.67 49.49 248.53 49.49 253.94 64.63 259.31 49.49 266.18 49.49 254.52 80.77 247.65 80.77 Z M276.15 72.81 C274.642 72.814 273.138 72.666 271.66 72.37 270.273 72.092 268.929 71.635 267.66 71.01 L267.97 65.73 C269.076 66.483 270.285 67.073 271.56 67.48 272.851 67.901 274.202 68.11 275.56 68.1 277.94 68.1 279.12 67.34 279.12 65.81 279.124 65.506 279.059 65.205 278.93 64.93 278.748 64.621 278.499 64.358 278.2 64.16 277.761 63.864 277.287 63.622 276.79 63.44 276.2 63.2 275.47 62.95 274.59 62.69 272.64 62.246 270.846 61.282 269.4 59.9 268.329 58.762 267.745 57.252 267.77 55.69 267.662 53.723 268.567 51.836 270.17 50.69 Q272.57 48.96 277.1 48.97 C279.697 48.966 282.27 49.476 284.67 50.47 L284.18 55.31 C283.204 54.793 282.17 54.394 281.1 54.12 279.997 53.829 278.861 53.682 277.72 53.68 276.839 53.611 275.956 53.777 275.16 54.16 274.701 54.423 274.418 54.911 274.42 55.44 274.429 56.105 274.756 56.726 275.3 57.11 276.352 57.787 277.512 58.277 278.73 58.56 279.888 58.92 281.005 59.403 282.06 60 282.863 60.424 283.592 60.974 284.22 61.63 284.737 62.172 285.135 62.816 285.39 63.52 286.269 66.205 285.462 69.155 283.34 71.02 Q280.94 72.86 276.15 72.85 Z" fill="#19233e" fill-opacity="1" stroke="none"/>
 <path id="Path-7" d="M-31 -31 L316.2 -31 316.2 116.01 -31 116.01 Z" fill="none" stroke="none"/>
</svg>
