<svg width="409" height="210" viewBox="0 0 409 210" fill="none" xmlns="http://www.w3.org/2000/svg">
<g clip-path="url(#clip0_1728_6)">
<path d="M204.101 81.117C205.312 81.0481 213.029 80.4204 213.209 82.1363C213.486 84.7608 213.326 88.0987 213.31 90.7924L213.277 106.197L213.392 173.873C213.388 174.601 213.386 175.695 213.088 176.343C210.886 177.27 204.93 176.594 202.354 176.752C199.852 176.906 200.933 173.395 201.206 171.903C197.697 174.422 195.012 176.405 190.486 177.181C182.967 178.47 174.536 178.13 168.06 173.804C156.425 166.777 152.801 150.951 154.54 138.305C156.427 124.579 166.404 109.987 180.962 107.978C188.622 106.921 194.998 107.873 201.256 112.504C201.134 111.792 201.052 111.075 201.01 110.354C200.748 105.318 201.04 99.5318 200.927 94.4215C200.973 90.6593 200.856 86.8752 201.091 83.1198C201.224 80.9997 202.491 81.1474 204.101 81.117ZM181.245 166.834C188.457 168.621 195.188 168.092 200.76 162.761C201.076 159.117 200.852 155.434 200.957 151.819C201.213 143.031 200.62 133.377 200.953 124.693C198.756 121.134 195.996 119.083 191.904 118.121C190.62 117.828 189.301 117.717 187.986 117.791C170.959 119.66 166.032 133.436 167.543 149.163C167.981 153.713 170.244 160.214 173.98 162.98C177.087 165.255 178.088 165.319 181.245 166.834Z" fill="white"/>
<path d="M301.071 107.759C308.606 107.313 316.021 107.923 322.535 112.077C333.541 119.096 336.956 131.369 334.503 143.72C331.646 144.446 327.171 144.213 324.058 144.208L311.942 144.186C303.2 144.179 293.604 144.445 284.981 144.299C285.553 147.818 285.387 150.428 286.734 154.009C288.922 159.817 291.8 163.165 297.435 165.914C302.314 168.294 308.745 168.118 313.956 167.077C314.748 166.918 317.791 165.447 319.003 165.004C321.684 163.399 324.267 161.161 325.972 165.214C326.667 166.866 327.785 168.681 328.798 170.149C326.48 173.799 318.659 176.377 314.578 177.02C304.736 178.572 295.354 178.468 286.804 172.777C264.645 158.028 268.859 116.666 295.343 108.899C297.132 108.374 299.221 108.093 301.071 107.759ZM285.532 135.211L306.079 135.353L316.271 135.351C318.212 135.347 321.491 135.392 323.336 135.082C322.477 129.089 321.251 124.913 316.183 121.093C312.89 118.611 307.035 117.128 303.001 117.747C292.784 119.876 287.413 124.818 285.532 135.211Z" fill="white"/>
<path d="M344.755 108.737C347.847 108.757 350.975 108.489 354.061 108.626C355.218 108.677 355.868 108.798 356.614 109.744C358.245 111.81 358.965 115.139 359.941 117.598C362.057 122.939 375.223 158.92 376.413 160.207C377.733 160.047 378.453 155.219 378.913 153.873L389.046 124.314C390.59 119.814 392.109 115.195 393.682 110.697C393.926 109.999 394.488 109.309 394.974 108.75C396.576 108.631 405.263 108.485 406.342 109.005C406.582 110.603 399.17 130.668 397.876 133.929C395.464 140.002 392.872 148.23 390.428 154.263C390.407 154.333 390.389 154.402 390.368 154.472C389.32 157.986 387.594 161.882 386.345 165.392L380.982 180.414C379.801 183.719 378.074 189.268 376.193 192.035C374.471 194.569 370.291 197.909 367.559 199.332C363.667 201.424 359.477 202.594 355.101 203.089C354.248 203.185 351.719 203.868 351.506 202.667C351.028 199.969 350.995 196.043 351.473 193.347C351.719 191.967 355.923 192.525 356.918 192.2C360.616 191.225 368.187 187.339 369.137 183.304C370.915 175.739 366.655 167.103 364.133 160.241C361.046 151.844 357.919 143.97 354.59 135.716C353.561 133.168 352.796 130.637 351.762 128.105C350.764 125.469 344.176 110.181 344.755 108.737Z" fill="white"/>
<path d="M92.9993 108.591C94.2597 108.585 94.6169 109.239 94.6098 110.433C94.5856 114.499 94.516 118.565 94.482 122.631L94.4588 142.479C94.4605 143.97 94.4469 145.424 94.4666 146.96C94.5474 153.259 93.6717 161.029 99.4978 165.233C100.285 165.801 100.715 166.113 101.392 166.831C104.852 167.764 108.675 168.051 112.163 167.429C116.164 166.715 123.465 161.785 124.849 157.798C125.621 155.577 125.396 148.71 125.4 146.063L125.376 124.155C125.365 121.769 125.067 110.358 125.913 109.154C127.27 108.441 135.544 108.64 137.471 108.617C137.923 111.819 137.788 116.698 137.788 120.025L137.774 137.505L137.79 161.805C137.791 164.119 138.072 175.302 137.27 176.403C135.482 177.17 127.948 176.805 125.498 176.749C125.061 174.334 125.117 170.266 125.513 167.836C122.011 171.922 118.359 174.72 113.274 176.588C107.722 178.627 99.2833 178.139 93.9437 175.669C89.321 173.487 85.8357 169.342 84.1272 164.573C82.2628 159.502 82.2737 154.023 82.3077 148.678C82.3867 136.217 82.1857 123.732 82.4084 111.272C82.4209 110.576 82.5259 109.673 82.8163 109.046C83.9676 108.407 90.9739 108.673 92.9993 108.591Z" fill="white"/>
<path d="M238.046 81.1237C240.12 81.0558 245.616 80.5569 247.183 81.6321C247.982 83.0578 247.699 102.902 247.699 106.301L247.708 146.489C247.714 154.948 245.714 164.436 256.145 166.827C256.727 166.96 258.433 167.443 258.749 167.866C259.744 169.201 259.694 176.82 258.899 177.671C258.3 178.112 257.849 178.047 257.1 178.059C251.223 176.657 247.279 177.616 241.98 173.297C234.328 167.058 235.495 157.275 235.51 148.473L235.518 129.865L235.514 103.193C235.501 96.7047 235.417 90.2062 235.661 83.7226C235.741 81.6089 235.842 81.2414 238.046 81.1237Z" fill="white"/>
<path d="M0 84.4677C2.28022 83.7378 8.32691 83.8543 11.0523 83.8049C21.9319 83.6076 33.7429 82.4284 43.7659 87.6374C53.3222 92.6038 59.906 100.871 63.1608 111.057C63.4614 111.998 64.6134 116.433 64.6821 117.34C65.325 125.827 65.383 136.36 63.5406 144.619C62.6612 148.59 61.2702 152.43 59.4027 156.043C54.7274 164.879 46.7102 171.477 37.1397 174.365C33.8652 175.388 30.1934 176.119 26.7965 176.481C24.2205 176.756 1.88756 177.266 0.418776 176.528C0.375623 176.506 0.33464 176.481 0.291599 176.459C0.230854 176.428 0.168196 176.401 0.107507 176.37C0.070957 176.351 0.0358356 176.33 0 176.31V84.4677ZM13.0989 95.5296C13.2903 110.931 12.9853 126.455 13.1335 141.848C13.1983 148.572 12.808 158.21 13.3643 164.75C21.1879 165.619 31.348 165.952 38.0504 160.972C38.7751 160.433 39.3381 159.874 40.1498 159.304C41.1411 158.642 41.6897 157.691 42.4981 156.88C46.5749 152.787 49.2996 145.958 50.464 140.368C52.7393 129.445 52.4436 114.559 45.9381 105.021C42.4487 99.9062 36.006 96.5187 29.9732 95.4531C25.9098 94.7356 23.4552 94.7081 19.4073 94.8324C17.593 95.0717 14.855 95.512 13.0989 95.5296Z" fill="white"/>
<path d="M284.255 0H303.274C305.985 1.10845 315.615 0.407074 319.071 1.36566C320.722 1.82337 324.526 2.09495 326.394 2.38044C361.073 7.67523 401.89 26.031 407.855 64.7185C408.021 65.7698 408.034 67.7291 408.516 68.5814V78.218C407.687 79.9546 407.58 92.3356 404.406 92.3781C404.035 91.7848 403.659 82.5659 403.298 80.6244C397.154 47.5068 364.637 26.7391 333.927 19.4221C311.747 14.1379 289.31 13.4646 266.655 15.3071C227.471 18.5319 189.315 29.5013 154.401 47.58C131.103 59.7064 109.446 75.1802 91.8387 94.6417C90.519 96.1004 85.4919 103.075 83.8002 102.57C82.5659 99.7047 96.0093 83.2549 98.3107 80.6004C102.875 75.3357 107.709 70.0707 112.957 65.4739C159.476 24.7224 223.027 3.48463 284.146 0.0617123C284.183 0.0411415 284.218 0.0205708 284.255 0Z" fill="white"/>
<path d="M3.11364 186.545H5.63636L11.5682 201.034H11.7727L17.7045 186.545H20.2273V204H18.25V190.739H18.0795L12.625 204H10.7159L5.26136 190.739H5.09091V204H3.11364V186.545ZM29.9211 204.273C28.6597 204.273 27.5717 203.994 26.6569 203.438C25.7478 202.875 25.0461 202.091 24.5518 201.085C24.0632 200.074 23.8188 198.898 23.8188 197.557C23.8188 196.216 24.0632 195.034 24.5518 194.011C25.0461 192.983 25.7336 192.182 26.6143 191.608C27.5007 191.028 28.5347 190.739 29.7166 190.739C30.3984 190.739 31.0717 190.852 31.7364 191.08C32.4012 191.307 33.0063 191.676 33.5518 192.188C34.0972 192.693 34.5319 193.364 34.8558 194.199C35.1796 195.034 35.3416 196.062 35.3416 197.284V198.136H25.2507V196.398H33.2961C33.2961 195.659 33.1484 195 32.8529 194.42C32.5632 193.841 32.1484 193.384 31.6086 193.048C31.0745 192.713 30.4438 192.545 29.7166 192.545C28.9154 192.545 28.2222 192.744 27.637 193.142C27.0575 193.534 26.6114 194.045 26.2989 194.676C25.9864 195.307 25.8302 195.983 25.8302 196.705V197.864C25.8302 198.852 26.0007 199.69 26.3416 200.378C26.6882 201.06 27.1683 201.58 27.7819 201.938C28.3955 202.29 29.1086 202.466 29.9211 202.466C30.4495 202.466 30.9268 202.392 31.3529 202.244C31.7847 202.091 32.1569 201.864 32.4694 201.562C32.7819 201.256 33.0234 200.875 33.1938 200.42L35.137 200.966C34.9325 201.625 34.5887 202.205 34.1058 202.705C33.6228 203.199 33.0262 203.585 32.316 203.864C31.6058 204.136 30.8075 204.273 29.9211 204.273ZM44.3344 190.909V192.614H37.5503V190.909H44.3344ZM39.5276 187.773H41.5389V200.25C41.5389 200.818 41.6213 201.244 41.7861 201.528C41.9566 201.807 42.1725 201.994 42.4338 202.091C42.7009 202.182 42.9821 202.227 43.2776 202.227C43.4992 202.227 43.681 202.216 43.823 202.193C43.9651 202.165 44.0787 202.142 44.1639 202.125L44.573 203.932C44.4367 203.983 44.2463 204.034 44.002 204.085C43.7577 204.142 43.448 204.17 43.073 204.17C42.5049 204.17 41.948 204.048 41.4026 203.804C40.8628 203.56 40.4139 203.188 40.056 202.688C39.7037 202.188 39.5276 201.557 39.5276 200.795V187.773ZM47.6 204V190.909H49.5432V192.886H49.6795C49.9182 192.239 50.35 191.713 50.975 191.31C51.6 190.906 52.3045 190.705 53.0886 190.705C53.2363 190.705 53.421 190.707 53.6426 190.713C53.8642 190.719 54.0318 190.727 54.1454 190.739V192.784C54.0772 192.767 53.921 192.741 53.6767 192.707C53.438 192.668 53.1852 192.648 52.9182 192.648C52.2818 192.648 51.7136 192.781 51.2136 193.048C50.7193 193.31 50.3272 193.673 50.0375 194.139C49.7534 194.599 49.6113 195.125 49.6113 195.716V204H47.6ZM61.6894 204.273C60.5076 204.273 59.4707 203.991 58.5786 203.429C57.6922 202.866 56.9991 202.08 56.4991 201.068C56.0047 200.057 55.7576 198.875 55.7576 197.523C55.7576 196.159 56.0047 194.969 56.4991 193.952C56.9991 192.935 57.6922 192.145 58.5786 191.582C59.4707 191.02 60.5076 190.739 61.6894 190.739C62.8712 190.739 63.9053 191.02 64.7917 191.582C65.6837 192.145 66.3769 192.935 66.8712 193.952C67.3712 194.969 67.6212 196.159 67.6212 197.523C67.6212 198.875 67.3712 200.057 66.8712 201.068C66.3769 202.08 65.6837 202.866 64.7917 203.429C63.9053 203.991 62.8712 204.273 61.6894 204.273ZM61.6894 202.466C62.5871 202.466 63.3258 202.236 63.9053 201.776C64.4849 201.315 64.9138 200.71 65.1922 199.96C65.4707 199.21 65.6099 198.398 65.6099 197.523C65.6099 196.648 65.4707 195.832 65.1922 195.077C64.9138 194.321 64.4849 193.71 63.9053 193.244C63.3258 192.778 62.5871 192.545 61.6894 192.545C60.7917 192.545 60.053 192.778 59.4735 193.244C58.8939 193.71 58.465 194.321 58.1866 195.077C57.9082 195.832 57.7689 196.648 57.7689 197.523C57.7689 198.398 57.9082 199.21 58.1866 199.96C58.465 200.71 58.8939 201.315 59.4735 201.776C60.053 202.236 60.7917 202.466 61.6894 202.466ZM70.9315 208.909V190.909H72.8747V192.989H73.1133C73.2611 192.761 73.4656 192.472 73.727 192.119C73.994 191.761 74.3747 191.443 74.869 191.165C75.369 190.881 76.0452 190.739 76.8974 190.739C77.9997 190.739 78.9713 191.014 79.8122 191.565C80.6531 192.116 81.3094 192.898 81.781 193.909C82.2526 194.92 82.4883 196.114 82.4883 197.489C82.4883 198.875 82.2526 200.077 81.781 201.094C81.3094 202.105 80.656 202.889 79.8207 203.446C78.9855 203.997 78.0224 204.273 76.9315 204.273C76.0906 204.273 75.4173 204.134 74.9116 203.855C74.406 203.571 74.0168 203.25 73.744 202.892C73.4713 202.528 73.2611 202.227 73.1133 201.989H72.9429V208.909H70.9315ZM72.9088 197.455C72.9088 198.443 73.0537 199.315 73.3435 200.071C73.6332 200.821 74.0565 201.409 74.6133 201.835C75.1702 202.256 75.852 202.466 76.6588 202.466C77.4997 202.466 78.2014 202.244 78.7639 201.801C79.3321 201.352 79.7582 200.75 80.0423 199.994C80.3321 199.233 80.477 198.386 80.477 197.455C80.477 196.534 80.3349 195.705 80.0508 194.966C79.7724 194.222 79.3491 193.634 78.781 193.202C78.2185 192.764 77.5111 192.545 76.6588 192.545C75.8406 192.545 75.1531 192.753 74.5963 193.168C74.0395 193.577 73.619 194.151 73.3349 194.889C73.0508 195.622 72.9088 196.477 72.9088 197.455ZM91.1147 204.273C89.9329 204.273 88.896 203.991 88.0039 203.429C87.1176 202.866 86.4244 202.08 85.9244 201.068C85.4301 200.057 85.1829 198.875 85.1829 197.523C85.1829 196.159 85.4301 194.969 85.9244 193.952C86.4244 192.935 87.1176 192.145 88.0039 191.582C88.896 191.02 89.9329 190.739 91.1147 190.739C92.2965 190.739 93.3306 191.02 94.217 191.582C95.109 192.145 95.8022 192.935 96.2965 193.952C96.7965 194.969 97.0465 196.159 97.0465 197.523C97.0465 198.875 96.7965 200.057 96.2965 201.068C95.8022 202.08 95.109 202.866 94.217 203.429C93.3306 203.991 92.2965 204.273 91.1147 204.273ZM91.1147 202.466C92.0124 202.466 92.7511 202.236 93.3306 201.776C93.9102 201.315 94.3392 200.71 94.6176 199.96C94.896 199.21 95.0352 198.398 95.0352 197.523C95.0352 196.648 94.896 195.832 94.6176 195.077C94.3392 194.321 93.9102 193.71 93.3306 193.244C92.7511 192.778 92.0124 192.545 91.1147 192.545C90.217 192.545 89.4784 192.778 88.8988 193.244C88.3193 193.71 87.8903 194.321 87.6119 195.077C87.3335 195.832 87.1943 196.648 87.1943 197.523C87.1943 198.398 87.3335 199.21 87.6119 199.96C87.8903 200.71 88.3193 201.315 88.8988 201.776C89.4784 202.236 90.217 202.466 91.1147 202.466ZM102.368 186.545V204H100.357V186.545H102.368ZM106.292 204V190.909H108.304V204H106.292ZM107.315 188.727C106.923 188.727 106.585 188.594 106.301 188.327C106.022 188.06 105.883 187.739 105.883 187.364C105.883 186.989 106.022 186.668 106.301 186.401C106.585 186.134 106.923 186 107.315 186C107.707 186 108.042 186.134 108.321 186.401C108.605 186.668 108.747 186.989 108.747 187.364C108.747 187.739 108.605 188.06 108.321 188.327C108.042 188.594 107.707 188.727 107.315 188.727ZM117.921 190.909V192.614H111.137V190.909H117.921ZM113.114 187.773H115.125V200.25C115.125 200.818 115.208 201.244 115.372 201.528C115.543 201.807 115.759 201.994 116.02 202.091C116.287 202.182 116.568 202.227 116.864 202.227C117.085 202.227 117.267 202.216 117.409 202.193C117.551 202.165 117.665 202.142 117.75 202.125L118.159 203.932C118.023 203.983 117.833 204.034 117.588 204.085C117.344 204.142 117.034 204.17 116.659 204.17C116.091 204.17 115.534 204.048 114.989 203.804C114.449 203.56 114 203.188 113.642 202.688C113.29 202.188 113.114 201.557 113.114 200.795V187.773ZM125.038 204.307C124.209 204.307 123.456 204.151 122.78 203.838C122.104 203.52 121.567 203.062 121.169 202.466C120.771 201.864 120.573 201.136 120.573 200.284C120.573 199.534 120.72 198.926 121.016 198.46C121.311 197.989 121.706 197.619 122.2 197.352C122.695 197.085 123.24 196.886 123.837 196.756C124.439 196.619 125.044 196.511 125.652 196.432C126.448 196.33 127.092 196.253 127.587 196.202C128.087 196.145 128.45 196.051 128.678 195.92C128.911 195.79 129.027 195.562 129.027 195.239V195.17C129.027 194.33 128.797 193.676 128.337 193.21C127.882 192.744 127.192 192.511 126.266 192.511C125.306 192.511 124.553 192.722 124.007 193.142C123.462 193.562 123.078 194.011 122.857 194.489L120.948 193.807C121.288 193.011 121.743 192.392 122.311 191.949C122.885 191.5 123.51 191.187 124.186 191.011C124.868 190.83 125.538 190.739 126.198 190.739C126.618 190.739 127.101 190.79 127.646 190.892C128.198 190.989 128.729 191.19 129.24 191.497C129.757 191.804 130.186 192.267 130.527 192.886C130.868 193.506 131.038 194.335 131.038 195.375V204H129.027V202.227H128.925C128.788 202.511 128.561 202.815 128.243 203.139C127.925 203.463 127.502 203.739 126.973 203.966C126.445 204.193 125.8 204.307 125.038 204.307ZM125.345 202.5C126.141 202.5 126.811 202.344 127.357 202.031C127.908 201.719 128.323 201.315 128.601 200.821C128.885 200.327 129.027 199.807 129.027 199.261V197.42C128.942 197.523 128.754 197.616 128.465 197.702C128.181 197.781 127.851 197.852 127.476 197.915C127.107 197.972 126.746 198.023 126.394 198.068C126.047 198.108 125.766 198.142 125.55 198.17C125.027 198.239 124.538 198.349 124.084 198.503C123.635 198.651 123.271 198.875 122.993 199.176C122.72 199.472 122.584 199.875 122.584 200.386C122.584 201.085 122.842 201.614 123.36 201.972C123.882 202.324 124.544 202.5 125.345 202.5ZM136.961 196.125V204H134.95V190.909H136.893V192.955H137.063C137.37 192.29 137.836 191.756 138.461 191.352C139.086 190.943 139.893 190.739 140.881 190.739C141.768 190.739 142.543 190.92 143.208 191.284C143.873 191.642 144.39 192.188 144.759 192.92C145.129 193.648 145.313 194.568 145.313 195.682V204H143.302V195.818C143.302 194.79 143.035 193.989 142.501 193.415C141.967 192.835 141.234 192.545 140.302 192.545C139.66 192.545 139.086 192.685 138.58 192.963C138.08 193.241 137.685 193.648 137.396 194.182C137.106 194.716 136.961 195.364 136.961 196.125ZM156.491 204V186.545H162.594C163.81 186.545 164.812 186.756 165.602 187.176C166.392 187.591 166.98 188.151 167.366 188.855C167.753 189.554 167.946 190.33 167.946 191.182C167.946 191.932 167.812 192.551 167.545 193.04C167.284 193.528 166.937 193.915 166.506 194.199C166.08 194.483 165.616 194.693 165.116 194.83V195C165.651 195.034 166.187 195.222 166.727 195.562C167.267 195.903 167.719 196.392 168.082 197.028C168.446 197.665 168.628 198.443 168.628 199.364C168.628 200.239 168.429 201.026 168.031 201.724C167.633 202.423 167.006 202.977 166.148 203.386C165.29 203.795 164.173 204 162.798 204H156.491ZM158.605 202.125H162.798C164.179 202.125 165.159 201.858 165.739 201.324C166.324 200.784 166.616 200.131 166.616 199.364C166.616 198.773 166.466 198.227 166.165 197.727C165.864 197.222 165.435 196.818 164.878 196.517C164.321 196.21 163.662 196.057 162.901 196.057H158.605V202.125ZM158.605 194.216H162.526C163.162 194.216 163.736 194.091 164.247 193.841C164.764 193.591 165.173 193.239 165.474 192.784C165.781 192.33 165.935 191.795 165.935 191.182C165.935 190.415 165.668 189.764 165.133 189.23C164.599 188.69 163.753 188.42 162.594 188.42H158.605V194.216ZM177.386 204.273C176.204 204.273 175.168 203.991 174.275 203.429C173.389 202.866 172.696 202.08 172.196 201.068C171.702 200.057 171.454 198.875 171.454 197.523C171.454 196.159 171.702 194.969 172.196 193.952C172.696 192.935 173.389 192.145 174.275 191.582C175.168 191.02 176.204 190.739 177.386 190.739C178.568 190.739 179.602 191.02 180.489 191.582C181.381 192.145 182.074 192.935 182.568 193.952C183.068 194.969 183.318 196.159 183.318 197.523C183.318 198.875 183.068 200.057 182.568 201.068C182.074 202.08 181.381 202.866 180.489 203.429C179.602 203.991 178.568 204.273 177.386 204.273ZM177.386 202.466C178.284 202.466 179.023 202.236 179.602 201.776C180.182 201.315 180.611 200.71 180.889 199.96C181.168 199.21 181.307 198.398 181.307 197.523C181.307 196.648 181.168 195.832 180.889 195.077C180.611 194.321 180.182 193.71 179.602 193.244C179.023 192.778 178.284 192.545 177.386 192.545C176.489 192.545 175.75 192.778 175.17 193.244C174.591 193.71 174.162 194.321 173.883 195.077C173.605 195.832 173.466 196.648 173.466 197.523C173.466 198.398 173.605 199.21 173.883 199.96C174.162 200.71 174.591 201.315 175.17 201.776C175.75 202.236 176.489 202.466 177.386 202.466ZM186.628 204V190.909H188.572V192.886H188.708C188.947 192.239 189.378 191.713 190.003 191.31C190.628 190.906 191.333 190.705 192.117 190.705C192.265 190.705 192.449 190.707 192.671 190.713C192.893 190.719 193.06 190.727 193.174 190.739V192.784C193.106 192.767 192.949 192.741 192.705 192.707C192.466 192.668 192.214 192.648 191.947 192.648C191.31 192.648 190.742 192.781 190.242 193.048C189.748 193.31 189.356 193.673 189.066 194.139C188.782 194.599 188.64 195.125 188.64 195.716V204H186.628ZM200.718 204.273C199.536 204.273 198.499 203.991 197.607 203.429C196.721 202.866 196.027 202.08 195.527 201.068C195.033 200.057 194.786 198.875 194.786 197.523C194.786 196.159 195.033 194.969 195.527 193.952C196.027 192.935 196.721 192.145 197.607 191.582C198.499 191.02 199.536 190.739 200.718 190.739C201.9 190.739 202.934 191.02 203.82 191.582C204.712 192.145 205.405 192.935 205.9 193.952C206.4 194.969 206.65 196.159 206.65 197.523C206.65 198.875 206.4 200.057 205.9 201.068C205.405 202.08 204.712 202.866 203.82 203.429C202.934 203.991 201.9 204.273 200.718 204.273ZM200.718 202.466C201.616 202.466 202.354 202.236 202.934 201.776C203.513 201.315 203.942 200.71 204.221 199.96C204.499 199.21 204.638 198.398 204.638 197.523C204.638 196.648 204.499 195.832 204.221 195.077C203.942 194.321 203.513 193.71 202.934 193.244C202.354 192.778 201.616 192.545 200.718 192.545C199.82 192.545 199.081 192.778 198.502 193.244C197.922 193.71 197.493 194.321 197.215 195.077C196.937 195.832 196.797 196.648 196.797 197.523C196.797 198.398 196.937 199.21 197.215 199.96C197.493 200.71 197.922 201.315 198.502 201.776C199.081 202.236 199.82 202.466 200.718 202.466ZM218.21 198.648V190.909H220.221V204H218.21V201.784H218.074C217.767 202.449 217.29 203.014 216.642 203.48C215.994 203.94 215.176 204.17 214.187 204.17C213.369 204.17 212.642 203.991 212.005 203.634C211.369 203.27 210.869 202.724 210.505 201.997C210.142 201.264 209.96 200.341 209.96 199.227V190.909H211.971V199.091C211.971 200.045 212.238 200.807 212.772 201.375C213.312 201.943 214 202.227 214.835 202.227C215.335 202.227 215.843 202.099 216.361 201.844C216.883 201.588 217.321 201.196 217.673 200.668C218.031 200.139 218.21 199.466 218.21 198.648ZM229.429 209.182C228.458 209.182 227.623 209.057 226.924 208.807C226.225 208.562 225.642 208.239 225.177 207.835C224.716 207.438 224.35 207.011 224.077 206.557L225.679 205.432C225.861 205.67 226.091 205.943 226.37 206.25C226.648 206.562 227.029 206.832 227.512 207.06C228 207.293 228.64 207.409 229.429 207.409C230.486 207.409 231.358 207.153 232.046 206.642C232.733 206.131 233.077 205.33 233.077 204.239V201.58H232.907C232.759 201.818 232.549 202.114 232.276 202.466C232.009 202.812 231.623 203.122 231.117 203.395C230.617 203.662 229.941 203.795 229.088 203.795C228.032 203.795 227.083 203.545 226.242 203.045C225.407 202.545 224.745 201.818 224.256 200.864C223.773 199.909 223.532 198.75 223.532 197.386C223.532 196.045 223.767 194.878 224.239 193.884C224.711 192.884 225.367 192.111 226.208 191.565C227.049 191.014 228.02 190.739 229.123 190.739C229.975 190.739 230.651 190.881 231.151 191.165C231.657 191.443 232.043 191.761 232.31 192.119C232.583 192.472 232.793 192.761 232.941 192.989H233.145V190.909H235.088V204.375C235.088 205.5 234.833 206.415 234.321 207.119C233.816 207.83 233.134 208.349 232.276 208.679C231.424 209.014 230.475 209.182 229.429 209.182ZM229.361 201.989C230.168 201.989 230.85 201.804 231.407 201.435C231.963 201.065 232.387 200.534 232.677 199.841C232.966 199.148 233.111 198.318 233.111 197.352C233.111 196.409 232.969 195.577 232.685 194.855C232.401 194.134 231.981 193.568 231.424 193.159C230.867 192.75 230.179 192.545 229.361 192.545C228.509 192.545 227.799 192.761 227.231 193.193C226.668 193.625 226.245 194.205 225.961 194.932C225.682 195.659 225.543 196.466 225.543 197.352C225.543 198.261 225.685 199.065 225.969 199.764C226.259 200.457 226.685 201.003 227.248 201.401C227.816 201.793 228.52 201.989 229.361 201.989ZM241.022 196.125V204H239.01V186.545H241.022V192.955H241.192C241.499 192.278 241.959 191.741 242.573 191.344C243.192 190.94 244.016 190.739 245.044 190.739C245.936 190.739 246.718 190.918 247.388 191.276C248.059 191.628 248.578 192.17 248.948 192.903C249.323 193.631 249.51 194.557 249.51 195.682V204H247.499V195.818C247.499 194.778 247.229 193.974 246.689 193.406C246.155 192.832 245.414 192.545 244.465 192.545C243.806 192.545 243.215 192.685 242.692 192.963C242.175 193.241 241.766 193.648 241.465 194.182C241.169 194.716 241.022 195.364 241.022 196.125ZM274.738 192H272.625C272.5 191.392 272.281 190.858 271.968 190.398C271.661 189.938 271.286 189.551 270.843 189.239C270.406 188.92 269.92 188.682 269.386 188.523C268.852 188.364 268.295 188.284 267.715 188.284C266.659 188.284 265.701 188.551 264.843 189.085C263.991 189.619 263.312 190.406 262.806 191.446C262.306 192.486 262.056 193.761 262.056 195.273C262.056 196.784 262.306 198.06 262.806 199.099C263.312 200.139 263.991 200.926 264.843 201.46C265.701 201.994 266.659 202.261 267.715 202.261C268.295 202.261 268.852 202.182 269.386 202.023C269.92 201.864 270.406 201.628 270.843 201.315C271.286 200.997 271.661 200.608 271.968 200.148C272.281 199.682 272.5 199.148 272.625 198.545H274.738C274.579 199.437 274.289 200.236 273.869 200.94C273.448 201.645 272.926 202.244 272.301 202.739C271.676 203.227 270.974 203.599 270.196 203.855C269.423 204.111 268.596 204.239 267.715 204.239C266.227 204.239 264.903 203.875 263.744 203.148C262.585 202.42 261.673 201.386 261.008 200.045C260.343 198.705 260.011 197.114 260.011 195.273C260.011 193.432 260.343 191.841 261.008 190.5C261.673 189.159 262.585 188.125 263.744 187.398C264.903 186.67 266.227 186.307 267.715 186.307C268.596 186.307 269.423 186.435 270.196 186.69C270.974 186.946 271.676 187.321 272.301 187.815C272.926 188.304 273.448 188.901 273.869 189.605C274.289 190.304 274.579 191.102 274.738 192ZM283.439 204.273C282.257 204.273 281.22 203.991 280.328 203.429C279.442 202.866 278.749 202.08 278.249 201.068C277.754 200.057 277.507 198.875 277.507 197.523C277.507 196.159 277.754 194.969 278.249 193.952C278.749 192.935 279.442 192.145 280.328 191.582C281.22 191.02 282.257 190.739 283.439 190.739C284.621 190.739 285.655 191.02 286.541 191.582C287.433 192.145 288.127 192.935 288.621 193.952C289.121 194.969 289.371 196.159 289.371 197.523C289.371 198.875 289.121 200.057 288.621 201.068C288.127 202.08 287.433 202.866 286.541 203.429C285.655 203.991 284.621 204.273 283.439 204.273ZM283.439 202.466C284.337 202.466 285.075 202.236 285.655 201.776C286.235 201.315 286.664 200.71 286.942 199.96C287.22 199.21 287.36 198.398 287.36 197.523C287.36 196.648 287.22 195.832 286.942 195.077C286.664 194.321 286.235 193.71 285.655 193.244C285.075 192.778 284.337 192.545 283.439 192.545C282.541 192.545 281.803 192.778 281.223 193.244C280.644 193.71 280.215 194.321 279.936 195.077C279.658 195.832 279.519 196.648 279.519 197.523C279.519 198.398 279.658 199.21 279.936 199.96C280.215 200.71 280.644 201.315 281.223 201.776C281.803 202.236 282.541 202.466 283.439 202.466ZM300.931 198.648V190.909H302.943V204H300.931V201.784H300.795C300.488 202.449 300.011 203.014 299.363 203.48C298.715 203.94 297.897 204.17 296.908 204.17C296.09 204.17 295.363 203.991 294.727 203.634C294.09 203.27 293.59 202.724 293.227 201.997C292.863 201.264 292.681 200.341 292.681 199.227V190.909H294.693V199.091C294.693 200.045 294.96 200.807 295.494 201.375C296.033 201.943 296.721 202.227 297.556 202.227C298.056 202.227 298.565 202.099 299.082 201.844C299.605 201.588 300.042 201.196 300.394 200.668C300.752 200.139 300.931 199.466 300.931 198.648ZM308.878 196.125V204H306.867V190.909H308.81V192.955H308.98C309.287 192.29 309.753 191.756 310.378 191.352C311.003 190.943 311.81 190.739 312.798 190.739C313.685 190.739 314.46 190.92 315.125 191.284C315.79 191.642 316.307 192.188 316.676 192.92C317.046 193.648 317.23 194.568 317.23 195.682V204H315.219V195.818C315.219 194.79 314.952 193.989 314.418 193.415C313.884 192.835 313.151 192.545 312.219 192.545C311.577 192.545 311.003 192.685 310.497 192.963C309.997 193.241 309.602 193.648 309.313 194.182C309.023 194.716 308.878 195.364 308.878 196.125ZM326.464 204.273C325.237 204.273 324.18 203.983 323.293 203.403C322.407 202.824 321.725 202.026 321.248 201.009C320.771 199.991 320.532 198.83 320.532 197.523C320.532 196.193 320.776 195.02 321.265 194.003C321.759 192.98 322.447 192.182 323.327 191.608C324.214 191.028 325.248 190.739 326.43 190.739C327.35 190.739 328.18 190.909 328.918 191.25C329.657 191.591 330.262 192.068 330.734 192.682C331.205 193.295 331.498 194.011 331.612 194.83H329.6C329.447 194.233 329.106 193.705 328.577 193.244C328.055 192.778 327.35 192.545 326.464 192.545C325.68 192.545 324.992 192.75 324.401 193.159C323.816 193.562 323.359 194.134 323.029 194.872C322.705 195.605 322.543 196.466 322.543 197.455C322.543 198.466 322.702 199.347 323.021 200.097C323.344 200.847 323.799 201.429 324.384 201.844C324.975 202.259 325.668 202.466 326.464 202.466C326.987 202.466 327.461 202.375 327.887 202.193C328.313 202.011 328.674 201.75 328.969 201.409C329.265 201.068 329.475 200.659 329.6 200.182H331.612C331.498 200.955 331.217 201.651 330.768 202.27C330.325 202.884 329.737 203.372 329.004 203.736C328.276 204.094 327.43 204.273 326.464 204.273ZM334.792 204V190.909H336.803V204H334.792ZM335.815 188.727C335.423 188.727 335.084 188.594 334.8 188.327C334.522 188.06 334.383 187.739 334.383 187.364C334.383 186.989 334.522 186.668 334.8 186.401C335.084 186.134 335.423 186 335.815 186C336.207 186 336.542 186.134 336.82 186.401C337.104 186.668 337.246 186.989 337.246 187.364C337.246 187.739 337.104 188.06 336.82 188.327C336.542 188.594 336.207 188.727 335.815 188.727ZM342.739 186.545V204H340.727V186.545H342.739Z" fill="white"/>
</g>
<defs>
<clipPath id="clip0_1728_6">
<rect width="408.516" height="210" fill="white"/>
</clipPath>
</defs>
</svg>
