<svg width="24" height="24" viewbox="0 0 24 24" xmlns="http://www.w3.org/2000/svg"><path d="M22.6 5.5a9 9 0 0 1-2.2 2.2v.6a12.3 12.3 0 0 1-2 6.8c-.8 1-1.6 2-2.5 2.8a12.6 12.6 0 0 1-14.4.7h1c2 0 3.8-.5 5.4-1.8-1 0-1.8-.3-2.6-.8a4.2 4.2 0 0 1-1.5-2.2l.8.1 1.2-.1c-1-.3-1.9-.7-2.5-1.5-.7-.8-1-1.7-1-2.8.6.3 1.3.5 2 .5a4.3 4.3 0 0 1-1.4-5.8 12.3 12.3 0 0 0 9 4.5l-.2-1c0-1.1.5-2.2 1.3-3 .8-.8 1.9-1.3 3-1.3 1.3 0 2.4.5 3.2 1.4 1-.2 2-.5 2.8-1-.4 1-1 1.8-2 2.3.9 0 1.7-.3 2.6-.6z" fill="#091F67" fill-rule="nonzero"/></svg>