<svg width="200" height="49" viewBox="0 0 200 49" xmlns="http://www.w3.org/2000/svg"><g fill="#FFF" fill-rule="nonzero"><path d="M195 33.4c0-.3 0-.5-.3-.5l-.7.8c-.5.7-1.9 1.6-2.4 1.9-.3 0-.4.2-.4.4 0 .3.2.3.3.3.9.1 1.2.2 1.2 2.1v6c0 1.7 0 2-1 2.3-.6 0-.8.2-.8.5 0 .4.3.4.4.4l2.5-.1h2.8c.2 0 .5 0 .5-.4s-.3-.5-.8-.5c-1.3 0-1.3-1-1.3-2.2v-5.9c0-2.6.7-3 1.2-3 .2 0 .3 0 .8.6.3.6.7.8 1.2.8.6 0 1.5-.5 1.5-1.7 0-1.3-.9-2-1.8-2-1.4 0-2.5 1.9-2.6 2l-.2.2-.1-.4v-1.6zM84.7 36.4l-.2-.7.1-.4 1.6-4c.8-2 1-2.2 1.7-2.2.6 0 .9-.2.9-.6 0-.4-.3-.4-.6-.4l-1.3.1h-2c-.2 0-.4 0-.4.3a.4.4 0 0 0 .4.4c.5.1.8.3.8.7 0 .4-.1.7-.3 1L84 34.5l-1.4-4-.2-1.1c0-.3.2-.4.5-.4.2 0 .9 0 .9-.5a.4.4 0 0 0-.4-.4l-2.3.1h-2.6c-.2 0-.5 0-.5.3 0 .4.3.4.9.6.4 0 .6.4 1.1 1.9l2.4 6.6v.9l-1.9 4.7-4.4-12.7c-.2-.3-.2-.7-.3-1 0-.4.5-.5.6-.5.4 0 .7 0 .7-.5 0-.4-.3-.4-.6-.4l-2.5.1-2.4-.1c-.2 0-.5 0-.5.4s0 .4.9.6c.4 0 .7.2 1.3 1.8L79 47.3c.1.4.3.7.5.7s.3-.1.6-.9l2.9-7.8 2.5 8c.2.6.4.7.6.7.2 0 .3-.2.4-.6l5.1-15.6c.8-2.6 1.2-2.6 1.7-2.7.6-.1.9-.2.9-.6 0-.4-.3-.4-.4-.4l-1.7.1h-1.8c-.2 0-.6 0-.6.3 0 .4.2.4.4.5.8.1 1 .2 1 .7a9 9 0 0 1-.4 1.7L87 43l-2.2-6.5zM101.6 38.2c.3 0 .6 0 .6-.5 0-1-.8-4.5-4.4-4.5-3.2 0-6 3-6 7.5 0 4.4 2.5 7 5.6 7 3 0 4.8-2.7 4.8-3.1 0-.1 0-.3-.3-.3l-.5.5c-.6.8-1.6 1.2-2.6 1.2-2.5 0-4.3-2.6-4.3-6.1 0-1.6.3-1.7.7-1.7h6.4zm-6.1-1c-.6 0-.7 0-.7-.3 0-.5.8-3 3-3 .3 0 2 0 2 1.9 0 .8-.7 1.5-1.7 1.5h-2.6zM103.6 45.7c0 .8 0 1 .3 1.2.9.5 2 .8 3 .9 3.2 0 4.6-2.7 4.6-5 0-2.7-2-3.8-2.8-4.2-2.4-1.3-3-1.6-3-2.8a1.8 1.8 0 0 1 2-2c1.6 0 2.2 1.7 2.4 2.3.1.6.2.7.4.7s.3-.4.3-.5v-1.8c0-.5 0-.9-.5-1l-2.4-.3c-3.1 0-4.2 2.5-4.2 4.2 0 2.3 1.7 3.1 3.1 3.9 1.7.8 2.8 1.5 2.8 3.2 0 1.6-1.3 2.5-2.4 2.5-2 0-2.6-2.7-2.7-3.3-.1-.5-.3-.8-.5-.8-.3 0-.4.4-.4.5v2.3zM116.3 35.6c0-.6 0-.7.4-.7h2.1c.4 0 .4 0 .5-.6 0-.5-.1-.6-.3-.6h-2.1c-.5 0-.6 0-.6-.7v-2c0-.6-.3-.6-.3-.6-.2 0-.4.3-.4.4a7 7 0 0 1-2.2 2.8l-.6.4-.4.6c0 .3.3.3.4.3h.6c.4 0 .5.2.5.6v8.9c0 2.3 1.2 3.4 2.5 3.4 1.7 0 3.2-2 3.2-2.4 0-.1 0-.3-.2-.3l-.2.2c-.9.6-1.2.7-1.6.7-1.2 0-1.3-1.4-1.3-2.8v-7.6zM135.8 44.4c0 1.7 0 2-1 2.3-.5 0-.7.2-.7.5 0 .4.2.4.4.4l2.4-.1h2.5c.2 0 .4 0 .4-.3s-.1-.4-.7-.5c-1-.2-1-.6-1-2.3V37c0-1-.3-3.8-3.4-3.8-.8 0-1.7.4-2.7 1.4 0 .1-.6 1-.8 1l-.5-.8c-.4-1-1.4-1.6-2.5-1.6s-2 .2-3.3 2l-.3.3-.1-.6v-1.5c0-.3 0-.6-.3-.6-.2 0-.4.3-.5.6a7 7 0 0 1-2.5 2c-.2 0-.3.2-.3.4 0 .4.3.4.6.4.8.1.8.8.8 2.3v6c0 1.6 0 2-1 2.2-.6 0-.8.2-.8.5 0 .4.3.4.4.4l2.5-.1h2.4c.2 0 .5 0 .5-.3s-.1-.4-.7-.5c-1-.2-1-.6-1-2.3v-6.6c0-.7 0-1.3.4-1.7.4-.7 1-1 2-1 1.7 0 2 1.6 2 3.2v6c0 1.9 0 2.2-1 2.4-.5 0-.7.2-.7.5 0 .4.2.4.4.4l2.5-.1h2.4c.2 0 .4 0 .4-.3s0-.4-.7-.5c-1-.2-1-.6-1-2.3v-6.7c0-.6 0-1.3.4-1.8.5-.6 1.2-1 2-1 2 0 2 2 2 3v6.5zM145 29.8c0-1-.5-1.8-1.2-1.8-.8 0-1.4.9-1.4 1.7 0 1 .6 1.7 1.4 1.7.7 0 1.3-.8 1.3-1.6M142.6 44.4c0 1.7 0 2-1 2.3-.5 0-.7.2-.7.5 0 .4.2.4.4.4l2.5-.1h2.5c.1 0 .4 0 .4-.3s-.1-.4-.7-.5c-1-.2-1-.6-1-2.3v-10c0-.7 0-1.1-.3-1.1-.2 0-1 .8-1.1 1-.4.4-1 .8-2.1 1.3-.3 0-.4.2-.4.5s.4.4.4.4c.9 0 1.1.5 1.1 2v6zM156.6 44.4c0 1.7 0 2-1 2.3-.6 0-.8.2-.8.5 0 .4.3.4.4.4l2.5-.1h2.5c.2 0 .4 0 .4-.3s0-.4-.7-.5c-1-.2-1-.6-1-2.3v-7.2c0-3-1.7-4-3.3-4-1.4 0-2 .4-3.5 2.1l-.4.2v-2.1c0-.3-.1-.6-.3-.6-.2 0-.4.3-.6.6a7 7 0 0 1-2.4 2c-.3 0-.3.2-.3.4 0 .4.2.4.6.4.7.1.7.8.7 2.2v6c0 1.7 0 2-1 2.3-.5 0-.7.2-.7.5 0 .4.2.4.4.4l2.5-.2 2.5.2c.2 0 .4 0 .4-.4 0-.3-.1-.4-.7-.5-1-.2-1-.6-1-2.3v-6.6c0-.7 0-1.3.4-1.7.5-.7 1.2-1 2-1 2.4 0 2.4 2.2 2.4 3.7v5.6zM162.4 45.7c0 .8 0 1 .3 1.2 1 .5 2 .8 3 .9 3.2 0 4.7-2.7 4.7-5 0-2.7-2-3.8-2.8-4.2-2.5-1.3-3-1.6-3-2.8a1.8 1.8 0 0 1 2-2c1.6 0 2.2 1.7 2.3 2.3.2.6.3.7.5.7s.3-.4.3-.5v-1.8c0-.5 0-.9-.6-1l-2.3-.3c-3.2 0-4.2 2.5-4.2 4.2 0 2.3 1.7 3.1 3 3.9 1.7.8 2.8 1.5 2.8 3.2 0 1.6-1.2 2.5-2.3 2.5-2 0-2.6-2.7-2.8-3.3 0-.5-.2-.8-.5-.8s-.3.4-.3.5v2.3zM175.8 35.6c0-.6 0-.7.5-.7h2c.4 0 .5 0 .5-.6 0-.5 0-.6-.3-.6H176.4c-.5 0-.6 0-.6-.7v-2c0-.6-.2-.6-.3-.6-.2 0-.3.3-.4.4a7 7 0 0 1-2.1 2.8l-.6.4c-.2.2-.4.4-.4.6 0 .3.3.3.4.3h.5c.4 0 .6.2.6.6v8.9c0 2.3 1.2 3.4 2.4 3.4 1.8 0 3.3-2 3.3-2.4 0-.1 0-.3-.2-.3 0 0-.2 0-.3.2-.8.6-1.1.7-1.5.7-1.2 0-1.4-1.4-1.4-2.8v-7.6zM189.3 38.2c.3 0 .6 0 .6-.5 0-1-.8-4.5-4.4-4.5-3.2 0-6 3-6 7.5 0 4.4 2.5 7 5.6 7 3 0 4.7-2.7 4.7-3.1 0-.1 0-.3-.2-.3l-.5.5c-.6.8-1.6 1.2-2.6 1.2-2.5 0-4.2-2.6-4.2-6.1 0-1.6.2-1.7.6-1.7h6.4zm-6.1-1c-.6 0-.6 0-.6-.3 0-.5.7-3 2.9-3 .3 0 2 0 2 1.9 0 .8-.7 1.5-1.7 1.5h-2.6z"/><g><path d="M86.5 2.8c-.1-.9-.2-1.2-1.3-1.4-1.6-.4-2-.5-3.1-.5C75.9 1 73 6.6 73 11c0 4 2.6 10.2 8.7 10.2 2.4 0 4-1 4.4-1.3.3-.3.6-.7.5-1.2l.2-2.6c0-.3 0-.5-.3-.5s-.5.4-.5.6c-1 2.4-2 4.1-4.3 4.1-3.5 0-5.5-5-5.5-9.4 0-4 1.8-9.1 5.7-9.1 2.2 0 3 1.4 4 3.2.2.5.4.5.5.5.3 0 .3-.2.3-.5l-.2-2.2zM92.5 2.8c0-1-.6-1.8-1.3-1.8-.8 0-1.3.9-1.3 1.8s.5 1.7 1.3 1.7 1.3-.9 1.3-1.7M90 17.8c0 1.7 0 2-1 2.2-.5.1-.7.3-.7.5 0 .5.2.5.4.5l2.5-.2 2.5.2c.2 0 .4 0 .4-.4 0-.3-.1-.5-.7-.6-1-.2-1-.5-1-2.3V7.5c0-.7 0-1-.3-1-.2 0-1 .8-1.1 1-.4.3-1 .7-2.1 1.2-.3.1-.4.3-.4.5 0 .4.4.4.5.4.8.1 1 .5 1 2.2v6zM98 8.8c0-.7 0-.7.5-.7h2.1c.3 0 .4 0 .4-.6s0-.7-.3-.7H98.6c-.5 0-.6 0-.6-.6V4c0-.5-.2-.5-.3-.5l-.4.4a7.2 7.2 0 0 1-2 2.8l-.7.5c-.2 0-.4.3-.4.5 0 .4.3.4.4.4h.6c.3 0 .5.1.5.5v9.1c0 2.4 1.2 3.4 2.4 3.4 1.8 0 3.3-1.9 3.3-2.4 0 0 0-.2-.2-.2h-.3c-.8.8-1.1.9-1.5.9-1.2 0-1.4-1.5-1.4-2.9V8.8zM106 9.5c-.2-.3-.2-.6-.3-1 0-.5.3-.8.6-.8 1-.1 1-.1 1-.5 0-.3-.1-.4-.4-.4h-5c-.2 0-.6 0-.6.4l.1.3h.3c1 .2 1.1.2 1.7 2l3 10 .4 1.6-.2.9-.6 1.8c-.4 1-.7 1.1-1 1.1h-.8c-.8 0-1 .8-1 1.5 0 .4 0 1.3 1.3 1.3s1.4-.5 1.7-1.8l2.2-7.7c1-3.3 1.9-5.6 2.9-8.3.5-1.5.8-2.2 1.3-2.3.7 0 .9-.1.9-.5V7c-.2-.1-.3-.2-.4-.1h-3.8s-.4 0-.4.4.3.4.9.4c.6 0 .8.4.8 1l-.3 1.5-2.1 6.7-2.3-7.3zM135.8 8.8c0-.6.1-.7.6-.7h2.1c.3 0 .4 0 .4-.4 0-.7-.2-.9-.4-.9h-2.2c-.4 0-.5 0-.5-.7 0-1.2 0-5 1.5-5 .4 0 .7.3 1.3 1.5.1.2.5.7.8.7.4 0 1-1.5 1-2 0-1.2-1.7-1.3-2-1.3-1.5 0-4.3 1.6-4.7 5.4-.2 1.4-.3 1.5-.8 1.6-.6.2-.9.4-.9.8 0 .3.2.4.4.4l.6-.1c.4 0 .5 0 .5 1.1v8.5c0 1.3 0 2.1-1.2 2.3-.5 0-.8 0-.8.5s.3.5.5.5c.1 0 1-.2 2.7-.2 1.6 0 2.4.2 2.7.2.2 0 .5 0 .5-.5s-.4-.5-.9-.5c-1.2-.1-1.2-1-1.2-2.3V8.8zM130.5 13.4c0-4.7-3-7.1-5.8-7.1-3.5 0-5.8 3.8-5.8 7.4 0 3.6 2.2 7.4 6 7.4 3.2 0 5.6-3.5 5.6-7.7m-9-.3c0-3.8 1.3-6.1 3-6.1 2.7 0 3.5 4.6 3.5 6.7 0 3.8-1.5 6.7-3.2 6.7-2 0-3.4-3.3-3.4-7.3"/></g><g><path d="M30.8 14.5c1.8-.1 3.5-.1 5.2.1.7.2.3-.4.2-.5l-1.1-1H35l-.3-.2h-2.2c-1 0-1.8.2-2.7.4-.4.1 0 .4 0 .4a4.6 4.6 0 0 1 .6.8h.4M27.7 13.4a8 8 0 0 0 1-.3c.1-.1.1-.2-.1-.2h-1l-.3.1c.1.2 0 .5.4.4M23 16.7l-.2.2-.2.2-.4 2.8v2.5l.2.4s.1.3.3.3h2.7c1.6.1 3.1.3 3.4-.2.3-.4.2-1.4.4-2.6 0-2 .1-3-.1-3.4-.4-.4-2.1-.2-6.2-.2m5 2.6v1.1c0 .4-.4.6-.6.9-.2.2.1.7 0 .9-.2 0-.3 0-.5-.2-.2-.3-.5.3-1.1.3l-1-.5c-.2 0-.3 0-.5.2-.3 0 0-.4-.2-.8-.1-.3-.4-.1-.6-.5-.1-.4 0-.8.1-1l-.2-.6c-.1-.2.5 0 .7-.2.2-.2 0-.3.2-.7.2-.3.5-.2.9-.3.3 0 .3-.5.5-.7.2-.2.2.6.8.6.5 0 .9.1 1 .6.3.4.5.4.8.5.2 0 0 .1-.2.4"/><path d="M65.8 15.4h-.3c-.7 0-1.3.2-1.7.7l-.6 1.3-.1.3c0 .1 0 .2-.2.3h-.4l.3-.5v-.8c0-.2 0-.5.2-.7.1-.3 0-.7-.3-.8-.2 0-.4.1-.4.3l-.7 1-.8.8c-1.3 1.9-2.3 3.8-2 6 .2 1.6.7 2 2 3.5.9 1.6 1.8 2.8 1.4 4.2-.2.9-1.3.9-2.2.7.1-2.1-.4-3.2-1.4-5-1-1.8-2.4-2.8-3.6-4.5l-.1-.2v-.1c.2 0 .2-.2.3-.3.2.2.6.3.8.1.5-.4.2-1 .2-1.3l.1-.2.4-.1h.3c0 .1.8.1 1-.1.5-.4.2-1.4 0-2.2-.2-.8-.5-1-.4-1.6.4-.3 1 1 1.4.4.5-.5-.2-.8-.2-1.4 0-.2.7-.3.7-.7.1-.4-.5-1-.7-1.2h-.3V13l-.1-1.6-.5-1.3c0-.4.6-.7.6-1 0-.2-.4-.2-.6-.5-.3-.8.1-1.3-.3-1.4-.3 0-.3.2-.7.5-.2 0-.1-.4-.4-.5l-.5.3-.4.4-.4.2-.6.3-1.1.3c-.4 0-.7.2-1 .3-.7.4-.9.6-1.5 1.2-.2 0-.3.3-.3.5 0 .1 0 .3.2.4 0 .5 0 1 .2 1 .6.4 1.1 0 1.5.2 0 .2-.9.4-1.6.4l-1.1-.2h-.6l-.3-.1h-.2c-.1.1.3.3.7.6.5.3.4.7 1 .7.5 0 1.8-.7 1.8-.5.1.1-.4.3-.7.4-.5.3-1 0-1.2 1 0 .7 1.4 0 1.3.3 0 .3-.8.6-1.5.6a2 2 0 0 0-.6.5c-.1.1 0 .3-.2.4-.4.6-1.4.1-4.1-1a5.2 5.2 0 0 0-3.6-.5c-.2 0-.4.3-.4.5 0 .4.6.6 1 .4.4 0 .9-.1 1.2.3.3.3.1.5 0 1.2 0 .3.1.7.3 1l.4.5c.2.2.4 0 .5.1l.2.4.2.1c.2.2 0 .5.1.5.1.1.4 0 .6-.2v-.1l.3.3c0 .2 0 .5.3.6.3.3.6-.2.8 0 .1.1-.6 1-1.2 1.4-.4.5-.7.6-1.3 1.1-.5.6-.6 1.1-1 2.2-.2.4-.1.6-.6 1l.2-.9c.1-.4.1-.8.4-1 0-.1.3-.3.2-.4h-22l.3.3c.2.3.2.7.3 1.1.2.4.3.5.3 1-.5-.5-.5-.7-.6-1.1-.4-1-.5-1.6-1-2.2l-1.4-1c-.5-.6-1.3-1.4-1.2-1.5.2-.2.6.3.9 0 .2-.1.3-.4.3-.6l.2-.3c.3.2.5.4.6.3.2 0 0-.3.1-.5h.3l.1-.5h.6l.3-.6.4-1c-.2-.6-.3-.8 0-1.2.3-.4.7-.3 1.2-.2.3.1 1 0 1-.5 0-.2-.2-.4-.5-.5-1.2-.3-2.4 0-3.5.5-2.8 1.1-3.8 1.6-4.2 1l-.1-.4a2 2 0 0 0-.6-.5h-.1c-.7 0-1.5-.3-1.5-.6s1.3.4 1.3-.2c-.2-1.1-.6-.8-1.2-1-.3-.2-.8-.3-.7-.5 0-.2 1.3.6 1.8.6.6 0 .6-.5 1-.8.4-.3.9-.5.7-.5h-.2-.8c-.5 0-.7.3-1.2.2-.7 0-1.5-.2-1.6-.4.4-.1 1 .2 1.5-.1.3-.2.2-.6.3-1.1a.6.6 0 0 0-.2-1c-.6-.5-.8-.7-1.4-1l-1-.4-1.1-.2-.6-.4-.5-.2-.4-.4s-.4-.4-.5-.3c-.2 0-.1.4-.4.5-.4-.3-.4-.5-.7-.5-.4.1 0 .6-.3 1.5-.2.2-.6.2-.6.5 0 .2.6.6.6.9l-.5 1.3a5.1 5.1 0 0 0 0 1.8H7c-.2.3-1 .8-.8 1.2 0 .4.8.5.8.7 0 .6-.8 1-.3 1.4.6.6 1-.7 1.4-.4.1.6-.1.8-.4 1.6-.2.8-.4 1.7 0 2.2.2.2 1 .3 1 0h.3c0 .2.2.1.4.2l.2.2c0 .3-.4 1 .2 1.3.2.2.5 0 .7 0l.3.2v.3c-1.2 1.6-2.6 2.7-3.6 4.5-1 1.8-1.6 2.9-1.4 5-1 .2-2 .2-2.2-.7-.4-1.4.5-2.6 1.4-4.2 1.2-1.5 1.7-2 2-3.5.3-2.2-.7-4.1-2-6-.4-.2-.7-.5-.9-.8l-.6-1c-.1-.2-.3-.3-.5-.3-.3 0-.4.5-.2.8l.1.7v.8l.3.5h-.4a2.5 2.5 0 0 1-.3-.6c-.3-.7-.3-1-.6-1.3-.4-.5-1-.7-1.6-.8-.2 0-.4 0-.4.2v.2c.4.2.7.4 1 .8.5.9.2 1.7.9 2.4.9.9 2 1.5 3 1.9h.4l.4.9c.3.5.5.8.3 1.4-.3 1-.8 2-1.5 2.8-1.9 2.2-2.8 3.7-2.4 5.9.2 1.1 1.9 1.7 3.7 1l.4-.2h.1l.3.3s.2 0 .3.2c.4.3.6.9.4 1.4-.3 1-1 1.5-1.8 2.4v.2l-.4.1v.3l-.3.2c-.2.1 0 .4 0 .7 0 .4-.8.4-.7 1 0 .5.5.3.6.6.1.3-.8.5-.5 1.2.6.6 1.2.4 1.4 1l-.1.6c-.2.2-.2.5 0 .7 0 .2.2.1.6.1l.4-.2.7-.3c.1-.1.3-.1.4 0 .1 0 .2 0 .2.2-.3 0-1 .3-1.2.5-.7.3-1 .6-1.1.8-.2.5 0 .5.4 1.2.3.7.3 1.7.6 2 .4.3 1.2.2 2-.4 2.8-1.4 4.3-1.7 7-2.9l3.8-1.6c-.2.3-.3.5-.3.8 0 .8.2 1 0 2.3 0 .7 0 1 .2 1.5.5.7 1.5.5 2.7.5.8 0 5.7-.3 10.2-.3h1.6c4.5 0 9.4.3 10.2.3 1.2 0 2.2.2 2.7-.5.3-.5.3-.8.2-1.5-.2-1.3 0-1.5 0-2.3 0-.3-.1-.5-.3-.8l3.8 1.6c2.7 1.2 4.2 1.5 7 3 .8.5 1.7.6 2 .2.3-.3.3-1.2.6-1.9.4-.7.6-.8.4-1.2 0-.2-.4-.5-1-.8-.2-.2-1-.5-1.3-.5l.2-.3h.4l.7.3.5.3c.3 0 .4 0 .6-.2v-.6a.7.7 0 0 1-.2-.6c.2-.6.9-.4 1.4-1 .4-.8-.6-.9-.5-1.2.1-.3.6-.1.6-.7.1-.5-.6-.5-.7-1 0-.2.2-.5 0-.6l-.2-.2v-.3c-.2-.1-.3-.2-.4-.1l-.1-.2c-.7-.9-1.5-1.5-1.8-2.5-.2-.5 0-1 .4-1.4.1 0 .3 0 .3-.2 0 0 .2 0 .2-.2h.2c.1 0 .3 0 .4.2 1.8.7 3.5 0 3.7-1 .4-2.2-.6-3.7-2.4-6a7.5 7.5 0 0 1-1.5-2.8c-.2-.5 0-.9.3-1.4l.4-.8h.3a8 8 0 0 0 3.1-2c.7-.7.4-1.4 1-2.4l.8-.8c.1 0 .1-.2 0-.2m-12.7-5c.3-.2 1.1-.5 1.1-.3.2.8-.3.5-.6.7-.2.2-.8.6-.8.2 0-.3 0-.6.3-.7m-15.8 17c.4-.1.4-.4.5-.6 0-.3.5-.3.9-.2h.2l.3-.4c.1-.2.2-.3.4-.3.3.2.2.4.5.4s.7-.7 1-.3c.1.3-.3 1-.4 1.3l-.2.4c0 .3.1.6.3.7a.6.6 0 0 1 0 .9c-.2.4 0 .4.1.7v.4l-.6.8c-.3 0-.6-.4-.9-.2-.3.1-.6.7-1 .4-.3-.2-.3-.2-.6 0-.5.4-1 .6-.9 0 0-.4.2-.7.5-1 .2-.3-.3-.5.2-.8.7-.3.6-.6.5-.6h-.4l-.5.2c-.2 0-.4-.6-.1-.7.4-.1.8-.2.8-.4h-.6c-.2.3-.4.1-.5.1l-.1-.4c0-.4.3-.4.6-.5m-6.5.7l.5-1.1c0-.3.3-.6.2-.9 0-.3-.2-.6 0-.8.2-.4.7-.5 1-.5 1.4 0 1.4 1.3 1.5 1.5.2.3.8 0 1 .4v1c.1.6.7.3.8 1.5 0 .7-.3.7-.4 1.1l-.2.6v.3c0 .1-.3.5-.2.6l.2 1c.1.5.4.8.6 1.2v.7c0 .8 0 1.1-.2 1.2-.3.2-.4.2-1 .2a6 6 0 0 1-1 0c-.5-.2-1-.2-1.5 0-.4 0-.6.3-1 .3h-.5l-.3.2c-.1 0 0-.2-.2-.3v-.9c0-.6.2-1.2.4-1.8l.7-1.7-.1-.6v-.2c-.4-.1-.9-.3-1-.7-.5-.7.4-1.5.7-2.3m-.2 8.9c.7 0 1.2.5 1.6.3.8 0 1.1-.3 1.9-.3h.5c.7.2 1.2.4 1.7.4l1.4-.2c.2.4 0 .5-.4 1l-.3.2h-.2c-.7.2-.7 0-1.4 0L34 38h-.3c-.3 0-.9.3-1.5.3-.7 0-1.4-.5-1.7-.3-.6 0-1 .4-1.5.3-.3 0-.5-.2-.7-.3-.4-.5-.5-.6-.4-1l1.2.1 1.4-.2m3.7 2.5c-.3-.1-.8.2-1.3.2h-.2c-.5 0-1-.3-1.2-.2-.5 0-.7.3-1.1.2l-.6-.2c-.3-.4-.4-.5-.3-.8l1 .1 1-.2c.6 0 1 .4 1.3.3h.2l1.2-.2 1 .1h1c.1.2 0 .3-.3.6-.1.2-.3.2-.5.3-.5 0-.7-.2-1.2-.3m.4 1.3l-.2.2c-.3.1-.4-.1-.6-.2l-.6.2-.5-.1h-.1c-.2 0-.4.3-.6.2a.5.5 0 0 1-.3-.2c-.1-.3-.2-.4-.1-.6h.5l.4-.1.7.2.6-.2.5.1h.5l-.2.5m-9.5-13.3c.3 0 .3-.3.4-.5.2-.3.5-.3 1-.2h.2l.3-.4c.1-.2.1-.3.3-.3.3.2.2.4.6.4.3 0 .7-.7 1-.3.1.3-.3 1-.4 1.3l-.2.4c0 .3 0 .6.2.7a.6.6 0 0 1 .1.9c-.3.4 0 .4 0 .7.1.1 0 .3 0 .4-.1.2-.3.7-.6.8-.2 0-.5-.4-.8-.2-.3.1-.6.7-1 .4-.3-.2-.3-.2-.7 0-.5.4-.9.6-.8 0 0-.4.2-.7.5-1 .2-.3-.3-.5.2-.8.6-.3.5-.6.5-.6h-.4l-.5.2c-.3 0-.4-.6-.2-.7.5-.1.8-.2.8-.4 0-.1 0 0-.2 0H25c-.2.3-.3.1-.4.1l-.2-.4c0-.4.4-.4.7-.5m-13.4-17c0-.2.8 0 1.2.1.3.2.2.5.2.7 0 .4-.5 0-.8-.2-.3-.2-.7 0-.6-.7M18 39l-3 1.4-2.3 1-1.7.6a5.8 5.8 0 0 0-1.2.6l.1-.4c.4-.4.5-1 .3-1.3-.4-.6-1.9-.4-2.4-.2h-.2-.2v-.2a9.8 9.8 0 0 1 2.8-3.1c2.2-1.7 3.1-3 3-3.8-.1-.5-.3-1-.6-1.4h.5c.4-.1.7 0 1 .4.1.2 0 .2 0 .4 0 .4-.7 2.5.4 3.4 1.1 1.1 2.7.5 3.2 1 .3.3.3.9.7.9.4 0 .5-.5.8-.6.4 0 .7.3 1 .5l-2.2.8m3.9-1.3l-1.4.4c.2-.3.4-.6.6-.6.3 0 .5.2.8 0v.2m22.2 0v-.1c.3.1.6-.1.8-.1.2 0 .4.3.7.6a38 38 0 0 0-1.5-.4m1.6-2.4a.5.5 0 0 0-.4-.2l-.7-.2c-.4 0-.8.1-1.1.5a4 4 0 0 1-.5.6l-.5.5c-.1.1-.2.2-.1.3v.1l.4.1-.2.3c-.2 0-.5 0-.6.2-.5.4-.5 1-.7 1.7-.2.8-.6 1-.6 1.4.2.7.6.9 1 1.3.5.3.8.7 1.1 1.2l.3.4-1.6-.2a54.2 54.2 0 0 0-6.6 0h-2 .3-8.6l-1.7.2.3-.4c.3-.5.7-.9 1.1-1.2.5-.4.8-.6 1-1.3.1-.4-.3-.6-.5-1.4-.2-.7-.3-1.3-.7-1.7a.7.7 0 0 0-.6-.2l-.2-.2V37h.3l.1-.2c0-.1 0-.2-.2-.3l-1-1.1c-.2-.4-.6-.6-1-.5-.3 0-.5 0-.7.2l-.4.2-.1.1H20l-.1.1c-1.3-.3-2-.7-2.5-1.9-.8-2 .2-4-.8-5-.9-.6-1.6-.3-2.4 0l-1 .3h-.9l.6-.8c.7-.7 1.5-.6 2.3-1.3.8-.7 1.6-2.4 1.7-2.2.2 0-.2 1 .6 1.1.5.1.8-.7 1-.6.2 0 .3.3.3.5 0 .4 0 .8-.3 1.1-.2.2-.3.8-.2 1 .2.2 1.2-.5 1.4-.4.2.1 0 1.2.6 1.3.3 0 .5 0 .7-.3l.2-.3c.1.3.2.5.6.4.4 0 .4-.5.4-.7.1-.3.3-.2.3 0v1.4c0 1.7.6 3.4 1.4 4.9 1.5 2.5 3.4 4.1 5.5 5.8l1.4 1.2 1.5 1.1c.2.2.2.3.4.3h.4l.4-.3c.6-.3 1-.7 1.5-1.2l1.4-1c2.1-1.8 4-3.4 5.5-6a10.9 10.9 0 0 0 1.4-6.2c0-.2.3-.3.3 0 0 .2 0 .6.5.7.3 0 .5-.2.6-.5l.2.3c.1.3.4.4.7.3.5 0 .4-1.1.6-1.2.2-.1 1.1.6 1.3.4.2-.2 0-.8-.2-1-.2-.4-.3-.7-.2-1.1l.2-.6c.2 0 .6.7 1.1.7.7-.1.4-1.2.5-1.2.1-.2 1 1.5 1.8 2.3.8.6 1.5.5 2.3 1.2l.6.8h-.8-.1l-1-.2c-.8-.3-1.6-.6-2.4 0-1 1 0 3-.8 5-.5 1.1-1.3 1.6-2.6 1.9l-.2-.1-.1-.1m12.9 5.1v.2l-.2.1h-.2c-.5-.3-2-.5-2.3.1-.2.3-.1 1 .2 1.4v.3L55 42l-1.7-.6c-1-.3-1.4-.6-2.2-1l-3.1-1.5-2.2-.8c.3-.1.6-.5 1-.4.4 0 .4.6.8.5.4 0 .4-.6.7-.9.5-.5 2.1.2 3.2-1 1-.8.5-3 .4-3.4 0-.2-.1-.2 0-.4a1 1 0 0 1 1-.4h.5c-.3.4-.4 1-.5 1.4-.2.8.7 2.1 3 3.8 1 .8 2 1.9 2.7 3.1"/><path d="M29.2 13.8c-.3-.2-.2-.3-.4-.3l-1.6.3c-1.9.6-2.2 1-2.1 1.6 0 .6 1.2.4 1.6.2a31 31 0 0 1 2.7-1c.8 0 .2-.5-.2-.8M43 9.1c-.8-1.3-1-1.9-1.5-2.2-.2-.1-.4 0-.6.2-.5-.2-.8-.5-1.1-.2-.2.2 0 .3 0 .5-.4.3-.7.7-.7 1 .2.4.7.6 1.5 2.2.6 1.1 1.2 0 1.3.4 0 .2-.6.3-.6.9.3.8.8 1.5 1.3 2.2.2.2.3.5.5.5.2.1.7-.2.8-.3.3 0 .6.5.9.3.2-.2 0-.3.1-.6.2-.3.6-.3.6-.6l-.1-.7c-1.2-1.5-1-2-1.5-2.3-.3-.1-.6.3-1 .2l-.1-.4c.2-.4.4-.3.4-.6L43 9m-1.4.3c-.1.7-.3.9-.4.8-1-1.3-1.4-1.3-1.2-1.6.3-.3.4-.3.7.1.1 0 .3 0 .3-.2s-.2-.3-.1-.5c.3 0 .6-.2.7 0 .3.4.9 1 .6 1.5-.3.2-.6-.3-.6 0m1.5 2.8c.1-.3 0-.8.2-.9.3 0 .5.3.8.7 0 .2.5 1 .2 1-.3.2-.6-.7-.7-.4.2.6 0 .6-.2.7-.5.3-.7-.2-1-.5-.2-.7-.4-.7-.1-1 .4-.3.5.3.8.4M25.5 13.4s0-.1-.2 0l-1 .1s-.3.2-.1.4c0 .2.3.6.5.5l1-.4c.2 0 .2-.2 0-.4 0-.2-.2-.2-.2-.2M26.4 13.8c.5-.1 1-.2.8-.5-.1-.3-.2-.3-.4-.3l-.7.2c-.3 0-.4.1-.2.4.1.2 0 .4.5.2M40.4 3.3c-.4.7-.6.8-.7 1.4a1 1 0 0 0 1.1 1c.6 0 1-.4 1.1-.6.6-.4 1 0 1.1-.2.3-.3-.3-1-.2-1.3 0-.4.5-1 .2-1.3-.3-.1-1 .3-1.5.3s-.5-.3-1-.2c-.3 0 .2.4 0 .9M24.5 5.7c1.5-.1 3-3.5-.3-3.2l-.9.2c-1.4.5-2.2 3.4 1.1 3m.4-2.3l.1.1c.6.6-.6 1.7-1.3 1.2-1-.6.4-1.9 1.2-1.3M29.8 23h1a139.4 139.4 0 0 0 3.6 0H36.1c.3-.2.5-.2.4-2l-.2-3.6c0-.2 0-.5-.2-.7l-.8-.3H33l-1 .1-1.9.1c-.3.1-.4.2-.5.6l-.2 3.2v2c0 .2.1.5.4.6m2.4-4c.2 0 0-.9 0-1.2 0-.3 0-.8.7-.7.6 0 .5.6.5.8v1.2c.2.1 2.3-.3 2 .5 0 .4.3.6-1 .6-.3.1-1 0-1 .5l-.1 1.1v.2c-.2.2-.4.4-.7.4-1.1.1 0-2.2-.5-2.2 0-.4-2.3.4-2.2-.6.2-1 2-.4 2.3-.6M41.6 13.9c.2-.2 0-.3-.2-.4l-1-.2-.3.3c-.2.2-.1.4 0 .4l1 .4c.2.1.4-.3.6-.5M26.3 27.6s.6-.2.7-.4c0-.2-.3-.3-.5-.2-.2 0-.5.2-.5.3 0 .2.1.3.3.3M38.1 13.4c.3 0 .3-.2.4-.4 0-.2-.2-.2-.4-.2h-.9c-.2.1-.2.2-.1.3l1 .2M37 23c.3.4 1.9.2 3.5.2 1-.2 2.1 0 2.9 0l.2-.5v-.3-2.5c0-1-.1-1.9-.3-2.8-.1-.2-.1-.3-.2-.2-4 0-6-.4-6.3 0-.3.5-.2 1.4 0 3.4 0 1.2 0 2.2.3 2.6m.6-4c.2-.1.5 0 .7-.5.2-.5.6-.5 1-.6.7 0 .7-.8.9-.6.2.2.2.7.5.7.4.1.6 0 .9.3.2.4 0 .5.2.7.2.2.8 0 .7.2 0 .2-.3.3-.2.6 0 .2.2.6 0 1-.1.4-.4.2-.5.5-.2.4 0 .9-.2.8-.2-.1-.3-.3-.5-.2-.2.1-.5.4-1 .5-.6 0-1-.5-1.1-.3-.2.2-.4.3-.5.2-.1-.2.2-.7 0-1-.2-.2-.6-.4-.6-.8v-1c-.3-.4-.5-.5-.3-.5M37.2 14.8h.2l2 .9c.5.1 1.6.4 1.7-.3 0-.5-.3-1-2.1-1.5-1.6-.5-2.8-.7-3-.7-.1 0-.2.1-.1.2.5.3.9.7 1.2 1.2l.1.2M40 13.6c.1-.3 0-.4-.2-.4L39 13c-.2 0-.2 0-.4.3s.4.4.8.5c.5.2.4 0 .6-.2"/><path d="M21 14c0 .3 0 .5.2.6.2.3.5-.2.8-.2.1 0 .6.4.8.2.2 0 .3-.3.5-.5.5-.6 1-1.4 1.3-2.2 0-.6-.7-.6-.6-.9.1-.3.7.7 1.3-.3.8-1.6 1.3-1.9 1.4-2.3 0 1.2.2 2 .3 3.2a5.5 5.5 0 0 0 .4 1c.1.1.1 0 .4 0 .5-.2 1-.3 1.1-.6 0-.2 0-.2-.4-.2-.2 0 0-1 0-1.1h1c0 .1.3.8.1.8-.6.2-.4.3.2.8.3.2.4.7.6.7.2 0 .2-.3.6-.6.1-.2.8-.7.1-.7-.1 0 0-1 .2-1l1 .1c0 .2.2.7-.2.7-.3 0-.3.3.3.8.2.1.4.5.6.4.2 0 .5-.4.8-.6 0 0 .5-.4 0-.5l-.3-.1.1-.8h1c.2-.1.3.1.3.4.1.5 0 .4-.2.4l-.2.4.7.5c.4.2.2.4.5.5l.6-.5c.3-.2 1-.5.4-.8-.3-.1-.3-.2-.3-.5 0-.1 0-.3.2-.4.2-.2.7 0 1 0 .1 0 .1.8-.2.8-.6.1-.1.3 0 .5l.6.5.3.2c.2.1.4-.8.6-1.1 0-1.7.3-2.5.2-4.2-.2-2.2 0-4.3.2-4.3.3-.3 2-1.3.8-2.6-.6-.7-2-.3-2.2 1l-.6.2h-2.7l-1.7.1h-4.2l-.7-.1v-.3C27.5.2 26.3-.2 25.6.5c-1.1 1.2.6 2.3 1 2.6.1 0 .3 2 .1 4.2v.7a2 2 0 0 0-.6-.7V7c-.4-.3-.7 0-1.1.2-.3-.1-.5-.3-.7-.2-.5.3-.7.9-1.4 2.2-.2.3-.3.3-.3.5 0 .3.2.2.4.6-.1.3 0 .4-.2.4-.2.1-.6-.3-.8-.2-.6.4-.4.8-1.5 2.4-.2.1-.3.4-.2.6 0 .3.4.3.6.6M39.4.8h.2c.4.6 0 1.3-.6 1.2-1.1-.3-.2-1.7.4-1.2m-1.3 8.8l-2-.1.1-1.7c.1-.2 1.7-.1 1.8 0 0 0 .3 1.8 0 1.8m-1.7-7a5.8 5.8 0 0 1 1.7-.1v.3c-.1.6.2 1.2-.2 1.5h-1.3-.1v-.1c.1-.9-.2-1.5 0-1.6m-.2 2.7c.2-.3.9 0 1.6-.2a.1.1 0 0 1 .2.2c-.1.9.3 1.7 0 1.7-.7.2-1.8.2-1.8 0V5.3m-2.7-2.6v-.1h.1c.8 0 1.5-.2 1.7 0v1.8c0 .2-1.1.2-1.7 0-.4 0 0-.8 0-1.7m0 2.8c-.1 0 0 0 0-.2h1.6c.1 0 0 .2 0 .4v.7.6h-1.7c-.2 0 0-.8 0-1.6m-.1 2.4c0-.2 1.2-.1 1.9-.1.2 0 0 1.8-.1 1.8h-1.8V7.7m-2.8-2.4v-.2h1.6c.3.2 0 .9.1 1.5V7L30.5 7V5.4m1.9 2.8l-.1.7v.6h-1.7c-.2 0 0-.8 0-1.6h.1c0-.2 1.4-.2 1.6-.1.1 0 0 .1 0 .4m-1.8-5.5v-.2h.1c.8.1 1.4 0 1.6.2a6 6 0 0 1 0 1.6c0 .3-1 .3-1.7.1-.3 0 0-.9 0-1.7M28 2.5s1.5 0 1.6.2V4s.1.3 0 .4H28c-.3-.3 0-1-.2-1.6v-.2m0 2.8a.2.2 0 0 1 .1-.2h.1c.8.1 1.4-.1 1.6.1V7c0 .2-1.1.2-1.7.1-.3 0 0-.9 0-1.7m-.1 2.4l1.8.1v1.6c0 .2-1.2.1-1.9.2-.2 0 0-1.8.1-1.9m-1-5.8c-.6.2-1-.5-.6-1.1h.2V.7h.2c.4-.3 1.4 1 .2 1.2m-2.6 6c.1-.2.5 0 .8 0 0 .2-.3.3-.2.5l.3.2c.3-.4.4-.4.7 0 .2.2-.2.2-1.1 1.5-.2.1-.4-.1-.4-.7 0-.3-.4.2-.7 0-.3-.6.3-1.1.6-1.5m-2.4 4c.2-.3.4-.6.7-.6.2 0 0 .6.2.9.3 0 .4-.6.8-.3.3.2 0 .2-.2.9-.2.3-.4.8-.9.6-.2-.1-.4-.2-.2-.7 0-.4-.4.5-.7.4-.2-.2.1-.8.3-1.1"/></g></g></svg>