<svg width="233" height="32" viewbox="0 0 233 32" xmlns="http://www.w3.org/2000/svg" xmlns:xlink="http://www.w3.org/1999/xlink"><defs><path id="a" d="M.8.2h11v18.6H.8z"/><path id="c" d="M.2.4h7.9v13.2H.2z"/></defs><g fill="none" fill-rule="evenodd"><path d="M63.7 8.7c0-.8-.2-1-1.1-1.3-1.5-.3-1.9-.4-2.8-.4-5.7 0-8.2 5-8.2 9 0 3.5 2.3 8.9 7.8 8.9 2.2 0 3.6-.9 4-1.2.4-.3.4-.5.5-1l.1-2.3c0-.2 0-.5-.3-.5-.2 0-.4.5-.4.6-1 2.1-1.9 3.7-3.8 3.7-3.3 0-5-4.5-5-8.4 0-3.6 1.6-8 5.1-8 2 0 2.8 1.3 3.6 2.8.2.4.3.5.5.5s.2-.2.2-.5l-.2-2zM69.2 8.7c0-.9-.5-1.6-1.2-1.6s-1.2.8-1.2 1.6.5 1.5 1.2 1.5 1.2-.8 1.2-1.5M67 21.9c0 1.5 0 1.8-1 2-.4.1-.6.2-.6.5s.2.3.3.3h4.5c.2 0 .4 0 .4-.3s-.1-.4-.6-.5c-1-.2-1-.5-1-2v-9c0-.7 0-1-.2-1s-.8.7-1 .9c-.4.3-.8.7-1.9 1.1-.2.1-.3.3-.3.5 0 .3.3.3.4.3.8 0 1 .5 1 1.9v5.3zM74.2 14c0-.6 0-.7.4-.7h1.9c.3 0 .3 0 .4-.5 0-.5-.1-.6-.3-.6h-1.9c-.4 0-.5 0-.5-.6V9.7c0-.4-.2-.4-.3-.4-.2 0-.3.2-.4.3a6.3 6.3 0 0 1-1.9 2.5l-.5.4c-.1 0-.4.3-.4.5 0 .3.3.3.4.3h.5c.3 0 .5.2.5.5v8c0 2.1 1 3.1 2.2 3.1 1.5 0 3-1.7 3-2.1l-.3-.3-.2.1c-.8.6-1 .7-1.4.7-1.1 0-1.2-1.3-1.2-2.5V14z" fill="#FFF"/><g transform="translate(76.3 12)"><mask id="b" fill="#fff"><use xlink:href="#a"/></mask><path d="M5 2.7l-.2-1c0-.4.3-.6.5-.6.8-.2 1-.2 1-.5S6 .2 5.8.2L4 .3H1.4C1 .2.8.2.8.5s.2.3.3.3c.9.2 1 .2 1.5 1.8l2.8 8.8.3 1.4c0 .2 0 .5-.2.8L5 15.3c-.3 1-.6 1-1 1h-.5c-.8 0-1 .7-1 1.3 0 .4 0 1.2 1.2 1.2 1.1 0 1.2-.5 1.5-1.6l2-6.9L9.8 3c.5-1.3.7-2 1.2-2 .7-.1.8-.1.8-.4 0-.4-.2-.4-.3-.4L9.8.3H8.1c-.1 0-.4 0-.4.3s.2.3.8.4c.5 0 .7.3.7.8 0 .3 0 .8-.3 1.4L7 9.2 5 2.6z" fill="#FFF" mask="url(#b)"/></g><path d="M108.3 14c0-.5 0-.7.5-.7h2c.1 0 .2 0 .2-.3 0-.6 0-.8-.3-.8h-2c-.4 0-.4 0-.4-.6 0-1 0-4.5 1.3-4.5.4 0 .6.3 1.2 1.4.1.2.4.6.7.6.4 0 1-1.3 1-1.7 0-1-1.6-1.2-1.9-1.2-1.4 0-3.9 1.4-4.3 4.8 0 1.2-.2 1.3-.6 1.4-.6.2-.8.3-.8.7 0 .2.1.3.3.3h.5c.4 0 .5 0 .5 1v7.4c0 1.2 0 2-1 2-.5 0-.8.1-.8.5s.2.4.4.4h4.9c.2 0 .5 0 .5-.4s-.3-.4-.8-.4c-1.1-.1-1.1-.9-1.1-2v-8zM129.3 14.6l-.2-.6v-.3l1.5-3.7c.7-1.8.9-2 1.5-2 .5 0 .8-.1.8-.4 0-.4-.3-.4-.5-.4l-1.2.1-1.8-.1c-.2 0-.3 0-.3.3s.1.4.3.4c.5.1.7.3.7.6l-.2 1-1.3 3.4-1.2-3.6c-.2-.3-.3-.8-.3-1 0-.2.2-.3.5-.3.2 0 .8 0 .8-.4s-.3-.4-.4-.4l-2 .1-2.3-.1c-.2 0-.5 0-.5.4 0 .3.2.4.8.5.4 0 .6.4 1 1.7l2.1 6 .1.4v.3l-1.7 4.3-4-11.4-.2-1c0-.3.3-.4.5-.4.3 0 .6 0 .6-.4s-.3-.4-.5-.4l-2.3.1-2.1-.1c-.2 0-.5 0-.5.4 0 .3 0 .3.8.5.4 0 .7.2 1.2 1.6l5 14.7c.2.5.4.8.6.8.1 0 .3-.2.5-.9l2.6-7 2.3 7.1c.2.6.3.8.5.8l.3-.6 4.6-14.1c.8-2.3 1-2.4 1.6-2.4.5-.1.8-.1.8-.5s-.3-.4-.4-.4l-1.5.1-1.6-.1c-.2 0-.5 0-.5.4 0 .3.1.4.3.4.7.1 1 .2 1 .7a8 8 0 0 1-.4 1.5l-3.5 10.3-2-5.9zM139 15.4c-.6 0-.6 0-.6-.3 0-.4.6-2.7 2.6-2.7.3 0 1.7 0 1.7 1.7 0 .7-.5 1.3-1.4 1.3h-2.4zm5.4 1c.3 0 .6 0 .6-.6 0-1-.7-4-4-4-2.9 0-5.3 2.6-5.3 6.8 0 3.9 2.1 6.3 5 6.3 2.7 0 4.2-2.5 4.2-2.9 0 0 0-.2-.2-.2l-.4.4a3 3 0 0 1-2.4 1.1c-2.2 0-3.8-2.4-3.8-5.5 0-1.5.2-1.5.5-1.5h5.8zM146.2 23c0 .7 0 1 .3 1.1 0 .1 1.4.8 2.7.8 2.8 0 4.1-2.4 4.1-4.5 0-2.4-1.8-3.4-2.5-3.8-2.2-1.2-2.7-1.4-2.7-2.5 0-1 .8-1.7 1.8-1.7 1.4 0 2 1.5 2.1 2 .1.5.2.6.4.6s.3-.3.3-.5V13c0-.4 0-.8-.5-.8l-2-.3c-3 0-4 2.2-4 3.8 0 2 1.6 2.8 2.9 3.4 1.5.8 2.5 1.4 2.5 2.9s-1.2 2.3-2.1 2.3c-1.8 0-2.4-2.4-2.5-3-.1-.5-.2-.7-.5-.7-.2 0-.3.4-.3.5v2zM157.6 14c0-.6 0-.7.4-.7h2c.2 0 .3 0 .3-.5s-.1-.6-.3-.6h-1.9c-.4 0-.5 0-.5-.6V9.7c0-.4-.2-.4-.3-.4l-.3.3a6.3 6.3 0 0 1-2 2.5l-.5.4c-.1 0-.3.3-.3.5 0 .3.2.3.3.3h.5c.3 0 .5.2.5.5v8c0 2.1 1 3.1 2.2 3.1 1.6 0 3-1.7 3-2.1l-.2-.3-.3.1c-.7.6-1 .7-1.3.7-1.2 0-1.3-1.3-1.3-2.5V14zM175.1 21.8c0 1.6 0 2-.9 2.1-.4.1-.6.2-.6.5s.2.3.4.3h4.4c.1 0 .3 0 .3-.3s0-.4-.6-.5c-.9-.2-.9-.5-.9-2v-6.7c0-1-.2-3.4-3-3.4-.8 0-1.6.3-2.4 1.3-.1 0-.6.8-.8.8l-.4-.7c-.7-1.4-2-1.4-2.3-1.4-1 0-1.7.1-3 1.8l-.2.3-.1-.6V12c0-.2 0-.5-.3-.5l-.4.5c-.7 1-2 1.8-2.2 1.9-.3 0-.4.2-.4.3 0 .4.3.4.6.4.7 0 .7.7.7 2V22c0 1.5 0 1.8-1 2-.4.1-.6.2-.6.5s.2.3.4.3h4.4c.2 0 .4 0 .4-.3s-.1-.4-.6-.5c-1-.2-1-.5-1-2v-6c0-.7.1-1.2.4-1.5.4-.6.9-1 1.9-1 1.5 0 1.8 1.6 1.8 3v5.4c0 1.6 0 2-1 2.1-.4.1-.6.2-.6.5s.2.3.4.3h4.4c.2 0 .4 0 .4-.3s-.1-.4-.7-.5c-.9-.2-.9-.5-.9-2v-6c0-.7 0-1.2.4-1.7.2-.3.8-1 1.8-1 1.8 0 1.8 2 1.8 2.8v5.8zM183.5 8.7c0-.9-.5-1.6-1.2-1.6s-1.2.8-1.2 1.6.5 1.5 1.2 1.5 1.2-.8 1.2-1.5M181.3 21.9c0 1.5 0 1.8-1 2-.4.1-.6.2-.6.5s.2.3.4.3h4.5c.1 0 .3 0 .3-.3s0-.4-.6-.5c-1-.2-1-.5-1-2v-9c0-.7 0-1-.2-1l-1 .9c-.3.3-.8.7-1.9 1.1-.2.1-.3.3-.3.5 0 .3.3.3.4.3.8 0 1 .5 1 1.9v5.3zM193.8 21.9c0 1.5 0 1.8-1 2-.4.1-.6.2-.6.5s.2.3.4.3h4.5c.1 0 .4 0 .4-.3s-.1-.4-.7-.5c-1-.2-1-.5-1-2v-6.5c0-2.6-1.5-3.6-2.9-3.6-1.2 0-1.8.3-3.1 2h-.3l-.1-.5V12c0-.3 0-.6-.3-.6l-.4.6c-.7 1-2 1.7-2.2 1.8-.3 0-.3.2-.3.3 0 .4.2.4.5.4.7 0 .7.7.7 2V22c0 1.5 0 1.8-1 2-.4.1-.6.2-.6.5s.2.3.4.3h4.5c.1 0 .3 0 .3-.3s0-.4-.6-.5c-1-.2-1-.5-1-2v-6c0-.7.2-1.1.5-1.5.5-.7 1.1-1 1.8-1 2.1 0 2.1 2.1 2.1 3.4v5zM199 23c0 .7 0 1 .3 1.1.1.1 1.5.8 2.8.8 2.8 0 4.1-2.4 4.1-4.5 0-2.4-1.8-3.4-2.5-3.8-2.2-1.2-2.7-1.4-2.7-2.5 0-1 .8-1.7 1.7-1.7 1.5 0 2 1.5 2.2 2 .1.5.2.6.4.6s.2-.3.2-.5l.1-1.6c0-.4 0-.8-.5-.8l-2-.3c-3 0-4 2.2-4 3.8 0 2 1.6 2.8 2.9 3.4 1.5.8 2.4 1.4 2.4 2.9s-1 2.3-2 2.3c-1.8 0-2.4-2.4-2.5-3-.1-.5-.2-.7-.5-.7s-.3.4-.3.5v2zM211.1 14c0-.6 0-.7.4-.7h2c.2 0 .3 0 .3-.5s-.1-.6-.3-.6h-1.9c-.4 0-.5 0-.5-.6V9.7c0-.4-.2-.4-.3-.4l-.3.3a6.3 6.3 0 0 1-2 2.5l-.5.4s-.3.3-.3.5c0 .3.2.3.3.3h.5c.3 0 .5.2.5.5v8c0 2.1 1 3.1 2.2 3.1 1.6 0 3-1.7 3-2.1l-.2-.3-.3.1c-.7.6-1 .7-1.3.7-1.2 0-1.3-1.3-1.3-2.5V14zM217.7 15.4c-.5 0-.6 0-.6-.3 0-.4.7-2.7 2.7-2.7.3 0 1.7 0 1.7 1.7 0 .7-.5 1.3-1.4 1.3h-2.4zm5.5 1c.3 0 .6 0 .6-.6 0-1-.7-4-4-4-3 0-5.3 2.6-5.3 6.8 0 3.9 2.1 6.3 5 6.3 2.7 0 4.2-2.5 4.2-2.9 0 0 0-.2-.2-.2l-.5.4a3 3 0 0 1-2.3 1.1c-2.2 0-3.8-2.4-3.8-5.5 0-1.5.2-1.5.5-1.5h5.8z" fill="#FFF"/><g transform="translate(224.4 11.2)"><mask id="d" fill="#fff"><use xlink:href="#c"/></mask><path d="M3.9.8c0-.2 0-.4-.3-.4L3 1c-.5.7-1.7 1.5-2.2 1.8-.3 0-.3.1-.3.3 0 .4.2.4.2.4.9 0 1.1 0 1.1 1.8v5.4c0 1.6 0 1.9-1 2-.4.1-.6.3-.6.5 0 .4.3.4.4.4l2.2-.1h2.5c.2 0 .5 0 .5-.3 0-.4-.3-.5-.8-.5-1 0-1-.8-1-2V5.4c0-2.3.5-2.7 1-2.7.1 0 .3 0 .6.6.4.5.7.7 1.2.7S8 3.5 8 2.4 7.3.7 6.5.7C5.3.7 4.2 2.3 4.2 2.4l-.2.2-.1-.4V.8z" fill="#FFF" mask="url(#d)"/></g><path d="M95.3 17.8c0-3.4 1.3-5.4 2.8-5.4 2.4 0 3.1 4 3.1 6 0 3.3-1.3 5.9-2.9 5.9-1.7 0-3-3-3-6.5m8.2.3c0-4.2-2.8-6.3-5.2-6.3-3.2 0-5.3 3.3-5.3 6.5s2 6.6 5.4 6.6c3 0 5-3.1 5-6.8" fill="#FFF"/><g fill="#FFF"><path d="M20.5 9.4l3.4.1c.5.1.2-.2.1-.3l-.7-.6-.2-.2h-1.5l-1.8.2c-.2.1 0 .3 0 .3l.4.5h.3M18.4 8.7l.7-.2v-.1h-.7-.2c0 .2 0 .3.2.3M18.6 12.6v.7c0 .3-.3.5-.4.6v.6l-.3-.1c-.2-.2-.4.2-.8.2-.3 0-.5-.3-.6-.3H16c-.1.1 0-.2 0-.4l-.5-.3v-.7c.1-.2 0-.3 0-.4-.1-.1.3 0 .4-.1l.1-.5c.2-.2.3-.1.6-.2.2 0 .2-.3.4-.5 0-.1.1.4.5.4.3 0 .6.1.7.4.1.3.3.3.5.3l-.2.3M15.3 11l-.1.1-.1.2-.3 1.8v1.6l.1.3.2.2H17c1 .1 2 .2 2.3 0 .2-.4.1-1 .2-1.8V11c-.3-.3-1.4-.2-4.1-.2"/><path d="M38.7 26.6v.1h-.2c-.3-.1-1.3-.3-1.5.1-.2.2-.1.6.1.9v.3c-.1-.2-.4-.3-.7-.4l-1.1-.4-1.5-.7-2-1-1.5-.4c.2-.1.4-.4.7-.3.2 0 .3.3.5.3.3 0 .3-.4.5-.6.3-.3 1.4.1 2-.6.8-.6.4-2 .3-2.3l.1-.2c.1-.2.2-.3.6-.3h.4c-.3.3-.3.5-.4 1-.1.5.5 1.3 2 2.4.7.6 1.3 1.3 1.7 2m-8.5-3.3L30 23a.7.7 0 0 0-.5-.1c-.3 0-.5 0-.7.3a3 3 0 0 1-.7.7v.3h.2v.1l-.1.1c-.2 0-.3 0-.4.2-.3.3-.3.7-.5 1.1-.1.5-.4.7-.4 1 .2.4.4.5.7.8l.8.8.2.2h-1.1a39.6 39.6 0 0 0-5.7 0h.2a44.1 44.1 0 0 1-3-.1h-2.7l-1 .1.1-.2c.2-.4.5-.6.7-.8.4-.3.6-.4.7-.8 0-.3-.2-.5-.4-1 0-.4-.1-.8-.4-1.1l-.4-.1-.1-.2h.1l.1-.1V24l-.4-.4-.3-.4c-.2-.2-.4-.4-.8-.3-.1 0-.3 0-.4.2h-.3v.1h-.2v.1c-.9-.2-1.4-.5-1.7-1.2-.5-1.4.1-2.7-.5-3.4-.6-.4-1-.2-1.6 0l-.6.2h-.7l.5-.5c.4-.5 1-.4 1.4-.9.6-.4 1.1-1.6 1.2-1.4.1 0-.1.7.4.7.3 0 .5-.5.7-.4l.1.4-.1.7c-.2.1-.3.5-.2.6.2.2.8-.3 1-.2 0 0 0 .7.3.8.3 0 .4 0 .5-.2l.1-.2c.1.2.2.4.4.3.3 0 .3-.3.3-.5 0-.1.2 0 .2 0v1c0 .5.1 1.8 1 3.2 1 1.7 2.2 2.7 3.6 3.9l.9.7 1 .8.3.2h.2l.3-.2 1-.8.9-.7c1.4-1.2 2.6-2.2 3.6-3.9.9-1.4.9-2.7 1-3.2v-1s.1-.1.1 0c0 .2 0 .5.3.5s.4-.1.5-.3v.2c.2.2.3.3.5.2.4 0 .3-.8.4-.8.2-.1.8.4 1 .2 0 0 0-.5-.2-.6a.8.8 0 0 1-.2-.7l.2-.4c.1 0 .4.5.7.4.5 0 .2-.7.4-.7 0-.2.6 1 1.1 1.4.5.5 1 .4 1.5.9l.4.5H35l-.7-.2c-.6-.2-1-.4-1.6 0-.7.7 0 2-.5 3.4-.3.7-.9 1-1.7 1.2h-.2v-.1m-1 1.5l.4-.1c.2 0 .3.2.5.4l-1-.3m-14.7 0l-.9.3.4-.4c.2 0 .4.2.6 0v.1m-2.6.9l-2 1-1.5.6-1.1.4-.8.3v-.2c.3-.3.3-.7.2-.9-.2-.4-1.2-.2-1.5 0H5v-.1-.1c.3-.8 1-1.5 1.7-2 1.5-1.2 2-2 2-2.6l-.4-1h.4c.3 0 .4.2.6.4v.2c0 .3-.4 1.7.3 2.3.7.7 1.7.3 2 .6.3.2.3.6.6.6.2 0 .3-.3.5-.3.3 0 .5.2.6.3l-1.4.5m-4-19c-.1-.2.4 0 .7 0 .2.2.1.4.1.6 0 .2-.3 0-.5-.2-.2-.1-.5 0-.4-.4m8.8 11.2c.3 0 .2-.1.3-.3 0-.2.3-.2.6-.1h.2l.2-.3c0-.1 0-.2.2-.2.2.1.1.3.4.3.2 0 .4-.5.6-.2.1.2-.2.7-.3.9v.2l.1.5c.2.2.2.3 0 .5v.5c.1.1 0 .2 0 .2l-.3.6c-.2 0-.4-.3-.6-.2-.2.2-.4.5-.6.4-.2-.2-.2-.2-.5 0s-.6.3-.5 0c0-.5.1-.5.3-.7.1-.2-.2-.4.1-.5.5-.3.4-.4.3-.5H17l-.3.2c-.2 0-.3-.4-.1-.5.3 0 .5-.1.5-.3h-.2l-.2.1h-.3l-.1-.2c0-.3.2-.3.4-.4m6.3 8.9h-.2c-.2.1-.2 0-.4 0h-.7c-.2 0-.3.2-.5.1l-.1-.1c-.2-.2-.2-.3-.1-.4h1c.1.1.3 0 .4 0h.7l-.1.4m-.3-.9l-.8.2h-.2l-.8-.2c-.3 0-.4.3-.7.2-.2 0-.3 0-.4-.2-.2-.2-.3-.3-.2-.5h.6c.2.1.5 0 .8 0 .3 0 .5.2.8.1l.9-.1.7.1h.6l-.2.4-.4.2-.7-.2m-2.4-1.6c.4 0 .7.3 1 .2l1.3-.2h.3l1.1.2h1c0 .2 0 .3-.3.6h-.2l-.2.1h-.9l-.8-.2h-.2l-1 .2c-.5 0-1-.3-1.2-.2-.4 0-.5.3-1 .2a1 1 0 0 1-.4-.2c-.3-.3-.4-.4-.3-.6 0-.1.5 0 .8 0l1-.1m.1-6l.4-.6c0-.2.2-.4.1-.6v-.6c.1-.2.4-.3.7-.3.8 0 .8.9 1 1 0 .2.4 0 .5.3.2.2 0 .3 0 .6.1.4.5.2.6 1 0 .5-.2.5-.3.8v.4s-.1.1 0 .2l-.2.3.1.7.4.8v.4l-.1.8c-.2.2-.3.2-.6.2h-.8c-.3-.1-.5-.2-1 0-.2 0-.3.2-.7.2h-.3-.1l-.1-.1c0-.2-.2-.3-.1-.6 0-.5.2-.8.3-1.2l.4-1.1v-.4-.1c-.3-.1-.6-.2-.7-.5-.3-.5.3-1 .5-1.5m4.3-.5c.3 0 .3-.1.3-.3.1-.2.3-.2.6-.1h.2l.2-.3c0-.1 0-.2.2-.2.2.1.1.3.4.3.2 0 .4-.5.6-.2.1.2-.2.7-.3.9v.2l.1.5c.2.2.2.3 0 .5-.1.3 0 .3.1.5v.2l-.4.6c-.2 0-.4-.3-.6-.2-.2.2-.4.5-.6.4-.2-.2-.2-.2-.5 0s-.6.3-.5 0c0-.5.1-.5.3-.7.1-.2-.2-.4.1-.5.5-.3.4-.4.3-.5H25l-.3.2c-.2 0-.3-.4-.1-.5.3 0 .5-.1.5-.3h-.2l-.2.1h-.3l-.1-.2c0-.3.2-.3.4-.4M35.1 6.7c.2-.1.8-.3.8-.1 0 .5-.2.3-.4.4-.2.1-.5.4-.5.2l.1-.5m8.5 3.4l-.2-.1c-.5 0-.9.2-1.1.5l-.4.8v.3l-.2.1-.3.1.2-.4V11l.1-.4c.1-.3 0-.5-.1-.6-.2 0-.3 0-.3.2l-.4.7a3 3 0 0 1-.6.5c-.9 1.2-1.5 2.5-1.3 4 .1 1 .4 1.3 1.3 2.3.6 1 1.1 1.8.9 2.7-.1.6-.9.6-1.5.5.1-1.4-.2-2.1-.9-3.3-.6-1.2-1.6-1.9-2.3-3l-.1-.1v-.1l.2-.1h.5c.3-.3.1-.6.1-.9h.1l.3-.2H38.4c.3-.3.2-1 0-1.5-.1-.5-.3-.6-.2-1 .2-.2.6.6 1 .2.3-.3-.2-.5-.2-.9l.5-.4c0-.3-.4-.7-.5-.8h-.2v-.2-1l-.4-1c0-.1.4-.3.4-.5s-.3-.2-.4-.4c-.2-.5 0-.8-.2-.9-.2 0-.2.2-.5.3-.1 0 0-.3-.2-.3l-.4.2-.2.2-.3.2-.4.2-.7.2c-.3 0-.5 0-.7.2-.5.2-.6.4-1 .8l-.2.3.1.3c.1.3 0 .6.2.7.4.2.7 0 1 0 0 .2-.6.3-1 .3l-.8-.1h-.4-.2-.1l.4.4c.4.1.3.4.7.4.3 0 1.2-.5 1.2-.3l-.5.3c-.3.1-.6 0-.8.6 0 .5 1 0 1 .2-.1.2-.6.4-1 .4h-.1l-.4.3-.1.3c-.3.4-1 0-2.8-.7-.7-.4-1.5-.5-2.3-.3-.2 0-.3.1-.3.3 0 .3.4.4.7.3l.7.1c.2.3.1.4 0 .9l.3.6.2.4h.4v.3h.2l.1.4.4-.2.2.2c0 .1 0 .3.2.4.2.2.4-.2.5 0l-.8 1-.8.6c-.4.4-.5.8-.7 1.4-.1.4 0 .5-.4.8l.1-.7c.1-.2.1-.5.3-.7 0 0 .2-.1.1-.2H14.7c-.1.1 0 .2 0 .2.2.2.2.5.3.7.1.3.2.3.2.7-.3-.3-.3-.4-.4-.8l-.7-1.4-.9-.7-.8-1c.2 0 .4.3.6 0l.2-.3.1-.2h.1l.4.2v-.3l.2-.1.1-.3h.4l.2-.4.2-.6c0-.5-.2-.6 0-.8.2-.3.5-.2.8-.2.2.1.7 0 .6-.3 0-.2 0-.3-.2-.3-.8-.2-1.6 0-2.4.3-1.8.8-2.4 1.1-2.7.7l-.1-.3-.4-.3c-.5 0-1-.2-1-.4s.8.3.8-.2c0-.7-.4-.5-.8-.6-.2-.1-.5-.2-.4-.3 0-.2.8.4 1.2.3.4 0 .3-.3.6-.4l.5-.4h-.2-.5l-.8.2c-.4 0-1-.2-1-.3.2-.1.6.1 1-.1l.1-.7.1-.3c0-.2 0-.3-.2-.3-.4-.4-.5-.6-.9-.8l-.7-.2-.7-.2-.4-.2c-.1 0-.2 0-.3-.2a.9.9 0 0 1-.2-.2l-.4-.2c-.2 0 0 .3-.3.3-.2-.1-.2-.3-.4-.3-.3 0 0 .4-.2 1-.1.1-.4.1-.4.3 0 .2.3.4.4.6-.1.3-.3.5-.3.9a3.4 3.4 0 0 0 0 1.1H5h-.2c-.1.2-.6.6-.5.9 0 .2.5.3.5.4 0 .4-.5.6-.2 1 .4.3.7-.5 1-.3 0 .4-.1.5-.3 1-.1.6-.3 1.2 0 1.5H6.2l.2.1.1.2c0 .2-.2.5.2.8h.5l.1.1h.1v.2c-.9 1.1-1.8 1.8-2.4 3-.7 1.2-1 1.9-1 3.3-.6.1-1.3.1-1.4-.5-.3-1 .3-1.7 1-2.7.7-1 1-1.3 1.2-2.3.2-1.5-.4-2.8-1.3-4a3 3 0 0 1-.6-.5 3 3 0 0 1-.4-.7l-.3-.2c-.2 0-.3.3-.1.6v.9l.2.4h-.2l-.1-.2-.1-.3-.4-.8c-.3-.3-.6-.5-1-.5H.1v.2l.6.5c.3.7.1 1.2.6 1.7.4.3 1 .8 2 1.2h.3l.2.6c.2.3.3.5.2.9a5 5 0 0 1-1 1.9c-1.2 1.4-1.8 2.4-1.6 3.9.2.7 1.3 1 2.5.6h.5l.2.2c.2.2.4.5.3 1-.2.6-.7 1-1.2 1.6l-.3.1v.2l-.2.2c-.1 0 0 .2 0 .4 0 .3-.5.3-.4.7 0 .3.3.2.4.4 0 .2-.6.3-.4.8.4.4.8.3 1 .6l-.1.4v.5c0 .1.1 0 .4 0l.3-.1.4-.2h.3v.2s-.6.1-.7.3l-.7.5c-.1.3 0 .4.2.8.2.5.3 1.1.5 1.3.2.2.8.1 1.3-.2 1.8-1 2.8-1.2 4.6-2l2.5-1-.2.5c0 .5.2.7 0 1.6 0 .4 0 .6.2 1 .3.4 1 .3 1.7.3.6 0 3.8-.3 6.7-.2h1.1l6.7.2c.8 0 1.5 0 1.8-.4.2-.3.2-.5.1-1v-1.5c0-.2 0-.3-.2-.5l2.5 1c1.8.8 2.9 1 4.7 2 .5.3 1 .4 1.3.2.2-.2.2-.8.4-1.3.2-.4.4-.5.3-.8l-.7-.5c-.1-.2-.7-.3-.8-.3v-.2h.3l.5.2c.1 0 .2 0 .3.2l.4-.1V28c0-.1-.1-.2 0-.4 0-.3.5-.2.8-.7.3-.4-.4-.5-.3-.7 0-.2.4 0 .4-.4s-.4-.4-.5-.7c0-.2.2-.3 0-.4l-.1-.2v-.2H40v-.1c-.5-.6-1-1-1.2-1.7-.2-.4 0-.7.2-.9l.2-.1.2-.2h.1l.3.1c1.2.5 2.3.1 2.4-.6.3-1.5-.3-2.5-1.6-4a5 5 0 0 1-1-1.8c0-.4 0-.6.2-1l.3-.5h.2c1-.4 1.7-.9 2-1.2.5-.5.3-1 .7-1.7l.6-.5v-.1"/><path d="M19.4 9c-.1-.2-.1-.2-.3-.2l-1 .2c-1.2.4-1.5.7-1.4 1 0 .5.8.3 1 .2a23 23 0 0 1 1.9-.6c.5 0 .1-.4-.2-.6M28.6 8l.1-.6c.2 0 .4.2.5.4.1.2.4.7.2.7-.2.1-.4-.4-.5-.2.2.3 0 .4 0 .4-.4.2-.5-.1-.7-.3-.2-.5-.3-.5-.1-.6.3-.3.3.1.5.2m-1-1.9c0 .4-.2.6-.2.5-.7-.9-1-.8-.8-1 .2-.3.2-.3.4 0l.2-.1v-.3c.1-.1.3-.2.4 0 .2.2.6.6.4 1l-.4-.1m1-.2c-.6-.9-.7-1.3-1-1.5l-.5.1c-.3-.1-.5-.3-.7 0v.3c-.2.2-.5.4-.4.6 0 .3.4.4 1 1.5.3.7.7 0 .8.2 0 .2-.4.2-.4.6l.9 1.5.3.3c.1.1.5-.1.6-.2.1 0 .3.4.5.2l.1-.4c.1-.2.4-.2.4-.4v-.4c-.8-1-.7-1.3-1-1.5h-.7l-.1-.2c.1-.2.3-.2.3-.4l-.2-.3M17 8.7h-.1l-.7.1s-.2.1 0 .2c0 .2.1.5.3.4l.6-.3c.1 0 .1-.1 0-.2l-.1-.2M17.6 9c.3-.1.7-.1.5-.3 0-.2-.1-.3-.3-.2h-.5c-.1.1-.2.2 0 .3 0 .2 0 .3.3.2M26.8 2c-.2.5-.4.6-.4 1s.3.7.7.7c.4 0 .6-.4.7-.4.4-.3.6 0 .7-.2.2-.2-.1-.6 0-.9 0-.2.2-.6 0-.8-.1-.1-.7.2-1 .2-.3 0-.3-.2-.6-.1-.2 0 .1.2 0 .5M16.5 2.1h.1c.4.5-.4 1.2-.9.9-.6-.4.3-1.3.8-.9m-.2 1.6c1-.2 2-2.4-.2-2.2l-.5.1c-1 .4-1.5 2.3.7 2M21.4 12.5v-.9c0-.2 0-.5.4-.4.5 0 .4.4.4.5v.8c.1 0 1.5-.2 1.4.3 0 .3 0 .4-.8.4-.1.1-.6 0-.7.3v.9c-.1.2-.2.3-.4.3-.8 0 0-1.5-.4-1.5 0-.3-1.5.3-1.4-.4.1-.7 1.3-.3 1.5-.3M19.8 15h.7a68.8 68.8 0 0 0 3.2 0l.3-.1c.2 0 .3 0 .3-1.3l-.2-2.3-.1-.5-.5-.2h-1.6l-.7.1h-1.1c-.3.1-.3.2-.4.4l-.2 2.2v1.3c0 .2.2.3.3.4M27.6 9l-.1-.2-.6-.1h-.1l-.2.2V9l.7.3c.1 0 .3-.2.3-.4M25.5 18s.4 0 .5-.2l-.4-.1-.3.2.2.2"/><path d="M14.6 7.8c.1-.2.3-.4.5-.4l.1.6c.2 0 .3-.4.5-.2.2.1 0 .1 0 .6-.2.2-.3.5-.7.4-.2-.1-.2-.1-.1-.5 0-.2-.3.3-.5.3-.1-.1.1-.6.2-.8m1.6-2.6c0-.2.3 0 .5 0l-.1.3.2.1c.2-.3.3-.3.5 0 0 .2-.2.1-.8 1-.1 0-.2 0-.3-.5 0-.1-.2.2-.4 0-.2-.3.2-.7.4-1m1.7-3.9c-.4.1-.6-.4-.4-.8h.2c.4-.2 1 .6.2.8m.7 3.8h1.2v1.2h-1.3V5m0-1.6l.2-.1h1c.2.2.1.9 0 1.2 0 .2-.7.2-1 0-.3 0 0-.5-.1-1m0-2l1 .1c.2.1 0 .4 0 1 0 0 .2.1.1.2h-1c-.2-.2 0-.6-.1-1v-.2m1.7 0H21.6v1.2h-1.1c-.3 0 0-.6 0-1.1m1.2 3.6v.5c-.2.2 0 .2 0 .4h-1.2v-1V5h1.1v.3m-1.1-1.9s-.1 0 0 0v-.1h1c.2.2 0 .6 0 1 0 0 .1.2 0 .2h-1v-1M22.2 5h1.2c.2 0 0 1.1 0 1.2L22.2 6v-1m0-1.6l.1-.1h1l.1.2v.5c-.1.3 0 .3 0 .4h-1.1c-.2 0 0-.5 0-1m0-1.8v-.1h1.2v1.2h-1.2c-.2 0 0-.6 0-1.1M24 3.4c.2-.2.6 0 1-.1h.2c0 .6.2 1.2 0 1.2H24V3.4m.1-1.8h1.1c.1 0 0 0 0 .1v1h-1c0-.6-.2-1 0-1.1m1 4.6H24V5h1.2s.2 1.2 0 1.2m1-5.8c.4.4 0 .9-.3.8-.7-.2-.1-1.1.3-.8M14 9l.1.4c.2.2.4-.1.6-.1 0 0 .4.2.5.1l.3-.3c.4-.4.7-1 .9-1.5 0-.3-.4-.4-.4-.6.1-.2.5.5.9-.2.5-1 .8-1.2 1-1.5l.1 2.2.2.6h.3c.3-.2.7-.2.8-.4 0-.2 0-.1-.3-.1-.1 0 0-.7 0-.8h.6l.1.6c-.4.1-.2.2.2.5.2.1.2.5.3.4.2 0 .2-.2.4-.4.1 0 .6-.4.1-.4l.1-.7.6.1c.1.1.2.5 0 .5s-.3.2.1.5c.2 0 .3.3.4.3.2 0 .4-.3.6-.5 0 0 .3-.2 0-.3h-.2V7l.7-.1c.1 0 .2.1.2.3l-.1.3s-.2.1-.1.2c0 .1.1.2.4.3.2.2.1.4.3.4l.4-.3c.2-.2.6-.4.3-.6-.2 0-.2-.1-.2-.3l.1-.3h.7l-.1.6c-.4 0-.1.2 0 .3l.3.3c.1 0 .2.2.3.1l.3-.7c0-1 .3-1.6.2-2.8-.2-1.4 0-2.8 0-2.8.3-.1 1.4-.9.7-1.7-.5-.4-1.4-.2-1.5.7h-.5L23 1h-4.4V.8c-.3-.7-1-1-1.4-.5-.8.8.3 1.5.5 1.7.2 0 .3 1.3.2 2.8v.4l-.4-.4v-.3c-.3-.2-.5 0-.8 0-.2 0-.3-.1-.4 0-.4.1-.5.5-1 1.4l-.1.3.2.4-.1.3c-.2 0-.4-.2-.6-.1-.4.2-.2.5-1 1.5 0 .1-.1.3 0 .4 0 .2.2.2.3.4M17.5 18s.4 0 .4-.2l-.3-.1-.3.2c0 .1 0 .2.2.2"/><path d="M25.3 8.7c.2 0 .2 0 .2-.2s0-.2-.2-.2h-.6c-.1 0-.1.2 0 .2l.6.2M25 12.3c.2 0 .4 0 .5-.3.1-.3.4-.3.7-.4.4 0 .4-.5.5-.4.1.2.2.5.4.5s.4 0 .5.2c.2.2 0 .3.2.5l.5.1-.2.4c0 .1.2.4 0 .7 0 .2-.3.1-.3.3-.1.2 0 .6-.1.5-.2 0-.3-.2-.4-.1l-.6.3c-.4 0-.6-.4-.8-.2-.1.1-.2.2-.3.1V14c-.2-.1-.4-.3-.4-.6v-.7c-.2-.2-.3-.2-.2-.3m-.4 2.7c.2.3 1.2.2 2.3.2.6-.2 1.4 0 1.9 0l.1-.3v-.3V13c0-.7 0-1.1-.2-1.8l-.1-.2c-2.7 0-4-.2-4.2 0v2.3c0 .8 0 1.4.2 1.7M24.7 9.6h.1l1.4.6c.3.1 1 .3 1-.1.1-.4 0-.7-1.3-1-1-.4-1.8-.5-2-.5 0 0-.1 0 0 .1.2.2.6.5.7.8l.1.1M26.5 8.8c.1-.1 0-.2-.1-.2l-.5-.1c-.1 0-.2 0-.3.2-.1.2.3.2.6.3.3.1.2 0 .3-.2"/></g></g></svg>