<svg width="146" height="20" viewbox="0 0 146 20" xmlns="http://www.w3.org/2000/svg" xmlns:xlink="http://www.w3.org/1999/xlink"><defs><path id="a" d="M.5.1h6.9v11.6h-7z"/><path id="c" d="M.1.2h5v8.3H0z"/></defs><g fill="none" fill-rule="evenodd"><path d="M39.8 5.4c0-.5 0-.6-.7-.8l-1.8-.2c-3.5 0-5 3.1-5 5.6 0 2.2 1.4 5.6 4.8 5.6 1.4 0 2.3-.6 2.5-.8.3-.2.3-.3.3-.6l.1-1.5s0-.2-.2-.2l-.2.3c-.6 1.3-1.2 2.3-2.4 2.3-2 0-3.2-2.8-3.2-5.2 0-2.3 1-5 3.3-5 1.2 0 1.7.8 2.2 1.7.1.3.2.3.3.3.2 0 .2-.1.2-.3l-.2-1.2zM43.2 5.4c0-.5-.3-1-.7-1-.5 0-.8.5-.8 1s.4 1 .8 1 .7-.5.7-1M41.8 13.7c0 1 0 1.1-.5 1.2l-.4.3c0 .3.1.3.2.3l1.4-.1h1.4c.1 0 .2 0 .2-.2 0-.1 0-.2-.4-.3-.5 0-.5-.3-.5-1.2V8c0-.4 0-.6-.2-.6l-.6.6a4 4 0 0 1-1.2.7c-.2 0-.2.1-.2.3 0 .2.2.2.2.2.5 0 .6.3.6 1.2v3.3zM46.4 8.7c0-.3 0-.4.2-.4h1.2c.2 0 .2 0 .2-.3l-.1-.4H46.7c-.3 0-.3 0-.3-.3V6c0-.3-.2-.3-.2-.3L46 6a4 4 0 0 1-1.2 1.6l-.4.2-.2.4.2.1h.3c.2 0 .4.1.4.3v5c0 1.4.6 2 1.3 2 1 0 1.9-1.1 1.9-1.4l-.2-.1H48c-.5.4-.7.5-.9.5-.7 0-.7-.8-.7-1.6V8.7z" fill="#FFF"/><g transform="translate(47.7 7.5)"><mask id="b" fill="#fff"><use xlink:href="#a"/></mask><path d="M3.1 1.7L3 1c0-.3.2-.4.3-.4.5-.1.6-.1.6-.3 0-.2-.1-.3-.2-.3H.9C.7.1.5.1.5.4c0 .2.2.2.2.2.5 0 .6 0 1 1l1.7 5.6.2.9-.1.5-.4 1c-.2.5-.4.6-.6.6h-.3c-.5 0-.6.4-.6.8 0 .2 0 .7.7.7s.8-.3 1-1l1.2-4.2 1.6-4.6C6.4 1 6.6.7 7 .6c.4 0 .5 0 .5-.3 0-.2-.2-.2-.2-.2l-1 .1H5c-.1 0-.3 0-.3.2s.1.2.5.2c.3 0 .5.2.5.5l-.2 1-1.2 3.6-1.3-4z" fill="#FFF" mask="url(#b)"/></g><path d="M67.7 8.7c0-.3 0-.4.3-.4h1.2l.2-.1c0-.5 0-.6-.2-.6H68c-.3 0-.3 0-.3-.4 0-.6 0-2.8.8-2.8.3 0 .4.2.8 1 0 0 .2.3.4.3s.6-.8.6-1c0-.8-1-.8-1.2-.8-.8 0-2.4.8-2.6 3-.1.7-.2.8-.4.9-.4 0-.6.1-.6.4 0 .1.1.2.3.2h.3c.2 0 .3 0 .3.6v4.7c0 .7 0 1.1-.7 1.2-.3 0-.5 0-.5.3s.2.3.3.3l1.5-.1h1.6s.2 0 .2-.2c0-.3-.1-.3-.4-.3-.7 0-.7-.5-.7-1.2v-5zM80.8 9.1l-.1-.3v-.3l1-2.3c.4-1 .5-1.1.9-1.2.3 0 .5 0 .5-.3 0-.2-.2-.2-.4-.2H81c-.1 0-.2 0-.2.2s0 .2.2.3c.3 0 .4.1.4.3l-.1.6-.8 2.2-.8-2.3-.1-.6c0-.1 0-.2.3-.2 0 0 .4 0 .4-.3 0-.2-.1-.2-.2-.2h-2.7c-.1 0-.3 0-.3.2 0 .3.1.3.5.3.2 0 .4.3.6 1.1l1.3 3.7.1.3v.2l-1 2.7-2.6-7.2-.1-.5c0-.3.2-.3.3-.3.2 0 .4 0 .4-.3 0-.2-.2-.2-.3-.2h-2.8s-.3 0-.3.2c0 .3 0 .3.5.3.3 0 .5.2.8 1l3.2 9.3c0 .2.1.4.3.4l.3-.5 1.6-4.4 1.4 4.5.3.4c.2 0 .2 0 .3-.3l2.9-8.8c.4-1.5.6-1.5.9-1.6.3 0 .5 0 .5-.3 0-.2-.2-.2-.2-.2h-2c-.1 0-.3 0-.3.2s.1.3.2.3c.4 0 .6.1.6.4l-.2 1-2.2 6.4-1.2-3.7zM86.8 9.7c-.3 0-.3 0-.3-.2 0-.3.4-1.8 1.6-1.8.2 0 1.1 0 1.1 1.1 0 .5-.3.9-.9.9h-1.5zm3.4.5c.3 0 .4 0 .4-.3 0-.6-.4-2.6-2.5-2.6-1.8 0-3.3 1.7-3.3 4.3 0 2.4 1.4 4 3.1 4 1.7 0 2.7-1.6 2.7-1.8l-.1-.2-.3.3a2 2 0 0 1-1.5.7c-1.4 0-2.4-1.5-2.4-3.5 0-.9.1-.9.3-.9h3.6zM91.4 14.4l.1.7s1 .5 1.7.5c1.8 0 2.6-1.5 2.6-2.9 0-1.5-1.1-2-1.6-2.3-1.3-.7-1.6-.9-1.6-1.6 0-.6.5-1 1-1 1 0 1.3.9 1.4 1.2 0 .3.2.4.2.4.2 0 .2-.2.2-.3V8c0-.3 0-.5-.3-.6l-1.3-.2c-1.8 0-2.4 1.4-2.4 2.4 0 1.3 1 1.8 1.8 2.2 1 .5 1.5.9 1.5 1.8S94 15 93.4 15c-1 0-1.5-1.5-1.5-1.8 0-.3-.2-.5-.3-.5-.2 0-.2.3-.2.3v1.3zM98.5 8.7c0-.3 0-.4.3-.4h1.1c.2 0 .3 0 .3-.3s0-.4-.2-.4H98.8c-.2 0-.3 0-.3-.3V6c0-.3-.1-.3-.2-.3l-.2.2a4 4 0 0 1-1.2 1.6l-.3.2-.2.4.2.1h.3c.2 0 .3.1.3.3v5c0 1.4.7 2 1.4 2 1 0 1.8-1.1 1.8-1.4l-.1-.1h-.2c-.4.4-.6.5-.8.5-.7 0-.8-.8-.8-1.6V8.7zM109.5 13.7c0 1 0 1.1-.6 1.2l-.4.3c0 .3.1.3.2.3l1.4-.1h1.4s.2 0 .2-.2c0-.1 0-.2-.4-.3-.5 0-.5-.3-.5-1.2V9.5c0-.6-.2-2.2-2-2.2-.4 0-1 .3-1.4.9l-.5.5-.3-.4c-.4-1-1.2-1-1.4-1-.6 0-1.1.2-1.9 1.2l-.1.2-.1-.4v-.8l-.1-.3-.3.3a4 4 0 0 1-1.4 1.1c-.2 0-.2.1-.2.2 0 .3.1.3.4.3.4 0 .4.4.4 1.2v3.4c0 1 0 1.1-.6 1.2l-.4.3c0 .3.1.3.2.3l1.4-.1h1.4s.2 0 .2-.2c0-.1 0-.2-.4-.3-.5 0-.5-.3-.5-1.2V10c0-.5 0-.8.2-1 .2-.4.5-.6 1.1-.6 1 0 1.2 1 1.2 1.8v3.5c0 1 0 1.1-.6 1.2l-.4.3c0 .3.1.3.2.3l1.4-.1h1.4s.2 0 .2-.2c0-.1 0-.2-.4-.3-.5 0-.5-.3-.5-1.2V9.9c0-.4 0-.7.2-1 .1-.2.5-.6 1.1-.6 1.2 0 1.2 1.2 1.2 1.7v3.7zM114.7 5.4c0-.5-.3-1-.8-1-.4 0-.7.5-.7 1s.3 1 .7 1c.5 0 .8-.5.8-1M113.3 13.7c0 1 0 1.1-.6 1.2l-.4.3c0 .3.1.3.2.3l1.5-.1h1.4s.2 0 .2-.2c0-.1 0-.2-.4-.3-.6 0-.6-.3-.6-1.2V8l-.1-.6c-.2 0-.6.5-.7.6a4 4 0 0 1-1.2.7c-.1 0-.2.1-.2.3 0 .2.2.2.3.2.5 0 .6.3.6 1.2v3.3zM121.1 13.7c0 1 0 1.1-.6 1.2l-.4.3c0 .3.2.3.3.3l1.4-.1h1.4s.2 0 .2-.2c0-.1 0-.2-.4-.3-.6 0-.6-.3-.6-1.2V9.6c0-1.6-1-2.3-1.8-2.3s-1.2.3-2 1.3h-.2V7.6c0-.2 0-.3-.2-.3l-.3.3a4 4 0 0 1-1.4 1.1l-.2.2c0 .3.2.3.4.3.4 0 .4.4.4 1.2v3.4c0 1 0 1.1-.6 1.2l-.4.3c0 .3.2.3.3.3l1.4-.1h1.4s.2 0 .2-.2c0-.1 0-.2-.4-.3-.6 0-.6-.3-.6-1.2V10c0-.5 0-.8.3-1 .3-.4.7-.6 1.1-.6 1.3 0 1.3 1.3 1.3 2.1v3.2zM124.4 14.4c0 .4 0 .6.2.7 0 0 .9.5 1.7.5 1.8 0 2.6-1.5 2.6-2.9 0-1.5-1.1-2-1.6-2.3-1.4-.7-1.7-.9-1.7-1.6 0-.6.5-1 1.1-1 1 0 1.3.9 1.4 1.2 0 .3.1.4.2.4l.2-.3V8c0-.3 0-.5-.3-.6l-1.3-.2c-1.8 0-2.4 1.4-2.4 2.4 0 1.3 1 1.8 1.7 2.2 1 .5 1.6.9 1.6 1.8s-.7 1.4-1.3 1.4c-1.1 0-1.5-1.5-1.6-1.8 0-.3-.1-.5-.3-.5l-.1.3v1.3zM132 8.7c0-.3 0-.4.2-.4h1.2c.2 0 .2 0 .2-.3l-.1-.4h-1.2c-.3 0-.4 0-.4-.3V6l-.1-.3-.3.2a4 4 0 0 1-1.1 1.6l-.4.2-.2.4.2.1h.3c.2 0 .3.1.3.3v5c0 1.4.7 2 1.4 2 1 0 1.8-1.1 1.8-1.4v-.1h-.2c-.5.4-.7.5-.9.5-.7 0-.8-.8-.8-1.6V8.7zM136 9.7c-.2 0-.3 0-.3-.2 0-.3.4-1.8 1.6-1.8.2 0 1.2 0 1.2 1.1 0 .5-.4.9-1 .9h-1.4zm3.5.5c.2 0 .3 0 .3-.3 0-.6-.4-2.6-2.4-2.6-1.8 0-3.4 1.7-3.4 4.3 0 2.4 1.4 4 3.2 4 1.7 0 2.6-1.6 2.6-1.8l-.1-.2-.3.3a2 2 0 0 1-1.5.7c-1.4 0-2.4-1.5-2.4-3.5 0-.9.2-.9.4-.9h3.6z" fill="#FFF"/><g transform="translate(140.3 7)"><mask id="d" fill="#fff"><use xlink:href="#c"/></mask><path d="M2.4.5L2.3.2l-.4.5c-.3.3-1 .9-1.4 1-.2 0-.2.1-.2.3 0 .2.1.2.2.2.5 0 .6 0 .6 1.1v3.4c0 1 0 1.2-.5 1.3-.4 0-.5.1-.5.3 0 .2.2.2.3.2h2.9c.1 0 .3 0 .3-.3 0-.2-.2-.2-.5-.3-.6 0-.6-.5-.6-1.2V3.4c0-1.5.3-1.7.6-1.7 0 0 .2 0 .4.3.2.4.4.5.7.5.4 0 .9-.3.9-1s-.5-1-1-1c-.8 0-1.5 1-1.5 1l-.1.1V.5z" fill="#FFF" mask="url(#d)"/></g><path d="M59.6 11.1c0-2 .8-3.4 1.7-3.4 1.5 0 2 2.6 2 3.8 0 2-.9 3.7-1.9 3.7-1 0-1.8-1.9-1.8-4m5 .1c0-2.6-1.6-4-3.2-4-2 0-3.2 2.2-3.2 4.2s1.2 4 3.3 4c1.8 0 3.2-1.9 3.2-4.2" fill="#FFF"/><g fill="#FFF"><path d="M12.8 5.9H15c.2.1 0-.1 0-.2l-.4-.3-.2-.1h-1l-1 .1c-.2 0 0 .2 0 .2l.2.3h.2M11.5 5.4h.4v-.2h-.4l-.1.1s0 .2.1.1M11.6 7.9v.4l-.2.4c-.1 0 0 .3 0 .4l-.2-.1c-.1-.1-.2.1-.5.1l-.4-.2h-.2c-.1.1 0 0 0-.2-.1-.1-.2 0-.3-.2V8v-.2h.2v-.4h.4c.2-.1.2-.3.3-.4 0 0 0 .3.3.3.2 0 .4 0 .4.2.1.2.2.2.3.2.1 0 0 0 0 .2m-2.1-1h-.1c-.2.5-.2.8-.2 1.2v1.2l.2.2h1l1.5-.1.1-1.1V6.9c-.1-.2-.9 0-2.5 0"/><path d="M24.2 16.6v.1H24c-.2-.1-.8-.2-1 0v.6l.1.2-.5-.2c-.2-.2-.4-.2-.7-.3l-.9-.4-1.3-.6-.8-.3.4-.2c.1 0 .1.2.3.2l.3-.4c.2-.2.9 0 1.3-.4.4-.3.2-1.2.2-1.4v-.2l.4-.1h.2l-.2.6c-.1.3.3.8 1.2 1.5.5.4.9.8 1.1 1.3M19 14.5l-.2-.1-.2-.1c-.2 0-.4 0-.5.2a1.8 1.8 0 0 1-.4.5s-.1 0 0 .1h.1v.2h-.3l-.3.8-.3.6.5.5c.1 0 .3.2.4.5l.2.1h-.7a24.7 24.7 0 0 0-3.6 0h.2a27.6 27.6 0 0 1-2 0H9.5l.1-.1.5-.5.4-.5-.2-.6c-.1-.3-.1-.5-.3-.7l-.3-.1v-.1l.1-.1V15l-.2-.2-.2-.3-.5-.2-.3.1h-.1v.1h-.2c-.5 0-.9-.2-1-.7-.4-.8 0-1.7-.4-2.1-.3-.2-.6-.1-1 0l-.4.1H5l.3-.3c.3-.3.6-.3 1-.5l.7-1s-.1.5.2.5c.2 0 .4-.3.4-.3l.1.3v.4c-.2.1-.2.4-.2.4.1.1.5-.2.6-.1 0 0 0 .5.3.5l.2-.1.1-.2c0 .2.1.3.3.2l.2-.3v.6c.1.3.1 1.2.7 2 .6 1 1.4 1.8 2.2 2.5l.6.4.6.5.2.1h.2l.1-.1.7-.5.5-.4c.9-.7 1.7-1.4 2.3-2.5.5-.8.5-1.7.6-2v-.6c.1.1.1.3.3.3.1 0 .2 0 .2-.2l.1.2.3.1c.2 0 .2-.5.2-.5.1 0 .5.2.6.1V11a.5.5 0 0 1-.2-.4l.1-.3c.1 0 .3.3.5.3.3 0 .1-.5.2-.5l.7 1c.3.2.7.2 1 .5l.2.3h-.8c-.3-.2-.6-.3-1-.1-.4.4 0 1.3-.3 2-.2.6-.5.7-1 .9h-.2v-.1m-.6 1v-.1h.3l.2.2-.5-.2m-9.2 0l-.6.2.3-.2H9m-1.6.6l-1.3.6-.9.4-.7.3c-.2 0-.4 0-.5.2v-.2c.2-.2.2-.4.2-.5-.2-.3-.8-.2-1 0 0-.1 0-.1-.1 0v-.1-.1a4 4 0 0 1 1-1.3c1-.7 1.4-1.2 1.3-1.5l-.2-.6h.2l.4.1v.2c0 .2-.3 1 .2 1.4.4.5 1 .2 1.3.4.1.1.1.4.3.4.1 0 .1-.2.3-.2l.4.2-.9.3M5 4h.5l.1.4-.3-.1c-.1-.1-.3 0-.3-.3m5.6 7l.1-.2c0-.1.2 0 .4 0h.1l.1-.2.2-.1.2.1c.1 0 .3-.3.4 0l-.2.5v.4c.2.1.2.2.1.4v.4l-.2.3c-.1 0-.3-.1-.4 0-.1 0-.2.3-.4.1h-.3c-.2.2-.4.3-.3 0 0-.2 0-.3.2-.4v-.3c.3-.1.3-.3.3-.3h-.2l-.2.1s-.2-.2 0-.2l.3-.2h-.1-.2-.2v-.1c0-.2.1-.2.3-.3m3.9 5.6h-.2-.2-.7-.1l-.1-.3h.7c0 .1.1 0 .2 0h.4v.3m-.2-.6l-.5.1h-1.3l-.2-.4h.9c.2 0 .4.2.5 0H15l-.1.3-.2.1h-.5m-1.5-1h.6c.3 0 .5-.1.8 0 0-.1.1 0 .2 0H15.6l-.2.4-.2.1h-.6l-.5-.1H12h-.3c-.1-.2-.2-.3-.1-.4h1.1m0-3.8l.3-.4c0-.1.1-.3 0-.4v-.3c.1-.2.3-.2.5-.2.5 0 .5.5.6.6l.4.1v.4c0 .3.3.2.3.7 0 .3-.1.3-.2.5V12.7l-.1.3v.4l.3.4v.9h-1.5l-.5.2h-.1-.2c0-.2-.1-.3 0-.4l.1-.8.3-.7v-.2-.1c-.2 0-.4-.1-.5-.3-.1-.3.2-.6.4-1m2.7-.3l.1-.2c0-.1.2 0 .4 0h.1l.1-.2.2-.1.2.1c.1 0 .3-.3.4 0l-.2.5v.4c.2.1.2.2.1.4v.4l-.2.3c-.1 0-.3-.1-.4 0-.1 0-.2.3-.4.1h-.3c-.2.2-.3.3-.3 0l.2-.4v-.3c.4-.1.3-.3.3-.3h-.2l-.2.1s-.1-.2 0-.2l.3-.2h-.1-.2-.1l-.1-.1c0-.2.1-.2.3-.3m6.4-7h.5c0 .3-.1.2-.2.3-.1 0-.3.2-.3 0v-.2m5.3 2H27a1 1 0 0 0-.7.4l-.2.5v.1l-.1.1h-.2v-.2l.1-.3v-.3-.3l-.2.1-.3.4c0 .2-.2.3-.3.4-.6.7-1 1.5-.8 2.4 0 .7.2.9.8 1.5.3.6.7 1.1.6 1.7-.1.4-.6.4-1 .3.1-.9-.1-1.3-.5-2-.4-.8-1-1.2-1.5-2v-.2c.2.1.3.1.4 0 .2 0 0-.3 0-.5H23.6v-.1h.5c.2-.2.1-.6 0-1 0-.3-.2-.3-.1-.6.1-.1.3.4.6.2.2-.2-.1-.4-.2-.6l.4-.3c0-.2-.3-.4-.3-.5h-.2v-.7L24 4l.2-.3c0-.2-.1-.2-.2-.3L24 3c-.2 0-.2.1-.3.2l-.2-.2-.2.2-.2.1-.1.1-.3.1-.4.2h-.5l-.6.6V5h.7l-.7.2h-.7V5h-.2l.3.2c.2.2.2.3.4.3l.8-.2-.3.2c-.2 0-.4 0-.5.4 0 .3.6 0 .5.1 0 .1-.3.3-.6.3l-.2.2-.1.1c-.2.3-.6 0-1.7-.4-.5-.2-1-.3-1.5-.2l-.2.2c0 .2.3.3.4.2h.5v.6c0 .2 0 .3.2.4l.1.2c.1.1.2 0 .2 0l.1.2h.1v.3L19 8h.1l.1.3c.1.1.3 0 .4 0L19 9l-.6.5-.4.8c0 .2 0 .3-.2.5v-.4l.2-.4s.1-.1 0-.2h-9l.1.2.2.4.1.4-.3-.5-.4-.8-.5-.5c-.2-.2-.6-.5-.5-.6H8c.1 0 .2-.1.1-.2l.1-.2.3.2V8h.1l.1-.2c0-.1.1 0 .2 0l.2-.3.1-.4v-.5c.2-.2.3-.1.5-.1s.4 0 .4-.2c0 0 0-.2-.2-.2-.5-.1-1 0-1.4.2-1.1.5-1.6.7-1.7.4l-.1-.1-.2-.2c-.3 0-.7-.2-.7-.3 0-.1.6.2.6 0-.1-.5-.3-.4-.5-.5-.2 0-.4-.1-.3-.2 0 0 .5.3.7.2.3 0 .2-.1.4-.3.2 0 .4-.2.3-.2h-.2-.2l-.5.1-.6-.1.6-.1v-.5l.1-.1v-.2l-.7-.5-.4-.1-.5-.2-.2-.1h-.2L4.2 3l-.3-.2-.1.2c-.2 0-.2-.2-.3-.2-.2 0 0 .3-.2.6 0 .1-.2.1-.2.3l.2.3-.1.6a2.1 2.1 0 0 0 0 .7H3c0 .1-.3.3-.3.5s.3.2.3.3c0 .2-.3.4-.1.6.2.2.4-.3.6-.2l-.2.7c0 .3-.2.7 0 .9H4v.1c.1.2 0 .4.2.6h.4v.2c-.5.7-1.1 1.1-1.5 1.8-.4.8-.6 1.2-.6 2.1-.4 0-.8 0-.9-.3-.1-.6.2-1 .6-1.7.5-.6.7-.8.8-1.5.1-.9-.3-1.7-.8-2.4l-.4-.4a2 2 0 0 1-.2-.4s-.1-.1-.2 0c-.1 0-.2 0-.1.2v.6l.2.3h-.2v-.2l-.1-.1-.3-.5a1 1 0 0 0-.6-.3H0l.4.4c.2.4 0 .7.4 1 .2.3.6.6 1.3.8.1 0 0 0 0 0l.3.4c0 .2.2.3 0 .5 0 .5-.3.9-.5 1.2-.8 1-1.2 1.6-1 2.4 0 .5.7.7 1.5.5l.2-.1h.1l.2.2s.2.3.1.5c-.1.5-.4.7-.7 1v.1h-.2v.2H2c-.1.1 0 .3 0 .4 0 .2-.3.1-.3.4 0 .2.2.1.3.2 0 .2-.4.2-.3.5.3.3.5.2.6.4v.3.3h.4l.3-.2h.2l-.5.3-.4.3.1.5.3.8c.1.2.5.1.8-.1 1.2-.6 1.8-.7 3-1.2l1.5-.7-.2.4v1l.1.5c.2.3.7.2 1.1.2H18.2c.5 0 1 .1 1.1-.2l.1-.6v-1l-.1-.3 1.5.7c1.2.5 1.8.6 3 1.2.3.2.6.3.8.1l.2-.8c.2-.3.3-.3.2-.5l-.5-.3-.4-.2v-.1h.2l.3.1.2.1h.2v-.3-.3c0-.2.3-.1.5-.4.2-.3-.2-.3-.2-.5 0-.1.2 0 .3-.2 0-.3-.3-.2-.3-.4v-.3l-.1-.1v-.1H25v-.1l-.8-1c0-.3 0-.5.2-.6l.1-.1.1-.1h.3c.7.3 1.4.1 1.5-.4.2-.9-.2-1.5-1-2.4-.3-.3-.5-.7-.6-1.2-.1-.2 0-.3.1-.5l.2-.4c.8-.2 1.1-.5 1.4-.8.3-.3.1-.6.4-1l.3-.3v-.1"/><path d="M12.1 5.6l-.1-.1-.7.1c-.8.3-.9.4-.9.7 0 .2.5.1.7 0a14.4 14.4 0 0 1 1.1-.3c.3 0 .1-.3 0-.4M17.9 5v-.4c.2 0 .3.1.4.3 0 .1.2.4 0 .4 0 0-.2-.3-.2-.1l-.1.3c-.2 0-.3-.2-.4-.3 0-.3-.2-.3 0-.3.1-.2.2 0 .3 0m-.7-1c0 .2 0 .3-.1.2-.4-.5-.6-.5-.5-.6.1-.2.2-.2.3 0h.1v-.3h.3c0 .2.3.4.2.6h-.3m.6-.1l-.6-1-.3.1c-.1 0-.3-.1-.4 0V3c-.2.1-.3.2-.3.4.1.2.3.2.7 1 .2.4.4 0 .5 0 0 .2-.3.2-.3.4l.6 1 .2.1h.3c.1 0 .3.1.4 0v-.2c.1-.1.3-.1.3-.3v-.2l-.7-1-.4.1v-.2l.1-.2v-.2M10.6 5.4l-.4.1c-.1 0-.2 0-.1.2l.2.2.4-.2v-.2h-.1M11 5.6c.2 0 .4 0 .3-.2l-.2-.1h-.3s-.1.1 0 .2c0 .1 0 .2.2.1M16.8 1.3c-.2.3-.3.3-.3.6 0 .2.2.4.4.4.3 0 .4-.2.5-.3.2-.1.4 0 .4 0v-.6c0-.2.2-.4 0-.5l-.6.1c-.2 0-.2-.1-.4 0v.3M10.3 1.3c.3.3-.2.8-.5.6-.3-.3.2-.8.5-.6m-.1 1c.6 0 1.3-1.5-.1-1.4l-.4.1c-.6.2-.9 1.4.5 1.3M13.4 7.8v-.5c0-.2 0-.4.3-.3.2 0 .2.2.2.3v.5s1-.1.8.2c0 .2.1.2-.4.3-.1 0-.4 0-.5.2V9c0 .1-.1.2-.3.2-.4 0 0-1-.2-1 0-.1-1 .2-.8-.2 0-.4.7-.2.9-.2m-1 1.6h.4a43 43 0 0 0 1.5 0h.7c.1 0 .2 0 .2-.8L15 7l-.1-.3H13.3a3 3 0 0 0-.8 0l-.2.2v1.4c-.1.2-.1.6 0 .8v.2M17.3 5.7l-.1-.2h-.4-.2v.2l.4.2.3-.2M16 11.3s.2 0 .2-.2H16h-.2v.1l.1.1"/><path d="M9.1 4.9l.3-.3.1.4c.1 0 .2-.3.3-.1.2 0 0 0 0 .3-.1.2-.2.4-.4.3-.1 0-.2 0 0-.3-.1-.1-.3.2-.4.1l.1-.4m1-1.7h.3v.2l.1.1c.1-.2.2-.2.3 0l-.5.6-.2-.3s-.1.1-.2 0c-.1-.2.1-.4.2-.6m1-2.4c-.1 0-.3-.3-.1-.5.3-.2.7.3.2.5m.4 2.3h.7v.7l-.7.1c-.1 0 0-.7 0-.8m0-1H12.5v.7c0 .1-.5.1-.8 0v-.7m0-1.1h.7v.7h-.6c-.2 0 0-.4 0-.6h-.1V1m1.1 0h.7v.7h-.7V1m.8 2.3v.3c-.1.2 0 .2 0 .2h-.7v-.6h.6m-.7-1V2h.7v.7h-.7V2m1.2 1h.7v.7H14v-.7m0-1h.7v.7h-.7v-.6M14 1h.8v.7c0 .1-.5.1-.8 0V1M15 2h.7v.1c0 .4.2.7 0 .7H15V2M15 1h.7c.1 0 0 0 0 0v.7h-.6V1m.7 2.9H15v-.7c0-.1.7-.1.8 0v.7m.6-3.7c.2.3 0 .6-.2.5-.5 0-.1-.6.2-.5M8.7 5.7l.1.3.4-.2s.2.2.3.1l.2-.2.5-.9c0-.2-.2-.2-.2-.3 0-.2.3.3.5-.2.4-.6.6-.7.6-.9l.1 1.3.2.4h.2L12 5l-.2-.1v-.5h.4s.1.4 0 .4c-.2 0-.1.1.1.3l.2.3.3-.3s.3-.2 0-.3l.1-.4h.4c0 .1.1.4 0 .4-.2 0-.2 0 0 .3.2 0 .2.2.3.2l.4-.3s.1-.2 0-.2h-.2v-.3h.5c0-.1.1 0 .1 0v.3c-.1 0-.2 0-.1.1l.2.2.2.2.3-.1c0-.2.4-.3.1-.4v-.2-.2h.4v.4c-.3 0-.1.1 0 .2l.2.2h.1l.2-.4c0-.7.2-1 .1-1.7l.1-1.8c.1-.1.8-.5.4-1-.3-.3-.9-.2-1 .3l-.2.1h-3.9V.5c-.1-.5-.6-.6-.9-.3-.5.5.2 1 .4 1v2.1c0-.1 0-.2-.2-.3v-.2h-.5-.2c-.2.1-.3.3-.6.9l-.1.2.1.2v.2c-.2 0-.3-.1-.4 0-.2 0-.2.3-.6.9l-.1.3s.2 0 .2.2M11 11.3s.2 0 .2-.2H11h-.2v.1l.1.1M15.8 5.4l.2-.1h-.2-.4l.4.1M15.6 7.7c.1 0 .3 0 .3-.2.1-.2.3-.2.5-.2s.2-.4.3-.3c0 .1 0 .3.2.3l.4.1v.3l.4.1c0 .1-.2.1-.1.2v.5c0 .1-.2 0-.2.2l-.1.3c-.1 0-.1-.1-.2 0l-.4.1c-.3 0-.4-.2-.5-.1 0 0-.1.1-.2 0v-.3l-.3-.4c0-.1.1-.3 0-.4 0-.1-.1-.2 0-.2m-.3 1.7c.1.2.7.1 1.4 0H18v-.1-.1-1V7l-.1-.1c-1.7 0-2.5-.2-2.6 0v2.4M15.5 6l.9.4c.1 0 .6.2.6-.1 0-.2 0-.4-.8-.6L15 5.4h-.1l.5.6M16.6 5.5l-.1-.1-.3-.1-.2.1.4.2h.2"/></g></g></svg>