<svg width="32" height="32" viewBox="0 0 32 32" xmlns="http://www.w3.org/2000/svg"><path d="M29.333 0A2.667 2.667 0 0132 2.667v26.666A2.667 2.667 0 0129.333 32H2.667A2.667 2.667 0 010 29.333V2.667A2.667 2.667 0 012.667 0h26.666zm-9.742 8c-2.115 0-3.83 1.808-3.83 4.04 0 .316.034.624.098.919-3.182-.168-6.004-1.776-7.893-4.22a4.19 4.19 0 00-.518 2.031c0 1.401.676 2.637 1.704 3.362a3.665 3.665 0 01-1.735-.505v.05c0 1.957 1.32 3.59 3.072 3.96a3.657 3.657 0 01-1.73.07c.487 1.605 1.901 2.773 3.578 2.805a7.436 7.436 0 01-5.67 1.673A10.435 10.435 0 0012.537 24c7.044 0 10.897-6.155 10.897-11.493 0-.175-.004-.349-.012-.522a8.055 8.055 0 001.911-2.091 7.332 7.332 0 01-2.2.636 4.017 4.017 0 001.685-2.235c-.74.463-1.56.8-2.432.98A3.733 3.733 0 0019.59 8z" fill="#FEFEFE" fill-rule="nonzero"/></svg>