<svg width="24" height="24" viewBox="0 0 24 24" xmlns="http://www.w3.org/2000/svg"><path d="M22 0a2 2 0 012 2v20a2 2 0 01-2 2H2a2 2 0 01-2-2V2a2 2 0 012-2h20zm-9.064 4H11.06c-.869.003-1.303.008-1.695.02l-.179.007c-.15.005-.302.012-.479.02-.848.037-1.432.174-1.937.37a3.896 3.896 0 00-1.416.924c-.405.4-.72.883-.92 1.413-.196.508-.334 1.088-.371 1.937l-.025.57-.006.182c-.011.37-.016.802-.018 1.604v1.875a43.93 43.93 0 00.046 2.353c.037.848.175 1.431.371 1.937.203.536.518 1.016.923 1.416.4.405.883.72 1.413.92.508.196 1.088.333 1.937.37.142.007.268.013.389.017l.27.01c.361.011.759.017 1.501.02h2.261a41.316 41.316 0 002.16-.046c.848-.038 1.431-.175 1.937-.371a4.084 4.084 0 002.336-2.336c.196-.509.333-1.089.37-1.937.03-.674.042-.985.046-2.16l.001-.402v-2.037a38.564 38.564 0 00-.04-1.982c-.037-.848-.175-1.432-.371-1.937a3.896 3.896 0 00-.923-1.416 3.93 3.93 0 00-1.413-.92c-.508-.196-1.089-.334-1.937-.371a74.99 74.99 0 00-.39-.018l-.24-.01c-.401-.013-.835-.019-1.726-.021zM11.26 5.45l1.665.001c.853.002 1.275.008 1.658.02l.175.006.47.02c.78.034 1.201.165 1.482.275.346.127.661.33.917.595.265.26.468.571.596.917.109.28.24.705.274 1.482l.02.464.007.216c.013.4.018.855.02 1.801v1.71a55.185 55.185 0 01-.02 1.572l-.011.327-.016.356c-.034.78-.165 1.201-.274 1.482a2.648 2.648 0 01-1.516 1.516c-.28.109-.705.24-1.482.274l-.398.017-.276.01c-.402.013-.856.018-1.807.02h-1.487c-1.463-.003-1.752-.014-2.481-.047-.78-.034-1.201-.165-1.482-.274a2.457 2.457 0 01-.917-.596 2.482 2.482 0 01-.596-.917c-.109-.28-.24-.705-.274-1.481a41.72 41.72 0 01-.046-2.271v-2.152c.005-1.08.017-1.38.046-2.027.034-.78.165-1.201.274-1.482.128-.346.331-.66.6-.917.258-.265.57-.468.916-.595.28-.11.705-.24 1.482-.275.732-.032 1.019-.044 2.481-.046zm.737 2.433a4.102 4.102 0 000 8.203 4.102 4.102 0 000-8.203zm0 1.441a2.66 2.66 0 110 5.322 2.66 2.66 0 010-5.322zm4.264-2.56a.957.957 0 100 1.914.957.957 0 000-1.915z" fill="#FFF" fill-rule="nonzero"/></svg>