<svg xmlns:svg="http://www.w3.org/2000/svg" xmlns="http://www.w3.org/2000/svg" version="1.1" width="256" height="60" viewBox="-1.2014676 -1.2014676 179.5406952 42.4518552" id="svg14687">
    <defs id="defs14689"></defs>
    <path d="m 162.78276,7.17875 14.35499,0 0,-7.17875 -14.35499,0 0,7.17875 z" id="path14187" style="fill:#001e50;fill-opacity:1;fill-rule:nonzero;stroke:none"></path>
    <path d="m 147.4015,7.17875 14.35501,0 0,-7.17875 -14.35501,0 0,7.17875 z" id="path14189" style="fill:#276699;fill-opacity:1;fill-rule:nonzero;stroke:none"></path>
    <path d="m 132.02025,7.17875 14.355,0 0,-7.17875 -14.355,0 0,7.17875 z" id="path14191" style="fill:#77b3d7;fill-opacity:1;fill-rule:nonzero;stroke:none"></path>
    <path d="m 116.63775,7.17875 14.35625,0 0,-7.17875 -14.35625,0 0,7.17875 z" id="path14193" style="fill:#a6d4ec;fill-opacity:1;fill-rule:nonzero;stroke:none"></path>
    <path d="m 101.25525,7.17875 14.35751,0 0,-7.17875 -14.35751,0 0,7.17875 z" id="path14195" style="fill:#dff1fb;fill-opacity:1;fill-rule:nonzero;stroke:none"></path>
    <path d="m 162.78276,23.5875 14.35499,0 0,-7.17875 -14.35499,0 0,7.17875 z" id="path14197" style="fill:#002b62;fill-opacity:1;fill-rule:nonzero;stroke:none"></path>
    <path d="m 147.4015,23.58625 14.35501,0 0,-7.1775 -14.35501,0 0,7.1775 z" id="path14199" style="fill:#0069a2;fill-opacity:1;fill-rule:nonzero;stroke:none"></path>
    <path d="m 132.02025,23.58625 14.355,0 0,-7.1775 -14.355,0 0,7.1775 z" id="path14201" style="fill:#4aa5d2;fill-opacity:1;fill-rule:nonzero;stroke:none"></path>
    <path d="m 116.63775,23.58625 14.35625,0 0,-7.1775 -14.35625,0 0,7.1775 z" id="path14203" style="fill:#5bc5ed;fill-opacity:1;fill-rule:nonzero;stroke:none"></path>
    <path d="m 101.25525,23.58625 14.35751,0 0,-7.1775 -14.35751,0 0,7.1775 z" id="path14205" style="fill:#caeaf7;fill-opacity:1;fill-rule:nonzero;stroke:none"></path>
    <path d="m 162.78276,39.99125 14.35499,0 0,-7.1775 -14.35499,0 0,7.1775 z" id="path14207" style="fill:#001e50;fill-opacity:1;fill-rule:nonzero;stroke:none"></path>
    <path d="m 147.4015,39.99125 14.35501,0 0,-7.1775 -14.35501,0 0,7.1775 z" id="path14209" style="fill:#004c88;fill-opacity:1;fill-rule:nonzero;stroke:none"></path>
    <path d="m 132.02025,39.99125 14.355,0 0,-7.1775 -14.355,0 0,7.1775 z" id="path14211" style="fill:#4092c2;fill-opacity:1;fill-rule:nonzero;stroke:none"></path>
    <path d="m 116.63775,39.99125 14.35625,0 0,-7.1775 -14.35625,0 0,7.1775 z" id="path14213" style="fill:#94d5f3;fill-opacity:1;fill-rule:nonzero;stroke:none"></path>
    <path d="m 101.25401,39.99125 14.3575,0 0,-7.1775 -14.3575,0 0,7.1775 z" id="path14215" style="fill:#d5ecfa;fill-opacity:1;fill-rule:nonzero;stroke:none"></path>
    <path d="m 162.78276,15.3825 14.35499,0 0,-7.1775 -14.35499,0 0,7.1775 z" id="path14217" style="fill:#00275b;fill-opacity:1;fill-rule:nonzero;stroke:none"></path>
    <path d="m 147.4015,15.3825 14.35501,0 0,-7.1775 -14.35501,0 0,7.1775 z" id="path14219" style="fill:#0085c8;fill-opacity:1;fill-rule:nonzero;stroke:none"></path>
    <path d="m 132.02025,15.3825 14.355,0 0,-7.1775 -14.355,0 0,7.1775 z" id="path14221" style="fill:#50afdb;fill-opacity:1;fill-rule:nonzero;stroke:none"></path>
    <path d="m 116.63775,15.3825 14.35625,0 0,-7.1775 -14.35625,0 0,7.1775 z" id="path14223" style="fill:#8ac9e8;fill-opacity:1;fill-rule:nonzero;stroke:none"></path>
    <path d="m 101.25525,15.3825 14.35751,0 0,-7.1775 -14.35751,0 0,7.1775 z" id="path14225" style="fill:#d5ecfa;fill-opacity:1;fill-rule:nonzero;stroke:none"></path>
    <path d="m 162.78276,31.79 14.35499,0 0,-7.1775 -14.35499,0 0,7.1775 z" id="path14227" style="fill:#001e50;fill-opacity:1;fill-rule:nonzero;stroke:none"></path>
    <path d="m 147.4015,31.79 14.35501,0 0,-7.1775 -14.35501,0 0,7.1775 z" id="path14229" style="fill:#003872;fill-opacity:1;fill-rule:nonzero;stroke:none"></path>
    <path d="m 132.02025,31.79 14.355,0 0,-7.1775 -14.355,0 0,7.1775 z" id="path14231" style="fill:#008dcf;fill-opacity:1;fill-rule:nonzero;stroke:none"></path>
    <path d="m 116.63775,31.79 14.35625,0 0,-7.1775 -14.35625,0 0,7.1775 z" id="path14233" style="fill:#8ac9e8;fill-opacity:1;fill-rule:nonzero;stroke:none"></path>
    <path d="m 101.25525,31.79 14.35751,0 0,-7.1775 -14.35751,0 0,7.1775 z" id="path14235" style="fill:#b1dff6;fill-opacity:1;fill-rule:nonzero;stroke:none"></path>
    <path d="m 0,19.56887 5.23125,0 1.33751,-3.5775 6.77124,0 1.41626,3.5775 5.33,0 -7.73375,-18.6225 -4.54126,0 L 0,19.56887 z m 7.98001,-7.5075 2.02125,-5.46 1.97749,5.46 -3.99874,0 z m 21.195,-11.115 -7.59875,0 0,18.6225 4.805,0 0,-6.0475 2.6825,0 c 5.055,0 7.955,-2.31625 7.955,-6.35625 0,-4.06875 -2.71125,-6.21875 -7.84375,-6.21875 m -0.305,4.0675 c 2.19999,0 3.28624,0.74375 3.28624,2.17875 0,1.46875 -1.20375,2.31875 -3.37124,2.31875 l -2.40375,0 0,-4.4975 2.48875,0 z m 9.61874,5.2175 c 0,5.69375 4.20751,9.82625 10.00626,9.82625 2.94999,0 5.51749,-1.09375 7.22874,-3.08125 l 0.12626,-0.1475 -3.37126,-3.1725 -0.13624,0.18875 c -0.8025,1.12375 -2.14751,1.76875 -3.69375,1.76875 -2.92625,0 -4.97001,-2.21375 -4.97001,-5.3825 0,-3.11625 2.12251,-5.38 5.04626,-5.38 1.45625,0 2.80374,0.60875 3.51624,1.58875 l 0.13875,0.19125 3.28751,-3.28625 -0.125,-0.1425 c -1.4475,-1.66625 -4.18375,-2.745 -6.97125,-2.745 -5.9375,0 -10.0825,4.01875 -10.0825,9.77375 m 17.85375,-0.0512 c 0,5.815 4.15499,9.8775 10.10625,9.8775 5.96875,0 10.13625,-4.0625 10.13625,-9.8775 0,-5.815 -4.07251,-9.7225 -10.13625,-9.7225 -6.04501,0 -10.10625,3.9075 -10.10625,9.7225 m 5.11249,0 c 0,-3.1525 2.05376,-5.35375 4.99376,-5.35375 2.91,0 5.02375,2.25125 5.02375,5.35375 0,3.21375 -2.06625,5.4575 -5.02375,5.4575 -2.94,0 -4.99375,-2.24375 -4.99375,-5.4575 m 22.38624,-9.23375 -7.8125,18.6225 5.23251,0 1.33625,-3.5775 6.77499,0 1.41376,3.5775 5.33,0 -7.7325,-18.6225 -4.54251,0 z m 0.16876,11.115 2.0225,-5.46 1.9775,5.46 -4,0 z m -83.18813,27.585 1.61375,0 0,-7.37125 2.8225,0 c 3.2275,0 5.4025,-1.41375 5.4025,-4.26 0,-2.84625 -2.13,-4.235 -5.3575,-4.235 l -4.48125,0 0,15.86625 z m 1.61375,-14.4775 2.73375,0 c 2.4425,0 3.8775,0.8975 3.8775,2.84625 0,1.88375 -1.3675,2.89125 -3.8775,2.89125 l -2.73375,0 0,-5.7375 z m 11.975,10.31 8.2025,0 1.7475,4.1675 1.79375,0 -6.8125,-15.86625 -1.56875,0 -6.8575,15.86625 1.76875,0 1.72625,-4.1675 z m 4.10125,-9.905 3.49625,8.42625 -6.9925,0 3.49625,-8.42625 z m 12.165,6.655 2.69,0 4.39125,7.4175 1.9725,0 -4.6375,-7.55125 c 2.3075,-0.24625 4.05625,-1.72625 4.05625,-4.08 0,-3.09125 -2.28625,-4.235 -5.42375,-4.235 l -4.66125,0 0,15.86625 1.6125,0 0,-7.4175 z m 0,-7.06 2.86875,0 c 2.3975,0 3.98875,0.76375 3.98875,2.84625 0,1.88375 -1.47875,2.825 -4.055,2.825 l -2.8025,0 0,-5.67125 z m 14.45125,-1.38875 -1.6125,0 0,15.86625 1.6125,0 0,-8.4475 0.0225,0 7.93375,8.4475 2.37625,0 -8.44875,-8.67125 8,-7.195 -2.30875,0 -7.5525,7.12625 -0.0225,0 0,-7.12625 z m 15.10375,0 -1.61375,0 0,15.86625 1.61375,0 0,-15.86625 z m 6.7425,0 -2.0175,0 0,15.86625 1.61375,0 0,-13.6475 0.045,0 9.2325,13.6475 2.0175,0 0,-15.86625 -1.61375,0 0,13.51375 -0.045,0 -9.2325,-13.51375 z m 28.58125,1.72625 c -1.34375,-1.32375 -3.2275,-2.13 -5.7375,-2.13 -4.7275,0 -8.26875,3.51875 -8.26875,8.33625 0,4.81875 3.4725,8.33625 8.26875,8.33625 2.15125,0 4.19125,-0.51375 5.91625,-1.545 l 0,-7.15 -5.31,0 0,1.41375 3.69625,0 0,4.8175 c -0.91875,0.60375 -2.48625,1.03 -4.27875,1.03 -4.07875,0 -6.58875,-3.20375 -6.58875,-6.9025 0,-3.6975 2.51,-6.92375 6.58875,-6.92375 1.97125,0 3.495,0.6725 4.59375,1.8375 l 1.12,-1.12 z" id="path14251" style="fill:#00315a;fill-opacity:1;fill-rule:nonzero;stroke:none"></path>
</svg>