<svg xmlns="http://www.w3.org/2000/svg" viewBox="0 0 16 16"><path fill="#f87a63" d="M8.2,6.6c0,0-.2,0-.3,0l-2.2-1.6,2.2-1.6c0,0,.2,0,.3,0l2.2,1.6-2.2,1.6ZM5.7,1.9c0,0-.2.2-.2.3v2.4l2.1-1.5c0,0,.2-.2.2-.3V.4l-2.1,1.5ZM10.5,4.6v-2.4c0-.1,0-.2-.2-.3l-2.1-1.5v2.4c0,.1,0,.2.2.3l2.1,1.5Z"/><path fill="#b86bb2" d="M5.2,5.4l-2.2,1.6c0,0-.1.2,0,.3l.8,2.6,2.2-1.6c0,0,.1-.2,0-.3l-.8-2.6ZM4.8,5.1l-2.2-.7c0,0-.2,0-.3,0L.1,5.9l2.2.7c0,0,.2,0,.3,0l2.1-1.5ZM.8,8.9c0,0,.1.2.2.2l2.2.7-.8-2.5c0,0-.1-.2-.2-.2l-2.2-.7.8,2.5Z"/><path fill="#957dff" d="M4,10.3l.8,2.6c0,0,.1.2.2.2h2.7l-.8-2.6c0,0-.1-.2-.2-.2h-2.7ZM5.9,15.6c.1,0,.2,0,.3-.2l1.4-1.9h-2.6c-.1,0-.2,0-.3.2l-1.4,1.9h2.6ZM3.5,10.6l-1.4,1.9c0,0,0,.2,0,.3l.8,2.5,1.4-1.9c0,0,0-.2,0-.3l-.8-2.5Z"/><path fill="#40a6d9" d="M8.3,13.1h2.7c.1,0,.2,0,.2-.2l.8-2.6h-2.7c-.1,0-.2,0-.2.2l-.8,2.6ZM13.9,12.8c0,0,0-.2,0-.3l-1.4-1.9-.8,2.5c0,0,0,.2,0,.3l1.4,1.9.8-2.5ZM8.4,13.5l1.4,1.9c0,0,.2.2.3.2h2.6l-1.4-1.9c0,0-.2-.2-.3-.2h-2.6Z"/><path fill="#03cf9e" d="M12.2,9.8l.8-2.6c0,0,0-.2,0-.3l-2.2-1.6-.8,2.6c0,0,0,.2,0,.3l2.2,1.6ZM13.7,4.4c0,0-.2,0-.3,0l-2.2.7,2.1,1.5c0,0,.2,0,.3,0l2.2-.7-2.1-1.5ZM12.7,9.8l2.2-.7c0,0,.2-.1.2-.2l.7-2.3v-.2c0,0-2.2.7-2.2.7,0,0-.2.1-.2.2l-.8,2.5Z"/></svg>
