<svg xmlns="http://www.w3.org/2000/svg" height="950" viewBox="0 0 1183 950" fill="none">
<path fill-rule="evenodd" clip-rule="evenodd" d="M1210.81-553.06c29.52-2.655 69.35 12.804 89.08 34.962l-.46.296 500.12 562.217-678.72 67.077c-29.52 2.655-69.35-12.804-89.08-34.962L531.634-485.688l679.176-67.372ZM927.914 243.201 534.801 914.335l.083-.378-517.02-580.983C-1.57 311.277-5.725 272.309 9.4 246.68l393.113-671.134 516.938 581.361c19.349 22.076 23.588 60.665 8.462 86.294ZM673.886 949.202l.453-.044-.074.127-.379-.083Zm.453-.044L1054.3 299.867c15.12-25.629 51.09-48.677 80.7-51.71l678.71-67.077-27.2 46.376-352.83 603.043c-15.13 25.629-51.09 48.677-80.7 51.71l-678.641 66.949Z" fill="url('#lcdcb')"></path>
<defs><linearGradient id="lcdcb" x1="1095.64" y1="1116.73" x2="906.988" y2="-590.989" gradientUnits="userSpaceOnUse">
<stop stop-color="#F2BBBD" stop-opacity=".06"></stop>
<stop offset="1" stop-color="#CFC0FA"></stop>
</linearGradient>
</defs>
</svg>
