<svg xmlns="http://www.w3.org/2000/svg" width="213" height="110" viewBox="0 0 213 110"><path fill="#FFF" d="M6.412 63.856h2.086c3.475 0 4.465-1.786 4.433-3.669 0-2.151-1.291-3.41-4.433-3.41H6.412v7.079zm2.452-9.865c4.572 0 7.412 2.42 7.412 6.325a5.637 5.637 0 01-3.743 5.53c2.044 1.355 3.302 3.442 5.023 6.25.958 1.56 1.528 2.324 3.077 4.464H16.76l-2.98-4.625c-2.98-4.637-4.303-5.164-5.992-5.164H6.412v9.79H3.184V53.968l5.68.022zm25.818 19.89a8.606 8.606 0 100-17.211 8.606 8.606 0 000 17.212m0-20.182c7.445 0 12.135 5.293 12.135 11.576 0 6.1-4.561 11.586-12.21 11.586-7.38 0-12.038-5.465-12.038-11.586S27.367 53.7 34.682 53.7m29.551.302h3.905l-8.272 10.65V76.56h-3.227V64.62l-8.445-10.618h3.905l6.056 7.777 6.078-7.777zM74.41 66.997h7.014l-3.647-8.165-3.367 8.165zm14.652 9.563h-3.26l-3.012-6.648h-9.595l-2.851 6.648H67.03l9.682-22.698h2.302L89.062 76.56zm8.176-2.904h10.198v2.904H94.043V53.97h3.227l-.032 19.686zm-74.335 30.777a19.805 19.805 0 01-8.606 1.85c-6.917 0-12.016-4.83-12.016-11.456 0-6.627 5.228-11.705 12.113-11.705 2.646 0 4.496.43 8.036 1.915v3.228a16.717 16.717 0 00-8.1-2.227 8.53 8.53 0 00-8.704 8.412v.248c0 5.034 3.765 8.606 9.133 8.606a16.136 16.136 0 004.895-.893v-4.637h-4.303V94.87h7.584l-.032 9.563zm10.489-11.155h2.086c3.475 0 4.465-1.786 4.433-3.68 0-2.151-1.291-3.399-4.433-3.399h-2.086v7.079zm2.452-9.865c4.561 0 7.412 2.42 7.412 6.325a5.68 5.68 0 01-3.776 5.53c2.098 1.334 3.314 3.485 5.035 6.25.957 1.56 1.517 2.324 3.077 4.464H43.73l-2.98-4.625c-2.98-4.637-4.303-5.164-5.992-5.164h-1.366v9.79h-3.228V83.39l5.68.022zm29.519 2.915H55.8v6.82h9.23v2.905H55.8v7.003h9.864v2.905H52.551V83.37h12.812v2.958zm19.03 0H74.83v6.82h9.23v2.905h-9.23v7.003h9.864v2.905H71.581V83.37h12.812v2.958zm27.11 19.654h-2.787L93.656 88.61v17.373H90.59v-22.59h2.624l15.244 17.513V83.413h3.044v22.57zm30.25.205h-.635l-7.412-18.471-7.53 18.47h-.624l-9.144-22.773h3.227l6.218 15.555 6.26-15.555h3.077l6.294 15.555 6.153-15.555h3.227l-9.111 22.774zm14.2-22.763h3.227v22.59h-3.227v-22.59zm29.949 5.023a14.792 14.792 0 00-7.778-2.355c-5.164 0-9.004 3.679-9.004 8.606s3.711 8.606 9.133 8.606a14.856 14.856 0 007.885-2.55v3.54a16.545 16.545 0 01-8.175 1.99c-8.477 0-12.178-6.52-12.178-11.253 0-6.885 5.185-11.909 12.382-11.909 2.677.083 5.31.713 7.735 1.85v3.475zm25.818 17.535h-3.227v-9.821h-12.651v9.821h-3.228v-22.59h3.228v9.832h12.63v-9.811h3.226l.022 22.57zm-76.067-37.576a3.281 3.281 0 00-.484-1.926 1.528 1.528 0 00-1.302-.645c-.507 0-1 .162-1.409.463a3.55 3.55 0 00-1.14 1.495 7.09 7.09 0 00-.527 1.743 9.682 9.682 0 00-.173 1.764c-.044.678.11 1.354.442 1.947.294.444.802.698 1.333.667a2.152 2.152 0 001.42-.506c.43-.345.775-.782 1.012-1.28.273-.547.469-1.13.58-1.732.148-.656.22-1.328.216-2m1.829.344a6.637 6.637 0 01-.355 2.151 5.207 5.207 0 01-1.076 1.861 5.024 5.024 0 01-1.668 1.334 4.82 4.82 0 01-2.259.495 3.227 3.227 0 01-2.42-.957 3.54 3.54 0 01-.925-2.593 6.1 6.1 0 01.398-2.238 5.97 5.97 0 011.075-1.818 5.293 5.293 0 011.722-1.28 4.809 4.809 0 012.151-.484 3.227 3.227 0 012.507.979c.614.708.934 1.624.893 2.56m9.176-2.076c0 .188-.022.376-.065.56-.04.174-.11.342-.204.494a1.323 1.323 0 01-.355.377 1.076 1.076 0 01-.56.129.968.968 0 01-.72-.247.785.785 0 01-.248-.538c.01-.214.053-.424.13-.624l.29-.689h-.366a3.991 3.991 0 00-.592.237 3.808 3.808 0 00-.785.516c-.346.268-.663.57-.947.904l-1.452 6.454h-1.678l1.312-5.83a2.55 2.55 0 01.13-.646c.044-.212.073-.428.086-.645a.688.688 0 00-.485-.84.645.645 0 00-.376 0c-.17 0-.34.022-.506.065l-.473.119.14-.581c.402-.181.815-.336 1.237-.463a3.41 3.41 0 01.936-.161c.384-.032.76.115 1.022.398.236.343.346.757.312 1.172a18.557 18.557 0 011.613-1.301 2 2 0 011.152-.366c.189-.002.377.023.559.075a.957.957 0 01.462.237c.126.126.225.276.29.441.067.23.096.47.087.71m7.423 1.775a3.41 3.41 0 00-.441-1.915 1.517 1.517 0 00-1.313-.645c-.507 0-1 .162-1.409.462a3.54 3.54 0 00-1.076 1.496c-.26.553-.44 1.14-.538 1.742a9.682 9.682 0 00-.172 1.765c-.046.68.112 1.357.452 1.947.294.444.802.698 1.334.667a2.205 2.205 0 001.42-.506c.42-.35.762-.787 1-1.28.272-.549.471-1.131.592-1.732a9.684 9.684 0 00.205-2m1.84.343a6.638 6.638 0 01-.356 2.152 5.766 5.766 0 01-1.076 1.86 5.282 5.282 0 01-1.667 1.335 4.82 4.82 0 01-2.26.495 3.227 3.227 0 01-2.42-.958 3.54 3.54 0 01-.925-2.592 6.358 6.358 0 01.387-2.238 6.594 6.594 0 011.076-1.818 5.131 5.131 0 011.657-1.259 4.96 4.96 0 012.151-.484 3.227 3.227 0 012.507.98c.623.702.948 1.621.904 2.56m6.927 4.238h-.053c-.27.226-.538.43-.786.613a4.486 4.486 0 01-1.527.786 3.227 3.227 0 01-.915.096 1.721 1.721 0 01-1.334-.505 1.775 1.775 0 01-.484-1.302 4.13 4.13 0 010-.516c.041-.297.099-.592.172-.882l.689-2.851c.064-.258.118-.495.15-.7.043-.19.065-.385.065-.58a.678.678 0 00-.85-.84 1.904 1.904 0 00-.495.076l-.484.118.14-.58c.402-.185.815-.343 1.237-.474a3.4 3.4 0 01.86-.172c.391-.034.779.09 1.077.344.237.26.357.606.333.958a2.7 2.7 0 01-.108 1l-.796 3.324a3.496 3.496 0 01-.15.7 4.034 4.034 0 00-.054.505c-.018.338.072.674.258.957.208.238.514.365.829.345.409-.008.81-.112 1.172-.302a4.809 4.809 0 001.216-.914l1.57-6.766 1.571-.108.108.129-1.334 5.788c-.065.247-.108.494-.162.742-.035.174-.06.35-.075.527a.871.871 0 00.226.7c.217.14.474.204.731.182h.484c.165-.024.327-.064.485-.118l-.14.58c-.41.173-.829.323-1.248.453-.295.098-.604.15-.915.15a1.312 1.312 0 01-1.075-.42 1.398 1.398 0 01-.366-.99m11.833-5.754a1.71 1.71 0 00-.075-.517 1.237 1.237 0 00-.29-.484 1.323 1.323 0 00-.495-.344 1.947 1.947 0 00-.786-.13 2.26 2.26 0 00-1.301.42c-.43.31-.796.701-1.076 1.151a5.884 5.884 0 00-.742 1.657 6.67 6.67 0 00-.29 1.947c0 .328.03.656.085.98.042.27.13.532.258.774.117.216.292.395.506.516.247.135.526.198.807.183.44-.008.87-.13 1.248-.355a6.143 6.143 0 001.172-.936l.98-4.862zm-1.205 5.755h-.053l-.517.409c-.218.17-.448.324-.688.462-.26.162-.538.292-.829.388-.3.107-.617.161-.935.16a2.356 2.356 0 01-2.012-.924 4.077 4.077 0 01-.7-2.54c.002-.735.14-1.465.41-2.15a6.38 6.38 0 011.075-1.872 5.239 5.239 0 011.635-1.27 4.378 4.378 0 013.228-.312c.324.086.636.217.925.388l1.646-.42.107.13-1.506 7.088a12.188 12.188 0 01-.882 2.722 5.379 5.379 0 01-1.237 1.753c-.45.43-.99.753-1.581.947-.64.2-1.31.295-1.98.28-.412.009-.824-.03-1.226-.119a2.313 2.313 0 01-.732-.311.925.925 0 01-.365-.42 1.151 1.151 0 01-.097-.463.979.979 0 01.247-.677.828.828 0 01.656-.27.85.85 0 01.57.194c.142.12.269.258.377.41.11.18.211.367.301.559.097.215.162.376.215.484h.27c.368-.011.733-.088 1.075-.226.41-.153.779-.4 1.076-.721.365-.42.666-.89.893-1.399.31-.718.528-1.474.645-2.248m13.985.13l-.14.58c-.538.215-.957.366-1.258.473a2.83 2.83 0 01-.904.14 1.452 1.452 0 01-1.076-.365 1.28 1.28 0 01-.355-.926 2.872 2.872 0 010-.43c.028-.192.068-.383.118-.57l.883-3.346c.064-.258.118-.494.161-.71.01-.164.01-.33 0-.494a1.463 1.463 0 00-.29-.958.957.957 0 00-.84-.344 2.474 2.474 0 00-1.226.366 4.69 4.69 0 00-1.27 1.075l-1.527 6.606h-1.667l2.69-11.586c.01-.121.035-.24.074-.355.011-.104.011-.209 0-.312a.882.882 0 00-.107-.495.688.688 0 00-.312-.27 1.442 1.442 0 00-.474-.107l-.602-.064.13-.538 3.356-.205.096.14-1.441 6.218c.513-.41 1.064-.77 1.646-1.076a3.378 3.378 0 011.646-.387c.497-.031.986.148 1.344.495.332.354.507.828.484 1.312v.57c-.032.28-.086.557-.16.829l-.754 2.883a3.959 3.959 0 01-.15.656 3.604 3.604 0 00-.087.581.871.871 0 00.226.7c.222.139.482.203.743.182.16.01.322.01.484 0 .167-.031.333-.075.494-.129m12.458-4.97a3.324 3.324 0 00-.452-1.915 1.485 1.485 0 00-1.302-.645c-.507 0-1 .162-1.409.462a3.528 3.528 0 00-1.13 1.496c-.26.553-.44 1.14-.537 1.742a9.682 9.682 0 00-.173 1.765c-.044.678.11 1.354.442 1.947.299.444.81.697 1.344.667a2.152 2.152 0 001.41-.506c.429-.345.774-.783 1.01-1.28.273-.549.472-1.131.592-1.732a9.682 9.682 0 00.205-2m1.84.343a6.648 6.648 0 01-.366 2.152 5.658 5.658 0 01-1.076 1.86 5.379 5.379 0 01-1.635 1.303 4.884 4.884 0 01-2.27.494 3.227 3.227 0 01-2.41-.957 3.604 3.604 0 01-.936-2.593 6.1 6.1 0 01.398-2.237 5.97 5.97 0 011.076-1.818 5.379 5.379 0 011.678-1.259 4.809 4.809 0 012.152-.484 3.227 3.227 0 012.506.979c.624.703.948 1.622.904 2.56m5.034-2.42l-1.581 7.423a6.067 6.067 0 01-1.786 3.227 4.11 4.11 0 01-2.797 1.27 1.85 1.85 0 01-1.162-.302.968.968 0 01-.376-.764 1.076 1.076 0 01.237-.677.796.796 0 01.677-.302c.17 0 .337.044.484.13.148.073.277.18.377.311.106.13.203.266.29.41l.27.451a1.55 1.55 0 001.183-.936 9.52 9.52 0 00.85-2.517l1.656-7.724h-1.753l.183-.828h1.732l.129-.603a6.605 6.605 0 01.688-1.882 6.024 6.024 0 011.076-1.42c.38-.382.83-.688 1.323-.904a3.572 3.572 0 011.42-.334c.415-.034.83.076 1.173.312a.904.904 0 01.365.753c0 .246-.075.486-.215.689a.818.818 0 01-.688.29.85.85 0 01-.484-.118 1.076 1.076 0 01-.377-.323 2.905 2.905 0 01-.29-.42c-.076-.128-.162-.279-.27-.44a1.452 1.452 0 00-1.075.817c-.42.83-.71 1.719-.86 2.636l-.205.947h2.27l-.194.828h-2.27zM0 21.557s2.474 17.89 43.224 18.955C82.457 41.534 127.38 3.699 168.388 3.01c45.838-.753 43.31 38.146 43.31 38.146S209.633 4.861 170.26 6.335C133.243 7.733 92.192 38.694 57.628 42.814 4.905 48.946 0 21.557 0 21.557M187.074 37.52a4.486 4.486 0 00-1.43-.72c1.215-1.076 3.614-3.863 1.893-8.886-1.883-5.465-5.056-6.283-6.788-6.283h-.15c.288-.363.494-.785.602-1.237.099-.721.04-1.455-.173-2.151a.366.366 0 00-.333-.248 4.185 4.185 0 00-2.044.387c-.42.314-.783.696-1.076 1.13a5.045 5.045 0 00-1.258-2.517c-1.334-1.496-3.561-2.249-6.627-2.249-2.948 0-5.164.753-6.584 2.216a5.379 5.379 0 00-1.409 2.571 3.141 3.141 0 00-.979-.903 5.002 5.002 0 00-2.087-.463.377.377 0 00-.333.237 4.066 4.066 0 00-.226 2.087c.14.436.35.847.624 1.215a5.217 5.217 0 00-2.7.517c-1.732.839-3.056 2.582-3.96 5.196-1.075 3.044-1.075 5.54-.107 7.4a5.196 5.196 0 001.872 1.991 3.55 3.55 0 00-1.151.592 5.002 5.002 0 00-1.173 1.796.355.355 0 00.108.398 4.303 4.303 0 001.926.925c.49.015.98-.046 1.452-.182-.538 1.538-1.151 5.142 3.378 8.143 3.033 2.001 5.615 2.722 7.66 2.152a4.303 4.303 0 001.882-1.076c.012.411.104.817.269 1.194a4.809 4.809 0 001.441 1.603.389.389 0 00.215.064h.194a4.464 4.464 0 001.41-1.527c.147-.408.227-.836.236-1.27a4.733 4.733 0 002.248 1.173c1.926.43 4.153-.237 6.627-1.98 2.474-1.742 3.99-3.71 4.303-5.744.15-.9.065-1.822-.248-2.679.458.148.94.207 1.42.172a4.733 4.733 0 001.97-.85.377.377 0 00.139-.387 4.41 4.41 0 00-1.033-1.807zm-1.172 2.313a4.217 4.217 0 01-1.915-.452.355.355 0 00-.43.097.344.344 0 000 .441c.546.915.744 1.995.559 3.044-.312 1.83-1.668 3.604-4.023 5.26-2.356 1.658-4.303 2.238-6.035 1.873a4.163 4.163 0 01-2.54-1.743.366.366 0 00-.43-.161.344.344 0 00-.247.376 5.379 5.379 0 01-.15 1.98 3.109 3.109 0 01-.936 1.075c-.4-.32-.729-.72-.969-1.172a3.862 3.862 0 01-.14-1.947.366.366 0 00-.215-.388h-.15a.323.323 0 00-.28.14l-.054.075a3.54 3.54 0 01-2.151 1.636c-1.818.505-4.303-.216-7.068-2.066-5.303-3.507-2.926-7.724-2.818-7.907a.377.377 0 000-.42.355.355 0 00-.398-.107 5.798 5.798 0 01-1.915.355 3.023 3.023 0 01-1.313-.591 3.97 3.97 0 01.872-1.238 3.927 3.927 0 011.84-.667.366.366 0 000-.71 4.303 4.303 0 01-2.454-2.151c-.882-1.667-.839-3.959.151-6.799 2.248-6.519 6.53-5.142 6.713-5.077a.366.366 0 00.505-.216.355.355 0 00-.064-.355 5.841 5.841 0 01-1.076-1.7 3.034 3.034 0 01.13-1.387 3.68 3.68 0 011.473.366 3.55 3.55 0 011.216 1.484c.064.162.24.25.408.205.17-.04.29-.192.29-.366.043-1.18.527-2.301 1.356-3.141 1.27-1.313 3.314-1.98 6.046-1.98 2.84 0 4.884.667 6.078 2.001a4.39 4.39 0 011.076 3.13c-.023.17.083.33.247.377.158.065.339 0 .42-.15.4-.668.901-1.27 1.484-1.786a3.367 3.367 0 011.377-.29c.13.494.16 1.01.086 1.516a3.593 3.593 0 01-1.075 1.592.387.387 0 00-.108.484c.084.147.26.215.42.162.193-.054 4.647-1.366 7.067 5.68 2.044 5.927-2 8.39-2.151 8.488a.366.366 0 00-.183.365c.02.15.132.27.28.301.655.138 1.279.397 1.84.764.321.345.563.756.71 1.205-.417.25-.877.418-1.356.495zm-2.152-2.786a4.303 4.303 0 00-1.807-.549s3.647-2.151 1.893-7.207c-2.087-6.057-6.25-4.938-6.25-4.938.438-.393.764-.894.947-1.452.076-.53.032-1.071-.13-1.582a3.346 3.346 0 00-1.484.28c-.538.312-1.076 1.71-1.076 1.71s.517-4.486-6.12-4.464c-6.455 0-6.272 4.443-6.272 4.443-.233-.536-.605-1-1.076-1.345a3.819 3.819 0 00-1.55-.333c-.17.479-.228.99-.171 1.495.213.548.527 1.052.925 1.484 0 0-3.851-1.344-5.799 4.304-2.323 6.39 1.98 7.659 1.98 7.659a3.873 3.873 0 00-1.614.667 4.82 4.82 0 00-.946 1.14c.445.343.953.595 1.495.742a4.561 4.561 0 001.613-.247s-2.216 3.658 2.367 6.68c6.078 4.024 7.885.237 7.885.237-.1.587-.051 1.19.14 1.754.27.466.637.87 1.076 1.183.436-.272.804-.64 1.076-1.076.153-.567.2-1.158.14-1.743 0 0 2.151 3.69 7.358 0s2.98-7.38 2.98-7.38c.529.271 1.116.408 1.71.399.498-.08.982-.224 1.442-.43a3.593 3.593 0 00-.753-1.431h.021zm-18.073-15.222c.84-.28 3.314.097 4.067.064.753-.032 3.528-.473 4.174.097.86.798 1.13 2.048.677 3.13a10.252 10.252 0 01-1.613 2.905 9.563 9.563 0 00-3.227-.807 9.252 9.252 0 00-3.368.969 9.682 9.682 0 01-1.84-3.658c-.171-1.463.291-2.42 1.109-2.7h.021zm-6.454 13.985c-1.474-.377-2.152-1.076-2.152-2.001 0-.925 1.227-3.077 1.453-3.787.226-.71.763-3.485 1.527-3.894a2.775 2.775 0 013.163.43 10.424 10.424 0 012.151 2.507 9.757 9.757 0 00-1.871 2.786 9.338 9.338 0 00-.248 3.496c-1.3.44-2.68.594-4.045.452l.022.01zm9.133 8.326c-.785 1.29-1.721 1.786-2.55 1.506-.828-.28-2.592-2.065-3.227-2.496-.634-.43-3.109-1.753-3.28-2.592a2.808 2.808 0 011.344-2.905 10.564 10.564 0 013.023-1.29 9.617 9.617 0 002.151 2.592 8.983 8.983 0 003.228 1.258 9.499 9.499 0 01-.732 3.97l.043-.043zm1.721-6.648c.033.17.033.346 0 .516a.925.925 0 01-.312.334 1.076 1.076 0 01-.322-.355 1.076 1.076 0 010-.527s-.538 1.14-2.378-.065a1.506 1.506 0 01-.742-2.012 1.42 1.42 0 01-.516.097.936.936 0 01-.399-.204.979.979 0 01.259-.398.925.925 0 01.495-.183s-1.291-.344-.624-2.302c.591-1.7 1.753-1.291 1.753-1.291a1.388 1.388 0 01-.28-.452.925.925 0 01.054-.452c.164.004.325.04.473.108a1 1 0 01.334.398s0-1.334 1.893-1.334c1.894 0 1.85 1.345 1.85 1.345.106-.173.236-.33.388-.463.143-.06.297-.09.452-.086.032.156.032.317 0 .473a.936.936 0 01-.29.441s1.204-.387 1.839 1.442a1.753 1.753 0 01-.57 2.151c.173.037.337.106.484.205.105.113.183.25.226.398a.828.828 0 01-.958.064s.732 1.076-.871 2.152-2.28 0-2.28 0h.042zm10.123 3.42c-.516.71-2.743 1.862-3.335 2.314-.591.451-2.592 2.452-3.453 2.366a2.754 2.754 0 01-2.367-2.151 10.628 10.628 0 01-.398-3.292 9.607 9.607 0 003.12-1.259 9.402 9.402 0 002.152-2.754 9.682 9.682 0 013.582 1.883c.99 1.13 1.183 2.151.678 2.883l.021.01zm-.785-5.077c-1.11-.088-2.2-.353-3.227-.785a9.682 9.682 0 00-.086-3.346 9.133 9.133 0 00-1.819-3.001 9.488 9.488 0 013.002-2.7c1.42-.538 2.463-.355 2.947.365.485.721.786 3.228 1 3.938.216.71 1.4 3.28 1.023 4.055a2.797 2.797 0 01-2.862 1.463l.022.011zm-54.412 33.155a5.658 5.658 0 00-.086-.957 2.205 2.205 0 00-.29-.807 1.57 1.57 0 00-.56-.538 1.732 1.732 0 00-.893-.205 1.657 1.657 0 00-.602.108 5.68 5.68 0 00-.57.29c-.181.117-.354.247-.517.388-.161.161-.312.29-.452.409l-1.194 5.378c.022.144.077.28.162.398.088.151.205.283.344.388.356.286.802.435 1.259.42a2.356 2.356 0 001.334-.42c.43-.28.796-.646 1.075-1.076a5.83 5.83 0 00.743-1.721c.163-.64.246-1.298.247-1.958m1.84 0a5.981 5.981 0 01-.43 2.291 6.54 6.54 0 01-1.141 1.894c-.467.519-1.025.949-1.646 1.269a4.217 4.217 0 01-1.947.462 6.358 6.358 0 01-1.356-.129 4.185 4.185 0 01-1.01-.355 3.066 3.066 0 01-.7-.527 4.195 4.195 0 01-.495-.656l2.324-10.187a.549.549 0 01.075-.355c.01-.104.01-.209 0-.312a1.076 1.076 0 00-.107-.495.764.764 0 00-.312-.27 1.775 1.775 0 00-.474-.107l-.591-.064.129-.538 3.335-.194.086.13-1.399 5.98c.422-.397.9-.73 1.42-.99a2.754 2.754 0 011.205-.279 2.668 2.668 0 012.151.925c.547.718.82 1.606.775 2.507"/></svg>