<?xml version="1.0" encoding="UTF-8"?>
<svg width="115px" height="60px" viewBox="0 0 115 60" version="1.1" xmlns="http://www.w3.org/2000/svg" xmlns:xlink="http://www.w3.org/1999/xlink">
    <title>greenwich-original</title>
    <g id="greenwich-original" stroke="none" stroke-width="1" fill="none" fill-rule="evenodd">
        <g id="London_Borough_of_Greenwich" fill="#C1002B" fill-rule="nonzero">
            <path d="M92.0879205,6.91641182 C93.7021407,6.91641182 94.9013761,7.32201835 95.625841,8.13088685 C96.0223265,8.57536868 96.2734724,9.1304255 96.3456167,9.72166157 C96.5320082,9.45672783 96.7746687,9.1519368 96.9868502,9.01829766 C97.398318,8.7627421 98.0512742,8.79673802 98.0794088,8.79908257 C98.1488597,8.80266876 98.2085104,8.84963784 98.2282875,8.91630989 C98.2364934,8.94327217 98.4240571,9.56340469 98.3244139,10.1120285 C98.2582736,10.3896157 98.131352,10.6490644 97.9528033,10.8716616 C98.4535137,10.840834 98.9533604,10.9444459 99.4005607,11.1717635 C100.423955,11.6840469 101.217584,12.787156 101.759174,14.4541284 C102.718094,17.400051 101.312538,19.0119266 100.688889,19.5535168 C100.953823,19.6414373 101.319572,19.7879715 101.525892,19.979052 C101.877574,20.3108053 102.054587,20.9696228 102.061621,20.9977574 C102.078644,21.0617637 102.055527,21.1297293 102.003007,21.1700815 C101.983078,21.1864934 101.481346,21.5745158 100.947961,21.6471967 C100.665616,21.6714095 100.381454,21.6313303 100.11682,21.5299694 C100.428644,22.3634557 100.729918,24.3246687 97.951631,26.3925586 C96.6304791,27.3760958 95.4382773,27.7594292 94.411366,27.5308359 C93.9072769,27.4178218 93.4489294,27.1555588 93.0960754,26.7782365 C93.1011754,27.0455238 93.0615535,27.3117831 92.9788481,27.5660041 C92.7912844,28.0255352 92.2520387,28.406524 92.2297655,28.4229358 C92.2002152,28.440979 92.1658594,28.449568 92.1312946,28.4475535 C92.0952626,28.4473853 92.0602725,28.4354475 92.0316514,28.4135576 C91.7172265,28.1711301 91.4599035,27.8625826 91.2778797,27.509735 C91.1839635,27.2728403 91.1362151,27.0201715 91.1372069,26.7653415 C90.8402784,27.0820877 90.4612312,27.3101654 90.0423038,27.424159 C88.940367,27.7266055 87.5617737,27.3069317 85.9393476,26.1768603 C83.4318552,24.4184506 83.8562181,22.3083588 84.1492864,21.4877676 C83.8771487,21.5713775 83.5933963,21.6109524 83.3087666,21.6049949 C82.8281346,21.5651376 82.3017839,21.1044343 82.2795107,21.0845056 C82.2291556,21.0401379 82.2106263,20.9697269 82.2326198,20.9063201 C82.2408257,20.8805301 82.4541794,20.2686035 82.8562691,19.8981651 C83.0616478,19.7275349 83.3016329,19.6035427 83.559633,19.5347604 C83.1153518,19.2654466 82.7529956,18.8799872 82.5116208,18.4199286 C81.9477574,17.3648828 81.9559633,15.924159 82.5362385,14.1493374 C83.0309378,12.6335882 83.7659531,11.6301223 84.7213558,11.1682467 C85.1784968,10.945414 85.6893384,10.8564129 86.1949032,10.9115189 C86.026023,10.6791764 85.895786,10.4210776 85.8092253,10.1471967 C85.691998,9.66304791 85.9264526,9.01243629 85.9264526,8.98547401 C85.9501884,8.92088615 86.0112181,8.87755971 86.0800204,8.8764526 C86.1069827,8.8764526 86.7271152,8.86941896 87.2007136,9.1343527 C87.425417,9.27794085 87.6149269,9.47025541 87.7551988,9.69704383 C87.8773112,9.09887599 88.1686409,8.54836051 88.5945464,8.11095821 C89.3623853,7.32670744 90.5370031,6.92110092 92.0879205,6.91641182 Z M92.1101937,7.25754332 L92.0890928,7.25754332 C90.6307849,7.25754332 89.5358818,7.62915392 88.8360347,8.35010194 C88.3459558,8.85987084 88.0619855,9.5330474 88.0388889,10.2398063 C88.0405318,10.3192 87.9858658,10.3886993 87.9083194,10.4058051 C87.830773,10.4229109 87.7519415,10.3828596 87.7200306,10.3101427 C87.7200306,10.3101427 87.4328236,9.65601427 87.0471458,9.43679918 C86.7863727,9.3085802 86.50167,9.23630644 86.211315,9.22461774 C86.1562181,9.41335372 86.0647808,9.79785933 86.1362895,10.0792049 C86.2171764,10.4074414 86.5852701,10.8997961 86.7224261,11.070948 C86.7673637,11.1306469 86.7673637,11.2128801 86.7224261,11.272579 C86.6791987,11.3336618 86.6001261,11.3577693 86.5301733,11.3311927 C85.9737724,11.1724313 85.378172,11.2267668 84.859684,11.4835882 C83.9968909,11.8985729 83.319317,12.8363914 82.8562691,14.2571865 C82.306473,15.9382263 82.2900612,17.2851682 82.8058614,18.2604995 C83.0842699,18.8026319 83.5556041,19.2208521 84.1270133,19.4327727 C84.2025004,19.4552634 84.2518916,19.5275834 84.2453739,19.6060797 C84.2388562,19.6845759 84.1782137,19.7477596 84.100051,19.7574924 C84.0930173,19.7574924 83.417788,19.8372069 83.0860347,20.141998 C82.8723898,20.3619098 82.7046253,20.6221242 82.5925076,20.9074924 C82.7671764,21.0423038 83.0860347,21.2521407 83.3404179,21.2732416 C83.7237513,21.3060652 84.3837411,21.0692661 84.3954638,21.0657492 C84.461097,21.0426652 84.53417,21.0622134 84.5795107,21.1149847 C84.6241165,21.1680909 84.6311225,21.2432884 84.5970948,21.3037207 L84.59137,21.3143658 L84.59137,21.3143658 L84.569751,21.3567394 C84.3809812,21.7396725 83.4231431,24.0004552 86.1398063,25.8978593 C87.6731397,26.969317 88.953262,27.372579 89.9602446,27.0970948 C90.4851747,26.9582446 90.9291117,26.6081031 91.1864424,26.1299694 C91.1944967,26.1127919 91.2051749,26.0969724 91.2180938,26.0830785 C91.2497657,26.0530797 91.2916974,26.036307 91.3353211,26.0361876 C91.3604381,26.0364395 91.3852139,26.042034 91.408002,26.0525994 C91.4728511,26.0846212 91.5100958,26.1543961 91.5006116,26.2260958 C91.5006116,26.2331295 91.3904179,26.9482161 91.5814985,27.372579 C91.7174631,27.6393884 91.90562,27.876179 92.1348114,28.0689093 C92.2848624,27.951682 92.5615189,27.6984709 92.669368,27.4335372 C92.793629,27.1310907 92.7713558,26.4957187 92.7525994,26.2753313 C92.7468079,26.1972734 92.7961804,26.1257248 92.8712136,26.1034405 C92.9462468,26.0811562 93.0266696,26.1141566 93.0644241,26.1827217 C93.3857623,26.698561 93.899013,27.0654699 94.4910805,27.2025994 C95.4195209,27.4065749 96.5179409,27.041998 97.7558614,26.1205912 C101.143731,23.5990316 99.7053517,21.3869521 99.6432212,21.2931702 C99.6065929,21.2302327 99.6151248,21.1507925 99.6642824,21.0970683 C99.7134401,21.0433441 99.7918119,21.0278075 99.8577472,21.0587156 C99.8647808,21.0587156 100.473191,21.382263 100.905759,21.3236493 C101.194134,21.2652493 101.467201,21.1474794 101.707594,20.9778287 C101.648981,20.7937819 101.50948,20.4233435 101.298471,20.2264016 C101.064016,20.0107034 100.493119,19.8360347 100.290316,19.7867992 C100.224981,19.7712413 100.175556,19.7176971 100.165266,19.6513285 C100.154977,19.58496 100.185868,19.5189635 100.243425,19.4843527 C100.338379,19.425739 102.563354,18.0014271 101.442661,14.5608053 C100.930377,12.9852701 100.193017,11.9466361 99.251682,11.4765545 C98.7358443,11.2052787 98.1378033,11.1346998 97.5729867,11.2784404 C97.4992729,11.3026425 97.418614,11.2727114 97.378532,11.2062818 C97.33845,11.1398521 97.3495747,11.0545411 97.4053517,11.0006116 C97.411213,11.0006116 97.912946,10.5164628 97.9973496,10.0627931 C98.0378758,9.75450193 98.018773,9.44129493 97.9410805,9.14021407 C97.7558614,9.14021407 97.393629,9.16834862 97.1615189,9.31253823 C96.891896,9.47782875 96.4780836,10.1167176 96.3409276,10.35 C96.3007637,10.4170012 96.2194124,10.4470609 96.1453322,10.4222736 C96.0712519,10.3974863 96.024373,10.3245206 96.0326198,10.24684 C96.0667761,9.55584053 95.8309498,8.87862831 95.3749745,8.35830785 C94.716157,7.62680938 93.6165647,7.25754332 92.1101937,7.25754332 Z M92.0879205,9.23510092 C95.6867992,9.21992864 95.4066259,11.7989297 95.4066259,11.7989297 C95.4066259,11.7989297 95.7184506,10.9994393 96.0197248,10.8153925 C96.2388333,10.6815402 96.5645896,10.658676 96.7259775,10.6561606 L96.8119648,10.6566732 L96.8119648,10.6566732 L96.8239042,10.6571356 C96.9115056,10.949912 96.9370585,11.257745 96.8989297,11.5609582 C96.8215596,11.9782875 96.3807849,12.3944444 96.3807849,12.3944444 L96.3807849,12.3944444 L96.3831295,12.4049949 C96.3831295,12.4049949 98.6420999,11.7649337 99.7733435,15.2383792 C100.724057,18.1573394 98.7464322,19.3694699 98.7464322,19.3694699 C98.7464322,19.3694699 99.4626911,19.4374618 99.7252803,19.6812946 C99.9878695,19.9251274 100.13792,20.4925076 100.13792,20.4925076 C99.8899743,20.6115022 99.6262752,20.6944016 99.354842,20.738685 C98.9550968,20.7949541 98.4275739,20.5136086 98.4275739,20.5136086 C98.4275739,20.5136086 99.6291539,22.5814985 96.7488787,24.7255861 C93.9002548,26.8356779 92.7631498,24.7255861 92.7631498,24.7255861 C92.7631498,24.7255861 92.8241081,25.3855759 92.6857798,25.7243629 C92.5474516,26.0631498 92.1289501,26.3573904 92.1289501,26.3573904 C91.8930757,26.1747191 91.6995203,25.9431725 91.5615698,25.6786442 C91.3857288,25.2941386 91.4853721,24.6763507 91.4853721,24.6763507 L91.4853721,24.6763507 C91.4406729,24.7705812 90.4321497,26.7950651 87.211264,24.5438838 C84.976731,22.9847604 85.7143459,21.1357866 85.8891575,20.7729109 L85.9129524,20.7255927 C85.9186066,20.7148935 85.9217635,20.7093782 85.9217635,20.7093782 C85.9217635,20.7093782 85.3977574,20.9039755 85.0507645,20.8535678 C84.7037717,20.80316 84.2407238,20.4256881 84.2407238,20.4256881 C84.3767421,20.1842231 84.548687,19.9648451 84.7506626,19.7750765 C85.0660041,19.4913863 85.6263507,19.3929154 85.6263507,19.3929154 C85.6263507,19.3929154 83.3017329,18.6836901 84.5103466,14.9875127 C85.5653925,11.7602446 87.653211,12.5327727 87.653211,12.5327727 C87.653211,12.5327727 87.2347095,12.0439348 87.1561672,11.6828746 C87.0776249,11.3218145 87.249949,10.8212538 87.249949,10.8212538 C87.5403378,10.8206551 87.8270246,10.8864126 88.0881244,11.0135066 C88.4444954,11.2139653 88.6883282,11.7813456 88.6883282,11.7813456 L88.6883282,11.7813456 L88.688227,11.7629442 C88.6898112,11.5338727 88.7881473,9.24296045 92.0879205,9.23510092 Z M88.8395515,19.2405199 C88.2463297,19.4056048 87.6916952,19.6670753 87.1913354,20.0142202 C86.4692151,20.5452599 86.3695719,21.1982161 86.4621814,21.6800204 C86.554791,22.1618247 87.9111111,22.9179409 88.2405199,23.1641182 C88.5699286,23.4102956 89.5288481,24.441896 89.9766565,24.5978084 C90.4244648,24.7537207 90.9344037,24.4723751 91.3622834,23.7314985 C91.7226031,23.1076023 91.7578817,21.9184172 91.7600393,21.5584393 L91.759684,21.4525994 C91.759684,21.4525994 90.6202345,21.2369011 89.9848624,20.7304791 C89.3494903,20.2240571 88.8395515,19.2405199 88.8395515,19.2405199 L88.8395515,19.2405199 Z M95.4687564,19.1514271 C95.4687564,19.1514271 94.9447503,20.2392966 94.2964832,20.7316514 C93.6482161,21.2240061 92.6084098,21.4479103 92.6084098,21.4479103 L92.6084098,21.4479103 C92.5782702,22.0853112 92.6498138,22.7228792 92.8159021,23.338787 C93.0831804,24.2226809 93.6446993,24.5169215 94.1054027,24.5673293 C94.566106,24.617737 95.6504587,23.4712538 95.9728338,23.2110092 C96.295209,22.9507645 97.5085117,22.2931193 97.7828236,21.8839959 C98.0571356,21.4748726 97.9539755,20.8781855 97.411213,20.2287462 C96.8684506,19.5793068 95.4687564,19.1514271 95.4687564,19.1514271 Z M113.664855,21.2456852 L113.664992,21.4862159 C113.663124,21.7782037 113.654221,21.9533903 113.652266,21.9887158 L113.650409,21.9707183 C113.599706,21.1712463 112.12507,1.19276453 91.420897,2.0245158 C81.4893986,2.42367482 71.0174822,7.06294597 60.7104167,11.8931511 L58.9942197,12.6992589 C49.279124,17.2693525 39.7460202,21.8091007 30.9890418,22.9073904 C6.66125484,25.9580673 1.30545187,14.7689185 0.282651656,11.5761636 L0.248475025,11.4679104 L0.274176357,11.5405335 C1.11027448,13.9590197 5.11189653,21.115055 23.2590724,21.6190622 C33.2819264,21.8979405 44.0111132,17.1128577 54.8793445,11.987066 L56.4707441,11.2350663 C57.0014976,10.9839544 57.5325162,10.7325801 58.0637338,10.4814916 L59.6579185,9.7296316 C70.0231468,4.85524141 80.4390691,0.297989119 90.4174312,0.123088685 C112.305307,-0.26085423 113.636775,17.3636488 113.664855,21.2456852 Z M92.0926096,15.2360228 C91.0375637,15.2360228 91.064526,16.0050459 91.064526,16.0050459 C91.0258692,15.9121361 90.9631495,15.8312074 90.8828236,15.7705912 C90.8040068,15.731964 90.717386,15.7119129 90.6296126,15.7119776 C90.6005173,15.7950396 90.5905006,15.8835874 90.6003058,15.9710499 C90.6338028,16.0657248 90.6842511,16.1535127 90.7491845,16.2301223 C90.7491845,16.2301223 90.1185015,15.9956677 89.8008155,16.970999 C89.4362385,18.0881753 90.1360856,18.2874618 90.1360856,18.2874618 C90.0389611,18.297932 89.9463397,18.333929 89.8676351,18.3917941 C89.804434,18.4589235 89.7564524,18.5388927 89.7269623,18.6262487 C89.7901181,18.6822067 89.8656488,18.7223827 89.9473496,18.743476 C90.0435883,18.7427376 90.1387579,18.7232259 90.2275229,18.6860347 C90.2275229,18.6860347 89.8641182,19.3366463 90.6155454,19.8583078 C91.5170793,20.488321 91.8428436,20.0118969 91.8967168,19.9154351 L91.9050459,19.8993374 C91.8876649,20.0004593 91.895312,20.1042991 91.9273191,20.2017839 C91.9683208,20.2817571 92.0263399,20.3517801 92.0972987,20.4069317 C92.1684001,20.357721 92.2266848,20.2922009 92.2672783,20.2158512 C92.2925505,20.1171495 92.300092,20.0147438 92.2895515,19.9134047 C92.2895515,19.9134047 92.6330275,20.5522936 93.4958206,19.9134047 C94.3586137,19.2745158 93.9647299,18.6813456 93.9647299,18.6813456 C94.0508958,18.7272661 94.1472736,18.7506549 94.2449032,18.7493374 C94.3299863,18.730921 94.4100093,18.6941104 94.4793578,18.6414883 C94.4576667,18.5575594 94.4176294,18.4794866 94.3621305,18.412895 C94.2819882,18.3574863 94.1921014,18.3177134 94.0971967,18.2956677 C94.0971967,18.2956677 94.6950561,17.9275739 94.4078491,17.0471967 C94.0997757,16.0976555 93.5391244,16.1869123 93.4300748,16.2142591 L93.420475,16.2169104 L93.4850247,16.1459737 C93.5246883,16.0924592 93.5546348,16.0320662 93.5731906,15.9675331 C93.585538,15.8767959 93.5783436,15.7844674 93.5520897,15.696738 C93.4685383,15.6915858 93.3850459,15.7077196 93.3094292,15.743629 C93.2240722,15.8206619 93.1516412,15.9109038 93.0949032,16.0109072 C93.0949032,16.0109072 93.1804791,15.2325178 92.0926096,15.2360228 Z M88.5488277,13.662844 C87.8571865,13.0907747 87.237054,13.1857288 86.8302752,13.4143221 C86.4234964,13.6429154 86.1362895,15.2348624 86.009684,15.6416412 C85.8830785,16.04842 85.2301223,17.314475 85.2207441,17.8150357 C85.211366,18.3155963 85.6122834,18.7493374 86.4082569,18.9626911 C87.2042304,19.1760449 88.5863405,18.6977574 88.5863405,18.6977574 C88.5863405,18.6977574 88.4456677,17.4785933 88.7188073,16.6873089 C88.9116118,16.1287552 89.3380596,15.5643604 89.5722327,15.2806813 L89.6713245,15.1635613 C89.7108871,15.1180245 89.7339959,15.0930173 89.7339959,15.0930173 L89.728475,15.0979104 L89.5657419,14.8364253 C89.3370502,14.4894935 89.072554,14.1675323 88.7766121,13.8758477 Z M97.80158,13.5432722 C97.5366463,13.1282875 96.9680938,13.0216106 96.2037717,13.3334353 C95.4394495,13.6452599 94.5731397,14.8808359 94.5731397,14.8808359 C94.5731397,14.8808359 95.3573904,15.7858308 95.5672273,16.5993884 C95.7770642,17.412946 95.6117737,18.5219164 95.6117737,18.5219164 L95.6117737,18.5219164 C96.1610149,18.7679595 96.7521661,18.9197094 97.3561162,18.970897 C98.2341488,19.0166157 98.698369,18.5488787 98.8953109,18.1245158 C99.101631,17.6825688 98.4662589,16.2090214 98.3466871,15.7998981 C98.2271152,15.3907747 98.0665138,13.9582569 97.80158,13.5432722 Z M94.3937819,11.0428135 C94.0444444,10.7157492 92.5310398,10.9759939 92.1266055,10.9888889 C91.7221713,11.0017839 90.3728848,10.7813965 89.9250765,10.9478593 C89.4772681,11.1143221 89.2264016,11.6582569 89.3108053,12.5210499 C89.395209,13.383843 90.2931702,14.5948012 90.2931702,14.5948012 C90.2931702,14.5948012 91.3376656,14.0344546 92.1277778,14.0344546 C92.9178899,14.0344546 93.8861876,14.4963303 93.8861876,14.4963303 L93.8861876,14.4963303 C94.2616157,13.9942078 94.5562269,13.4322716 94.7595311,12.8352192 C95.0314985,11.9524975 94.7431193,11.3698777 94.3937819,11.0428135 Z" id="Shape"></path>
            <path d="M7.87415902,46.0937819 C9.31019368,46.0937819 10.3160041,46.3399592 12.2361876,47.1945464 L12.2361876,49.0701835 C10.8001529,48.2343527 9.30550459,47.7982671 7.83781855,47.7982671 C5.1814475,47.7982671 3.11707441,49.9423547 3.11707441,52.749949 C3.11707441,55.6360856 5.1638634,57.6652905 8.07227319,57.6652905 C9.02298675,57.6652905 9.88460754,57.4378695 10.727472,57.1541794 L10.727472,54.4966361 L8.38292559,54.4966361 L8.38292559,52.8284913 L12.4929154,52.8284913 L12.4858818,58.3123853 C10.8529052,59.0708461 9.52471967,59.3756371 7.82492355,59.3756371 C4.07364934,59.3756371 1.30942915,56.6055556 1.30942915,52.8109072 C1.30942915,48.9975025 4.145158,46.0937819 7.87415902,46.0937819 Z M96.7055046,46.0914373 C97.9621814,46.0914373 99.2364424,46.4138124 100.904587,47.1546891 L100.903415,49.1463812 C99.3958716,48.2167686 98.1040265,47.7994393 96.6832314,47.7994393 C93.8826707,47.7994393 91.8007136,49.9095311 91.8007136,52.7522936 C91.8007136,55.6571865 93.8111621,57.6664628 96.7559123,57.6664628 C98.1368502,57.6664628 99.6443935,57.1553517 101.027676,56.2069827 L101.027676,58.2361876 C99.8284404,58.9067278 98.5178389,59.3756371 96.5976555,59.3756371 C92.0023445,59.3756371 89.9907238,55.6372579 89.9907238,52.9222732 C89.9907238,48.9764016 92.8041794,46.0914373 96.7055046,46.0914373 Z M65.0002039,46.2625892 L68.3763507,55.1812436 L71.7689093,46.2625892 L73.4393986,46.2625892 L76.8495413,55.1812436 L80.1881753,46.2625892 L81.9301733,46.2625892 L76.9550459,59.3181957 L76.6150866,59.3181957 L72.5941896,48.729052 L68.5381244,59.3181957 L68.1969929,59.3181957 L63.2417941,46.2625892 L65.0002039,46.2625892 Z M35.5210499,46.2625892 L35.5198777,47.9319062 L30.3325688,47.9319062 L30.3325688,51.8414373 L35.3405199,51.8414373 L35.3405199,53.5142712 L30.3325688,53.5142712 L30.3325688,57.5351682 L35.6816514,57.5351682 L35.6816514,59.2044852 L28.574159,59.2044852 L28.574159,46.2625892 L35.5210499,46.2625892 Z M106.295872,46.2637615 L106.295872,51.8988787 L113.152497,51.8988787 L113.152497,46.2637615 L114.910907,46.2637615 L114.908563,59.2044852 L113.150153,59.2044852 L113.150153,53.5681957 L106.295872,53.5681957 L106.295872,59.2044852 L104.537462,59.2044852 L104.537462,46.2637615 L106.295872,46.2637615 Z M86.4176351,46.2637615 L86.4176351,59.2044852 L84.6592253,59.2044852 L84.6592253,46.2637615 L86.4176351,46.2637615 Z M50.612895,46.2637615 L58.9055556,56.2820082 L58.9055556,46.2637615 L60.5572885,46.2637615 L60.546738,59.2044852 L59.0391947,59.2044852 L50.8543833,49.2401631 L50.8543833,59.2044852 L49.2061672,59.2044852 L49.2061672,46.2637615 L50.612895,46.2637615 Z M45.8440877,46.2625892 L45.8440877,47.9319062 L40.6556065,47.9319062 L40.6556065,51.8414373 L45.6635576,51.8414373 L45.6635576,53.5142712 L40.6556065,53.5142712 L40.6556065,57.5351682 L46.0046891,57.5351682 L46.0046891,59.2044852 L38.8971967,59.2044852 L38.8971967,46.2625892 L45.8440877,46.2625892 Z M19.5066259,46.2625892 C21.9836391,46.2625892 23.5275229,47.6470438 23.5275229,49.8860856 C23.5275229,51.3865953 22.7913354,52.5049439 21.4819062,53.0512232 C22.5943935,53.8296126 23.2766565,55.024159 24.2097859,56.6372069 C24.7302752,57.5304791 25.0303772,57.9665647 25.879103,59.1986239 L23.7795617,59.1986239 L22.1641692,56.5434251 C20.5487768,53.887054 19.8125892,53.5834353 18.9146279,53.5834353 L18.1784404,53.5834353 L18.1784404,59.1986239 L16.4200306,59.1986239 L16.4200306,46.2625892 L19.5066259,46.2625892 Z M19.3132008,47.8533639 L18.1819572,47.8533639 L18.1784404,51.9176351 L19.3132008,51.9176351 C21.1982161,51.9176351 21.7362895,50.891896 21.7187054,49.8075433 C21.699949,48.591896 21.0153415,47.8533639 19.3132008,47.8533639 Z M93.0022936,35.8246284 C93.2267293,35.8233132 93.4500643,35.8561217 93.6646279,35.9219674 C93.8423628,35.9714617 94.0118226,36.0469088 94.1675331,36.1458716 L95.0619776,35.903211 L95.1217635,35.980581 L94.3011723,40.0436799 C94.2014819,40.579967 94.0418322,41.1033507 93.8252294,41.6039755 C93.6654671,41.9779747 93.4381587,42.3193346 93.1546891,42.6109582 C92.9111928,42.8545438 92.6164423,43.0407652 92.291896,43.1560652 C91.9478821,43.2675638 91.5878947,43.3218193 91.2262997,43.3166667 C91.0035903,43.3223297 90.7810559,43.2998794 90.5639653,43.2498471 C90.4202909,43.2169789 90.2839566,43.1577549 90.1618756,43.0751784 C90.0738201,43.0148829 90.0053542,42.9301155 89.9649337,42.8313456 C89.9318295,42.7481145 89.9143442,42.6594961 89.9133537,42.5699286 C89.9090716,42.4284586 89.9561236,42.2902171 90.0458206,42.1807339 C90.1344231,42.0745902 90.2675949,42.0160293 90.4057085,42.0224771 C90.5182905,42.0206145 90.6276194,42.0602566 90.712844,42.133843 C90.7929021,42.2031964 90.8620601,42.28421 90.9179918,42.374159 C90.9797147,42.4761188 91.0334106,42.5827266 91.0785933,42.6930173 C91.1325178,42.816106 91.1688583,42.9087156 91.1958206,42.9708461 L91.3446993,42.9708461 C91.5431618,42.96603 91.7387379,42.9222146 91.9202854,42.841896 C92.1356716,42.74654 92.3270952,42.604374 92.480632,42.425739 C92.6783731,42.1828202 92.8409584,41.9132917 92.9636086,41.6250765 C93.1333453,41.211316 93.2514623,40.7782206 93.3152905,40.3355759 L93.312946,40.3320591 L93.2789501,40.3215087 L93.0034659,40.5559633 C92.7566199,40.7600229 92.479853,40.9248968 92.1828746,41.0448012 C92.0208058,41.1063522 91.8486331,41.1369695 91.6752803,41.1350663 C91.2452236,41.1549269 90.8345458,40.9548871 90.5850663,40.6040265 C90.3302922,40.2523445 90.203296,39.7666327 90.2040775,39.1468909 C90.2036314,38.722824 90.2786541,38.3020614 90.4256371,37.9042813 C90.5661656,37.5148322 90.7719019,37.152118 91.0340469,36.8316514 C91.2765823,36.5303376 91.5781733,36.2818042 91.9202854,36.1013252 C92.2522067,35.9202327 92.6241851,35.8251223 93.0022936,35.8246284 Z M113.072783,33.0334862 C113.357645,33.0334862 113.567482,33.0909276 113.704638,33.2058104 C113.834261,33.3126449 113.908067,33.472775 113.905097,33.6407238 C113.908121,33.7806752 113.867116,33.9180424 113.78787,34.0334353 C113.70141,34.1509204 113.56054,34.2155966 113.415087,34.2045872 C113.32224,34.2069263 113.230679,34.1825102 113.151325,34.1342508 C113.073636,34.0859509 113.005326,34.0239951 112.949694,33.9513761 C112.891586,33.8752551 112.839831,33.7944871 112.794954,33.7098879 C112.755097,33.6348624 112.707034,33.5504587 112.64842,33.4578491 C112.424516,33.4683996 112.224057,33.6243119 112.051733,33.9267584 C111.879409,34.2292049 111.723496,34.7332824 111.582824,35.4366463 L111.47263,35.9817533 L112.7,35.9817533 L112.59684,36.4506626 L111.389399,36.4623853 L110.530122,40.717737 C110.406775,41.4270166 110.069283,42.0815474 109.562997,42.5933741 C109.071424,43.0747876 108.565783,43.3154944 108.046075,43.3154944 C107.758869,43.3154944 107.550204,43.258053 107.415392,43.1431702 C107.284031,43.0373635 107.208778,42.87691 107.211417,42.7082569 C107.209633,42.5674054 107.254109,42.4298584 107.338022,42.3167176 C107.423044,42.2017461 107.559755,42.1366874 107.702599,42.1432212 C107.796339,42.1409143 107.888748,42.1657467 107.968705,42.2147299 C108.046201,42.2632279 108.115127,42.3242306 108.172681,42.3952599 C108.229499,42.469576 108.280825,42.5479352 108.326249,42.6297146 C108.382518,42.7281855 108.432926,42.8149337 108.475127,42.8864424 C108.725994,42.8665138 108.944037,42.6883282 109.117533,42.3518858 C109.333533,41.8943023 109.488429,41.4103035 109.578236,40.9123344 L110.47737,36.4576962 L109.52314,36.4576962 L109.625127,35.988787 L110.562946,35.988787 L110.633282,35.637105 C110.703638,35.2617147 110.828849,34.8987202 111.004893,34.5597859 C111.157004,34.2607134 111.350364,33.9844854 111.579307,33.7391947 C111.78484,33.5236437 112.028473,33.3479732 112.29791,33.2210499 C112.539224,33.1021934 112.803826,33.0381444 113.072783,33.0334862 Z M18.9005607,29.2212538 C22.9390418,29.2212538 25.4875637,32.2586137 25.4875637,35.8633537 C25.4875637,39.3543833 23.0105505,42.5054536 18.8630479,42.5054536 C14.8609072,42.5054536 12.3287971,39.3731397 12.3287971,35.8633537 C12.3287971,32.27737 14.9312436,29.2212538 18.9005607,29.2212538 Z M4.8754842,29.3924057 C7.35249745,29.3924057 8.89520897,30.7768603 8.89520897,33.0170744 C8.89520897,34.5152396 8.16019368,35.6347604 6.84959225,36.182212 C7.96325178,36.9641182 8.64551478,38.1574924 9.58333333,39.7717125 C10.1038226,40.6638124 10.4039246,41.1010703 11.2514781,42.3331295 L9.14724771,42.3331295 L7.53185525,39.6814475 C5.91646279,37.0262487 5.18027523,36.72263 4.28231397,36.72263 L3.54729867,36.72263 L3.54729867,42.3378186 L1.78888889,42.3378186 L1.78888889,29.3924057 L4.8754842,29.3924057 Z M52.8402141,29.3912334 L52.8402141,40.6638124 L58.3698267,40.6638124 L58.3698267,42.3343017 L51.0818043,42.3343017 L51.0818043,29.3912334 L52.8402141,29.3912334 Z M42.9251274,29.320897 L48.4019878,42.3331295 L46.604893,42.3331295 L44.9730887,38.5197248 L39.7670234,38.5197248 L38.2243119,42.3331295 L36.4283894,42.3331295 L41.6872069,29.320897 L42.9251274,29.320897 Z M28.3279817,29.3877166 L31.6103466,33.8423547 L34.9337411,29.3924057 L37.053211,29.3924057 L32.5118247,35.5034659 L32.5118247,42.3331295 L30.7534149,42.3331295 L30.7534149,35.4835372 L26.2132008,29.3877166 L28.3279817,29.3877166 Z M66.0869011,33.0487258 L66.1361366,33.1249235 L65.3964322,36.5538226 L65.4163609,36.5538226 C65.6434916,36.32616 65.9039915,36.1344415 66.1888889,35.9852701 C66.3910848,35.8842239 66.6134832,35.830127 66.8395005,35.8270133 C67.2934807,35.8049867 67.7301302,36.0036623 68.0117737,36.3603976 C68.2954638,36.7167686 68.4373089,37.1958376 68.4373089,37.7976045 L68.4326198,37.7976045 C68.4341963,38.2461846 68.3547709,38.6913643 68.1981651,39.1117227 C68.0566698,39.5054397 67.8471716,39.8712678 67.5792049,40.1925586 C67.3301715,40.4898454 67.0270693,40.7372595 66.6859327,40.9217125 C66.3621478,41.0975297 65.9993253,41.1890416 65.6308869,41.1878186 C65.382305,41.1915882 65.1341121,41.1668082 64.8911825,41.1139653 C64.7007652,41.0733019 64.5174503,41.0045588 64.3472477,40.9099898 C64.2060402,40.8285013 64.0776559,40.7265839 63.9662589,40.6075433 C63.8637194,40.491983 63.7726367,40.3667443 63.6942915,40.2335882 L64.9556575,34.3874618 C64.9720693,34.3089195 64.983792,34.2409276 64.9966871,34.1834862 C65.0074841,34.1262822 65.012978,34.0682037 65.0130989,34.0099898 C65.0179149,33.9113607 64.9981778,33.8130782 64.9556575,33.7239551 C64.9168343,33.6575107 64.8587999,33.6043806 64.7891947,33.5715596 C64.7062832,33.5372013 64.6184407,33.5162299 64.5289501,33.5094292 C64.42579,33.4988787 64.3214577,33.487156 64.2124363,33.4730887 L64.2816004,33.1600917 L66.0869011,33.0487258 Z M106.806983,35.8223242 C107.383741,35.8223242 107.837411,36.0087156 108.163303,36.3826707 C108.489195,36.7566259 108.653313,37.2442915 108.653313,37.8503568 L108.648624,37.8503568 C108.647293,38.2636963 108.581236,38.6742774 108.452854,39.0671764 C108.332744,39.4550401 108.141538,39.8171793 107.888991,40.1351172 C107.644075,40.4497406 107.335739,40.7093495 106.983996,40.8970948 C106.606323,41.0942583 106.184904,41.1926567 105.75897,41.1831295 C105.261723,41.2007762 104.781771,40.9993677 104.446024,40.6321611 C104.109973,40.2640673 103.941947,39.7685865 103.941947,39.1457187 C103.938265,38.7097666 104.010868,38.2765305 104.156473,37.8655963 C104.288749,37.4887272 104.482876,37.1365238 104.730887,36.8234455 C104.97865,36.5218806 105.286446,36.2751642 105.634709,36.0989806 C105.997365,35.9133746 106.399608,35.8184452 106.806983,35.8223242 Z M71.9728848,35.8223242 C72.5504247,35.8223242 73.0029222,36.0091064 73.3303772,36.3826707 C73.6578321,36.7562351 73.8207781,37.2454638 73.8192262,37.8503568 L73.8133537,37.8503568 C73.8123394,38.2635372 73.7470849,38.6740474 73.6199286,39.0671764 C73.4992868,39.4550526 73.3076965,39.8171662 73.054893,40.1351172 C72.8094253,40.4492093 72.5012118,40.7087154 72.1498981,40.8970948 C71.7721365,41.0940185 71.3507795,41.1924023 70.9248726,41.1831295 C70.4273087,41.2006446 69.9470502,40.9992873 69.6107543,40.6321611 C69.2739212,40.2640673 69.1058953,39.7685865 69.1066769,39.1457187 C69.0995461,38.3046949 69.3776521,37.4860799 69.8956167,36.8234455 C70.1437203,36.5217529 70.4519268,36.275028 70.8006116,36.0989806 C71.1632024,35.913198 71.5654898,35.8182581 71.9728848,35.8223242 Z M81.9442406,35.8223242 C82.5249066,35.8223242 82.977404,36.0091064 83.3017329,36.3826707 C83.6260618,36.7562351 83.7882263,37.2454638 83.7882263,37.8503568 L83.7929154,37.8503568 C83.7909919,38.2636478 83.7249497,38.6741378 83.5971458,39.0671764 C83.477114,39.455306 83.2854663,39.817528 83.0321101,40.1351172 C82.7873323,40.4494198 82.4794512,40.7089824 82.1282875,40.8970948 C81.7504728,41.0938751 81.3291531,41.1922503 80.903262,41.1831295 C80.4063307,41.2009088 79.9266845,40.9994488 79.5914883,40.6321611 C79.2538736,40.2640673 79.085457,39.7685865 79.0862385,39.1457187 C79.0827307,38.709879 79.1549206,38.2767394 79.2995923,37.8655963 C79.4326855,37.4886157 79.627602,37.1364189 79.8763507,36.8234455 C80.1231375,36.5213666 80.4306709,36.2745411 80.779001,36.0989806 C81.1395601,35.9145218 81.5392459,35.8196265 81.9442406,35.8223242 Z M85.6216616,35.8809378 C85.8819062,35.8809378 86.0718145,35.9465851 86.1937309,36.0767074 C86.3236971,36.2283302 86.3889448,36.4249152 86.3754332,36.624159 C86.3746487,36.7092682 86.3683836,36.7942385 86.3566769,36.8785423 C86.3428883,36.9862753 86.3229269,37.0931279 86.2968909,37.1985729 L85.8678389,39.1058614 C85.8361876,39.250051 85.808053,39.3848624 85.7869521,39.5102956 C85.7699155,39.6047818 85.7597293,39.7003757 85.756473,39.7963303 C85.7462962,39.9890624 85.7958307,40.180241 85.898318,40.3437819 C86.0023481,40.482892 86.1706732,40.5586383 86.3437819,40.5442406 C86.568129,40.53973 86.7879292,40.4801505 86.983843,40.3707441 C87.2305514,40.2331964 87.4527738,40.0557354 87.6414883,39.8455657 L88.4913863,35.9641692 L89.3459735,35.9020387 L89.4034149,35.9794088 L88.6789501,39.2992864 C88.6461264,39.4399592 88.6179918,39.5818043 88.5922018,39.7236493 C88.5714496,39.8233396 88.5581273,39.9244329 88.5523445,40.0260958 C88.5523445,40.2218654 88.5922018,40.3543323 88.6695719,40.425841 C88.7852236,40.5072637 88.9261636,40.5446814 89.0669725,40.5313456 C89.1552915,40.5289221 89.2431964,40.5183264 89.3295617,40.4996942 C89.4189915,40.4851322 89.5068918,40.4623723 89.5921509,40.4317023 L89.5194699,40.7634557 C89.2498471,40.880683 89.0235984,40.9674312 88.8430683,41.0260449 C88.6817763,41.0809533 88.5128704,41.110225 88.3425076,41.1127931 C88.1198732,41.129898 87.9023424,41.0402753 87.756371,40.8713048 C87.6271555,40.7108225 87.558665,40.5099171 87.562946,40.3039246 L87.5606014,40.3027523 L87.5312946,40.3027523 C87.3824159,40.4305301 87.2382263,40.5477574 87.1034149,40.6544343 C86.9763451,40.7557571 86.8410673,40.8463344 86.6989806,40.9252294 C86.5637501,40.9976238 86.4220757,41.0572762 86.27579,41.1034149 C86.1131761,41.1430275 85.9460718,41.1611568 85.7787462,41.1573394 C85.5064496,41.1741207 85.2407156,41.0693726 85.0531091,40.8713048 C84.8739922,40.6634815 84.7809145,40.3951495 84.7928644,40.1210499 C84.7941475,40.0222906 84.8008002,39.923674 84.8127931,39.8256371 C84.8355735,39.6561438 84.8668738,39.4879049 84.9065749,39.3215596 L85.2840469,37.6885831 C85.3156983,37.5361876 85.3438328,37.4025484 85.3637615,37.2864934 C85.38457,37.1759235 85.3955541,37.0637293 85.3965851,36.9512232 C85.4118182,36.8159464 85.3794895,36.6795856 85.3051478,36.5655454 C85.2453619,36.5034149 85.1246177,36.4705912 84.9393986,36.4705912 C84.8469012,36.4736197 84.7551443,36.4881906 84.6662589,36.5139653 C84.5560652,36.5409276 84.4716616,36.5643731 84.4083588,36.5831295 L84.482212,36.2502039 C84.69955,36.1443439 84.923535,36.0527137 85.1527523,35.9758919 C85.3035414,35.9213749 85.4615422,35.8893797 85.6216616,35.8809378 Z M98.4392966,33.0440367 L98.4908767,33.1202345 L97.7077982,36.688634 L97.7277268,36.688634 C98.0029444,36.4439426 98.3017768,36.2271811 98.6198267,36.0415392 C98.8935462,35.8922671 99.2013727,35.8167243 99.5130989,35.8223242 C99.7854356,35.807445 100.050758,35.9118622 100.239908,36.1083588 C100.419658,36.3158849 100.513191,36.5843217 100.501325,36.8586137 C100.501325,36.9219164 100.491947,37.0309378 100.475535,37.1891947 C100.457096,37.3471714 100.428512,37.503798 100.389959,37.658104 L99.9796636,39.3133537 C99.9538736,39.4223751 99.9245668,39.5478084 99.8952599,39.691998 C99.8704842,39.8014176 99.8555756,39.9128394 99.8507136,40.0249235 C99.8507136,40.2206932 99.8929154,40.3543323 99.9738022,40.4246687 C100.090247,40.5053358 100.23127,40.5426654 100.372375,40.5301733 C100.46156,40.5272069 100.550265,40.5158244 100.637309,40.4961774 C100.727837,40.4802844 100.816857,40.4567549 100.903415,40.425841 L100.830734,40.756422 C100.537666,40.8795107 100.309072,40.9697757 100.147299,41.0272171 C99.9890773,41.0827722 99.822635,41.1113052 99.6549439,41.1116208 C99.4484746,41.1348664 99.2422919,41.0656362 99.0916899,40.9224965 C98.9410879,40.7793567 98.861478,40.5769552 98.87421,40.3695719 C98.8751845,40.286028 98.8814492,40.2026296 98.8929664,40.1198777 C98.9094464,40.0113895 98.9313563,39.903796 98.9586137,39.7975025 L99.4357288,37.8761468 C99.4697248,37.7284404 99.4990316,37.5924567 99.5201325,37.4728848 C99.538965,37.3778214 99.5499432,37.2813696 99.5529562,37.1845056 C99.5632262,36.9901358 99.5083591,36.7978947 99.3970438,36.6382263 C99.2859969,36.5007792 99.1149929,36.4259923 98.938685,36.4377676 C98.701308,36.4473475 98.4707265,36.5197582 98.2704893,36.6476045 C98.0112801,36.8064281 97.7803126,37.0072866 97.587054,37.241947 L96.7582569,41.0272171 L95.8427115,41.0272171 L97.2986748,34.3827727 C97.3139144,34.3030581 97.3291539,34.2362385 97.3420489,34.1811417 C97.352611,34.1231328 97.3577132,34.0642618 97.3572885,34.0053007 C97.3639439,33.9062789 97.3432624,33.8073322 97.2975025,33.7192661 C97.2597721,33.6523737 97.2019423,33.5990554 97.132212,33.5668705 C97.0508675,33.5314862 96.9640066,33.510465 96.8754842,33.5047401 C96.7664628,33.4941896 96.6562691,33.4824669 96.5495923,33.4683996 L96.6175841,33.1554027 L98.4392966,33.0440367 Z M78.3312946,35.8668705 C78.4245451,35.8919673 78.5102582,35.9394516 78.5809888,36.0051988 C78.6501121,36.0772983 78.7039431,36.1626302 78.7392457,36.2560652 C78.7648077,36.3448982 78.7808898,36.436055 78.7873047,36.5280131 L78.7896534,36.662844 C78.7879269,36.7715602 78.7737675,36.8797219 78.7474516,36.9852192 C78.7268931,37.0858432 78.6892248,37.1821948 78.6360856,37.2700815 C78.5870627,37.3534497 78.521664,37.4260263 78.4438328,37.4834353 C78.3534083,37.5385806 78.2482843,37.5647594 78.1425586,37.5584608 C77.9977808,37.5698645 77.8549875,37.5191409 77.7498471,37.4189602 C77.6665476,37.3379292 77.6192484,37.2268606 77.6185525,37.1106524 C77.6225665,36.9873677 77.6475411,36.8656662 77.6924057,36.7507645 C77.7416412,36.6182977 77.7920489,36.4870031 77.8448012,36.3557085 C77.7793134,36.3594861 77.7144441,36.3704943 77.6513761,36.3885321 C77.5395496,36.4191513 77.4314385,36.4620026 77.329001,36.5163099 C77.176312,36.5999375 77.0325507,36.6989206 76.899949,36.8117227 C76.7136828,36.9693374 76.5429251,37.1444131 76.3900102,37.3345566 L75.6010703,41.0260449 L74.6878695,41.0260449 L75.4017839,37.6885831 C75.4181957,37.606524 75.4404689,37.4834353 75.470948,37.3169725 C75.4975757,37.1971157 75.5132704,37.0750895 75.5178389,36.9523955 C75.5178389,36.7601427 75.4861876,36.6288481 75.4252294,36.5655454 C75.3642712,36.5022426 75.2388379,36.4659021 75.0536188,36.4659021 C74.9612997,36.4690548 74.8696501,36.4828219 74.7804791,36.5069317 C74.6691131,36.5315494 74.5835372,36.5549949 74.5214067,36.572579 L74.5952599,36.2408257 C74.8131388,36.1342032 75.0388779,36.0444563 75.2704893,35.9723751 C75.4331579,35.9194046 75.6024287,35.8894172 75.7733945,35.8832824 C76.0359837,35.8832824 76.2200306,35.9594801 76.3313965,36.1095311 C76.4427625,36.2595821 76.4966871,36.4834862 76.4966871,36.7824159 L76.5259939,36.7824159 C76.8040863,36.5171194 77.0976701,36.2685517 77.4051988,36.0380224 C77.6698953,35.8387143 78.0128469,35.7753334 78.3312946,35.8668705 Z M81.838736,36.1892457 C81.5631302,36.1905657 81.2956767,36.2828764 81.0779307,36.4518349 C80.8008734,36.678531 80.5882371,36.9740388 80.461315,37.3087666 C80.3229321,37.6283762 80.2244995,37.9638344 80.1682467,38.3075433 C80.1099939,38.642467 80.0794115,38.9816178 80.0768094,39.3215596 C80.0768094,39.8127421 80.156524,40.185525 80.3182977,40.4375637 C80.4720573,40.6884386 80.7513541,40.8343938 81.045107,40.8173802 C81.3282806,40.8196299 81.6022476,40.7168923 81.8141182,40.529001 C82.0456855,40.3257005 82.2314793,40.0755781 82.3592253,39.795158 C82.5070815,39.4789019 82.6146011,39.1453157 82.6792559,38.8022426 C82.7563175,38.4245285 82.7955869,38.0400812 82.7964832,37.6545872 L82.7859327,37.6545872 C82.7859327,37.1657492 82.7050459,36.8 82.5420999,36.5549949 C82.3880402,36.3181332 82.121118,36.1793336 81.838736,36.1892457 Z M106.699134,36.1892457 C106.423259,36.1910919 106.155598,36.2833322 105.937156,36.4518349 C105.66081,36.6789402 105.448646,36.9743534 105.321713,37.3087666 C105.18267,37.6280456 105.084592,37.9636372 105.029817,38.3075433 C104.971768,38.6425136 104.940798,38.9816158 104.937207,39.3215596 C104.937207,39.8127421 105.018094,40.185525 105.178695,40.4375637 C105.33282,40.6880477 105.611864,40.8338711 105.905505,40.8173802 C106.188354,40.8197863 106.462008,40.7170094 106.673344,40.529001 C106.905975,40.3264102 107.092285,40.0761305 107.219623,39.795158 C107.368409,39.4791647 107.476345,39.1455086 107.540826,38.8022426 C107.615919,38.4243312 107.653225,38.0398857 107.652213,37.6545872 L107.647503,37.6545872 C107.647503,37.1657492 107.565443,36.8 107.402497,36.5549949 C107.249586,36.3168718 106.981889,36.1776696 106.699134,36.1892457 Z M66.4362385,36.3861876 C66.3255221,36.3848204 66.2156079,36.4051306 66.1126911,36.4459735 C66.0043562,36.4923496 65.9000567,36.5476361 65.8008665,36.611264 C65.7018809,36.6775661 65.6092646,36.7529149 65.52421,36.8363405 C65.4351172,36.924261 65.3518858,37.0028033 65.2780326,37.0707951 L64.6262487,40.1304281 C64.6407846,40.211333 64.671054,40.2885995 64.7153415,40.3578491 C64.7643,40.4404913 64.8273883,40.5138958 64.9017329,40.5747197 C64.992433,40.6531511 65.0964561,40.7146915 65.2088685,40.756422 C65.3298079,40.7984481 65.4571461,40.8190761 65.5851682,40.8173802 C65.8457172,40.817692 66.0996964,40.7356308 66.3108053,40.5829256 C66.5499266,40.4103475 66.7497053,40.1889927 66.8969419,39.9334862 C67.0821479,39.627293 67.2178485,39.2937781 67.2990316,38.9452599 C67.3868842,38.5781885 67.4309559,38.2020044 67.4303329,37.8245668 L67.4279817,37.8198777 C67.4285736,37.635589 67.4128823,37.4516083 67.3810907,37.2700815 C67.358046,37.1081519 67.3060265,36.9516962 67.2275229,36.8082059 C67.1546759,36.6791211 67.0486344,36.5718654 66.9203874,36.4975535 C66.7718073,36.4179637 66.6046608,36.379516 66.4362385,36.3861876 Z M71.8615189,36.1892457 C71.5855854,36.1907451 71.3178161,36.2830226 71.0995413,36.4518349 C70.8231636,36.6791689 70.6106685,36.9744805 70.4829256,37.3087666 C70.3444094,37.6282359 70.2463513,37.9637601 70.1910296,38.3075433 C70.1329813,38.6425136 70.1020113,38.9816158 70.09842,39.3215596 C70.09842,39.8127421 70.1804791,40.185525 70.3399083,40.4375637 C70.4942138,40.6878533 70.7731335,40.8336113 71.0667176,40.8173802 C71.3502352,40.8195863 71.6245544,40.7168732 71.8369011,40.529001 C72.0685002,40.3254563 72.254633,40.0754153 72.3831804,39.795158 C72.5307566,39.4789986 72.637509,39.145348 72.7008665,38.8022426 C72.7790843,38.424706 72.8183657,38.0401411 72.8180952,37.6545872 L72.8110601,37.6545872 C72.8110601,37.1657492 72.7278287,36.8 72.5648828,36.5549949 C72.4119708,36.3168718 72.1442743,36.1776696 71.8615189,36.1892457 Z M18.9005607,30.9304281 C16.1550968,30.9304281 14.1423038,33.0170744 14.1423038,35.8633537 C14.1423038,38.6908767 16.1715087,40.7974516 18.9005607,40.7974516 C21.6460245,40.7974516 23.6740571,38.6873598 23.6740571,35.8633537 C23.6740571,33.0170744 21.6460245,30.9304281 18.9005607,30.9304281 Z M93.07263,36.1892457 C92.8169684,36.1901398 92.5682024,36.2722408 92.3622324,36.4237003 C92.1224159,36.6038522 91.9184441,36.8273067 91.7608563,37.0825178 C91.5808687,37.3776824 91.4450107,37.6975804 91.3575943,38.0320591 C91.2540767,38.3962497 91.2012184,38.7729638 91.2005097,39.15158 C91.1994012,39.3388071 91.213515,39.5258144 91.2427115,39.7107543 C91.2652997,39.8664705 91.3144686,40.0171495 91.3880734,40.1562181 C91.4489891,40.2779171 91.5417645,40.3808208 91.656524,40.4539755 C91.7899469,40.5293973 91.9418257,40.5659456 92.0949541,40.5594801 C92.3357401,40.5549808 92.5703009,40.4822142 92.7713558,40.3496432 C93.0081191,40.2019852 93.2234845,40.022514 93.4114169,39.8162589 L93.9647299,37.0344546 C93.9642865,36.9340455 93.9496847,36.8342006 93.9213558,36.7378695 C93.8922722,36.6338566 93.8401911,36.5377071 93.7689602,36.456524 C93.6936708,36.3716943 93.6003407,36.3048011 93.4958206,36.2607543 C93.3608888,36.2091127 93.2170382,36.1848056 93.07263,36.1892457 Z M42.2803772,32.1601427 L40.4492864,36.8492355 L44.2556575,36.8492355 L42.2803772,32.1601427 Z M4.67737003,30.9820082 L3.54729867,30.9820082 L3.54729867,35.0462793 L4.67737003,35.0462793 C6.56238532,35.0462793 7.10045872,34.0228848 7.08287462,32.9361876 C7.06411825,31.7240571 6.3795107,30.9820082 4.67737003,30.9820082 Z" id="Shape"></path>
        </g>
    </g>
</svg>