<?xml version="1.0" encoding="UTF-8" standalone="no"?>
<!-- Created with Inkscape (http://www.inkscape.org/) -->

<svg
   xmlns:dc="http://purl.org/dc/elements/1.1/"
   xmlns:cc="http://creativecommons.org/ns#"
   xmlns:rdf="http://www.w3.org/1999/02/22-rdf-syntax-ns#"
   xmlns:svg="http://www.w3.org/2000/svg"
   xmlns="http://www.w3.org/2000/svg"
   xmlns:sodipodi="http://sodipodi.sourceforge.net/DTD/sodipodi-0.dtd"
   xmlns:inkscape="http://www.inkscape.org/namespaces/inkscape"
   width="210mm"
   height="297mm"
   viewBox="0 0 744.09448819 1052.3622047"
   id="svg3372"
   version="1.1"
   inkscape:version="0.91 r13725"
   sodipodi:docname="email-logo.svg">
  <defs
     id="defs3374" />
  <sodipodi:namedview
     id="base"
     pagecolor="#ffffff"
     bordercolor="#666666"
     borderopacity="1.0"
     inkscape:pageopacity="0.0"
     inkscape:pageshadow="2"
     inkscape:zoom="2.8"
     inkscape:cx="202.78009"
     inkscape:cy="39.85132"
     inkscape:document-units="px"
     inkscape:current-layer="layer1"
     showgrid="false"
     inkscape:window-width="3840"
     inkscape:window-height="2031"
     inkscape:window-x="0"
     inkscape:window-y="55"
     inkscape:window-maximized="1" />
  <metadata
     id="metadata3377">
    <rdf:RDF>
      <cc:Work
         rdf:about="">
        <dc:format>image/svg+xml</dc:format>
        <dc:type
           rdf:resource="http://purl.org/dc/dcmitype/StillImage" />
        <dc:title></dc:title>
      </cc:Work>
    </rdf:RDF>
  </metadata>
  <g
     inkscape:label="Layer 1"
     inkscape:groupmode="layer"
     id="layer1">
    <rect
       style="fill:#eeeeee;fill-opacity:1;fill-rule:evenodd;stroke:none;stroke-width:1px;stroke-linecap:butt;stroke-linejoin:miter;stroke-opacity:1"
       id="rect3380"
       width="606.42853"
       height="102.5"
       x="12.857142"
       y="937.71936" />
    <path
       style="color:#000000;display:inline;overflow:visible;visibility:visible;fill:#20bbdf;fill-opacity:1;fill-rule:nonzero;stroke:none;stroke-width:3.54330707;marker:none;enable-background:accumulate"
       d="m 58.197149,939.92667 c -23.83446,0 -43.15204,19.31758 -43.15204,43.15202 0,20.03231 13.64373,36.87581 32.14919,41.74021 l 10.5962,13.5502 10.389,-13.297 c 19.02022,-4.5053 33.177351,-21.5959 33.177351,-41.99341 0,-23.83444 -19.325241,-43.15202 -43.159701,-43.15202 z"
       id="path2982-5-04-3"
       inkscape:connector-curvature="0" />
    <path
       style="color:#000000;display:inline;overflow:visible;visibility:visible;fill:#ffffff;fill-opacity:1;fill-rule:nonzero;stroke:none;stroke-width:15;marker:none;enable-background:accumulate"
       d="m 58.197149,956.23912 c -14.80226,0 -26.83958,12.0373 -26.83958,26.83957 0,14.80226 12.03732,26.84731 26.83958,26.84731 14.802269,0 26.83959,-12.04505 26.83959,-26.84731 0,-14.80227 -12.037321,-26.83957 -26.83959,-26.83957 z m 0,3.68296 c 12.811849,0 23.15663,10.34476 23.15663,23.15661 0,12.81184 -10.344781,23.16431 -23.15663,23.16431 -12.81184,0 -23.15662,-10.35247 -23.15662,-23.16431 0,-5.77595 2.1014,-11.04869 5.58582,-15.10015 l 8.25598,8.25598 1.70337,1.71105 0.8747,0.8747 4.05126,4.04358 c 0.0488,0.0488 0.0937,0.0954 0.14577,0.13811 0.002,0.003 0.006,0 0.008,0 0.0505,0.0411 0.1003,0.0797 0.15345,0.1151 0.002,0 0.006,-0.003 0.008,0 0.0531,0.0352 0.10578,0.0703 0.16114,0.0997 0.0591,0.0318 0.1153,0.0592 0.17647,0.0844 0.0593,0.0243 0.11569,0.0431 0.17648,0.0614 0.12432,0.0381 0.24797,0.0642 0.37596,0.0767 0.12488,0.0123 0.25111,0.0123 0.37598,0 0.18729,-0.0181 0.3749,-0.065 0.55245,-0.13811 0.23706,-0.0975 0.45708,-0.24224 0.65218,-0.43736 0.0488,-0.0488 0.0954,-0.10141 0.13811,-0.15346 0.17071,-0.20834 0.29515,-0.43926 0.36829,-0.68287 0.0366,-0.12181 0.0569,-0.24295 0.0691,-0.3683 0.012,-0.12284 0.0115,-0.25309 0,-0.37598 -2.4e-4,-0.003 0,-0.005 0,-0.008 -0.0123,-0.12534 -0.0325,-0.24646 -0.0691,-0.3683 -0.0177,-0.0587 -0.0458,-0.1192 -0.069,-0.17646 0,-0.003 0,-0.006 0,-0.008 -0.0976,-0.23745 -0.24224,-0.45707 -0.43736,-0.6522 l -4.04358,-4.04357 -0.8747,-0.87471 -1.71106,-1.71105 -8.22528,-8.22529 c 4.00409,-3.30702 9.14362,-5.29423 14.75488,-5.29423 z m -0.45271,8.17157 c -0.44829,0 -0.89179,0.17057 -1.23531,0.51407 l -3.97453,3.96686 1.71103,1.71104 5.20987,-5.20985 -0.46806,-0.46805 c -0.34349,-0.3435 -0.79468,-0.51407 -1.243,-0.51407 z m 2.58576,1.85682 -5.20987,5.20985 4.0436,4.04359 c 1.24631,1.24632 1.24631,3.28066 0,4.52698 -1.24631,1.24631 -3.28066,1.24631 -4.52697,0 l -4.0436,-4.0436 -5.14846,5.14849 11.92359,11.92359 c 0,0 8.68093,0.91011 12.176779,-2.58576 3.49587,-3.49585 2.70852,-12.29955 2.70852,-12.29955 L 60.330199,969.95047 Z m -7.0897,6.92856 c 0.23004,0 0.46133,0.0854 0.63683,0.26088 0.35101,0.35101 0.35101,0.92268 0,1.27369 -0.35101,0.35101 -0.92268,0.35101 -1.27369,0 -0.35101,-0.35101 -0.35101,-0.92268 0,-1.27369 0.17551,-0.1755 0.40682,-0.26088 0.63686,-0.26088 z m -5.23288,0.22253 -3.90548,3.90546 c -0.68702,0.68702 -0.68702,1.79898 0,2.486 l 0.46805,0.46806 5.14846,-5.14849 -1.71103,-1.71103 z m 8.77005,3.30698 c 0.23003,0 0.45366,0.0931 0.62917,0.26856 0.35101,0.35101 0.35101,0.915 0,1.266 -0.35101,0.35102 -0.915,0.35102 -1.26601,0 -0.35101,-0.351 -0.35101,-0.91499 0,-1.266 0.17551,-0.17551 0.40682,-0.26856 0.63684,-0.26856 z"
       id="rect3772-9-2-4"
       inkscape:connector-curvature="0" />
    <text
       xml:space="preserve"
       style="font-style:normal;font-weight:normal;font-size:75.55453491px;line-height:125%;font-family:Sans;letter-spacing:0px;word-spacing:0px;fill:#000000;fill-opacity:1;stroke:none"
       x="123.43143"
       y="1023.8945"
       id="text4249-3"
       sodipodi:linespacing="125%"><tspan
         sodipodi:role="line"
         id="tspan4251-8"
         x="123.43143"
         y="1023.8945"
         style="font-style:normal;font-variant:normal;font-weight:normal;font-stretch:normal;font-size:75.55453491px;line-height:125%;font-family:ChunkFive;-inkscape-font-specification:ChunkFive;text-align:start;writing-mode:lr-tb;text-anchor:start">FixaMinGata</tspan></text>
  </g>
</svg>
