<?xml version="1.0" encoding="UTF-8" standalone="no"?>
<svg
   xmlns:dc="http://purl.org/dc/elements/1.1/"
   xmlns:cc="http://creativecommons.org/ns#"
   xmlns:rdf="http://www.w3.org/1999/02/22-rdf-syntax-ns#"
   xmlns:svg="http://www.w3.org/2000/svg"
   xmlns="http://www.w3.org/2000/svg"
   xmlns:sodipodi="http://sodipodi.sourceforge.net/DTD/sodipodi-0.dtd"
   xmlns:inkscape="http://www.inkscape.org/namespaces/inkscape"
   width="175"
   height="35"
   viewBox="0 0 175 35"
   version="1.1"
   id="svg58"
   sodipodi:docname="site-logo.svg"
   inkscape:version="0.92.3 (2405546, 2018-03-11)">
  <metadata
     id="metadata64">
    <rdf:RDF>
      <cc:Work
         rdf:about="">
        <dc:format>image/svg+xml</dc:format>
        <dc:type
           rdf:resource="http://purl.org/dc/dcmitype/StillImage" />
        <dc:title></dc:title>
      </cc:Work>
    </rdf:RDF>
  </metadata>
  <defs
     id="defs62" />
  <sodipodi:namedview
     pagecolor="#ffffff"
     bordercolor="#666666"
     borderopacity="1"
     objecttolerance="10"
     gridtolerance="10"
     guidetolerance="10"
     inkscape:pageopacity="0"
     inkscape:pageshadow="2"
     inkscape:window-width="1920"
     inkscape:window-height="1017"
     id="namedview60"
     showgrid="false"
     inkscape:zoom="2.8284271"
     inkscape:cx="194.41893"
     inkscape:cy="-36.107995"
     inkscape:window-x="-8"
     inkscape:window-y="-8"
     inkscape:window-maximized="1"
     inkscape:current-layer="svg58" />
  <path
     style="color:#000000;display:inline;overflow:visible;visibility:visible;fill:#20bbdf;fill-opacity:1;fill-rule:nonzero;stroke:none;stroke-width:1.25977862;marker:none;enable-background:accumulate"
     d="M 15.34217,0 C 6.8681255,0 0,6.868125 0,15.342163 0,22.4644 4.8508582,28.452911 11.430245,30.182384 L 15.19759,35 18.891269,30.272411 C 25.653673,28.67061 30.687063,22.594254 30.687063,15.342163 30.687063,6.868125 23.816215,0 15.34217,0 Z"
     id="path2982-5-04-3-5"
     inkscape:connector-curvature="0" />
  <path
     style="color:#000000;display:inline;overflow:visible;visibility:visible;fill:#ffffff;fill-opacity:1;fill-rule:nonzero;stroke:none;stroke-width:5.33306313;marker:none;enable-background:accumulate"
     d="m 15.34217,5.7996882 c -5.262759,0 -9.5424784,4.2797118 -9.5424784,9.5424748 0,5.262758 4.2797194,9.545212 9.5424784,9.545212 5.262762,0 9.542481,-4.282454 9.542481,-9.545212 0,-5.262763 -4.279719,-9.5424748 -9.542481,-9.5424748 z m 0,1.3094308 c 4.555093,0 8.233051,3.67795 8.233051,8.233044 0,4.555089 -3.677958,8.235781 -8.233051,8.235781 -4.555091,0 -8.2330474,-3.680692 -8.2330474,-8.235781 0,-2.053567 0.7471266,-3.928225 1.9859684,-5.368671 l 2.935311,2.935311 0.605611,0.608343 0.310989,0.310988 1.440375,1.437645 c 0.01735,0.01735 0.03331,0.03392 0.05183,0.0491 7.1e-4,0.0011 0.0021,0 0.0028,0 0.01795,0.01462 0.03566,0.02834 0.05455,0.04092 7.11e-4,0 0.0021,-10e-4 0.0028,0 0.01888,0.01252 0.03762,0.025 0.05729,0.03545 0.02101,0.0113 0.041,0.02105 0.06274,0.03001 0.02108,0.0087 0.04113,0.01533 0.06274,0.02183 0.0442,0.01355 0.08816,0.02282 0.133668,0.02727 0.0444,0.0044 0.08928,0.0044 0.133677,0 0.06658,-0.0064 0.13329,-0.02311 0.196416,-0.0491 0.08429,-0.03467 0.162509,-0.08613 0.231874,-0.155498 0.01735,-0.01735 0.03392,-0.03606 0.0491,-0.05456 0.06069,-0.07407 0.104939,-0.156174 0.130942,-0.242786 0.01301,-0.04331 0.02023,-0.08638 0.02456,-0.130944 0.0042,-0.04368 0.0041,-0.08999 0,-0.133675 -8.6e-5,-0.001 0,-0.0018 0,-0.0029 -0.0043,-0.04456 -0.01156,-0.08763 -0.02456,-0.130944 -0.0063,-0.02087 -0.01628,-0.04238 -0.02453,-0.06274 0,-0.001 0,-0.0021 0,-0.0029 -0.0347,-0.08442 -0.08613,-0.162506 -0.155498,-0.231883 L 13.940297,12.834792 13.629309,12.5238 13.020962,11.915458 10.096567,8.991058 c 1.423604,-1.175769 3.2509,-1.882297 5.245913,-1.882297 z m -0.160956,2.905299 c -0.159384,0 -0.317064,0.06064 -0.439199,0.182772 l -1.413094,1.410368 0.608334,0.608338 1.852305,-1.852297 -0.166413,-0.166409 c -0.122123,-0.122128 -0.282538,-0.182772 -0.441933,-0.182772 z m 0.919335,0.660169 -1.852304,1.852298 1.437652,1.437648 c 0.443109,0.443114 0.443109,1.166398 0,1.609511 -0.443112,0.443111 -1.166398,0.443111 -1.609509,0 l -1.437651,-1.437651 -1.830471,1.830481 4.239284,4.239284 c 0,0 3.086397,0.323578 4.329303,-0.919334 1.242912,-1.242906 0.962981,-4.372953 0.962981,-4.372953 z m -2.520654,2.463364 c 0.08178,0 0.16402,0.03037 0.226417,0.09275 0.124796,0.124797 0.124796,0.328047 0,0.452844 -0.124797,0.124798 -0.328048,0.124798 -0.452845,0 -0.124797,-0.124797 -0.124797,-0.328047 0,-0.452844 0.0624,-0.0624 0.144639,-0.09275 0.226428,-0.09275 z m -1.860486,0.07912 -1.388545,1.388538 c -0.244261,0.244261 -0.244261,0.639605 0,0.883866 l 0.16641,0.166413 1.830472,-1.830482 z m 3.118082,1.175755 c 0.08178,0 0.161294,0.0331 0.223693,0.09548 0.124798,0.124797 0.124798,0.325317 0,0.45011 -0.124797,0.124801 -0.325316,0.124801 -0.450114,0 -0.124797,-0.124793 -0.124797,-0.325313 0,-0.45011 0.0624,-0.0624 0.144641,-0.09548 0.226421,-0.09548 z"
     id="rect3772-9-2-4-0"
     inkscape:connector-curvature="0" />
  <g
     transform="matrix(0.28296061,0,0,0.28296061,-7.6390861,-12.525227)"
     style="font-style:normal;font-weight:normal;font-size:75.55453491px;line-height:125%;font-family:Sans;letter-spacing:0px;word-spacing:0px;fill:#000000;fill-opacity:1;stroke:none"
     id="text4249-3-9">
    <path
       inkscape:connector-curvature="0"
       d="m 148.41624,90.072222 v 9.973198 h 4.68438 v 32.79067 h -4.68438 v 10.04875 h 28.10628 v -10.04875 h -7.70656 v -9.59543 h 14.35536 v -10.04875 h -14.35536 v -13.14649 h 11.40874 v 6.72435 h 13.37315 V 90.072222 h -45.18161"
       style="font-variant:normal;font-stretch:normal;line-height:125%;font-family:ChunkFive;-inkscape-font-specification:ChunkFive;text-align:start;writing-mode:lr-tb;text-anchor:start"
       id="path6079" />
    <path
       inkscape:connector-curvature="0"
       d="m 198.78632,94.076612 c 0,3.626614 3.39996,7.631008 8.15989,7.631008 5.36437,0 8.311,-3.475512 8.311,-7.631008 0,-3.475505 -3.09774,-7.706562 -8.311,-7.706562 -5.28881,0 -8.15989,4.231057 -8.15989,7.706562 m 19.03974,48.808228 v -9.89764 h -3.62662 v -27.87963 h -17.52865 v 9.82209 h 3.17329 v 18.05754 h -3.17329 v 9.89764 h 21.15527"
       style="font-variant:normal;font-stretch:normal;line-height:125%;font-family:ChunkFive;-inkscape-font-specification:ChunkFive;text-align:start;writing-mode:lr-tb;text-anchor:start"
       id="path6081" />
    <path
       inkscape:connector-curvature="0"
       d="m 248.05378,105.10757 v 9.44432 h 5.06215 l -5.66659,5.74215 -5.28882,-5.74215 h 3.55107 v -9.44432 h -24.47967 v 9.44432 h 3.39995 l 9.36876,10.27542 -7.70656,8.68877 h -5.06215 v 9.36876 h 19.34196 v -9.36876 h -4.91105 l 5.43993,-6.11992 5.74214,6.11992 h -3.55106 v 9.36876 h 24.1019 v -9.36876 h -3.55107 l -9.51987,-10.87985 8.00878,-8.08434 h 4.9866 v -9.44432 h -19.2664"
       style="font-variant:normal;font-stretch:normal;line-height:125%;font-family:ChunkFive;-inkscape-font-specification:ChunkFive;text-align:start;writing-mode:lr-tb;text-anchor:start"
       id="path6083" />
    <path
       inkscape:connector-curvature="0"
       d="m 274.60648,117.04519 c 2.87107,-1.58664 6.79991,-3.47551 11.25763,-3.47551 4.07994,0 7.17768,0.83111 7.17768,4.23106 v 2.64441 c -0.37778,-0.45333 -3.02219,-2.64441 -7.4799,-2.64441 -8.53766,0 -15.71535,5.36438 -15.71535,13.90203 0,8.76432 7.70657,12.61761 14.88425,12.61761 2.71996,0 7.40434,-0.98221 10.19986,-4.83549 l 1.81331,3.39995 h 16.16867 v -9.67098 h -4.53327 v -14.73313 c 0,-12.16427 -11.40875,-15.56424 -20.47528,-15.56424 -6.95101,0 -13.44871,3.55107 -16.47089,5.36437 l 3.17329,8.76433 m 18.43531,14.9598 c -0.67999,1.13332 -2.56886,2.4933 -4.83549,2.4933 -2.26664,0 -4.00439,-1.43554 -4.00439,-3.55106 0,-2.34219 1.35998,-4.00439 4.38216,-4.00439 3.17329,0 4.23105,1.8133 4.45772,2.19108 v 2.87107"
       style="font-variant:normal;font-stretch:normal;line-height:125%;font-family:ChunkFive;-inkscape-font-specification:ChunkFive;text-align:start;writing-mode:lr-tb;text-anchor:start"
       id="path6085" />
    <path
       inkscape:connector-curvature="0"
       d="m 368.64236,103.36982 v 4.45772 25.23521 h -4.23105 v 9.82209 h 23.87523 v -9.82209 h -4.1555 V 99.818757 h 4.1555 v -9.746535 h -28.78628 l -7.25323,28.257398 -7.63101,-28.257398 h -28.63517 v 9.746535 h 4.00439 v 33.319553 h -4.07994 v 9.74653 h 20.47528 v -9.74653 h -4.30661 v -29.76849 h 0.30222 c 0.22666,3.77772 1.20887,8.08434 1.58664,9.36876 l 8.46211,30.14626 h 15.7909 l 7.93322,-29.39071 c 0.52888,-1.73775 1.58665,-6.72436 2.19108,-10.12431 h 0.30222"
       style="font-variant:normal;font-stretch:normal;line-height:125%;font-family:ChunkFive;-inkscape-font-specification:ChunkFive;text-align:start;writing-mode:lr-tb;text-anchor:start"
       id="path6087" />
    <path
       inkscape:connector-curvature="0"
       d="m 394.16563,94.076612 c 0,3.626614 3.39996,7.631008 8.15989,7.631008 5.36437,0 8.311,-3.475512 8.311,-7.631008 0,-3.475505 -3.09774,-7.706562 -8.311,-7.706562 -5.28881,0 -8.15989,4.231057 -8.15989,7.706562 m 19.03974,48.808228 v -9.89764 h -3.62661 V 105.10757 H 392.0501 v 9.82209 h 3.17329 v 18.05754 h -3.17329 v 9.89764 h 21.15527"
       style="font-variant:normal;font-stretch:normal;line-height:125%;font-family:ChunkFive;-inkscape-font-specification:ChunkFive;text-align:start;writing-mode:lr-tb;text-anchor:start"
       id="path6089" />
    <path
       inkscape:connector-curvature="0"
       d="m 440.25979,142.88484 v -9.89764 h -5.43993 v -10.72875 c 0,-3.24884 0.90666,-7.02657 4.75994,-7.02657 4.45771,0 4.23105,4.45772 4.23105,7.02657 v 20.62639 h 19.03974 v -9.89764 h -3.55106 v -12.61761 c 0,-7.93322 -1.96443,-16.622 -13.67537,-16.622 -4.75993,0 -8.23545,2.49331 -10.8043,6.04437 l -1.73775,-4.68439 h -16.09312 v 9.82209 h 3.17329 v 18.05754 h -3.17329 v 9.89764 h 23.2708"
       style="font-variant:normal;font-stretch:normal;line-height:125%;font-family:ChunkFive;-inkscape-font-specification:ChunkFive;text-align:start;writing-mode:lr-tb;text-anchor:start"
       id="path6091" />
    <path
       inkscape:connector-curvature="0"
       d="m 503.30889,142.88484 h 15.11091 v -18.88863 h 3.02218 v -8.08434 h -25.08411 v 8.08434 h 4.60883 v 3.17329 c -1.13332,1.96441 -2.94663,3.70217 -7.25324,3.70217 -6.57323,0 -10.35097,-6.19548 -10.35097,-13.90203 0,-7.55545 4.23106,-14.20426 10.35097,-14.20426 4.45772,0 8.38656,3.47552 8.61322,9.59543 h 13.52426 V 90.072222 h -11.25762 l -1.58665,5.439927 c -1.20887,-1.208872 -3.77774,-6.346581 -14.73313,-6.346581 -11.7865,0 -23.19525,11.333192 -23.19525,27.804072 0,16.31976 10.5021,26.59519 23.72413,26.59519 5.81769,0 10.50208,-2.64441 12.16428,-5.43992 l 2.34219,4.75993"
       style="font-variant:normal;font-stretch:normal;line-height:125%;font-family:ChunkFive;-inkscape-font-specification:ChunkFive;text-align:start;writing-mode:lr-tb;text-anchor:start"
       id="path6093" />
    <path
       inkscape:connector-curvature="0"
       d="m 528.42249,117.04519 c 2.87107,-1.58664 6.79991,-3.47551 11.25763,-3.47551 4.07994,0 7.17768,0.83111 7.17768,4.23106 v 2.64441 c -0.37778,-0.45333 -3.02219,-2.64441 -7.4799,-2.64441 -8.53766,0 -15.71535,5.36438 -15.71535,13.90203 0,8.76432 7.70657,12.61761 14.88425,12.61761 2.71996,0 7.40434,-0.98221 10.19986,-4.83549 l 1.81331,3.39995 h 16.16867 v -9.67098 h -4.53327 v -14.73313 c 0,-12.16427 -11.40875,-15.56424 -20.47528,-15.56424 -6.95101,0 -13.44871,3.55107 -16.47089,5.36437 l 3.17329,8.76433 m 18.43531,14.9598 c -0.67999,1.13332 -2.56886,2.4933 -4.83549,2.4933 -2.26664,0 -4.00439,-1.43554 -4.00439,-3.55106 0,-2.34219 1.35998,-4.00439 4.38216,-4.00439 3.17329,0 4.23105,1.8133 4.45772,2.19108 v 2.87107"
       style="font-variant:normal;font-stretch:normal;line-height:125%;font-family:ChunkFive;-inkscape-font-specification:ChunkFive;text-align:start;writing-mode:lr-tb;text-anchor:start"
       id="path6095" />
    <path
       inkscape:connector-curvature="0"
       d="m 568.96578,105.10757 v 9.82209 h 4.07994 v 13.44871 c 0.22666,9.67097 0.60445,15.86645 11.93762,15.86645 1.73775,0 6.87546,-0.52888 9.1421,-1.43553 v -9.67098 c -1.43554,0.60443 -3.77773,1.28442 -4.75994,1.28442 -2.94662,0 -2.41774,-3.47551 -2.41774,-6.04436 v -13.44871 h 7.17768 v -9.82209 h -7.17768 V 93.69884 l -13.90204,4.457717 v 6.951013 h -4.07994"
       style="font-variant:normal;font-stretch:normal;line-height:125%;font-family:ChunkFive;-inkscape-font-specification:ChunkFive;text-align:start;writing-mode:lr-tb;text-anchor:start"
       id="path6097" />
    <path
       inkscape:connector-curvature="0"
       d="m 601.17325,117.04519 c 2.87107,-1.58664 6.79992,-3.47551 11.25763,-3.47551 4.07994,0 7.17768,0.83111 7.17768,4.23106 v 2.64441 c -0.37777,-0.45333 -3.02219,-2.64441 -7.4799,-2.64441 -8.53765,0 -15.71534,5.36438 -15.71534,13.90203 0,8.76432 7.70657,12.61761 14.88424,12.61761 2.71996,0 7.40435,-0.98221 10.19986,-4.83549 l 1.81331,3.39995 h 16.16867 v -9.67098 h -4.53327 v -14.73313 c 0,-12.16427 -11.40874,-15.56424 -20.47528,-15.56424 -6.95101,0 -13.44871,3.55107 -16.47089,5.36437 l 3.17329,8.76433 m 18.43531,14.9598 c -0.67999,1.13332 -2.56886,2.4933 -4.83549,2.4933 -2.26663,0 -4.00439,-1.43554 -4.00439,-3.55106 0,-2.34219 1.35998,-4.00439 4.38216,-4.00439 3.17329,0 4.23106,1.8133 4.45772,2.19108 v 2.87107"
       style="font-variant:normal;font-stretch:normal;line-height:125%;font-family:ChunkFive;-inkscape-font-specification:ChunkFive;text-align:start;writing-mode:lr-tb;text-anchor:start"
       id="path6099" />
  </g>
</svg>
