<svg fill="none" height="103" viewBox="0 0 500 103" width="500" xmlns="http://www.w3.org/2000/svg" xmlns:xlink="http://www.w3.org/1999/xlink"><clipPath id="a"><path d="m0 0h500v103h-500z"/></clipPath><g clip-path="url(#a)"><path d="m401.821 103.377h97.68v-102.877385h-97.68z" fill="#004289"/><path d="m443.728 74.0724c2.424-.808 3.735-3.4325 2.927-5.8597-.808-2.424-3.436-3.7346-5.857-2.9234-2.427.8112-3.738 3.4324-2.927 5.8564.808 2.4272 3.433 3.7378 5.857 2.9267z" fill="#fff"/><path d="m473.213 45.9848c1.94-.649 2.99-2.7485 2.344-4.689-.652-1.9437-2.751-2.9903-4.692-2.3413-1.94.6489-2.99 2.7453-2.341 4.689.649 1.9404 2.745 2.9902 4.689 2.3413z" fill="#fff"/><path d="m451.563 65.2493c2.065-.6871 3.175-2.9171 2.488-4.9784-.687-2.0614-2.917-3.1748-4.978-2.4877-2.062.6904-3.175 2.9203-2.488 4.9817.69 2.0582 2.917 3.1747 4.978 2.4844z" fill="#fff"/><path d="m481.126 40.0627c1.584-.5312 2.443-2.2427 1.912-3.8269-.531-1.5873-2.243-2.4431-3.827-1.915-1.584.5313-2.44 2.2459-1.912 3.8301s2.24 2.4399 3.827 1.9118z" fill="#fff"/><path d="m488.109 35.5369c1.269-.4231 1.956-1.7941 1.526-3.0634-.419-1.2661-1.791-1.95-3.06-1.5269-1.269.4199-1.953 1.7941-1.53 3.0602.423 1.2693 1.794 1.9532 3.064 1.5301z" fill="#fff"/><path d="m494.405 32.1471c1.011-.3404 1.562-1.4347 1.221-2.4495-.334-1.0148-1.431-1.5651-2.449-1.2247-1.012.3403-1.559 1.4346-1.225 2.4494.34 1.0148 1.438 1.5619 2.453 1.2248z" fill="#fff"/><path d="m446.88 36.0061-17.261 45.7h-15.848l24.214-60.0532h17.347l26.677 60.0532h-16.116z" fill="#fff"/><g fill="#004289"><path d="m19.2711 28.0756-5.2583 13.9302h11.0416zm20.9795 27.2877h-9.6229l-2.9425-7.0971h-16.0392l-2.68168 7.0971h-9.463832l14.461412-35.8608h10.3577z"/><path d="m51.8122 48.6858c1.6319 1.4187 2.9966 2.0486 4.5235 2.0486 3.5756 0 5.8342-2.7835 5.8342-7.676 0-5.1503-2.7867-7.3039-5.9424-7.3039-1.4696 0-2.6276.4199-4.4153 1.6796zm0-16.1951c2.4176-1.422 3.8905-1.8387 6.2572-1.8387 6.9921 0 11.8306 5.1025 11.8306 12.5113 0 7.4693-4.6794 12.6736-11.3057 12.6736-2.4177 0-4.6794-.7857-6.7821-2.3127v1.8387h-7.6252v-35.8607h7.6252z"/><path d="m93.0281 40.4807c-.3149-3.3116-2.3126-5.3093-5.2584-5.3093-2.9966 0-4.9402 1.9468-5.2552 5.3093zm6.3114 12.1487c-4.3645 3.2065-8.939 3.2065-10.8317 3.2065-8.5191 0-14.0383-4.9402-14.0383-12.5145 0-7.4152 5.3125-12.6704 12.7754-12.6704 7.0461 0 12.8831 4.9944 12.5145 13.8283h-17.4039c.264 4.3105 3.2065 6.8363 7.9941 6.8363 3.0444 0 5.4143-.8939 8.9899-3.4706z"/><path d="m113.267 38.0629h.102c2.265-5.0484 4.788-7.412 7.73-7.412 1.527 0 2.841.579 5.052 2.2077l-2.106 6.728c-1.995-1.2597-3.312-1.7846-4.521-1.7846-2.786 0-4.574 2.6276-6.257 7.0971v10.4627h-7.625v-24.2401h7.625z"/><path d="m145.708 37.1701c-1.103-.7889-2.888-1.4156-4.259-1.4156-3.837 0-6.095 2.7835-6.095 7.622 0 4.4185 2.258 7.3579 5.831 7.3579 1.635 0 2.949-.5758 4.523-1.9977zm7.626 18.1928h-7.626v-1.9468c-2.156 1.7369-4.154 2.4208-6.731 2.4208-6.518 0-11.356-5.3634-11.356-12.6195 0-7.412 4.838-12.5654 11.779-12.5654 2.208 0 4.26.5249 6.308 1.5238v-12.6736h7.626z"/><path d="m177.675 40.4807c-.318-3.3116-2.315-5.3093-5.258-5.3093-3 0-4.943 1.9468-5.258 5.3093zm6.305 12.1487c-4.361 3.2065-8.935 3.2065-10.828 3.2065-8.522 0-14.042-4.9402-14.042-12.5145 0-7.4152 5.313-12.6704 12.782-12.6704 7.043 0 12.877 4.9944 12.511 13.8283h-17.403c.26 4.3105 3.209 6.8363 7.99 6.8363 3.051 0 5.415-.8939 8.99-3.4706z"/><path d="m207.427 40.4807c-.315-3.3116-2.312-5.3093-5.258-5.3093-2.994 0-4.944 1.9468-5.258 5.3093zm6.308 12.1487c-4.364 3.2065-8.935 3.2065-10.828 3.2065-8.519 0-14.042-4.9402-14.042-12.5145 0-7.4152 5.313-12.6704 12.779-12.6704 7.043 0 12.88 4.9944 12.511 13.8283h-17.4c.261 4.3105 3.206 6.8363 7.991 6.8363 3.05 0 5.414-.8939 8.989-3.4706z"/><path d="m227.457 34.5942c2.417-2.7834 4.781-3.9445 7.886-3.9445 3.785 0 8.834 2.1536 8.834 9.3079v15.4062h-7.629v-14.7763c0-3.4165-1.628-4.8353-3.782-4.8353-1.893 0-3.312.9957-5.309 3.9955v15.6161h-7.625v-24.2402h7.625z"/><path d="m267.883 37.8531c-3.312-2.0487-6.572-2.6817-8.099-2.6817-.996 0-2.73.2099-2.73 1.8959 0 2.6785 12.038 2.7867 12.038 10.8826 0 5.0453-3.573 7.886-9.884 7.886-3.89 0-7.628-1.2088-8.675-1.7878v-5.3633c2.469 1.0529 4.94 2.0518 7.832 2.0518 2.262 0 3.681-.6839 3.681-1.7878 0-3.5215-12.038-2.8916-12.038-10.8317 0-4.4695 4.047-7.4661 10.04-7.4661 3.051 0 5.309.5249 7.835 1.7878z"/><path d="m282.126 34.6992h.105c2.211-2.7866 4.683-4.0495 7.68-4.0495 4.412 0 8.881 2.6848 8.881 9.257v15.4571h-7.622v-13.8315c0-3.6265-1.578-5.3093-3.944-5.3093-1.788 0-3.312 1.107-5.1 3.6837v15.4571h-7.622v-35.8608h7.622z"/><path d="m313.564 55.3613h-7.622v-24.2401h7.622zm.366-32.1261c0 2.3127-1.89 4.2086-4.206 4.2086-2.312 0-4.205-1.8959-4.205-4.2086s1.893-4.2022 4.205-4.2022c2.316 0 4.206 1.8895 4.206 4.2022z"/><path d="m328.596 38.0629h.108c2.262-5.0484 4.781-7.412 7.724-7.412 1.526 0 2.84.579 5.051 2.2077l-2.103 6.728c-1.997-1.2597-3.311-1.7846-4.523-1.7846-2.784 0-4.575 2.6276-6.257 7.0971v10.4627h-7.622v-24.2401h7.622z"/><path d="m361.361 40.4807c-.315-3.3116-2.313-5.3093-5.258-5.3093-3 0-4.941 1.9468-5.259 5.3093zm6.311 12.1487c-4.364 3.2065-8.939 3.2065-10.835 3.2065-8.519 0-14.038-4.9402-14.038-12.5145 0-7.4152 5.313-12.6704 12.779-12.6704 7.046 0 12.883 4.9944 12.511 13.8283h-17.401c.261 4.3105 3.204 6.8363 7.991 6.8363 3.051 0 5.411-.8939 8.993-3.4706z"/><path d="m216.281 88.0543c-2.319-1.352-4.307-1.9596-6.486-1.9596-4.307 0-7.511 3.0634-7.511 7.2052 0 4.2246 3.095 7.1511 7.622 7.1511 2.125 0 4.444-.7443 6.569-2.1281v2.9521c-1.848.967-3.865 1.661-6.817 1.661-7.068 0-10.16-5.4402-10.16-9.3879 0-5.742 4.332-9.9379 10.322-9.9379 1.934 0 3.894.4709 6.461 1.5461z"/><path d="m236.737 100.451c4.222 0 7.345-3.067 7.345-7.1802 0-4.1386-3.123-7.1766-7.345-7.1766-4.196 0-7.316 3.038-7.316 7.1766 0 4.1132 3.12 7.1802 7.316 7.1802zm0-16.8412c6.21 0 10.132 4.4154 10.132 9.661 0 5.0803-3.811 9.6642-10.189 9.6642-6.152 0-10.046-4.5553-10.046-9.6642 0-5.217 4.002-9.661 10.103-9.661z"/><path d="m273.673 95.2867c0 4.6094-2.764 7.6473-8.366 7.6473-3.973 0-7.841-2.236-7.841-7.3738v-11.7001h2.707v11.1212c0 2.125.273 3.0093 1.132 3.8682 1.079 1.0784 2.427 1.6005 4.056 1.6005 2.074 0 3.563-.662 4.419-1.5178.964-.967 1.186-2.3476 1.186-4.1163v-10.9558h2.707z"/><path d="m302.488 102.684h-2.312l-12.591-14.4899v14.4899h-2.539v-18.8226h2.151l12.753 14.5727v-14.5727h2.538z"/><path d="m330.343 88.0543c-2.319-1.352-4.307-1.9596-6.486-1.9596-4.304 0-7.508 3.0634-7.508 7.2052 0 4.2246 3.092 7.1511 7.622 7.1511 2.122 0 4.444-.7443 6.566-2.1281v2.9521c-1.848.967-3.865 1.661-6.82 1.661-7.065 0-10.157-5.4402-10.157-9.3879 0-5.742 4.335-9.9379 10.322-9.9379 1.934 0 3.894.4709 6.461 1.5461z"/><path d="m344.255 102.684h-2.707v-18.8231h2.707z"/><path d="m358.778 100.255h8.5v2.431h-11.207v-18.8263h2.707z"/></g></g></svg>