<?xml version="1.0" standalone="no"?>
<!DOCTYPE svg PUBLIC "-//W3C//DTD SVG 1.1//EN" "http://www.w3.org/Graphics/SVG/1.1/DTD/svg11.dtd" >
<svg xmlns="http://www.w3.org/2000/svg">
<metadata>
<json>
{
	"fontFamily": "bcc",
	"majorVersion": 1,
	"minorVersion": 0,
	"version": "Version 1.0",
	"fontId": "bcc",
	"psName": "bcc",
	"subFamily": "Regular",
	"fullName": "bcc",
	"description": "Font generated by IcoMoon."
}
</json>
</metadata>
<defs>
<font id="bcc" horiz-adv-x="1024">
<font-face units-per-em="1024" ascent="960" descent="-64" />
<missing-glyph horiz-adv-x="1024" />
<glyph unicode="&#x20;" d="" horiz-adv-x="512" />
<glyph unicode="&#xe600;" d="M256 739.2c41.6 0 73.6 32 73.6 73.6v73.6c0 41.6-32 73.6-73.6 73.6s-73.6-32-73.6-73.6v-73.6c0-38.4 32-73.6 73.6-73.6zM768 739.2c41.6 0 73.6 32 73.6 73.6v73.6c0 41.6-32 73.6-73.6 73.6s-73.6-32-73.6-73.6v-73.6c0-38.4 32-73.6 73.6-73.6zM1004.8 886.4h-128v-92.8c0-51.2-54.4-89.6-108.8-89.6s-112 38.4-112 89.6v92.8h-291.2v-92.8c0-51.2-54.4-89.6-108.8-89.6s-108.8 38.4-108.8 89.6v92.8h-128c-9.6 0-19.2-9.6-19.2-19.2v-915.2c0-9.6 9.6-19.2 19.2-19.2h988.8c9.6 0 19.2 9.6 19.2 19.2v915.2c-3.2 12.8-12.8 19.2-22.4 19.2zM915.2 44.8h-803.2v585.6h803.2v-585.6z" data-tags="calendar" />
<glyph unicode="&#xe601;" d="M1100.8 304c-6.4 41.6-38.4 76.8-80 86.4-166.4 38.4-204.8 134.4-214.4 240-28.8 6.4-80 12.8-169.6 12.8s-140.8-6.4-169.6-12.8c-6.4-105.6-48-201.6-214.4-240-41.6-9.6-76.8-44.8-80-86.4l-32-220.8c-9.6-76.8 44.8-147.2 124.8-147.2h742.4c80 0 137.6 70.4 124.8 147.2l-32 220.8zM636.8 96c-89.6 0-163.2 70.4-163.2 160s73.6 160 163.2 160 163.2-70.4 163.2-160c0-86.4-73.6-160-163.2-160zM1273.6 704c0 96-246.4 256-636.8 256s-636.8-160-636.8-256c0-96 0-220.8 163.2-201.6 188.8 25.6 176 89.6 176 185.6 0 64 153.6 80 297.6 80s297.6-16 297.6-80c0-92.8-12.8-160 176-185.6 163.2-19.2 166.4 105.6 163.2 201.6z" horiz-adv-x="1274" data-tags="phone" />
<glyph unicode="&#xe602;" d="M864 960h-662.4c-41.6 0-73.6-32-73.6-73.6v-876.8c0-41.6 32-73.6 73.6-73.6h515.2l220.8 217.6v732.8c0 41.6-32 73.6-73.6 73.6v0zM883.2 163.2l-179.2-176c-32-32-25.6 25.6-25.6 25.6v147.2c0 35.2 35.2 35.2 35.2 35.2h153.6c57.6-3.2 16-32 16-32v0z" />
<glyph unicode="&#xe603;" d="M710.4 460.8h-352c-9.6 0-16-6.4-16-16v-32c0-9.6 6.4-16 16-16h352c9.6 0 16 6.4 16 16v32c0 9.6-6.4 16-16 16z" />
<glyph unicode="&#xe604;" d="M710.4 588.8h-352c-9.6 0-16-6.4-16-16v-32c0-9.6 6.4-16 16-16h352c9.6 0 16 6.4 16 16v32c0 9.6-6.4 16-16 16z" />
<glyph unicode="&#xe605;" d="M550.4 332.8h-192c-9.6 0-16-6.4-16-16v-32c0-9.6 6.4-16 16-16h192c9.6 0 16 6.4 16 16v32c0 9.6-6.4 16-16 16z" />
<glyph unicode="&#xe606;" d="M710.4 716.8h-352c-9.6 0-16-6.4-16-16v-32c0-9.6 6.4-16 16-16h352c9.6 0 16 6.4 16 16v32c0 9.6-6.4 16-16 16z" />
<glyph unicode="&#xe607;" d="M601.2 518.6l-0.8 1c0.4-0.4 0.4-0.6 0.8-1zM855.2 380l-71.2 90.6c0 0 6.4-73.6-43.2-129.4l24.8-31.6c25.8-32.8 20.4-79.2-12.6-105l-59.8-47c-32.8-25.8-81-21.8-107 11l-164.2 209c-25.8 32.8-20 82.6 12.8 108.4l58.8 46.2-70.6 89.6-58.8-46.2c-21.2-17-38.2-37.8-50.4-60.6-34.2-65-29.6-146.8 18.6-207.8l164.4-209.2c65-82.6 184.6-95 267-30.2l59.8 47c82.6 65 96.6 182.8 31.6 265.2zM708.6 382.2c35 64.2 30.8 145.4-17.8 207l-164.6 209c-65 82.6-184.2 98.4-266.6 33.4l-59.8-47c-82.6-65-97-186-32-268.6l69.8-88.6c0 0-6.2 73.2 42.4 130.4l-22.6 28.8c-25.8 32.8-20 82.6 13 108.4l59.8 47c32.8 25.8 80.6 18.4 106.6-14.4l164.4-209c25.8-32.8 20.4-79.2-12.6-105l-59.8-47c-0.4-0.2-0.6-0.4-1-0.8l70.6-89.6c0.4 0.2 0.6 0.4 1 0.8l59.8 47c20.8 16.4 37.4 36.4 49.4 58.2z" data-tags="bcc--link" />
<glyph unicode="&#xe608;" d="M960 454c-3.4 247.4-206.6 445.2-454 442s-445.2-206.6-442-454c3.4-247.4 206.6-445.2 454-442 247.4 3.4 445.4 206.6 442 454zM512 736.2c35.4 0 64-28.6 64-64s-28.6-64-64-64c-35.4 0-64 28.6-64 64s28.6 64 64 64zM600 170h-176v22h44v320h-44v24h132v-344h44v-22z" data-tags="bcc--further_information" />
<glyph unicode="&#xe609;" d="M512 896c-247.4 0-448-200.6-448-448s200.6-448 448-448c247.4 0 448 200.6 448 448s-200.6 448-448 448zM552.4 242.6c-1-35.6-27.4-57.6-61.6-56.6-32.8 1-58.6 24.4-57.6 60.2 1 35.6 28.2 58.2 61 57.2 34.4-1 59.4-25.2 58.2-60.8zM649.8 497.2c-8.4-11.8-27.2-27-50.8-45.4l-26.2-18c-12.8-9.8-20.8-21.4-25-34.6-2.2-7-3.8-25.2-4.2-37.4-0.2-2.4-1.6-7.8-9-7.8s-70 0-78.2 0c-8.2 0-9.2 4.8-9 7.2 1.2 33.2 6 60.6 19.8 82.6 18.6 29.6 71 60.8 71 60.8 8 6 14.2 12.4 19 19.4 8.8 12 16 25.4 16 39.8 0 16.6-4 32.4-14.6 45.6-12.4 15.4-25.8 22.8-51.6 22.8-25.4 0-40.2-12.8-50.8-29.6s-8.8-36.6-8.8-54.6h-97.4c0 68 17.8 111.4 55.4 137 25.4 17.4 57.8 25 95.6 25 49.6 0 89-9.2 123.8-35.6 32.2-24.4 49.2-58.8 49.2-105.2 0-28.6-10-52.6-24.2-72z" data-tags="bcc--help-circled" />
<glyph unicode="&#xe60a;" d="M512 832c-131.8 0-238.6-107.4-238.6-240 0-229.2 238.6-528 238.6-528s238.6 298.8 238.6 528c0 132.6-106.8 240-238.6 240zM512 475.6c-62.4 0-112.8 50.8-112.8 113.4s50.6 113.6 112.8 113.6c62.4 0 112.8-50.8 112.8-113.6 0-62.6-50.4-113.4-112.8-113.4z" data-tags="bcc--location" />
<glyph unicode="&#xe60b;" d="M758.4 73.6h-720v608h720v-608zM166.4 185.6h464v384h-464v-384zM950.4 188.8h-128v556.8h-646.4v128h774.4z" data-tags="bcc--new-window" />
<glyph unicode="&#xe60c;" d="M847.6 704h-79.6v128h-512v-128h-79.6c-55.8 0-112.4-33.8-112.4-109.2v-247.6c0-76 56.6-123.2 112.4-123.2 0 0 60.8 0 79.6 0v-224h512v224c20.6 0 79.6 0 79.6 0 55.8 0 112.4 45.2 112.4 107.2v263.6c0 71.4-56.4 109.2-112.4 109.2zM736 32h-448v352h448v-352zM736 704h-448v96h448v-96zM832 576h-34v32h34v-32zM320 320h384v-32h-384v32zM320 224h384v-32h-384v32zM320 128h384v-32h-384v32z" data-tags="bcc--printer" />
<glyph unicode="&#xe60d;" d="M511.976 896c-247.406 0-447.976-200.596-447.976-448 0-247.43 200.57-448 447.976-448 247.43 0 448.024 200.57 448.024 448 0 247.404-200.594 448-448.024 448zM783.522 176.47c-20.198-20.196-42.252-37.856-65.772-52.84l-31.892 55.24-27.712-16 31.91-55.272c-49.676-26.060-104.744-40.91-162.054-43.248v63.65h-32v-63.65c-57.312 2.332-112.382 17.18-162.060 43.24l31.916 55.282-27.712 16-31.898-55.25c-23.522 14.984-45.58 32.648-65.778 52.848-20.198 20.198-37.86 42.254-52.844 65.778l55.248 31.898-16 27.71-55.282-31.916c-26.060 49.678-40.908 104.748-43.242 162.060h63.65v32h-63.65c2.334 57.31 17.184 112.38 43.246 162.058l55.276-31.916 16 27.712-55.246 31.896c14.984 23.52 32.644 45.574 52.838 65.77 20.2 20.202 42.258 37.866 65.78 52.852l31.898-55.248 27.712 16-31.916 55.28c49.682 26.066 104.752 40.916 162.062 43.246v-63.65h32v63.648c57.308-2.338 112.376-17.19 162.052-43.252l-31.908-55.268 27.712-16 31.89 55.236c23.52-14.984 45.574-32.646 65.772-52.842 20.2-20.198 37.862-42.252 52.848-65.774l-55.238-31.892 16-27.712 55.272 31.912c26.062-49.678 40.914-104.746 43.248-162.054h-63.648v-32h63.648c-2.334-57.31-17.184-112.378-43.244-162.056l-55.274 31.914-16-27.712 55.242-31.894c-14.986-23.528-32.65-45.584-52.85-65.784zM800 478h-231.464c-5.636 10.598-14.166 19.416-24.536 25.416v136.584h-64v-136.584c-19.124-11.068-32-31.732-32-55.416 0-35.346 28.654-64 64-64 22.85 0 42.888 11.984 54.212 30h233.788v64z" data-tags="clock" />
<glyph unicode="&#xe60e;" d="M910.8 301.6c-19.2 18.4-95.6 83.2-198.4 98-102.8 15.2-66.4 134.8-69.6 133.2s-0.8 24.8-0.8 24.8c59.2 33.2 67.2 122 67.2 122v116.4c0 0-31.2 124-125.6 124l-56.8 12c-105.2 0-141.6-136-141.6-136s1.2-42.4 0-107.2c-0.8-64.8 71.6-136.4 71.6-136.4s4.4-26 0.8-24.4c-3.2 1.6 31.2-112-71.6-127.2s-188-80.8-207.2-99.2c-33.6-43.2-34.8-182.4-34.8-182.4h326.4c0 0-0.4 6-0.4 8 0 110 89.2 200 199.2 200s199.2-90.8 199.2-200.8c0-2-0.4-7.6-0.4-7.6h56.8c0.8 0.4 5.2 164.4-14 182.8zM670.4 292.4c-90 0-163.2-72.8-163.2-162.8s73.2-162.8 163.2-162.8c90 0 163.2 72.8 163.2 162.8s-73.2 162.8-163.2 162.8zM743.2 110h-60v-60h-30v60h-60v30h60v60h30v-60h60v-30z" />
<glyph unicode="&#xe60f;" d="M1013.6 69.6l-470 832c-6.4 11.6-18.8 18.4-32 18.4s-25.2-7.2-32-18.4l-469.6-832c-6.4-11.2-6.4-25.2 0.4-36 6.4-11.2 18.4-18 31.6-18h940c12.8 0 24.8 6.8 31.6 18 6 10.8 6 24.4 0 36zM569.6 121.6h-116v106.4h116v-106.4zM569.6 308h-116v319.6h116v-319.6z" />
<glyph unicode="&#xe610;" d="M747.6 295.2c13.2-13.2 19.6-28.8 19.6-46.8s-6.4-33.2-19.6-45.6c-13.2-12.4-28.8-18.4-46.8-18.4s-33.6 5.6-46.8 17.6l-143.6 165.2-143.6-165.2c-13.2-11.6-28.8-17.6-46.8-17.6s-33.6 5.6-46.8 17.6c-11.6 13.2-17.6 28.8-17.6 46.8s5.6 33.6 17.6 46.8l150 169.6-150 172c-11.6 13.2-17.6 28.8-17.6 46.8s5.6 33.6 17.6 46.8c13.2 11.6 28.8 17.6 46.8 17.6s33.6-6 46.8-17.6l143.6-165.2 143.6 165.2c13.2 11.6 28.8 17.6 46.8 17.6s33.6-6 46.8-18.4c13.2-12.4 19.6-27.6 19.6-45.6s-6.4-33.6-19.6-46.8l-150-172 150-170.4z" />
<glyph unicode="&#xe611;" d="M370.4 24.4l-354.4 355.6 126.8 127.2 219.6-220.4 511.2 576.8 134-119.6-637.2-719.6z" />
<glyph unicode="&#xe612;" d="M941.6 500.8v-126.8c0-4.8-1.2-9.2-4-13.2s-6.4-6.4-11.2-7.2l-106.4-16.4c-6.8-20.4-14-38-21.6-52.4 12.8-18.4 33.2-44.8 60.4-78.8 4-4 6-8.4 6-13.2s-1.6-9.2-5.2-13.2c-10.4-14.4-29.2-35.2-56.4-62.4s-45.6-40.8-54.4-40c-4.8 0-9.6 1.6-14.4 5.2l-78.4 61.2c-17.2-8.8-34.4-16-52.4-21.6-6-52-11.6-87.2-16.4-106.4-2.8-10.8-9.6-16.4-20.4-16.4h-126.8c-5.6 0-10.4 1.6-14.4 5.2s-6 7.6-6 12.4l-16.4 105.6c-18.4 6-35.6 13.2-51.2 21.6l-80.8-61.6c-4-3.6-8.8-5.2-14.4-5.2s-10.4 2-14.4 6c-47.6 43.6-79.2 75.6-94.4 96.4-2.8 3.6-4 7.6-4 12.4s1.6 9.2 5.2 13.2c5.6 8 15.2 20.8 28.8 38s24 30.8 30.8 40.8c-10.4 19.2-18 38-23.6 56.4l-104.4 15.2c-4.8 0.8-8.4 3.2-11.2 7.2s-4.4 8.4-5.2 13.2v126.8c0 4.8 1.6 9.2 5.2 13.2s6.8 6.4 10.4 7.2l106.4 16.4c5.6 17.2 12.8 34.4 22.4 52.4-15.6 22-36 48-61.6 78.8-4 4.8-6 9.2-6 13.2s1.6 8.4 5.2 13.2c10.4 13.6 29.2 34 56.4 61.6 26.8 27.6 44.8 41.2 53.6 41.2 4.8 0 10-1.6 15.2-5.2l78.8-61.6c16.4 8.8 33.6 16 51.2 21.6 6 52 12 87.2 17.6 106.4 2 10.4 8.8 15.2 20.4 15.2h126.8c4.8 0 9.2-1.2 13.2-4s6.4-6.8 7.2-12.4l15.2-105.6c19.2-6 36-13.2 51.2-21.6l82 61.6c3.6 3.6 7.6 5.2 12.8 5.2s10-1.6 14.8-5.2c49.2-45.6 80.4-78 94.4-97.2 2.8-3.6 4-7.6 4-12.4s-1.2-9.2-4-13.2l-60.4-78.8c9.6-19.2 17.6-38 23.6-56.4l104.4-15.2c4.8-0.8 8.8-3.2 12.4-7.2s5.2-8.4 4.4-13.2zM648.8 438.4c0 40.4-14 74.8-42 103.6s-62.4 43.2-103.6 43.2-75.2-14.8-103.2-43.2c-28-28.8-42.4-63.2-43.2-103.6s13.6-74.8 43.2-103.6c29.2-28.8 64-43.2 103.6-43.2s74 14.4 103.6 43.2c28.8 28.8 42.8 63.2 41.6 103.6z" />
<glyph unicode="&#xe613;" d="M347.2-38l-130 126.8 369.2 359.6-369.2 360 130 126.4 499.6-486.4-499.6-486.4z" />
<glyph unicode="&#xe614;" d="M836.8 869.2c-88.8 45.6-517.6 39.6-608.4 0 0-50.8 0-55.6 0-55.6h608.4c0 0 0 4.8 0 55.6zM676.4 152c-44.4 0-80.4-36.4-80.4-80.8 0-44.8 36-80.8 80.4-80.8s80.4 36.4 80.4 80.8c0 44.4-36 80.8-80.4 80.8zM870 752.4c0 18-11.6 27.6-33.2 27.6h-608.4v-42l33.6-38.4v-688l25.2-42.4h346.4c-39.6 16.8-67.6 56-67.6 102 0 60.8 49.2 110.4 110 110.4 8.8 0 17.6-1.2 26-3.2l62.8 503.6 66.4 0.4c21.6 0 39.2 14.8 38.8 32.8v37.2z" />
<glyph unicode="&#xe615;" d="M622.826 257.264c-22.11 3.518-22.614 64.314-22.614 64.314s64.968 64.316 79.128 150.802c38.090 0 61.618 91.946 23.522 124.296 1.59 34.054 48.96 267.324-190.862 267.324s-192.45-233.27-190.864-267.324c-38.094-32.35-14.57-124.296 23.522-124.296 14.158-86.486 79.128-150.802 79.128-150.802s-0.504-60.796-22.614-64.314c-71.22-11.332-337.172-128.634-337.172-257.264h896c0 128.63-265.952 245.932-337.174 257.264z" />
<glyph unicode="&#xe616;" d="M700.8 934.8l130-126.8-369.2-359.6 369.2-359.6-130-126.8-499.6 486.4 499.6 486.4z" />
<glyph unicode="&#xe617;" d="M1002.4 248.8l-128-124.8-362.4 354.4-362.8-354.4-128 124.8 490.8 479.2 490.4-479.2z" />
<glyph unicode="&#xe618;" d="M508.4 540.4l-64.8-128.8c0 0 106 36.4 130.4 39.6 0.4-0.4-59.2 58.8-65.6 89.2zM823.6 935.2h-626.8c-38.4 0-69.6-31.2-69.6-69.2v-830.8c0-38.4 31.2-69.2 69.6-69.2h486.4l210 205.6v694.4c0 38.4-31.2 69.2-69.6 69.2zM428.4 372.4c-15.2-30.4-94.4-128-94.4-128-33.6-36.4-78.8-32.8-78.8-32.8-39.2 15.2-24 45.6-17.6 60.8 6 15.2 112.8 76 112.8 76-12.4-18.4-70.4-85.2-70.4-85.2-24.4-33.6 12.4-18.4 12.4-18.4 15.2 6 48.8 54.8 48.8 54.8 79.6 112.8 140.4 298 140.4 298-6 12-12.4 88-9.2 139.6s60.8 18.4 60.8 18.4c15.2-21.2-6-100.4-6-100.4l-6 36.4c6 21.2-6 48.8-6 48.8-6 24.4-18.4-3.2-15.2-30.4 3.2-27.6 24.4-106.4 24.4-106.4 34.4-98.8 88-138.4 130.8-160.4-10 10.4-17.2 20.4-17.2 20.4s116.4-14.4 140.8-23.6c24.4-9.2 55.2-24.4 39.6-36.4-15.2-12-12.4-3.2-33.6 9.2-18 10.4-57.6 9.6-82.4 9.2 2-1.2 4-2 6-3.2 36.8-21.2 94.4-30.4 109.6-39.6s-17.6-33.6-17.6-33.6-12.4 21.2-39.6 27.6c-27.6 6-116.4 48.4-116.4 48.4-166.4-30.8-216-49.2-216-49.2zM842 180l-168.8-167.6c-30.4-30.4-24 22.8-24 22.8v138.4c0 33.6 32.8 33.6 32.8 33.6h146.8c51.2 1.2 13.2-27.2 13.2-27.2zM689.2 421.6c3.2 0 7.6 0 12.4 0-12 6-28.4 12-47.2 21.6 10.8-10.8 24-21.6 34.8-21.6z" />
<glyph unicode="&#xe619;" d="M904.4 531.6v121.2h-78.4c-5.6 40.4-14.4 48-25.6 67.2l62.8 65.2-86 86.8-67.6-62c-19.2 11.2-26.8 20.8-67.2 26.4v78.4h-121.2v-78.4c-20-5.6-38-14.4-57.2-25.6l-60 62.8-84.8-86 63.2-67.6c-11.2-19.2-19.6-26.8-25.2-67.2h-98.8v-120.8h98.8c5.6-20 14.4-38 25.6-57.2l-62.8-60 85.6-84.4 57.6 63.2c19.2-11.2 37.2-19.6 57.2-25.2v-98.8h121.2v98.8c40.4 5.6 48 14.4 67.2 25.6l65.2-62.8 86.8 85.6-62 57.6c11.2 19.2 20.8 37.2 26.4 57.2h79.2zM591.6 481.2c-66.8 0-121.2 54.4-121.2 120.8 0 66.8 54.4 120.8 121.2 120.8s121.2-54.4 121.2-120.8c0-66.4-54.4-120.8-121.2-120.8zM537.6 158.8l-12.4 62-40.4-8c-7.2 20-12.4 23.2-20 31.6l25.6 39.6-52.8 35.6-28.4-38.4c-10.8 4-16 8-37.2 6.8l-8 40-62-12 8-40c-9.6-4.8-18-11.2-26.8-18.8l-37.2 26-34-52.8 39.2-28c-4-10.8-7.2-15.6-6-36.8l-50.4-10 12.4-62 50.4 10c4.8-9.6 11.2-18 19.2-26.8l-26-37.2 52.4-34.4 23.2 38.4c10.8-4 20.8-6 32-7.2l10-50.4 62 12.4-10 50.4c20 7.2 23.2 12.4 32 20l39.6-25.6 35.6 52.4-37.6 23.2c4 10.8 6.8 21.2 7.6 32l40 8zM382.4 101.2c-34-6.8-67.6 15.6-74.4 49.6s15.6 67.6 49.6 74c34 6.8 67.6-15.6 74.4-49.6 6.8-33.6-15.2-67.2-49.6-74z" />
<glyph unicode="&#xe61a;" d="M21.6 603.2l128 124.8 362.8-354 362.4 354 128-124.8-490.8-479.2-490.4 479.2z" />
<glyph unicode="&#xe61b;" d="M1296.848 839.308l-136.834 120.692c-588.726-553.614-468.51-1024-194.876-1024 165.838 0 252.92 187.336 153.416 320.518-82.92 108.238-78.756 303.866 178.292 582.788zM558.834 839.308l-136.798 120.692c-588.76-553.614-468.51-1024-199.006-1024 165.838 0 257.048 187.336 153.418 320.518-82.954 108.238-74.662 303.866 182.388 582.788z" horiz-adv-x="1298" />
<glyph unicode="&#xe61c;" d="M517.2 940.4c-273.6 0-495.2-221.6-495.2-495.2s221.6-495.2 495.2-495.2c273.6 0 495.2 221.6 495.2 495.2s-221.6 495.2-495.2 495.2zM466.8 233.2l-164.8 165.6 59.2 59.2 102.4-102.8 237.6 268.8 62.4-55.6-296.8-335.2z" />
<glyph unicode="&#xe61d;" d="M873.2 522l-92.8 95.2-200-205.6v540.4h-125.6v-540.4l-200 205.6-92.8-95.2 355.6-364.8 355.6 364.8zM120 73.6v-125.6h794.8v125.6h-794.8z" />
<glyph unicode="&#xe61e;" d="M770.974 206.61l-254.966 254.318 254.966 254.318-115.846 115.588-255.096-254.32-254.966 254.318-129.164-128.776 254.966-254.318-254.966-254.318 115.846-115.588 254.966 254.318 254.966-254.318 129.294 128.776z" horiz-adv-x="792" />
<glyph unicode="&#xe61f;" d="M878.8 680.4h-16.8v84c0 27.6-20.4 60.8-45.2 73.2 0 0-89.6 44.8-308.4 44.8s-308.4-44.8-308.4-44.8c-24.8-12.4-45.2-45.2-45.2-73.2v-84h-16.8c-27.6 0-50.4-22.8-50.4-50.4v-50.4c0-27.6 22.8-50.4 50.4-50.4h16.8v-345.2c0-22 14-40.4 33.6-47.6v-28.4c0-37.2 30.4-67.2 67.2-67.2s67.2 30.4 67.2 67.2v25.2h370.4v-25.2c0-37.2 30.4-67.2 67.2-67.2 37.2 0 67.2 30.4 67.2 67.2v28.4c19.6 6.8 33.6 25.6 33.6 47.6v345.2h16.8c27.6 0 50.4 22.8 50.4 50.4v50.4c0.8 27.6-22 50.4-49.6 50.4zM340 798.4c0 9.2 7.6 16.8 16.8 16.8h303.2c9.2 0 16.8-7.6 16.8-16.8v-33.6c0-9.2-7.6-16.8-16.8-16.8h-303.2c-9.2 0-16.8 7.6-16.8 16.8v33.6zM264.4 200.8c-23.2 0-42 18.8-42 42s18.8 42 42 42c23.2 0 42-18.8 42-42s-18.8-42-42-42zM752.4 200.8c-23.2 0-42 18.8-42 42s18.8 42 42 42c23.2 0 42-18.8 42-42s-18.8-42-42-42zM794.4 394.4c0-9.2-7.6-16.8-16.8-16.8h-538.8c-9.2 0-16.8 7.6-16.8 16.8v269.2c0 9.2 7.6 16.8 16.8 16.8h538.8c9.2 0 16.8-7.6 16.8-16.8v-269.2z" />
<glyph unicode="&#xe620;" d="M364.4 836.4c0 16.8-14.8 17.2-31.2 17.2h-120.4c-16.8 0-32.4-0.4-32.4-17.2v-194.8l184 152.8v42zM541.2 853.6c-13.2 14.8-12.4 23.6-27.6 23.6s-15.6-11.6-27.6-23.6l-392.8-332.4c0-16 12.4-27.2 27.6-27.2h33.6v-455.6h718.8v455.6h33.6c15.2 0 27.6 11.2 27.6 27.2l-393.2 332.4zM574.8 126h-122.8v184h122.8v-184z" />
<glyph unicode="&#xe621;" d="M228.4 37.6l140.8 160.4h-140.8zM855.2 884h-689.6c-69.2 0-125.2-56-125.2-125.2v-435.2c0-69.2 56-125.2 125.2-125.2h689.2c69.2 0 125.2 56 125.2 125.2v434.8c0.4 69.2-55.6 125.6-124.8 125.6zM510.4 312c-26 0-47.2 20.4-47.2 45.6s21.2 45.6 47.2 45.6c26 0 47.2-20.4 47.2-45.6-0.4-24.8-21.2-45.6-47.2-45.6zM557.2 449.2h-94v297.6h94v-297.6z" />
<glyph unicode="&#xe622;" d="M783.6 553.2h-84.4v112.4c0 136-62.4 215.6-187.6 215.6s-187.6-80-187.6-215.6v-18.8h94v37.6c0 67.6 37.2 103.2 94 103.2 56.4 0 94-35.6 94-103.2v-131.2h-376c-26 0-46.8-30.4-46.8-56.4v-366c0-25.6 20-53.2 44.8-61.2l56-18c24.4-8 65.6-14.4 91.6-14.4h272c25.6 0 66.8 6.4 91.6 14.4l56 18c24.4 8 44.4 35.6 44.4 61.2v366c0 26-30 56.4-56 56.4zM548 487.2c25.2 0 38-17.2 38-37.2 0-24.8-22-47.6-50.8-47.6-24 0-38 14.4-37.2 37.6 0 20 16.8 47.2 50 47.2zM470 108.8c-20 0-34.8 12.4-20.8 66.8l22.8 96.4c4 15.6 4.8 21.6 0 21.6-6 0-32-10.8-47.2-21.2l-10 16.8c48.8 41.2 104.8 65.6 128.8 65.6 20 0 23.2-24 13.2-61.2l-26.4-101.2c-4.8-18-2.8-24 2-24 6 0 25.6 7.6 45.2 22.8l11.2-15.6c-46.8-48.4-98.8-66.8-118.8-66.8z" />
<glyph unicode="&#xe623;" d="M490.4 612.8c-8 0-16.4 0-24.4-0.8v-146c7.2-0.8 14-1.6 20-1.6 48 0.8 84 28 84 76.8 0 42-22.8 71.6-79.6 71.6zM812 877.2h-606.4c-62.8 0-113.6-50.8-113.6-113.6v-606.4c0-62.8 50.8-113.6 113.6-113.6h606.4c62.8 0 113.6 50.8 113.6 113.6v606c0 62.8-50.8 114-113.6 114zM492.4 369.2c-6 0-16.4 0-26.4 0.8v-165.2h-115.2v498c42.8 2.4 90 3.6 141.6 3.6 126.8 0 196.4-57.6 196.4-160.4 0-96.4-69.2-176.8-196.4-176.8z" />
<glyph unicode="&#xe624;" d="M906.8 253.6h-89.6v482.8c0 79.2-64.4 143.6-143.6 143.6h-532c-51.6-6-68.4-64.4-68.4-143.6v-67.2c0-14.8 12-26.8 26.8-26.8h130.8v-460c0-78.4 62.8-142 140.8-143.6 0.4 0 0.8 0 1.2 0h416.8c79.2 0 143.6 64.4 143.6 143.6v44.8c0.4 14.4-11.6 26.4-26.4 26.4zM763.2 253.6h-272c-14.8 0-26.8-12-26.8-26.8v-44.8c0-49.6-40.4-89.6-89.6-89.6-49.6 0-89.6 40.4-89.6 89.6v554.4c0 34-12 65.2-31.6 89.6h420c49.6 0 89.6-40.4 89.6-89.6v-482.8zM354.8 701.6h342.8v-51.6h-342.8v51.6zM354.8 600h342.8v-51.6h-342.8v51.6zM354.8 498.8h342.8v-51.6h-342.8v51.6zM381.6 402.4c-32.8 0-59.2-26.4-59.2-59.2 0-19.6 9.6-36.4 24-47.2l-12-102.4 47.2 45.2 46.8-45.2-11.6 102.4c14.4 10.8 24 28 24 47.2-0.4 32.8-26.8 59.2-59.2 59.2z" />
<glyph unicode="&#xe625;" d="M916.8 526.8h-812.8c-37.6 0-67.6-30.4-67.6-67.6 0-37.6 30.4-67.6 67.6-67.6h812.8c37.6 0 67.6 30.4 67.6 67.6s-30.4 67.6-67.6 67.6zM104 662.4h812.8c37.6 0 67.6 30.4 67.6 67.6 0 37.6-30.4 67.6-67.6 67.6h-812.8c-37.6 0-67.6-30.4-67.6-67.6s30.4-67.6 67.6-67.6zM916.8 256h-812.8c-37.6 0-67.6-30.4-67.6-67.6 0-37.6 30.4-67.6 67.6-67.6h812.8c37.6 0 67.6 30.4 67.6 67.6s-30.4 67.6-67.6 67.6z" />
<glyph unicode="&#xe626;" d="M933.2 156l-249.6 249.6c26.8 46.8 42.4 101.6 42.4 159.6 0 177.6-142.8 320.4-320.4 320.4s-320.4-142.8-320.4-320.4 142.8-320.4 320.4-320.4c58.4 0 112.8 15.6 159.6 42.4l249.6-249.6c14.8-14.8 44.4-14.8 59.2 0l59.2 59.2c14.8 15.2 14.8 44.8 0 59.2zM213.6 565.2c0 103.6 83.6 192.4 192.4 192.4 103.6 0 192.4-83.6 192.4-192.4 0-103.6-88.8-192.4-192.4-192.4s-192.4 84-192.4 192.4z" />
</font>
</defs>
</svg>
