<?xml version="1.0" encoding="UTF-8"?>
<svg fill="none" viewBox="0 0 265 80" xmlns="http://www.w3.org/2000/svg"><path d="M73.9222 10.0346V69.6558H71.7159V10.0346H73.9222ZM95.4078 23.9668H92.8682L87.2271 15.1395V23.9668H84.809V11.5245H87.8216L92.991 19.7546V11.5245H95.4078V23.9668ZM101.732 14.6738C100.962 15.394 100.576 16.415 100.576 17.7371C100.576 19.0593 100.962 20.079 101.732 20.7993C102.503 21.5193 103.408 21.878 104.448 21.878C105.5 21.878 106.41 21.5193 107.18 20.7993C107.952 20.079 108.337 19.0593 108.337 17.7371C108.337 16.415 107.952 15.394 107.18 14.6738C106.41 13.9551 105.5 13.5951 104.448 13.5951C103.408 13.5951 102.503 13.9551 101.732 14.6738ZM98.0707 17.7542C98.0707 15.813 98.6947 14.2451 99.9456 13.0507C101.195 11.8575 102.695 11.2617 104.448 11.2617C106.211 11.2617 107.717 11.8575 108.968 13.0507C110.218 14.2451 110.842 15.813 110.842 17.7542C110.842 19.6846 110.218 21.2464 108.968 22.4394C107.717 23.6338 106.211 24.2298 104.448 24.2298C102.695 24.2298 101.195 23.6338 99.9456 22.4394C98.6947 21.2464 98.0707 19.6846 98.0707 17.7542ZM122.319 13.8236H118.394V23.9668H115.959V13.8236H112.034V11.5245H122.319V13.8236ZM134.074 13.8236H130.149V23.9668H127.714V13.8236H123.789V11.5245H134.074V13.8236ZM138.786 23.9668H136.333V11.5245H138.786V23.9668ZM152.784 23.9668H150.244L144.603 15.1395V23.9668H142.185V11.5245H145.198L150.367 19.7546V11.5245H152.784V23.9668ZM167.43 23.9668H165.468L165.31 22.5453C164.995 23.0256 164.524 23.4262 163.9 23.7469C163.275 24.0688 162.524 24.2298 161.648 24.2298C159.92 24.2298 158.454 23.6399 157.252 22.458C156.049 21.2758 155.446 19.708 155.446 17.7542C155.446 15.813 156.068 14.2451 157.313 13.0507C158.556 11.8575 160.054 11.2617 161.806 11.2617C163.324 11.2617 164.562 11.6291 165.521 12.3663C166.478 13.1036 167.132 14.0104 167.482 15.0867L165.169 15.9113C164.983 15.2687 164.607 14.7095 164.04 14.2352C163.474 13.7622 162.729 13.5249 161.806 13.5249C160.755 13.5249 159.841 13.8875 159.064 14.6137C158.287 15.3387 157.899 16.3856 157.899 17.7542C157.899 19.0999 158.276 20.1468 159.029 20.8962C159.783 21.6446 160.714 22.0193 161.824 22.0193C162.851 22.0193 163.64 21.7613 164.189 21.2464C164.738 20.7315 165.059 20.1823 165.152 19.5975H161.228V17.4914H167.43V23.9668ZM180.692 23.9668H178.257V18.8073H172.844V23.9668H170.426V11.5245H172.844V16.5256H178.257V11.5245H180.692V23.9668ZM188.961 14.2094L187.244 18.913H190.679L188.961 14.2094ZM192.518 23.9668L191.485 21.1235H186.438L185.403 23.9668H182.848L187.613 11.5245H190.415L195.146 23.9668H192.518ZM211.159 23.9668H208.776V15.2453L205.202 23.9668H203.188L199.614 15.3153V23.9668H197.3V11.5245H200.489L204.221 20.5092L207.866 11.5245H211.159V23.9668ZM222.914 14.4908L220.742 15.1569C220.647 14.6898 220.426 14.2793 220.076 13.9281C219.726 13.5779 219.193 13.402 218.482 13.402C217.909 13.402 217.442 13.5569 217.081 13.8665C216.718 14.1773 216.537 14.5487 216.537 14.9811C216.537 15.7306 216.987 16.1987 217.887 16.3856L219.621 16.7185C220.718 16.9299 221.57 17.3711 222.177 18.0444C222.784 18.7164 223.089 19.4979 223.089 20.3864C223.089 21.416 222.684 22.3141 221.872 23.0809C221.06 23.8465 219.971 24.2298 218.605 24.2298C217.821 24.2298 217.116 24.1129 216.483 23.8795C215.854 23.6449 215.346 23.3328 214.96 22.9396C214.575 22.5489 214.273 22.1325 214.059 21.6937C213.842 21.2549 213.711 20.8015 213.665 20.3348L215.906 19.7376C215.952 20.3925 216.209 20.9454 216.677 21.3964C217.144 21.8462 217.794 22.0721 218.622 22.0721C219.264 22.0721 219.761 21.9309 220.111 21.6507C220.461 21.3692 220.638 21.0007 220.638 20.5448C220.638 20.1823 220.506 19.8691 220.243 19.606C219.979 19.343 219.608 19.1648 219.13 19.0705L217.395 18.7201C216.39 18.5089 215.597 18.0971 215.012 17.4828C214.428 16.8683 214.138 16.093 214.138 15.1569C214.138 14.0694 214.564 13.1477 215.416 12.3933C216.267 11.639 217.283 11.2617 218.465 11.2617C219.819 11.2617 220.856 11.5859 221.574 12.2349C222.293 12.8849 222.74 13.6368 222.914 14.4908ZM235.965 23.9668H233.531V18.8073H228.117V23.9668H225.699V11.5245H228.117V16.5256H233.531V11.5245H235.965V23.9668ZM241.816 23.9668H239.365V11.5245H241.816V23.9668ZM247.65 17.087H249.614C250.232 17.087 250.71 16.9324 251.049 16.6226C251.388 16.313 251.557 15.894 251.557 15.3681C251.557 14.83 251.388 14.4061 251.049 14.0952C250.71 13.7855 250.232 13.6308 249.614 13.6308H247.65V17.087ZM251.347 23.9668L248.912 19.176H247.65V23.9668H245.215V11.5245H250.068C251.26 11.5245 252.216 11.8871 252.942 12.612C253.666 13.3384 254.028 14.2499 254.028 15.3497C254.028 16.216 253.791 16.9618 253.318 17.5872C252.846 18.2138 252.2 18.644 251.382 18.8773L254.046 23.9668H251.347ZM264.506 23.9668H256.727V11.5245H264.506V13.8063H259.145V16.6485H263.996V18.8073H259.145V21.6849H264.506V23.9668ZM90.3321 38.0716C91.4415 38.0716 92.314 37.7754 92.9492 37.1831C93.5845 36.5909 93.9015 35.8132 93.9015 34.8472C93.9015 33.8828 93.5845 33.1 92.9492 32.5005C92.314 31.9007 91.4415 31.601 90.3321 31.601H86.8276V38.0716H90.3321ZM86.8276 39.3223V45.9034H85.4477V30.35H90.5506C91.2658 30.35 91.9158 30.4645 92.4994 30.6903C93.0832 30.9178 93.5845 31.2311 93.9998 31.6341C94.4164 32.036 94.7371 32.5116 94.9631 33.0595C95.1891 33.6075 95.3036 34.2047 95.3036 34.8472C95.3036 35.4911 95.1891 36.0872 94.9631 36.635C94.7371 37.1831 94.4164 37.655 93.9998 38.0505C93.5845 38.4452 93.0832 38.756 92.4994 38.982C91.9158 39.2093 91.2658 39.3223 90.5506 39.3223H86.8276ZM100.109 35.1987C99.7662 36.0466 99.5955 37.0271 99.5955 38.1378C99.5955 39.2499 99.7662 40.2255 100.109 41.066C100.452 41.9076 100.913 42.6129 101.489 43.1831C102.065 43.7532 102.726 44.1857 103.471 44.4781C104.216 44.7705 104.982 44.9169 105.771 44.9169C106.559 44.9169 107.326 44.7705 108.07 44.4781C108.815 44.1857 109.474 43.7532 110.052 43.1831C110.628 42.6129 111.092 41.9076 111.443 41.066C111.793 40.2255 111.968 39.2499 111.968 38.1378C111.968 37.0271 111.793 36.0466 111.443 35.1987C111.092 34.3508 110.628 33.6406 110.052 33.0706C109.474 32.5005 108.815 32.0691 108.07 31.7767C107.326 31.4843 106.559 31.3381 105.771 31.3381C104.982 31.3381 104.216 31.4843 103.471 31.7767C102.726 32.0691 102.065 32.5005 101.489 33.0706C100.913 33.6406 100.452 34.3508 100.109 35.1987ZM98.8399 41.5931C98.4084 40.5917 98.1936 39.4403 98.1936 38.1378C98.1936 36.8366 98.4084 35.6853 98.8399 34.6827C99.2699 33.6812 99.8388 32.8372 100.548 32.149C101.256 31.4621 102.065 30.9424 102.978 30.5922C103.891 30.2408 104.821 30.0651 105.771 30.0651C106.72 30.0651 107.65 30.2408 108.563 30.5922C109.474 30.9424 110.285 31.4621 110.993 32.149C111.701 32.8372 112.275 33.6812 112.712 34.6827C113.151 35.6853 113.37 36.8366 113.37 38.1378C113.37 39.4403 113.151 40.5917 112.712 41.5931C112.275 42.5946 111.701 43.4362 110.993 44.1157C110.285 44.7951 109.474 45.3111 108.563 45.6626C107.65 46.0129 106.72 46.1884 105.771 46.1884C104.821 46.1884 103.891 46.0129 102.978 45.6626C102.065 45.3111 101.256 44.7951 100.548 44.1157C99.8388 43.4362 99.2699 42.5946 98.8399 41.5931ZM117.421 45.9034V30.35H118.801V44.6097H126.641V45.9034H117.421ZM130.472 45.9034V30.35H131.874V45.9034H130.472ZM143.546 46.1884C142.583 46.1884 141.645 46.0129 140.732 45.6626C139.819 45.3111 139.01 44.7951 138.302 44.1157C137.593 43.4362 137.024 42.5946 136.594 41.5931C136.163 40.5917 135.948 39.4403 135.948 38.1378C135.948 36.8366 136.163 35.6853 136.594 34.6827C137.024 33.6812 137.597 32.8372 138.313 32.149C139.028 31.4621 139.841 30.9424 140.755 30.5922C141.666 30.2408 142.598 30.0651 143.546 30.0651C144.422 30.0651 145.23 30.1853 145.967 30.4275C146.704 30.6684 147.358 31.0051 147.927 31.4362C148.496 31.8677 148.977 32.3875 149.372 32.9943C149.766 33.6013 150.051 34.2773 150.226 35.023L148.977 35.4615C148.671 34.1752 148.043 33.1663 147.095 32.4342C146.145 31.703 144.963 31.3381 143.546 31.3381C142.758 31.3381 141.992 31.4843 141.247 31.7767C140.502 32.0691 139.841 32.5005 139.265 33.0706C138.688 33.6406 138.225 34.3508 137.874 35.1987C137.524 36.0466 137.35 37.0271 137.35 38.1378C137.35 39.2499 137.524 40.2255 137.874 41.066C138.225 41.9076 138.688 42.6129 139.265 43.1831C139.841 43.7532 140.502 44.1857 141.247 44.4781C141.992 44.7705 142.758 44.9169 143.546 44.9169C144.276 44.9169 144.944 44.8135 145.55 44.6097C146.156 44.4044 146.697 44.1157 147.171 43.7422C147.645 43.3699 148.043 42.9275 148.364 42.4152C148.686 41.904 148.927 41.3411 149.088 40.7268L150.292 41.1656C150.102 41.8966 149.81 42.5688 149.416 43.1831C149.021 43.7975 148.536 44.3282 147.96 44.7743C147.382 45.2203 146.722 45.5667 145.978 45.8161C145.233 46.0645 144.422 46.1884 143.546 46.1884ZM154.255 45.9034V30.35H163.409V31.6231H155.634V37.4792H162.73V38.7523H155.634V44.6317H163.409V45.9034H154.255ZM175.958 33.6406C175.958 34.109 176.081 34.5475 176.33 34.9565C176.578 35.367 176.87 35.7542 177.205 36.1201L177.995 36.9312L179.309 35.9666C180.286 35.2786 180.776 34.4822 180.776 33.5755C180.776 33.2683 180.718 32.9722 180.601 32.6872C180.483 32.4022 180.32 32.1527 180.109 31.9413C179.895 31.7289 179.644 31.5604 179.354 31.4362C179.059 31.3123 178.739 31.2495 178.387 31.2495C178.037 31.2495 177.717 31.3123 177.425 31.4362C177.133 31.5604 176.878 31.7289 176.658 31.9413C176.44 32.1527 176.267 32.4057 176.144 32.6983C176.02 32.9908 175.958 33.3052 175.958 33.6406ZM178.082 44.8947C178.782 44.8947 179.422 44.6784 179.998 44.2473C180.575 43.8158 181.118 43.2925 181.63 42.6793L181.673 42.6129L177.797 38.6207L177.03 39.1687C176.518 39.5496 176.088 39.9811 175.738 40.4625C175.389 40.9455 175.214 41.5243 175.214 42.1965C175.214 42.5466 175.279 42.8869 175.411 43.2162C175.543 43.5455 175.727 43.8344 175.969 44.0825C176.209 44.332 176.509 44.5285 176.867 44.6747C177.224 44.821 177.63 44.8947 178.082 44.8947ZM182.55 43.5343C181.848 44.3675 181.144 45.0151 180.437 45.4759C179.728 45.9368 178.929 46.1665 178.037 46.1665C177.352 46.1665 176.751 46.057 176.232 45.8372C175.712 45.6184 175.273 45.3297 174.907 44.9708C174.542 44.6132 174.268 44.2028 174.085 43.7422C173.903 43.2826 173.813 42.8035 173.813 42.3057C173.813 41.3558 174.067 40.5475 174.578 39.8813C175.089 39.2167 175.738 38.5987 176.528 38.0284L176.943 37.6993L176.265 37.0196C176.074 36.8145 175.886 36.5909 175.696 36.35C175.506 36.1093 175.329 35.8538 175.171 35.5822C175.009 35.3119 174.878 35.0193 174.776 34.7048C174.673 34.3901 174.622 34.0658 174.622 33.7292C174.622 33.1872 174.724 32.6946 174.928 32.2484C175.133 31.8026 175.402 31.418 175.738 31.096C176.074 30.7752 176.468 30.5221 176.921 30.3391C177.375 30.1572 177.857 30.0651 178.367 30.0651C178.907 30.0651 179.411 30.1537 179.877 30.3279C180.346 30.5036 180.742 30.7495 181.072 31.0626C181.399 31.3787 181.66 31.751 181.848 32.1821C182.04 32.6134 182.133 33.0928 182.133 33.6187C182.133 33.9995 182.071 34.3472 181.948 34.6605C181.824 34.9751 181.664 35.2713 181.466 35.5488C181.269 35.8279 181.042 36.0835 180.787 36.3169C180.532 36.5516 180.271 36.7704 180.009 36.9755L178.871 37.8307L182.527 41.6261L185.725 37.8087V39.6516L183.382 42.5034L186.688 45.9256H184.849L182.55 43.5343ZM202.915 46.1884C201.952 46.1884 201.014 46.0129 200.102 45.6626C199.188 45.3111 198.378 44.7951 197.671 44.1157C196.961 43.4362 196.394 42.5946 195.964 41.5931C195.532 40.5917 195.316 39.4403 195.316 38.1378C195.316 36.8366 195.532 35.6853 195.964 34.6827C196.394 33.6812 196.965 32.8372 197.682 32.149C198.397 31.4621 199.21 30.9424 200.124 30.5922C201.034 30.2408 201.967 30.0651 202.915 30.0651C203.791 30.0651 204.599 30.1853 205.336 30.4275C206.074 30.6684 206.727 31.0051 207.295 31.4362C207.864 31.8677 208.346 32.3875 208.741 32.9943C209.136 33.6013 209.42 34.2773 209.595 35.023L208.346 35.4615C208.039 34.1752 207.412 33.1663 206.464 32.4342C205.513 31.703 204.331 31.3381 202.915 31.3381C202.127 31.3381 201.36 31.4843 200.616 31.7767C199.871 32.0691 199.21 32.5005 198.635 33.0706C198.056 33.6406 197.592 34.3508 197.243 35.1987C196.893 36.0466 196.719 37.0271 196.719 38.1378C196.719 39.2499 196.893 40.2255 197.243 41.066C197.592 41.9076 198.056 42.6129 198.635 43.1831C199.21 43.7532 199.871 44.1857 200.616 44.4781C201.36 44.7705 202.127 44.9169 202.915 44.9169C203.644 44.9169 204.313 44.8135 204.919 44.6097C205.524 44.4044 206.066 44.1157 206.539 43.7422C207.014 43.3699 207.412 42.9275 207.732 42.4152C208.054 41.904 208.296 41.3411 208.456 40.7268L209.661 41.1656C209.471 41.8966 209.178 42.5688 208.784 43.1831C208.391 43.7975 207.905 44.3282 207.328 44.7743C206.751 45.2203 206.092 45.5667 205.348 45.8161C204.603 46.0645 203.791 46.1884 202.915 46.1884ZM218.814 37.9191C219.85 37.9191 220.683 37.6328 221.31 37.0628C221.939 36.4924 222.254 35.7318 222.254 34.7823C222.254 33.8163 221.939 33.0448 221.31 32.4671C220.683 31.8897 219.85 31.601 218.814 31.601H215.025V37.9191H218.814ZM218.266 39.1909H215.025V45.9034H213.624V30.35H219.054C219.756 30.35 220.388 30.4645 220.949 30.6903C221.511 30.9178 221.997 31.2274 222.404 31.6231C222.814 32.0174 223.129 32.4857 223.348 33.0263C223.566 33.568 223.676 34.1531 223.676 34.7823C223.676 35.3523 223.585 35.8819 223.402 36.3722C223.22 36.8625 222.957 37.2936 222.615 37.6659C222.27 38.0395 221.859 38.3504 221.377 38.5987C220.895 38.8469 220.362 39.0077 219.778 39.0816L223.631 45.9034H222.012L218.266 39.1909ZM227.881 45.9034V30.35H229.283V45.9034H227.881ZM249.255 45.9034V32.4342L243.166 45.9034H241.853L235.787 32.4342V45.9034H234.406V30.35H236.356L242.533 44.0825L248.707 30.35H250.634V45.9034H249.255ZM255.759 45.9034V30.35H264.912V31.6231H257.138V37.4792H264.234V38.7523H257.138V44.6317H264.912V45.9034H255.759ZM91.9957 68.1251C91.0324 68.1251 90.0949 67.9496 89.182 67.5992C88.269 67.2478 87.4592 66.7318 86.7515 66.0523C86.0426 65.3729 85.4736 64.5311 85.0435 63.5296C84.6122 62.5283 84.3972 61.377 84.3972 60.0745C84.3972 58.7733 84.6122 57.622 85.0435 56.6192C85.4736 55.6179 86.0462 54.7737 86.7626 54.0857C87.4776 53.3988 88.2911 52.879 89.204 52.5289C90.1158 52.1774 91.0471 52.0017 91.9957 52.0017C92.8717 52.0017 93.679 52.122 94.4164 52.3642C95.1535 52.605 95.8073 52.9418 96.3762 53.3729C96.9451 53.8042 97.4268 54.3239 97.8213 54.931C98.2155 55.538 98.5005 56.2139 98.6751 56.9596L97.4268 57.3984C97.1208 56.1119 96.4929 55.103 95.5443 54.3707C94.5945 53.6397 93.4125 53.2748 91.9957 53.2748C91.2083 53.2748 90.4413 53.4209 89.6967 53.7134C88.9521 54.0056 88.2911 54.4371 87.7148 55.0071C87.1372 55.5773 86.674 56.2875 86.3239 57.1354C85.9735 57.9833 85.7993 58.9637 85.7993 60.0745C85.7993 61.1866 85.9735 62.1622 86.3239 63.0024C86.674 63.8442 87.1372 64.5495 87.7148 65.1195C88.2911 65.6899 88.9521 66.1223 89.6967 66.4148C90.4413 66.7072 91.2083 66.8535 91.9957 66.8535C92.7256 66.8535 93.394 66.7502 93.9998 66.5464C94.6057 66.341 95.1463 66.0523 95.6206 65.6787C96.0949 65.3064 96.4929 64.8639 96.8136 64.3517C97.1355 63.8405 97.3764 63.2778 97.5374 62.6635L98.7414 63.1022C98.5512 63.833 98.2598 64.5054 97.8654 65.1195C97.4709 65.734 96.9856 66.2649 96.4093 66.7109C95.8317 67.1569 95.172 67.5034 94.4274 67.7528C93.6828 68.0011 92.8717 68.1251 91.9957 68.1251ZM103.635 57.1354C103.293 57.9833 103.122 58.9637 103.122 60.0745C103.122 61.1866 103.293 62.1622 103.635 63.0024C103.978 63.8442 104.439 64.5495 105.015 65.1195C105.592 65.6899 106.253 66.1223 106.997 66.4148C107.742 66.7072 108.509 66.8535 109.298 66.8535C110.085 66.8535 110.852 66.7072 111.597 66.4148C112.341 66.1223 113.001 65.6899 113.578 65.1195C114.155 64.5495 114.618 63.8442 114.969 63.0024C115.32 62.1622 115.494 61.1866 115.494 60.0745C115.494 58.9637 115.32 57.9833 114.969 57.1354C114.618 56.2875 114.155 55.5773 113.578 55.0071C113.001 54.4371 112.341 54.0056 111.597 53.7134C110.852 53.4209 110.085 53.2748 109.298 53.2748C108.509 53.2748 107.742 53.4209 106.997 53.7134C106.253 54.0056 105.592 54.4371 105.015 55.0071C104.439 55.5773 103.978 56.2875 103.635 57.1354ZM102.366 63.5296C101.935 62.5283 101.72 61.377 101.72 60.0745C101.72 58.7733 101.935 57.622 102.366 56.6192C102.796 55.6179 103.365 54.7737 104.074 54.0857C104.782 53.3988 105.592 52.879 106.505 52.5289C107.418 52.1774 108.348 52.0017 109.298 52.0017C110.246 52.0017 111.176 52.1774 112.089 52.5289C113.001 52.879 113.812 53.3988 114.52 54.0857C115.227 54.7737 115.801 55.6179 116.239 56.6192C116.677 57.622 116.896 58.7733 116.896 60.0745C116.896 61.377 116.677 62.5283 116.239 63.5296C115.801 64.5311 115.227 65.3729 114.52 66.0523C113.812 66.7318 113.001 67.2478 112.089 67.5992C111.176 67.9496 110.246 68.1251 109.298 68.1251C108.348 68.1251 107.418 67.9496 106.505 67.5992C105.592 67.2478 104.782 66.7318 104.074 66.0523C103.365 65.3729 102.796 64.5311 102.366 63.5296ZM135.97 67.8401V54.3707L129.881 67.8401H128.568L122.502 54.3707V67.8401H121.122V52.2867H123.072L129.247 66.0192L135.423 52.2867H137.35V67.8401H135.97ZM157.497 67.8401V54.3707L151.409 67.8401H150.095L144.029 54.3707V67.8401H142.649V52.2867H144.599L150.775 66.0192L156.951 52.2867H158.877V67.8401H157.497ZM164.175 67.8401V52.2867H165.577V67.8401H164.175ZM179.024 56.258C178.937 55.8625 178.801 55.4827 178.62 55.1166C178.436 54.7515 178.192 54.4297 177.885 54.1521C177.578 53.8742 177.205 53.6506 176.768 53.4824C176.33 53.3152 175.819 53.2303 175.236 53.2303C174.768 53.2303 174.322 53.3042 173.9 53.449C173.476 53.5967 173.1 53.8042 172.772 54.0745C172.444 54.3461 172.181 54.6706 171.983 55.0514C171.786 55.4312 171.688 55.8489 171.688 56.301C171.688 57.0039 171.899 57.5886 172.323 58.0568C172.746 58.5252 173.352 58.853 174.14 59.0436L176.505 59.5916C177.717 59.8852 178.67 60.3781 179.365 61.0723C180.057 61.7677 180.403 62.6635 180.403 63.7595C180.403 64.3602 180.282 64.9231 180.042 65.449C179.802 65.9749 179.454 66.4356 179.004 66.8314C178.549 67.2258 178.008 67.5402 177.382 67.7737C176.755 68.0084 176.046 68.1251 175.258 68.1251C174.396 68.1251 173.637 67.9937 172.979 67.7308C172.323 67.4665 171.76 67.1238 171.293 66.6999C170.827 66.2759 170.458 65.7858 170.188 65.229C169.917 64.6737 169.753 64.0961 169.695 63.4965L170.986 63.0799C171.031 63.5924 171.158 64.0739 171.37 64.5274C171.581 64.9808 171.87 65.3827 172.235 65.734C172.6 66.0855 173.035 66.3632 173.538 66.5683C174.042 66.7724 174.615 66.8744 175.258 66.8744C175.856 66.8744 176.39 66.798 176.855 66.6447C177.323 66.4911 177.717 66.2796 178.037 66.008C178.359 65.7377 178.605 65.4196 178.771 65.0546C178.94 64.6884 179.024 64.294 179.024 63.8701C179.024 63.1391 178.782 62.5211 178.302 62.016C177.82 61.511 177.135 61.157 176.243 60.9518L173.9 60.4038C173.374 60.2871 172.892 60.1151 172.455 59.8878C172.016 59.6616 171.64 59.3802 171.327 59.0436C171.012 58.7068 170.764 58.3198 170.582 57.8813C170.399 57.4425 170.308 56.9448 170.308 56.3895C170.308 55.7899 170.443 55.2234 170.714 54.6888C170.983 54.1557 171.34 53.6912 171.786 53.2957C172.231 52.9012 172.75 52.5864 173.34 52.353C173.933 52.1197 174.548 52.0017 175.191 52.0017C175.98 52.0017 176.669 52.1086 177.261 52.32C177.853 52.5324 178.348 52.8139 178.75 53.164C179.151 53.5155 179.473 53.9209 179.715 54.3818C179.955 54.8424 180.133 55.3217 180.249 55.8195L179.024 56.258ZM192.797 56.258C192.71 55.8625 192.576 55.4827 192.393 55.1166C192.211 54.7515 191.965 54.4297 191.66 54.1521C191.353 53.8742 190.98 53.6506 190.543 53.4824C190.104 53.3152 189.594 53.2303 189.009 53.2303C188.542 53.2303 188.097 53.3042 187.674 53.449C187.25 53.5967 186.874 53.8042 186.546 54.0745C186.219 54.3461 185.954 54.6706 185.757 55.0514C185.56 55.4312 185.463 55.8489 185.463 56.301C185.463 57.0039 185.673 57.5886 186.098 58.0568C186.52 58.5252 187.125 58.853 187.915 59.0436L190.281 59.5916C191.492 59.8852 192.444 60.3781 193.138 61.0723C193.83 61.7677 194.177 62.6635 194.177 63.7595C194.177 64.3602 194.058 64.9231 193.816 65.449C193.575 65.9749 193.229 66.4356 192.777 66.8314C192.323 67.2258 191.783 67.5402 191.155 67.7737C190.528 68.0084 189.821 68.1251 189.031 68.1251C188.17 68.1251 187.41 67.9937 186.753 67.7308C186.098 67.4665 185.536 67.1238 185.068 66.6999C184.601 66.2759 184.233 65.7858 183.963 65.229C183.691 64.6737 183.527 64.0961 183.469 63.4965L184.761 63.0799C184.804 63.5924 184.932 64.0739 185.145 64.5274C185.355 64.9808 185.644 65.3827 186.008 65.734C186.373 66.0855 186.809 66.3632 187.313 66.5683C187.816 66.7724 188.389 66.8744 189.031 66.8744C189.631 66.8744 190.163 66.798 190.63 66.6447C191.098 66.4911 191.492 66.2796 191.813 66.008C192.135 65.7377 192.378 65.4196 192.546 65.0546C192.713 64.6884 192.797 64.294 192.797 63.8701C192.797 63.1391 192.557 62.5211 192.075 62.016C191.593 61.511 190.908 61.157 190.016 60.9518L187.674 60.4038C187.148 60.2871 186.665 60.1151 186.228 59.8878C185.791 59.6616 185.415 59.3802 185.102 59.0436C184.785 58.7068 184.538 58.3198 184.355 57.8813C184.173 57.4425 184.082 56.9448 184.082 56.3895C184.082 55.7899 184.218 55.2234 184.488 54.6888C184.757 54.1557 185.115 53.6912 185.56 53.2957C186.005 52.9012 186.524 52.5864 187.114 52.353C187.708 52.1197 188.322 52.0017 188.964 52.0017C189.754 52.0017 190.444 52.1086 191.036 52.32C191.626 52.5324 192.123 52.8139 192.525 53.164C192.926 53.5155 193.248 53.9209 193.488 54.3818C193.73 54.8424 193.907 55.3217 194.024 55.8195L192.797 56.258ZM198.426 67.8401V52.2867H199.828V67.8401H198.426ZM205.993 57.1354C205.651 57.9833 205.48 58.9637 205.48 60.0745C205.48 61.1866 205.651 62.1622 205.993 63.0024C206.336 63.8442 206.796 64.5495 207.373 65.1195C207.95 65.6899 208.611 66.1223 209.355 66.4148C210.1 66.7072 210.867 66.8535 211.654 66.8535C212.442 66.8535 213.209 66.7072 213.953 66.4148C214.698 66.1223 215.359 65.6899 215.936 65.1195C216.513 64.5495 216.976 63.8442 217.326 63.0024C217.676 62.1622 217.851 61.1866 217.851 60.0745C217.851 58.9637 217.676 57.9833 217.326 57.1354C216.976 56.2875 216.513 55.5773 215.936 55.0071C215.359 54.4371 214.698 54.0056 213.953 53.7134C213.209 53.4209 212.442 53.2748 211.654 53.2748C210.867 53.2748 210.1 53.4209 209.355 53.7134C208.611 54.0056 207.95 54.4371 207.373 55.0071C206.796 55.5773 206.336 56.2875 205.993 57.1354ZM204.724 63.5296C204.292 62.5283 204.078 61.377 204.078 60.0745C204.078 58.7733 204.292 57.622 204.724 56.6192C205.154 55.6179 205.724 54.7737 206.431 54.0857C207.14 53.3988 207.95 52.879 208.862 52.5289C209.774 52.1774 210.705 52.0017 211.654 52.0017C212.604 52.0017 213.534 52.1774 214.447 52.5289C215.359 52.879 216.17 53.3988 216.878 54.0857C217.585 54.7737 218.158 55.6179 218.596 56.6192C219.035 57.622 219.253 58.7733 219.253 60.0745C219.253 61.377 219.035 62.5283 218.596 63.5296C218.158 64.5311 217.585 65.3729 216.878 66.0523C216.17 66.7318 215.359 67.2478 214.447 67.5992C213.534 67.9496 212.604 68.1251 211.654 68.1251C210.705 68.1251 209.774 67.9496 208.862 67.5992C207.95 67.2478 207.14 66.7318 206.431 66.0523C205.724 65.3729 205.154 64.5311 204.724 63.5296ZM234.255 67.8401L224.86 54.0203V67.8401H223.479V52.2867H225.385L234.34 65.5583V52.2867H235.722V67.8401H234.255ZM241.021 67.8401V52.2867H250.174V53.5598H242.401V59.4159H249.497V60.689H242.401V66.5683H250.174V67.8401H241.021ZM259.854 59.8558C260.891 59.8558 261.723 59.5695 262.35 58.9995C262.978 58.4293 263.292 57.6687 263.292 56.719C263.292 55.753 262.978 54.9814 262.35 54.4038C261.723 53.8264 260.891 53.5376 259.854 53.5376H256.066V59.8558H259.854ZM259.307 61.1275H256.066V67.8401H254.662V52.2867H260.094C260.796 52.2867 261.427 52.401 261.989 52.6272C262.551 52.8545 263.035 53.164 263.445 53.5598C263.854 53.9541 264.167 54.4224 264.387 54.963C264.607 55.5049 264.716 56.0898 264.716 56.719C264.716 57.2889 264.625 57.8185 264.441 58.3089C264.26 58.799 263.996 59.2305 263.653 59.6028C263.309 59.9762 262.898 60.2871 262.417 60.5354C261.935 60.7835 261.401 60.9446 260.818 61.0181L264.672 67.8401H263.05L259.307 61.1275Z" fill="#fff"></path><path d="M22.2478 18.3647C21.9444 18.3241 21.6843 17.9854 21.3709 18.2492C21.3206 18.2914 21.3798 18.5982 21.4621 18.6412C21.7869 18.811 21.9938 18.5169 22.2478 18.3647ZM31.8274 1.97148C31.8543 1.71766 31.7127 1.6547 31.4854 1.66183C31.2867 1.66808 31.1692 1.72979 31.1665 1.95061C31.1637 2.17393 31.2259 2.30627 31.4838 2.30289C31.7155 2.29967 31.8443 2.22369 31.8274 1.97148ZM20.5936 16.9858C20.8524 16.9323 20.8693 16.7452 20.8574 16.5488C20.8433 16.3189 20.7557 16.1264 20.4953 16.1212C20.246 16.1162 20.1903 16.3064 20.198 16.5113C20.2076 16.7717 20.3389 16.9389 20.5936 16.9858ZM31.8274 9.4706C31.8342 9.2159 31.7102 9.06499 31.4576 9.04841C31.2095 9.03236 31.0422 9.15936 31.024 9.41103C31.0042 9.68446 31.1398 9.86729 31.4285 9.868C31.6754 9.86871 31.8215 9.73245 31.8274 9.4706ZM31.4244 8.98277C31.682 8.94192 31.8427 8.80386 31.8518 8.5306C31.8597 8.29105 31.7537 8.11358 31.504 8.0879C31.2336 8.05972 31.0645 8.19313 31.0408 8.47673C31.0174 8.75606 31.1851 8.8934 31.4244 8.98277ZM30.8899 3.30585C31.2363 3.30585 31.5029 3.29069 31.7669 3.31031C32.0279 3.32957 32.1088 3.25983 32.0156 2.99621C31.9189 2.7233 31.8238 2.51532 31.4608 2.53156C30.9382 2.55527 31.0895 2.98515 30.8899 3.30585ZM30.157 1.46706C30.157 1.67432 30.137 1.88496 30.1632 2.09009C30.1835 2.25098 30.0344 2.53673 30.3186 2.54226C30.538 2.54636 30.8615 2.53066 30.9232 2.21887C30.9639 2.01268 31.0306 1.74566 30.7236 1.63151C30.5508 1.56729 30.3983 1.43959 30.157 1.46706ZM32.8264 1.31597C32.3969 1.59655 31.8309 1.5509 31.9574 2.14075C32.0293 2.47466 32.5658 2.57526 32.6654 2.50195C33.021 2.2401 32.7793 1.80862 32.8264 1.31597ZM31.4833 0.643173C31.3012 0.736465 30.9414 0.499763 30.9527 0.873444C30.9612 1.16258 31.041 1.49506 31.5004 1.49131C31.9731 1.48756 32.02 1.11995 32.0216 0.850075C32.0238 0.487991 31.6597 0.747879 31.4833 0.643173ZM41.6068 14.3445C41.7011 14.7143 41.7534 14.9374 41.8156 15.1577C41.8793 15.3839 41.9337 15.6246 42.2469 15.6202C42.5931 15.6156 42.7267 15.3136 42.8161 15.0901C42.9263 14.8141 42.566 14.8309 42.4151 14.7303C42.208 14.5923 41.9635 14.5102 41.6068 14.3445ZM24.2071 5.91198C24.1786 5.4814 23.9783 5.22384 23.542 5.20244C23.2729 5.18924 23.0189 5.26166 22.9122 5.53099C22.8467 5.69633 23.6146 6.40018 23.855 6.40089C24.1939 6.4016 24.1593 6.11924 24.2071 5.91198ZM29.299 6.87249C29.2573 6.42033 28.9874 6.18096 28.5517 6.1749C28.328 6.17187 28.0669 6.25499 28.0283 6.53895C27.9985 6.75834 28.773 7.40331 29.0113 7.36782C29.2912 7.32572 29.2701 7.08261 29.299 6.87249ZM38.6225 5.8863C38.5738 5.43324 38.3276 5.19887 37.8758 5.20529C37.6308 5.20868 37.4037 5.30375 37.3325 5.55061C37.2713 5.76234 38.0096 6.39518 38.2793 6.38448C38.6127 6.37146 38.5893 6.10693 38.6225 5.8863ZM20.8645 7.12827C20.8265 6.67843 20.5961 6.40945 20.1473 6.38947C19.8837 6.37788 19.5412 6.50666 19.6026 6.77618C19.7 7.20354 20.0974 7.47965 20.5048 7.59274C20.7935 7.673 20.8173 7.34588 20.8645 7.12827ZM42.4618 13.6161C42.6873 13.9073 42.9176 14.1783 43.2436 14.3568C43.638 14.5726 43.7966 14.4023 43.8203 14.0163C43.8394 13.7086 43.6894 13.4748 43.4177 13.3515C43.0421 13.181 42.7265 13.3069 42.4618 13.6161ZM44.7458 10.594C44.7089 10.1336 44.4787 9.86247 44.0279 9.85712C43.7761 9.8541 43.5151 9.94524 43.4488 10.2387C43.4131 10.397 44.2154 11.1157 44.4089 11.0993C44.7243 11.072 44.698 10.7971 44.7458 10.594ZM44.464 12.3209C44.4548 11.8875 44.1763 11.5991 43.7782 11.6057C43.5171 11.6103 43.2526 11.6683 43.178 11.9683C43.1297 12.1625 43.9015 12.848 44.1367 12.8191C44.4455 12.7815 44.4498 12.5246 44.464 12.3209ZM32.2852 3.72787C32.2852 4.00345 32.3042 4.21713 32.2813 4.42654C32.2403 4.79843 32.345 5.06242 32.7519 5.08881C32.9941 5.10469 33.3194 5.4006 33.4437 5.15214C33.5861 4.86765 33.3 4.55745 33.109 4.30595C32.9193 4.0557 32.7049 3.81848 32.2852 3.72787ZM35.1083 7.00395C35.0988 6.61314 34.7218 6.24374 34.3566 6.27246C34.1028 6.29262 33.8442 6.3827 33.7566 6.644C33.6944 6.83004 34.5605 7.49928 34.7951 7.45968C35.0612 7.41491 35.0655 7.18036 35.1083 7.00395ZM40.3942 5.70401C40.3478 5.27432 40.1045 5.01033 39.6609 4.99748C39.4039 4.99017 39.0527 5.11949 39.1289 5.39917C39.2427 5.81763 39.6188 6.11372 40.0476 6.20557C40.3883 6.27853 40.3428 5.93892 40.3942 5.70401ZM20.8956 14.368C20.503 14.5837 19.9017 14.5444 19.8646 15.0567C19.848 15.284 20.1625 15.777 20.5262 15.6798C21.25 15.4866 20.7745 14.8211 20.8956 14.368ZM20.4887 13.8465C20.5026 13.4231 20.1766 13.0442 19.7984 13.0604C19.5482 13.0711 19.2776 13.1371 19.2048 13.4291C19.1581 13.6173 19.9033 14.322 20.1234 14.3163C20.4475 14.3079 20.452 14.0481 20.4887 13.8465ZM19.2405 8.02208C18.992 8.0656 18.7289 8.11411 18.6852 8.4268C18.6608 8.60052 19.4743 9.30829 19.6625 9.27404C19.9566 9.22054 19.9823 8.95458 19.978 8.72894C19.9693 8.26768 19.6948 8.04741 19.2405 8.02208ZM36.857 6.52289C36.8047 6.11568 36.5987 5.81852 36.1521 5.78409C35.8927 5.76394 35.6377 5.85597 35.5431 6.13423C35.4878 6.2969 36.2941 7.11829 36.483 7.07816C36.7468 7.02179 36.8047 6.7735 36.857 6.52289ZM42.1593 6.18613C42.1442 5.71417 41.8945 5.45251 41.4632 5.40613C41.169 5.37438 40.7643 5.61179 40.8223 5.79122C40.957 6.21039 41.3677 6.50363 41.7874 6.63687C42.0789 6.72926 42.1024 6.38786 42.1593 6.18613ZM25.1696 5.34763C24.9065 5.4106 24.4838 5.58557 24.6019 5.83707C24.7726 6.20077 25.1983 6.48882 25.6173 6.58086C25.8631 6.63491 25.9532 6.30011 25.94 6.06895C25.9147 5.6241 25.6448 5.39668 25.1696 5.34763ZM19.8041 12.2043C19.7174 11.7951 19.5221 11.4911 19.058 11.4997C18.7698 11.5051 18.5208 11.6224 18.4421 11.9353C18.4118 12.0555 19.3372 12.8109 19.4656 12.7661C19.7223 12.6764 19.7503 12.431 19.8041 12.2043ZM22.1789 6.6647C22.294 6.62634 22.3541 6.5195 22.409 6.40356C22.5596 6.0866 22.4624 5.81585 22.2292 5.59735C21.9677 5.35245 21.6606 5.31891 21.3575 5.52564C21.2214 5.61857 21.0161 5.79515 21.1494 5.92536C21.4449 6.21396 21.7396 6.53074 22.1789 6.6647ZM43.1671 8.57912C43.3819 8.76088 43.6005 8.98419 43.8569 9.14811C44.0033 9.24158 44.1868 9.48827 44.397 9.21822C44.5875 8.97314 44.6007 8.70969 44.4314 8.45016C44.24 8.15692 43.9767 8.00745 43.6207 8.11697C43.4124 8.181 43.2353 8.29195 43.1671 8.57912ZM30.6625 4.33788C30.5809 4.15452 30.7916 3.8299 30.5221 3.73911C30.2995 3.66438 30.1208 3.92693 29.9508 4.07747C29.6929 4.30614 29.527 4.60188 29.4153 4.92454C29.3775 5.03442 29.3213 5.17033 29.4927 5.24114C29.9513 5.43003 30.6819 4.88065 30.6625 4.33788ZM29.9868 7.09314C30.8481 7.9939 32.1888 7.9493 32.9529 7.00842C31.9565 6.81506 31.0056 6.7587 29.9868 7.09314ZM18.8283 11.1965C19.2105 11.0823 19.5785 10.9493 19.5623 10.4666C19.5473 10.0202 19.2724 9.74832 18.8458 9.73815C18.4073 9.72746 18.1203 10.0237 18.1211 10.4506C18.1216 10.8715 18.407 11.1294 18.8283 11.1965ZM53.0719 51.4136C53.1495 51.0298 53.1266 50.7619 52.7091 50.6522C51.5654 50.3518 50.4249 50.0386 49.2853 49.7236C49.0882 49.6692 48.9318 49.6175 48.8446 49.8866C48.7525 50.1706 48.983 50.1602 49.115 50.2013C50.4219 50.609 51.7325 51.0052 53.0719 51.4136ZM8.46707 38.2692C10.155 38.6958 11.7894 39.1098 13.4241 39.5213C13.6014 39.5661 13.7808 39.5691 13.8136 39.3338C13.844 39.1175 13.6512 39.1227 13.5161 39.087C12.0628 38.7024 10.6071 38.3275 9.157 37.9315C8.84771 37.8473 8.69431 38.0014 8.46707 38.2692ZM22.0673 66.4511C22.6921 65.0563 23.3062 63.6878 23.9171 62.3176C23.9894 62.1557 24.1479 61.9752 23.8575 61.8492C23.5563 61.7188 23.5563 61.9967 23.484 62.1368C22.9513 63.1715 22.4474 64.2213 21.8978 65.2466C21.6667 65.6779 21.6495 66.0357 22.0673 66.4511ZM21.5541 23.5479C21.441 23.9944 21.1669 24.2737 21.3602 24.6265C22.0216 25.835 22.6932 27.0379 23.3608 28.2429C23.4245 28.3578 23.4965 28.4686 23.6524 28.4106C23.8497 28.3369 23.8135 28.1843 23.7478 28.0437C23.5868 27.6982 23.4164 27.357 23.249 27.0145C22.7026 25.8963 22.1557 24.7781 21.5541 23.5479ZM19.5978 65.5998C20.5067 64.0644 21.357 62.6296 22.2053 61.1935C22.2845 61.0592 22.3314 60.9347 22.1513 60.8186C21.9317 60.6768 21.8505 60.8231 21.7587 60.9711C20.9876 62.2126 20.2188 63.4556 19.4444 64.6949C19.2649 64.9823 19.4231 65.2099 19.5978 65.5998ZM40.0068 66.2007C40.1843 65.7409 40.5025 65.4728 40.3325 65.083C39.8587 63.9946 39.3622 62.9162 38.8811 61.831C38.7951 61.6375 38.6755 61.576 38.4817 61.6553C38.2606 61.7461 38.3 61.9033 38.3694 62.0756C38.4882 62.3704 38.5984 62.6688 38.7159 62.9644C39.1283 64.0007 39.5423 65.0365 40.0068 66.2007ZM9.04641 36.7721C10.6985 37.2546 12.3209 37.7276 13.9424 38.203C14.1554 38.2652 14.3195 38.2369 14.3964 38.0013C14.5061 37.6654 14.2132 37.7321 14.0639 37.6852C12.7486 37.273 11.4292 36.8734 10.1132 36.4621C9.70245 36.3337 9.36925 36.4361 9.04641 36.7721ZM38.2245 67.2238C38.6774 66.0666 38.6769 66.0667 38.2361 65.039C38.1357 64.805 38.0412 64.5686 37.9424 64.3341C37.6868 63.7274 37.4263 63.123 37.1761 62.5142C37.0892 62.303 36.9631 62.2061 36.7343 62.286C36.5686 62.3437 36.582 62.4543 36.6287 62.5895C37.1538 64.1099 37.6764 65.6308 38.2245 67.2238ZM24.1483 67.9159C24.7153 66.2362 25.2675 64.6145 25.8039 62.9874C25.8554 62.831 26.1 62.6151 25.7402 62.4721C25.3476 62.3158 25.3796 62.6526 25.3125 62.8335C24.8412 64.1042 24.4001 65.3864 23.9134 66.6511C23.7418 67.0968 23.7528 67.4683 24.1483 67.9159ZM17.1138 65.2011C17.19 65.1708 17.2437 65.1672 17.2608 65.1401C18.3292 63.4576 19.3935 61.772 20.4623 60.0894C20.5704 59.9196 20.6004 59.7844 20.3954 59.6731C20.1423 59.5354 20.1143 59.7823 20.0362 59.8991C19.0826 61.3277 18.1417 62.765 17.185 64.1914C16.9579 64.5297 16.9954 64.8478 17.1138 65.2011ZM55.6743 49.9844C55.6393 49.5984 55.5084 49.3353 55.1363 49.2631C53.3059 48.9074 51.4757 48.5501 49.6431 48.2066C49.4854 48.177 49.2339 48.0441 49.169 48.3391C49.095 48.6759 49.4059 48.6459 49.5816 48.6862C50.965 49.0044 52.3502 49.3153 53.7393 49.6082C54.3736 49.742 54.9954 49.9598 55.6743 49.9844ZM9.80768 34.2914C9.87671 34.6816 9.81 35.1071 10.1778 35.2542C11.6121 35.8284 13.0572 36.3749 14.498 36.9328C14.7333 37.0238 14.8501 36.9043 14.939 36.7063C15.0471 36.4652 14.8635 36.4077 14.7119 36.3439C13.0781 35.6575 11.4426 34.9749 9.80768 34.2914ZM36.5272 69.1523C36.6688 68.4861 37.0527 67.8417 36.8656 67.245C36.4155 65.8099 35.8341 64.4161 35.3059 63.0052C35.2519 62.8611 35.1939 62.7068 34.9975 62.7751C34.7885 62.8483 34.8812 63.0232 34.914 63.1529C35.0701 63.7695 35.2369 64.3835 35.4028 64.9976C35.7766 66.3828 36.1524 67.7675 36.5272 69.1523ZM9.39209 53.681C10.9382 52.9886 12.4432 52.3174 13.9455 51.6391C14.1627 51.541 14.4679 51.4839 14.302 51.1097C14.1219 50.7039 13.8632 50.9866 13.6715 51.059C12.5048 51.4994 11.3623 52.0092 10.1812 52.4041C9.52033 52.6251 9.38174 53.0398 9.39209 53.681ZM7.06613 40.0177C9.05158 40.3707 11.0026 40.7199 12.9548 41.0603C13.1289 41.0906 13.3749 41.2964 13.4526 40.9224C13.5277 40.5623 13.2721 40.5653 13.0394 40.5166C11.4435 40.1834 9.84371 39.8659 8.25624 39.4951C7.7206 39.3699 7.36743 39.4878 7.06613 40.0177ZM25.7472 70.2621C26.1986 69.9016 26.6101 69.7969 26.6993 69.3628C27.106 67.3854 27.5059 65.4066 27.9106 63.4289C27.94 63.2849 28.0251 63.126 27.8068 63.0666C27.5651 63.0008 27.5269 63.1847 27.4841 63.355C27.3705 63.8084 27.2555 64.2613 27.1413 64.7145C26.6916 66.5036 26.2421 68.2926 25.7472 70.2621ZM10.2466 58.0718C10.3621 58.0514 10.4275 58.0571 10.4725 58.0295C12.1868 56.9723 13.8986 55.9115 15.6123 54.8535C15.786 54.7463 15.9255 54.6592 15.7917 54.4074C15.63 54.1027 15.4696 54.3155 15.3319 54.3902C13.9911 55.1185 12.6758 55.8973 11.3099 56.574C10.6507 56.9004 10.4496 57.4261 10.2466 58.0718ZM19.568 23.6896C19.3864 24.123 18.8515 24.4234 19.1467 24.9233C19.9661 26.31 20.8 27.6879 21.6292 29.0686C21.7187 29.2177 21.7994 29.3625 22.0205 29.2168C22.2039 29.0961 22.2133 28.9787 22.1222 28.7968C21.2678 27.0958 20.4186 25.3923 19.568 23.6896ZM30.8376 10.1093C30.8601 9.68197 30.8795 9.02432 30.9332 8.36935C30.9837 7.75398 30.5528 7.91666 30.2196 7.88135C29.8122 7.83818 29.7182 8.0071 29.7496 8.39487C29.8561 9.70641 29.9369 11.0203 30.0114 12.3341C30.028 12.6259 30.0617 12.8043 30.4297 12.7947C30.7912 12.7854 30.8456 12.6125 30.841 12.3157C30.8303 11.657 30.8376 10.998 30.8376 10.1093ZM56.3963 39.7179C54.7732 39.2748 54.7733 39.2755 53.3294 39.7098C52.6595 39.9114 51.9878 40.1069 51.3187 40.3111C50.6901 40.5029 50.0653 40.7076 49.4359 40.8956C49.2231 40.9593 49.0821 41.0496 49.1617 41.2973C49.2434 41.5517 49.4442 41.4339 49.588 41.4063C49.9207 41.3423 50.2469 41.2451 50.5762 41.1634C52.4663 40.6937 54.3565 40.2244 56.3963 39.7179ZM48.523 65.0056C48.5813 64.6935 48.4051 64.5577 48.2633 64.401C47.4669 63.5205 46.6728 62.6378 45.8772 61.7565C45.0532 60.8439 44.2225 59.9369 43.4077 59.0162C43.2176 58.8013 43.0656 58.7388 42.8284 58.939C42.5303 59.1903 42.8252 59.3094 42.9392 59.4352C44.6335 61.3036 46.3349 63.1659 48.0394 65.0249C48.1438 65.1385 48.2172 65.3554 48.425 65.2828C48.5619 65.2346 48.5094 65.0618 48.523 65.0056ZM13.7919 65.5388C15.5579 63.3489 17.2931 61.2016 19.019 59.0469C19.1246 58.9151 19.4362 58.7843 19.1358 58.5417C18.8449 58.3068 18.7694 58.6224 18.6546 58.7542C17.1479 60.4854 15.6617 62.2347 14.1418 63.9543C13.7312 64.419 13.4683 64.8651 13.7919 65.5388ZM5.32321 41.6623C5.43692 41.7008 5.53097 41.7498 5.6297 41.7634C7.97941 42.0798 10.3292 42.3953 12.6805 42.7018C12.9115 42.7319 13.2213 42.8459 13.2575 42.4335C13.295 42.009 12.9379 42.1071 12.7249 42.07C10.849 41.7427 8.96329 41.4657 7.09553 41.0977C6.36547 40.954 5.82034 41.1041 5.32321 41.6623ZM9.58561 28.8795C9.84835 29.8035 10.4113 30.512 11.1394 30.9538C12.8767 32.0085 14.6903 32.9367 16.4678 33.9263C16.7043 34.0579 16.8304 33.9523 16.9346 33.7786C17.0828 33.5314 16.82 33.4989 16.7059 33.4222C16.1776 33.0683 15.6369 32.7323 15.1004 32.3905C13.2623 31.2201 11.4239 30.05 9.58561 28.8795ZM34.6031 72.8535C34.7556 71.9329 35.1975 71.0268 34.9975 70.0964C34.5207 67.8797 33.9789 65.6766 33.4569 63.4697C33.4165 63.2986 33.412 63.0409 33.1405 63.0768C32.8621 63.1135 32.9381 63.3473 32.9548 63.5323C32.9647 63.6379 32.9754 63.7438 32.9939 63.8484C33.2854 65.4983 33.5765 67.1482 33.8711 68.7974C34.1126 70.1499 34.359 71.5014 34.6031 72.8535ZM28.5022 73.6206C29.1706 73.1979 29.477 72.6835 29.523 71.9277C29.669 69.5281 29.878 67.1323 30.0642 64.7352C30.0938 64.3535 30.135 63.9725 30.1641 63.5908C30.1768 63.4223 30.2044 63.22 29.962 63.1977C29.69 63.1725 29.6714 63.3852 29.6559 63.5835C29.6509 63.6472 29.6497 63.7112 29.6422 63.7747C29.3993 65.8233 29.1524 67.8718 28.9136 69.9209C28.7719 71.1356 28.643 72.3517 28.5022 73.6206ZM50.2408 46.5146C50.2251 46.5146 50.0972 46.5053 49.9711 46.5169C49.7667 46.5356 49.4644 46.3489 49.4148 46.7283C49.357 47.1695 49.7268 47.0408 49.9401 47.0706C52.5223 47.4307 55.1063 47.7806 57.6897 48.1327C57.9151 48.1632 58.2037 48.3175 58.3475 48.1174C58.4768 47.9376 58.2747 47.6763 58.2401 47.4478C58.1894 47.1135 57.9313 47.1458 57.707 47.1275C55.2556 46.9243 52.8043 46.7245 50.2408 46.5146ZM4.72868 47.6419C7.44591 47.2247 10.1054 46.8112 12.767 46.414C13.0782 46.3676 13.2181 46.2706 13.1885 45.9336C13.156 45.5639 12.9161 45.6265 12.6855 45.6393C12.5797 45.6452 12.4736 45.6524 12.3682 45.6648C10.1994 45.9178 8.03132 46.1757 5.86215 46.4233C4.852 46.5385 4.85095 46.5294 4.72868 47.6419ZM59.2646 41.6769C58.434 41.4618 57.6859 40.8856 56.8121 41.0685C54.5113 41.5501 52.22 42.077 49.9267 42.5942C49.659 42.6547 49.2896 42.6554 49.4095 43.1195C49.5259 43.5715 49.8564 43.3298 50.0758 43.2943C51.4767 43.0678 52.8734 42.8152 54.2709 42.5677C55.9358 42.2726 57.6001 41.974 59.2646 41.6769ZM8.4553 66.7246C9.3211 65.8864 10.1876 65.0486 11.0527 64.2096C13.2669 62.0626 15.4819 59.9164 17.6914 57.7648C17.8121 57.6471 18.0581 57.5374 17.8836 57.3017C17.6989 57.052 17.5451 57.2748 17.4081 57.3754C14.957 59.175 12.4705 60.9331 10.1594 62.9109C9.04998 63.8603 8.43122 65.1503 8.4553 66.7246ZM62.7879 45.0245C61.9976 44.5959 61.2171 44.1919 60.4561 43.7533C60.0323 43.5091 59.606 43.4272 59.1211 43.477C56.0831 43.7893 53.043 44.0816 50.005 44.3949C49.7485 44.4213 49.3674 44.3399 49.3809 44.8244C49.3955 45.3461 49.7846 45.1674 50.0334 45.1672C54.1533 45.1629 58.2731 45.1461 62.393 45.1279C62.5074 45.1274 62.641 45.1872 62.7879 45.0245ZM0.833494 44.5659C1.10502 44.5843 1.20507 44.5957 1.30497 44.5969C5.12094 44.6497 8.93814 44.5788 12.7527 44.7243C12.9926 44.7336 13.1854 44.6954 13.1635 44.3922C13.1467 44.1612 13.2725 43.8683 12.8487 43.8389C12.4063 43.8082 11.9683 43.7181 11.5282 43.6546C9.05354 43.2977 6.57855 42.9235 4.07128 42.9262C2.80007 42.9278 1.76156 43.4777 0.833494 44.5659ZM31.3922 79.2312C31.979 78.7544 32.3286 78.3265 32.5243 77.7623C32.8698 76.7661 33.0551 75.7443 32.9998 74.6948C32.8036 70.9565 32.1843 67.2623 31.8163 63.5418C31.8015 63.3914 31.7942 63.218 31.5996 63.208C31.3799 63.197 31.4038 63.3859 31.3948 63.5287C31.387 63.6559 31.3922 63.784 31.3922 63.9115V79.2312ZM27.9595 19.7319C28.3952 19.6752 28.7491 19.6137 29.1055 19.5851C30.2458 19.4935 30.2681 19.4979 30.2551 18.349C30.2501 17.8978 30.3892 17.7767 30.8314 17.779C32.2489 17.7863 32.2662 17.7679 32.2984 19.1597C32.3077 19.5486 32.4558 19.636 32.7907 19.6085C33.3854 19.5593 33.9756 19.5837 34.5662 19.693C35.9794 19.9552 37.4458 19.8637 38.8306 20.3279C38.8995 20.351 38.9862 20.3213 39.1199 20.3123C38.8797 19.811 38.3924 19.5632 38.1202 19.1046C38.6733 19.0113 39.1733 18.927 39.8035 18.8208C36.0071 17.213 24.807 17.3907 22.4022 19.0324C22.9789 19.1046 23.5556 19.177 24.2164 19.26C23.8245 19.6891 23.5037 20.0405 23.1121 20.4695C24.0661 20.337 24.8974 20.2214 25.783 20.0985C25.0282 19.3802 25.1466 18.7777 26.0315 18.4124C26.3345 18.287 26.6479 18.2572 26.9685 18.2654C27.952 18.2904 28.2618 18.7126 27.9595 19.7319ZM7.68083 22.8685C7.78767 24.835 8.37807 26.5379 10.0419 27.6226C12.4787 29.2115 14.954 30.7412 17.4165 32.2901C17.6138 32.4142 17.8269 32.66 18.0734 32.3516C18.3594 31.9936 17.9586 31.9123 17.8086 31.7793C15.1857 29.4528 12.5528 27.1376 9.92059 24.8218C9.1768 24.1674 8.42747 23.5194 7.68083 22.8685ZM30.0696 19.9742C29.1765 19.9406 28.2923 20.0617 27.4138 20.2069C25.7017 20.49 23.9749 20.696 22.2949 21.1549C22.0355 21.2256 21.8063 21.3117 21.7558 21.6141C21.6832 22.0489 21.6889 22.4638 22.0557 22.7899C22.3987 23.0949 22.7624 23.2287 23.221 23.0414C23.7302 22.833 24.24 22.6211 24.7847 22.51C29.7176 21.5051 34.6156 21.7659 39.4881 22.9165C40.3507 23.12 41.0417 22.5011 40.9045 21.621C40.8672 21.3802 40.7943 21.1608 40.5175 21.0968C39.4025 20.8398 38.2987 20.4948 37.1695 20.3452C34.8174 20.0334 32.4493 19.8643 30.0696 19.9742ZM31.069 10.9964C30.8041 11.3073 31.1407 11.6868 30.9468 12.0172C30.8401 12.1995 30.8025 12.4445 31.0251 12.5767C31.2391 12.7039 31.4924 12.7986 31.6815 12.5068C31.7387 12.5089 31.7958 12.5111 31.8529 12.513C31.7798 12.9024 32.0782 12.7765 32.2562 12.7952C32.5202 12.823 32.5541 12.6357 32.5815 12.4297C32.7734 10.9996 32.9721 9.57049 33.1662 8.14105C33.1817 8.02618 33.2565 7.89668 33.0861 7.8157C32.6762 7.62074 32.0896 8.00958 32.0205 8.45818C31.8896 9.30935 32.1055 10.1848 31.8226 11.0211C31.7778 11.0195 31.7328 11.0179 31.6881 11.0165C31.6554 10.9914 31.619 10.9821 31.5784 10.9887C31.5504 10.8749 31.5903 10.7943 31.6756 10.7115C31.8714 10.5215 31.8898 10.3046 31.7111 10.0911C31.5912 9.94791 31.4309 9.88708 31.2586 9.98251C31.0367 10.1054 30.9213 10.2872 30.9958 10.559C31.0349 10.7008 31.0454 10.8505 31.069 10.9964ZM9.49322 31.9594C9.49322 31.8777 9.46968 31.8419 9.39316 31.907C9.42437 31.9266 9.45541 31.9462 9.48662 31.9657C9.86209 32.5491 10.1956 33.2007 10.8499 33.5009C12.3102 34.1713 13.7983 34.7807 15.2702 35.426C15.4935 35.5241 15.6458 35.564 15.7916 35.3084C15.9712 34.9924 15.72 34.948 15.5429 34.8598C14.2171 34.1995 12.8956 33.5306 11.5598 32.8916C10.8786 32.5659 10.2447 32.1303 9.49322 31.9594ZM10.1268 60.9834C12.2542 59.4757 14.3835 57.9708 16.5052 56.4547C16.6443 56.3551 16.985 56.3047 16.7762 56.0014C16.5694 55.7014 16.3984 55.9986 16.2553 56.0922C14.4627 57.2657 12.6862 58.4638 10.8872 59.6271C10.3686 59.9625 10.1641 60.4153 10.1339 60.9925C10.1189 61.0055 10.1041 61.0187 10.0891 61.0318C10.1016 61.0157 10.1141 60.9995 10.1268 60.9834ZM42.7572 23.7482C42.0809 23.6516 41.6868 23.935 41.3918 24.5664C40.8892 25.6413 40.279 26.6651 39.7318 27.7198C39.5791 28.0141 39.329 28.2756 39.3497 28.6444C38.7573 28.5189 38.2154 28.2633 37.6787 27.9946C37.9964 28.0558 38.163 27.9281 38.2875 27.6194C38.7866 26.3813 39.3242 25.1588 39.8225 23.9204C39.8878 23.7584 40.2401 23.4575 39.7264 23.3578C39.4144 23.2971 39.0935 23.0695 38.9371 23.6221C38.5968 24.8242 38.1978 26.0094 37.8277 27.2032C37.7472 27.4627 37.639 27.7203 37.6878 28.0039C37.0967 27.7704 36.446 27.7028 35.8949 27.3582C36.0725 27.3284 36.2454 27.3573 36.3181 27.0894C36.667 25.8009 37.0434 24.52 37.4169 23.2383C37.4993 22.9556 37.367 22.8584 37.1197 22.8084C36.8932 22.7626 36.717 22.7246 36.6624 23.0481C36.42 24.4897 36.1587 25.9279 35.9042 27.3675C35.2679 27.3953 34.6832 27.1333 34.0429 27.0368C34.392 27.0019 34.4283 26.7432 34.4806 26.4983C34.7285 25.3346 34.979 24.1717 35.2198 23.0066C35.2629 22.7979 35.4033 22.5387 35.0011 22.4868C34.6645 22.4433 34.5145 22.517 34.4647 22.8955C34.3017 24.1381 34.0962 25.3755 33.8963 26.6132C33.8756 26.7425 33.9587 27.0031 33.7653 26.9808C33.3519 26.933 32.8674 27.1588 32.536 26.7202C32.8002 25.3607 32.754 23.9703 32.9436 22.6035C32.9793 22.3459 32.8705 22.2683 32.6268 22.2653C32.3636 22.2621 32.1904 22.2794 32.1939 22.6277C32.2064 23.8833 32.1904 25.139 32.1854 26.3947C32.1846 26.5707 32.18 26.7503 32.439 26.7286C32.1361 27.0348 31.7598 26.8028 31.4225 26.8654C30.9555 26.9521 30.7648 26.7978 30.7827 26.2679C30.8226 25.099 30.7827 23.9273 30.777 22.7571C30.7757 22.5029 30.8316 22.2464 30.4158 22.2582C29.975 22.2706 30.0976 22.5343 30.1158 22.7817C30.2164 24.1385 30.3118 25.4957 30.409 26.8527L30.4193 26.8424C30.1197 26.9594 29.8018 26.9476 29.4892 26.9774C29.2202 27.0031 29.1201 27.0029 29.0711 26.6258C28.9046 25.3468 28.6184 24.0839 28.3975 22.8115C28.3483 22.5266 28.3119 22.3077 27.9452 22.3918C27.5667 22.4784 27.726 22.754 27.7652 22.9509C27.9686 23.9682 28.1892 24.982 28.4106 25.9955C28.6788 27.2246 28.6589 27.2509 27.35 27.2366C27.0077 25.8337 26.6624 24.4317 26.3267 23.0273C26.2655 22.7715 26.209 22.5946 25.8699 22.6786C25.5371 22.761 25.5551 22.912 25.6434 23.1812C26.0474 24.4121 26.4501 25.6441 26.8086 26.8888C26.9085 27.2355 27.0856 27.2614 27.3589 27.227C26.7104 27.5639 25.9944 27.6862 25.3 27.8775C25.4852 27.7162 25.4944 27.5343 25.4013 27.312C24.8782 26.0631 24.3489 24.8163 23.8559 23.5556C23.6968 23.1482 23.4774 23.3619 23.2589 23.4156C22.9286 23.4969 23.0349 23.6933 23.1305 23.8977C23.7036 25.1243 24.2758 26.3517 24.84 27.5826C24.9386 27.7977 25.0465 27.9518 25.3121 27.8676C23.9817 28.4648 22.6347 29.0342 21.4391 29.8853C21.0725 30.1463 20.9316 29.9585 20.7479 29.6836C19.743 28.1812 18.7357 26.6801 17.7138 25.1895C17.3958 24.7253 17.1302 24.2166 16.702 23.8001C16.4035 24.7862 16.4027 24.7867 16.9506 25.5066C18.1908 27.1367 19.4319 28.7659 20.6888 30.4171C20.2165 30.6983 19.8869 31.1502 19.3199 31.3513C19.5881 31.0784 19.4574 30.8815 19.2858 30.6691C18.7646 30.0239 18.2563 29.3683 17.7402 28.7188C16.3834 27.0097 15.0251 25.3015 13.6428 23.5618C13.3274 25.0097 13.3392 25.0345 14.2003 25.9996C15.7156 27.6971 17.183 29.4405 18.76 31.0781C19.2542 31.5914 19.0858 31.7429 18.7077 32.1274C15.3426 35.5523 13.5677 39.6645 13.4362 44.4835C13.4068 45.5601 13.542 46.6289 13.5893 47.8131C13.3811 47.5136 13.1894 47.5587 13.0026 47.5923C11.0199 47.9501 9.04034 48.3266 7.05268 48.655C6.54405 48.7392 6.36477 49.0162 6.22054 49.5354C8.75745 49.0035 11.2507 48.703 13.7004 48.1153C13.7796 48.472 13.8734 48.8862 13.9624 49.3012C13.9754 49.3622 13.9654 49.428 13.9658 49.4914C13.7807 49.2595 13.5807 49.2295 13.2807 49.3178C11.9379 49.7134 10.5934 50.1121 9.22995 50.4235C8.55233 50.5785 8.27925 50.9283 8.24001 51.6352C10.0599 51.0539 11.8291 50.4795 13.606 49.9307C13.8666 49.8501 13.8893 49.6683 13.9578 49.4814C14.0016 49.5734 14.0594 49.6613 14.0874 49.758C15.184 53.5289 17.2105 56.7088 20.3546 59.0526C26.1653 63.3843 32.4397 64.0237 39.0762 61.1211C39.2421 61.0485 39.3904 60.8866 39.603 60.9811C40.0903 62.2297 40.8571 63.3293 41.4805 64.5055C41.6524 64.8298 41.771 65.2002 42.0735 65.4458C42.363 65.0113 42.2831 64.6457 42.0309 64.2431C41.423 63.2728 40.8555 62.2771 40.271 61.2925C40.1659 61.1154 40.1094 60.8891 39.85 60.8627C40.2858 60.4258 40.7823 60.0935 41.3934 59.9575C41.2224 60.1622 41.313 60.3253 41.4512 60.5104C41.8699 61.0714 42.2706 61.6457 42.6807 62.2131C43.4568 63.2867 44.2345 64.3589 45.0623 65.5017C45.2373 64.9559 45.2396 64.5774 44.9146 64.1682C43.8986 62.8895 42.9226 61.5786 41.9369 60.276C41.7924 60.085 41.672 59.8833 41.3834 59.9664C41.306 59.8272 41.4282 59.7827 41.5044 59.7259C42.4158 59.0449 43.2939 58.3234 44.1221 57.5572C47.2234 60.557 50.3165 63.5485 53.4696 66.5984C53.4976 66.406 53.5166 66.3436 53.5132 66.2824C53.5089 66.1982 53.4971 66.1119 53.4723 66.0314C53.068 64.7142 52.5154 63.543 51.3274 62.6728C48.9694 60.9456 46.6972 59.1002 44.3788 57.2953C44.5839 57.0551 44.8186 56.8075 45.0205 56.5356C45.193 56.3031 45.2968 56.284 45.5503 56.4821C46.9571 57.5827 48.3881 58.6522 49.8129 59.7295C50.4982 60.2477 51.1881 60.7598 51.9525 61.3314C51.8478 60.5555 51.5818 60.06 50.9935 59.6646C49.1448 58.4214 47.3368 57.1169 45.5094 55.8332C45.891 55.5173 46.1667 55.151 46.2672 54.7603C48.3057 56.04 50.3512 57.324 52.3969 58.6081C52.2769 57.872 51.8925 57.3977 51.3167 57.07C49.8573 56.2401 48.3994 55.4076 46.9453 54.5688C46.8303 54.5026 46.5458 54.4259 46.6487 54.3178C47.0386 53.9079 46.9731 53.223 47.5189 52.926C47.2985 53.233 47.3279 53.4176 47.7162 53.5895C48.9163 54.1207 50.0965 54.6961 51.2857 55.2519C51.5791 55.3889 51.8774 55.5156 52.268 55.6889C52.1067 54.9417 51.9141 54.4302 51.1994 54.2301C50.5096 54.0369 49.8598 53.7057 49.1788 53.4745C48.6254 53.2865 48.1197 52.9433 47.5081 52.9362C47.4738 52.6833 47.6347 52.494 47.7274 52.286C49.0661 49.283 49.5231 46.1486 49.2022 42.8789C49.0982 41.8198 48.7775 40.8079 48.6528 39.7575C48.7582 39.755 48.8726 39.7789 48.9678 39.746C50.587 39.1876 52.2038 38.6222 53.9677 38.0071C53.2941 37.886 52.7977 37.5883 52.2334 37.8298C51.1619 38.2884 50.0947 38.757 49.016 39.1972C48.7301 39.3139 48.6057 39.468 48.6626 39.7673C48.3656 39.1496 48.0849 38.5262 48.0112 37.8332C48.1996 38.0644 48.3801 38.1447 48.6938 37.9815C49.651 37.4838 50.635 37.0386 51.598 36.552C51.7252 36.4876 52.0614 36.5056 51.915 36.2129C51.798 35.9791 51.5745 36.0381 51.3604 36.138C50.325 36.6205 49.2866 37.0968 48.2442 37.5641C48.1065 37.6256 48.0596 37.7226 48.0187 37.8434C47.6597 37.4385 47.4223 36.978 47.3755 36.4302C47.584 36.6012 47.7728 36.5567 48.0011 36.4322C48.872 35.9566 49.7571 35.5066 50.6352 35.0436C50.9894 34.8566 51.3389 34.6603 51.7543 34.4334C51.2814 34.1958 50.9375 34.2011 50.5713 34.4128C49.6385 34.9519 48.6935 35.4697 47.7524 35.9944C47.5705 36.0958 47.3557 36.1659 47.3834 36.4397C46.5329 35.7524 46.5408 35.3859 47.4155 34.8882C47.5448 34.8147 47.672 34.7375 47.8009 34.6635C49.2323 33.8407 50.6639 33.018 52.1751 32.1497C51.7022 31.9972 51.3012 31.7249 50.9411 31.9348C49.3613 32.8552 47.8107 33.8262 46.2474 34.7803C46.1972 34.7138 46.1435 34.6185 46.0681 34.5459C45.65 34.1442 45.6809 33.8726 46.1698 33.4828C48.2975 31.7871 50.3858 30.0418 52.4792 28.3036C52.6145 28.1912 52.9707 28.0888 52.7788 27.86C52.5951 27.6413 52.2899 27.4501 51.9458 27.744C49.7187 29.6454 47.4831 31.5369 45.1998 33.4743C44.9874 32.9299 44.3522 32.6984 44.1881 32.0912C44.4426 32.0586 44.5844 31.8601 44.7539 31.7031C46.9173 29.6964 49.0813 27.6903 51.2429 25.6817C52.3103 24.6904 53.3732 23.6945 54.4674 22.673C54.0196 22.5257 54.0187 22.5204 53.7964 22.5567C52.2744 22.8052 50.9625 23.501 49.9704 24.6576C48.035 26.9141 46.1724 29.2332 44.2787 31.5256C44.1708 31.6565 44.0475 31.7773 44.0654 31.9683C43.8017 32.0222 43.7268 31.7644 43.5581 31.6612C42.9829 31.3082 43.056 30.9707 43.4616 30.4768C45.0951 28.4891 46.6854 26.4653 48.285 24.4498C48.4313 24.2659 48.6607 24.1123 48.6435 23.8158C47.3885 24.0433 46.6638 24.4861 46.0217 25.4056C45.0114 26.8526 44.0028 28.3005 42.9907 29.7464C42.3844 30.6124 42.3828 30.6104 41.5263 30.0378C41.3683 29.9323 41.2072 29.8311 41.1353 29.7847C42.4981 27.8775 43.8645 25.9652 45.231 24.0529C45.2587 24.024 45.3147 23.9785 45.3093 23.9696C45.2631 23.8918 45.2069 23.9264 45.1538 23.968C44.1917 24.2236 43.3995 24.6262 42.9131 25.6193C42.2589 26.9553 41.44 28.2103 40.6921 29.4997C40.2603 29.2411 39.8632 29.0031 39.466 28.765C39.6106 28.7035 39.7829 28.7507 39.895 28.5627C40.8485 26.9642 41.926 25.4418 42.8098 23.8003C42.8247 23.7711 42.8395 23.7415 42.8544 23.7122C42.822 23.7243 42.7897 23.7361 42.7572 23.7482ZM10.001 55.7462C11.6757 55.0245 13.2206 54.0528 14.8378 53.2205C15.1164 53.0769 15.0128 52.8513 14.927 52.6724C14.8086 52.425 14.6322 52.6123 14.5 52.6788C13.2124 53.3279 11.9354 53.9994 10.6396 54.6319C10.1503 54.8708 9.96197 55.2264 9.99622 55.7412C9.97713 55.7437 9.95787 55.7465 9.93878 55.7492C9.95252 55.7669 9.96643 55.7849 9.98034 55.8027C9.9873 55.7838 9.99408 55.7651 10.001 55.7462ZM52.4902 53.3113C52.504 53.3345 52.5179 53.3575 52.5316 53.3805C52.533 53.3671 52.5402 53.347 52.5343 53.3416C52.5207 53.3293 52.5009 53.3247 52.4836 53.3168C52.4488 52.9271 52.3836 52.5714 51.9339 52.4207C50.8724 52.0649 49.8186 51.6853 48.7586 51.3248C48.5975 51.27 48.381 51.117 48.2741 51.3899C48.1507 51.7047 48.447 51.7243 48.6202 51.7989C49.5909 52.2166 50.5619 52.6344 51.5426 53.0273C51.8461 53.1492 52.1258 53.3828 52.4902 53.3113ZM24.5427 16.883C24.9568 16.9126 25.3585 16.8582 25.7447 16.7016C26.0067 16.7241 26.2689 16.7466 26.5309 16.7689C26.6167 17.0739 26.8618 17.1863 27.1301 17.2829C27.9111 17.5644 28.7113 17.6056 29.5122 17.4269C30.6475 17.1732 31.1423 16.5743 31.2559 15.3928C31.3183 15.3305 31.3807 15.2685 31.4434 15.2062C31.4532 15.1736 31.4746 15.1621 31.5072 15.172C31.5286 15.2394 31.5498 15.307 31.5711 15.3746C31.5543 16.3285 31.9121 16.9035 32.7795 17.2669C33.595 17.6085 34.4736 17.6807 35.2724 17.3703C36.1319 17.0364 36.9028 16.4589 37.8955 16.8459C37.9361 16.8618 38.0069 16.8001 38.0638 16.7742C38.066 16.8452 38.0685 16.9162 38.0708 16.9872C38.1107 17.6795 38.8462 18.3439 39.6436 18.2566C40.0498 18.2124 40.3136 18.2861 40.6095 18.5164C40.7179 18.6005 40.9136 18.7671 41.059 18.6068C41.1599 18.4951 41.2167 18.2914 41.2019 18.1379C41.1792 17.9029 40.8997 18.1519 40.7834 17.9445C41.3239 17.7381 41.4389 17.113 41.9187 16.8142C42.101 16.7006 42.1477 16.4082 42.0307 16.1719C41.9055 15.9193 41.7254 16.0142 41.555 16.1223C41.4623 16.1812 41.4168 16.1765 41.4016 16.0518C41.3479 15.6141 40.9527 15.3398 40.8555 14.9213C41.0629 14.298 41.4171 13.7446 41.6911 13.1537C42.1156 12.2385 42.21 11.2966 41.7507 10.3528C41.8522 8.87628 40.5963 7.58704 39.1519 7.84959C37.4128 8.16566 35.7033 8.64601 33.9812 9.05518C33.4067 8.97153 33.1753 9.23444 33.128 9.80112C33.0578 10.6457 32.9274 11.4853 32.8161 12.3259C32.762 12.7329 32.7076 13.1753 32.1179 13.0219C31.5288 12.8685 30.9452 12.9181 30.3574 12.9921C29.9545 13.0426 29.7993 12.8608 29.7844 12.4647C29.7499 11.553 29.6622 10.6432 29.6477 9.73174C29.6385 9.14419 29.4392 8.94495 28.8831 9.18485C28.8176 9.07266 28.7093 9.0807 28.6045 9.08997C27.6288 9.17541 26.7145 8.9462 25.8125 8.5916C25.0203 8.28017 24.1879 8.08842 23.3397 8.01637C21.9 7.89454 20.7991 8.88431 20.7104 10.343C20.5875 10.5412 20.6282 10.7636 20.666 10.9619C20.9161 12.274 21.179 13.5843 21.9196 14.7335C21.7307 15.012 21.5395 15.2886 21.3538 15.5692C21.1039 15.9466 21.1879 16.2559 21.583 16.4519C21.8222 16.5705 22.0557 16.7287 22.3445 16.7339C22.4738 16.5028 22.3152 16.2753 22.3527 16.0509C22.658 16.5827 22.8366 17.1873 23.2679 17.6465C22.3846 17.8744 21.8482 17.1577 21.153 16.8035C21.1738 17.4882 21.5755 17.879 22.4254 18.104C23.4061 18.3635 24.426 17.7727 24.5498 16.8732L24.5427 16.883ZM40.3585 19.0572C40.3459 19.0343 40.3332 19.0117 40.3205 18.9888C40.3214 18.9997 40.318 19.0147 40.3239 19.0206C40.3364 19.0326 40.3535 19.0399 40.3689 19.049C40.4561 19.1875 40.5357 19.3322 40.6336 19.4628C40.7024 19.5548 40.7658 19.7139 40.9108 19.6443C40.9814 19.6103 41.0144 19.4744 41.0419 19.3781C41.0918 19.2025 40.9404 19.1817 40.8321 19.133C40.6814 19.0652 40.5307 18.9921 40.3585 19.0572ZM42.67 7.79447C42.8803 8.01511 43.0908 7.83354 43.3012 7.79501C43.6662 7.58186 43.7802 7.27525 43.5863 6.89764C43.3812 6.49863 43.0157 6.36825 42.6338 6.56428C42.1513 6.81185 42.101 7.21942 42.4076 7.66606C42.495 7.70886 42.5826 7.75166 42.67 7.79447ZM31.0511 79.9088C29.7993 78.7905 29.5081 77.2286 29.1215 75.7109C28.9751 75.1359 28.8376 74.6143 28.1136 74.4288C27.5922 74.2954 27.2662 73.8054 27.0915 73.2764C26.9385 72.8128 26.7844 72.3467 26.6765 71.8712C26.5357 71.2508 26.4813 70.5967 25.5465 70.8251C25.312 70.8825 25.1172 70.6831 24.9964 70.4608C24.8523 70.196 24.7298 69.9154 24.7255 69.6168C24.7159 68.9426 24.7342 68.3406 23.7386 68.4009C23.2572 68.4301 23.0023 67.9269 22.9163 67.4687C22.8655 67.1971 22.7711 67.1327 22.5112 67.1364C21.8907 67.1453 21.4485 66.8082 21.2225 66.2626C21.0839 65.9283 20.9286 65.8625 20.6209 65.9697C20.4209 66.0393 20.201 66.0584 20.0091 66.1429C19.5924 66.3268 19.2319 66.2342 18.9963 65.8807C18.7614 65.5279 18.5518 65.5939 18.2771 65.7899C18.1223 65.9003 17.9452 65.9788 17.7809 66.0767C17.2512 66.3924 16.7556 66.3016 16.4512 65.7992C16.2155 65.4107 16.0374 65.5113 15.7623 65.6802C15.4009 65.9023 15.0298 66.1088 14.6564 66.3106C14.1138 66.6034 13.6142 66.5555 13.2628 66.0191C13.0638 65.7152 12.9118 65.7733 12.6617 65.933C11.6954 66.5499 10.7307 67.1735 9.65857 67.5994C9.52069 67.6544 9.38424 67.7191 9.24065 67.7518C8.12799 68.004 7.44627 67.3674 7.63356 66.2424C7.79462 65.2759 8.22378 64.4263 8.82202 63.6611C9.23066 63.1381 9.55601 62.6357 9.06068 61.9639C8.79241 61.6 8.90193 61.2062 9.1875 60.8505C9.38549 60.604 9.54067 60.3213 9.7012 60.0466C9.86208 59.7718 9.81714 59.542 9.48216 59.4644C8.83558 59.3143 8.88391 58.8337 8.96365 58.3639C8.99754 58.1643 9.09992 57.9435 9.24029 57.8006C9.74989 57.2823 9.97071 56.821 9.28917 56.2342C8.97791 55.9665 9.19213 55.535 9.36051 55.2243C9.51926 54.9312 9.53139 54.7257 9.25902 54.516C8.81328 54.1728 8.6556 53.7271 8.75656 53.1641C8.84503 52.6715 8.40696 52.5695 8.09731 52.4423C7.57719 52.2284 7.18332 51.9907 7.3578 51.3227C7.437 51.0205 7.14882 50.9995 6.96398 50.926C6.55047 50.7613 6.11764 50.6388 5.71876 50.4449C5.05523 50.1226 4.92968 49.7546 5.32913 49.1626C5.60762 48.7495 5.45768 48.5412 5.0997 48.3882C4.52082 48.1409 4.11134 47.7995 3.98718 47.1226C3.91137 46.7099 3.56001 46.496 3.11639 46.3901C2.02947 46.1306 1.0366 45.6707 0.234767 44.8511C-0.0595405 44.5506 -0.091789 44.3219 0.221746 44.0058C0.844286 43.3778 1.51993 42.8482 2.37053 42.5662C3.01418 42.3527 3.63073 42.1506 3.92547 41.399C4.09791 40.9588 4.63774 40.8202 5.08067 40.6691C5.28085 40.601 5.43378 40.541 5.42402 40.2936C5.3901 39.4264 6.01118 39.1098 6.67574 38.904C7.15127 38.7568 7.41238 38.5754 7.32873 38.0259C7.2663 37.6147 7.52404 37.342 7.89504 37.2002C8.30368 37.044 8.50845 36.7784 8.46386 36.326C8.43264 36.005 8.52647 35.7615 8.86786 35.6186C9.36426 35.411 9.44881 35.0232 9.17894 34.5771C8.87482 34.0741 8.82006 33.617 9.35873 33.247C9.56635 33.1045 9.44024 33.0045 9.35784 32.8873C9.18643 32.6438 9.01983 32.3964 8.83807 32.1608C8.47956 31.6954 8.64437 31.4025 9.11793 31.1598C9.86672 30.7766 9.88509 30.6796 9.40225 29.9636C9.09332 29.5052 8.75959 29.0631 8.45423 28.6022C8.17758 28.1848 8.04095 27.7357 8.44834 27.3254C8.69163 27.0803 8.46029 26.9385 8.37557 26.7801C7.70205 25.5177 7.13398 24.2175 6.87096 22.7988C6.70626 21.9091 7.09531 21.486 7.99386 21.641C9.31129 21.8682 10.4313 22.6099 11.6506 23.0938C12.089 23.2677 12.4696 23.5797 12.8275 22.9001C13.0196 22.5357 13.517 22.6536 13.8818 22.8C14.3937 23.0055 14.893 23.2419 15.399 23.4616C15.692 23.589 15.9491 23.6976 16.0308 23.2048C16.0996 22.7879 16.428 22.7021 16.8143 22.7736C17.2554 22.855 17.564 23.1487 17.9026 23.4061C18.4136 23.7944 18.6109 23.7415 18.8707 23.1901C19.04 22.8307 19.5459 22.7356 19.9656 23.0046C20.1939 23.1509 20.399 23.3337 20.6457 23.5244C20.6978 23.3451 20.7044 23.1202 20.7794 23.0945C21.51 22.8428 21.2692 22.2255 21.3882 21.7074C21.5247 21.1127 21.4772 20.5892 21.2878 20.0368C21.1157 19.5345 20.9969 19.0138 20.8239 18.5115C20.666 18.0522 20.4998 17.6047 20.0733 17.284C19.7453 17.0373 19.6051 16.6412 19.5651 16.2184C19.5168 15.709 19.342 15.2751 18.8404 15.0271C18.4489 14.8336 18.3577 14.4524 18.3401 14.057C18.3224 13.6606 18.0552 13.3453 17.9694 13.0076C17.7014 11.9524 17.2817 10.8842 17.6701 9.75938C17.6771 9.73958 17.7001 9.72121 17.6989 9.70319C17.6264 8.57538 18.1995 7.67497 18.7268 6.75745C18.7896 6.64775 18.7972 6.46742 18.8857 6.41713C19.8782 5.85402 20.6912 4.9265 21.924 4.85248C22.2435 4.83339 22.5515 4.87513 22.8341 4.66769C22.948 4.58404 23.1237 4.50573 23.25 4.53106C24.1941 4.71977 25.2285 4.48897 26.0761 5.1195C26.2281 5.23258 26.3823 5.25417 26.5536 5.24221C26.9537 5.21421 27.2917 5.34692 27.6236 5.57184C28.2386 5.98869 28.509 5.87149 28.6692 5.16658C28.8146 4.52625 29.1128 3.97437 29.6087 3.53594C29.7838 3.38112 29.9304 3.25787 29.8111 2.94911C29.3008 1.62937 29.5953 0.837242 30.8011 0.126625C30.8497 0.097908 30.8831 0.0427856 30.9236 -2.28882e-05H32.0719C32.7526 0.365814 33.3467 0.759651 33.5367 1.62527C33.6815 2.28648 33.0529 2.85957 33.3694 3.43552C33.674 3.99007 34.1128 4.47006 34.2366 5.1195C34.2444 5.16124 34.2462 5.20441 34.2555 5.24579C34.3804 5.80176 34.6752 5.94267 35.0844 5.56506C35.5009 5.18104 35.9281 4.93131 36.5035 4.98483C36.6645 4.99981 36.7885 4.92561 36.8909 4.8045C37.3263 4.28812 37.8732 4.27243 38.4582 4.46845C38.6806 4.54301 38.8761 4.62934 39.1224 4.49521C39.675 4.19466 40.191 4.34752 40.6691 4.69676C40.8569 4.83411 41.0183 4.95236 41.2948 4.92115C42.1142 4.82911 43.9398 6.10301 44.1856 6.89818C44.2232 7.01983 44.2527 7.14433 44.2832 7.26812C44.3199 7.41777 44.3857 7.54833 44.5202 7.6327C45.1008 7.99657 45.1545 8.55754 45.0491 9.1499C45.0098 9.36947 44.9768 9.52661 45.1292 9.73209C45.4474 10.1609 45.4508 10.648 45.2073 11.1175C45.0899 11.3436 45.1224 11.5572 45.1277 11.7931C45.155 13.0076 44.5159 14.0186 44.0682 15.0845C44.0149 15.2112 43.7998 15.2832 43.6467 15.3514C43.2055 15.5485 42.9418 15.8401 42.8906 16.3576C42.8448 16.8201 42.7248 17.3022 42.3918 17.6497C41.62 18.4553 41.5044 19.5573 41.0511 20.5055C40.9966 20.6195 40.9532 20.7474 41.0481 20.8665C41.4418 21.361 41.341 21.9028 41.1926 22.4444C41.1519 22.5922 41.0684 22.7558 41.2472 22.8345C41.6774 23.0233 42.0842 23.3746 42.6045 23.0102C43.0608 22.6905 43.4903 22.7219 43.7793 23.2538C43.945 23.5594 44.1337 23.5495 44.3995 23.3897C44.7451 23.1819 45.0926 22.9609 45.4679 22.8243C45.8428 22.6878 46.311 22.5726 46.4832 23.11C46.6624 23.6696 46.974 23.5859 47.367 23.4038C47.8482 23.1805 48.3335 22.9652 48.8221 22.7587C49.1635 22.614 49.56 22.6101 49.7567 22.9174C50.1174 23.4809 50.4374 23.2802 50.8494 23.0134C51.9669 22.2904 53.1516 21.7225 54.5197 21.7164C55.4151 21.7125 55.7938 22.2451 55.5084 23.1059C55.3207 23.6728 55.0316 24.1883 54.6356 24.6513C54.07 25.3129 53.5092 25.9818 53.0726 26.7432C52.9008 27.0425 52.8093 27.2546 53.287 27.3354C53.6865 27.4032 53.7702 27.7043 53.6571 28.0676C53.6193 28.1892 53.5681 28.3066 53.5273 28.4275C53.229 29.3135 52.6413 30.0186 52.0935 30.7499C51.9862 30.8929 51.7529 31.0588 52.1331 31.2012C52.7929 31.4482 52.9326 31.8939 52.6037 32.5362C52.3984 32.9374 52.0393 33.2099 51.7459 33.5606C52.105 33.716 52.5063 33.9614 52.4137 34.2842C52.1845 35.0844 52.4068 35.7331 52.8222 36.376C52.8534 36.4245 52.8457 36.5003 52.8502 36.5636C52.886 37.0589 53.1529 37.2009 53.6277 37.1437C54.4491 37.045 54.8955 37.3702 54.9968 38.1798C55.0536 38.6332 55.1365 38.7991 55.6593 38.7008C56.6665 38.511 57.426 39.0704 57.525 40.0159C57.5637 40.3862 57.8311 40.3282 58.0252 40.3687C58.7527 40.5212 59.4881 40.6275 60.1097 41.0952C60.4066 41.3182 60.6279 41.5807 60.5248 41.9535C60.3151 42.7104 60.7057 43.0391 61.3441 43.2381C61.5865 43.3138 61.8239 43.4113 62.0543 43.5185C62.6622 43.8018 63.3309 43.9962 63.7133 44.621V45.2603C63.3038 45.5444 62.9797 45.934 62.5175 46.1596C61.625 46.5952 60.6723 46.798 59.7024 46.9061C59.2768 46.9534 59.1528 47.0811 59.2497 47.4924C59.3763 48.03 59.1196 48.3591 58.6475 48.6158C58.0544 48.9381 57.4052 49.0442 56.7682 49.1874C56.3958 49.2711 56.2882 49.3792 56.3556 49.7794C56.4858 50.5525 56.1398 50.9249 55.3438 50.9656C54.9622 50.9854 54.58 50.9905 54.1983 51.0021C54.0287 51.0073 53.8123 50.9872 53.8795 51.254C54.0147 51.7918 53.6737 52.0326 53.295 52.2559C53.0755 52.3854 52.899 52.4972 53.122 52.7901C53.4875 53.2701 53.378 53.7016 52.9176 54.0579C52.6756 54.2452 52.568 54.4159 52.7367 54.7493C53.3603 55.9816 53.3255 56.0865 52.2865 56.976C52.4922 57.2177 52.7214 57.4434 52.8996 57.7041C53.4773 58.5512 53.3826 59.0203 52.4963 59.5224C52.11 59.7413 52.2487 59.9491 52.4159 60.187C52.8147 60.7548 52.9188 61.3921 52.6304 61.9998C52.4021 62.4806 52.5337 62.7764 52.8273 63.136C53.5478 64.0178 54.0802 65.0072 54.3274 66.1279C54.5866 67.3021 53.9231 67.9168 52.7808 67.5855C52.0948 67.3867 51.5026 67.0276 50.9688 66.5572C50.54 66.1795 50.1224 65.789 49.5855 65.5516C49.1706 65.3681 48.7793 65.435 48.5601 65.7783C48.1489 66.4231 47.6952 66.2422 47.2047 65.9563C46.948 65.807 46.6842 65.6576 46.463 65.4631C46.0701 65.118 45.8087 65.2102 45.4802 65.5857C44.8919 66.2581 44.6995 66.2526 43.9073 65.7685C43.7085 65.6469 43.4983 65.5434 43.2989 65.4223C43.0453 65.2684 42.8446 65.2562 42.6611 65.5455C42.3022 66.1111 41.8019 66.2512 41.1739 66.0081C40.996 65.9394 40.7326 65.8088 40.6295 66.1087C40.4363 66.6712 39.9961 66.7577 39.5063 66.7149C39.1331 66.6825 38.953 66.8104 38.9136 67.1828C38.8561 67.7275 38.483 68.0618 38.003 68.1117C37.457 68.1686 37.3559 68.4742 37.3011 68.8999C37.2633 69.195 37.2098 69.4878 37.1622 69.7814C37.0987 70.1722 36.885 70.5454 36.5111 70.5571C35.5208 70.5882 35.4957 71.2613 35.4351 71.9646C35.4006 72.3663 35.3205 72.7637 35.2656 73.164C35.1539 73.9791 34.8691 74.3271 34.0836 74.5235C33.7472 74.6075 33.6303 74.7518 33.5882 75.1228C33.3881 76.8833 33.0349 78.5985 31.6891 79.9088H31.0511Z" fill="#fff"></path><path d="M47.2 45.0283C47.2 53.6356 40.2222 60.6136 31.6145 60.6136C23.007 60.6136 16.0293 53.6356 16.0293 45.0283C16.0293 36.4208 23.007 29.4431 31.6145 29.4431C40.2222 29.4431 47.2 36.4208 47.2 45.0283Z" stroke="#fff" stroke-width="3.89145" stroke-miterlimit="10"></path><path d="M33.4751 46.1932H29.79V43.4852H33.4751V46.1932ZM38.4551 34.5413H37.313V35.8852H36.0964V34.5413H34.7681V35.8852H33.5515V34.5413H32.223V35.8852H31.0063V34.5413H29.678V35.8852H28.461V34.5413H27.1329V35.8852H25.9161V34.5413H24.7743V40.4803H25.6774L25.6828 55.5151H30.0581V50.7494C30.0581 49.8562 30.7616 49.1316 31.6292 49.1316C32.498 49.1316 33.2017 49.8562 33.2017 50.7494V55.5151H37.5522V40.4803H38.4551V34.5413Z" fill="#fff"></path></svg>
