<svg width="460" height="155" viewBox="0 0 460 155" fill="none" xmlns="http://www.w3.org/2000/svg">
<path d="M7.33002 26.7798L14.52 24.5898V65.8898H36.23V72.4398H7.33002V26.7798ZM43.14 28.6298H50.87V35.4198H43.14V28.6298ZM43.43 41.3298H50.67V72.4398H43.43V41.3298ZM59.89 41.3298H67V46.2198C67.5066 45.4725 68.0682 44.7638 68.68 44.0998C69.7014 43.0029 70.9405 42.1313 72.3181 41.5406C73.6956 40.95 75.1813 40.6534 76.68 40.6698C80.2133 40.6698 82.9367 41.7632 84.85 43.9498C86.8788 46.3918 87.9109 49.5097 87.74 52.6798V72.4398H80.54V54.7798C80.6723 52.7577 80.0565 50.7575 78.81 49.1598C78.1996 48.4834 77.4452 47.9525 76.6023 47.6064C75.7595 47.2603 74.8497 47.1077 73.94 47.1598C73.0128 47.1224 72.088 47.2811 71.2264 47.6258C70.3648 47.9705 69.5856 48.4932 68.94 49.1598C67.5658 50.7448 66.8691 52.8062 67 54.8998V72.4398H59.89V41.3298ZM110.89 73.1398C108.747 73.1644 106.62 72.7604 104.635 71.9516C102.65 71.1427 100.846 69.9454 99.33 68.4298C97.8975 66.9522 96.7664 65.2098 96 63.2998C95.1652 61.3052 94.7434 59.1621 94.76 56.9998V56.8798C94.7433 52.6038 96.3933 48.4894 99.36 45.4098C100.838 43.9227 102.586 42.7314 104.51 41.8998C106.708 41.0111 109.061 40.5684 111.432 40.5976C113.803 40.6268 116.144 41.1273 118.32 42.0698C120.251 43.0406 121.984 44.3632 123.43 45.9698L119 50.7898C117.958 49.709 116.778 48.7708 115.49 47.9998C114.09 47.2383 112.513 46.8621 110.92 46.9098C109.675 46.9021 108.445 47.1756 107.32 47.7098C106.24 48.2401 105.278 48.9814 104.49 49.8898C103.686 50.8064 103.052 51.8597 102.62 52.9998C102.197 54.2216 101.987 55.507 102 56.7998V56.9198C101.989 58.2503 102.219 59.5717 102.68 60.8198C103.113 62.0854 103.817 63.2408 104.744 64.2053C105.671 65.1697 106.797 65.9198 108.044 66.4029C109.292 66.8859 110.629 67.0903 111.964 67.0017C113.299 66.9131 114.598 66.5336 115.77 65.8898C117.106 65.1274 118.33 64.1853 119.41 63.0898L123.71 67.3398C122.218 69.0407 120.442 70.4687 118.46 71.5598C116.122 72.7185 113.527 73.2622 110.92 73.1398H110.89ZM144.89 73.1398C142.645 73.1583 140.418 72.73 138.34 71.8798C136.384 71.0791 134.601 69.9076 133.09 68.4298C131.611 66.9681 130.441 65.2234 129.65 63.2998C128.831 61.3023 128.43 59.1583 128.47 56.9998V56.8798C128.462 54.7122 128.894 52.5654 129.74 50.5698C131.013 47.5625 133.155 45.0039 135.892 43.2221C138.628 41.4404 141.835 40.5168 145.1 40.5698C147.376 40.5444 149.634 40.9763 151.74 41.8398C154.7 43.0378 157.23 45.0985 159.003 47.7541C160.776 50.4096 161.709 53.5371 161.68 56.7298V56.8498C161.68 58.996 161.241 61.1195 160.39 63.0898C158.727 67.0149 155.588 70.1289 151.65 71.7598C149.55 72.6667 147.287 73.1363 145 73.1398H144.89ZM145 66.9498C146.301 66.984 147.593 66.7383 148.791 66.2294C149.988 65.7204 151.062 64.9601 151.94 63.9998C152.762 63.0774 153.397 62.0042 153.81 60.8398C154.245 59.617 154.465 58.3279 154.46 57.0298V56.9098C154.46 55.5809 154.22 54.263 153.75 53.0198C153.295 51.8378 152.616 50.7547 151.75 49.8298C150.906 48.9098 149.886 48.1685 148.75 47.6498C147.545 47.1257 146.244 46.8553 144.93 46.8553C143.616 46.8553 142.315 47.1257 141.11 47.6498C139.975 48.1692 138.955 48.9104 138.11 49.8298C137.299 50.7505 136.69 51.8302 136.32 52.9998C135.885 54.2298 135.666 55.5254 135.67 56.8298V56.9498C135.661 58.2721 135.898 59.5845 136.37 60.8198C136.838 61.9956 137.516 63.0765 138.37 64.0098C139.212 64.9322 140.233 65.6739 141.37 66.1898C142.529 66.7271 143.792 67.0035 145.07 66.9998L145 66.9498ZM169.25 28.2798L176.45 26.0998V72.4398H169.25V28.2798ZM185.71 41.2798H193V46.1698C193.5 45.4178 194.062 44.7087 194.68 44.0498C195.304 43.3703 196.017 42.7782 196.8 42.2898C198.557 41.1597 200.611 40.5783 202.7 40.6198C206.24 40.6198 208.97 41.7132 210.89 43.8998C212.912 46.3452 213.94 49.4615 213.77 52.6298V72.4398H206.56V54.7798C206.701 52.7583 206.088 50.7563 204.84 49.1598C204.227 48.4843 203.47 47.9542 202.626 47.6082C201.782 47.2622 200.871 47.109 199.96 47.1598C199.033 47.1211 198.108 47.2793 197.246 47.624C196.384 47.9688 195.605 48.4922 194.96 49.1598C194.27 49.9397 193.742 50.8485 193.406 51.8337C193.069 52.8189 192.931 53.861 193 54.8998V72.4398H185.8L185.71 41.2798ZM233 72.9998C230.683 72.9962 228.382 72.611 226.19 71.8598C223.883 71.033 221.73 69.8264 219.82 68.2898L223 63.4698C224.572 64.6688 226.31 65.6322 228.16 66.3298C229.753 66.9605 231.447 67.2992 233.16 67.3298C234.415 67.4114 235.664 67.0966 236.73 66.4298C237.144 66.1728 237.485 65.8151 237.723 65.3901C237.961 64.9652 238.087 64.4868 238.09 63.9998V63.8798C238.09 63.318 237.888 62.7749 237.52 62.3498C237.095 61.8714 236.578 61.4836 236 61.2098C235.27 60.8667 234.519 60.5727 233.75 60.3298C232.91 60.0398 232.04 59.7698 231.13 59.4998C229.99 59.1798 228.84 58.8098 227.69 58.4098C226.57 57.9985 225.513 57.4331 224.55 56.7298C223.624 56.0394 222.851 55.1643 222.28 54.1598C221.657 53.0073 221.353 51.7092 221.4 50.3998V50.2798C221.364 48.9453 221.635 47.6203 222.191 46.4068C222.748 45.1932 223.575 44.1235 224.61 43.2798C225.655 42.4292 226.858 41.7937 228.15 41.4098C229.563 40.9618 231.038 40.7391 232.52 40.7498C234.56 40.7666 236.585 41.1041 238.52 41.7498C240.455 42.3607 242.293 43.2428 243.98 44.3698L241.14 49.4698C239.711 48.58 238.188 47.849 236.6 47.2898C235.237 46.7899 233.801 46.5196 232.35 46.4898C231.209 46.4206 230.077 46.7299 229.13 47.3698C228.783 47.6213 228.499 47.9501 228.301 48.3303C228.104 48.7104 227.997 49.1314 227.99 49.5598V49.6798C227.987 49.9471 228.038 50.2122 228.139 50.4596C228.241 50.7069 228.39 50.9314 228.58 51.1198C229.038 51.5651 229.565 51.9332 230.14 52.2098C230.87 52.5683 231.622 52.8822 232.39 53.1498C233.23 53.4498 234.1 53.7298 235.01 53.9998C236.15 54.3465 237.29 54.7565 238.43 55.2298C239.512 55.6941 240.532 56.2885 241.47 56.9998C242.389 57.6699 243.162 58.5206 243.74 59.4998C244.36 60.5926 244.672 61.8337 244.64 63.0898V63.1998C244.668 64.6827 244.361 66.1528 243.74 67.4998C243.175 68.6786 242.339 69.7067 241.3 70.4998C240.196 71.3367 238.944 71.9576 237.61 72.3298C236.114 72.7744 234.561 73.0001 233 72.9998ZM251.82 28.2498L259.03 26.0698V46.1798C259.524 45.4289 260.083 44.7229 260.7 44.0698C261.325 43.3952 262.034 42.8037 262.81 42.3098C263.637 41.791 264.528 41.3809 265.46 41.0898C266.524 40.7712 267.63 40.6194 268.74 40.6398C270.259 40.5504 271.778 40.7971 273.19 41.3623C274.602 41.9275 275.873 42.7974 276.91 43.9098C278.932 46.3557 279.963 49.4707 279.8 52.6398V72.4398H272.6V54.7798C272.736 52.7589 272.124 50.7585 270.88 49.1598C270.265 48.4841 269.507 47.954 268.661 47.608C267.815 47.262 266.902 47.1089 265.99 47.1598C265.062 47.1192 264.137 47.2765 263.275 47.6213C262.412 47.9662 261.634 48.4906 260.99 49.1598C259.623 50.7247 258.929 52.7661 259.06 54.8398V72.4398H251.85L251.82 28.2498ZM288.52 28.5998H296.22V35.3898H288.5L288.52 28.5998ZM288.81 41.2598H296.02V72.4398H288.81V41.2598ZM345 73.1398C342.862 73.1688 340.74 72.7816 338.75 71.9998C336.841 71.2523 335.105 70.1212 333.65 68.6764C332.195 67.2317 331.051 65.5039 330.29 63.5998C329.445 61.5034 329.023 59.2602 329.05 56.9998V56.8998C329.031 54.7448 329.4 52.6039 330.14 50.5798C330.856 48.6724 331.932 46.9206 333.31 45.4198C334.659 43.9501 336.292 42.7696 338.11 41.9498C340.045 41.0638 342.152 40.6165 344.28 40.6398C346.539 40.587 348.779 41.0522 350.83 41.9998C352.623 42.87 354.198 44.1309 355.44 45.6898C356.709 47.263 357.663 49.0658 358.25 50.9998C358.889 53.0692 359.21 55.224 359.2 57.3898V58.3898C359.2 58.7098 359.14 59.0598 359.11 59.3898H336.19C336.377 61.6161 337.418 63.6836 339.096 65.1584C340.774 66.6332 342.958 67.4007 345.19 67.2998C346.778 67.3403 348.355 67.0189 349.8 66.3598C351.216 65.6417 352.509 64.7033 353.63 63.5798L357.82 67.2998C356.336 69.0534 354.522 70.4976 352.48 71.5498C350.151 72.6744 347.585 73.2198 345 73.1398ZM352.08 54.6898C351.979 53.5667 351.723 52.4629 351.32 51.4098C350.94 50.4735 350.395 49.6132 349.71 48.8698C349.031 48.1391 348.216 47.548 347.31 47.1298C345.878 46.5053 344.291 46.3259 342.756 46.6148C341.22 46.9036 339.807 47.6475 338.7 48.7498C337.204 50.3931 336.281 52.4774 336.07 54.6898H352.08ZM76.29 93.8698C75.1294 94.3128 73.8914 94.5168 72.65 94.4698C68.18 94.4698 65.46 91.8098 65.46 87.7198C65.46 83.3598 68.73 80.6498 72.98 80.6498C74.1517 80.6096 75.3192 80.8104 76.41 81.2398L75.84 83.2398C74.9663 82.8881 74.0319 82.7114 73.09 82.7198C72.4878 82.6607 71.8799 82.7218 71.3015 82.8995C70.7231 83.0771 70.1858 83.3679 69.7206 83.7549C69.2555 84.1419 68.8718 84.6174 68.5919 85.1538C68.312 85.6903 68.1414 86.277 68.09 86.8798C68.0652 87.1359 68.0652 87.3938 68.09 87.6498C67.9989 88.8429 68.3846 90.0235 69.1626 90.9326C69.9405 91.8418 71.0472 92.4054 72.24 92.4998C72.4963 92.5196 72.7537 92.5196 73.01 92.4998C73.9635 92.5143 74.9109 92.3445 75.8 91.9998L76.29 93.8698ZM95.64 87.4298C95.64 91.9298 92.78 94.4898 88.89 94.4898C85 94.4898 82.42 91.5998 82.42 87.6698C82.42 83.5498 85.14 80.6698 89.11 80.6698C93.08 80.6698 95.64 83.6098 95.64 87.4298ZM85.14 87.6298C85.14 90.3498 86.58 92.5198 89.05 92.5198C91.52 92.5198 92.93 90.3298 92.93 87.5198C92.93 84.9998 91.61 82.6098 89.05 82.6098C86.49 82.6098 85.14 84.8598 85.14 87.6298ZM105.63 80.8698V88.6798C105.63 91.2998 106.77 92.5198 108.51 92.5198C110.25 92.5198 111.51 91.2998 111.51 88.6798V80.8698H114V88.5098C114 92.6498 111.82 94.5098 108.39 94.5098C104.96 94.5098 103.02 92.7898 103.02 88.5698V80.8998L105.63 80.8698ZM122.22 94.2698V80.8698H125.14L128.77 86.6098C129.675 88.0531 130.48 89.5566 131.18 91.1098C131.01 89.3198 130.95 87.5798 130.95 85.5398V80.8698H133.33V94.2698H130.68L127.07 88.3798C126.137 86.8872 125.292 85.3412 124.54 83.7498H124.48C124.59 85.4798 124.61 87.2398 124.61 89.4598V94.2498L122.22 94.2698ZM144.22 82.9098H140.22V80.9098H150.85V82.9098H146.8V94.2698H144.22V82.9098ZM161.22 94.2698V88.6798L156.77 80.8698H159.69L161.38 84.3098C161.86 85.3098 162.22 86.0498 162.59 86.9698C162.96 86.1198 163.35 85.2798 163.83 84.3098L165.52 80.8698H168.52L163.84 88.6198V94.2698H161.22ZM194.89 93.8698C193.733 94.3128 192.498 94.5169 191.26 94.4698C186.78 94.4698 184.08 91.8098 184.08 87.7198C184.08 83.3598 187.28 80.6498 191.58 80.6498C192.752 80.6087 193.919 80.8095 195.01 81.2398L194.46 83.2398C193.579 82.888 192.638 82.7113 191.69 82.7198C190.483 82.623 189.286 83.0084 188.362 83.7918C187.438 84.5752 186.862 85.6928 186.76 86.8998C186.74 87.1494 186.74 87.4002 186.76 87.6498C186.722 88.2437 186.802 88.8391 186.995 89.4021C187.187 89.965 187.489 90.4844 187.883 90.9304C188.277 91.3763 188.755 91.7401 189.29 92.0009C189.825 92.2616 190.406 92.4142 191 92.4498C191.253 92.4698 191.507 92.4698 191.76 92.4498C192.717 92.4702 193.669 92.3003 194.56 91.9498L194.89 93.8698ZM214.25 87.4298C214.25 91.9298 211.39 94.4898 207.51 94.4898C203.63 94.4898 201.03 91.5998 201.03 87.6698C201.03 83.5498 203.74 80.6698 207.72 80.6698C211.7 80.6698 214.3 83.6098 214.3 87.4298H214.25ZM203.74 87.6298C203.74 90.3498 205.18 92.5198 207.65 92.5198C210.12 92.5198 211.54 90.3298 211.54 87.5198C211.54 84.9998 210.22 82.6098 207.65 82.6098C205.08 82.6098 203.79 84.8598 203.79 87.6298H203.74ZM224.23 80.8698V88.6798C224.23 91.2998 225.39 92.5198 227.11 92.5198C228.83 92.5198 230.11 91.2998 230.11 88.6798V80.8698H232.69V88.5098C232.69 92.6498 230.45 94.5098 227.07 94.5098C223.69 94.5098 221.7 92.7798 221.7 88.5098V80.8898L224.23 80.8698ZM240.82 94.2698V80.8698H243.75L247.38 86.6098C248.28 88.0544 249.082 89.5578 249.78 91.1098C249.61 89.3198 249.54 87.5798 249.54 85.5398V80.8698H252V94.2698H249.35L245.67 88.3798C244.741 86.885 243.896 85.3392 243.14 83.7498H243.09C243.18 85.4798 243.21 87.2398 243.21 89.4598V94.2498L240.82 94.2698ZM270.25 93.8698C269.089 94.3128 267.851 94.5168 266.61 94.4698C262.15 94.4698 259.43 91.8098 259.43 87.7198C259.43 83.3598 262.65 80.6498 266.95 80.6498C268.122 80.6096 269.289 80.8104 270.38 81.2398L269.81 83.2398C268.933 82.888 267.995 82.7114 267.05 82.7198C266.39 82.6669 265.726 82.7581 265.104 82.9873C264.482 83.2165 263.918 83.5781 263.45 84.047C262.982 84.516 262.621 85.0811 262.394 85.7032C262.166 86.3253 262.076 86.9895 262.13 87.6498C262.082 88.2383 262.151 88.8304 262.332 89.3923C262.513 89.9541 262.804 90.4748 263.186 90.9243C263.569 91.3739 264.036 91.7436 264.562 92.0122C265.088 92.2808 265.661 92.4431 266.25 92.4898C266.509 92.5148 266.771 92.5148 267.03 92.4898C267.987 92.5102 268.939 92.3403 269.83 91.9898L270.25 93.8698ZM280.25 80.8698V94.2698H277.7V80.8698H280.25ZM288.42 80.8698H291V92.2198H296.79V94.2198H288.44L288.42 80.8698ZM312.5 47.6598C312.986 46.7648 313.541 45.9089 314.16 45.0998C315.148 43.8735 316.339 42.8251 317.68 41.9998C319.343 40.8476 321.328 40.2524 323.35 40.2998H324.58L326.06 40.4398C326.532 40.4686 327 40.5389 327.46 40.6498L329.04 40.9398L329.59 41.0498C329.4 41.4998 329.23 41.9298 329.04 42.3698C328.85 42.8098 328.72 43.0998 328.54 43.4598C328.36 43.8198 328.21 44.1698 328.08 44.4598C327.874 44.8399 327.64 45.2042 327.38 45.5498C327.182 45.8251 326.965 46.0858 326.73 46.3298C326.375 46.6903 325.935 46.9552 325.45 47.0998C325.094 47.2008 324.716 47.2008 324.36 47.0998C323.79 46.9498 323.27 46.7898 322.73 46.6298C322.23 46.482 321.711 46.4079 321.19 46.4098C318.82 46.4098 317.39 47.6098 315.43 49.9998C313.481 52.4584 312.458 55.5236 312.54 58.6598V72.4398H305.33V41.3298H312.54L312.5 47.6598Z" fill="white"/>
<path d="M165.28 109.15C165.407 112.716 164.273 118.143 161.88 125.43C159.88 131.49 158.34 135.383 157.26 137.11L154.52 141.65C153.23 143.47 151.96 144.37 150.73 144.36C150.105 144.337 149.494 144.172 148.942 143.88C148.389 143.587 147.91 143.174 147.54 142.67C146.771 141.796 146.24 140.739 146 139.6C145.632 137.094 145.508 134.559 145.63 132.03C145.629 129.922 145.83 127.819 146.23 125.75C145.917 126.23 144.43 129.173 141.77 134.58C139.59 139.09 138.14 141.39 137.55 141.46C137.098 141.489 136.646 141.41 136.23 141.23C135.71 141.03 135.42 140.77 135.38 140.43C135.453 139.623 135.576 138.821 135.75 138.03C136.03 136.58 136.25 135.54 136.44 134.92L140.8 120.16C141.087 118.366 141.474 116.59 141.96 114.84C142.088 114.542 142.275 114.273 142.51 114.05C142.683 113.812 142.929 113.636 143.21 113.55C143.613 113.564 144.003 113.699 144.327 113.938C144.652 114.177 144.897 114.509 145.03 114.89C145.101 115.919 144.916 116.95 144.49 117.89C143.49 120.37 142.96 121.81 142.82 122.26C142.3 124.16 141.45 126.95 140.28 130.66C140.37 130.817 140.481 130.962 140.61 131.09C141.61 129 142.79 126.6 144.39 123.87C146.83 119.57 148.497 117.363 149.39 117.25C149.617 117.24 149.841 117.296 150.037 117.411C150.232 117.527 150.389 117.696 150.49 117.9C150.698 118.175 150.841 118.492 150.91 118.83C150.76 119.54 150.56 120.238 150.31 120.92C149.927 121.938 149.622 122.985 149.4 124.05C149.06 125.85 148.773 127.953 148.54 130.36C148.261 132.683 148.21 135.027 148.39 137.36C148.67 139.653 149.61 140.81 151.21 140.83C151.76 140.83 152.52 140.12 153.49 138.64L155 136C156.615 133.208 157.91 130.242 158.86 127.16C159.76 124.23 160.63 121.29 161.5 118.35C162.122 116.467 162.489 114.51 162.59 112.53C162.59 111.72 162.5 110.92 162.43 110.15C162.43 109.05 162.59 108.47 163.02 108.22C163.234 108.117 163.464 108.052 163.7 108.03C164.045 108.022 164.38 108.143 164.64 108.37C164.795 108.448 164.932 108.558 165.042 108.692C165.152 108.827 165.233 108.982 165.28 109.15ZM170.73 133.15C170.368 134.7 169.686 136.157 168.73 137.43C167.49 139.13 166.3 140.06 165.14 140.2C164.574 140.264 164.002 140.15 163.504 139.874C163.006 139.598 162.606 139.174 162.36 138.66C161.796 137.679 161.455 136.587 161.36 135.46C161.349 133.912 161.724 132.386 162.45 131.02C163.012 129.665 163.723 128.377 164.57 127.18C165.1 126.471 165.754 125.865 166.5 125.39C166.94 125.052 167.438 124.798 167.97 124.64C169.697 124.393 170.717 125.483 171.03 127.91C171.198 129.655 171.097 131.415 170.73 133.13V133.15ZM168.46 133.28C168.993 131.711 169.197 130.05 169.06 128.4C168.98 127.7 168.81 127.31 168.58 127.31C167.84 128.31 167.4 128.81 167.26 128.82C167.12 128.83 167.09 128.82 167.08 128.7C167.07 128.58 166.99 128.57 166.85 128.59C166 128.69 165.19 129.76 164.45 131.79C163.931 132.961 163.639 134.22 163.59 135.5C163.659 136.051 163.832 136.583 164.1 137.07C164.202 137.311 164.374 137.516 164.593 137.661C164.811 137.805 165.068 137.881 165.33 137.88C165.93 137.88 166.61 137.19 167.33 135.81C167.809 135.019 168.182 134.168 168.44 133.28H168.46ZM182.07 127C182.123 127.532 182.068 128.069 181.91 128.58C181.802 129.1 181.507 129.563 181.08 129.88C180.812 129.689 180.615 129.415 180.52 129.1L180.36 128.34C180.3 128.046 180.3 127.743 180.36 127.45C180.39 127.171 180.39 126.889 180.36 126.61C180.287 126.096 180.037 125.866 179.61 125.92C178.89 126.02 178.01 127.01 177 128.92C176 130.802 175.292 132.825 174.9 134.92C174.9 135.58 174.84 136.25 174.79 136.92C174.767 137.582 174.54 138.222 174.14 138.75C173.789 138.601 173.454 138.416 173.14 138.2C172.57 137.8 172.27 137.42 172.23 137.11C172.265 136.44 172.335 135.772 172.44 135.11C172.75 133.56 173.11 131.65 173.54 129.38C173.603 128.57 173.717 127.765 173.88 126.97C174.008 126.311 174.312 125.699 174.76 125.2C174.908 125.197 175.054 125.239 175.178 125.319C175.303 125.399 175.401 125.514 175.46 125.65C175.571 125.932 175.719 126.197 175.9 126.44L177.74 124.37C178.364 123.671 179.2 123.197 180.12 123.02C180.363 122.982 180.611 123.023 180.829 123.136C181.046 123.249 181.222 123.429 181.33 123.65C181.775 124.713 182.026 125.848 182.07 127ZM206.94 128.24C207.01 128.89 206.29 130.11 204.75 131.91C203.21 133.71 202.2 134.63 201.75 134.68L200.97 134.84C200.55 134.92 200.28 134.98 200.16 134.99C199.763 135.009 199.366 134.937 199.002 134.777C198.637 134.617 198.315 134.375 198.06 134.07C197.435 133.494 197.016 132.727 196.87 131.89C196.925 130.144 197.263 128.418 197.87 126.78C198.63 124.14 199.28 122.78 199.79 122.72C200.172 122.687 200.555 122.775 200.885 122.97C201.215 123.165 201.475 123.459 201.63 123.81C201.54 124.07 201 125.43 200.03 127.81C199.468 128.998 199.203 130.306 199.26 131.62C199.281 131.819 199.318 132.016 199.37 132.21C199.531 132.376 199.734 132.495 199.958 132.555C200.182 132.615 200.417 132.613 200.64 132.55C201.953 132.182 203.119 131.417 203.98 130.36C204.861 129.424 205.81 128.555 206.82 127.76C206.82 127.76 206.82 127.83 206.93 127.92C206.965 128.033 206.968 128.154 206.94 128.27V128.24ZM206.31 114.24C205.74 115.073 205.068 115.832 204.31 116.5C203.769 117.119 203.114 117.628 202.38 118C202.173 118.015 201.965 117.979 201.775 117.895C201.585 117.812 201.419 117.683 201.29 117.52C200.968 117.235 200.75 116.852 200.67 116.43C200.65 116.327 200.65 116.222 200.67 116.12C201.11 115.8 201.54 115.49 201.94 115.18C202.689 114.639 203.52 114.221 204.4 113.94L205.57 113.61C205.77 113.61 206.01 113.8 206.3 114.24H206.31ZM211.76 130.32C211.661 129.376 211.698 128.423 211.87 127.49C212.06 126.1 212.15 125.44 212.15 125.49C211.21 126.756 210.46 127.816 209.9 128.67C209.077 129.863 208.377 131.136 207.81 132.47C207.597 132.524 207.397 132.619 207.22 132.75C207.042 132.873 206.847 132.967 206.64 133.03C206.471 133.029 206.305 132.991 206.153 132.919C206.001 132.846 205.866 132.741 205.76 132.61C205.546 132.442 205.366 132.235 205.23 132C205.23 131.9 205.35 130.59 205.65 128.25C205.95 125.91 206.21 124.07 206.44 122.72C206.478 122.579 206.543 122.447 206.632 122.332C206.721 122.217 206.833 122.121 206.96 122.05C207.202 121.877 207.478 121.758 207.77 121.7C207.959 121.71 208.143 121.761 208.31 121.85C208.495 121.945 208.685 122.029 208.88 122.1C208.974 122.93 208.896 123.771 208.65 124.57C208.421 125.324 208.28 126.103 208.23 126.89C208.23 126.941 208.243 126.992 208.267 127.038C208.292 127.083 208.327 127.121 208.37 127.15C209.05 126.255 209.681 125.323 210.26 124.36C210.812 123.395 211.431 122.47 212.11 121.59C212.648 120.89 213.423 120.41 214.29 120.24C214.78 120.18 215.08 120.57 215.18 121.41C215.213 122.89 215.007 124.365 214.57 125.78C214.151 127.11 213.928 128.495 213.91 129.89C214.06 131.12 214.61 131.68 215.54 131.57C216.694 131.033 217.762 130.329 218.71 129.48L218.98 129.61C219.025 129.631 219.061 129.669 219.081 129.714C219.101 129.76 219.104 129.812 219.09 129.86C218.707 130.763 218.15 131.582 217.45 132.27C216.919 132.963 216.179 133.468 215.34 133.71C213.44 133.92 212.27 132.8 211.76 130.34V130.32ZM230.68 118.32C230.68 118.53 230.78 118.7 230.83 118.86C230.87 118.949 230.901 119.043 230.92 119.14C230.836 119.767 230.647 120.376 230.36 120.94C229.952 121.993 229.686 123.096 229.57 124.22C229.45 125.31 229.36 126.4 229.28 127.49C228.73 133.66 227.71 137.17 226.19 140.21C223.95 144.66 221.75 146.59 216.59 147.41C215.19 147.63 212.22 147.74 210.59 146.32C209.282 145.36 208.357 143.967 207.98 142.39C207.791 141.109 207.859 139.804 208.18 138.55C208.356 137.275 208.993 136.108 209.97 135.27L210.1 136C209.932 136.524 209.818 137.063 209.76 137.61C209.572 138.534 209.508 139.479 209.57 140.42C209.73 142.31 210.14 142.71 211.87 144.02C213.11 144.97 214.53 144.97 216.87 144.68C220.14 144.28 223.79 141.41 225.3 136.98C225.989 134.937 226.488 132.835 226.79 130.7C227.01 128.78 227.21 127.96 227.4 126.05C224.59 129.27 222.4 131.05 220.85 131.28C218.85 131.58 217.79 131.03 217.58 129.59C217.441 128.043 217.768 126.489 218.52 125.13C219.577 123.307 220.929 121.671 222.52 120.29C224.46 118.41 225.89 117.346 226.81 117.1C226.941 117.05 227.08 117.019 227.22 117.01C227.488 116.977 227.759 117.012 228.01 117.11C228.151 117.171 228.299 117.218 228.45 117.25C228.623 117.201 228.783 117.116 228.92 117C229.058 116.867 229.232 116.777 229.42 116.74C230.08 116.57 230.5 117.14 230.68 118.36V118.32ZM227.77 120.59L226.77 120.29C225.79 120.43 224.357 121.52 222.47 123.56C220.58 125.56 219.63 127.25 219.79 128.32C219.804 128.408 219.84 128.492 219.894 128.563C219.948 128.635 220.019 128.692 220.1 128.73C220.176 128.788 220.264 128.828 220.357 128.849C220.45 128.87 220.547 128.87 220.64 128.85C221.75 128.69 223.21 127.6 225 125.58C226.79 123.56 227.75 121.93 227.77 120.63V120.59ZM254.9 116.79C254.864 117.013 254.781 117.227 254.657 117.417C254.533 117.606 254.371 117.767 254.18 117.89C251.56 118.89 249.97 119.38 249.45 119.49C248.251 119.792 247.08 120.197 245.95 120.7C245.43 122.82 244.8 126.02 244.05 130.32C243.27 134.78 242.65 137.96 242.19 140.03C242.167 140.214 242.085 140.385 241.954 140.517C241.824 140.649 241.654 140.735 241.47 140.76C241.231 140.789 240.988 140.76 240.762 140.677C240.536 140.593 240.333 140.457 240.17 140.28C239.937 140.087 239.781 139.818 239.73 139.52C239.73 139.58 240.34 137.12 241.56 132.14C242.78 127.16 243.333 124.19 243.22 123.23C243.22 123.11 242.85 122.78 242.13 122.23C241.74 121.925 241.462 121.499 241.34 121.02C241.28 120.51 241.65 120.02 242.43 119.57C242.94 119.35 243.43 119.1 244 118.85C244.667 116.47 245.637 112.893 246.91 108.12C247.211 106.771 247.678 105.464 248.3 104.23C248.65 103.66 249.078 103.142 249.57 102.69C250.012 102.161 250.605 101.781 251.27 101.6C251.83 101.54 252.36 101.91 252.9 102.69C253.313 103.209 253.585 103.825 253.69 104.48C253.769 105.344 253.67 106.215 253.4 107.04C253.08 108.13 252.68 108.68 252.19 108.74C251.9 108.711 251.617 108.637 251.35 108.52C251.318 107.752 251.345 106.983 251.43 106.22C251.35 105.61 251.17 105.34 250.87 105.43C250.57 105.52 250.08 106.43 249.35 108.09C248.82 109.242 248.376 110.432 248.02 111.65C247.627 112.93 247.123 115 246.51 117.86C247.51 117.67 248.8 117.38 250.37 117L252.6 116.41H253.49C253.887 116.41 254.285 116.39 254.68 116.35C254.68 116.35 254.68 116.42 254.79 116.5C254.856 116.598 254.894 116.712 254.9 116.83V116.79ZM262.28 121.88C261.906 123.426 261.226 124.881 260.28 126.16C259.05 127.86 257.86 128.79 256.69 128.93C256.125 128.993 255.555 128.879 255.059 128.603C254.562 128.327 254.164 127.903 253.92 127.39C253.351 126.412 253.009 125.318 252.92 124.19C252.913 122.639 253.287 121.111 254.01 119.74C254.572 118.422 255.272 117.169 256.1 116C256.634 115.291 257.291 114.685 258.04 114.21C258.48 113.872 258.978 113.618 259.51 113.46C261.25 113.19 262.26 114.29 262.57 116.73C262.734 118.465 262.636 120.214 262.28 121.92V121.88ZM260 122.01C260.53 120.437 260.73 118.773 260.59 117.12C260.51 116.42 260.35 116.03 260.11 116.03C259.764 116.605 259.32 117.116 258.8 117.54C258.7 117.54 258.63 117.54 258.62 117.42C258.61 117.3 258.53 117.29 258.39 117.31C257.53 117.41 256.73 118.47 255.99 120.51C255.48 121.684 255.189 122.941 255.13 124.22C255.199 124.771 255.372 125.303 255.64 125.79C255.738 126.03 255.908 126.235 256.126 126.377C256.344 126.518 256.6 126.589 256.86 126.58C257.47 126.58 258.15 125.88 258.86 124.53C259.33 123.753 259.699 122.919 259.96 122.05L260 122.01ZM273.6 115.78C273.653 116.312 273.598 116.849 273.44 117.36C273.332 117.88 273.037 118.343 272.61 118.66C272.347 118.468 272.151 118.199 272.05 117.89L271.89 117.12C271.83 116.826 271.83 116.523 271.89 116.23C271.92 115.951 271.92 115.669 271.89 115.39C271.83 114.88 271.57 114.65 271.14 114.7C270.42 114.79 269.54 115.79 268.53 117.7C267.53 119.582 266.822 121.605 266.43 123.7C266.43 124.36 266.36 125.03 266.32 125.7C266.307 126.345 266.086 126.97 265.69 127.48C265.334 127.345 264.998 127.164 264.69 126.94C264.12 126.53 263.81 126.17 263.77 125.85C263.807 125.18 263.88 124.512 263.99 123.85C264.29 122.31 264.66 120.41 265.08 118.13C265.143 117.32 265.256 116.515 265.42 115.72C265.559 115.062 265.862 114.45 266.3 113.94C266.448 113.931 266.595 113.969 266.72 114.051C266.844 114.132 266.939 114.251 266.99 114.39C267.104 114.674 267.259 114.94 267.45 115.18C268.04 114.5 268.66 113.81 269.28 113.12C269.901 112.417 270.738 111.942 271.66 111.77C271.903 111.732 272.151 111.773 272.368 111.886C272.586 111.999 272.762 112.179 272.87 112.4C273.317 113.487 273.564 114.645 273.6 115.82V115.78ZM301.71 118.4C301.71 119.4 300.94 120.58 299.44 121.93C298.479 122.98 297.242 123.739 295.87 124.12C295.757 124.13 295.643 124.13 295.53 124.12C295.417 124.1 295.303 124.1 295.19 124.12C294.601 124.112 294.03 123.908 293.57 123.54C293.145 123.28 292.775 122.941 292.48 122.54C291.948 121.723 291.607 120.797 291.48 119.83C291.449 119.497 291.449 119.162 291.48 118.83L288.65 122.03C287.764 123.068 286.551 123.774 285.21 124.03C284.82 124.03 284.4 123.78 283.94 123.12C283.583 122.702 283.338 122.199 283.23 121.66C283.05 120.22 283.97 118.08 286 115.27C288.03 112.46 289.7 110.97 291 110.82C291.165 110.787 291.336 110.799 291.494 110.855C291.653 110.912 291.793 111.01 291.9 111.14C292.09 111.4 292.28 111.66 292.44 111.93C292.57 111.55 292.7 111.19 292.84 110.83C293.09 110.17 293.36 109.83 293.67 109.74C294.131 109.76 294.568 109.949 294.9 110.27C295.09 110.52 295.11 111.07 294.9 111.93C294.543 112.563 294.258 113.233 294.05 113.93C293.828 114.854 293.671 115.793 293.58 116.74C293.477 117.401 293.43 118.07 293.44 118.74C293.521 119.519 293.788 120.267 294.22 120.92C294.411 121.276 294.702 121.569 295.058 121.763C295.413 121.956 295.817 122.042 296.22 122.01C297.158 121.791 298.019 121.321 298.71 120.65C299.57 119.93 300.41 119.22 301.25 118.53L301.71 118.4ZM291.57 114.19C291.392 114.184 291.215 114.147 291.05 114.08C290.871 113.999 290.676 113.962 290.48 113.97C290.09 113.97 289.55 114.43 288.87 115.19C288.46 115.66 288.04 116.19 287.64 116.65C287.067 117.338 286.586 118.097 286.21 118.91C285.821 119.632 285.577 120.424 285.49 121.24C285.535 121.244 285.579 121.258 285.619 121.281C285.658 121.303 285.693 121.333 285.72 121.37C285.765 121.41 285.817 121.44 285.874 121.459C285.93 121.478 285.99 121.485 286.05 121.48C286.42 121.48 287.32 120.59 288.77 118.96C289.56 118.081 290.289 117.149 290.95 116.17C291.252 115.539 291.451 114.864 291.54 114.17L291.57 114.19ZM320.57 111.01C320.903 113.15 320.177 115.456 318.39 117.93C316.61 120.42 314.75 121.86 312.76 122.3L311.42 122.6C311.125 122.614 310.83 122.566 310.554 122.459C310.279 122.352 310.029 122.189 309.82 121.98C309.333 121.644 308.98 121.149 308.82 120.58C308.659 119.26 308.93 117.924 309.59 116.77C310.178 115.423 311.126 114.263 312.33 113.42C312.63 113.34 312.8 113.42 312.87 113.72C312.909 113.91 312.904 114.107 312.858 114.295C312.811 114.484 312.723 114.659 312.6 114.81C311.429 116.283 310.829 118.13 310.91 120.01C310.997 120.107 311.106 120.183 311.227 120.23C311.349 120.276 311.48 120.294 311.61 120.28C311.72 120.265 311.828 120.235 311.93 120.19L312.16 120.07C312.9 119.901 313.606 119.61 314.25 119.21C315.567 118.296 316.661 117.096 317.45 115.7C318.381 114.449 318.8 112.889 318.62 111.34C318.51 110.489 318.09 109.709 317.44 109.15C317.156 108.914 316.818 108.754 316.456 108.684C316.094 108.614 315.721 108.637 315.37 108.75C314.62 108.94 313.73 109.84 312.68 111.41C312.199 112.312 311.578 113.132 310.84 113.84C310.658 113.882 310.468 113.873 310.291 113.813C310.115 113.752 309.958 113.644 309.84 113.5C309.582 113.244 309.399 112.922 309.31 112.57C310.105 109.503 311.056 106.479 312.16 103.51C312.44 102.336 312.937 100.516 313.65 98.0498C313.732 97.314 313.869 96.5853 314.06 95.8698L315.25 95.2398C315.546 95.3092 315.819 95.4546 316.041 95.6615C316.264 95.8684 316.429 96.1297 316.52 96.4198C316.648 96.9394 316.591 97.4872 316.36 97.9698C315.063 100.946 313.928 103.991 312.96 107.09C313.895 106.749 314.854 106.478 315.83 106.28C316.435 106.187 317.053 106.272 317.611 106.524C318.168 106.776 318.64 107.185 318.97 107.7C319.815 108.643 320.379 109.803 320.6 111.05L320.57 111.01ZM332.47 107.25C332.63 108.583 331.72 110.323 329.74 112.47C327.74 114.62 325.9 115.88 324.14 116.2C324.228 116.586 324.399 116.949 324.641 117.263C324.883 117.577 325.189 117.835 325.54 118.02C326.071 118.352 326.697 118.497 327.32 118.43C328.362 118.201 329.356 117.795 330.26 117.23C331.74 116.39 332.44 115.95 332.44 115.93C332.592 115.876 332.756 115.865 332.915 115.896C333.073 115.928 333.22 116.002 333.34 116.11C332.585 117.124 331.646 117.986 330.57 118.65C329.566 119.499 328.383 120.111 327.11 120.44C326.477 120.541 325.83 120.496 325.218 120.307C324.606 120.118 324.045 119.79 323.58 119.35C322.741 118.554 322.198 117.496 322.04 116.35C321.773 114.503 322.537 112.253 324.33 109.6C326.123 106.946 327.963 105.49 329.85 105.23C330.147 105.21 330.445 105.251 330.725 105.351C331.005 105.451 331.262 105.607 331.48 105.81C331.743 105.973 331.969 106.188 332.145 106.443C332.321 106.698 332.441 106.986 332.5 107.29L332.47 107.25ZM330.2 108.06C330.057 107.929 329.874 107.851 329.68 107.84C328.331 108.185 327.16 109.023 326.4 110.19C325.568 111.17 324.939 112.305 324.55 113.53C325.244 113.444 325.905 113.182 326.47 112.77C327.074 112.288 327.652 111.774 328.2 111.23C329.128 110.372 329.825 109.296 330.23 108.1L330.2 108.06ZM345.44 104.43C345.435 104.524 345.456 104.617 345.5 104.7C345.568 104.76 345.613 104.841 345.63 104.93C345.603 105.177 345.486 105.405 345.3 105.57C343.612 106.083 341.975 106.753 340.41 107.57C339.564 108.047 338.766 108.606 338.03 109.24C338.064 109.776 338.007 110.313 337.86 110.83C337.717 111.354 337.653 111.897 337.67 112.44C337.694 112.664 337.741 112.885 337.81 113.1C337.848 113.32 337.901 113.537 337.97 113.75C337.96 114.663 337.87 115.573 337.7 116.47C337.44 118.2 337.12 119.09 336.7 119.14C336.28 119.19 335.81 118.83 335.3 118.05C334.97 117.611 334.739 117.106 334.62 116.57C334.722 115.703 334.869 114.842 335.06 113.99C335.25 113.12 335.4 112.25 335.51 111.37C335.443 111.169 335.334 110.985 335.19 110.83C335.055 110.687 334.94 110.525 334.85 110.35C334.585 109.786 334.403 109.186 334.31 108.57C334.376 108.201 334.538 107.856 334.78 107.57C335.1 107.09 335.33 106.83 335.46 106.82C335.573 106.81 335.685 106.783 335.79 106.74L336.1 106.67C336.34 106.67 336.67 105.57 337.19 103.67C337.42 102.58 337.65 101.6 337.86 100.57C338.33 99.0098 338.86 96.7198 339.55 93.7198C339.656 93.4295 339.852 93.1807 340.11 93.0098C340.265 92.9417 340.395 92.8262 340.48 92.6798L341.11 92.5998C341.201 92.8976 341.329 93.183 341.49 93.4498C341.711 93.8069 341.857 94.2048 341.92 94.6198C341.738 96.3407 341.303 98.0255 340.63 99.6198C339.879 101.607 339.258 103.642 338.77 105.71L339.01 105.93C339.863 105.601 340.743 105.347 341.64 105.17C343 105 344.28 104.74 345.47 104.47L345.44 104.43ZM354.68 103.29C354.661 103.338 354.658 103.391 354.671 103.441C354.683 103.491 354.711 103.536 354.75 103.57C354.816 103.635 354.861 103.719 354.88 103.81C354.851 104.058 354.729 104.286 354.54 104.45C352.871 104.963 351.254 105.633 349.71 106.45C348.864 106.927 348.066 107.486 347.33 108.12C347.364 108.659 347.306 109.2 347.16 109.72C347.017 110.241 346.953 110.78 346.97 111.32C346.995 111.55 347.042 111.778 347.11 112C347.148 112.213 347.201 112.424 347.27 112.63C347.26 113.543 347.17 114.453 347 115.35C346.74 117.09 346.41 117.98 346 118.02C345.59 118.06 345.11 117.72 344.6 116.93C344.27 116.494 344.038 115.993 343.92 115.46C344.022 114.589 344.169 113.725 344.36 112.87C344.55 112.01 344.7 111.13 344.81 110.25C344.743 110.055 344.633 109.878 344.49 109.73C344.357 109.581 344.242 109.417 344.15 109.24C343.887 108.675 343.706 108.075 343.61 107.46C343.675 107.09 343.837 106.745 344.08 106.46C344.4 105.97 344.63 105.72 344.76 105.69C344.873 105.688 344.986 105.664 345.09 105.62C345.189 105.581 345.294 105.558 345.4 105.55C345.62 105.55 345.97 104.46 346.49 102.55C346.72 101.46 346.93 100.47 347.16 99.4598C347.63 97.8898 348.16 95.5898 348.84 92.5898C348.96 92.3046 349.158 92.0587 349.41 91.8798C349.566 91.8188 349.697 91.7058 349.78 91.5598L350.41 91.4798C350.495 91.7767 350.623 92.0596 350.79 92.3198C351.012 92.6834 351.158 93.0882 351.22 93.5098C351.034 95.2301 350.6 96.9143 349.93 98.5098C349.173 100.489 348.548 102.517 348.06 104.58L348.3 104.8C349.152 104.47 350.032 104.219 350.93 104.05C352.22 103.87 353.47 103.61 354.71 103.33L354.68 103.29ZM362.89 103.5C363.05 104.82 362.14 106.57 360.16 108.72C358.18 110.87 356.32 112.11 354.56 112.45C354.648 112.835 354.82 113.196 355.061 113.509C355.303 113.821 355.61 114.077 355.96 114.26C356.491 114.591 357.117 114.738 357.74 114.68C358.781 114.45 359.773 114.037 360.67 113.46C362.15 112.62 362.86 112.2 362.86 112.17C363.012 112.117 363.175 112.105 363.333 112.135C363.491 112.165 363.638 112.235 363.76 112.34C363.011 113.361 362.07 114.227 360.99 114.89C359.985 115.737 358.802 116.349 357.53 116.68C356.896 116.781 356.247 116.735 355.633 116.546C355.02 116.357 354.457 116.03 353.99 115.59C353.148 114.797 352.608 113.737 352.46 112.59C352.18 110.73 352.95 108.47 354.74 105.83C356.53 103.19 358.38 101.74 360.27 101.47C360.868 101.441 361.454 101.65 361.9 102.05C362.161 102.217 362.386 102.436 362.561 102.691C362.736 102.947 362.858 103.236 362.92 103.54L362.89 103.5ZM360.61 104.31C360.544 104.241 360.465 104.186 360.377 104.149C360.29 104.111 360.195 104.091 360.1 104.09C358.751 104.435 357.581 105.273 356.82 106.44C355.988 107.42 355.359 108.555 354.97 109.78C355.668 109.69 356.332 109.425 356.9 109.01C357.504 108.529 358.082 108.014 358.63 107.47C359.55 106.612 360.238 105.535 360.63 104.34L360.61 104.31ZM374.21 103.5C374.257 104.029 374.203 104.561 374.05 105.07C373.938 105.591 373.644 106.056 373.22 106.38C372.954 106.187 372.757 105.913 372.66 105.6L372.5 104.84C372.432 104.544 372.432 104.236 372.5 103.94C372.52 103.663 372.52 103.386 372.5 103.11C372.43 102.6 372.18 102.37 371.74 102.42C371.02 102.51 370.15 103.51 369.13 105.42C368.134 107.303 367.43 109.326 367.04 111.42C367.04 112.08 366.96 112.75 366.93 113.42C366.914 114.084 366.679 114.724 366.26 115.24C365.904 115.102 365.567 114.917 365.26 114.69C364.68 114.29 364.38 113.93 364.34 113.6C364.373 112.929 364.446 112.261 364.56 111.6C364.86 110.05 365.23 108.15 365.65 105.88C365.718 105.067 365.832 104.26 365.99 103.46C366.131 102.805 366.433 102.197 366.87 101.69C367.018 101.681 367.165 101.719 367.29 101.801C367.414 101.882 367.509 102.001 367.56 102.14C367.674 102.427 367.829 102.697 368.02 102.94L369.85 100.86C370.475 100.163 371.311 99.6886 372.23 99.5098C372.472 99.4766 372.719 99.5193 372.935 99.6322C373.152 99.745 373.328 99.9224 373.44 100.14C373.905 101.217 374.176 102.368 374.24 103.54L374.21 103.5ZM397.42 99.3298C397.47 99.6598 397.23 100.02 396.7 100.42C394.08 101.38 392.507 101.916 391.98 102.03C390.782 102.326 389.614 102.731 388.49 103.24C387.963 105.36 387.327 108.563 386.58 112.85C385.8 117.32 385.19 120.49 384.73 122.57C384.702 122.753 384.616 122.923 384.485 123.055C384.354 123.186 384.184 123.272 384 123.3C383.761 123.327 383.519 123.298 383.293 123.214C383.067 123.131 382.864 122.996 382.7 122.82C382.476 122.614 382.319 122.346 382.25 122.05C382.25 122.13 382.88 119.66 384.1 114.68C385.32 109.7 385.87 106.68 385.75 105.77C385.75 105.65 385.37 105.32 384.65 104.77C384.266 104.457 383.993 104.03 383.87 103.55C383.81 103.04 384.17 102.55 384.96 102.11C385.47 101.88 385.96 101.64 386.53 101.38C387.197 99.0064 388.167 95.4298 389.44 90.6498C389.747 89.3056 390.214 88.003 390.83 86.7698C391.18 86.2003 391.608 85.682 392.1 85.2298C392.544 84.7031 393.136 84.3231 393.8 84.1398C394.36 84.0698 394.89 84.4398 395.43 85.2298C395.822 85.7529 396.079 86.3641 396.18 87.0098C396.249 87.8705 396.151 88.7366 395.89 89.5598C395.57 90.6498 395.17 91.2098 394.69 91.2598C394.393 91.2409 394.102 91.1698 393.83 91.0498C393.806 90.2789 393.832 89.5072 393.91 88.7398C393.83 88.1298 393.64 87.8698 393.35 87.9598C393.06 88.0498 392.57 88.9598 391.84 90.6198C391.31 91.7766 390.862 92.9696 390.5 94.1898C390.12 95.4564 389.62 97.5231 389 100.39C390 100.19 391.28 99.9098 392.86 99.5298L395.05 98.9398H397.12L397.23 99.0798C397.329 99.1543 397.405 99.2547 397.45 99.3698L397.42 99.3298ZM412.06 106.39C411.64 107.209 411.082 107.95 410.41 108.58C409.647 109.453 408.617 110.05 407.48 110.28C406.954 110.338 406.422 110.27 405.927 110.08C405.433 109.891 404.992 109.585 404.64 109.19C403.806 108.396 403.279 107.334 403.15 106.19C403.12 105.88 403.12 105.569 403.15 105.26L400.79 108.54C399.79 109.77 398.99 110.42 398.34 110.54C396.76 110.74 395.84 109.83 395.6 107.83C395.5 107.03 395.903 105.14 396.81 102.16C397.717 99.1798 398.447 97.6231 399 97.4898C399.25 97.4898 399.54 97.7298 399.88 98.2098C400.145 98.5635 400.332 98.9689 400.43 99.3998C400.43 99.3998 399.99 100.49 399.12 102.79C398.377 104.463 397.931 106.253 397.8 108.08C397.792 108.118 397.797 108.158 397.813 108.194C397.829 108.23 397.856 108.26 397.89 108.28C398.89 107.75 400.29 106.03 402.1 103.09C402.45 102.6 402.95 101.76 403.64 100.57C403.86 100.05 404.09 99.4798 404.34 99.0298C404.578 98.4857 405.014 98.0529 405.56 97.8198L406.41 98.6298C406.642 98.8104 406.799 99.0705 406.85 99.3598C406.48 100.154 406.208 100.99 406.04 101.85C405.587 103.232 405.351 104.676 405.34 106.13C405.401 106.617 405.583 107.081 405.87 107.48C406.28 108.16 406.75 108.48 407.29 108.41C408.15 108.225 408.96 107.853 409.66 107.32C410.376 106.751 411.159 106.271 411.99 105.89L412.06 106.39ZM420.29 95.2598C420.276 95.3069 420.275 95.3569 420.287 95.4045C420.3 95.4521 420.325 95.4954 420.36 95.5298C420.419 95.5979 420.467 95.6757 420.5 95.7598C420.465 96.0114 420.341 96.242 420.15 96.4098C418.46 96.9189 416.822 97.5886 415.26 98.4098C414.417 98.8915 413.62 99.4506 412.88 100.08C412.927 100.618 412.873 101.161 412.72 101.68C412.572 102.2 412.508 102.74 412.53 103.28C412.559 103.506 412.602 103.729 412.66 103.95C412.74 104.26 412.79 104.47 412.83 104.58C412.82 105.496 412.73 106.409 412.56 107.31C412.3 109.04 411.97 109.93 411.56 109.98C411.15 110.03 410.67 109.68 410.15 108.89C409.829 108.45 409.601 107.95 409.48 107.42C409.48 107.3 409.61 106.42 409.92 104.83C410.117 103.966 410.264 103.091 410.36 102.21C410.302 102.008 410.191 101.825 410.04 101.68C409.904 101.532 409.793 101.363 409.71 101.18C409.441 100.624 409.258 100.031 409.17 99.4198C409.227 99.05 409.386 98.7035 409.63 98.4198C409.96 97.9398 410.19 97.6798 410.32 97.6698C410.43 97.6585 410.538 97.6315 410.64 97.5898L410.95 97.5198C411.19 97.5198 411.54 96.4298 412.04 94.5198C412.27 93.4298 412.5 92.4498 412.73 91.4198C413.2 89.8598 413.73 87.5698 414.4 84.5698C414.51 84.2787 414.71 84.0301 414.97 83.8598C415.128 83.7956 415.258 83.679 415.34 83.5298L415.96 83.4598C416.059 83.7499 416.19 84.0282 416.35 84.2898C416.568 84.6554 416.714 85.0593 416.78 85.4798C416.594 87.2012 416.156 88.8858 415.48 90.4798C414.769 92.4625 414.178 94.4862 413.71 96.5398L413.95 96.7498C414.806 96.4347 415.685 96.1873 416.58 96.0098C417.83 95.8198 419.08 95.5698 420.32 95.2998L420.29 95.2598ZM434.29 103.67C433.87 104.489 433.312 105.23 432.64 105.86C431.878 106.74 430.843 107.339 429.7 107.56C429.174 107.616 428.642 107.546 428.149 107.357C427.655 107.167 427.213 106.863 426.86 106.47C426.031 105.673 425.508 104.612 425.38 103.47C425.34 103.161 425.34 102.848 425.38 102.54L423 105.91C422 107.14 421.2 107.79 420.54 107.91C418.96 108.11 418.05 107.2 417.8 105.21C417.7 104.42 418.12 102.52 419.02 99.5298C419.92 96.5398 420.67 94.8498 421.13 94.8498C421.39 94.8498 421.69 95.0898 422.01 95.5698C422.28 95.9218 422.471 96.3276 422.57 96.7598C422.57 96.7598 422.12 97.8498 421.25 100.14C420.524 101.822 420.085 103.613 419.95 105.44C419.951 105.477 419.96 105.514 419.978 105.547C419.995 105.58 420.02 105.608 420.05 105.63C421.043 105.11 422.447 103.383 424.26 100.45C424.6 99.9631 425.11 99.1231 425.79 97.9298C426.01 97.3998 426.25 96.8298 426.49 96.3898C426.728 95.8427 427.169 95.4091 427.72 95.1798L428.56 95.9798C428.681 96.0643 428.783 96.1726 428.861 96.2982C428.938 96.4237 428.989 96.5638 429.01 96.7098C428.637 97.5062 428.365 98.346 428.2 99.2098C427.748 100.592 427.512 102.036 427.5 103.49C427.566 103.977 427.744 104.443 428.02 104.85C428.43 105.53 428.91 105.85 429.45 105.77C430.312 105.59 431.122 105.217 431.82 104.68C432.525 104.138 433.29 103.678 434.1 103.31L434.29 103.67ZM441.55 95.2498C441.605 95.7779 441.554 96.3116 441.4 96.8198C441.288 97.3438 440.99 97.8094 440.56 98.1298C440.293 97.9335 440.097 97.6565 440 97.3398L439.84 96.5898C439.77 96.2905 439.77 95.9791 439.84 95.6798C439.86 95.4068 439.86 95.1327 439.84 94.8598C439.78 94.3498 439.53 94.1198 439.08 94.1698C438.36 94.2498 437.5 95.2598 436.48 97.1698C435.489 99.0547 434.784 101.077 434.39 103.17C434.39 103.83 434.31 104.5 434.28 105.17C434.258 105.83 434.023 106.465 433.61 106.98C433.253 106.848 432.916 106.666 432.61 106.44C432.04 106.03 431.74 105.67 431.7 105.35C431.73 104.679 431.8 104.012 431.91 103.35C432.23 101.8 432.58 99.8898 433 97.6298C433.072 96.8172 433.189 96.0093 433.35 95.2098C433.478 94.5532 433.778 93.9424 434.22 93.4398C434.37 93.4284 434.519 93.4662 434.645 93.5474C434.772 93.6286 434.868 93.7488 434.92 93.8898C435.032 94.1759 435.184 94.4451 435.37 94.6898L437.2 92.6098C437.829 91.9125 438.668 91.4387 439.59 91.2598C439.833 91.2274 440.081 91.2704 440.299 91.383C440.517 91.4957 440.696 91.6726 440.81 91.8898C441.242 92.9743 441.489 94.1236 441.54 95.2898L441.55 95.2498ZM452.11 92.5898C452.28 93.9098 451.37 95.6498 449.4 97.7998C447.43 99.9498 445.56 101.2 443.8 101.54C443.889 101.922 444.058 102.281 444.296 102.592C444.534 102.904 444.835 103.163 445.18 103.35C445.714 103.682 446.344 103.826 446.97 103.76C448.013 103.531 449.008 103.122 449.91 102.55C451.38 101.71 452.09 101.28 452.09 101.25C452.246 101.196 452.413 101.184 452.574 101.215C452.736 101.247 452.886 101.321 453.01 101.43C452.258 102.449 451.318 103.315 450.24 103.98C449.23 104.82 448.049 105.43 446.78 105.77C446.146 105.869 445.497 105.823 444.884 105.634C444.271 105.445 443.708 105.119 443.24 104.68C442.396 103.886 441.849 102.827 441.69 101.68C441.42 99.8298 442.19 97.5798 443.98 94.9298C445.77 92.2798 447.62 90.8198 449.51 90.5598C450.109 90.5728 450.687 90.7825 451.155 91.1566C451.623 91.5306 451.955 92.0483 452.1 92.6298L452.11 92.5898ZM449.84 93.3898C449.773 93.3195 449.692 93.2637 449.603 93.2259C449.513 93.188 449.417 93.1689 449.32 93.1698C447.951 93.5174 446.764 94.3715 446 95.5598C445.171 96.5431 444.539 97.6772 444.14 98.8998C444.838 98.8156 445.502 98.5539 446.07 98.1398C446.35 97.9298 446.94 97.4198 447.81 96.5998C448.728 95.732 449.415 94.6495 449.81 93.4498L449.84 93.3898ZM185.22 133.89C185.22 134.56 185.14 135.25 185.11 135.89C185.092 136.55 184.857 137.187 184.44 137.7C184.084 137.565 183.748 137.384 183.44 137.16C182.86 136.76 182.56 136.4 182.52 136.07C182.551 135.399 182.628 134.73 182.75 134.07C182.89 132.98 183.75 128.2 184.93 123.41C185.93 119.41 186.61 116.85 187.03 115.6C187.19 114.83 187.34 114.06 187.49 113.29C187.91 111.79 188.49 111.04 189.12 111.03C189.75 111.02 190.21 111.51 190.21 112.53C189.37 115.1 188.66 117.39 188.03 119.37C186.62 124.07 185.94 126.86 185.97 127.7C185.946 127.825 185.946 127.954 185.97 128.08L189.15 123.44C191.28 120.56 192.71 119.07 193.44 119.07C193.676 119.155 193.886 119.3 194.05 119.49C194.35 119.76 194.5 119.95 194.51 120.03C194.43 120.33 194.31 120.74 194.17 121.28C193.879 121.68 193.544 122.046 193.17 122.37L192.01 123.37C190.901 124.562 189.971 125.91 189.25 127.37C188.361 128.926 187.87 130.678 187.82 132.47C187.791 132.977 187.873 133.484 188.062 133.956C188.25 134.428 188.54 134.852 188.91 135.2C189.489 135.716 190.245 135.989 191.02 135.96C192.11 135.96 194.02 134.8 196.69 132.54H197.23C197.295 132.69 197.338 132.848 197.36 133.01C195.17 136.35 192.99 138.01 190.81 138.07C189.891 138.08 188.986 137.847 188.185 137.396C187.385 136.945 186.717 136.291 186.25 135.5C186.092 135.035 185.997 134.55 185.97 134.06C185.84 133.42 185.74 133.06 185.68 133.06C185.62 133.06 185.3 133.2 185.22 133.89ZM379.91 63.3798C393.75 49.5398 420.14 66.6598 416.15 62.6298C406.97 53.4598 395.35 49.0598 385.66 50.1598C380.991 50.576 376.608 52.5891 373.25 55.8598C371.721 57.4149 370.454 59.2083 369.5 61.1698C364.97 70.2698 367.08 83.5698 378.65 95.1698C382.63 99.1698 366.11 77.2098 379.91 63.3798ZM415 37.2498C412.56 38.5998 401.05 44.1498 375.7 35.2498C346.94 25.1698 337.41 33.0598 335.1 36.0798C334.92 36.3398 335.1 36.5798 335.38 36.3298C338.13 34.3298 348.16 29.9498 378.21 42.6698C404.92 53.9698 414.01 40.0598 415.32 37.3998C415.46 37.0998 415.31 37.0598 415 37.2498ZM367.42 60.1298C368.4 57.8813 369.806 55.8438 371.56 54.1298C375.27 50.4492 380.177 48.221 385.39 47.8498C385.6 47.8498 385.55 47.7298 385.39 47.7098C382.564 46.9605 379.802 45.9875 377.13 44.7998C374.13 43.5898 371.8 42.6198 370.58 42.2098C370.474 42.1714 370.357 42.1703 370.25 42.2067C370.143 42.243 370.051 42.3146 369.99 42.4098C367.607 45.7539 366.299 49.7441 366.24 53.8498C366.257 55.9683 366.594 58.0721 367.24 60.0898C367.3 60.2698 367.36 60.2298 367.42 60.1298ZM388 35.9998C389.565 36.0056 391.109 35.6353 392.501 34.9201C393.893 34.2048 395.093 33.1656 396 31.8898C400.79 32.6098 403.18 30.8898 404 30.0898C404.46 29.5498 404.45 29.3998 404.26 28.9998C403.692 28.0556 403.021 27.177 402.26 26.3798C403.501 25.8484 404.615 25.0578 405.525 24.0609C406.436 23.064 407.123 21.8839 407.54 20.5998C408.27 18.6898 408.28 17.9498 408.03 17.3198C407.78 16.6898 407.3 16.8098 406.48 17.3198C403.2 19.6098 401.3 19.9098 398.48 19.1498C397.39 15.6598 393.33 13.4998 389.03 12.3298C385.03 11.2398 380.79 10.9598 378.27 13.0298C375.48 12.0798 374.08 10.8498 372.58 7.02977C372.19 6.15977 372.02 5.72977 371.3 6.17977C370.58 6.62977 370.3 7.17977 369.88 9.17977C369.5 10.4763 369.403 11.8395 369.597 13.1767C369.79 14.5139 370.268 15.7939 371 16.9298C369.92 17.179 368.868 17.5375 367.86 17.9998C367.46 18.2898 367.37 18.3998 367.46 19.0898C367.66 20.1898 368.72 22.9598 373.09 25.0098C373.155 26.4022 373.511 27.7656 374.135 29.0124C374.758 30.2592 375.635 31.3619 376.71 32.2498C379.969 34.6883 383.93 36.0041 388 35.9998Z" fill="white"/>
</svg>
