<svg width="72" height="72" viewBox="0 0 72 72" xmlns="http://www.w3.org/2000/svg"><title>authority</title><g fill="#E65376" fill-rule="evenodd"><path d="M54.214 57.693h-4.29v-4.26h-3.06v4.26h-4.29v-25.74l11.64 2.62v23.12zm-36.892-37.67l21.928-3.41v41.08h-8.382v-8.32h-5.163v8.32h-8.383v-37.67zm39.487 9.6l-13.27-3.25c-.327-.08-.653-.09-.966-.05v-10.6c.713-.58 1.116-1.5.965-2.47-.227-1.45-1.59-2.45-3.038-2.22l-25.25 3.93c-1.453.22-2.445 1.58-2.22 3.03.107.69.466 1.26.966 1.66v39.7c0 .92.743 1.66 1.662 1.66h40.217c.917 0 1.66-.74 1.66-1.66v-24.87c.588-.35 1.045-.92 1.22-1.64.35-1.43-.522-2.87-1.948-3.22z"/><path d="M25.705 26.403h5.163v-5.03h-5.163M25.705 35.503h5.163v-5.03h-5.163M25.705 44.603h5.163v-5.03h-5.163M46.864 39.433h3.06v-2.98h-3.06M46.864 44.823h3.06v-2.98h-3.06M46.864 50.213h3.06v-2.98h-3.06"/></g></svg>