<svg width="72" height="72" viewBox="0 0 72 72" xmlns="http://www.w3.org/2000/svg"><title>automated-instruction</title><g fill="#E65376" fill-rule="evenodd"><path d="M47.666 27.09c-1.9 0-3.44-1.54-3.44-3.44s1.54-3.44 3.44-3.44 3.44 1.54 3.44 3.44-1.54 3.44-3.44 3.44zm10.816-5.19l-2.878-.76c-.152-.48-.348-.94-.58-1.38l1.504-2.58c.477-.88.683-1.79 0-2.47-.683-.69-1.646-.47-2.475 0l-2.62 1.52c-.422-.21-.863-.4-1.323-.54l-.775-2.94c-.29-.96-.785-1.75-1.75-1.75-.968 0-1.493.84-1.752 1.75l-.79 3c-.43.15-.84.32-1.234.53l-2.695-1.57c-.885-.48-1.792-.69-2.474 0-.684.68-.464 1.64 0 2.47l1.594 2.73c-.19.38-.358.77-.49 1.18l-3.058.81c-.963.29-1.75.78-1.75 1.75s.834 1.49 1.75 1.75l3.058.81c.132.4.298.8.49 1.18l-1.593 2.73c-.477.88-.684 1.79 0 2.47.683.69 1.645.47 2.475 0l2.694-1.57c.392.21.804.38 1.232.53l.79 3c.29.96.785 1.75 1.752 1.75.966 0 1.492-.84 1.75-1.75l.776-2.94c.46-.14.9-.33 1.323-.54l2.62 1.52c.886.48 1.792.69 2.475 0 .684-.68.464-1.64 0-2.47l-1.503-2.58c.232-.44.428-.9.58-1.38l2.877-.76c.963-.29 1.752-.78 1.752-1.75s-.836-1.49-1.752-1.75z"/><path d="M27.5 48.78c-2.76 0-4.998-2.24-4.998-5s2.24-5 5-5 5 2.24 5 5-2.24 5-5 5zm14.752-6.75l-2.922-.77c-.087-.41-.197-.82-.326-1.21l2.146-2.13c.692-.73 1.127-1.56.642-2.39-.484-.84-1.47-.88-2.392-.64l-2.927.79c-.278-.3-.57-.6-.877-.87l.798-2.93c.23-.98.195-1.91-.643-2.39-.836-.49-1.707-.03-2.39.64l-2.128 2.14c-.395-.12-.798-.23-1.21-.32l-.77-2.92c-.29-.97-.784-1.75-1.75-1.75-.967 0-1.492.83-1.75 1.75l-.77 2.92c-.412.09-.815.2-1.21.32l-2.13-2.14c-.733-.69-1.553-1.13-2.39-.64-.84.48-.876 1.47-.642 2.39l.8 2.93c-.31.27-.602.56-.88.87l-2.927-.79c-.98-.24-1.908-.2-2.39.64-.485.83-.024 1.71.64 2.39l2.144 2.13c-.128.39-.238.8-.325 1.21l-2.92.77c-.964.29-1.752.78-1.752 1.75 0 .96.835 1.49 1.75 1.75l2.922.77c.087.41.197.81.325 1.21l-2.145 2.13c-.69.73-1.124 1.55-.64 2.39.483.84 1.468.87 2.39.64l2.928-.8c.278.31.57.6.878.88l-.798 2.93c-.23.98-.197 1.91.64 2.39.84.48 1.71.02 2.392-.64l2.13-2.15c.394.13.798.24 1.21.33l.77 2.92c.288.96.783 1.75 1.75 1.75.966 0 1.49-.84 1.75-1.75l.77-2.92c.412-.09.816-.2 1.21-.33l2.13 2.15c.73.69 1.553 1.12 2.39.64.838-.48.874-1.47.642-2.39l-.798-2.93c.307-.28.6-.57.877-.88l2.927.8c.98.23 1.908.2 2.392-.64.485-.84.023-1.71-.642-2.39l-2.146-2.13c.13-.4.24-.8.326-1.21l2.922-.77c.963-.29 1.75-.79 1.75-1.75 0-.97-.834-1.49-1.75-1.75z"/></g></svg>