<svg width="72" height="72" viewBox="0 0 72 72" xmlns="http://www.w3.org/2000/svg"><title>brand</title><g fill="#E65376" fill-rule="evenodd"><path d="M27.308 28.975c-.42-.42-1.097-.45-1.554-.07l-1.388 1.18c-9.047 7.56-12.396 8.32-12.4 8.32-.427.07-.78.37-.91.78-.133.41-.025.86.28 1.17l2.065 2.07c.358.35.903.43 1.346.2l3.55-1.85-2.267 2.83c-.37.45-.332 1.11.082 1.53l1.722 1.72c.347.34.874.43 1.315.22l2.786-1.35-1.36 2.77c-.218.44-.13.97.217 1.32l.888.88c.393.4 1.01.45 1.467.14l3.127-2.18-1.998 3.43c-.262.45-.187 1.02.182 1.39l.82.82c.42.42 1.09.45 1.545.08l4.002-3.31-2.515 5.17c-.213.44-.125.97.222 1.32l2.21 2.2c.298.3.737.4 1.144.28.403-.12.71-.47.797-.88.004-.02.488-2.18 4.54-7.64l5.1-6.04c.385-.45.358-1.13-.066-1.55l-14.95-14.95M51.68 17.025c.7-.7 1.83-.7 2.528 0 .696.7.696 1.83 0 2.53-.7.69-1.83.69-2.528 0-.7-.7-.7-1.83 0-2.53zm-5.478 13.9l11.9-7.48c2.844-2.84 2.844-7.47 0-10.32-2.844-2.84-7.473-2.84-10.353.04l-7.41 11.81s-1.575 2.13-2.882 1.82l-1.817-1.82c-2.115-2.11-4.145-1.33-4.965-.59l-1.236 1.23c-.45.45-.45 1.18 0 1.63l14.413 14.41c.45.45 1.175.45 1.624 0l1.276-1.27c.704-.78 1.478-2.82-.635-4.93l-1.69-1.69c-.275-1.19 1.456-2.59 1.774-2.84z"/></g></svg>