<svg width="72" height="72" viewBox="0 0 72 72" xmlns="http://www.w3.org/2000/svg"><title>bringyourown</title><g fill="#E65376" fill-rule="evenodd"><path d="M58.325 56.036H54.18c-.957 0-1.728.773-1.728 1.727 0 .954.77 1.727 1.728 1.727h4.145c.952 0 1.725-.773 1.725-1.727 0-.954-.773-1.727-1.725-1.727M47.96 56.036H43.82c-.956 0-1.73.773-1.73 1.727 0 .954.774 1.727 1.73 1.727h4.143c.956 0 1.73-.773 1.73-1.727 0-.954-.774-1.727-1.73-1.727M27.236 56.036H23.09c-.952 0-1.725.773-1.725 1.727 0 .954.773 1.727 1.726 1.727h4.146c.955 0 1.727-.773 1.727-1.727 0-.954-.772-1.727-1.727-1.727M16.873 56.036H12.73c-.954 0-1.73.773-1.73 1.727 0 .954.776 1.727 1.73 1.727h4.143c.954 0 1.727-.773 1.727-1.727 0-.954-.773-1.727-1.727-1.727M25.127 41.04v-4.135c2.596 1.472 6.656 2.23 10.687 2.23 4.033 0 8.092-.76 10.688-2.23v4.135c0 1.146-3.984 3.24-10.507 3.28-.127-.038-.642-.04-.76-.01-6.28-.12-10.108-2.147-10.108-3.27zm21.375-23.96c0 1.16-4.055 3.283-10.688 3.283-6.63 0-10.687-2.124-10.687-3.282 0-1.157 4.058-3.282 10.687-3.282 6.633 0 10.688 2.125 10.688 3.283zM25.127 28.92c2.596 1.47 6.656 2.23 10.687 2.23 4.033 0 8.092-.76 10.688-2.232v4.135c0 1.158-4.055 3.283-10.688 3.283-6.63 0-10.687-2.125-10.687-3.283V28.92zm0-7.988c2.596 1.472 6.656 2.23 10.687 2.23 4.033 0 8.092-.76 10.688-2.23v4.134c0 1.158-4.055 3.284-10.688 3.284-6.63 0-10.687-2.126-10.687-3.284v-4.134zM37 55.352v-8.254c6.294-.232 12.302-2.303 12.302-6.058V17.132l-.002-.018.002-.033c0-3.99-6.784-6.08-13.488-6.08-6.7 0-13.484 2.09-13.484 6.08v23.96c0 3.67 5.74 5.73 11.872 6.038v8.274c-.834.485-1.402 1.378-1.402 2.41 0 1.544 1.257 2.8 2.8 2.8 1.545 0 2.802-1.256 2.802-2.8 0-1.032-.568-1.925-1.4-2.41z"/></g></svg>