<?xml version="1.0" encoding="UTF-8" standalone="no"?>
<svg width="72px" height="72px" viewBox="0 0 72 72" version="1.1" xmlns="http://www.w3.org/2000/svg" xmlns:xlink="http://www.w3.org/1999/xlink">
    <!-- Generator: Sketch 39.1 (31720) - http://www.bohemiancoding.com/sketch -->
    <title>control</title>
    <desc>Created with Sketch.</desc>
    <defs></defs>
    <g id="Page-1" stroke="none" stroke-width="1" fill="none" fill-rule="evenodd">
        <g id="control" fill="#E65376">
            <path d="M13.844,23.23 C14.398,24.68 15.803,25.72 17.447,25.72 C19.091,25.72 20.494,24.68 21.049,23.23 L21.963,23.23 C22.517,24.68 23.921,25.72 25.566,25.72 C27.21,25.72 28.614,24.68 29.168,23.23 L30.083,23.23 C30.637,24.68 32.04,25.72 33.685,25.72 C35.329,25.72 36.733,24.68 37.287,23.23 L59.282,23.23 C60.039,23.23 60.653,22.62 60.653,21.86 C60.653,21.11 60.039,20.49 59.282,20.49 L37.287,20.49 C36.732,19.04 35.329,18 33.685,18 C32.04,18 30.638,19.04 30.083,20.49 L29.167,20.49 C28.613,19.04 27.209,18 25.566,18 C23.921,18 22.518,19.04 21.963,20.49 L21.049,20.49 C20.494,19.04 19.09,18 17.447,18 C15.803,18 14.399,19.04 13.845,20.49 L12.372,20.49 C11.614,20.49 11,21.11 11,21.86 C11,22.62 11.614,23.23 12.372,23.23 L13.844,23.23 Z M59.282,34.7 L49.465,34.7 C48.911,33.25 47.508,32.21 45.864,32.21 C44.219,32.21 42.815,33.25 42.261,34.7 L41.346,34.7 C40.792,33.25 39.389,32.21 37.744,32.21 C36.101,32.21 34.697,33.25 34.142,34.7 L21.049,34.7 C20.494,33.25 19.09,32.21 17.447,32.21 C15.803,32.21 14.398,33.25 13.845,34.7 L12.372,34.7 C11.614,34.7 11,35.31 11,36.07 C11,36.83 11.614,37.44 12.372,37.44 L13.844,37.44 C14.398,38.89 15.803,39.93 17.447,39.93 C19.091,39.93 20.494,38.89 21.049,37.44 L34.142,37.44 C34.696,38.89 36.101,39.93 37.744,39.93 C39.389,39.93 40.792,38.89 41.347,37.44 L42.261,37.44 C42.815,38.89 44.219,39.93 45.864,39.93 C47.508,39.93 48.912,38.89 49.466,37.44 L59.282,37.44 C60.039,37.44 60.653,36.83 60.653,36.07 C60.653,35.31 60.039,34.7 59.282,34.7 Z M57.585,48.91 C57.03,47.46 55.627,46.42 53.983,46.42 C52.338,46.42 50.934,47.46 50.38,48.91 L49.465,48.91 C48.911,47.46 47.508,46.42 45.864,46.42 C44.219,46.42 42.815,47.46 42.261,48.91 L41.346,48.91 C40.792,47.46 39.389,46.42 37.744,46.42 C36.101,46.42 34.697,47.46 34.142,48.91 L12.372,48.91 C11.614,48.91 11,49.52 11,50.28 C11,51.04 11.614,51.65 12.372,51.65 L34.142,51.65 C34.696,53.1 36.101,54.14 37.744,54.14 C39.389,54.14 40.792,53.1 41.347,51.65 L42.261,51.65 C42.815,53.1 44.219,54.14 45.864,54.14 C47.508,54.14 48.912,53.1 49.466,51.65 L50.38,51.65 C50.934,53.1 52.338,54.14 53.983,54.14 C55.627,54.14 57.031,53.1 57.585,51.65 L59.282,51.65 C60.039,51.65 60.653,51.04 60.653,50.28 C60.653,49.52 60.039,48.91 59.282,48.91 L57.585,48.91 Z" id="Combined-Shape"></path>
        </g>
    </g>
</svg>