<svg width="72" height="72" viewBox="0 0 72 72" xmlns="http://www.w3.org/2000/svg"><title>customise</title><g fill="#E65376" fill-rule="evenodd"><path d="M54.846 58.906l-5.28-7.96 3.102-2.06 5.282 7.95-3.104 2.07zm-23.733-35.75l-5.35-8.05 3.104-2.06 5.35 8.05-3.104 2.06zm28.808 33.37l-6.198-9.33-.002-.01-17.527-26.39h-.004-.002l-6.268-9.44c-.246-.38-.81-.47-1.218-.2l-4.614 3.06c-.422.28-.554.81-.297 1.2l6.265 9.43c.002 0 .004 0 .005.01h.002l17.536 26.41s.003 0 .005.01l6.19 9.32c.148.22.403.36.683.36.19 0 .375-.06.535-.17l4.614-3.06c.42-.28.553-.8.297-1.2zM24.984 33.536c.065 0 .13-.02.183-.06.106-.08.152-.21.113-.34l-.993-3.24 2.73-2.05c.106-.08.15-.22.11-.34-.04-.13-.157-.21-.288-.22l-3.43-.07-1.124-3.2c-.044-.12-.16-.21-.293-.21-.13 0-.247.09-.29.21l-1.126 3.2-3.428.07c-.133.01-.25.09-.29.22-.04.12.004.26.11.34l2.73 2.05-.993 3.24c-.038.13.007.26.113.34.107.08.25.08.358 0l2.815-1.93 2.816 1.93c.053.04.112.06.174.06M29.335 39.356l-2.295-.05-.754-2.14c-.028-.08-.107-.14-.194-.14-.088 0-.166.06-.195.14l-.753 2.14-2.296.05c-.087 0-.165.06-.192.14-.027.09.003.18.072.23l1.827 1.37-.664 2.17c-.024.09.007.18.078.23.07.05.168.05.24 0l1.884-1.29 1.884 1.29c.036.03.077.04.117.04.044 0 .086-.01.123-.04.07-.05.1-.14.076-.23l-.665-2.17 1.828-1.37c.07-.05.1-.14.073-.23-.028-.08-.105-.14-.193-.14M16.795 35.306l-1.645-.03-.54-1.54c-.02-.06-.078-.1-.14-.1-.063 0-.12.04-.14.1l-.54 1.54-1.645.03c-.063 0-.12.05-.138.1-.02.06.002.13.052.17l1.31.98-.478 1.56c-.018.06.003.12.055.16.05.04.12.04.17 0l1.353-.92 1.35.92c.027.02.056.03.085.03.03 0 .062-.01.088-.03.05-.04.072-.1.054-.16l-.477-1.56 1.31-.98c.052-.04.073-.11.054-.17-.02-.05-.076-.1-.14-.1"/></g></svg>