<svg width="72" height="72" viewBox="0 0 72 72" xmlns="http://www.w3.org/2000/svg"><title>dashboard</title><path d="M13.844 23.23h-1.472c-.758 0-1.372-.61-1.372-1.37 0-.75.614-1.37 1.372-1.37h1.473C14.4 19.04 15.803 18 17.447 18c1.643 0 3.047 1.04 3.602 2.49h.913c.555-1.45 1.958-2.49 3.603-2.49 1.643 0 3.047 1.04 3.6 2.49h.917c.555-1.45 1.957-2.49 3.602-2.49 1.644 0 3.047 1.04 3.602 2.49h21.995c.757 0 1.37.62 1.37 1.37 0 .76-.613 1.37-1.37 1.37H37.287c-.554 1.45-1.958 2.49-3.602 2.49-1.645 0-3.048-1.04-3.602-2.49h-.915c-.554 1.45-1.958 2.49-3.602 2.49-1.645 0-3.05-1.04-3.603-2.49h-.914c-.556 1.45-1.96 2.49-3.603 2.49-1.644 0-3.05-1.04-3.603-2.49zM59.282 34.7c.757 0 1.37.61 1.37 1.37 0 .76-.613 1.37-1.37 1.37h-9.816c-.554 1.45-1.958 2.49-3.602 2.49-1.645 0-3.05-1.04-3.603-2.49h-.913c-.555 1.45-1.958 2.49-3.603 2.49-1.643 0-3.048-1.04-3.602-2.49H21.05c-.556 1.45-1.96 2.49-3.603 2.49-1.644 0-3.05-1.04-3.603-2.49h-1.472c-.758 0-1.372-.61-1.372-1.37 0-.76.614-1.37 1.372-1.37h1.473c.553-1.45 1.958-2.49 3.602-2.49 1.643 0 3.047 1.04 3.602 2.49H34.14c.555-1.45 1.96-2.49 3.602-2.49 1.645 0 3.048 1.04 3.602 2.49h.915c.555-1.45 1.96-2.49 3.604-2.49 1.644 0 3.047 1.04 3.6 2.49h9.818zm-1.697 14.21h1.697c.757 0 1.37.61 1.37 1.37 0 .76-.613 1.37-1.37 1.37h-1.697c-.554 1.45-1.958 2.49-3.602 2.49-1.645 0-3.05-1.04-3.603-2.49h-.914c-.554 1.45-1.958 2.49-3.602 2.49-1.645 0-3.05-1.04-3.603-2.49h-.913c-.555 1.45-1.958 2.49-3.603 2.49-1.643 0-3.048-1.04-3.602-2.49h-21.77c-.758 0-1.372-.61-1.372-1.37 0-.76.614-1.37 1.372-1.37h21.77c.555-1.45 1.96-2.49 3.602-2.49 1.645 0 3.048 1.04 3.602 2.49h.915c.555-1.45 1.96-2.49 3.604-2.49 1.644 0 3.047 1.04 3.6 2.49h.916c.554-1.45 1.958-2.49 3.603-2.49 1.644 0 3.047 1.04 3.602 2.49z" fill="#E65376" fill-rule="evenodd"/></svg>