<?xml version="1.0" encoding="UTF-8" standalone="no"?>
<svg width="72px" height="72px" viewBox="0 0 72 72" version="1.1" xmlns="http://www.w3.org/2000/svg" xmlns:xlink="http://www.w3.org/1999/xlink">
    <!-- Generator: Sketch 39.1 (31720) - http://www.bohemiancoding.com/sketch -->
    <title>duplication</title>
    <desc>Created with Sketch.</desc>
    <defs></defs>
    <g id="Page-1" stroke="none" stroke-width="1" fill="none" fill-rule="evenodd">
        <g id="duplication" fill="#E65376">
            <path d="M17.0957984,52.7752249 C15.1129241,52.7752249 13.5065,54.3733624 13.5065,56.3621557 C13.5065,58.339111 15.1129241,59.9490865 17.0957984,59.9490865 C19.0786727,59.9490865 20.6850968,58.339111 20.6850968,56.3621557 C20.6850968,54.3733624 19.0786727,52.7752249 17.0957984,52.7752249 Z M36.0059081,52.7752249 C34.0242176,52.7752249 32.4177935,54.3733624 32.4177935,56.3621557 C32.4177935,58.339111 34.0242176,59.9490865 36.0059081,59.9490865 C37.9887824,59.9490865 39.5952065,58.339111 39.5952065,56.3621557 C39.5952065,54.3733624 37.9887824,52.7752249 36.0059081,52.7752249 Z M54.9172016,52.7752249 C52.9319597,52.7752249 51.3279032,54.3733624 51.3279032,56.3621557 C51.3279032,58.339111 52.9319597,59.9490865 54.9172016,59.9490865 C56.8965245,59.9490865 58.5065,58.339111 58.5065,56.3621557 C58.5065,54.3733624 56.8965245,52.7752249 54.9172016,52.7752249 Z M36.0059081,27.572005 C40.2155206,27.572005 43.6355348,24.1389689 43.6355348,19.9364592 C43.6355348,15.7221115 40.2155206,12.3009135 36.0059081,12.3009135 C31.7974794,12.3009135 28.3750976,15.7221115 28.3750976,19.9364592 C28.3750976,24.1389689 31.7974794,27.572005 36.0059081,27.572005 Z M52.8656666,44.2755011 C52.8656666,44.8082136 52.9804957,45.31725 53.2125216,45.8026103 C53.4445475,46.2761325 54.0080389,46.5247317 54.9041797,46.5247317 C55.4013781,46.5247317 55.7967691,46.4063511 56.0950881,46.16959 C56.3957747,45.9328289 56.6266168,45.6487156 56.7935334,45.2935739 C56.9592662,44.9384322 57.0752791,44.5596145 57.142756,44.1452825 C57.2066815,43.7427887 57.2386443,43.3521328 57.2386443,43.0088292 C57.2386443,41.7184812 56.917833,40.6530562 56.2714751,39.8007162 C55.6251173,38.9483762 54.7857992,38.2972832 53.7594398,37.8474371 C52.7330804,37.3857529 51.5871566,37.1253157 50.3287713,37.0542873 C49.0692022,36.983259 47.8262064,37.0779635 46.5974163,37.3384007 C44.0794619,37.8711132 42.0551544,37.8592751 40.5304129,37.3147246 C39.0056713,36.7820121 38.2433006,35.7757774 38.2433006,34.3078585 C38.2433006,33.6330893 38.027848,33.1003768 37.5969427,32.709721 C37.1660375,32.3072271 36.6368765,32.1178182 36.0059081,32.1178182 C35.3761235,32.1178182 34.8434111,32.3072271 34.4148735,32.709721 C33.985152,33.1003768 33.766148,33.6330893 33.766148,34.3078585 C33.766148,35.7757774 33.0061449,36.7820121 31.4825871,37.3147246 C29.9542942,37.8592751 27.9335381,37.8711132 25.4120323,37.3384007 C24.1867936,37.0779635 22.9437978,36.983259 21.6842287,37.0542873 C20.4246596,37.1253157 19.2811034,37.3857529 18.2535602,37.8474371 C17.2272008,38.2972832 16.3878827,38.9483762 15.7415249,39.8007162 C15.0963508,40.6530562 14.7696205,41.7184812 14.7696205,43.0088292 C14.7696205,43.3521328 14.8051347,43.7427887 14.8714278,44.1452825 C14.9389047,44.5596145 15.0537338,44.9384322 15.2182828,45.2935739 C15.3851994,45.6487156 15.6278795,45.9328289 15.9404042,46.16959 C16.2541127,46.4063511 16.6613418,46.5247317 17.1609077,46.5247317 C18.0203505,46.5247317 18.5684525,46.2761325 18.8004784,45.8026103 C19.0313205,45.31725 19.1461496,44.8082136 19.1461496,44.2755011 C19.1461496,43.3758089 19.478799,42.8075823 20.1429139,42.5944973 C20.8046612,42.3695742 21.5682157,42.2630317 22.4288424,42.2630317 C23.4587532,42.2630317 24.451966,42.3932503 25.4120323,42.6536876 C26.37565,42.9259628 27.404377,43.0561814 28.4970296,43.0561814 C30.850435,43.0561814 32.5906291,42.7128778 33.7187958,42.0381087 C34.8434111,41.3633395 35.5750029,40.5465137 35.9064684,39.5757931 L36.1053478,39.5757931 C36.4379971,40.5465137 37.1660375,41.3633395 38.2942042,42.0381087 C39.4211871,42.7128778 41.1601974,43.0561814 43.5147866,43.0561814 C44.5754764,43.0561814 45.6290633,42.9259628 46.6731798,42.6536876 C47.7161125,42.3932503 48.8703229,42.2630317 50.129892,42.2630317 C50.8591162,42.2630317 51.4960036,42.3695742 52.0452894,42.5944973 C52.5922075,42.8075823 52.8656666,43.3758089 52.8656666,44.2755011 Z" id="Combined-Shape" transform="translate(36.006500, 36.125000) rotate(-180.000000) translate(-36.006500, -36.125000) "></path>
        </g>
    </g>
</svg>