<svg width="72" height="72" viewBox="0 0 72 72" xmlns="http://www.w3.org/2000/svg"><title>end-to-end</title><g fill="#E65376" fill-rule="evenodd"><path d="M51.637 44.288l-11.567 1.84c-.382.06-.698.33-.818.7-.12.36-.022.77.252 1.04l2.712 2.71c-4.223 1.11-8.826.3-12.516-2.49-1.06-.8-2.565-.59-3.364.47-.8 1.06-.59 2.56.468 3.36 3.5 2.65 7.617 3.96 11.727 3.96 2.54 0 5.075-.52 7.463-1.52l3.244 3.25c.197.19.46.3.728.3.108 0 .215-.02.32-.05.367-.12.637-.44.698-.82l1.833-11.57c.052-.32-.056-.65-.29-.89-.232-.23-.562-.34-.89-.29M50.006 20.738l1.12-4.45c.097-.38-.028-.78-.32-1.03-.29-.26-.7-.33-1.06-.18l-10.87 4.35c-.307.13-.536.39-.616.71-.08.32-.004.66.208.91l7.505 8.99c.198.24.488.37.79.37.075 0 .154-.01.23-.03.377-.08.674-.37.768-.75l.938-3.71c3.074 3.03 4.74 7.33 4.294 11.86-.13 1.32.835 2.5 2.156 2.63.08.01.16.01.237.01 1.22 0 2.267-.93 2.39-2.17.684-6.97-2.384-13.53-7.77-17.51M29.044 31.778c-.264-.29-.665-.4-1.037-.3l-3.692 1.04c1.102-4.22 4.053-7.82 8.27-9.68 1.216-.53 1.77-1.95 1.235-3.16-.534-1.22-1.952-1.77-3.166-1.24-6.48 2.85-10.705 8.81-11.483 15.52l-4.417 1.24c-.374.1-.657.41-.733.79-.076.38.068.77.37 1.01l9.19 7.26c.182.15.407.23.636.23.093 0 .187-.02.28-.04.315-.09.572-.33.686-.64l4.07-10.98c.133-.36.053-.77-.208-1.05"/></g></svg>