<?xml version="1.0" encoding="UTF-8" standalone="no"?>
<svg width="72px" height="72px" viewBox="0 0 72 72" version="1.1" xmlns="http://www.w3.org/2000/svg" xmlns:xlink="http://www.w3.org/1999/xlink">
    <!-- Generator: Sketch 39.1 (31720) - http://www.bohemiancoding.com/sketch -->
    <title>excellence</title>
    <desc>Created with Sketch.</desc>
    <defs></defs>
    <g id="Page-1" stroke="none" stroke-width="1" fill="none" fill-rule="evenodd">
        <g id="excellence" fill="#E65376">
            <path d="M44.4622873,54.19 C44.2552873,53.45 43.5792873,52.93 42.8082873,52.93 L39.1632873,52.93 L39.1632873,46.73 C38.2392873,46.89 37.2922873,46.97 36.3282873,46.97 C35.3622873,46.97 34.4152873,46.89 33.4912873,46.73 L33.4912873,52.93 L29.8502873,52.93 C29.0782873,52.93 28.4012873,53.45 28.1952873,54.19 L26.9012873,58.84 C26.7592873,59.36 26.8642873,59.91 27.1882873,60.34 C27.5152873,60.76 28.0192873,61.02 28.5572873,61.02 L44.1002873,61.02 L44.1142873,61.02 C45.0622873,61.02 45.8312873,60.25 45.8312873,59.3 C45.8312873,59.06 45.7842873,58.84 45.6982873,58.63 L44.4622873,54.19" id="Fill-717"></path>
            <path d="M55.6102873,27.25 C54.8942873,29.94 52.9932873,32.01 51.0452873,32.33 C51.0642873,32.26 51.0832873,32.19 51.1002873,32.12 C51.1182873,32.06 51.1352873,32 51.1502873,31.93 C51.2532873,31.53 51.3392873,31.11 51.4112873,30.69 C51.4252873,30.62 51.4362873,30.54 51.4482873,30.47 C51.5162873,30.04 51.5712873,29.62 51.6092873,29.18 C51.6152873,29.12 51.6182873,29.06 51.6222873,29 C51.6572873,28.54 51.6792873,28.08 51.6792873,27.62 L51.6792873,19.99 C51.8992873,19.94 52.1222873,19.91 52.3422873,19.91 C52.5892873,19.91 52.8352873,19.94 53.0712873,20.01 C55.3332873,20.61 56.4952873,23.93 55.6102873,27.25 L55.6102873,27.25 Z M44.7202873,24.13 L40.1592873,27.55 L41.8172873,32.96 C41.8822873,33.17 41.8062873,33.4 41.6282873,33.53 C41.5372873,33.6 41.4292873,33.63 41.3242873,33.63 C41.2222873,33.63 41.1182873,33.6 41.0322873,33.54 L36.3272873,30.3 L31.6232873,33.54 C31.4442873,33.67 31.2022873,33.66 31.0252873,33.53 C30.8492873,33.4 30.7732873,33.17 30.8392873,32.96 L32.4942873,27.55 L27.9342873,24.13 C27.7592873,23.99 27.6842873,23.76 27.7532873,23.55 C27.8202873,23.34 28.0132873,23.2 28.2332873,23.2 L33.9602873,23.08 L35.8422873,17.73 C35.9132873,17.52 36.1082873,17.39 36.3272873,17.39 C36.5472873,17.39 36.7412873,17.52 36.8132873,17.73 L38.6942873,23.08 L44.4192873,23.2 C44.6412873,23.2 44.8342873,23.34 44.9012873,23.55 C44.9682873,23.76 44.8962873,23.99 44.7202873,24.13 L44.7202873,24.13 Z M17.0482873,27.25 C16.1632873,23.93 17.3252873,20.61 19.5852873,20.01 C19.8232873,19.94 20.0682873,19.91 20.3162873,19.91 C20.5362873,19.91 20.7572873,19.94 20.9772873,19.99 L20.9772873,27.62 C20.9772873,28.08 21.0002873,28.54 21.0362873,29 C21.0402873,29.06 21.0432873,29.12 21.0482873,29.18 C21.0852873,29.62 21.1412873,30.04 21.2082873,30.47 C21.2212873,30.54 21.2332873,30.62 21.2452873,30.69 C21.3192873,31.11 21.4052873,31.53 21.5082873,31.93 C21.5222873,32 21.5402873,32.06 21.5572873,32.12 C21.5752873,32.19 21.5932873,32.26 21.6122873,32.33 C19.6662873,32.01 17.7632873,29.94 17.0482873,27.25 L17.0482873,27.25 Z M53.7792873,17.35 C53.3042873,17.23 52.8212873,17.17 52.3422873,17.17 C52.1202873,17.17 51.8992873,17.18 51.6792873,17.2 L51.6792873,12.62 C51.6792873,11.73 50.9562873,11 50.0632873,11 L22.5952873,11 C21.7012873,11 20.9772873,11.73 20.9772873,12.62 L20.9772873,17.2 C20.7572873,17.18 20.5362873,17.17 20.3152873,17.17 C19.8352873,17.17 19.3532873,17.23 18.8782873,17.35 C15.1082873,18.36 13.1002873,23.11 14.3912873,27.96 C15.5222873,32.21 18.8002873,35.13 22.1242873,35.13 C22.2922873,35.13 22.4612873,35.11 22.6302873,35.09 C22.7532873,35.36 22.8842873,35.62 23.0202873,35.88 C23.0462873,35.93 23.0712873,35.97 23.0972873,36.02 C23.2982873,36.39 23.5122873,36.75 23.7382873,37.1 C23.7642873,37.14 23.7892873,37.18 23.8152873,37.22 C24.0532873,37.58 24.3002873,37.93 24.5602873,38.27 C24.5672873,38.27 24.5752873,38.28 24.5832873,38.29 C25.1312873,39 25.7352873,39.65 26.3852873,40.25 C26.3972873,40.26 26.4072873,40.28 26.4182873,40.29 C26.7392873,40.58 27.0722873,40.86 27.4132873,41.12 C27.4302873,41.14 27.4452873,41.15 27.4612873,41.16 C28.8722873,42.24 30.4612873,43.08 32.1692873,43.6 L32.1852873,43.6 C32.6142873,43.73 33.0482873,43.84 33.4892873,43.94 L33.4912873,43.94 C33.9482873,44.03 34.4122873,44.1 34.8812873,44.15 L34.9132873,44.15 C35.3792873,44.2 35.8522873,44.22 36.3282873,44.22 C36.8042873,44.22 37.2742873,44.2 37.7392873,44.15 L37.7752873,44.15 C38.2432873,44.1 38.7042873,44.03 39.1592873,43.94 L39.1622873,43.94 L39.1672873,43.94 C39.6072873,43.84 40.0412873,43.73 40.4682873,43.61 C40.4742873,43.6 40.4792873,43.6 40.4872873,43.6 C42.1952873,43.08 43.7822873,42.25 45.1942873,41.16 C45.2102873,41.15 45.2252873,41.14 45.2412873,41.13 C45.5852873,40.86 45.9172873,40.58 46.2372873,40.29 C46.2482873,40.28 46.2592873,40.27 46.2692873,40.25 C46.9212873,39.66 47.5252873,39 48.0752873,38.29 C48.0832873,38.28 48.0892873,38.28 48.0952873,38.27 C48.3562873,37.93 48.6042873,37.58 48.8422873,37.22 C48.8672873,37.18 48.8932873,37.14 48.9192873,37.1 C49.1442873,36.75 49.3602873,36.39 49.5612873,36.02 C49.5862873,35.97 49.6102873,35.93 49.6362873,35.88 C49.7722873,35.62 49.9032873,35.36 50.0272873,35.09 C50.1962873,35.11 50.3662873,35.13 50.5332873,35.13 C53.8572873,35.13 57.1362873,32.21 58.2652873,27.96 C59.5582873,23.11 57.5482873,18.36 53.7792873,17.35 L53.7792873,17.35 Z" id="Fill-718"></path>
        </g>
    </g>
</svg>