<?xml version="1.0" encoding="UTF-8" standalone="no"?>
<svg width="72px" height="72px" viewBox="0 0 72 72" version="1.1" xmlns="http://www.w3.org/2000/svg" xmlns:xlink="http://www.w3.org/1999/xlink">
    <!-- Generator: Sketch 39.1 (31720) - http://www.bohemiancoding.com/sketch -->
    <title>expand</title>
    <desc>Created with Sketch.</desc>
    <defs></defs>
    <g id="Page-1" stroke="none" stroke-width="1" fill="none" fill-rule="evenodd">
        <g id="expand" fill="#E65376">
            <path d="M36.083,57.72 C24.153,57.72 14.448,48.01 14.448,36.08 C14.448,24.15 24.153,14.44 36.083,14.44 C48.012,14.44 57.72,24.15 57.72,36.08 C57.72,48.01 48.012,57.72 36.083,57.72 L36.083,57.72 Z M36.083,11 C22.252,11 11,22.25 11,36.08 C11,49.91 22.252,61.17 36.083,61.17 C49.916,61.17 61.169,49.91 61.169,36.08 C61.169,22.25 49.916,11 36.083,11 L36.083,11 Z" id="Fill-494"></path>
            <path d="M34.746,22.46 C34.903,22.46 35.026,22.42 35.119,22.33 C35.211,22.24 35.258,22.15 35.258,22.04 L35.258,18.65 L37.661,22.14 L37.688,22.18 C37.723,22.27 37.784,22.33 37.87,22.38 C37.957,22.44 38.068,22.46 38.198,22.46 C38.347,22.46 38.469,22.42 38.561,22.33 C38.655,22.24 38.701,22.15 38.701,22.04 L38.701,16.96 C38.701,16.86 38.655,16.76 38.561,16.67 C38.469,16.59 38.347,16.54 38.198,16.54 C38.031,16.54 37.898,16.59 37.803,16.67 C37.709,16.76 37.661,16.86 37.661,16.96 L37.661,20.41 L35.249,16.88 C35.225,16.79 35.168,16.71 35.078,16.65 C34.987,16.58 34.877,16.54 34.746,16.54 C34.586,16.54 34.455,16.59 34.356,16.67 C34.257,16.76 34.209,16.86 34.209,16.96 L34.209,22.04 C34.209,22.15 34.257,22.24 34.356,22.33 C34.455,22.42 34.586,22.46 34.746,22.46" id="Fill-495"></path>
            <path d="M22.742,33.65 C22.674,33.53 22.559,33.46 22.397,33.42 C22.253,33.38 22.123,33.39 22.003,33.45 C21.882,33.51 21.809,33.59 21.778,33.7 L21.106,37.77 L20.128,33.84 C20.081,33.7 20.019,33.59 19.941,33.51 C19.864,33.44 19.739,33.4 19.563,33.4 C19.294,33.4 19.116,33.55 19.026,33.84 L18.047,37.77 L17.377,33.7 C17.341,33.59 17.264,33.51 17.148,33.45 C17.032,33.39 16.897,33.38 16.749,33.42 C16.593,33.46 16.481,33.53 16.413,33.65 C16.343,33.76 16.325,33.86 16.354,33.96 L17.422,38.94 C17.452,39.04 17.518,39.13 17.623,39.2 C17.727,39.28 17.855,39.32 18.004,39.32 C18.153,39.32 18.281,39.28 18.385,39.2 C18.49,39.13 18.557,39.04 18.588,38.94 L19.573,35.23 L20.568,38.94 C20.598,39.04 20.667,39.13 20.769,39.2 C20.875,39.28 21.002,39.32 21.15,39.32 C21.294,39.32 21.419,39.28 21.528,39.2 C21.634,39.13 21.704,39.04 21.734,38.94 L22.799,33.96 C22.829,33.86 22.81,33.76 22.742,33.65" id="Fill-496"></path>
            <path d="M54.925,38.28 L52.918,38.28 L52.918,36.8 L54.263,36.8 C54.436,36.8 54.567,36.75 54.653,36.67 C54.74,36.58 54.782,36.47 54.782,36.33 C54.782,36.18 54.74,36.06 54.653,35.98 C54.567,35.89 54.436,35.85 54.263,35.85 L52.918,35.85 L52.918,34.44 L54.925,34.44 C55.093,34.44 55.22,34.4 55.307,34.31 C55.393,34.22 55.438,34.11 55.438,33.97 C55.438,33.82 55.393,33.71 55.307,33.62 C55.22,33.53 55.093,33.49 54.925,33.49 L52.407,33.49 C52.245,33.49 52.114,33.53 52.016,33.62 C51.919,33.71 51.867,33.8 51.867,33.91 L51.867,38.81 C51.867,38.91 51.919,39.01 52.016,39.1 C52.114,39.18 52.245,39.23 52.407,39.23 L54.925,39.23 C55.093,39.23 55.22,39.18 55.307,39.1 C55.393,39.01 55.438,38.9 55.438,38.76 C55.438,38.61 55.393,38.49 55.307,38.41 C55.22,38.32 55.093,38.28 54.925,38.28" id="Fill-497"></path>
            <path d="M37.53,53.18 C37.336,53.04 37.125,52.93 36.897,52.84 C36.669,52.75 36.461,52.66 36.265,52.57 C36.072,52.48 35.91,52.38 35.781,52.27 C35.652,52.15 35.588,52 35.588,51.81 C35.588,51.59 35.658,51.42 35.795,51.3 C35.932,51.19 36.109,51.13 36.324,51.13 C36.574,51.13 36.774,51.17 36.923,51.24 C37.073,51.32 37.184,51.39 37.255,51.45 C37.322,51.51 37.392,51.55 37.467,51.59 C37.541,51.64 37.628,51.66 37.723,51.66 C37.883,51.66 37.999,51.61 38.068,51.53 C38.135,51.44 38.17,51.33 38.17,51.19 C38.17,51.11 38.131,51.02 38.054,50.9 C37.977,50.78 37.861,50.67 37.709,50.56 C37.557,50.46 37.368,50.36 37.143,50.29 C36.919,50.21 36.659,50.18 36.359,50.18 C36.072,50.18 35.816,50.22 35.588,50.3 C35.361,50.38 35.169,50.49 35.015,50.64 C34.858,50.79 34.739,50.97 34.656,51.17 C34.571,51.38 34.531,51.6 34.531,51.85 C34.531,52.17 34.595,52.42 34.724,52.62 C34.851,52.82 35.015,52.99 35.212,53.12 C35.409,53.26 35.621,53.37 35.843,53.46 C36.068,53.55 36.279,53.64 36.477,53.74 C36.673,53.83 36.836,53.94 36.964,54.06 C37.093,54.19 37.158,54.34 37.158,54.53 C37.158,54.76 37.087,54.93 36.952,55.03 C36.813,55.14 36.626,55.19 36.387,55.19 C36.176,55.19 35.98,55.15 35.795,55.08 C35.609,55 35.465,54.92 35.363,54.82 C35.298,54.76 35.227,54.71 35.149,54.66 C35.073,54.61 34.983,54.58 34.88,54.57 C34.569,54.57 34.415,54.71 34.415,54.99 C34.415,55.12 34.45,55.23 34.522,55.33 C34.593,55.44 34.686,55.53 34.8,55.61 C34.912,55.69 35.041,55.76 35.181,55.82 C35.32,55.88 35.461,55.93 35.605,55.97 C35.75,56.01 35.887,56.04 36.018,56.06 C36.152,56.08 36.262,56.09 36.35,56.09 C36.929,56.09 37.384,55.95 37.714,55.66 C38.042,55.37 38.206,54.97 38.206,54.47 C38.206,54.15 38.142,53.89 38.014,53.68 C37.885,53.48 37.723,53.31 37.53,53.18" id="Fill-498"></path>
            <path d="M26.249,46.31 L32.951,34.3 L38.22,39.57 L26.249,46.31 L26.249,46.31 Z M48.622,22.54 L32.227,31.72 C32.218,31.72 32.212,31.73 32.204,31.74 L32.185,31.74 C32.018,31.84 31.879,31.98 31.788,32.14 L22.652,48.51 C22.427,48.92 22.499,49.42 22.826,49.75 C23.024,49.95 23.29,50.05 23.557,50.05 C23.73,50.05 23.905,50.01 24.063,49.92 L40.382,40.73 C40.478,40.68 40.569,40.59 40.65,40.49 C40.708,40.44 40.756,40.37 40.797,40.3 L50.028,23.95 C50.257,23.55 50.186,23.04 49.861,22.72 C49.533,22.39 49.027,22.32 48.622,22.54 L48.622,22.54 Z" id="Fill-499"></path>
        </g>
    </g>
</svg>