
<svg width="260px" height="68px" viewBox="1057 -1345 260 68" version="1.1" xmlns="http://www.w3.org/2000/svg" xmlns:xlink="http://www.w3.org/1999/xlink">
    <!-- Generator: Sketch 39.1 (31720) - http://www.bohemiancoding.com/sketch -->
    <desc>Created with Sketch.</desc>
    <defs></defs>
    <g id="Group" stroke="none" stroke-width="1" fill="none" fill-rule="evenodd" transform="translate(1057.000000, -1345.000000)">
        <path d="M34.2788,60.88584 C29.46576,60.88584 24.94784,59.63192 21.0256,57.4464 L33.24792,44.9616 C33.3064,44.90584 33.34584,44.8324 33.40024,44.77392 C34.3944,45.0228 35.41576,45.19008 36.48336,45.19008 C43.64376,45.20912 49.46184,39.46856 49.4836,32.368 C49.49176,31.23512 49.29864,30.15256 49.02256,29.09584 L42.194,35.83192 L34.646,34.21216 L33.05616,26.7104 L39.89968,19.97024 C38.83208,19.67512 37.72504,19.46704 36.56088,19.46568 C29.4032,19.44936 23.58104,25.17632 23.55928,32.28504 C23.55384,33.79464 23.85984,35.21856 24.3372,36.56496 L11.94488,49.21432 C8.93928,44.88544 7.17264,39.64536 7.17264,34 C7.17264,19.17464 19.33376,7.11416 34.2788,7.11416 C49.2252,7.11416 61.3836,19.17464 61.3836,34 C61.3836,48.82808 49.2252,60.88584 34.2788,60.88584 M34.2788,0 C15.37752,0 0,15.25376 0,33.99864 C0,52.74624 15.37752,68 34.2788,68 C53.17736,68 68.55352,52.74624 68.55352,33.99864 C68.55352,15.25376 53.17736,0 34.2788,0" id="Fill-1" fill="#FED876"></path>
        <path d="M93.2034361,12.6369163 L93.2034361,15.2400881 L81.8681057,15.2400881 L81.8681057,23.4944493 L91.555859,23.4944493 L91.555859,26.0976211 L81.8681057,26.0976211 L81.8681057,36.246696 L78.6553304,36.246696 L78.6553304,12.6369163 L93.2034361,12.6369163 Z M100.106784,19.5567401 L100.106784,36.246696 L97.1740969,36.246696 L97.1740969,19.5567401 L100.106784,19.5567401 Z M100.765815,14.3174449 C100.765815,14.6030264 100.70815,14.869382 100.592819,15.1165198 C100.477488,15.3636576 100.323716,15.5833324 100.131498,15.7755507 C99.9392795,15.9677689 99.7168588,16.1187953 99.4642291,16.2286344 C99.2115993,16.3384734 98.9424978,16.3933921 98.6569163,16.3933921 C98.3713348,16.3933921 98.1049792,16.3384734 97.8578414,16.2286344 C97.6107036,16.1187953 97.3910289,15.9677689 97.1988106,15.7755507 C97.0065923,15.5833324 96.8555659,15.3636576 96.7457269,15.1165198 C96.6358879,14.869382 96.5809692,14.6030264 96.5809692,14.3174449 C96.5809692,14.0318635 96.6358879,13.760016 96.7457269,13.5018943 C96.8555659,13.2437726 97.0065923,13.018606 97.1988106,12.8263877 C97.3910289,12.6341694 97.6107036,12.483143 97.8578414,12.373304 C98.1049792,12.2634649 98.3713348,12.2085463 98.6569163,12.2085463 C98.9424978,12.2085463 99.2115993,12.2634649 99.4642291,12.373304 C99.7168588,12.483143 99.9392795,12.6341694 100.131498,12.8263877 C100.323716,13.018606 100.477488,13.2437726 100.592819,13.5018943 C100.70815,13.760016 100.765815,14.0318635 100.765815,14.3174449 L100.765815,14.3174449 Z M109.184934,27.6957709 L103.566696,19.5567401 L106.384053,19.5567401 C106.625699,19.5567401 106.801439,19.5951832 106.911278,19.6720705 C107.021117,19.7489578 107.11997,19.8587952 107.207841,20.0015859 L111.293833,26.2623789 C111.392688,25.9548296 111.535476,25.6472849 111.722203,25.3397357 L115.313921,20.067489 C115.42376,19.9137144 115.533597,19.7901473 115.643436,19.6967841 C115.753275,19.603421 115.890572,19.5567401 116.05533,19.5567401 L118.757357,19.5567401 L113.139119,27.5310132 L118.988018,36.246696 L116.170661,36.246696 C115.929015,36.246696 115.739545,36.1835395 115.602247,36.0572247 C115.464948,35.9309098 115.352365,35.7908671 115.264493,35.6370925 L111.063172,29.0962115 C110.986284,29.4147446 110.870955,29.7003218 110.717181,29.9529515 L106.828899,35.6370925 C106.71906,35.7908671 106.600984,35.9309098 106.47467,36.0572247 C106.348355,36.1835395 106.175361,36.246696 105.955683,36.246696 L103.336035,36.246696 L109.184934,27.6957709 Z M133.964493,27.7122467 C134.118268,27.9758603 134.252819,28.2531997 134.36815,28.5442731 C134.483481,28.8353465 134.596064,29.1291615 134.705903,29.4257269 C134.815742,29.1181776 134.931071,28.8243626 135.051894,28.5442731 C135.172717,28.2641836 135.310014,27.9813524 135.463789,27.6957709 L143.454537,13.1806167 C143.597328,12.927987 143.745609,12.7742147 143.899383,12.7192952 C144.053158,12.6643756 144.272833,12.6369163 144.558414,12.6369163 L146.914449,12.6369163 L146.914449,36.246696 L144.113568,36.246696 L144.113568,18.8977093 C144.113568,18.6670473 144.11906,18.4199132 144.130044,18.1562996 C144.141028,17.8926859 144.157504,17.6235843 144.179471,17.3489868 L136.089868,32.1112775 C135.81527,32.6055531 135.430839,32.8526872 134.936564,32.8526872 L134.475242,32.8526872 C133.980967,32.8526872 133.596536,32.6055531 133.321938,32.1112775 L125.051101,17.2995595 C125.084053,17.5851409 125.108766,17.8652262 125.125242,18.1398238 C125.141718,18.4144213 125.149956,18.6670473 125.149956,18.8977093 L125.149956,36.246696 L122.349075,36.246696 L122.349075,12.6369163 L124.70511,12.6369163 C124.990692,12.6369163 125.210366,12.6643756 125.364141,12.7192952 C125.517916,12.7742147 125.666196,12.927987 125.808987,13.1806167 L133.964493,27.7122467 Z M157.096476,41.1729515 C156.997621,41.3926296 156.874054,41.5683694 156.725771,41.7001762 C156.577488,41.831983 156.349576,41.8978855 156.042026,41.8978855 L153.867225,41.8978855 L156.915242,35.2746256 L150.02837,19.5567401 L152.565639,19.5567401 C152.818269,19.5567401 153.015976,19.6198966 153.158767,19.7462115 C153.301557,19.8725263 153.405903,20.012569 153.471806,20.1663436 L157.93674,30.6778855 C158.035595,30.9195313 158.120719,31.1611735 158.192115,31.4028194 C158.26351,31.6444652 158.326666,31.8915993 158.381586,32.1442291 C158.458473,31.8915993 158.535359,31.6444652 158.612247,31.4028194 C158.689134,31.1611735 158.777004,30.9140394 158.875859,30.6614097 L163.208987,20.1663436 C163.27489,19.9906012 163.387474,19.8450667 163.54674,19.7297357 C163.706007,19.6144047 163.879001,19.5567401 164.065727,19.5567401 L166.405286,19.5567401 L157.096476,41.1729515 Z" id="FixMyStreet" fill="#7C7977"></path>
        <path d="M255.143789,36.5103084 C254.33098,36.5103084 253.614291,36.3922332 252.9937,36.1560793 C252.37311,35.9199254 251.851382,35.5849214 251.428502,35.1510573 C251.005622,34.7171931 250.684348,34.1927197 250.46467,33.5776211 C250.244992,32.9625226 250.135154,32.276039 250.135154,31.5181498 L250.135154,22.6871366 L248.685286,22.6871366 C248.421673,22.6871366 248.196506,22.6020126 248.00978,22.4317621 C247.823053,22.2615116 247.729692,22.0116316 247.729692,21.6821145 L247.729692,19.6885463 L250.448194,19.1613216 L251.453216,14.9929515 C251.585023,14.4657242 251.95847,14.2021145 252.573568,14.2021145 L255.242643,14.2021145 L255.242643,19.1942731 L259.394537,19.1942731 L259.394537,22.6871366 L255.242643,22.6871366 L255.242643,31.1721586 C255.242643,31.5675791 255.338751,31.8943453 255.530969,32.152467 C255.723187,32.4105887 256.000527,32.5396476 256.362996,32.5396476 C256.549722,32.5396476 256.70624,32.520426 256.832555,32.4819824 C256.95887,32.4435387 257.068707,32.3996038 257.16207,32.3501762 C257.255434,32.3007487 257.343304,32.2568137 257.425683,32.21837 C257.508062,32.1799264 257.60417,32.1607048 257.714009,32.1607048 C257.867783,32.1607048 257.99135,32.196402 258.084714,32.2677974 C258.178077,32.3391927 258.274185,32.451776 258.37304,32.6055507 L259.921762,35.027489 C259.262728,35.5217646 258.521326,35.8924657 257.697533,36.1396035 C256.87374,36.3867413 256.022501,36.5103084 255.143789,36.5103084 Z M238.536211,18.8977093 C239.667553,18.8977093 240.702771,19.0734491 241.641894,19.4249339 C242.581018,19.7764188 243.388323,20.2871626 244.063833,20.9571806 C244.739343,21.6271987 245.266562,22.448233 245.645507,23.4203084 C246.024451,24.3923837 246.213921,25.4935034 246.213921,26.7237004 C246.213921,27.108137 246.197445,27.4211735 246.164493,27.6628194 C246.131542,27.9044652 246.071131,28.0966806 245.98326,28.2394714 C245.895389,28.3822621 245.777314,28.4811157 245.629031,28.5360352 C245.480748,28.5909548 245.291279,28.6184141 245.060617,28.6184141 L235.208106,28.6184141 C235.372864,30.0463214 235.806722,31.0815386 236.509692,31.7240969 C237.212661,32.3666552 238.11882,32.6879295 239.228194,32.6879295 C239.821325,32.6879295 240.332068,32.6165352 240.760441,32.4737445 C241.188813,32.3309538 241.570498,32.1716896 241.905507,31.9959471 C242.240516,31.8202047 242.54806,31.6609405 242.82815,31.5181498 C243.108239,31.3753591 243.402054,31.3039648 243.709604,31.3039648 C244.116008,31.3039648 244.423553,31.4522452 244.632247,31.7488106 L246.115066,33.5776211 C245.587839,34.1817358 245.01943,34.673258 244.409824,35.0522026 C243.800217,35.4311473 243.174144,35.7277082 242.531586,35.9418943 C241.889028,36.1560804 241.246479,36.3043608 240.603921,36.3867401 C239.961362,36.4691194 239.349019,36.5103084 238.766872,36.5103084 C237.569627,36.5103084 236.44654,36.315347 235.397577,35.9254185 C234.348614,35.53549 233.431472,34.9560978 232.646123,34.1872247 C231.860774,33.4183515 231.240193,32.4627664 230.784361,31.3204405 C230.328529,30.1781147 230.100617,28.8490825 230.100617,27.333304 C230.100617,26.1909781 230.295578,25.10908 230.685507,24.0875771 C231.075435,23.0660742 231.635606,22.1708996 232.366035,21.4020264 C233.096465,20.6331533 233.980656,20.0235558 235.018634,19.5732159 C236.056613,19.1228759 237.229127,18.8977093 238.536211,18.8977093 Z M238.635066,22.4235242 C237.657499,22.4235242 236.894129,22.7008636 236.344934,23.2555507 C235.795739,23.8102377 235.433275,24.6093046 235.257533,25.6527753 L241.633656,25.6527753 C241.633656,25.2463709 241.581484,24.8509564 241.477137,24.4665198 C241.372789,24.0820832 241.202542,23.7388415 240.966388,23.4367841 C240.730234,23.1347268 240.419943,22.8903387 240.035507,22.7036123 C239.65107,22.516886 239.184261,22.4235242 238.635066,22.4235242 Z M220.610573,18.8977093 C221.741915,18.8977093 222.777132,19.0734491 223.716256,19.4249339 C224.655379,19.7764188 225.462684,20.2871626 226.138194,20.9571806 C226.813704,21.6271987 227.340923,22.448233 227.719868,23.4203084 C228.098812,24.3923837 228.288282,25.4935034 228.288282,26.7237004 C228.288282,27.108137 228.271806,27.4211735 228.238855,27.6628194 C228.205903,27.9044652 228.145492,28.0966806 228.057621,28.2394714 C227.96975,28.3822621 227.851675,28.4811157 227.703392,28.5360352 C227.555109,28.5909548 227.36564,28.6184141 227.134978,28.6184141 L217.282467,28.6184141 C217.447225,30.0463214 217.881083,31.0815386 218.584053,31.7240969 C219.287023,32.3666552 220.193181,32.6879295 221.302555,32.6879295 C221.895686,32.6879295 222.40643,32.6165352 222.834802,32.4737445 C223.263174,32.3309538 223.644859,32.1716896 223.979868,31.9959471 C224.314877,31.8202047 224.622422,31.6609405 224.902511,31.5181498 C225.182601,31.3753591 225.476415,31.3039648 225.783965,31.3039648 C226.190369,31.3039648 226.497914,31.4522452 226.706608,31.7488106 L228.189427,33.5776211 C227.6622,34.1817358 227.093792,34.673258 226.484185,35.0522026 C225.874578,35.4311473 225.248505,35.7277082 224.605947,35.9418943 C223.963389,36.1560804 223.32084,36.3043608 222.678282,36.3867401 C222.035724,36.4691194 221.42338,36.5103084 220.841233,36.5103084 C219.643988,36.5103084 218.520901,36.315347 217.471938,35.9254185 C216.422976,35.53549 215.505834,34.9560978 214.720485,34.1872247 C213.935136,33.4183515 213.314554,32.4627664 212.858722,31.3204405 C212.402891,30.1781147 212.174978,28.8490825 212.174978,27.333304 C212.174978,26.1909781 212.369939,25.10908 212.759868,24.0875771 C213.149796,23.0660742 213.709967,22.1708996 214.440396,21.4020264 C215.170826,20.6331533 216.055017,20.0235558 217.092996,19.5732159 C218.130974,19.1228759 219.303488,18.8977093 220.610573,18.8977093 Z M220.709427,22.4235242 C219.73186,22.4235242 218.96849,22.7008636 218.419295,23.2555507 C217.8701,23.8102377 217.507637,24.6093046 217.331894,25.6527753 L223.708018,25.6527753 C223.708018,25.2463709 223.655845,24.8509564 223.551498,24.4665198 C223.447151,24.0820832 223.276903,23.7388415 223.040749,23.4367841 C222.804595,23.1347268 222.494304,22.8903387 222.109868,22.7036123 C221.725431,22.516886 221.258622,22.4235242 220.709427,22.4235242 Z M199.686344,36.246696 L199.686344,19.1613216 L202.717885,19.1613216 C202.970515,19.1613216 203.181952,19.1832891 203.352203,19.2272247 C203.522453,19.2711603 203.665242,19.3398086 203.780573,19.4331718 C203.895904,19.526535 203.983774,19.650102 204.044185,19.8038767 C204.104596,19.9576513 204.156769,20.1443748 204.200705,20.3640529 L204.480793,21.9622026 C205.106875,20.9956192 205.809835,20.2322495 206.589692,19.6720705 C207.369549,19.1118915 208.220788,18.8318062 209.143436,18.8318062 C209.923293,18.8318062 210.549366,19.0185297 211.021674,19.3919824 L210.362643,23.1484581 C210.318708,23.3791201 210.230838,23.5411302 210.099031,23.6344934 C209.967224,23.7278566 209.791484,23.7745374 209.571806,23.7745374 C209.38508,23.7745374 209.165405,23.749824 208.912775,23.7003965 C208.660146,23.6509689 208.341617,23.6262555 207.957181,23.6262555 C206.617145,23.6262555 205.562706,24.3401984 204.793833,25.7681057 L204.793833,36.246696 L199.686344,36.246696 Z M192.502907,36.5103084 C191.690099,36.5103084 190.97341,36.3922332 190.352819,36.1560793 C189.732229,35.9199254 189.210501,35.5849214 188.787621,35.1510573 C188.364741,34.7171931 188.043467,34.1927197 187.823789,33.5776211 C187.604111,32.9625226 187.494273,32.276039 187.494273,31.5181498 L187.494273,22.6871366 L186.044405,22.6871366 C185.780792,22.6871366 185.555625,22.6020126 185.368899,22.4317621 C185.182172,22.2615116 185.088811,22.0116316 185.088811,21.6821145 L185.088811,19.6885463 L187.807313,19.1613216 L188.812335,14.9929515 C188.944142,14.4657242 189.317589,14.2021145 189.932687,14.2021145 L192.601762,14.2021145 L192.601762,19.1942731 L196.753656,19.1942731 L196.753656,22.6871366 L192.601762,22.6871366 L192.601762,31.1721586 C192.601762,31.5675791 192.69787,31.8943453 192.890088,32.152467 C193.082306,32.4105887 193.359646,32.5396476 193.722115,32.5396476 C193.908841,32.5396476 194.065359,32.520426 194.191674,32.4819824 C194.317989,32.4435387 194.427826,32.3996038 194.521189,32.3501762 C194.614553,32.3007487 194.702422,32.2568137 194.784802,32.21837 C194.867181,32.1799264 194.963289,32.1607048 195.073128,32.1607048 C195.226902,32.1607048 195.350469,32.196402 195.443833,32.2677974 C195.537196,32.3391927 195.633303,32.451776 195.732159,32.6055507 L197.280881,35.027489 C196.621847,35.5217646 195.880445,35.8924657 195.056652,36.1396035 C194.232859,36.3867413 193.38162,36.5103084 192.502907,36.5103084 Z M182.024317,17.118326 C181.859559,17.3819396 181.686565,17.5796469 181.50533,17.7114537 C181.324096,17.8432606 181.090692,17.909163 180.80511,17.909163 C180.55248,17.909163 180.280633,17.8295309 179.989559,17.6702643 C179.698486,17.5109977 179.368974,17.332512 179.001013,17.1348018 C178.633052,16.9370915 178.212925,16.7586058 177.740617,16.5993392 C177.268309,16.4400726 176.730106,16.3604405 176.125991,16.3604405 C175.08252,16.3604405 174.305421,16.5828612 173.79467,17.0277093 C173.283918,17.4725573 173.028546,18.0739169 173.028546,18.8318062 C173.028546,19.3150979 173.182319,19.7160043 173.489868,20.0345374 C173.797417,20.3530706 174.201069,20.627664 174.700837,20.858326 C175.200605,21.0889879 175.771759,21.3004249 176.414317,21.4926432 C177.056875,21.6848615 177.713154,21.8990443 178.383172,22.1351982 C179.05319,22.3713521 179.709468,22.6486915 180.352026,22.9672247 C180.994585,23.2857578 181.565739,23.6921561 182.065507,24.1864317 C182.565274,24.6807073 182.968927,25.2820669 183.276476,25.9905286 C183.584025,26.6989903 183.737797,27.5529759 183.737797,28.552511 C183.737797,29.6618851 183.545582,30.6998483 183.161145,31.6664317 C182.776709,32.6330151 182.219284,33.476017 181.488855,34.1954626 C180.758425,34.9149081 179.857759,35.4805706 178.786828,35.892467 C177.715898,36.3043633 176.499449,36.5103084 175.137445,36.5103084 C174.39054,36.5103084 173.629916,36.4334222 172.855551,36.2796476 C172.081186,36.1258729 171.331545,35.9089441 170.606608,35.6288546 C169.88167,35.3487651 169.200679,35.0165071 168.563612,34.6320705 C167.926546,34.2476339 167.371867,33.8192681 166.899559,33.3469604 L168.547137,30.7437885 C168.667959,30.5460783 168.838207,30.3868141 169.057885,30.2659912 C169.277564,30.1451683 169.513714,30.0847577 169.766344,30.0847577 C170.095861,30.0847577 170.428119,30.1891032 170.763128,30.3977974 C171.098137,30.6064915 171.477076,30.83715 171.899956,31.0897797 C172.322836,31.3424095 172.808867,31.573068 173.358062,31.7817621 C173.907257,31.9904563 174.555297,32.0948018 175.302203,32.0948018 C176.312722,32.0948018 177.098059,31.8723811 177.658238,31.427533 C178.218417,30.982685 178.498502,30.2769799 178.498502,29.3103965 C178.498502,28.7502175 178.34473,28.2943924 178.037181,27.9429075 C177.729631,27.5914226 177.325979,27.3003536 176.826211,27.0696916 C176.326444,26.8390297 175.758035,26.6358305 175.120969,26.4600881 C174.483903,26.2843457 173.83037,26.0893843 173.160352,25.8751982 C172.490334,25.6610121 171.836802,25.3974024 171.199736,25.0843612 C170.562669,24.77132 169.994261,24.3594299 169.494493,23.8486784 C168.994726,23.337927 168.591073,22.7008702 168.283524,21.937489 C167.975975,21.1741078 167.822203,20.2322523 167.822203,19.1118943 C167.822203,18.2112143 168.003434,17.3325153 168.365903,16.4757709 C168.728372,15.6190266 169.261083,14.8556568 169.964053,14.1856388 C170.667023,13.5156207 171.529246,12.9801635 172.550749,12.5792511 C173.572252,12.1783387 174.74202,11.9778855 176.060088,11.9778855 C176.79601,11.9778855 177.512698,12.0355501 178.210176,12.1508811 C178.907654,12.266212 179.569424,12.43646 180.195507,12.66163 C180.821589,12.8868 181.406473,13.1559015 181.950176,13.4689427 C182.493879,13.7819839 182.97991,14.1362095 183.408282,14.53163 L182.024317,17.118326 Z" id="Combined-Shape" fill="#333333"></path>
        <path d="M83.9593304,46.4155419 L83.9593304,48.129022 L80.018326,48.129022 L80.018326,50.5608458 L83.3002996,50.5608458 L83.3002996,52.2809163 L80.018326,52.2809163 L80.018326,56.0176211 L77.7776211,56.0176211 L77.7776211,46.4155419 L83.9593304,46.4155419 Z M102.573357,51.2132863 C102.573357,51.907469 102.453634,52.5533127 102.214185,53.150837 C101.974736,53.7483613 101.637535,54.2678921 101.202572,54.7094449 C100.76761,55.1509978 100.243686,55.4969855 99.6307839,55.7474185 C99.0178821,55.9978515 98.3379888,56.1230661 97.5910834,56.1230661 C96.8441781,56.1230661 96.1631864,55.9978515 95.5480879,55.7474185 C94.9329893,55.4969855 94.4068683,55.1509978 93.969709,54.7094449 C93.5325497,54.2678921 93.1942506,53.7483613 92.9548015,53.150837 C92.7153524,52.5533127 92.5956297,51.907469 92.5956297,51.2132863 C92.5956297,50.5191037 92.7153524,49.87326 92.9548015,49.2757357 C93.1942506,48.6782114 93.5325497,48.159779 93.969709,47.7204229 C94.4068683,47.2810668 94.9329893,46.9361775 95.5480879,46.6857445 C96.1631864,46.4353115 96.8441781,46.3100969 97.5910834,46.3100969 C98.3379888,46.3100969 99.0178821,46.4364099 99.6307839,46.6890396 C100.243686,46.9416694 100.76761,47.2876571 101.202572,47.7270132 C101.637535,48.1663693 101.974736,48.6848017 102.214185,49.282326 C102.453634,49.8798503 102.573357,50.5234973 102.573357,51.2132863 L102.573357,51.2132863 Z M100.29311,51.2132863 C100.29311,50.7387818 100.231601,50.3115144 100.108581,49.9314714 C99.9855615,49.5514283 99.8087234,49.2296048 99.5780614,48.9659912 C99.3473995,48.7023775 99.0651174,48.5002768 98.7312068,48.3596828 C98.3972962,48.2190889 98.0172589,48.148793 97.5910834,48.148793 C97.1605145,48.148793 96.777182,48.2190889 96.4410746,48.3596828 C96.1049672,48.5002768 95.8215868,48.7023775 95.5909249,48.9659912 C95.3602629,49.2296048 95.1834247,49.5514283 95.060405,49.9314714 C94.9373853,50.3115144 94.8758764,50.7387818 94.8758764,51.2132863 C94.8758764,51.6921845 94.9373853,52.1216486 95.060405,52.5016916 C95.1834247,52.8817346 95.3602629,53.2035582 95.5909249,53.4671718 C95.8215868,53.7307855 96.1049672,53.9317879 96.4410746,54.070185 C96.777182,54.2085822 97.1605145,54.2777797 97.5910834,54.2777797 C98.0172589,54.2777797 98.3972962,54.2085822 98.7312068,54.070185 C99.0651174,53.9317879 99.3473995,53.7307855 99.5780614,53.4671718 C99.8087234,53.2035582 99.9855615,52.8817346 100.108581,52.5016916 C100.231601,52.1216486 100.29311,51.6921845 100.29311,51.2132863 L100.29311,51.2132863 Z M113.845779,52.4654449 L113.845779,56.0176211 L111.618255,56.0176211 L111.618255,46.4155419 L114.742061,46.4155419 C115.436244,46.4155419 116.028267,46.4869361 116.518149,46.6297269 C117.008031,46.7725176 117.407839,46.9713232 117.717585,47.2261498 C118.027331,47.4809763 118.252498,47.7819307 118.393092,48.129022 C118.533686,48.4761133 118.603982,48.8539539 118.603982,49.2625551 C118.603982,49.5744979 118.562244,49.8688621 118.478766,50.1456564 C118.395288,50.4224507 118.271172,50.6783718 118.106414,50.9134273 C117.941655,51.1484828 117.739554,51.3582722 117.500105,51.5428018 C117.260656,51.7273313 116.984964,51.8789069 116.673022,51.997533 C116.822403,52.0722236 116.961896,52.164487 117.091506,52.274326 C117.221116,52.384165 117.334249,52.5181666 117.430907,52.6763348 L119.473903,56.0176211 L117.457268,56.0176211 C117.083816,56.0176211 116.815812,55.8770293 116.653251,55.5958414 L115.058396,52.808141 C114.988099,52.6851213 114.905721,52.5972514 114.811259,52.5445286 C114.716798,52.4918059 114.583895,52.4654449 114.412546,52.4654449 L113.845779,52.4654449 Z M113.845779,50.9299031 L114.742061,50.9299031 C115.045217,50.9299031 115.303335,50.89146 115.516422,50.8145727 C115.72951,50.7376854 115.904152,50.6311431 116.040352,50.4949427 C116.176552,50.3587423 116.275406,50.1994782 116.336916,50.0171454 C116.398426,49.8348126 116.42918,49.6382037 116.42918,49.4273128 C116.42918,49.0055309 116.291883,48.6760188 116.017286,48.4387665 C115.742688,48.2015142 115.317618,48.0828899 114.742061,48.0828899 L113.845779,48.0828899 L113.845779,50.9299031 Z M145.333673,53.5330749 C145.386396,53.5330749 145.439118,53.5429603 145.49184,53.5627313 C145.544563,53.5825023 145.595088,53.6165519 145.643417,53.6648811 L146.526519,54.5941145 C146.139885,55.099374 145.655503,55.4805097 145.073356,55.737533 C144.491209,55.9945564 143.802529,56.1230661 143.007294,56.1230661 C142.277963,56.1230661 141.624431,55.9989498 141.046677,55.7507137 C140.468924,55.5024775 139.979049,55.1597849 139.577039,54.7226256 C139.175028,54.2854662 138.866385,53.7670338 138.6511,53.1673128 C138.435816,52.5675917 138.328175,51.9162561 138.328175,51.2132863 C138.328175,50.4971359 138.451193,49.83921 138.697232,49.239489 C138.943272,48.6397679 139.287063,48.1224339 139.728616,47.6874714 C140.170169,47.2525088 140.698486,46.9142097 141.313585,46.6725639 C141.928683,46.430918 142.607478,46.3100969 143.34999,46.3100969 C143.710262,46.3100969 144.04966,46.3419498 144.368193,46.4056564 C144.686726,46.469363 144.984385,46.5572329 145.26118,46.6692687 C145.537974,46.7813045 145.792797,46.9153061 146.025655,47.0712775 C146.258514,47.2272489 146.465008,47.3996936 146.645144,47.5886167 L145.893849,48.5969339 C145.84552,48.6584438 145.788405,48.7144608 145.722501,48.7649868 C145.656598,48.8155127 145.564334,48.8407753 145.445708,48.8407753 C145.366624,48.8407753 145.291935,48.8232014 145.221638,48.7880529 C145.151341,48.7529044 145.076651,48.7100678 144.997567,48.6595419 C144.918483,48.6090159 144.831712,48.5540972 144.73725,48.4947841 C144.642789,48.4354711 144.530754,48.3805524 144.401144,48.3300264 C144.271534,48.2795005 144.119959,48.2366639 143.946413,48.2015154 C143.772867,48.1663669 143.569668,48.148793 143.33681,48.148793 C142.932602,48.148793 142.563548,48.2201872 142.229638,48.362978 C141.895727,48.5057687 141.609052,48.7100662 141.369603,48.9758767 C141.130153,49.2416871 140.94343,49.5635106 140.809426,49.9413568 C140.675423,50.3192031 140.608422,50.7431753 140.608422,51.2132863 C140.608422,51.7053652 140.675423,52.1425179 140.809426,52.5247577 C140.94343,52.9069975 141.12576,53.228821 141.356422,53.4902379 C141.587084,53.7516548 141.856185,53.9504604 142.163735,54.0866608 C142.471284,54.2228612 142.800796,54.2909604 143.152281,54.2909604 C143.354385,54.2909604 143.538912,54.281075 143.705867,54.261304 C143.872822,54.2415329 144.027693,54.2074834 144.170484,54.1591542 C144.313274,54.110825 144.449473,54.0482177 144.579083,53.9713304 C144.708693,53.8944431 144.839399,53.7988846 144.971206,53.684652 C145.023929,53.6407164 145.081044,53.60447 145.142554,53.5759119 C145.204064,53.5473537 145.26777,53.5330749 145.333673,53.5330749 L145.333673,53.5330749 Z M164.995558,51.2132863 C164.995558,51.907469 164.875835,52.5533127 164.636386,53.150837 C164.396937,53.7483613 164.059737,54.2678921 163.624774,54.7094449 C163.189812,55.1509978 162.665887,55.4969855 162.052986,55.7474185 C161.440084,55.9978515 160.76019,56.1230661 160.013285,56.1230661 C159.26638,56.1230661 158.585388,55.9978515 157.970289,55.7474185 C157.355191,55.4969855 156.82907,55.1509978 156.391911,54.7094449 C155.954751,54.2678921 155.616452,53.7483613 155.377003,53.150837 C155.137554,52.5533127 155.017831,51.907469 155.017831,51.2132863 C155.017831,50.5191037 155.137554,49.87326 155.377003,49.2757357 C155.616452,48.6782114 155.954751,48.159779 156.391911,47.7204229 C156.82907,47.2810668 157.355191,46.9361775 157.970289,46.6857445 C158.585388,46.4353115 159.26638,46.3100969 160.013285,46.3100969 C160.76019,46.3100969 161.440084,46.4364099 162.052986,46.6890396 C162.665887,46.9416694 163.189812,47.2876571 163.624774,47.7270132 C164.059737,48.1663693 164.396937,48.6848017 164.636386,49.282326 C164.875835,49.8798503 164.995558,50.5234973 164.995558,51.2132863 L164.995558,51.2132863 Z M162.715312,51.2132863 C162.715312,50.7387818 162.653803,50.3115144 162.530783,49.9314714 C162.407763,49.5514283 162.230925,49.2296048 162.000263,48.9659912 C161.769601,48.7023775 161.487319,48.5002768 161.153408,48.3596828 C160.819498,48.2190889 160.43946,48.148793 160.013285,48.148793 C159.582716,48.148793 159.199384,48.2190889 158.863276,48.3596828 C158.527169,48.5002768 158.243788,48.7023775 158.013126,48.9659912 C157.782465,49.2296048 157.605626,49.5514283 157.482607,49.9314714 C157.359587,50.3115144 157.298078,50.7387818 157.298078,51.2132863 C157.298078,51.6921845 157.359587,52.1216486 157.482607,52.5016916 C157.605626,52.8817346 157.782465,53.2035582 158.013126,53.4671718 C158.243788,53.7307855 158.527169,53.9317879 158.863276,54.070185 C159.199384,54.2085822 159.582716,54.2777797 160.013285,54.2777797 C160.43946,54.2777797 160.819498,54.2085822 161.153408,54.070185 C161.487319,53.9317879 161.769601,53.7307855 162.000263,53.4671718 C162.230925,53.2035582 162.407763,52.8817346 162.530783,52.5016916 C162.653803,52.1216486 162.715312,51.6921845 162.715312,51.2132863 L162.715312,51.2132863 Z M178.034184,54.2580088 C178.332946,54.2580088 178.59985,54.208582 178.834906,54.1097269 C179.069961,54.0108718 179.268767,53.8691815 179.431329,53.684652 C179.593891,53.5001224 179.718007,53.2749558 179.803681,53.0091454 C179.889356,52.7433349 179.932192,52.4412822 179.932192,52.102978 L179.932192,46.4155419 L182.159717,46.4155419 L182.159717,52.102978 C182.159717,52.6917151 182.064158,53.232115 181.873038,53.7241938 C181.681918,54.2162727 181.408423,54.6402449 181.052545,54.9961233 C180.696666,55.3520018 180.263907,55.628792 179.754254,55.8265022 C179.244601,56.0242124 178.67125,56.1230661 178.034184,56.1230661 C177.392724,56.1230661 176.817176,56.0242124 176.307523,55.8265022 C175.79787,55.628792 175.36511,55.3520018 175.009232,54.9961233 C174.653354,54.6402449 174.380957,54.2162727 174.192034,53.7241938 C174.003111,53.232115 173.90865,52.6917151 173.90865,52.102978 L173.90865,46.4155419 L176.136175,46.4155419 L176.136175,52.0963877 C176.136175,52.4346919 176.179011,52.7367446 176.264686,53.0025551 C176.35036,53.2683655 176.474476,53.4946305 176.637038,53.6813568 C176.7996,53.8680832 176.998406,54.0108718 177.233461,54.1097269 C177.468517,54.208582 177.735421,54.2580088 178.034184,54.2580088 L178.034184,54.2580088 Z M192.759928,46.4155419 C192.856586,46.4155419 192.937866,46.4199353 193.003769,46.4287225 C193.069673,46.4375096 193.128985,46.4539852 193.181707,46.4781498 C193.23443,46.5023144 193.284955,46.536364 193.333285,46.5802996 C193.381614,46.6242352 193.436532,46.6835474 193.498042,46.7582379 L198.058536,52.5247577 C198.040961,52.3402282 198.027781,52.1611932 198.018994,51.9876476 C198.010207,51.8141019 198.005813,51.6504442 198.005813,51.4966696 L198.005813,46.4155419 L199.969725,46.4155419 L199.969725,56.0176211 L198.809831,56.0176211 C198.638482,56.0176211 198.493497,55.9912602 198.37487,55.9385374 C198.256244,55.8858147 198.142013,55.7891578 198.032174,55.6485639 L193.504633,49.9281762 C193.517813,50.0951315 193.528797,50.2587892 193.537584,50.4191542 C193.546371,50.5795192 193.550765,50.7299964 193.550765,50.8705903 L193.550765,56.0176211 L191.586853,56.0176211 L191.586853,46.4155419 L192.759928,46.4155419 Z M215.980579,53.5330749 C216.033302,53.5330749 216.086024,53.5429603 216.138747,53.5627313 C216.19147,53.5825023 216.241995,53.6165519 216.290324,53.6648811 L217.173425,54.5941145 C216.786792,55.099374 216.302409,55.4805097 215.720262,55.737533 C215.138115,55.9945564 214.449435,56.1230661 213.654201,56.1230661 C212.92487,56.1230661 212.271337,55.9989498 211.693584,55.7507137 C211.115831,55.5024775 210.625956,55.1597849 210.223945,54.7226256 C209.821934,54.2854662 209.513291,53.7670338 209.298007,53.1673128 C209.082722,52.5675917 208.975082,51.9162561 208.975082,51.2132863 C208.975082,50.4971359 209.0981,49.83921 209.344139,49.239489 C209.590178,48.6397679 209.933969,48.1224339 210.375522,47.6874714 C210.817075,47.2525088 211.345393,46.9142097 211.960491,46.6725639 C212.57559,46.430918 213.254385,46.3100969 213.996897,46.3100969 C214.357169,46.3100969 214.696566,46.3419498 215.015099,46.4056564 C215.333632,46.469363 215.631292,46.5572329 215.908086,46.6692687 C216.18488,46.7813045 216.439703,46.9153061 216.672562,47.0712775 C216.905421,47.2272489 217.111915,47.3996936 217.292051,47.5886167 L216.540756,48.5969339 C216.492427,48.6584438 216.435311,48.7144608 216.369408,48.7649868 C216.303504,48.8155127 216.211241,48.8407753 216.092615,48.8407753 C216.013531,48.8407753 215.938841,48.8232014 215.868544,48.7880529 C215.798247,48.7529044 215.723558,48.7100678 215.644474,48.6595419 C215.56539,48.6090159 215.478618,48.5540972 215.384157,48.4947841 C215.289695,48.4354711 215.177661,48.3805524 215.048051,48.3300264 C214.918441,48.2795005 214.766865,48.2366639 214.59332,48.2015154 C214.419774,48.1663669 214.216575,48.148793 213.983716,48.148793 C213.579508,48.148793 213.210455,48.2201872 212.876544,48.362978 C212.542634,48.5057687 212.255958,48.7100662 212.016509,48.9758767 C211.77706,49.2416871 211.590336,49.5635106 211.456333,49.9413568 C211.322329,50.3192031 211.255328,50.7431753 211.255328,51.2132863 C211.255328,51.7053652 211.322329,52.1425179 211.456333,52.5247577 C211.590336,52.9069975 211.772666,53.228821 212.003328,53.4902379 C212.23399,53.7516548 212.503092,53.9504604 212.810641,54.0866608 C213.11819,54.2228612 213.447703,54.2909604 213.799187,54.2909604 C214.001291,54.2909604 214.185818,54.281075 214.352773,54.261304 C214.519729,54.2415329 214.674599,54.2074834 214.81739,54.1591542 C214.960181,54.110825 215.096379,54.0482177 215.225989,53.9713304 C215.355599,53.8944431 215.486306,53.7988846 215.618113,53.684652 C215.670835,53.6407164 215.727951,53.60447 215.789461,53.5759119 C215.85097,53.5473537 215.914676,53.5330749 215.980579,53.5330749 L215.980579,53.5330749 Z M228.604015,56.0176211 L226.363311,56.0176211 L226.363311,46.4155419 L228.604015,46.4155419 L228.604015,56.0176211 Z M240.588191,54.2382379 L244.146958,54.2382379 L244.146958,56.0176211 L238.360667,56.0176211 L238.360667,46.4155419 L240.588191,46.4155419 L240.588191,54.2382379 Z M258.530006,48.3662731 C258.464103,48.4717186 258.394905,48.5508015 258.322411,48.6035242 C258.249918,48.656247 258.156556,48.6826079 258.042323,48.6826079 C257.941271,48.6826079 257.832532,48.6507551 257.716103,48.5870485 C257.599674,48.5233418 257.467869,48.4519475 257.320684,48.3728634 C257.1735,48.2937793 257.005449,48.222385 256.816526,48.1586784 C256.627603,48.0949718 256.412321,48.0631189 256.170676,48.0631189 C255.753287,48.0631189 255.442448,48.1520872 255.238147,48.3300264 C255.033846,48.5079656 254.931698,48.7485095 254.931698,49.0516652 C254.931698,49.2449819 254.993207,49.4053444 255.116226,49.5327577 C255.239246,49.660171 255.400707,49.7700083 255.600614,49.8622731 C255.800521,49.9545379 256.028983,50.0391127 256.286006,50.116 C256.543029,50.1928873 256.805541,50.2785605 257.073548,50.373022 C257.341555,50.4674836 257.604066,50.5784193 257.86109,50.7058326 C258.118113,50.8332459 258.346575,50.9958052 258.546482,51.1935154 C258.746389,51.3912257 258.90785,51.6317695 259.030869,51.9151542 C259.153889,52.1985389 259.215398,52.5401331 259.215398,52.9399471 C259.215398,53.3836968 259.138512,53.7988821 258.984737,54.1855154 C258.830963,54.5721488 258.607993,54.9093495 258.315821,55.1971278 C258.023649,55.484906 257.663383,55.711171 257.23501,55.8759295 C256.806638,56.040688 256.320059,56.1230661 255.775257,56.1230661 C255.476495,56.1230661 255.172245,56.0923116 254.862499,56.0308018 C254.552753,55.9692919 254.252897,55.8825204 253.962922,55.7704846 C253.672947,55.6584488 253.400551,55.5255456 253.145724,55.3717709 C252.890898,55.2179963 252.669026,55.04665 252.480103,54.8577269 L253.139134,53.8164581 C253.187463,53.7373741 253.255562,53.6736684 253.343433,53.6253392 C253.431305,53.57701 253.525765,53.5528458 253.626817,53.5528458 C253.758623,53.5528458 253.891527,53.594584 254.02553,53.6780617 C254.159534,53.7615393 254.311109,53.8538027 254.480262,53.9548546 C254.649414,54.0559065 254.843826,54.1481699 255.063504,54.2316476 C255.283182,54.3151252 255.542398,54.3568634 255.84116,54.3568634 C256.245368,54.3568634 256.559503,54.2678952 256.783574,54.0899559 C257.007646,53.9120167 257.11968,53.6297347 257.11968,53.2431013 C257.11968,53.0190297 257.058171,52.8366997 256.935151,52.6961057 C256.812132,52.5555118 256.650671,52.4390842 256.450764,52.3468194 C256.250857,52.2545546 256.023493,52.1732749 255.768667,52.102978 C255.51384,52.032681 255.252427,51.9546965 254.98442,51.869022 C254.716413,51.7833476 254.455,51.6779037 254.200173,51.5526872 C253.945347,51.4274707 253.717984,51.2627147 253.518077,51.0584141 C253.31817,50.8541135 253.156709,50.5992908 253.033689,50.2939383 C252.910669,49.9885858 252.84916,49.6118437 252.84916,49.1637004 C252.84916,48.8034284 252.921653,48.4519489 253.06664,48.1092511 C253.211628,47.7665534 253.424712,47.4612055 253.7059,47.1931982 C253.987088,46.925191 254.331978,46.7110081 254.740579,46.5506432 C255.14918,46.3902782 255.617087,46.3100969 256.144314,46.3100969 C256.438683,46.3100969 256.725359,46.3331628 257.00435,46.3792952 C257.283341,46.4254275 257.548049,46.4935267 257.798482,46.5835947 C258.048915,46.6736627 258.282868,46.7813033 258.50035,46.9065198 C258.717831,47.0317363 258.912243,47.1734265 259.083592,47.3315947 L258.530006,48.3662731 Z" id="For-Councils" fill="#7C7977"></path>
    </g>
</svg>
