<svg width="868" height="227" viewBox="0 0 868 227" xmlns="http://www.w3.org/2000/svg"><title>Group Copy</title><g fill="none" fill-rule="evenodd"><path d="M114.43 203.25c-16.066 0-31.148-4.185-44.242-11.48l40.8-41.678c.197-.186.328-.43.51-.626 3.32.83 6.728 1.39 10.292 1.39 23.903.063 43.325-19.1 43.398-42.804.027-3.782-.618-7.396-1.54-10.923l-22.794 22.485-25.198-5.407-5.307-25.042 22.845-22.5c-3.564-.986-7.26-1.68-11.146-1.685-23.895-.053-43.33 19.064-43.404 42.795-.018 5.04 1.004 9.793 2.597 14.287L39.875 164.29c-10.034-14.452-15.93-31.944-15.93-50.79 0-49.49 40.596-89.75 90.486-89.75 49.895 0 90.483 40.26 90.483 89.75 0 49.5-40.588 89.75-90.482 89.75m0-203.25C51.335 0 0 50.92 0 113.495 0 176.08 51.334 227 114.43 227c63.09 0 114.418-50.92 114.418-113.505C228.848 50.92 177.518 0 114.43 0" fill="#FED876"/><path d="M311.135 42.185v8.69h-37.84V78.43h32.34v8.69h-32.34V121H262.57V42.185h48.565zm23.045 23.1V121h-9.79V65.285h9.79zm2.2-17.49c0 .953-.192 1.842-.577 2.667-.386.826-.9 1.56-1.54 2.2-.642.642-1.385 1.146-2.228 1.513-.843.367-1.742.55-2.695.55-.953 0-1.842-.183-2.667-.55-.826-.367-1.56-.87-2.2-1.512-.642-.642-1.146-1.375-1.513-2.2-.367-.826-.55-1.715-.55-2.668 0-.953.183-1.86.55-2.723.367-.86.87-1.613 1.513-2.255.64-.64 1.374-1.145 2.2-1.512.825-.367 1.714-.55 2.667-.55.953 0 1.852.183 2.695.55.843.367 1.586.87 2.227 1.513.642.64 1.155 1.393 1.54 2.255.386.86.578 1.77.578 2.722zm28.105 44.66l-18.755-27.17h9.405c.807 0 1.393.128 1.76.385s.697.623.99 1.1l13.64 20.9c.33-1.027.807-2.053 1.43-3.08l11.99-17.6c.367-.513.733-.926 1.1-1.237.367-.312.825-.468 1.375-.468h9.02l-18.755 26.62L397.21 121h-9.405c-.807 0-1.44-.21-1.897-.632-.46-.422-.835-.89-1.128-1.403L370.755 97.13c-.257 1.063-.642 2.017-1.155 2.86l-12.98 18.975c-.367.513-.76.98-1.183 1.403-.42.42-1 .632-1.732.632h-8.745l19.525-28.545zm82.72.055c.513.88.962 1.806 1.348 2.777.385.972.76 1.953 1.127 2.943.367-1.027.752-2.007 1.155-2.943.403-.935.862-1.88 1.375-2.832L478.885 44c.477-.843.972-1.357 1.485-1.54.513-.183 1.247-.275 2.2-.275h7.865V121h-9.35V63.085c0-.77.018-1.595.055-2.475.037-.88.092-1.778.165-2.695l-27.005 49.28c-.917 1.65-2.2 2.475-3.85 2.475h-1.54c-1.65 0-2.933-.825-3.85-2.475L417.45 57.75c.11.953.192 1.888.248 2.805.055.917.082 1.76.082 2.53V121h-9.35V42.185h7.865c.953 0 1.687.092 2.2.275.513.183 1.008.697 1.485 1.54l27.225 48.51zm77.22 44.935c-.33.733-.742 1.32-1.237 1.76-.496.44-1.256.66-2.283.66h-7.26l10.175-22.11-22.99-52.47h8.47c.843 0 1.503.21 1.98.633.477.42.825.89 1.045 1.402l14.905 35.09c.33.807.614 1.613.852 2.42.24.807.45 1.632.633 2.475.257-.843.513-1.668.77-2.475.257-.807.55-1.632.88-2.475L544.83 67.32c.22-.587.596-1.072 1.127-1.457.532-.386 1.11-.578 1.733-.578h7.81l-31.075 72.16z" fill="#9E9A98"/><path d="M851.73 121.88c-2.713 0-5.106-.394-7.178-1.182-2.07-.79-3.813-1.907-5.225-3.355-1.41-1.45-2.484-3.2-3.217-5.253-.733-2.053-1.1-4.345-1.1-6.875v-29.48h-4.84c-.88 0-1.632-.284-2.255-.853-.623-.568-.935-1.402-.935-2.502v-6.655l9.075-1.76 3.355-13.915c.44-1.76 1.687-2.64 3.74-2.64h8.91v16.665h13.86v11.66h-13.86v28.325c0 1.32.32 2.41.963 3.272.64.862 1.567 1.293 2.777 1.293.623 0 1.146-.064 1.567-.192.422-.13.79-.275 1.1-.44.312-.166.605-.312.88-.44.276-.13.596-.193.963-.193.513 0 .926.12 1.238.358.31.238.632.614.962 1.127l5.17 8.085c-2.2 1.65-4.675 2.887-7.425 3.712-2.75.826-5.592 1.238-8.525 1.238zM607.64 57.145c-.55.88-1.127 1.54-1.732 1.98-.606.44-1.385.66-2.338.66-.843 0-1.75-.266-2.723-.797-.97-.532-2.07-1.128-3.3-1.788-1.228-.66-2.63-1.256-4.207-1.788-1.577-.53-3.373-.797-5.39-.797-3.483 0-6.077.742-7.783 2.227-1.705 1.486-2.557 3.493-2.557 6.023 0 1.613.513 2.952 1.54 4.015 1.027 1.063 2.374 1.98 4.043 2.75 1.668.77 3.574 1.476 5.72 2.118 2.145.64 4.335 1.356 6.572 2.144 2.237.79 4.427 1.715 6.572 2.778 2.146 1.063 4.052 2.42 5.72 4.07 1.67 1.65 3.016 3.657 4.043 6.023 1.027 2.365 1.54 5.215 1.54 8.552 0 3.703-.642 7.168-1.925 10.395-1.283 3.227-3.144 6.04-5.582 8.443-2.44 2.4-5.445 4.29-9.02 5.664-3.576 1.376-7.636 2.063-12.183 2.063-2.493 0-5.032-.257-7.617-.77-2.586-.513-5.088-1.237-7.508-2.172-2.42-.936-4.693-2.045-6.82-3.328-2.127-1.283-3.978-2.713-5.555-4.29l5.5-8.69c.403-.66.972-1.192 1.705-1.595.733-.403 1.522-.605 2.365-.605 1.1 0 2.21.348 3.327 1.045 1.12.697 2.384 1.467 3.795 2.31 1.412.843 3.035 1.613 4.868 2.31 1.833.697 3.997 1.045 6.49 1.045 3.373 0 5.995-.742 7.865-2.228 1.87-1.485 2.805-3.84 2.805-7.067 0-1.87-.513-3.392-1.54-4.565-1.027-1.173-2.374-2.145-4.043-2.915-1.668-.77-3.565-1.448-5.692-2.035-2.127-.587-4.308-1.237-6.545-1.953-2.237-.715-4.418-1.594-6.545-2.64-2.127-1.045-4.024-2.42-5.692-4.124-1.67-1.706-3.016-3.832-4.043-6.38-1.027-2.55-1.54-5.693-1.54-9.433 0-3.007.605-5.94 1.815-8.8 1.21-2.86 2.988-5.408 5.335-7.645 2.347-2.237 5.225-4.024 8.635-5.362 3.41-1.34 7.315-2.008 11.715-2.008 2.457 0 4.85.192 7.178.578 2.328.385 4.537.953 6.627 1.704 2.09.752 4.042 1.65 5.858 2.695 1.815 1.046 3.437 2.228 4.867 3.548l-4.62 8.635zM642.62 121.88c-2.713 0-5.106-.394-7.178-1.182-2.07-.79-3.813-1.907-5.225-3.355-1.41-1.45-2.484-3.2-3.217-5.253-.733-2.053-1.1-4.345-1.1-6.875v-29.48h-4.84c-.88 0-1.632-.284-2.255-.853-.623-.568-.935-1.402-.935-2.502v-6.655l9.075-1.76L630.3 50.05c.44-1.76 1.687-2.64 3.74-2.64h8.91v16.665h13.86v11.66h-13.86v28.325c0 1.32.32 2.41.962 3.272.642.862 1.568 1.293 2.778 1.293.623 0 1.146-.064 1.567-.192.422-.13.79-.275 1.1-.44.312-.166.605-.312.88-.44.276-.13.596-.193.963-.193.513 0 .926.12 1.237.358.312.238.633.614.963 1.127l5.17 8.085c-2.2 1.65-4.675 2.887-7.425 3.712-2.75.826-5.592 1.238-8.525 1.238zM666.6 121V63.965h10.12c.843 0 1.55.073 2.117.22.57.147 1.045.376 1.43.688.386.31.68.724.88 1.237.202.513.376 1.137.523 1.87l.935 5.335c2.09-3.227 4.437-5.775 7.04-7.645 2.603-1.87 5.445-2.805 8.525-2.805 2.603 0 4.693.623 6.27 1.87l-2.2 12.54c-.147.77-.44 1.31-.88 1.622-.44.312-1.027.468-1.76.468-.623 0-1.357-.082-2.2-.247-.843-.166-1.907-.248-3.19-.248-4.473 0-7.993 2.383-10.56 7.15V121H666.6zM736.45 63.085c3.777 0 7.232.587 10.367 1.76 3.136 1.173 5.83 2.878 8.086 5.115 2.255 2.237 4.014 4.977 5.28 8.223 1.265 3.245 1.897 6.92 1.897 11.027 0 1.283-.055 2.328-.165 3.135-.11.807-.312 1.448-.605 1.925-.293.477-.687.807-1.182.99-.496.183-1.128.275-1.898.275h-32.89c.55 4.767 1.998 8.222 4.345 10.368 2.347 2.145 5.372 3.217 9.075 3.217 1.98 0 3.685-.238 5.115-.715 1.43-.477 2.704-1.008 3.822-1.595 1.12-.587 2.145-1.118 3.08-1.595.936-.477 1.916-.715 2.943-.715 1.357 0 2.383.495 3.08 1.485l4.95 6.105c-1.76 2.017-3.657 3.657-5.692 4.922-2.036 1.266-4.125 2.255-6.27 2.97-2.146.716-4.29 1.21-6.436 1.486-2.145.275-4.19.412-6.132.412-3.997 0-7.746-.65-11.248-1.953-3.5-1.3-6.563-3.235-9.184-5.802-2.622-2.567-4.694-5.757-6.216-9.57-1.52-3.813-2.282-8.25-2.282-13.31 0-3.813.65-7.425 1.952-10.835 1.302-3.41 3.172-6.398 5.61-8.965 2.44-2.567 5.39-4.602 8.856-6.105 3.465-1.503 7.38-2.255 11.742-2.255zm.33 11.77c-3.263 0-5.812.926-7.645 2.777-1.833 1.852-3.043 4.52-3.63 8.003h21.285c0-1.357-.174-2.677-.522-3.96-.35-1.283-.917-2.43-1.706-3.438-.788-1.008-1.824-1.824-3.107-2.447-1.283-.623-2.842-.935-4.675-.935zM796.29 63.085c3.777 0 7.232.587 10.368 1.76 3.135 1.173 5.83 2.878 8.084 5.115 2.256 2.237 4.015 4.977 5.28 8.223 1.266 3.245 1.898 6.92 1.898 11.027 0 1.283-.055 2.328-.165 3.135-.11.807-.312 1.448-.605 1.925-.293.477-.687.807-1.183.99-.495.183-1.127.275-1.897.275h-32.89c.55 4.767 1.998 8.222 4.345 10.368 2.347 2.145 5.372 3.217 9.075 3.217 1.98 0 3.685-.238 5.115-.715 1.43-.477 2.704-1.008 3.822-1.595 1.12-.587 2.145-1.118 3.08-1.595.936-.477 1.916-.715 2.943-.715 1.357 0 2.383.495 3.08 1.485l4.95 6.105c-1.76 2.017-3.657 3.657-5.692 4.922-2.036 1.266-4.125 2.255-6.27 2.97-2.146.716-4.29 1.21-6.436 1.486-2.145.275-4.19.412-6.132.412-3.997 0-7.746-.65-11.247-1.953-3.502-1.3-6.564-3.235-9.185-5.802-2.622-2.567-4.694-5.757-6.216-9.57-1.52-3.813-2.282-8.25-2.282-13.31 0-3.813.65-7.425 1.952-10.835 1.302-3.41 3.172-6.398 5.61-8.965 2.44-2.567 5.39-4.602 8.856-6.105 3.465-1.503 7.38-2.255 11.742-2.255zm.33 11.77c-3.263 0-5.812.926-7.645 2.777-1.833 1.852-3.043 4.52-3.63 8.003h21.285c0-1.357-.174-2.677-.523-3.96-.348-1.283-.916-2.43-1.704-3.438-.79-1.008-1.825-1.824-3.108-2.447-1.283-.623-2.842-.935-4.675-.935z" fill="#3B3F44"/><path d="M266.847 176.53V187h-7.267v-31.326h11.05c2.208 0 4.104.262 5.688.785 1.584.522 2.888 1.243 3.913 2.16 1.026.917 1.782 2 2.27 3.246.486 1.248.73 2.595.73 4.042 0 1.563-.25 2.996-.752 4.3-.502 1.305-1.27 2.423-2.3 3.355-1.033.93-2.34 1.66-3.925 2.182-1.584.523-3.458.785-5.622.785h-3.783zm0-5.483h3.784c1.893 0 3.255-.45 4.086-1.355.83-.903 1.247-2.164 1.247-3.784 0-.716-.107-1.368-.323-1.956-.215-.588-.54-1.093-.978-1.516-.437-.423-.99-.75-1.655-.978-.667-.23-1.46-.344-2.376-.344h-3.783v9.933zm54.064 4.364V187h-7.266v-31.326h10.19c2.266 0 4.197.233 5.795.7 1.597.465 2.902 1.114 3.912 1.945 1.01.83 1.745 1.812 2.204 2.945.46 1.132.688 2.364.688 3.698 0 1.017-.136 1.977-.41 2.88-.27.904-.676 1.738-1.213 2.505-.537.767-1.196 1.45-1.977 2.053-.78.604-1.68 1.098-2.7 1.485.49.244.944.545 1.367.903.423.358.792.795 1.107 1.31L339.272 187h-6.58c-1.217 0-2.092-.46-2.622-1.376l-5.203-9.094c-.23-.402-.498-.688-.806-.86-.307-.173-.74-.258-1.3-.258h-1.85zm0-5.008h2.925c.99 0 1.83-.125 2.526-.376.696-.25 1.266-.6 1.71-1.043.445-.444.767-.964.968-1.56.2-.594.3-1.235.3-1.923 0-1.376-.447-2.45-1.343-3.225-.896-.774-2.282-1.16-4.16-1.16h-2.924v9.287zm77.8.925c0 2.264-.39 4.37-1.17 6.32-.782 1.95-1.882 3.645-3.3 5.085-1.42 1.44-3.13 2.57-5.13 3.387-1.998.816-4.216 1.224-6.653 1.224-2.437 0-4.658-.408-6.665-1.225-2.007-.82-3.723-1.947-5.15-3.388-1.425-1.44-2.53-3.135-3.31-5.084-.78-1.95-1.172-4.057-1.172-6.32 0-2.266.39-4.373 1.172-6.322.78-1.95 1.885-3.64 3.31-5.075 1.427-1.432 3.143-2.557 5.15-3.374 2.007-.817 4.228-1.226 6.665-1.226 2.437 0 4.655.413 6.654 1.237 2 .824 3.71 1.953 5.13 3.386 1.418 1.433 2.518 3.125 3.3 5.074.78 1.95 1.17 4.05 1.17 6.3zm-7.438 0c0-1.55-.2-2.942-.602-4.182-.4-1.24-.978-2.29-1.73-3.15-.753-.86-1.674-1.52-2.764-1.978-1.09-.46-2.33-.688-3.72-.688-1.404 0-2.654.228-3.75.687-1.097.46-2.022 1.118-2.774 1.978-.753.86-1.33 1.91-1.73 3.15-.402 1.24-.603 2.633-.603 4.181 0 1.563.2 2.964.6 4.204.402 1.24.98 2.29 1.732 3.15.752.86 1.677 1.515 2.773 1.967 1.097.45 2.347.677 3.752.677 1.39 0 2.63-.226 3.72-.677 1.09-.452 2.01-1.107 2.762-1.968.752-.86 1.33-1.91 1.73-3.15.4-1.24.602-2.64.602-4.203zm57.72-15.653v5.59h-12.858v7.934h10.707v5.612h-10.706V187h-7.31v-31.326h20.167zm50.58 0v5.59h-12.857v7.31h9.847v5.375h-9.847v7.46h12.857V187h-20.167v-31.326h20.167zm48.216 6.364c-.215.345-.44.602-.677.774-.236.173-.54.258-.913.258-.33 0-.684-.103-1.064-.31-.38-.21-.81-.442-1.29-.7-.48-.258-1.03-.49-1.645-.7-.616-.207-1.32-.31-2.107-.31-1.36 0-2.375.29-3.04.87-.668.58-1 1.365-1 2.355 0 .63.2 1.153.6 1.57.402.415.93.773 1.58 1.074.653.3 1.4.576 2.237.827.84.25 1.695.53 2.57.838.874.308 1.73.67 2.57 1.086.837.417 1.583.947 2.235 1.592.652.645 1.18 1.43 1.58 2.354.4.925.602 2.04.602 3.343 0 1.447-.25 2.802-.753 4.063-.5 1.26-1.228 2.36-2.18 3.3-.954.94-2.13 1.677-3.527 2.215-1.397.537-2.985.806-4.762.806-.974 0-1.966-.1-2.977-.3-1.01-.202-1.988-.485-2.935-.85-.946-.366-1.834-.8-2.666-1.3-.83-.503-1.555-1.062-2.17-1.678l2.15-3.397c.157-.26.38-.467.665-.624.287-.158.595-.237.925-.237.43 0 .864.135 1.3.407.438.273.932.574 1.484.904.552.33 1.186.63 1.903.903.716.273 1.56.41 2.536.41 1.32 0 2.343-.29 3.074-.872.73-.58 1.097-1.5 1.097-2.762 0-.73-.2-1.325-.602-1.784-.4-.46-.928-.838-1.58-1.14-.652-.3-1.394-.566-2.226-.795-.832-.23-1.685-.485-2.56-.764-.873-.28-1.726-.624-2.558-1.032-.83-.41-1.573-.946-2.225-1.613-.652-.665-1.18-1.497-1.58-2.493-.4-.996-.602-2.225-.602-3.687 0-1.175.236-2.322.71-3.44.472-1.118 1.168-2.114 2.085-2.988.917-.875 2.042-1.574 3.375-2.097 1.334-.523 2.86-.785 4.58-.785.96 0 1.896.076 2.806.226.91.15 1.774.373 2.59.667.818.294 1.582.645 2.29 1.053.71.41 1.345.87 1.904 1.387l-1.806 3.375zm49.936 0c-.215.345-.44.602-.677.774-.237.173-.54.258-.914.258-.33 0-.684-.103-1.064-.31-.38-.21-.81-.442-1.29-.7-.48-.258-1.03-.49-1.646-.7-.616-.207-1.32-.31-2.107-.31-1.362 0-2.376.29-3.042.87-.667.58-1 1.365-1 2.355 0 .63.2 1.153.602 1.57.4.415.928.773 1.58 1.074.652.3 1.398.576 2.236.827.84.25 1.695.53 2.57.838.874.308 1.73.67 2.57 1.086.837.417 1.583.947 2.235 1.592.652.645 1.18 1.43 1.58 2.354.4.925.602 2.04.602 3.343 0 1.447-.25 2.802-.753 4.063-.5 1.26-1.23 2.36-2.182 3.3-.953.94-2.128 1.677-3.526 2.215-1.398.537-2.986.806-4.763.806-.975 0-1.967-.1-2.978-.3-1.01-.202-1.99-.485-2.936-.85-.946-.366-1.834-.8-2.666-1.3-.83-.503-1.555-1.062-2.17-1.678l2.15-3.397c.157-.26.38-.467.665-.624.287-.158.595-.237.925-.237.43 0 .864.135 1.3.407.438.273.932.574 1.484.904.552.33 1.186.63 1.903.903.717.273 1.562.41 2.537.41 1.32 0 2.343-.29 3.074-.872.73-.58 1.097-1.5 1.097-2.762 0-.73-.2-1.325-.602-1.784-.4-.46-.927-.838-1.58-1.14-.65-.3-1.393-.566-2.225-.795-.83-.23-1.684-.485-2.558-.764-.874-.28-1.727-.624-2.56-1.032-.83-.41-1.572-.946-2.224-1.613-.652-.665-1.18-1.497-1.58-2.493-.4-.996-.602-2.225-.602-3.687 0-1.175.237-2.322.71-3.44.473-1.118 1.17-2.114 2.086-2.988.917-.875 2.042-1.574 3.375-2.097 1.335-.523 2.86-.785 4.58-.785.96 0 1.897.076 2.807.226.91.15 1.773.373 2.59.667.817.294 1.58.645 2.29 1.053.71.41 1.344.87 1.903 1.387l-1.806 3.375zM638.157 187h-7.31v-31.326h7.31V187zm63.352-15.673c0 2.264-.392 4.37-1.173 6.32-.78 1.95-1.88 3.645-3.3 5.085s-3.128 2.57-5.128 3.387c-2 .816-4.218 1.224-6.655 1.224-2.437 0-4.658-.408-6.665-1.225-2.007-.82-3.723-1.947-5.15-3.388-1.425-1.44-2.53-3.135-3.31-5.084-.78-1.95-1.172-4.057-1.172-6.32 0-2.266.39-4.373 1.172-6.322.78-1.95 1.885-3.64 3.31-5.075 1.427-1.432 3.143-2.557 5.15-3.374 2.007-.817 4.228-1.226 6.665-1.226 2.437 0 4.655.413 6.654 1.237 2 .824 3.708 1.953 5.127 3.386 1.42 1.433 2.52 3.125 3.3 5.074.78 1.95 1.172 4.05 1.172 6.3zm-7.44 0c0-1.55-.2-2.942-.602-4.182-.4-1.24-.978-2.29-1.73-3.15-.753-.86-1.674-1.52-2.764-1.978-1.09-.46-2.33-.688-3.72-.688-1.404 0-2.654.228-3.75.687-1.097.46-2.022 1.118-2.774 1.978-.753.86-1.33 1.91-1.73 3.15-.402 1.24-.603 2.633-.603 4.181 0 1.563.2 2.964.602 4.204.4 1.24.977 2.29 1.73 3.15.752.86 1.677 1.515 2.773 1.967 1.097.45 2.347.677 3.752.677 1.39 0 2.63-.226 3.72-.677 1.09-.452 2.01-1.107 2.762-1.968.753-.86 1.33-1.91 1.73-3.15.402-1.24.603-2.64.603-4.203zm41.38-15.653c.314 0 .58.015.794.043.215.03.41.083.58.162.173.078.338.19.495.332.157.143.336.337.537.58l14.878 18.813c-.057-.602-.1-1.186-.13-1.752-.028-.566-.042-1.1-.042-1.602v-16.576h6.407V187h-3.784c-.56 0-1.032-.086-1.42-.258-.386-.172-.76-.487-1.117-.946l-14.772-18.662c.043.545.08 1.08.108 1.602.03.523.043 1.014.043 1.472V187h-6.408v-31.326h3.827zM819.913 187h-5.633c-.63 0-1.15-.147-1.558-.44-.408-.295-.69-.67-.85-1.13l-1.848-5.46h-11.91l-1.85 5.46c-.143.402-.423.764-.84 1.086-.414.323-.923.484-1.525.484h-5.677l12.126-31.326h7.438L819.914 187zm-20.124-11.976h8.557l-2.88-8.578-.657-1.924c-.25-.738-.498-1.537-.742-2.397-.23.874-.465 1.684-.71 2.43-.243.744-.472 1.39-.687 1.934l-2.88 8.534zm56.558 6.17h11.61V187H849.08v-31.326h7.268v25.52z" fill="#7C7977"/></g></svg>