<svg width="72" height="72" viewBox="0 0 72 72" xmlns="http://www.w3.org/2000/svg"><title>inspection</title><g fill="#E65376" fill-rule="evenodd"><path d="M39.66 54.65l-2.232 2.2-4.06-4.01c-.323-.32-.742-.48-1.16-.48-.42 0-.84.16-1.16.48l-4.06 4.01-4.06-4.01c-.644-.63-1.677-.63-2.32 0l-3.904 3.86-2.4-2.38V15.3H39.66v1.6c1.168.42 2.276.96 3.3 1.63v-4.88c0-.91-.737-1.65-1.65-1.65H12.652c-.91 0-1.652.74-1.652 1.65v41.36c0 .45.178.87.492 1.18l4.05 4c.645.64 1.677.64 2.323 0l3.903-3.86 4.058 4.01c.645.64 1.678.64 2.322 0l4.06-4.01 4.06 4.01c.322.32.74.48 1.16.48.42 0 .838-.16 1.16-.48l3.884-3.83c.313-.31.49-.73.49-1.17v-9.95c-1.026.66-2.134 1.22-3.302 1.63v7.63"/><path d="M39.66 40.65c-1.558.97-3.39 1.53-5.36 1.54-3.436-.01-6.464-1.71-8.317-4.31h9.857c.91 0 1.65-.74 1.65-1.65 0-.91-.74-1.65-1.65-1.65H24.558c-.042 0-.082.01-.125.01-.225-.84-.358-1.72-.36-2.63.002-.93.138-1.82.37-2.68.04.01.075.02.115.02H35.84c.91 0 1.65-.74 1.65-1.65 0-.92-.74-1.66-1.65-1.66h-9.826c1.855-2.57 4.87-4.25 8.287-4.26 1.97.01 3.802.57 5.36 1.53 1.337.83 2.467 1.95 3.3 3.28.988 1.57 1.568 3.43 1.572 5.42-.004 1.99-.584 3.85-1.57 5.42-.835 1.33-1.965 2.45-3.302 3.27zm7.993-8.69c0-4.07-1.825-7.7-4.692-10.15-.985-.84-2.094-1.54-3.3-2.07-1.64-.72-3.452-1.13-5.36-1.13-3.378 0-6.455 1.27-8.806 3.34h-6.832c-.365 0-.66.29-.66.66 0 .36.295.66.66.66h5.522c-1.254 1.46-2.193 3.19-2.727 5.09h-2.795c-.365 0-.66.3-.66.66 0 .31.204.55.48.63.057.02.117.04.18.04h2.5c-.128.74-.208 1.49-.208 2.27 0 1.01.12 1.99.333 2.93h-2.625c-.025 0-.048.01-.074.01-.328.04-.586.31-.586.65 0 .36.295.66.66.66h2.994c.665 1.98 1.774 3.76 3.22 5.2h-6.214c-.365 0-.66.3-.66.66 0 .36.295.66.66.66h7.778c2.207 1.61 4.92 2.58 7.86 2.58 1.908 0 3.72-.41 5.36-1.13 1.206-.53 2.315-1.23 3.3-2.07 2.868-2.45 4.693-6.09 4.693-10.15zM59.687 51.88l-11.68-11.69-.04-.04c-1.236 2.06-2.916 3.82-4.92 5.14l.03.03L54.66 56.91c1.147 1.14 3.025 1.14 4.17-.01l.857-.85c1.148-1.15 1.148-3.03 0-4.17"/></g></svg>