<svg width="72" height="72" viewBox="0 0 72 72" xmlns="http://www.w3.org/2000/svg"><title>intelligent-routing</title><g fill="#E65376" fill-rule="evenodd"><path d="M31.97 61.13h7.047v-6.3H31.97M35.494 24.19c-2.43 0-4.397-1.91-4.397-4.26 0-2.35 1.968-4.25 4.397-4.25 2.43 0 4.397 1.9 4.397 4.25s-1.967 4.26-4.396 4.26zm0 11.89c-2.43 0-4.397-1.9-4.397-4.25s1.968-4.26 4.397-4.26c2.43 0 4.397 1.91 4.397 4.26 0 2.35-1.967 4.25-4.396 4.25zm0 11.9c-2.43 0-4.397-1.91-4.397-4.26 0-2.35 1.968-4.26 4.397-4.26 2.43 0 4.397 1.91 4.397 4.26 0 2.35-1.967 4.26-4.396 4.26zM54.23 25.19c0-.38-.31-.69-.693-.69-.045 0-.084.01-.126.02-.053-.01-.107-.02-.164-.02h-7.15l.237-5.63c4.694-1.22 7.898-3.94 7.898-7.17 0-.39-.31-.7-.693-.7-.045 0-.084.02-.126.03-.053-.02-.107-.03-.164-.03H17.694c-.086 0-.167.02-.244.05-.025.01-.046.02-.07.04-.05.02-.096.05-.138.09l-.06.06c-.038.04-.07.09-.097.14-.01.02-.026.04-.034.06 0 .01-.006.01-.008.02-.027.07-.038.15-.04.23 0 0-.002 0-.002.01 0 3.18 3.094 5.85 7.652 7.1l.24 5.7h-7.198c-.086 0-.167.02-.244.04-.025.01-.046.03-.07.04-.05.02-.096.05-.138.09l-.06.06c-.038.04-.07.09-.097.14-.01.02-.026.04-.034.06 0 .01-.006.02-.008.02-.027.08-.038.15-.04.23l-.002.01c0 3.31 3.35 6.09 8.228 7.26l.192 4.54h-7.032c-.085 0-.167.02-.244.05l-.07.03c-.05.03-.096.06-.14.1-.02.02-.04.03-.057.05-.04.05-.07.1-.098.15-.012.02-.026.04-.035.06-.003.01-.007.01-.01.02-.026.07-.038.15-.04.22v.01c0 3.28 3.275 6.03 8.06 7.22l.14 3.36c0 2.41 1.967 4.38 4.382 4.38H40.71c2.416 0 4.382-1.97 4.38-4.35l.14-3.33c4.92-1.16 8.307-3.94 8.307-7.28 0-.38-.31-.69-.695-.69-.044 0-.083.02-.126.03-.053-.02-.107-.03-.164-.03h-6.985l.19-4.49c5.007-1.14 8.474-3.94 8.474-7.31z"/></g></svg>