<svg width="72" height="72" viewBox="0 0 72 72" xmlns="http://www.w3.org/2000/svg"><title>integrated</title><path d="M54.917 19.475c-1.983 0-3.59-1.598-3.59-3.587 0-1.977 1.607-3.587 3.59-3.587 1.983 0 3.59 1.61 3.59 3.588 0 1.99-1.607 3.587-3.59 3.587zm-18.91 0c-1.983 0-3.59-1.598-3.59-3.587 0-1.977 1.607-3.587 3.59-3.587 1.982 0 3.588 1.61 3.588 3.588 0 1.99-1.606 3.587-3.588 3.587zm-18.91 0c-1.98 0-3.59-1.598-3.59-3.587 0-1.977 1.61-3.587 3.59-3.587 1.984 0 3.588 1.61 3.588 3.588 0 1.99-1.604 3.587-3.59 3.587zm18.91 25.203c4.21 0 7.63 3.433 7.63 7.636 0 4.214-3.42 7.635-7.63 7.635s-7.63-3.422-7.63-7.636c0-4.203 3.42-7.636 7.63-7.636zm-16.86-16.704c0 .9.274 1.468.82 1.682.55.224 1.187.33 1.916.33 1.26 0 2.414-.13 3.457-.39 1.044-.272 2.098-.402 3.158-.402 2.355 0 4.094.343 5.22 1.018 1.13.675 1.857 1.49 2.19 2.462h.2c.33-.97 1.062-1.787 2.186-2.462 1.128-.675 2.87-1.018 5.222-1.018 1.093 0 2.12.13 3.085.402.96.26 1.954.39 2.984.39.86 0 1.624-.106 2.286-.33.664-.214.997-.782.997-1.682 0-.532.115-1.04.346-1.527.232-.473.78-.722 1.64-.722.5 0 .906.12 1.22.355.312.237.555.52.722.876.164.356.28.734.347 1.15.066.4.1.792.1 1.135 0 1.292-.325 2.357-.97 3.21-.647.852-1.486 1.503-2.513 1.953-1.028.46-2.172.722-3.43.793-1.26.07-2.504-.024-3.73-.284-2.52-.533-4.54-.52-6.07.023-1.523.533-2.283 1.54-2.283 3.007 0 .675-.22 1.208-.65 1.598-.427.403-.96.592-1.59.592-.63 0-1.16-.19-1.59-.592-.432-.39-.647-.923-.647-1.598 0-1.468-.763-2.474-2.287-3.007-1.525-.544-3.55-.556-6.067-.023-1.23.26-2.472.355-3.732.284-1.258-.07-2.404-.332-3.43-.793-1.027-.45-1.866-1.1-2.512-1.954-.647-.853-.968-1.918-.968-3.21 0-.342.032-.733.096-1.135.068-.415.184-.793.35-1.15.166-.354.397-.638.698-.875.298-.236.694-.355 1.19-.355.897 0 1.46.25 1.692.722.233.486.347.995.347 1.527z" fill="#E95376" fill-rule="evenodd"/></svg>