<svg width="72" height="72" viewBox="0 0 72 72" xmlns="http://www.w3.org/2000/svg"><title>map-centric</title><g fill="#E65376" fill-rule="evenodd"><path d="M59.06 13.376l-10.12-2.333c-.363-.083-.745-.044-1.086.11L35.997 16.58l-10.91-4.55c-.406-.167-.86-.174-1.268-.015L12.08 16.59c-.652.253-1.08.88-1.08 1.58V50.38c0 .56.275 1.085.738 1.4.46.316 1.05.383 1.57.18l11.106-4.327 10.96 4.573c.21.085.432.13.654.13.24 0 .482-.052.706-.154l.88-.402-1.505-3.04-.113.05-10.91-4.55c-.208-.086-.43-.13-.653-.13-.208 0-.417.04-.615.115L14.39 47.9V19.33l10.024-3.908 10.96 4.572c.438.182.93.174 1.36-.023l12.007-5.493 8.244 1.9V45.11l-1.598-.367-.806 1.63c-.127.286-.266.567-.418.842l-.026.054-.295.596 4.46 1.027c.502.116 1.03-.004 1.435-.326.404-.32.64-.81.64-1.326V15.03c0-.79-.545-1.475-1.315-1.654"/><path d="M23.756 19.79v20.44c0 .376.304.68.678.68.374 0 .68-.304.68-.68V19.79c0-.375-.306-.68-.68-.68-.374 0-.678.305-.678.68M35.35 23.747v10.287c0 .375.304.678.678.678.374 0 .68-.303.68-.678V23.747c0-.375-.306-.68-.68-.68-.374 0-.68.305-.68.68M49.464 30.76V18.34c0-.375-.304-.68-.68-.68-.374 0-.677.305-.677.68V30.76c0 .375.303.68.678.68.375 0 .68-.305.68-.68M44.76 44.436c-1.862 0-3.372-1.51-3.372-3.37s1.51-3.37 3.37-3.37c1.863 0 3.37 1.51 3.37 3.37s-1.507 3.37-3.37 3.37zm0-10.402c-4.43 0-8.023 3.592-8.023 8.02 0 1.462.4 2.83 1.08 4.01h-.006l.767 1.548 6.18 12.49 6.366-12.863.582-1.175h-.008c.356-.615.63-1.283.816-1.984.17-.648.268-1.326.268-2.026 0-4.428-3.593-8.02-8.02-8.02z"/></g></svg>