<svg width="72" height="72" viewBox="0 0 72 72" xmlns="http://www.w3.org/2000/svg"><title>mobile-app</title><path d="M23.665 52.772H48.54V15.958H23.665v36.814zm12.438 8.418c-1.64 0-2.964-1.325-2.964-2.96 0-1.637 1.324-2.964 2.963-2.964 1.64 0 2.963 1.327 2.963 2.963 0 1.635-1.324 2.96-2.963 2.96zM25.243 8c-2.715 0-4.936 2.222-4.936 4.936v46.108c0 2.715 2.22 4.935 4.937 4.935H46.96c2.717 0 4.938-2.22 4.938-4.936V12.936c0-2.714-2.22-4.936-4.937-4.936H25.245zm5.585 36.968l6.928-7.077c.033-.03.056-.073.087-.106.563.14 1.142.236 1.747.236 2.03.006 3.87-.805 5.203-2.12 1.333-1.316 2.16-3.136 2.167-5.148.004-.642-.105-1.256-.262-1.855l-3.87 3.818-4.28-.918-.9-4.252 3.88-3.82c-.606-.168-1.234-.286-1.894-.287-4.057-.01-7.358 3.237-7.37 7.267-.003.855.17 1.663.44 2.426L25.68 40.3s5.148 4.675 5.148 4.668z" fill="#E65376" fill-rule="evenodd"/></svg>