<svg width="72" height="72" viewBox="0 0 72 72" xmlns="http://www.w3.org/2000/svg"><title>open-standards</title><path d="M29.087 50.594c.156-.008.34-.035.495-.103l5.21-2.31c.57.305 1.084.7 1.518 1.16l-6.193 2.764H27.5c-1.33 0-2.322-.162-2.953-.482-.506-.256-.746-.586-.766-1.063l5.307.034zm-7.927-4.572c0-.163.05-.35.142-.55.99.415 2.285.616 3.938.616h1.783c.17 0 .337-.037.492-.105l5.112-2.295c.796.244 1.515.714 2.146 1.4L28.8 47.73h-3.746c-1.39 0-2.425-.165-3.073-.49-.56-.298-.82-.685-.82-1.218zm9.616 10.584c-1.065 0-1.856-.172-2.352-.512-.36-.248-.57-.6-.63-1.068h2.654c.17 0 .336-.037.49-.106l4.776-2.132c.564.46 1.015.933 1.373 1.445l.006.008-5.244 2.366h-1.074zm7.67.107l1.698-.76c.303-.134.537-.39.645-.704.108-.316.08-.662-.076-.956-.588-1.11-1.306-2.05-2.142-2.81l.82-.386c.31-.144.54-.418.64-.746.097-.328.05-.682-.132-.973-.656-1.06-1.36-1.91-2.105-2.547.274-.14.486-.38.59-.67.113-.318.087-.666-.07-.964-.677-1.28-1.543-2.283-2.583-2.995.172-.142.303-.33.376-.546.104-.312.077-.65-.075-.94-1.527-2.915-3.872-4.39-6.97-4.39-.626 0-1.317.092-2.046.272-.67.153-1.41.402-2.322.78l-1.34.02c-.476.005-.904.292-1.09.73-.186.437-.096.944.23 1.29l.468.502c.24.256.582.4.93.38l1.294-.06c.138-.005.273-.033.4-.087.93-.38 1.645-.64 2.237-.817.643-.173 1.157-.263 1.525-.263 1.292 0 2.34.493 3.18 1.504l-5.874 2.65-2.113-.024c-1.322 0-2.405-.428-3.315-1.308-.907-.87-1.348-1.91-1.348-3.17 0-.84.268-2.065 2.574-2.976 1.872-.734 4.73-1.104 8.495-1.104h.632c.682-.024 1.208-.536 1.208-1.202 0-.076-.007-.153-.022-.227l-.005-.13c0-2.95-.982-6.08-2.922-9.298-.002-.006-.005-.013-.01-.02l-.46-.79c-.77-1.274-1.16-2.474-1.16-3.564 0-1.013.268-1.87.797-2.548.444-.567 1.088-1.034 1.922-1.397l1.28 5.947c.045.213.15.41.3.57l7.154 7.614c1.314 1.645 2.197 2.78 2.77 3.563 2.42 3.403 3.396 3.852 3.71 3.996.31.142 1.23.573 5.582.595.72 2.112 1.084 4.29 1.084 6.477 0 1.855-.328 3.803-.978 5.795h-4.295c-.373 0-.723.172-.95.466-1.906 2.458-4.2 4.423-7.21 6.178l-.93.04zm15.46-21.27c-.192-.435-.623-.714-1.097-.714h-3.83c-.858 0-1.493-.136-1.85-.4-.272-.197-.872-.804-2.194-2.595l-1.01-1.334c-1.283-1.706-1.98-2.606-2.445-3.146l-6.617-7.043-1.643-7.274c-.07-.314-.265-.588-.54-.758-.274-.17-.604-.22-.918-.144l-.383.094c-4.068.955-6.13 3.408-6.13 7.29 0 1.4.634 3.297 1.964 5.838l.565.98c.915 1.794 1.537 3.66 1.852 5.554h-.283c-3.626 0-6.598.63-8.845 1.88C18.178 34.98 17 36.754 17 38.938c0 1.754.6 3.313 1.832 4.754-.446.8-.67 1.582-.67 2.33 0 1.055.293 1.94.867 2.623.48.594 1.165 1.05 2.032 1.358-.02.253-.03.464-.03.635 0 2.39 1.333 3.837 3.866 4.206-.006.07-.008.133-.008.192 0 1.987 1.022 4.355 5.886 4.355h1.402c.19 0 .375-.042.544-.128l.977-.495c1.55.415 2.95.624 4.16.624.44 0 1.08-.034 1.962-.104.14-.013.277-.05.406-.108 2.863-1.328 5.56-3.41 8.012-6.187h4.732c.496 0 .94-.304 1.12-.765 1.09-2.797 1.64-5.618 1.64-8.387 0-2.853-.614-5.677-1.825-8.396z" fill="#E65376" fill-rule="evenodd"/></svg>