<?xml version="1.0" encoding="UTF-8" standalone="no"?>
<svg width="72px" height="72px" viewBox="0 0 72 72" version="1.1" xmlns="http://www.w3.org/2000/svg" xmlns:xlink="http://www.w3.org/1999/xlink">
    <!-- Generator: Sketch 39.1 (31720) - http://www.bohemiancoding.com/sketch -->
    <title>process</title>
    <desc>Created with Sketch.</desc>
    <defs></defs>
    <g id="Page-1" stroke="none" stroke-width="1" fill="none" fill-rule="evenodd">
        <g id="process" fill="#E65376">
            <path d="M57.5017327,51.8687555 L32.4937327,51.8687555 C31.5467327,51.8687555 30.7777327,52.6357555 30.7777327,53.5857555 C30.7777327,54.5327555 31.5467327,55.2997555 32.4937327,55.2997555 L57.5017327,55.2997555 C58.4487327,55.2997555 59.2177327,54.5327555 59.2177327,53.5857555 C59.2177327,52.6357555 58.4487327,51.8687555 57.5017327,51.8687555" id="Fill-210"></path>
            <path d="M57.5017327,35.1207555 L32.4937327,35.1207555 C31.5467327,35.1207555 30.7777327,35.8877555 30.7777327,36.8377555 C30.7777327,37.7847555 31.5467327,38.5517555 32.4937327,38.5517555 L57.5017327,38.5517555 C58.4487327,38.5517555 59.2177327,37.7847555 59.2177327,36.8377555 C59.2177327,35.8877555 58.4487327,35.1207555 57.5017327,35.1207555" id="Fill-211"></path>
            <path d="M32.4937327,21.8037555 L57.5017327,21.8037555 C58.4487327,21.8037555 59.2177327,21.0367555 59.2177327,20.0887555 C59.2177327,19.1397555 58.4487327,18.3727555 57.5017327,18.3727555 L32.4937327,18.3727555 C31.5467327,18.3727555 30.7777327,19.1397555 30.7777327,20.0887555 C30.7777327,21.0367555 31.5467327,21.8037555 32.4937327,21.8037555" id="Fill-212"></path>
            <path d="M16.7077327,40.2687555 L23.5697327,40.2687555 L23.5697327,33.4057555 L16.7077327,33.4057555 L16.7077327,40.2687555 Z M25.2857327,29.9737555 L14.9907327,29.9737555 C14.0437327,29.9737555 13.2757327,30.7417555 13.2757327,31.6887555 L13.2757327,41.9837555 C13.2757327,42.9307555 14.0437327,43.7007555 14.9907327,43.7007555 L25.2857327,43.7007555 C26.2327327,43.7007555 27.0017327,42.9307555 27.0017327,41.9837555 L27.0017327,31.6887555 C27.0017327,30.7417555 26.2327327,29.9737555 25.2857327,29.9737555 L25.2857327,29.9737555 Z" id="Fill-213"></path>
            <path d="M16.7077327,57.0147555 L23.5697327,57.0147555 L23.5697327,50.1537555 L16.7077327,50.1537555 L16.7077327,57.0147555 Z M25.2857327,46.7217555 L14.9907327,46.7217555 C14.0437327,46.7217555 13.2757327,47.4897555 13.2757327,48.4377555 L13.2757327,58.7317555 C13.2757327,59.6787555 14.0437327,60.4467555 14.9907327,60.4467555 L25.2857327,60.4467555 C26.2327327,60.4467555 27.0017327,59.6787555 27.0017327,58.7317555 L27.0017327,48.4377555 C27.0017327,47.4897555 26.2327327,46.7217555 25.2857327,46.7217555 L25.2857327,46.7217555 Z" id="Fill-214"></path>
            <path d="M28.9457327,12.3097555 C28.2307327,11.7967555 27.1567327,11.9367555 26.6137327,12.6127555 L18.5927327,22.5587555 L15.9537327,19.6047555 C15.3787327,18.9627555 14.2857327,18.8727555 13.6097327,19.4157555 C13.2567327,19.6987555 13.0427327,20.0967555 13.0057327,20.5407555 C12.9687327,20.9787555 13.1117327,21.4037555 13.4087327,21.7377555 L17.3857327,26.1907555 C17.7057327,26.5477555 18.1697327,26.7527555 18.6577327,26.7527555 C18.6627327,26.7527555 18.6937327,26.7527555 18.6987327,26.7517555 C19.2047327,26.7397555 19.6727327,26.5127555 19.9827327,26.1267555 L29.2657327,14.6187555 C29.5437327,14.2707555 29.6657327,13.8407555 29.6077327,13.4047555 C29.5477327,12.9637555 29.3127327,12.5757555 28.9457327,12.3097555" id="Fill-215"></path>
        </g>
    </g>
</svg>