<?xml version="1.0" encoding="UTF-8" standalone="no"?>
<svg width="72px" height="72px" viewBox="0 0 72 72" version="1.1" xmlns="http://www.w3.org/2000/svg" xmlns:xlink="http://www.w3.org/1999/xlink">
    <!-- Generator: Sketch 39.1 (31720) - http://www.bohemiancoding.com/sketch -->
    <title>reduce</title>
    <desc>Created with Sketch.</desc>
    <defs></defs>
    <g id="Page-1" stroke="none" stroke-width="1" fill="none" fill-rule="evenodd">
        <g id="reduce" fill="#E65376">
            <path d="M51.23725,39.0655 C51.17625,39.0185 50.60825,38.7225 50.41125,38.5975 C50.41125,38.5975 55.78325,33.4505 55.83225,33.5165 C55.83225,33.5165 56.78025,34.4605 57.06025,34.8505 L51.23725,39.0655 L51.23725,39.0655 Z M49.34425,50.0845 C48.91625,50.3725 48.38225,50.6635 47.72325,50.9455 C47.08825,51.2175 46.33625,51.4755 45.48925,51.7105 C43.61225,52.2315 41.23525,52.6285 38.37025,52.7345 C37.86425,52.7545 37.34025,52.7655 36.80125,52.7655 C36.72925,52.7655 36.66025,52.7625 36.58625,52.7625 C35.15125,52.7545 33.82625,52.6745 32.60825,52.5435 C32.36625,52.5165 32.12725,52.4885 31.89325,52.4575 C30.46525,52.2725 29.20425,52.0135 28.11425,51.7105 C27.26825,51.4755 26.51625,51.2175 25.88125,50.9455 C25.22225,50.6635 24.68625,50.3725 24.25925,50.0845 C23.50025,49.5705 23.09825,49.0725 23.09825,48.6785 C23.09825,48.2855 23.49825,47.7855 24.25825,47.2735 C25.49525,47.8515 26.95925,48.3215 28.56025,48.6805 C30.06725,49.0165 31.69625,49.2525 33.36925,49.3915 C33.86625,49.4305 34.36525,49.4615 34.86725,49.4845 C35.49825,49.5155 36.13625,49.5295 36.77225,49.5295 L36.80125,49.5295 C37.85125,49.5295 38.89925,49.4915 39.93425,49.4145 C40.03425,49.4075 40.13325,49.3985 40.23525,49.3915 C41.37625,49.2975 42.49825,49.1585 43.57425,48.9705 C44.07525,48.8835 44.56525,48.7855 45.04325,48.6805 C46.64625,48.3215 48.10825,47.8515 49.34625,47.2735 C50.10625,47.7855 50.50725,48.2855 50.50725,48.6785 C50.50725,49.0725 50.10625,49.5715 49.34425,50.0845 L49.34425,50.0845 Z M36.80125,58.8285 C34.60125,58.8285 32.64925,58.6615 30.95825,58.3905 C28.21725,57.9505 26.17025,57.2365 24.85125,56.5065 C23.71325,55.8795 23.11225,55.2405 23.10025,54.7565 C23.10025,54.7525 23.09825,54.7475 23.09825,54.7435 C23.09825,54.3505 23.50025,53.8495 24.26025,53.3365 C25.33425,53.8385 26.57725,54.2595 27.93425,54.5945 C28.42025,54.7135 28.91825,54.8225 29.42925,54.9205 C29.43825,54.9235 29.44825,54.9245 29.45725,54.9265 C30.85825,55.1955 32.34225,55.3835 33.86025,55.4885 C34.07525,55.5035 34.29225,55.5175 34.51025,55.5295 C35.27025,55.5715 36.03525,55.5925 36.80125,55.5925 C41.46125,55.5925 46.15625,54.8265 49.34425,53.3365 C50.10625,53.8495 50.50725,54.3505 50.50725,54.7435 C50.50725,56.1285 45.66925,58.8285 36.80125,58.8285 L36.80125,58.8285 Z M20.28525,42.3485 C20.28025,42.4375 20.27125,42.5255 20.27125,42.6175 L20.27125,46.9305 L15.26625,41.9255 L41.94625,15.2445 L55.52625,28.8255 L47.21325,37.1385 C44.23725,36.1885 40.51125,35.7035 36.80125,35.7035 C28.75025,35.7035 20.60825,37.9865 20.28525,42.3485 L20.28525,42.3485 Z M60.95625,34.2085 C60.91825,34.1545 59.48825,32.1765 58.51525,30.8335 L59.27425,30.0765 C59.96325,29.3855 59.96325,28.2665 59.27425,27.5765 L43.19625,11.4965 C42.53225,10.8345 41.35925,10.8345 40.69625,11.4965 L11.51825,40.6765 C10.82725,41.3665 10.82725,42.4855 11.51825,43.1755 L20.27125,51.9265 L20.27125,53.8805 L20.27125,54.7435 C20.27125,59.2815 28.58625,61.6545 36.80125,61.6545 C45.01725,61.6545 53.33425,59.2815 53.33425,54.7435 L53.33425,53.8805 L53.33425,41.9095 L60.56325,36.6785 C60.94325,36.4035 61.19825,35.9875 61.27025,35.5245 C61.34625,35.0615 61.23325,34.5875 60.95625,34.2085 L60.95625,34.2085 Z" id="Fill-505"></path>
        </g>
    </g>
</svg>