<svg width="72" height="72" viewBox="0 0 72 72" xmlns="http://www.w3.org/2000/svg"><title>responsive-web</title><g fill="#E65376" fill-rule="evenodd"><path d="M19.96 27.453c-.126-.12-.296-.18-.51-.18-.22 0-.402.06-.537.18-.133.118-.202.25-.202.4v3.115c0 .386.038.745.11 1.077.075.333.203.62.384.862.18.243.423.432.727.567.304.136.682.203 1.134.203.467 0 .85-.085 1.15-.252.3-.168.54-.396.722-.684.172.29.406.517.7.685.297.167.687.252 1.17.252.452 0 .828-.067 1.128-.203.3-.135.54-.324.72-.567.18-.24.308-.53.382-.862.075-.332.11-.69.11-1.077v-3.116c0-.148-.066-.28-.197-.4-.132-.12-.313-.178-.542-.178-.206 0-.373.06-.5.18-.128.117-.19.25-.19.398v3.165c0 .45-.082.784-.245.998-.165.215-.43.32-.79.32-.37 0-.632-.105-.788-.32-.155-.214-.235-.547-.235-.998V27.84c0-.18-.077-.32-.233-.42-.155-.096-.315-.146-.48-.146-.073 0-.153.014-.24.043-.087.03-.167.066-.24.11-.073.047-.136.1-.184.168-.05.064-.075.135-.075.208v3.214c0 .45-.078.784-.234.998-.156.215-.42.32-.787.32-.37 0-.637-.105-.795-.32-.16-.214-.24-.547-.24-.998v-3.165c0-.148-.065-.28-.19-.4M36.332 27.274c-.205 0-.372.06-.5.18-.125.117-.19.25-.19.398v3.165c0 .45-.08.784-.245.998-.164.215-.427.32-.788.32-.37 0-.633-.105-.79-.32-.155-.214-.234-.547-.234-.998V27.84c0-.18-.077-.32-.233-.42-.155-.096-.316-.146-.482-.146-.073 0-.15.014-.238.043-.086.03-.166.066-.24.11-.073.047-.135.1-.184.168-.05.064-.075.135-.075.208v3.214c0 .45-.077.784-.233.998-.156.215-.42.32-.787.32-.37 0-.635-.105-.796-.32-.16-.214-.24-.547-.24-.998v-3.165c0-.148-.064-.28-.19-.4-.13-.12-.298-.178-.512-.178-.222 0-.4.06-.535.18-.136.117-.204.25-.204.398v3.116c0 .386.037.745.11 1.077.074.333.202.62.382.862.182.243.424.432.727.567.304.136.68.203 1.134.203.466 0 .85-.085 1.15-.252.3-.168.54-.396.72-.684.173.29.408.517.702.685.295.167.686.252 1.17.252.45 0 .827-.067 1.127-.203.298-.135.538-.324.72-.567.18-.24.308-.53.382-.862.073-.332.11-.69.11-1.077v-3.116c0-.148-.067-.28-.2-.4-.128-.12-.31-.178-.54-.178M39.812 27.453c-.127-.12-.297-.18-.51-.18-.223 0-.4.06-.537.18-.135.118-.203.25-.203.4v3.115c0 .386.037.745.11 1.077.073.333.2.62.383.862.18.243.42.432.726.567.305.136.682.203 1.135.203.466 0 .85-.085 1.15-.252.3-.168.54-.396.72-.684.173.29.408.517.704.685.293.167.683.252 1.168.252.45 0 .827-.067 1.126-.203.3-.135.54-.324.72-.567.18-.24.31-.53.38-.862.077-.332.114-.69.114-1.077v-3.116c0-.148-.066-.28-.2-.4-.13-.12-.31-.178-.54-.178-.204 0-.372.06-.5.18-.126.117-.19.25-.19.398v3.165c0 .45-.08.784-.246.998-.164.215-.427.32-.788.32-.37 0-.63-.105-.788-.32-.155-.214-.233-.547-.233-.998V27.84c0-.18-.08-.32-.235-.42-.155-.096-.317-.146-.48-.146-.073 0-.153.014-.242.043-.085.03-.164.066-.237.11-.076.047-.137.1-.186.168-.05.064-.074.135-.074.208v3.214c0 .45-.08.784-.236.998-.154.215-.418.32-.786.32-.37 0-.634-.105-.794-.32-.16-.214-.242-.547-.242-.998v-3.165c0-.148-.06-.28-.19-.4M48.482 32.347c-.145.124-.216.264-.216.42v.307c0 .155.07.296.216.42.142.122.34.183.583.183.222 0 .406-.06.55-.184.14-.123.214-.264.214-.42v-.307c0-.155-.074-.295-.215-.42-.144-.122-.328-.183-.55-.183-.244 0-.44.06-.583.184M51.63 24.776v11.4c0 .276.225.5.5.5.278 0 .5-.224.5-.5v-11.4c0-.276-.222-.5-.5-.5-.275 0-.5.224-.5.5M46.248 48.754l2.656-.524c.185-.036.335-.175.385-.358.05-.182-.01-.377-.15-.504l-10.744-9.653c-.158-.143-.39-.168-.576-.065-.187.103-.287.313-.25.523l2.454 14.067c.03.184.163.334.34.39.174.056.374.01.505-.123l2.124-2.128 2.655 4.66c.068.122.183.208.32.24.037.01.075.013.113.013.1 0 .197-.03.28-.085l2.723-1.835c.114-.077.192-.197.214-.333.023-.135-.012-.274-.095-.383l-2.957-3.903M58.76 39.907H45.326l4.007 3.6h9.43c.993 0 1.8-.806 1.8-1.8s-.807-1.8-1.8-1.8"/><path d="M14.6 39.907V20.6h44.16c.995 0 1.8-.806 1.8-1.8s-.805-1.8-1.8-1.8H12.8c-.994 0-1.8.806-1.8 1.8v22.907c0 .994.806 1.8 1.8 1.8h22.655l-.628-3.6H14.6"/></g></svg>