<svg width="72" height="72" viewBox="0 0 72 72" xmlns="http://www.w3.org/2000/svg"><title>syncronised</title><g fill="#E65376" fill-rule="evenodd"><path d="M58.505 43.558l-9.476-6.89c-.314-.22-.73-.26-1.074-.08-.345.18-.562.53-.562.92v4.48h-30.99c-1.328 0-2.404 1.07-2.404 2.4 0 1.33 1.076 2.4 2.403 2.4h30.99v4.48c0 .39.218.74.563.92.148.07.308.11.468.11.213 0 .426-.06.605-.19l9.475-6.89c.266-.19.423-.5.423-.83 0-.33-.157-.64-.423-.83M14.425 28.748l9.476 6.88c.18.13.392.2.607.2.158 0 .318-.04.466-.11.345-.18.562-.53.562-.92v-4.48h30.99c1.33 0 2.403-1.08 2.403-2.41 0-1.32-1.074-2.4-2.402-2.4h-30.99v-4.48c0-.38-.218-.74-.563-.92-.344-.17-.76-.14-1.072.09l-9.475 6.88c-.267.2-.425.51-.425.83 0 .33.158.64.425.84"/></g></svg>