<svg width="2072" height="418" viewBox="0 0 2072 418" fill="none" xmlns="http://www.w3.org/2000/svg">
<g clip-path="url(#clip0_3_1767)">
<path d="M2072 336.16V208.739C2072 167.013 2043.62 145.403 1998.81 145.403C1986.18 145.147 1973.69 148.037 1962.46 153.812C1951.23 159.587 1941.61 168.066 1934.47 178.485L1933.67 177.738V150.472H1890.46V336.16H1936.02V226.668C1935.67 214.033 1940.36 201.778 1949.04 192.594C1957.72 183.41 1969.69 178.048 1982.32 177.685H1986.06C2012.73 177.685 2025.69 190.277 2026.44 219.411V336.16H2072ZM1862.51 253.987C1870.13 198.228 1830.12 145.403 1764.93 145.403C1703.32 145.403 1664.96 190.704 1664.96 243.582C1664.96 300.729 1701.34 341.389 1766.32 341.389C1811.45 341.389 1849.92 318.711 1859.84 278.105H1816.68C1808.73 298.542 1792.67 309 1766.32 309C1728.34 309 1710.68 283.121 1710.68 253.987H1862.51ZM1816.89 226.988H1710.52C1711.8 199.295 1733.35 177.738 1764.93 177.738C1778.32 177.506 1791.26 182.534 1800.98 191.744C1810.69 200.953 1816.41 213.608 1816.89 226.988V226.988ZM1594.44 336.16H1637.75V79.6116H1592.25V174.536H1591.45C1577.42 154.047 1548.77 145.403 1522.63 145.403C1477.5 145.403 1433.17 174.857 1433.17 242.088C1433.17 297.848 1464.7 341.389 1529.83 341.389C1555.87 341.389 1581.79 332.371 1593.85 311.188H1594.7V336.16H1594.44ZM1593.69 243.049C1593.69 275.384 1576.51 308.84 1535.76 308.84C1496.23 308.84 1478.62 277.198 1478.62 245.183C1478.62 211.781 1493.77 177.578 1536.56 177.578C1571.76 177.578 1593.69 202.07 1593.69 243.049ZM1362.75 336.16H1408.36V208.099C1408.36 162.744 1382.76 145.509 1339.01 145.509C1326.53 144.985 1314.11 147.493 1302.82 152.817C1291.52 158.142 1281.68 166.125 1274.14 176.084C1264.97 154.74 1241.39 145.189 1216.15 145.189C1183.4 145.189 1166.22 157.782 1152.56 176.084H1151.39V150.472H1108.29V336.16H1153.9V225.974C1153.9 195.026 1175.24 177.951 1199.03 177.951C1226.61 177.951 1235.41 191.665 1235.41 217.117V336.533H1281.02V227.415C1281.02 196.093 1294.2 177.738 1324.98 177.738C1360.56 177.738 1362.64 198.228 1362.64 227.735V336.16H1362.75ZM1048.32 341.495C1058.09 341.026 1067.77 339.451 1077.18 336.8V308.306C1073.47 308.83 1069.73 309.062 1065.98 309C1057.61 309 1055.31 305.105 1055.31 295.02V199.295C1055.31 160.13 1012.9 145.403 972.464 145.403C926.905 145.403 881.774 159.383 878.519 207.299H924.131C926.105 187.129 944.136 177.738 969.69 177.738C988.094 177.738 1012.37 181.687 1012.37 202.923C1012.37 226.988 983.186 223.786 950.378 229.176C912.021 233.178 870.838 240.701 870.838 287.07C870.838 323.407 904.393 341.389 941.576 341.389C965.955 341.389 994.923 334.505 1013.17 318.711C1016.74 335.626 1029.97 341.389 1048.32 341.389V341.495ZM1009.54 273.73C1009.54 299.662 978.439 309 958.433 309C942.429 309 916.396 303.664 916.396 285.309C916.396 263.965 934 257.189 953.739 254.308C973.477 251.426 995.723 251.48 1009.7 243.209V273.73H1009.54ZM651.368 211.354C651.368 163.331 676.281 116.056 735.869 116.056C776.36 116.056 797.005 137.079 805.221 165.786H853.927C848.218 112.054 798.606 80.7322 736.19 80.412C652.861 80.412 602.822 139.96 602.822 211.407C602.822 282.854 652.701 342.349 736.19 342.349C803.567 342.349 850.726 300.996 854.567 240.968H807.034C802.927 277.465 779.187 306.492 736.19 306.492C676.601 306.492 651.688 259.217 651.688 211.247L651.368 211.354ZM459.372 330.824L525.735 298.809V224.107C525.735 224.107 468.121 222.292 399.89 224.694C339.874 226.828 334.166 298.435 334.166 298.435H444.328C456.224 298.435 455.637 309.107 444.968 307.346C434.264 306.694 423.521 307.303 412.96 309.16C394.822 318.765 404.851 330.504 404.851 330.504L459.372 330.824ZM525.735 192.625V117.923L459.372 85.908H404.744C404.744 85.908 394.715 97.9136 412.853 107.251C423.409 109.152 434.156 109.779 444.861 109.119C455.531 107.251 456.117 118.083 444.221 118.083H334.006C334.006 118.083 339.714 189.69 399.73 191.771C467.96 194.172 525.575 192.358 525.575 192.358L525.735 192.625ZM354.438 74.7027H464.6C464.6 74.7027 458.785 3.30891 398.876 1.22792C330.752 -1.11985 273.03 0.64098 273.03 0.64098V75.343L339.394 107.358H393.861C393.861 107.358 403.891 95.4058 385.699 85.7479C375.139 83.8836 364.393 83.2924 353.691 83.987C343.022 85.7479 342.381 74.9694 354.331 74.9694L354.438 74.7027ZM252.385 416.464V341.762L186.021 309.747H131.661C131.661 309.747 121.631 321.753 139.769 331.357C150.33 333.223 161.076 333.814 171.778 333.118C182.447 331.357 182.98 342.136 171.137 342.136H60.9224C60.9224 342.136 66.6838 413.69 126.699 415.824C194.93 418.225 252.492 416.464 252.492 416.464H252.385ZM186.128 107.411L252.492 75.3963V0.694338C252.492 0.694338 194.93 -1.06649 126.699 1.28128C66.6838 3.36227 60.9224 74.9694 60.9224 74.9694H171.137C182.98 74.9694 182.394 85.6412 171.778 83.987C161.076 83.2909 150.33 83.882 139.769 85.7479C121.631 95.4058 131.661 107.358 131.661 107.358L186.128 107.411ZM66.3638 86.068L0 118.083V192.785C0 192.785 57.6148 194.599 125.792 192.198C185.808 190.117 191.569 118.51 191.569 118.51H81.4076C69.5112 118.51 70.098 107.838 80.7675 109.546C91.4732 110.206 102.219 109.579 112.776 107.678C130.967 98.1271 120.938 86.3348 120.938 86.3348L66.3638 86.068ZM0 224.107V298.809L66.3638 330.824H120.831C120.831 330.824 130.86 318.871 112.669 309.48C102.108 307.623 91.3644 307.014 80.6608 307.666C69.9914 309.48 69.3512 298.809 81.3009 298.809H191.463C191.463 298.809 185.701 227.255 125.686 225.12C57.5081 222.719 0 224.533 0 224.533V224.107ZM339.394 309.907L273.03 341.922V416.624C273.03 416.624 330.752 418.385 398.769 416.197C458.785 413.85 464.493 342.296 464.493 342.296H354.438C342.488 342.296 343.182 331.624 353.798 333.278C364.499 333.973 375.245 333.382 385.806 331.517C403.997 321.913 393.968 309.907 393.968 309.907H339.394Z" fill="white"/>
</g>
<defs>
<clipPath id="clip0_3_1767">
<rect width="2072" height="418" fill="white"/>
</clipPath>
</defs>
</svg>
