<svg fill="none" height="418" viewBox="0 0 2072 418" width="2072" xmlns="http://www.w3.org/2000/svg" xmlns:xlink="http://www.w3.org/1999/xlink"><clipPath id="a"><path d="m0 0h2072v418h-2072z"/></clipPath><g clip-path="url(#a)"><path d="m2072 336.16v-127.421c0-41.726-28.38-63.336-73.19-63.336-12.63-.256-25.12 2.634-36.35 8.409s-20.85 14.254-27.99 24.673l-.8-.747v-27.266h-43.21v185.688h45.56v-109.492c-.35-12.635 4.34-24.89 13.02-34.074s20.65-14.546 33.28-14.909h3.74c26.67 0 39.63 12.592 40.38 41.726v116.749zm-209.49-82.173c7.62-55.759-32.39-108.584-97.58-108.584-61.61 0-99.97 45.301-99.97 98.179 0 57.147 36.38 97.807 101.36 97.807 45.13 0 83.6-22.678 93.52-63.284h-43.16c-7.95 20.437-24.01 30.895-50.36 30.895-37.98 0-55.64-25.879-55.64-55.013zm-45.62-26.999h-106.37c1.28-27.693 22.83-49.25 54.41-49.25 13.39-.232 26.33 4.797 36.05 14.006 9.71 9.209 15.43 21.864 15.91 35.244zm-222.45 109.172h43.32v-256.5484h-45.51v94.9244h-.8c-14.03-20.489-42.68-29.133-68.82-29.133-45.13 0-89.46 29.454-89.46 96.685 0 55.76 31.53 99.301 96.66 99.301 26.04 0 51.96-9.018 64.02-30.201h.85v24.972zm-.75-93.111c0 32.335-17.18 65.791-57.93 65.791-39.53 0-57.14-31.642-57.14-63.657 0-33.402 15.15-67.605 57.94-67.605 35.2 0 57.13 24.492 57.13 65.471zm-230.94 93.111h45.61v-128.061c0-45.355-25.6-62.59-69.35-62.59-12.48-.524-24.9 1.984-36.19 7.308-11.3 5.325-21.14 13.308-28.68 23.267-9.17-21.344-32.75-30.895-57.99-30.895-32.75 0-49.93 12.593-63.59 30.895h-1.17v-25.612h-43.1v185.688h45.61v-110.186c0-30.948 21.34-48.023 45.13-48.023 27.58 0 36.38 13.714 36.38 39.166v119.416h45.61v-109.118c0-31.322 13.18-49.677 43.96-49.677 35.58 0 37.66 20.49 37.66 49.997v108.425zm-314.43 5.335c9.77-.469 19.45-2.044 28.86-4.695v-28.494c-3.71.524-7.45.756-11.2.694-8.37 0-10.67-3.895-10.67-13.98v-95.725c0-39.165-42.41-53.892-82.846-53.892-45.559 0-90.69 13.98-93.945 61.896h45.612c1.974-20.17 20.005-29.561 45.559-29.561 18.404 0 42.68 3.949 42.68 25.185 0 24.065-29.184 20.863-61.992 26.253-38.357 4.002-79.54 11.525-79.54 57.894 0 36.337 33.555 54.319 70.738 54.319 24.379 0 53.347-6.884 71.594-22.678 3.57 16.915 16.8 22.678 35.15 22.678zm-38.78-67.765c0 25.932-31.101 35.27-51.107 35.27-16.004 0-42.037-5.336-42.037-23.691 0-21.344 17.604-28.12 37.343-31.001 19.738-2.882 41.984-2.828 55.961-11.099v30.521zm-358.172-62.376c0-48.023 24.913-95.298 84.501-95.298 40.491 0 61.136 21.023 69.352 49.73h48.706c-5.709-53.732-55.321-85.0538-117.737-85.374-83.329 0-133.368 59.548-133.368 130.995s49.879 130.942 133.368 130.942c67.377 0 114.536-41.353 118.377-101.381h-47.533c-4.107 36.497-27.847 65.524-70.844 65.524-59.589 0-84.502-47.275-84.502-95.245zm-191.996 119.47 66.363-32.015v-74.702s-57.614-1.815-125.845.587c-60.016 2.134-65.724 73.741-65.724 73.741h110.162c11.896 0 11.309 10.672.64 8.911-10.704-.652-21.447-.043-32.008 1.814-18.138 9.605-8.109 21.344-8.109 21.344zm66.363-138.199v-74.702l-66.363-32.015h-54.628s-10.029 12.0056 8.109 21.343c10.556 1.901 21.303 2.528 32.008 1.868 10.67-1.868 11.256 8.964-.64 8.964h-110.215s5.708 71.607 65.724 73.688c68.23 2.401 125.845.587 125.845.587zm-171.297-117.9223h110.162s-5.815-71.39379-65.724-73.47478c-68.124-2.34777-125.846-.58694-125.846-.58694v74.70202l66.364 32.015h54.467s10.03-11.9522-8.162-21.6101c-10.56-1.8643-21.306-2.4555-32.008-1.7609-10.669 1.7609-11.31-9.0175.64-9.0175zm-102.053 341.7613v-74.702l-66.364-32.015h-54.36s-10.03 12.006 8.108 21.61c10.561 1.866 21.307 2.457 32.009 1.761 10.669-1.761 11.202 9.018-.641 9.018h-110.2146s5.7614 71.554 65.7766 73.688c68.231 2.401 125.793.64 125.793.64zm-66.257-309.053 66.364-32.0147v-74.701962s-57.562-1.760828-125.793.586942c-60.0152 2.08099-65.7766 73.68822-65.7766 73.68822h110.2146c11.843 0 11.257 10.6717.641 9.0175-10.702-.6961-21.448-.105-32.009 1.7609-18.138 9.6579-8.108 21.6101-8.108 21.6101zm-119.7643-21.343-66.3637 32.015v74.702s57.6148 1.814 125.792-.587c60.016-2.081 65.777-73.688 65.777-73.688h-110.1614c-11.8964 0-11.3096-10.672-.6401-8.964 10.7057.66 21.4515.033 32.0085-1.868 18.191-9.5509 8.162-21.3432 8.162-21.3432zm-66.3637 138.039v74.702l66.3637 32.015h54.4673s10.029-11.953-8.162-21.344c-10.561-1.857-21.3046-2.466-32.0082-1.814-10.6694 1.814-11.3096-8.857.6401-8.857h110.1621s-5.762-71.554-65.777-73.689c-68.1779-2.401-125.686-.587-125.686-.587zm339.394 85.8-66.364 32.015v74.702s57.722 1.761 125.739-.427c60.016-2.347 65.724-73.901 65.724-73.901h-110.055c-11.95 0-11.256-10.672-.64-9.018 10.701.695 21.447.104 32.008-1.761 18.191-9.604 8.162-21.61 8.162-21.61z" fill="#0b0c0c"/></g></svg>