<svg width="30" height="30" viewBox="0 0 30 30" xmlns="http://www.w3.org/2000/svg"><title>home-search</title><path d="M1.934 11.447c0-5.26 4.35-9.543 9.697-9.543 5.348 0 9.7 4.282 9.7 9.543 0 5.264-4.352 9.547-9.7 9.547-5.345 0-9.696-4.283-9.696-9.547m27.782 16.928l-9.442-9.294c1.852-2.027 2.99-4.7 2.99-7.633C23.263 5.135 18.043 0 11.63 0 5.22 0 0 5.135 0 11.447c0 6.313 5.22 11.45 11.63 11.45 2.737 0 5.252-.94 7.24-2.503l9.48 9.328c.188.186.436.278.683.278.248 0 .496-.094.683-.278.38-.37.38-.976 0-1.347" fill="#005CB9" fill-rule="evenodd"/></svg>