<?xml version="1.0" encoding="UTF-8" standalone="no"?>
<svg width="175px" height="40px" viewBox="0 0 175 40" version="1.1" xmlns="http://www.w3.org/2000/svg" xmlns:xlink="http://www.w3.org/1999/xlink">
    <!-- Generator: Sketch 41.2 (35397) - http://www.bohemiancoding.com/sketch -->
    <title>logo-footer</title>
    <desc>Created with Sketch.</desc>
    <defs></defs>
    <g stroke="none" stroke-width="1" fill="none" fill-rule="evenodd">
        <g fill="#FFFFFF">
            <g>
                <path d="M166.71855,30.617526 C166.178967,30.2298524 166.003967,29.517092 166.36612,28.9611024 C169.612734,23.9729948 174.995807,16.5676997 174.995807,11.5176128 C174.995807,5.30632813 169.914123,0.275685764 163.702839,0.275685764 C157.490946,0.275685764 152.409262,5.30632813 152.409262,11.5176128 C152.409262,16.5676997 157.984957,24.319349 161.19329,29.2442622 C161.53296,29.764401 161.407786,30.4388802 160.930182,30.8356684 C159.592769,31.9476476 158.869679,33.7681337 159.387387,35.7241233 C159.813342,37.3337587 161.131311,38.6523351 162.748238,39.0460851 C165.875755,39.8086719 168.699453,37.5190885 168.699453,34.4535503 C168.699453,32.8736892 167.915599,31.4761198 166.71855,30.617526 Z M164.668924,6.26329861 C162.525174,5.89993056 160.248351,6.75913194 158.879948,8.44958333 C156.172309,11.7940278 157.483594,16.5281424 161.123351,18.1718056 C161.789931,18.4731944 162.480208,18.6427257 163.169878,18.7040972 L163.099392,18.7350868 L163.099392,23.4922917 L168.743142,16.1909028 L168.738889,16.1927257 C168.997135,15.8409028 169.224392,15.4574826 169.41276,15.04125 C171.057031,11.4014931 168.911458,6.98213542 164.668924,6.26329861 Z M164.010851,35.8762153 C163.138281,35.8762153 162.452865,35.0528646 162.690451,34.1432292 C162.810764,33.6850694 163.186892,33.3083333 163.64566,33.1886285 C164.554688,32.950434 165.378646,33.6364583 165.378646,34.5084201 C165.378646,35.2770833 164.763715,35.8762153 164.010851,35.8762153 Z"></path>
                <path d="M12.4578125,35.4567014 C12.6753472,35.9270139 12.8564236,36.4125174 13.000434,36.9083507 C13.1444444,37.4053993 13.2489583,37.9067014 13.3170139,38.4128646 C12.4414062,38.7312674 11.6539063,38.9427257 10.9551215,39.0435937 C10.2557292,39.1444618 9.50164931,39.1936806 8.69348958,39.1936806 C7.26310764,39.1936806 6.00711806,38.9633854 4.92977431,38.5009722 C3.85243056,38.0367361 2.94826389,37.3889931 2.21423611,36.5547049 C1.48263889,35.7222396 0.929079861,34.7330035 0.559027778,33.5882118 C0.189583333,32.4428125 0.00425347222,31.1947222 0.00425347222,29.8488021 C0.00425347222,28.5022743 0.197482639,27.2499306 0.585763889,26.0972396 C0.972222222,24.9433333 1.53185764,23.9468056 2.26588542,23.1040104 C2.99748264,22.2606076 3.89800347,21.6049653 4.96866319,21.1346528 C6.03810764,20.6613021 7.25460069,20.4255382 8.61753472,20.4255382 C9.42569444,20.4255382 10.171875,20.4765799 10.8542535,20.5774479 C11.534809,20.678316 12.2724826,20.8897743 13.0642361,21.2087847 C13.0289931,21.7143403 12.928125,22.2071354 12.759809,22.6859549 C12.5914931,23.1672049 12.4061632,23.6502778 12.2044271,24.1400347 C11.6150174,23.9382986 11.0924479,23.7948958 10.6385417,23.710434 C10.1840278,23.6259722 9.64565972,23.5828299 9.02282986,23.5828299 C7.4046875,23.5828299 6.16328125,24.1108681 5.29557292,25.1620833 C4.42786458,26.2163368 3.99401042,27.7761458 3.99401042,29.8488021 C3.99401042,33.9576562 5.73732639,36.0114757 9.22395833,36.0114757 C9.84678819,36.0114757 10.3936632,35.9707639 10.8664062,35.8863021 C11.3373264,35.8018403 11.8677951,35.6578299 12.4578125,35.4567014"></path>
                <path d="M13.0642361,25.8317622 C13.6688368,25.7308941 14.2667535,25.6798524 14.8567708,25.6798524 C15.4467882,25.6798524 16.0447049,25.7308941 16.6493056,25.8317622 L16.6493056,32.7533767 C16.6493056,33.4436545 16.7046007,34.0111892 16.8133681,34.4571962 C16.9251736,34.9056337 17.0934896,35.2592795 17.3195312,35.5199566 C17.5473958,35.7812413 17.8293403,35.9665712 18.1665799,36.0753385 C18.5038194,36.1841059 18.8981771,36.2400087 19.352691,36.2400087 C19.9755208,36.2400087 20.4974826,36.1798524 20.919184,36.0631858 L20.919184,25.8317622 C21.5256076,25.7308941 22.115625,25.6798524 22.6868056,25.6798524 C23.2768229,25.6798524 23.8753472,25.7308941 24.4817708,25.8317622 L24.4817708,38.3855816 C23.9409722,38.5709115 23.2294271,38.7519878 22.3453125,38.9288108 C21.4618056,39.1056337 20.540625,39.1937413 19.5805556,39.1937413 C18.7213542,39.1937413 17.8973958,39.1281163 17.1056424,38.9920052 C16.312066,38.8583247 15.6193576,38.5709115 15.021441,38.1328038 C14.4229167,37.6946962 13.9483507,37.0560677 13.5947049,36.2132726 C13.241059,35.3723003 13.0642361,34.2518142 13.0642361,32.8542448 L13.0642361,25.8317622 Z"></path>
                <path d="M39.7994358,28.5347222 C39.4621962,28.4502604 39.1893663,28.3955729 38.9791233,28.3700521 C38.7694878,28.3457465 38.5045573,28.3335937 38.183724,28.3335937 C37.6289497,28.3335937 37.1434462,28.4466146 36.7302517,28.6744792 C36.3188802,28.9011285 35.9779948,29.2055556 35.7088108,29.5835069 C35.4396267,29.962066 35.2403212,30.4074653 35.1145399,30.9221354 C34.9887587,31.4355903 34.9255642,31.9697049 34.9255642,32.5250868 C34.9255642,33.2159722 35.010026,33.8017361 35.178342,34.2805556 C35.346658,34.7618056 35.5769531,35.1440104 35.8734809,35.4320312 C36.1669705,35.7176215 36.5163628,35.9230035 36.921658,36.0506076 C37.3245226,36.1757812 37.7620226,36.240191 38.2353733,36.240191 C38.5209635,36.240191 38.7822483,36.2274306 39.0186198,36.2006944 C39.2525608,36.1757812 39.5138455,36.122309 39.7994358,36.0366319 L39.7994358,28.5347222 Z M39.7994358,20.4251736 C40.1038628,20.3759549 40.4022135,20.3431424 40.6981337,20.3243056 C40.9916233,20.3078993 41.281467,20.2993924 41.5694878,20.2993924 C41.8550781,20.2993924 42.1491753,20.3078993 42.4536024,20.3243056 C42.755599,20.3431424 43.060026,20.3759549 43.3620226,20.4251736 L43.3620226,38.4623264 C42.5708767,38.6986979 41.7669705,38.8791667 40.9509115,39.0043403 C40.1324219,39.1319444 39.1437934,39.1939236 37.9825955,39.1939236 C37.088151,39.1939236 36.235026,39.0730035 35.4171441,38.8275174 C34.6004774,38.5856771 33.881033,38.1967882 33.2582031,37.6663194 C32.6353733,37.1358507 32.1419705,36.4492187 31.7804253,35.6088542 C31.4182726,34.766059 31.2378038,33.737934 31.2378038,32.5250868 C31.2378038,31.5650174 31.3915365,30.6608507 31.7038628,29.8095486 C32.0167969,28.9606771 32.4628038,28.2223958 33.0424913,27.599566 C33.6240017,26.9773437 34.3270399,26.4857639 35.1516059,26.1211806 C35.9779948,25.7602431 36.8949219,25.5791667 37.906033,25.5791667 C38.2086372,25.5791667 38.525217,25.5913194 38.8539497,25.6180556 C39.1808594,25.6423611 39.4974392,25.6982639 39.7994358,25.7827257 L39.7994358,20.4251736 Z"></path>
                <path d="M50.5859375,36.4660503 C51.5296007,36.4660503 52.2077257,36.116658 52.6190972,35.4172656 C53.0322917,34.7209115 53.2376736,33.7134462 53.2376736,32.3997309 C53.2376736,31.0860156 53.0322917,30.0809809 52.6190972,29.3821962 C52.2077257,28.6828038 51.5296007,28.3334115 50.5859375,28.3334115 C49.6611111,28.3334115 48.9908854,28.6828038 48.577691,29.3821962 C48.1663194,30.0809809 47.9585069,31.0860156 47.9585069,32.3997309 C47.9585069,33.7134462 48.1663194,34.7209115 48.577691,35.4172656 C48.9908854,36.116658 49.6611111,36.4660503 50.5859375,36.4660503 M50.5859375,39.1937413 C49.525,39.1937413 48.6044271,39.0211719 47.8211806,38.6778559 C47.037934,38.3321094 46.3883681,37.851467 45.8761285,37.2371441 C45.362066,36.6222135 44.9737847,35.9027691 44.7125,35.0782031 C44.4518229,34.2518142 44.3217882,33.3598003 44.3217882,32.3997309 C44.3217882,31.4402691 44.4518229,30.5391406 44.7125,29.6963455 C44.9737847,28.8559809 45.362066,28.125599 45.8761285,27.511276 C46.3883681,26.8963455 47.037934,26.4132726 47.8211806,26.0596267 C48.6044271,25.7065885 49.525,25.5297656 50.5859375,25.5297656 C51.646875,25.5297656 52.5735243,25.7065885 53.3652778,26.0596267 C54.1564236,26.4132726 54.8126736,26.8963455 55.3346354,27.511276 C55.8565972,28.125599 56.2454861,28.8559809 56.4982639,29.6963455 C56.7510417,30.5391406 56.8768229,31.4402691 56.8768229,32.3997309 C56.8768229,33.3598003 56.7510417,34.2518142 56.4982639,35.0782031 C56.2454861,35.9027691 55.8565972,36.6222135 55.3346354,37.2371441 C54.8126736,37.851467 54.1564236,38.3321094 53.3652778,38.6778559 C52.5735243,39.0211719 51.646875,39.1937413 50.5859375,39.1937413"></path>
                <path d="M58.4428299,20.7291753 C59.1148785,20.6289149 59.7644444,20.5772656 60.3878819,20.5772656 C61.0453472,20.5772656 61.6930903,20.6289149 62.3323264,20.7291753 L66.5013368,31.1374219 L70.7955208,20.7291753 C71.3174826,20.6289149 71.8977778,20.5772656 72.5388368,20.5772656 C73.1780729,20.5772656 73.7930035,20.6289149 74.3830208,20.7291753 L75.2403993,38.8921094 C74.6005556,38.9923698 73.9941319,39.0440191 73.4229514,39.0440191 C72.8493403,39.0440191 72.286059,38.9923698 71.7288542,38.8921094 L71.2749479,26.563724 L67.5865799,35.1028733 C67.3502083,35.1356858 67.1077604,35.1666753 66.8549826,35.1915885 C66.6022049,35.2165017 66.3494271,35.2280469 66.0966493,35.2280469 C65.8785069,35.2280469 65.6585417,35.2201476 65.4403993,35.2037413 C65.220434,35.1873351 64.9943924,35.152092 64.7580208,35.1028733 L61.3230382,26.386901 L60.9693924,38.8921094 C60.4285937,38.9923698 59.9084549,39.0440191 59.4028993,39.0440191 C58.8645312,39.0440191 58.3073264,38.9923698 57.7355382,38.8921094 L58.4428299,20.7291753 Z"></path>
                <path d="M76.5832813,23.6344184 C76.4824132,23.0626302 76.4313715,22.497526 76.4313715,21.9421441 C76.4313715,21.403776 76.4824132,20.8380642 76.5832813,20.2486545 C76.8694792,20.1994358 77.1775521,20.1599392 77.5062847,20.135026 C77.8331944,20.1107205 78.1333681,20.0985677 78.4025521,20.0985677 C78.6881424,20.0985677 79.0010764,20.1107205 79.338316,20.135026 C79.673125,20.1599392 79.9854514,20.1994358 80.2710417,20.2486545 C80.322691,20.5360677 80.3555035,20.8174045 80.3719097,21.0950955 C80.388316,21.3727865 80.3986458,21.6565538 80.3986458,21.9421441 C80.3986458,22.2113281 80.388316,22.4890191 80.3719097,22.7746094 C80.3555035,23.0626302 80.322691,23.3482205 80.2710417,23.6344184 C79.9854514,23.6854601 79.6773785,23.7188802 79.3504688,23.7346788 C79.0217361,23.7510851 78.7130556,23.759592 78.4274653,23.759592 C78.1582813,23.759592 77.8556771,23.7510851 77.5190451,23.7346788 C77.1818056,23.7188802 76.8694792,23.6854601 76.5832813,23.6344184"></path>
                <path d="M94.197092,35.4567014 C94.4146267,35.9270139 94.5957031,36.4125174 94.7397135,36.9083507 C94.883724,37.4053993 94.9882378,37.9067014 95.0562934,38.4128646 C94.1806858,38.7312674 93.3931858,38.9427257 92.6937934,39.0435937 C91.9950087,39.1444618 91.2409288,39.1936806 90.4327691,39.1936806 C89.0017795,39.1936806 87.7457899,38.9633854 86.6684462,38.5009722 C85.5917101,38.0367361 84.6869358,37.3889931 83.9535156,36.5547049 C83.2213108,35.7222396 82.6683594,34.7330035 82.2983073,33.5882118 C81.9282552,32.4428125 81.7429253,31.1947222 81.7429253,29.8488021 C81.7429253,28.5022743 81.9367622,27.2499306 82.3250434,26.0972396 C82.7115017,24.9433333 83.2705295,23.9468056 84.0045573,23.1040104 C84.7361545,22.2606076 85.6366753,21.6049653 86.7079427,21.1346528 C87.7767795,20.6613021 88.9938802,20.4255382 90.3568142,20.4255382 C91.164974,20.4255382 91.9105469,20.4765799 92.5929253,20.5774479 C93.2734809,20.678316 94.0117622,20.8897743 94.802908,21.2087847 C94.7682726,21.7143403 94.6674045,22.2071354 94.4990885,22.6859549 C94.3307726,23.1672049 94.1454427,23.6502778 93.9437066,24.1400347 C93.3536892,23.9382986 92.8317274,23.7948958 92.3778212,23.710434 C91.9233073,23.6259722 91.3843316,23.5828299 90.7621094,23.5828299 C89.143967,23.5828299 87.9025608,24.1108681 87.0348524,25.1620833 C86.1671441,26.2163368 85.7332899,27.7761458 85.7332899,29.8488021 C85.7332899,33.9576562 87.4766059,36.0114757 90.9632378,36.0114757 C91.5860677,36.0114757 92.1329427,35.9707639 92.6056858,35.8863021 C93.0759983,35.8018403 93.606467,35.6578299 94.197092,35.4567014"></path>
                <path d="M96.5516927,23.6344184 C96.4508247,23.0626302 96.3991753,22.497526 96.3991753,21.9421441 C96.3991753,21.403776 96.4508247,20.8380642 96.5516927,20.2486545 C96.837283,20.1994358 97.1459635,20.1599392 97.4746962,20.135026 C97.8016059,20.1107205 98.1017795,20.0985677 98.3709635,20.0985677 C98.6565538,20.0985677 98.9694878,20.1107205 99.3061198,20.135026 C99.6415365,20.1599392 99.9538628,20.1994358 100.239453,20.2486545 C100.290495,20.5360677 100.323915,20.8174045 100.339714,21.0950955 C100.356727,21.3727865 100.367057,21.6565538 100.367057,21.9421441 C100.367057,22.2113281 100.356727,22.4890191 100.339714,22.7746094 C100.323915,23.0626302 100.290495,23.3482205 100.239453,23.6344184 C99.9538628,23.6854601 99.6457899,23.7188802 99.3188802,23.7346788 C98.9895399,23.7510851 98.681467,23.759592 98.3952691,23.759592 C98.1260851,23.759592 97.8240885,23.7510851 97.486849,23.7346788 C97.1496094,23.7188802 96.837283,23.6854601 96.5516927,23.6344184"></path>
                <path d="M102.134983,25.8317622 C102.738976,25.7308941 103.3375,25.6798524 103.927517,25.6798524 C104.517535,25.6798524 105.115451,25.7308941 105.720052,25.8317622 L105.720052,32.7533767 C105.720052,33.4436545 105.775347,34.0111892 105.884722,34.4571962 C105.99592,34.9056337 106.164236,35.2592795 106.390278,35.5199566 C106.61875,35.7812413 106.900087,35.9665712 107.236719,36.0753385 C107.573958,36.1841059 107.969531,36.2400087 108.423438,36.2400087 C109.046267,36.2400087 109.568229,36.1798524 109.989931,36.0631858 L109.989931,25.8317622 C110.596354,25.7308941 111.186372,25.6798524 111.757552,25.6798524 C112.348177,25.6798524 112.946094,25.7308941 113.552517,25.8317622 L113.552517,38.3855816 C113.011719,38.5709115 112.300174,38.7519878 111.416059,38.9288108 C110.532552,39.1056337 109.611979,39.1937413 108.65191,39.1937413 C107.792708,39.1937413 106.967535,39.1281163 106.176389,38.9920052 C105.382813,38.8583247 104.690104,38.5709115 104.092188,38.1328038 C103.493663,37.6946962 103.01849,37.0560677 102.665451,36.2132726 C102.311806,35.3723003 102.134983,34.2518142 102.134983,32.8542448 L102.134983,25.8317622 Z"></path>
                <path d="M122.87303,28.5347222 C122.53579,28.4502604 122.262352,28.3955729 122.052717,28.3700521 C121.843082,28.3457465 121.577543,28.3335937 121.257318,28.3335937 C120.702543,28.3335937 120.21704,28.4466146 119.803845,28.6744792 C119.392474,28.9011285 119.051589,29.2055556 118.782405,29.5835069 C118.512613,29.962066 118.313307,30.4074653 118.188134,30.9221354 C118.062352,31.4355903 117.999158,31.9697049 117.999158,32.5250868 C117.999158,33.2159722 118.083012,33.8017361 118.251936,34.2805556 C118.420252,34.7618056 118.650547,35.1440104 118.946467,35.4320312 C119.239957,35.7176215 119.589957,35.9230035 119.995252,36.0506076 C120.398116,36.1757812 120.835616,36.240191 121.308967,36.240191 C121.594557,36.240191 121.855234,36.2274306 122.091606,36.2006944 C122.326155,36.1757812 122.586832,36.122309 122.87303,36.0366319 L122.87303,28.5347222 Z M122.87303,20.4251736 C123.177457,20.3759549 123.4752,20.3431424 123.771727,20.3243056 C124.065217,20.3078993 124.355061,20.2993924 124.643082,20.2993924 C124.928672,20.2993924 125.222769,20.3078993 125.526589,20.3243056 C125.829193,20.3431424 126.133012,20.3759549 126.435616,20.4251736 L126.435616,38.4623264 C125.64447,38.6986979 124.839957,38.8791667 124.024505,39.0043403 C123.206016,39.1319444 122.217387,39.1939236 121.055582,39.1939236 C120.161137,39.1939236 119.30862,39.0730035 118.49013,38.8275174 C117.674071,38.5856771 116.954627,38.1967882 116.331189,37.6663194 C115.708967,37.1358507 115.214957,36.4492187 114.854019,35.6088542 C114.491866,34.766059 114.31079,33.737934 114.31079,32.5250868 C114.31079,31.5650174 114.46513,30.6608507 114.777457,29.8095486 C115.089783,28.9606771 115.536398,28.2223958 116.116085,27.599566 C116.697595,26.9773437 117.400634,26.4857639 118.2252,26.1211806 C119.051589,25.7602431 119.968516,25.5791667 120.979627,25.5791667 C121.282231,25.5791667 121.598203,25.5913194 121.926936,25.6180556 C122.253845,25.6423611 122.571033,25.6982639 122.87303,25.7827257 L122.87303,20.4251736 Z"></path>
                <path d="M134.64421,32.905651 C134.442474,32.870408 134.224939,32.841849 133.98796,32.8169358 C133.751589,32.7908073 133.542561,32.7780469 133.357231,32.7780469 C132.530234,32.7780469 131.878845,32.9257031 131.397595,33.220408 C130.918776,33.5163281 130.678759,33.9908941 130.678759,34.6483594 C130.678759,35.086467 130.77112,35.4237066 130.95645,35.6576476 C131.140564,35.8946267 131.365391,36.0671962 131.626068,36.1759635 C131.887352,36.2853385 132.165043,36.3527865 132.460356,36.3776997 C132.755061,36.4044358 133.011484,36.4165885 133.229627,36.4165885 C133.482405,36.4165885 133.735182,36.3959288 133.98796,36.3527865 C134.241345,36.311467 134.45888,36.2725781 134.64421,36.2397656 L134.64421,32.905651 Z M134.64421,30.3031337 C134.64421,29.8978385 134.578585,29.5709288 134.442474,29.318151 C134.306363,29.0653733 134.122248,28.8678906 133.8877,28.7238802 C133.65072,28.5823003 133.361484,28.4838628 133.015738,28.4346441 C132.670599,28.3829948 132.285964,28.3586892 131.866693,28.3586892 C130.95645,28.3586892 129.987873,28.5349045 128.961571,28.8885503 C128.725807,28.4504427 128.548984,28.0372483 128.431102,27.6513976 C128.312005,27.2625087 128.25428,26.8000955 128.25428,26.2611198 C128.994991,26.008342 129.735095,25.8236198 130.477023,25.7063455 C131.217127,25.5872483 131.908012,25.5295226 132.549071,25.5295226 C134.299071,25.5295226 135.668082,25.951224 136.652457,26.7915885 C137.639262,27.6343837 138.130234,28.9809115 138.130234,30.8336024 L138.130234,38.4126823 C137.540825,38.5974045 136.825026,38.7742274 135.984054,38.943151 C135.141259,39.1096441 134.189696,39.1941059 133.128759,39.1941059 C132.269557,39.1941059 131.482057,39.119974 130.766866,38.9680642 C130.051068,38.8161545 129.436745,38.5627691 128.922682,38.2097309 C128.40862,37.8554774 128.014262,37.4009635 127.736571,36.8461892 C127.459488,36.2889844 127.319123,35.6084288 127.319123,34.7984462 C127.319123,33.9908941 127.491693,33.3127691 127.837439,32.7658941 C128.182578,32.2190191 128.629193,31.7809115 129.17546,31.4515712 C129.722335,31.1228385 130.333012,30.8888976 131.007491,30.7448872 C131.681363,30.6033073 132.353411,30.5309983 133.028498,30.5309983 C133.517648,30.5309983 134.056016,30.5559115 134.64421,30.6075608 L134.64421,30.3031337 Z"></path>
                <path d="M147.374974,28.5347222 C147.037734,28.4502604 146.764297,28.3955729 146.554661,28.3700521 C146.345026,28.3457465 146.080095,28.3335937 145.759262,28.3335937 C145.204488,28.3335937 144.718984,28.4466146 144.30579,28.6744792 C143.894418,28.9011285 143.553533,29.2055556 143.284349,29.5835069 C143.014557,29.962066 142.815252,30.4074653 142.690078,30.9221354 C142.564905,31.4355903 142.501102,31.9697049 142.501102,32.5250868 C142.501102,33.2159722 142.584957,33.8017361 142.75388,34.2805556 C142.922196,34.7618056 143.152491,35.1440104 143.448411,35.4320312 C143.742509,35.7176215 144.092509,35.9230035 144.497196,36.0506076 C144.900061,36.1757812 145.337561,36.240191 145.810911,36.240191 C146.096502,36.240191 146.357179,36.2274306 146.594158,36.2006944 C146.828707,36.1757812 147.089384,36.122309 147.374974,36.0366319 L147.374974,28.5347222 Z M147.374974,20.4251736 C147.679401,20.3759549 147.977144,20.3431424 148.273672,20.3243056 C148.567161,20.3078993 148.857005,20.2993924 149.145026,20.2993924 C149.430616,20.2993924 149.724714,20.3078993 150.029141,20.3243056 C150.331137,20.3431424 150.635564,20.3759549 150.937561,20.4251736 L150.937561,38.4623264 C150.146415,38.6986979 149.341901,38.8791667 148.52645,39.0043403 C147.70796,39.1319444 146.719332,39.1939236 145.558134,39.1939236 C144.663689,39.1939236 143.810564,39.0730035 142.992075,38.8275174 C142.176016,38.5856771 141.456571,38.1967882 140.833741,37.6663194 C140.210911,37.1358507 139.717509,36.4492187 139.355964,35.6088542 C138.993811,34.766059 138.812734,33.737934 138.812734,32.5250868 C138.812734,31.5650174 138.967075,30.6608507 139.280009,29.8095486 C139.591727,28.9606771 140.038342,28.2223958 140.61803,27.599566 C141.19954,26.9773437 141.902578,26.4857639 142.727144,26.1211806 C143.553533,25.7602431 144.47046,25.5791667 145.481571,25.5791667 C145.784175,25.5791667 146.100148,25.5913194 146.429488,25.6180556 C146.75579,25.6423611 147.072977,25.6982639 147.374974,25.7827257 L147.374974,20.4251736 Z"></path>
                <path d="M26.1578212,23.6344184 C26.0569531,23.0626302 26.0059115,22.497526 26.0059115,21.9421441 C26.0059115,21.403776 26.0569531,20.8380642 26.1578212,20.2486545 C26.4434115,20.1994358 26.752092,20.1599392 27.0808247,20.135026 C27.4077344,20.1107205 27.707908,20.0985677 27.977092,20.0985677 C28.2626823,20.0985677 28.5756163,20.1107205 28.9122483,20.135026 C29.2476649,20.1599392 29.5599913,20.1994358 29.8455816,20.2486545 C29.8972309,20.5360677 29.9300434,20.8174045 29.9464497,21.0950955 C29.9628559,21.3727865 29.9731858,21.6565538 29.9731858,21.9421441 C29.9731858,22.2113281 29.9628559,22.4890191 29.9464497,22.7746094 C29.9300434,23.0626302 29.8972309,23.3482205 29.8455816,23.6344184 C29.5599913,23.6854601 29.2519184,23.7188802 28.9250087,23.7346788 C28.5956684,23.7510851 28.2875955,23.759592 28.0020052,23.759592 C27.7322135,23.759592 27.430217,23.7510851 27.0935851,23.7346788 C26.7557378,23.7188802 26.4434115,23.6854601 26.1578212,23.6344184"></path>
                <path d="M28.0018229,25.6798524 C27.4306424,25.6798524 26.8400174,25.7308941 26.2335937,25.8317622 L26.2335937,28.7095399 L26.2335937,38.8917448 L26.2335937,39.0418316 C26.8400174,39.142092 27.4221354,39.1937413 27.9769097,39.1937413 C28.5486979,39.1937413 29.1387153,39.142092 29.7451389,39.0418316 L29.7451389,36.1640538 L29.7451389,25.981849 L29.7451389,25.8317622 C29.1387153,25.7308941 28.5572049,25.6798524 28.0018229,25.6798524"></path>
                <path d="M78.4272222,25.6798524 C77.8560417,25.6798524 77.2660243,25.7308941 76.6596007,25.8317622 L76.6596007,28.7095399 L76.6596007,38.8917448 L76.6596007,39.0418316 C77.2660243,39.142092 77.8475347,39.1937413 78.402309,39.1937413 C78.9740972,39.1937413 79.5641146,39.142092 80.1705382,39.0418316 L80.1705382,36.1640538 L80.1705382,25.981849 L80.1705382,25.8317622 C79.5641146,25.7308941 78.9826042,25.6798524 78.4272222,25.6798524"></path>
                <path d="M98.3953906,25.6798524 C97.8242101,25.6798524 97.2341927,25.7308941 96.6277691,25.8317622 L96.6277691,28.7095399 L96.6277691,38.8917448 L96.6277691,39.0418316 C97.2341927,39.142092 97.8157031,39.1937413 98.3710851,39.1937413 C98.9422656,39.1937413 99.532283,39.142092 100.138707,39.0418316 L100.138707,36.1640538 L100.138707,25.981849 L100.138707,25.8317622 C99.532283,25.7308941 98.9507726,25.6798524 98.3953906,25.6798524"></path>
            </g>
        </g>
    </g>
</svg>