<svg width="300" height="75" viewBox="0 0 300 75" xmlns="http://www.w3.org/2000/svg"><title>logo</title><g fill="none" fill-rule="evenodd"><path d="M284.898 53.137c-.92-.66-1.217-1.874-.6-2.82 5.528-8.494 14.695-21.105 14.695-29.704 0-10.577-8.654-19.144-19.23-19.144-10.578 0-19.232 8.565-19.232 19.142 0 8.6 9.497 21.8 14.96 30.186.58.885.365 2.033-.45 2.71-2.275 1.892-3.507 4.992-2.625 8.323.725 2.74 2.97 4.987 5.723 5.658 5.326 1.298 10.134-2.6 10.134-7.82 0-2.69-1.334-5.07-3.372-6.533" fill="#EED11C"/><path d="M281.408 11.666c-3.65-.62-7.528.844-9.858 3.722-4.61 5.696-2.378 13.757 3.82 16.556 1.135.513 2.31.802 3.485.906l-.12.053v8.1l9.61-12.432-.007.005c.44-.6.827-1.252 1.148-1.96 2.8-6.2-.854-13.724-8.078-14.948M22.214 61.377c.37.8.68 1.628.924 2.473.245.846.423 1.7.54 2.562-1.492.542-2.833.902-4.023 1.074-1.19.17-2.475.255-3.85.255-2.437 0-4.576-.39-6.41-1.177-1.835-.79-3.375-1.894-4.624-3.315-1.244-1.417-2.187-3.102-2.817-5.05-.63-1.952-.945-4.077-.945-6.37 0-2.292.33-4.424.99-6.387.66-1.964 1.612-3.66 2.86-5.096 1.247-1.436 2.78-2.553 4.604-3.354 1.822-.807 3.894-1.208 6.214-1.208 1.377 0 2.647.087 3.81.258 1.158.172 2.414.532 3.763 1.076-.06.86-.233 1.7-.52 2.515-.286.82-.6 1.644-.946 2.478-1.003-.343-1.893-.588-2.666-.732-.774-.143-1.69-.217-2.75-.217-2.757 0-4.87.9-6.348 2.69-1.478 1.794-2.217 4.45-2.217 7.98 0 6.996 2.97 10.493 8.907 10.493 1.06 0 1.992-.07 2.797-.213.802-.145 1.705-.39 2.71-.732" fill="#FFF"/><path d="M23.247 44.988c1.03-.172 2.047-.26 3.052-.26 1.003 0 2.02.088 3.05.26v11.786c0 1.176.095 2.142.28 2.902.19.763.477 1.366.862 1.81.388.444.868.76 1.442.945.574.187 1.246.283 2.02.283 1.06 0 1.95-.103 2.667-.302V44.99c1.034-.172 2.04-.26 3.01-.26 1.006 0 2.025.088 3.058.26v21.377c-.922.316-2.134.624-3.64.925-1.504.3-3.072.45-4.707.45-1.462 0-2.865-.11-4.214-.342-1.35-.228-2.53-.717-3.55-1.463-1.018-.746-1.826-1.834-2.428-3.27-.602-1.43-.903-3.34-.903-5.72V44.99zm45.526 4.602c-.575-.143-1.04-.236-1.397-.28-.357-.04-.808-.062-1.355-.062-.942 0-1.77.193-2.473.58-.7.386-1.28.905-1.74 1.548-.457.645-.797 1.404-1.01 2.28-.215.874-.323 1.784-.323 2.73 0 1.176.144 2.174.43 2.99.287.818.68 1.47 1.184 1.96.5.486 1.095.836 1.785 1.053.686.21 1.43.32 2.237.32.486 0 .93-.02 1.333-.066.4-.043.843-.134 1.33-.28V49.59zm0-13.81c.518-.083 1.026-.14 1.53-.17.5-.03.993-.043 1.484-.043.486 0 .987.014 1.505.042.515.03 1.033.086 1.547.17v30.715c-1.35.402-2.718.71-4.107.923-1.394.216-3.078.322-5.055.322-1.524 0-2.977-.206-4.37-.624-1.39-.412-2.615-1.074-3.676-1.978-1.06-.903-1.9-2.072-2.516-3.503-.617-1.435-.924-3.186-.924-5.25 0-1.636.26-3.176.793-4.626.533-1.445 1.293-2.7 2.28-3.763.99-1.06 2.187-1.897 3.59-2.517 1.408-.614 2.97-.922 4.692-.922.514 0 1.053.02 1.613.066.556.04 1.095.136 1.61.28V35.78zM87.14 63.096c1.608 0 2.762-.594 3.463-1.785.703-1.184 1.053-2.9 1.053-5.137 0-2.237-.35-3.948-1.053-5.138-.7-1.19-1.855-1.786-3.462-1.786-1.573 0-2.715.594-3.42 1.785-.7 1.19-1.053 2.9-1.053 5.138 0 2.237.354 3.953 1.055 5.14.704 1.19 1.846 1.784 3.42 1.784m0 4.645c-1.806 0-3.374-.293-4.707-.877-1.334-.59-2.44-1.407-3.313-2.453-.875-1.048-1.536-2.273-1.98-3.677-.445-1.407-.666-2.926-.666-4.56 0-1.635.22-3.17.665-4.604.445-1.43 1.106-2.675 1.98-3.72.874-1.048 1.98-1.87 3.314-2.473 1.333-.6 2.9-.902 4.708-.902 1.807 0 3.385.3 4.733.902 1.348.602 2.465 1.425 3.354 2.472.89 1.045 1.55 2.29 1.98 3.72.43 1.435.645 2.97.645 4.603 0 1.635-.214 3.154-.645 4.56-.43 1.405-1.092 2.63-1.98 3.678-.89 1.047-2.007 1.865-3.355 2.454-1.348.584-2.926.878-4.732.878M100.52 36.3c1.144-.172 2.25-.26 3.312-.26 1.12 0 2.223.088 3.31.26l7.1 17.723 7.313-17.724c.888-.173 1.877-.26 2.968-.26 1.09 0 2.136.087 3.14.26l1.46 30.927c-1.09.17-2.122.258-3.094.258-.98 0-1.938-.088-2.887-.258l-.773-20.994-6.28 14.54c-.402.057-.815.11-1.246.152-.43.043-.86.062-1.29.062-.372 0-.747-.013-1.118-.04-.375-.03-.76-.09-1.162-.173l-5.85-14.842-.602 21.295c-.92.17-1.806.258-2.667.258-.917 0-1.866-.088-2.84-.258l1.205-30.93zm30.89 4.946c-.17-.974-.258-1.936-.258-2.882 0-.916.087-1.88.258-2.883.488-.082 1.012-.15 1.572-.192.557-.04 1.068-.062 1.526-.062.487 0 1.02.02 1.594.062.57.042 1.102.11 1.588.194.088.49.144.97.172 1.442.028.473.045.956.045 1.442 0 .46-.017.932-.045 1.418-.028.49-.084.977-.172 1.464-.486.087-1.01.144-1.567.17-.56.03-1.086.043-1.572.043-.457 0-.972-.014-1.545-.042-.574-.027-1.106-.084-1.594-.17m29.994 20.13c.37.8.68 1.627.924 2.472.245.846.423 1.7.54 2.562-1.492.542-2.833.902-4.024 1.074-1.19.17-2.474.255-3.85.255-2.437 0-4.575-.39-6.41-1.177-1.834-.79-3.374-1.894-4.623-3.315-1.245-1.417-2.187-3.102-2.817-5.05-.63-1.952-.945-4.077-.945-6.37 0-2.292.33-4.424.99-6.387.66-1.964 1.61-3.66 2.86-5.096 1.247-1.436 2.78-2.553 4.604-3.354 1.82-.807 3.894-1.208 6.215-1.208 1.376 0 2.646.087 3.808.258 1.158.172 2.416.532 3.763 1.076-.06.86-.23 1.7-.518 2.515-.286.82-.602 1.644-.945 2.478-1.005-.343-1.894-.588-2.667-.732-.774-.143-1.692-.217-2.75-.217-2.757 0-4.87.9-6.348 2.69-1.478 1.794-2.216 4.45-2.216 7.98 0 6.996 2.968 10.493 8.905 10.493 1.06 0 1.99-.07 2.796-.213.8-.145 1.704-.39 2.71-.732m4.008-20.132c-.172-.974-.26-1.936-.26-2.882 0-.916.088-1.88.26-2.883.486-.082 1.012-.15 1.57-.192.558-.04 1.07-.062 1.528-.062.486 0 1.02.02 1.592.062.57.042 1.103.11 1.59.194.086.49.143.97.17 1.442.03.473.047.956.047 1.442 0 .46-.016.932-.045 1.418-.027.49-.084.977-.17 1.464-.487.087-1.01.144-1.568.17-.56.03-1.086.043-1.573.043-.458 0-.973-.014-1.547-.042-.574-.027-1.106-.084-1.592-.17m9.505 3.74c1.03-.172 2.05-.26 3.054-.26s2.023.088 3.052.26v11.786c0 1.176.094 2.142.28 2.902.19.763.477 1.366.86 1.81.39.444.87.76 1.443.945.572.187 1.246.283 2.02.283 1.06 0 1.95-.103 2.666-.302V44.99c1.033-.172 2.038-.26 3.01-.26 1.006 0 2.024.088 3.057.26v21.377c-.92.316-2.133.624-3.638.925-1.505.3-3.072.45-4.707.45-1.464 0-2.87-.11-4.217-.342-1.35-.228-2.53-.717-3.55-1.463-1.017-.746-1.826-1.834-2.427-3.27-.603-1.43-.904-3.34-.904-5.72V44.99zm35.315 4.602c-.574-.143-1.04-.236-1.397-.28-.357-.04-.81-.062-1.354-.062-.945 0-1.772.193-2.475.58-.703.386-1.283.905-1.74 1.548-.46.645-.8 1.404-1.013 2.28-.215.874-.322 1.784-.322 2.73 0 1.176.143 2.174.43 2.99.287.818.68 1.47 1.183 1.96.5.486 1.095.836 1.785 1.053.686.21 1.43.32 2.237.32.486 0 .93-.02 1.333-.066.4-.043.843-.134 1.33-.28V49.59zm0-13.81c.52-.083 1.026-.14 1.53-.17.5-.03.994-.043 1.484-.043.485 0 .985.014 1.503.042.515.03 1.033.086 1.548.17v30.715c-1.346.402-2.716.71-4.105.923-1.394.216-3.077.322-5.056.322-1.524 0-2.975-.206-4.37-.624-1.39-.412-2.614-1.074-3.676-1.978-1.06-.903-1.9-2.072-2.515-3.503-.618-1.435-.926-3.186-.926-5.25 0-1.636.263-3.176.795-4.626.53-1.445 1.29-2.7 2.28-3.763.99-1.06 2.186-1.897 3.59-2.517 1.407-.614 2.97-.922 4.69-.922.515 0 1.053.02 1.613.066.557.04 1.097.136 1.61.28V35.78zm20.045 21.254c-.344-.06-.714-.11-1.118-.15-.402-.046-.758-.068-1.074-.068-1.408 0-2.517.252-3.337.754-.813.504-1.222 1.312-1.222 2.43 0 .747.158 1.322.473 1.72.315.403.697.697 1.14.882.446.187.92.302 1.42.344.504.046.94.066 1.31.066.43 0 .863-.035 1.293-.108.432-.07.802-.137 1.118-.193v-5.675zm0-4.432c0-.69-.112-1.247-.344-1.677-.23-.43-.545-.767-.944-1.012-.404-.24-.896-.41-1.485-.493-.588-.088-1.243-.13-1.957-.13-1.55 0-3.2.3-4.947.903-.4-.746-.702-1.45-.903-2.107-.203-.662-.3-1.45-.3-2.367 1.26-.433 2.52-.747 3.784-.947 1.26-.203 2.437-.3 3.528-.3 2.98 0 5.31.717 6.988 2.148 1.68 1.436 2.516 3.73 2.516 6.884V66.41c-1.004.316-2.223.617-3.655.905-1.433.283-3.053.427-4.86.427-1.463 0-2.804-.126-4.022-.385-1.22-.26-2.265-.69-3.14-1.29-.875-.605-1.547-1.38-2.02-2.323-.472-.95-.71-2.108-.71-3.487 0-1.375.293-2.53.882-3.46.587-.933 1.347-1.68 2.277-2.24.932-.56 1.972-.958 3.12-1.203 1.148-.24 2.292-.364 3.442-.364.83 0 1.747.042 2.75.13v-.518zm21.68-3.012c-.576-.143-1.04-.236-1.398-.28-.357-.04-.808-.062-1.355-.062-.945 0-1.77.193-2.475.58-.7.386-1.28.905-1.74 1.548-.46.645-.798 1.404-1.01 2.28-.214.874-.323 1.784-.323 2.73 0 1.176.14 2.174.43 2.99.285.818.677 1.47 1.18 1.96.5.486 1.098.836 1.787 1.053.686.21 1.43.32 2.237.32.486 0 .93-.02 1.334-.066.398-.043.842-.134 1.33-.28V49.59zm0-13.81c.517-.083 1.024-.14 1.53-.17.5-.03.992-.043 1.483-.043.486 0 .987.014 1.505.042.514.03 1.033.086 1.547.17v30.715c-1.347.402-2.717.71-4.106.923-1.395.216-3.08.322-5.056.322-1.523 0-2.976-.206-4.37-.624-1.39-.412-2.615-1.074-3.675-1.978-1.06-.903-1.9-2.072-2.518-3.503-.616-1.435-.925-3.186-.925-5.25 0-1.636.263-3.176.796-4.626.53-1.445 1.29-2.7 2.278-3.763.99-1.06 2.19-1.897 3.593-2.517 1.407-.614 2.97-.922 4.69-.922.516 0 1.054.02 1.614.066.556.04 1.096.136 1.61.28V35.78zM45.543 41.246c-.172-.974-.26-1.936-.26-2.882 0-.916.088-1.88.26-2.883.486-.082 1.012-.15 1.572-.192.556-.04 1.068-.062 1.526-.062.488 0 1.02.02 1.594.062.572.042 1.103.11 1.59.194.088.49.144.97.172 1.442.027.473.045.956.045 1.442 0 .46-.017.932-.044 1.418-.028.49-.084.977-.172 1.464-.487.087-1.01.144-1.568.17-.56.03-1.085.043-1.572.043-.46 0-.973-.014-1.546-.042-.576-.027-1.108-.084-1.594-.17m3.14 3.482c-.974 0-1.98.086-3.01.258v22.495c1.03.17 2.022.258 2.967.258.975 0 1.98-.086 3.013-.256V44.988c-1.033-.172-2.023-.26-2.97-.26m85.867.002c-.972 0-1.977.086-3.01.258v22.495c1.033.17 2.023.258 2.968.258.974 0 1.978-.086 3.01-.256V44.988c-1.032-.172-2.022-.26-2.968-.26m34.003.002c-.972 0-1.977.086-3.01.258v22.495c1.033.17 2.023.258 2.97.258.972 0 1.976-.086 3.01-.256V44.988c-1.034-.172-2.024-.26-2.97-.26m111.734 17.364c-1.486 0-2.653-1.402-2.248-2.95.202-.78.843-1.423 1.624-1.627 1.548-.405 2.95.763 2.95 2.248 0 1.31-1.046 2.33-2.328 2.33" fill="#FFF"/></g></svg>