<svg width="40" height="40" viewBox="0 0 40 40" xmlns="http://www.w3.org/2000/svg"><title>nav-report</title><g fill="#FFF" fill-rule="evenodd"><path d="M20.098 32.162c-1.532 0-2.78 1.248-2.78 2.78 0 1.532 1.248 2.78 2.78 2.78 1.56 0 2.78-1.22 2.78-2.78 0-1.532-1.248-2.78-2.78-2.78zm0 7.14c-2.404 0-4.36-1.956-4.36-4.36 0-2.404 1.956-4.36 4.36-4.36 2.404 0 4.36 1.956 4.36 4.36 0 2.404-1.956 4.36-4.36 4.36zM20.345 6.534c-.512 0-1.03.065-1.543.2-1.938.508-3.52 2.088-4.026 4.026-.47 1.793-.106 3.642 1 5.074 1.108 1.436 2.777 2.26 4.578 2.26 3.243 0 5.783-2.54 5.783-5.782 0-1.802-.825-3.47-2.26-4.58-1.023-.788-2.257-1.198-3.532-1.198m.01 13.142c-2.296 0-4.42-1.048-5.83-2.876-1.408-1.822-1.873-4.17-1.28-6.44.652-2.482 2.676-4.505 5.156-5.155 2.27-.594 4.618-.13 6.44 1.276 1.83 1.41 2.878 3.537 2.878 5.832 0 4.06-3.304 7.364-7.364 7.364m-.256-18.094c-5.8 0-10.517 4.694-10.517 10.464 0 3.933 5.326 11.182 10.31 16.655.143.158.272.158.415 0 4.984-5.474 10.31-12.724 10.31-16.654 0-5.77-4.718-10.464-10.517-10.464m0 28.795c-.52 0-1.022-.223-1.376-.61C15.498 26.224 8 17.412 8 12.046 8 5.404 13.427 0 20.098 0c6.67 0 12.097 5.405 12.097 12.046 0 5.363-7.498 14.178-10.72 17.72-.355.388-.857.61-1.377.61"/></g></svg>