<svg width="40" height="40" viewBox="0 0 40 40" xmlns="http://www.w3.org/2000/svg"><title>nav-reports</title><g fill="#FFF" fill-rule="evenodd"><path d="M29.908 15.32H9.428c-.48 0-.87-.39-.87-.87s.39-.87.87-.87h20.48c.48 0 .868.39.868.87s-.388.87-.868.87M29.908 20.927H9.428c-.48 0-.87-.39-.87-.87s.39-.868.87-.868h20.48c.48 0 .868.388.868.867 0 .48-.388.87-.868.87M29.908 26.536H9.428c-.48 0-.87-.39-.87-.87s.39-.87.87-.87h20.48c.48 0 .868.39.868.87s-.388.87-.868.87M29.908 32.144H9.428c-.48 0-.87-.39-.87-.87s.39-.87.87-.87h20.48c.48 0 .868.39.868.87s-.388.87-.868.87"/><path d="M7.284 2.74c-.852 0-1.545.69-1.545 1.542v31.103c0 .852.692 1.544 1.544 1.544H32.05c.853 0 1.545-.693 1.545-1.545v-24.27h-7.51c-.48 0-.87-.388-.87-.868V2.74H7.285zM32.05 38.67H7.285C5.472 38.67 4 37.194 4 35.384V4.282C4 2.472 5.472 1 7.284 1h18.8c.48 0 .87.39.87.87v7.508h7.51c.48 0 .87.39.87.87v25.137c0 1.81-1.47 3.284-3.283 3.284z"/><path d="M34.465 11.116c-.222 0-.446-.084-.613-.254l-8.38-8.378c-.34-.34-.342-.89-.003-1.23.34-.338.894-.338 1.23 0l8.38 8.38c.338.338.34.89 0 1.228-.17.17-.393.254-.615.254"/></g></svg>