<svg width="40" height="40" viewBox="0 0 40 40" xmlns="http://www.w3.org/2000/svg"><title>nav-signed-in</title><path d="M31.977 32.68c-5.974-2.5-7.05-3.637-7.24-3.97v-1.136c1.002-1.107 1.786-2.55 2.282-4.204.748-.63 1.188-1.572 1.188-2.572 0-.682-.203-1.33-.59-1.893v-3.32c0-4.444-2.743-6.992-7.528-6.992-4.715 0-7.53 2.613-7.53 6.99v3.324c-.38.56-.588 1.22-.588 1.89 0 1 .44 1.94 1.187 2.572.496 1.654 1.28 3.097 2.283 4.204v1.137c-.192.336-1.282 1.485-7.366 4.023-3.4-3.187-5.533-7.715-5.533-12.733 0-9.626 7.83-17.456 17.456-17.456 9.625 0 17.456 7.83 17.456 17.456 0 4.99-2.11 9.496-5.48 12.68m-22.58 1.172c6.135-2.616 7.28-3.875 7.556-4.757.024-.074.035-.152.035-.23v-1.598c0-.202-.08-.396-.22-.54-.98-1-1.737-2.392-2.192-4.02-.05-.173-.155-.322-.3-.425-.475-.335-.76-.89-.76-1.484 0-.528.227-.916.417-1.15.11-.137.172-.31.172-.486v-3.578c0-3.513 2.126-5.447 5.986-5.447 3.915 0 5.984 1.883 5.984 5.447v3.577c0 .178.06.35.173.488.19.233.417.622.417 1.15 0 .596-.285 1.15-.76 1.484-.145.103-.252.253-.3.424-.455 1.63-1.213 3.02-2.192 4.022-.14.144-.22.337-.22.54v1.597c0 .078.012.156.036.23.273.877 1.403 2.126 7.44 4.708-2.952 2.287-6.653 3.653-10.668 3.653-3.987 0-7.663-1.346-10.605-3.604M20 1C9.523 1 1 9.523 1 20s8.523 19 19 19 19-8.523 19-19S30.477 1 20 1" fill="#FFF" fill-rule="evenodd"/></svg>