<svg width="40" height="40" viewBox="0 0 40 40" xmlns="http://www.w3.org/2000/svg"><title>nav-account</title><g fill="#FFF" fill-rule="evenodd"><path d="M1.848 20.457h24.37v-1.7H1.848"/><path d="M17.34 29.335c-.217 0-.434-.083-.6-.248-.332-.332-.332-.87 0-1.202l8.277-8.278-8.278-8.278c-.332-.332-.332-.87 0-1.202.33-.332.87-.332 1.202 0l8.878 8.878c.33.332.33.87 0 1.202l-8.878 8.88c-.167.164-.384.247-.602.247"/><path d="M19.606 2.7C10.283 2.7 2.7 10.284 2.7 19.607c0 9.324 7.583 16.907 16.906 16.907 9.323 0 16.908-7.583 16.908-16.907 0-9.323-7.585-16.907-16.908-16.907m0 35.514C9.346 38.214 1 29.867 1 19.607S9.347 1 19.606 1c10.26 0 18.607 8.348 18.607 18.607 0 10.26-8.348 18.607-18.607 18.607"/></g></svg>