<svg width="40" height="40" viewBox="0 0 40 40" xmlns="http://www.w3.org/2000/svg"><title>nav-help</title><g fill="#FFF" fill-rule="evenodd"><path d="M19.607 2.7C10.284 2.7 2.7 10.284 2.7 19.607c0 9.324 7.584 16.907 16.907 16.907 9.322 0 16.907-7.583 16.907-16.907 0-9.323-7.585-16.907-16.907-16.907m0 35.514C9.347 38.214 1 29.867 1 19.607S9.346 1 19.607 1c10.26 0 18.606 8.348 18.606 18.607 0 10.26-8.346 18.607-18.606 18.607"/><path d="M19.607 26.314c-.47 0-.85-.38-.85-.85v-2.546c0-1.343.86-2.506 2.087-2.83 2.465-.647 3.987-3.05 3.542-5.587-.342-1.948-1.943-3.55-3.892-3.89-1.465-.248-2.89.12-4.01 1.057-1.104.925-1.737 2.284-1.737 3.722 0 .468-.38.848-.85.848-.468 0-.85-.38-.85-.85 0-1.94.856-3.772 2.345-5.022 1.487-1.25 3.45-1.77 5.394-1.43 2.643.463 4.81 2.63 5.273 5.27.6 3.417-1.457 6.652-4.784 7.525-.475.127-.82.626-.82 1.188v2.546c0 .47-.38.85-.85.85M19.607 29.053c-.204 0-.37.166-.37.37 0 .407.74.407.74 0 0-.204-.167-.37-.37-.37m0 1.7c-.733 0-1.33-.597-1.33-1.33 0-.733.597-1.33 1.33-1.33.732 0 1.33.597 1.33 1.33 0 .733-.598 1.33-1.33 1.33"/></g></svg>