<svg xmlns="http://www.w3.org/2000/svg" xmlns:xlink="http://www.w3.org/1999/xlink"><symbol viewBox="0 0 32 32" id="angle-arrow-down" xmlns="http://www.w3.org/2000/svg"><path d="M30.7 8.8l-1.5-1.5c-.15-.15-.45-.3-.75-.3s-.45.15-.75.3L15.85 19.45 4.15 7.3C4 7 3.85 7 3.55 7s-.45 0-.75.3L1.3 8.8c-.15.15-.3.45-.3.75s.15.45.3.75l13.95 14.4c.15.15.45.3.75.3s.45-.15.75-.3L30.7 10.15c.15-.15.3-.45.3-.75 0-.15 0-.45-.3-.6z"/></symbol><symbol viewBox="0 0 32 32" id="angle-arrow-left" xmlns="http://www.w3.org/2000/svg"><path d="M23.2 30.7l1.5-1.5c.15-.15.3-.45.3-.75s-.15-.45-.3-.75L12.55 15.85 24.7 4.15c.3-.15.3-.3.3-.6s0-.45-.3-.75l-1.5-1.5c-.15-.15-.45-.3-.75-.3s-.45.15-.75.3L7.3 15.25c-.15.15-.3.45-.3.75s.15.45.3.75L21.85 30.7c.15.15.45.3.75.3.15 0 .45 0 .6-.3z"/></symbol><symbol viewBox="0 0 32 32" id="angle-arrow-right" xmlns="http://www.w3.org/2000/svg"><path d="M8.8 1.3L7.3 2.8c-.15.15-.3.45-.3.75s.15.45.3.75l12.15 11.85L7.3 27.85c-.3.15-.3.3-.3.6s0 .45.3.75l1.5 1.5c.15.15.45.3.75.3s.45-.15.75-.3l14.4-13.95c.15-.15.3-.45.3-.75s-.15-.45-.3-.75L10.15 1.3C10 1.15 9.7 1 9.4 1c-.15 0-.45 0-.6.3z"/></symbol><symbol viewBox="0 0 32 32" id="angle-arrow-up" xmlns="http://www.w3.org/2000/svg"><path d="M1.3 23.2l1.5 1.5c.15.15.45.3.75.3s.45-.15.75-.3l11.85-12.15 11.7 12.15c.15.3.3.3.6.3s.45 0 .75-.3l1.5-1.5c.15-.15.3-.45.3-.75s-.15-.45-.3-.75L16.75 7.3C16.6 7.15 16.3 7 16 7s-.45.15-.75.3L1.3 21.85c-.15.15-.3.45-.3.75 0 .15 0 .45.3.6z"/></symbol><symbol viewBox="0 0 32 32" id="angle-arrow-up2" xmlns="http://www.w3.org/2000/svg"><path d="M2.5 24.7c.15.15.45.3.75.3s.45-.15.75-.3l11.85-12.15L27.7 24.7c.15.15.45.3.75.3s.45-.15.75-.3l1.5-1.5c.15-.15.3-.45.3-.75s-.15-.45-.3-.75L16.75 7.3C16.6 7.15 16.3 7 16 7s-.45.15-.75.3L1.3 21.7c-.15.15-.3.45-.3.75s.15.45.3.75c-.3-.15 1.2 1.5 1.2 1.5z"/></symbol><symbol viewBox="0 0 32 32" id="arrow-both" xmlns="http://www.w3.org/2000/svg"><title>arrow-both</title><path d="M16 27l6-7H10zM22 13H10l6-7z"/></symbol><symbol viewBox="0 0 32 32" id="arrow-down-bold" xmlns="http://www.w3.org/2000/svg"><path d="M29.858 13.809L16.882 26.767c-.221.221-.484.332-.787.332s-.565-.111-.787-.332L2.332 13.809c-.221-.222-.332-.487-.332-.796s.111-.574.332-.796l2.903-2.885C5.456 9.11 5.719 9 6.022 9s.565.111.787.332l9.286 9.286 9.286-9.286c.221-.222.484-.332.787-.332s.565.111.787.332l2.903 2.885c.221.222.332.487.332.796s-.111.574-.332.796z"/></symbol><symbol viewBox="0 0 32 32" id="arrow-right-down-long" xmlns="http://www.w3.org/2000/svg"><path d="M15.83 30.029l11.047-10.717c.165-.165.165-.495 0-.66s-.495-.165-.66 0L15.995 28.709V2.494c0-.165-.165-.495-.495-.495s-.495.165-.495.495v26.05L4.783 18.487c-.165-.165-.495-.165-.659 0s-.165.495 0 .66l11.047 10.717c0 .165.165.33.33.33s.33 0 .33-.165z"/></symbol><symbol viewBox="0 0 32 32" id="arrow-right-left-long" xmlns="http://www.w3.org/2000/svg"><path d="M1.971 15.83l10.717 11.047c.165.165.495.165.659 0s.165-.495 0-.66L3.29 15.995h26.215c.165 0 .495-.165.495-.495s-.165-.495-.495-.495H3.455L13.512 4.783c.165-.165.165-.495 0-.659s-.495-.165-.659 0L2.136 15.171c-.165 0-.33.165-.33.33s0 .33.165.33z"/></symbol><symbol viewBox="0 0 32 32" id="arrow-right-long-down-secondary" xmlns="http://www.w3.org/2000/svg"><path d="M7.187 22.078c.373-.373.746-.373 1.119 0l6.902 6.249V1.747c0-.497.249-.746.746-.746s.746.249.746.746v26.58l6.902-6.249c.373-.373.746-.373 1.119 0s.373.746 0 1.119a3848.761 3848.761 0 0 0-8.207 7.461c-.124.124-.311.187-.56.187s-.435-.062-.56-.187l-8.207-7.461c-.124-.124-.187-.311-.187-.56s.062-.435.187-.56z"/></symbol><symbol viewBox="0 0 32 32" id="arrow-right-long-left-secondary" xmlns="http://www.w3.org/2000/svg"><path d="M9.922 7.187c.373.373.373.746 0 1.119l-6.249 6.902h26.58c.497 0 .746.249.746.746s-.249.746-.746.746H3.673l6.249 6.902c.373.373.373.746 0 1.119s-.746.373-1.119 0a3848.761 3848.761 0 0 0-7.461-8.207c-.124-.124-.187-.311-.187-.56s.062-.435.187-.56l7.461-8.207c.124-.124.311-.187.56-.187s.435.062.56.187z"/></symbol><symbol viewBox="0 0 32 32" id="arrow-right-long-right-secondary" xmlns="http://www.w3.org/2000/svg"><path d="M22.078 24.813c-.373-.373-.373-.746 0-1.119l6.249-6.902H1.747c-.497 0-.746-.249-.746-.746s.249-.746.746-.746h26.58l-6.249-6.902c-.373-.373-.373-.746 0-1.119s.746-.373 1.119 0c4.912 5.409 7.399 8.145 7.461 8.207.124.124.187.311.187.56s-.062.435-.187.56l-7.461 8.207c-.124.124-.311.187-.56.187s-.435-.062-.56-.187z"/></symbol><symbol viewBox="0 0 32 32" id="arrow-right-long-up-secondary" xmlns="http://www.w3.org/2000/svg"><path d="M24.813 9.922c-.373.373-.746.373-1.119 0l-6.902-6.249v26.58c0 .497-.249.746-.746.746s-.746-.249-.746-.746V3.673L8.398 9.922c-.373.373-.746.373-1.119 0s-.373-.746 0-1.119c5.409-4.912 8.145-7.399 8.207-7.461.124-.124.311-.187.56-.187s.435.062.56.187l8.207 7.461c.124.124.187.311.187.56s-.062.435-.187.56z"/></symbol><symbol viewBox="0 0 32 32" id="arrow-right-right-long" xmlns="http://www.w3.org/2000/svg"><path d="M30.029 16.17L19.312 5.123c-.165-.165-.495-.165-.66 0s-.165.495 0 .659l10.057 10.222H2.494c-.165 0-.495.165-.495.495s.165.495.495.495h26.05L18.487 27.216c-.165.165-.165.495 0 .66s.495.165.66 0l10.717-11.047c.165 0 .33-.165.33-.33s0-.33-.165-.33z"/></symbol><symbol viewBox="0 0 32 32" id="arrow-right-up-long" xmlns="http://www.w3.org/2000/svg"><path d="M16.17 1.971L5.123 12.688c-.165.165-.165.495 0 .659s.495.165.659 0L16.004 3.29v26.215c0 .165.165.495.495.495s.495-.165.495-.495V3.455l10.222 10.057c.165.165.495.165.66 0s.165-.495 0-.659L16.829 2.136c0-.165-.165-.33-.33-.33s-.33 0-.33.165z"/></symbol><symbol viewBox="0 0 32 32" id="check" xmlns="http://www.w3.org/2000/svg"><path d="M30.535 10.412L16.463 24.484l-2.938 2.783c-.309.309-.773.464-1.237.464s-.928-.309-1.237-.464l-2.783-2.783-6.804-6.958C1.155 17.371 1 16.907 1 16.289c0-.464.309-.928.464-1.237l2.783-2.783c.309-.309.773-.464 1.237-.464s.928.309 1.237.464l5.567 5.876 12.68-12.68c.309-.309.773-.464 1.237-.464s.928.309 1.237.464l2.783 2.783c.464.309.773.464.773.928s-.309.928-.464 1.237z"/></symbol><symbol viewBox="0 0 32 32" id="circle" xmlns="http://www.w3.org/2000/svg"><path d="M31 16c0 8.284-6.716 15-15 15S1 24.284 1 16C1 7.716 7.716 1 16 1s15 6.716 15 15z"/></symbol><symbol viewBox="0 0 32 32" id="ex" xmlns="http://www.w3.org/2000/svg"><path d="M30.25 23.407c.5.498.75.996.75 1.743s-.25 1.245-.75 1.743l-3.375 3.361c-.5.498-1 .747-1.75.747-.625 0-1.25-.249-1.75-.747L16 22.91l-7.375 7.344c-.5.498-1 .747-1.75.747s-1.25-.249-1.75-.747L1.75 26.769c-.5-.498-.75-.996-.75-1.743s.25-1.245.75-1.743l7.375-7.344L1.75 8.595C1.25 8.097 1 7.599 1 6.852c0-.622.25-1.245.75-1.743l3.375-3.361c.5-.498 1-.747 1.75-.747.625 0 1.25.249 1.75.747L16 9.092l7.375-7.344c.5-.498 1-.747 1.75-.747.625 0 1.25.249 1.75.747l3.375 3.361c.5.498.75.996.75 1.743 0 .622-.25 1.245-.75 1.743l-7.375 7.344 7.375 7.469z"/></symbol><symbol viewBox="0 0 32 32" id="exclamation-mark" xmlns="http://www.w3.org/2000/svg"><path d="M14 1h3.649a2 2 0 0 1 2 2v.041l-.367 17.892a2 2 0 0 1-2 1.959h-2.857a2 2 0 0 1-1.999-1.953l-.424-17.892A2 2 0 0 1 13.954 1l.047-.001zm.765 23.514h2.191a2 2 0 0 1 2 2V29a2 2 0 0 1-2 2h-2.191a2 2 0 0 1-2-2v-2.486a2 2 0 0 1 2-2z"/></symbol><symbol viewBox="0 0 32 32" id="facebook" xmlns="http://www.w3.org/2000/svg"><g fill="none"><path fill="#3B5998" d="M23.852 1C28.187 1 31 3.813 31 8.148v15.704C31 28.187 28.187 31 23.852 31H8.148C3.813 31 1 28.187 1 23.852V8.148C1 3.813 3.813 1 8.148 1h15.704z"/><path fill="#FFF" d="M16.693 30.852v-11.62h-3.775v-4.179h3.775V11.99s-.272-6.368 5.24-6.368h4.458v4.257h-2.778s-2.044-.111-2.066 2v3.175h4.494l-.648 4.179h-3.891V31h-4.809v-.148z"/></g></symbol><symbol viewBox="0 0 32 32" id="info" xmlns="http://www.w3.org/2000/svg"><path d="M19.018 15.655c.046-.093.046-.185.046-.278v-4.128a.93.93 0 0 0-.928-.928H9.927a.93.93 0 0 0-.928.928v4.128c0 .51.417.928.928.928h2.458v8.626H9.927a.93.93 0 0 0-.928.928v4.128c0 .51.417.928.928.928h11.595a.93.93 0 0 0 .928-.928v-4.128a.93.93 0 0 0-.928-.928h-2.458l-.046-9.276zM12.617 1h4.87a.93.93 0 0 1 .928.928v4.128a.93.93 0 0 1-.928.928h-4.87a.93.93 0 0 1-.928-.928V1.928A.93.93 0 0 1 12.617 1z"/></symbol><symbol viewBox="0 0 32 32" id="invisible" xmlns="http://www.w3.org/2000/svg"><path d="M23.844 9.742c2.081 1.372 4.383 3.586 6.906 6.641-1.063 1.151-1.815 1.948-2.258 2.391s-1.262 1.184-2.457 2.225c-1.195 1.04-2.225 1.804-3.088 2.291s-1.937.952-3.221 1.395a11.745 11.745 0 0 1-3.852.664c-2.214 0-4.25-.487-6.109-1.461l-5.113 5.113-1.527-1.527 4.715-4.715c-1.328-.93-3.608-3.099-6.84-6.508 2.833-3.099 5.379-5.39 7.637-6.873s4.671-2.225 7.238-2.225c2.036 0 4.073.509 6.109 1.527l5.113-5.18 1.527 1.527-4.781 4.715zM9.898 16.25c0 1.195.354 2.324 1.063 3.387l1.793-1.793c-.221-.398-.332-.93-.332-1.594 0-.974.332-1.804.996-2.49s1.483-1.029 2.457-1.029h.531c-.354.443-.531.908-.531 1.395 0 .221.022.398.066.531l3.387-3.32a5.66 5.66 0 0 0-3.453-1.129c-1.638 0-3.044.598-4.217 1.793s-1.76 2.612-1.76 4.25zm5.977 6.043c1.638 0 3.044-.598 4.217-1.793s1.76-2.612 1.76-4.25c0-1.24-.354-2.391-1.063-3.453l-3.32 3.387c.133.044.31.066.531.066.443 0 .885-.155 1.328-.465v.465c0 .974-.332 1.804-.996 2.49s-1.483 1.029-2.457 1.029c-.62 0-1.151-.133-1.594-.398l-1.859 1.793a5.66 5.66 0 0 0 3.453 1.129z"/></symbol><symbol viewBox="0 0 32 32" id="newsletter" xmlns="http://www.w3.org/2000/svg"><g fill="none" fill-rule="evenodd"><path fill="#417505" fill-rule="nonzero" d="M23.852 1C28.187 1 31 3.813 31 8.148v15.704C31 28.187 28.187 31 23.852 31H8.148C3.813 31 1 28.187 1 23.852V8.148C1 3.813 3.813 1 8.148 1h15.704z"/><path fill="#FFF" fill-rule="nonzero" stroke="#FFF" d="M7.581 13.938v12.086h17.277V13.938z"/><path fill="#FFF" d="M16.085 5.961l9.128 7.632H7.241z"/><path stroke="#FFF" d="M16.09 6.617l-7.504 6.476h15.249z"/><path fill="#FFF" d="M16.237 21.967l8.853-8.048H7.384z"/><path stroke="#417505" d="M16.237 21.29l-7.56-6.871h15.119z"/><path fill="#FFF" fill-rule="nonzero" d="M9.481 7.045h13.658v7.583l-1.38.753H10.634l-1.153-.614z"/><path fill="#417505" fill-rule="nonzero" d="M19.244 17.636c.238.088.588.238 1.05.45-.996.995-2.306 1.493-3.933 1.493-1.658 0-2.985-.51-3.982-1.531-.998-1.02-1.496-2.362-1.496-4.025 0-1.69.505-3.075 1.515-4.158 1.01-1.082 2.331-1.624 3.963-1.624 1.57 0 2.834.47 3.792 1.407.959.937 1.438 2.189 1.438 3.753 0 .88-.232 1.628-.696 2.242-.463.614-1.076.92-1.837.92-.824 0-1.42-.18-1.788-.543-.44.404-.96.606-1.562.606-.554 0-1.002-.152-1.344-.455-.342-.303-.513-.71-.513-1.224 0-.652.28-1.15.84-1.492.559-.341 1.315-.512 2.269-.512-.078-.762-.384-1.143-.917-1.143-.544 0-.974.145-1.29.435l-.373-.769c.424-.316.942-.474 1.554-.474 1.44 0 2.16.826 2.16 2.479v1.857c.373.275.689.412.948.412.964 0 1.445-.787 1.445-2.362 0-1.197-.388-2.194-1.165-2.992s-1.764-1.197-2.96-1.197c-1.311 0-2.368.454-3.171 1.36-.803.907-1.205 2.065-1.205 3.474 0 1.383.398 2.497 1.193 3.341.795.844 1.856 1.267 3.182 1.267 1.197 0 2.158-.332 2.883-.995zm-2.284-2.152v-1.819h-.397c-1.01 0-1.515.415-1.515 1.244 0 .28.098.51.295.691.197.181.443.272.738.272.327 0 .62-.13.879-.388z"/></g></symbol><symbol viewBox="0 0 32 32" id="pin" xmlns="http://www.w3.org/2000/svg"><path d="M13.429 18.963c.692.167 1.406.251 2.143.251s1.451-.084 2.143-.251v10.965c0 .29-.106.541-.318.753s-.463.318-.753.318h-2.143c-.29 0-.541-.106-.753-.318s-.318-.463-.318-.753V18.963zM9.511 3.511C11.185 1.837 13.205 1 15.571 1s4.386.837 6.06 2.511c1.674 1.674 2.511 3.694 2.511 6.06s-.837 4.386-2.511 6.06c-1.674 1.674-3.694 2.511-6.06 2.511s-4.386-.837-6.06-2.511C7.837 13.957 7 11.937 7 9.571s.837-4.386 2.511-6.06zm6.06 1.239c.156 0 .285-.05.385-.151s.151-.229.151-.385-.05-.285-.151-.385-.229-.151-.385-.151c-1.629 0-3.019.575-4.169 1.724S9.678 7.941 9.678 9.571c0 .156.05.285.151.385s.229.151.385.151.285-.05.385-.151.151-.229.151-.385c0-1.328.472-2.464 1.415-3.407s2.079-1.415 3.407-1.415z"/></symbol><symbol viewBox="0 0 32 32" id="rss" xmlns="http://www.w3.org/2000/svg"><g fill="none"><path fill="#F8991D" d="M23.852 1C28.187 1 31 3.813 31 8.148v15.704C31 28.187 28.187 31 23.852 31H8.148C3.813 31 1 28.187 1 23.852V8.148C1 3.813 3.813 1 8.148 1h15.704z"/><path fill="#FFF" d="M6 22.928a2.821 2.821 0 1 1 5.643 0 2.821 2.821 0 0 1-5.643 0zm19.749 2.821h-3.761c0-8.816-7.172-15.988-15.988-15.988V6c10.89 0 19.75 8.86 19.75 19.749zm-6.583 0h-3.761c0-5.186-4.22-9.404-9.405-9.404v-3.762c7.26 0 13.166 5.906 13.166 13.166z"/></g></symbol><symbol viewBox="0 0 32 32" id="search" xmlns="http://www.w3.org/2000/svg"><path d="M30.4 27.1l-6.2-6.2c1.5-2.2 2.2-4.5 2.2-7.2 0-1.7-.3-3.4-1-4.9-.7-1.6-1.6-2.9-2.7-4.1-1.1-1.1-2.5-2-4.1-2.7s-3.2-1-4.9-1c-1.7 0-3.4.3-4.9 1-1.6.7-2.9 1.6-4.1 2.8-1.1 1.1-2 2.4-2.7 4S1 12 1 13.7c0 1.7.3 3.4 1 4.9.7 1.6 1.6 3 2.7 4.1s2.5 2 4.1 2.7c1.6.7 3.2 1 4.9 1 2.6 0 5-.7 7.2-2.2l6.2 6.2c.4.5 1 .7 1.6.7s1.2-.2 1.6-.7c.5-.5.7-1 .7-1.6 0-.7-.2-1.2-.6-1.7zm-11-7.7c-1.6 1.6-3.5 2.4-5.7 2.4S9.6 21 8 19.4c-1.6-1.6-2.4-3.5-2.4-5.7S6.4 9.6 8 8c1.6-1.6 3.5-2.4 5.7-2.4s4.1.8 5.7 2.4c1.6 1.6 2.4 3.5 2.4 5.7 0 2.3-.8 4.2-2.4 5.7z"/></symbol><symbol viewBox="0 0 32 32" id="twitter" xmlns="http://www.w3.org/2000/svg"><g fill="none"><path fill="#1DA1F2" d="M23.852 1C28.187 1 31 3.813 31 8.148v15.704C31 28.187 28.187 31 23.852 31H8.148C3.813 31 1 28.187 1 23.852V8.148C1 3.813 3.813 1 8.148 1h15.704z"/><path fill="#FFF" d="M7.67 8.705s3.403 4.232 8.59 4.486c0 0-1.059-2.806 2.105-4.73 0 0 2.571-1.51 5.052.935 0 0 1.119-.054 2.468-1.046 0 0 .198.913-1.56 2.38 0 0 .978-.079 2.089-.806 0 0-.212 1.256-2.024 2.168 0 0 .552 9.94-9.148 12.115 0 0-5.13 1.158-8.742-1.676 0 0 3.832.399 5.868-1.737 0 0-2.555.24-3.812-2.774 0 0 1.277.22 1.796-.2 0 0-2.695.02-3.293-4.011 0 0 1.098.559 1.816.459 0 0-3.05-1.884-1.206-5.563"/></g></symbol><symbol viewBox="0 0 32 32" id="visible" xmlns="http://www.w3.org/2000/svg"><path d="M15.875 7.75c4.87 0 9.828 2.855 14.875 8.566-1.195 1.195-1.959 1.948-2.291 2.258s-1.14.996-2.424 2.059c-1.284 1.063-2.324 1.793-3.121 2.191s-1.848.819-3.154 1.262a12.037 12.037 0 0 1-3.885.664c-1.594 0-3.055-.199-4.383-.598s-2.656-1.085-3.984-2.059c-1.328-.974-2.369-1.804-3.121-2.49S2.506 17.799 1 16.249c2.878-2.878 5.434-5.014 7.67-6.408s4.637-2.092 7.205-2.092zm0 14.543c1.638 0 3.044-.598 4.217-1.793s1.76-2.612 1.76-4.25-.587-3.055-1.76-4.25-2.579-1.793-4.217-1.793c-1.638 0-3.044.598-4.217 1.793s-1.76 2.612-1.76 4.25.587 3.055 1.76 4.25 2.579 1.793 4.217 1.793zm0-8.168c0 .62.199 1.129.598 1.527s.908.598 1.527.598c.443 0 .885-.155 1.328-.465v.465c0 .974-.332 1.804-.996 2.49s-1.483 1.029-2.457 1.029c-.974 0-1.793-.343-2.457-1.029s-.996-1.516-.996-2.49c0-.974.332-1.804.996-2.49s1.483-1.029 2.457-1.029h.531c-.354.443-.531.908-.531 1.395z"/></symbol><symbol viewBox="0 0 32 32" id="warning-sign" xmlns="http://www.w3.org/2000/svg"><path d="M30.685 26.326L18.93 2.77c-.324-.602-.833-1.157-1.435-1.435-1.62-.787-3.563-.139-4.35 1.435L1.39 26.234c-.139.278-.278.602-.324.926-.416 2.036 1.203 3.841 3.193 3.841h23.51a3.63 3.63 0 0 0 1.435-.324c1.62-.833 2.268-2.777 1.481-4.35zm-22.677-.88l8.053-16.059 8.006 16.059H8.008z"/></symbol></svg>