<svg width="175" height="38" xmlns="http://www.w3.org/2000/svg"><g fill="#FFF" fill-rule="nonzero"><path d="M19.5.3A18.6 18.6 0 0 0 .8 18.9a18.7 18.7 0 0 0 37.5 0A19 19 0 0 0 19.5.3zm0 36.4c-1.1.1-2.1 0-3.1-.1v-.7c0-.1 1 .1 1.1.4.1.3-.1-1.1.1-1.3.2.2.7.7 1.1.7.2 0 .4-.5.5-.9l.2-.4c.4.2.9.6 1 1.2l1.3-.7V36c.4-.1 1-.4 1.2-.1l.1.5c-1.1.2-2.3.3-3.5.3zm13.8-6.3c0-.2-.4-.2-.1-.7.1-.4.6.4.6-.4.1-.5-.1-1.1-.1-1.6-.1-.7.7-1.2.2-1.9-.2-.1-.7.2-1.2.1.4-.2.6-.6.7-1.2.2-1.1 1.5-.4 1.5.2.6-.4.6-.6.6-1.1-.1-.4-.1-.5-.6-.6.5-.6.7-1.1.2-1.8l-.2-.4-.9-.2c-.2-.1-.1-.6 0-.7.2-.6 1.2-1.2 1.8-.5.6.7-1.1 2.7 1 3.2v-.1c.1-.2-.4-.5-.1-1 .1-.1.2-.5.1-.6.1-.1.5-.4.2-.6-.3-.2-.6-.2-.6-.4-.1-.2 0-.6.1-.7.1-.5.2-.7-.1-1.2-.2-.4-.4-.2-.7-.2.1-.2-.1-1-.6-.7-.4.2-.6.7-1.1 1.1-.4.4-.6.6-.7 1-.1.4 0 .6.1 1.1-.2.5-.6.4-.4 1.2 1.1-.1 2 .1 1.7 1.8-.1.1-1 .6-1.2.5.1-.2.1-.7-.1-1.1-1-1.2-1.5-1.8-.7-3.3.1-.4.4-.6.6-1.1.4-.6-2.4-2.2-2.7-2.2a3 3 0 0 0-1.1-.2l-.4.2a3 3 0 0 0-1.8 2.2l1.2-.9c.7-.4 1.5-.7 2.3.2l-.4.4c-.6-.4-.9-.6-1.6-.4l-.5.4-1.5 1.3-.1.1c-.4.2-.6.1-.9.4-.1.5.2.6.2 1 .1.5-.2.9-.2 1.3l.2 1c-.1.6-.4 1-.1 1.6.4-.1.7-.4 1-.6.9-.7-.1-.7-.1-1.3-.1-.4.1-.2.6-.4.1-.7-.5-1-.1-1.6v-.1l.1-.1c.1-.2.5-.1.7-.2l.8-.4-.2.1-.4.2c-.2.1-.1.2-.1.4.2.6.5.7 1 1l.4.4.6.2c.1.1.4.4.4.6.1.7-.2 2.2.5 3.2l.5.4c.2.1.7.1 1 .5l.1 1c0 .4.2.7.1 1.2-.1.6-.7.9-.6 1.7l.1.2.2.2-.2.2c-.9.9-1.8 1.6-2.8 2.3l.2-1.2-1.5-.1c-.1 0 .4-1 .2-1.2-.6-.2-1.8 0-1.8.1.1-.2.2-1.1.1-1.5l-.6.2-.4.1c-.9.2-2 .5-2.7 1.6-.4.6-.6.7 0 .4.6-.4 1.1-.2 2.1-.4 0 .7-.2 1-.5 1.6.7-.4 1-.5 2.2-.7.1 1.3-.2 1.2-.5 1.6 1.7-.5 2.2-.7 1.6.5-.9.5-1.8.9-2.8 1.2l-.7-.4c.1-.2 0-.4-.1-.6l.1-.4c-.2.2-.9.2-1.4.3l-.1-.5-.2-.9-1.7.6c-.1-.5-.9-.7-1.2-1.1l-1 1.1-1.3-.5-.5-.3c.1.6-.2 1-.2 1.5-.6-.2-1.1-.5-1.7-.4l.1.4v1l.1.1c-.4.1-.9.1-1.1.4-.9-.2-1.7-.6-2.6-1l-.1-.4-.1-.7c.5-.1 1.1.7 1.8.6-.2-.4-.2-1.1-.2-1.6.6-.1 1.3.6 2.2.4l-.4-1.3c.5 0 1.2.5 1.5.4.2 0 .5-.1 0-.4-.5-1.5-1.8-1-2.8-1.7-.2.4-.4 1-.4 1.5l-.7-.2c-.4 0-.7.2-1.1-.1v1.3l-1-.1h-.7l.2 1.2c-1-.7-2-1.5-2.8-2.3l.4-.5c.3-.4.6-1.1.5-1.7-.2-.4-.9-.9-1.1-.9l-.4-.1c-.2-.2-.2-.9-.2-1.3.6-.1 1.1-.1 1.1-.7l.4-.1c.5-.2.6-1.3.1-1.7l.1-.6-.1-.5c.1-.6 1.8-1.5 1.6.1-.1.6-1 1.3-.9 1.6l.5.2c.9.4 1 .5 1.1 1 .2.4.4-.4.6-.5.5-.1.1.6.2.7 0 .4.9.9 1.2 1l.1-1c.1-.1.4.7.5.7.2-.6.1-1.8-.7-1.9-.5-.1-.7.1-1.2-.1l-.9-.4c0-.5.5-.6.6-1.1.1-.2-.1-.6-.1-.9.2-1 .2-1.5-1.1-1.1l-.5.1c0-.2 1.3-.7 1.6-1 .2-.2.6-1 .2-1.3-.5-.4-2.3-.6-2.9-.1-.4.1-.6 1.6-.7 1.9l-.2.2v.4l-.2.2c-.2 1-.4 1.8-.2 2.8.1.2.1.5 0 .2-1.6-2.1 1.3-4.6.9-6.9l-.2-.7c-.2-.2.1-.6.4-.1l.2.7.2.2c.6.1 1 0 1.2-.2l.4-.2c.2 0 .2.2.2.5v.4l1-.1c.2 0 1 .5 1.1.7.1.1.1.2 0 .4s-.7 1.2-.5 1.3l.6.2c-.1.4-.6.2-.7.6-.1.4.5 1.3.7 1.5l.2-.9.1 1c.4 0 .7-.7.7-1.1v-.4c-.2-.2-.2-.4-.2-.7 0-.6.4-2.1.1-2.4l-.6-.4c-.1-.2-.2-.2-.4-.2-.2-.1-.4-.5-.7-.6l-.2-.1a1 1 0 0 0-.2-.5c-1-1-1.6-.2-2.4 0-.3-.3-.3-.5 0-.7l1.3-.7.2.1c.7.2 1 .7 1.5 1.2.2.1.4.4.6.4l.5-.2c0-.3-.4-.6-.4-.8-.1-.5-.1-.7-.4-1.1-.4-.9-1.1-.9-1.5-.7-1.5.5-2.7 1.1-4.2 2.4-.2.2.4.7.4 1.1v.2c.1 1-.2 1.7-.5 2.4-.1.5-.1 1.1-.4 1.5-.1.2-.5.5-.9.6-2.2.4-.6-2.6-.2-3.2l.5-1.2v-.1c.4-1.5-.4-2.4-1.3-3-.5-.4-.9-.5-1.1-1.1-.2.4-.2.7-.2 1 0 1 .5 1.5.9 2.1-.7-.1-1.2.5-1.3 1.3v.2l.9-.2h.1c.2 0 .5 0 .6.2l.1.4c-.1 1.3-1.2 2.2-1.1 3.5.1.9.9.7 1.1 1.2.2.2.1 1 .1 1.3.7-.1 1-1.1 1.5-1.5l.1.2c.1.7.5 1 .7 1.6-.2.1-1 .2-1 .6-.2.2.4 1.5.4 1.8v.7c.1.2.2.2.6.2.1.2.1.6-.1.9A17.8 17.8 0 0 1 6.8 6C10.1 2.7 14.5.8 19.5.8c5 0 9.5 2.2 12.8 5.5a17.8 17.8 0 0 1 1 24.1zm-1.6-8.5c-1.2-1.3-.5-1.8-1-2.4-.2-.2-.2-.1-.6.1-.1.1 0 .1 0 .1l.4-.7c.5-.2.7-.6 1.1-1 .2-.4.4-.1.6.1-.2.2-.5.6-.6 1-.4.7-.2 1.6.2 2.3.4.7 1.1 1.5 1.1 2.4.1.5-.1 1.1-.2 1.5l-.2-.1c.4-1.3 0-2.4-.8-3.3z"/><path d="M15.9 12.9c-1.2.6-2.4.7-3.7.7-.7.1-1-.1-1.2-.6-.1-.2 0-.2.1-.1.2.1.4.5.7.6.1-1.3 1.1-2.2 1.8-3.2.2-.2.5-.4.5-.7.2-.6-.6-2.1-1-2.4-.2.1.2.6-.2.6l-.1-.1c.1-.2.1-.7-.1-.9-.5-.2-1.1-.1-1.6-.2-.9-.2-1.3-.7-1.7-1.1-.4.4-.5.9-.4 1.5-.7.1-1.7.4-2.2.7.5.5 1.1.7 2.1.7.1.5.6 1.1 1 .7.5-.6 2.2-1.1 2.8-.7.2.1-.2.5-.4.6-.5.9-2.6 3-2.1 4.1l.5.7c.1.4.1.5.6.9s3.7-.7 4.4-1.3c.2-.1.3-.5.2-.5zm9.9 14.4l1-.1c.5-.2.2-.4.5-.9.2.1.4.1.5.4.2 0 .5-.2.7-.1.6 0 1.3.7 2 .5l.1-.2c.4-1.5-1.5-1.7-1.1-3.3.1-.2.2-.5.4-.6-.4-.1-1-.4-1.5-.2-.4.1-.5 1.5-.4 1.8.1.4.5.6.7.9l.2.6c-.6 0-2.4-.5-2.9-.1l-.2.9c.1-.2 0 .2 0 .4zM24 23.6a8 8 0 0 0-2.2 0v.4l.4-.1-.2.5.2.1.1-.9.2-.1v1.2h.5l-.1-1.2.4.1.2.9.2-.1-.2-.6.2.1.3-.3zm-2.1-1l-.1.5 2.3.1-.1-.4h-.4l.1-.7.5-.2-.4-.1c.2 0 .4-.1.5-.4H24l.5-.2c-.1-.2-.1-.2-.3-.2l.4-.2h-.3c.2-.1.3-.1.3-.3l-.2.1.1-.5c-.2 0-.3.1-.3.3l-.2-.1v.5l-.2-.1c-.1.1 0 .4.1.5 0-.2-.2-.2-.2-.2v.5l-.2-.1c-.1.2-.1.4.1.6l-.2-.1c0 .1 0 .4.2.4l-.2.9h-.2L23 22c.2 0 .2-.2.4-.5l-.4.1c.2-.1.4-.2.4-.5l-.4.1c.1-.1.4-.2.4-.6h-.2c.1 0 .2-.1.2-.4h-.2v-.3l-.2.2c0-.1.1-.4-.1-.5-.2.2-.2.2-.1.5l-.2-.1c-.1.1.1.5.1.5h-.2l.2.4-.2-.1.2.5-.2-.1.2.4h-.2c.1.1.1.5.4.5l-.1 1.1h-.2l-.2-.8.1.5-.6-.3z"/><path d="M21.2 20.6c0 .1.1.2.3.2l.1.1-.2.1c.1.2.2.4.5.4h-.4l.3.3h-.2c.2.1.2.4.5.2l.1.2c.2-.1.2-.2.2-.5l-.2.1v-.5l-.1.1v-.5l-.2.1c.1-.1.2-.2.1-.5l-.2.1c.1-.1.1-.1 0-.4l-.1.1-.2-.4c-.1.2-.1.5.1.6l-.1-.1-.3.3zM14.9 7.5c.1.4-.1.7.1 1.1 0 .1.5.6.7.6l.4.2c.1 0 .2-.7.1-1 0-.4-.2-.2-.5-.4s.1-.2.2-.2c.1-.1-.5-.7-.2-.7h.6c-.1.4.1.7.5.9l.4.1c.1.5-.6 1.5-.6 1.6-.1.2-.1.6.1 1 .1.2.5-.1.6-.2.4-.5.2-.5.1-1 .2-.2.4.1.5-.2.1-.6.4-1.6.6-1.8h.1c-.1.1-.4.7-.2.9.5.1 1.5-.6 1.8-.2l.2.4c-.5.4-1 .6-1.1.9l-.1.2-.1.1c-.1.2-.1.6.1.7.2.1.9-.4.9-.5l-.1-.5.2-.2c0 .2 0 .4.1.2l.9-.9c.5.2.7-.4.5-.5-.4-.1-.9-.6-1.1-1l.1-.1c.1.2.2.9 1.2 1 .1.5-.1 1.1-.1 1.6l-.2.4-.1.1h.2l-.1.6c.5-.2 1.1-.4.8-.7l-.1-.2c-.1-.2.1-.2.1-.2.2.1.1-.4.2-.7l.1-.2.3-.7.2-.2c.1-.1-.2-.4-.5-.6.4-.2.5-1.1.1-2.1h.2c.2.2.4.5.4 1 .1.6-.5 1.3.2 1.3l.2-.2c.4-.1.4-.2.5-.5.4-1.3-.2-2.4-1.8-2.3h-.7c-.6.1-.6 0-1.1.2-.2.1-1 0-1.5.4l-.2.1-2-.1-.7.1-.2 1-1.1.4c-.1.1-.2.5 0 .6v.4h-.1zm1.9-4c.2.1.5.2.7.1.4-.2.6-.7.9-.6.1-.1-.7-.9-1-.7-.2-.1-.5.1-.6.2l-.7.2-.1.1.4.6c0 .3.4.1.4.1zm.3-1c.1-.1.2.1.4.1l-.4.2s-.2 0-.2-.2l.2-.1zM6.8 10.2c.2-.1.6.1.7.1.1-.4-.1-1.3-.7-1.2l.1.4c.1.1 0 .4-.1.7zM19.3 26c-.3-.1-.6 0-.7.1-.2 0-.2-.2-.4-.1-.4.4.1.5-.1.6l-.3.4v-.6c.2 0 .5-.5.5-.7-.1-.4-.2.1-.5.1 0-.4.5-.4.5-.9 0-.4-.4-.2-.5 0l.1-.4-.2-.4c-.5-.4-.7.1-.7.4l.1.2c-.1-.2-.5-.4-.4.2.1.2.4.2.5.6-.1.1-.4-.1-.5-.1-.1.1.2.9.5.7v.6c-.1 0-.2-.2-.5-.2.1-.2.4-.2.1-.5-.1-.2-.2-.1-.4-.1s-.1-.1-.2-.2h-.5l.1.4.2.4c-.1.1-.2.2-.1.4.6.4.5-.2.6 0l.3.3c-.2.3-.5.3-.5.3-.1-.2-.4-.2-.6-.2-.2.1.1.2.1.5-.1-.2-.4-.4-.6-.2-.5.2.4.4-.1.4-.4 0-.5.4-.2.4.1.1.5.1.6-.1 0 0 0 .5.1.4.4-.1.4-.5.5-.5-.1.1.1.4.1.4.2-.1.2-.4.4-.6l.2-.1c.1.5.1.6-.4.9l-.2.2c0 .2.4.1.4.1.2-.1.4-.1.2.1-.2.4.2.5.4 1 .1-.2.7-.6.5-.9l-.1-.2h.6c.4 0-.2-.2-.4-.5l-.1-.7.4.1c0 .2.1.4.4.6.1.1.1-.2.1-.4 0 .2.2.5.4.6.2.1.1-.1.2-.2h.5c.4-.1-.1-.6-.4-.5 0-.1.1-.4 0-.4l-.6.2c0-.1.1-.4 0-.4l-.5.2-.5-.1c.1-.2.4-.2.5-.5l.2.2h.2c.4-.1.1-.4.1-.5.5-.2.5-.3.5-.6l.1-.2zm-1.1-7.2c-.4-.5-1.8-2.2-2.3-1.6l-.2.2c.4.2 1 .6 1.6 1.5.1.5.5.9.7 1.3.2-.5.7-1 1.2-1.3.5-.5 1-.9 1.5-1.1.2-.1 1.1-.4 1.1-.6.1-.2-1.1-1.8-1.2-1.8l-5.7.4a10 10 0 0 1 3.2 2.2l.5-.6c-.2-.4-.7-.7-1.6-1.3 1.2.2 2 .5 3.4.1l.5.7a8.8 8.8 0 0 0-2.7 1.9zm11.7-4.6l-.2 1c1.3.4 3.2 1.3 4 2.6l.7-.5c-.5-1.5-3.1-3-4.5-3.1zM19.2 13l-.6-.1-2.3.1-.1.4-.5.7 1.8.2.9-.2.1.2-.7.2c-.9.1-1.5-.5-2.3-.2l-1.6 1.3 6.5-.5-.4-.5c-.4-.3-.7-.9-.8-1.6z"/><path d="M21.6 9.9l-.9-.1-.1.7v.1h-1.7l-.1-.7-1 .1.1.9-1.1.2-.4-.9-.6.2.6 2.3c1.2-.5 5.3-.6 6.7-.1 0-.6.2-1.8.6-2.3l-.7-.2-.2.7-1.1-.2v-.1c-.1 0-.2-.4-.1-.6zm-5.3-5.7v.1l.1.5h2.7l.1-.5h-.1a9 9 0 0 0-2.8-.1zm18 11c-.2.2-.2.1-.4 0-.2-.2.1-.4.2-.7v-.4c-1 .1-2 0-2.8-.1l-.1.1c0 .1-.1.2 0 .1.2-.1 3.1 1.5 3.3 2.3.1.2.4-.5.5-.9a2 2 0 0 0 1.5-1.9c0-.2-.4.7-.7.4.4-.5.6-1.3.2-1.9-.1.1-.1.2-.4.2.1-.7-.1-1.1-.5-1.3l-.1.7-.4.6c.9.7.1 2.2-.3 2.8zM17.3 2c.5-.2 1 .4 1 .5.2.1.4.4.4.6h-.4c-.5.1-.4.7-1.5.7-.1.2 0 .1.6.1h1.5l.1-.5c.2.2.4-.1.7-.2l-.1-.4c-.1-.3-.6 0-.4-.1.1-.1.1-.5-.2-.6.1-.2-.1-.4-.4-.4-.5-.4-.6 0-.9-.1-.3-.2-.7.3-.4.4zm-12 14.4c.4-.7 3.4-2.4 4-2.6-.1-.1-.2-.4-.6-.4-.2.1-.2.4-.6.5h-.7c-.4.4-.7 1.1-1.6.9-.4-.2.1-.7-.2-1-.1-.1.1-.4.2-.2.4.6 0 .7.4.9.5.1.9-.7 1.2-.9.3-.2 1 .2 1.1-.2l-.2-.6.2-.7c.1-.4-.1-.2-.1-.4.5-.1.5-.7.5-1.1h-.6l-.4.2c-.2 0-.1-.4-.4-.4h-.6l-.2-.1-.1.2c-.1.6.4.4.1.7-.1.1-.1.5-.4.5l-.6-.1c0-.5.4.1.6-.2.1-.1 0-.2-.1-.4v-.7c-.2.1-.4.2-.5.5-1-.1-.6.7-.9 1.5-.9 0-1.2.2-1.6.7.5.1.7.4 1.1.4 0 .7-.1 1.1.2 1.6.2-.1.2-.2.5-.1.5.3.3.8.3 1.5zm2.6-3.3l-.1-.2c.2 0 .2.2.1.2zm-.5-1.5c.1-.1.5 0 .5-.2.1.6-.2.7-.7.6-.1-.1-.1-.2.2-.4zm0 .9l-.1.4c-.4.5-1.1-.1-.4.9.1.2-.4.2-.4.2l-.1-1 1-.5zm-1.6-.3c.2.1.5-.1.1.5h-.7c.1-.2.1-.5.6-.5z"/><path d="M32.1 10.8l.2.2c-.6-.1-.5.1-1 .5l-1 .4.1.1c.1.1 1-.1 1.3-.2.1-.1.2-.2.6-.2.4.1.2.2.9.6l.2.1-.9-.1-.1.1c-.2.1-.5 0-.7-.1a1 1 0 0 1-.5.2c-.4.1-.7.2-1.1 0l-.2-.4c-.2-.1-.5.2-.6.4-.1.2 0 .2.1.4-.1.9.6.1 1 .1l.5.1c.2.1-.2.1-.4.2l-.6.4-.1-.1c-.2.2.4.4 1.5.4l.5-.2.9.2c.6.1 1.1-.2 1.2-.5l.1-.4.4-.4c.2-.5-.1-.7-.4-.9.2-.2.5-.7.2-1.2-.1-.5-.1-.5-.2 0l-.2.6c-.1.1-.1 0-.4-.1 0-.7-.4-1.2-.4-.7l-.2.5c-.3-.3-1-.3-.7 0zM4.7 12v-.7l-1.2-.2c0 .7.4 1 1.2.9zM7 15.4c-.2.1-1.7 1.2-2 1.6l.4.2.2.4c1.3-1.3 3.1-2.2 4.4-2.6l-.4-1A8.2 8.2 0 0 0 7 15.4zm40.6 2.9c3.8 0 7-2.9 7-6.7 0-3.4-2.7-6.4-6.7-6.4-4-.1-7.2 2.9-7.2 6.6 0 3.9 3.2 6.5 6.9 6.5zm.1-11.2c2.7 0 4.2 2.4 4.2 4.9 0 2.6-1.6 4.4-4.2 4.4-2.7 0-4.3-2.4-4.3-4.7 0-2.5 1.7-4.6 4.3-4.6zm106.4 10.3l-.2.2.2.4 3.5.1.4-.5-.2-.2c-.6-.4-.6-.6-.6-1.9V12l3.8 5.1c1 1 2 .9 2.7 1h1.5l.2-.6a8 8 0 0 1-2.9-2.3l-2.4-2.9c1.2-.4 2.6-1.7 2.6-3.4.1-1.8-1.3-3.4-4-3.3h-4.3l-.4.2.2.4c.6.2.6.6.6 2.2v7.1c-.2 1.2-.3 1.6-.7 1.9zm3.3-9.8c.2-.1.6-.2 1-.1 1.2.1 1.8.7 1.8 1.7 0 1.2-1.3 1.8-2.8 2.2V7.6zm-41.6 22.5c-.9.5-1.8.9-2.8.9-2 0-3.3-1.7-3.3-3.6 0-1.8 1.3-3 3.1-3 1 0 1.7.4 2.4.7l.5-.2v-1.6l-.2-.2c-.9-.2-1.7-.4-2.6-.4-2.8 0-5.4 1.9-5.4 5.1 0 3 2.2 5.1 5.9 5.1a4 4 0 0 0 2.3-.6l.1-.2.7-1.5-.4-.4h-.3v-.1zm22.4-5.1c0-.6 0-1.5.5-1.6l.2-.4-.4-.4h-2.7l-.2.4.2.4c.5.1.4 1 .4 1.6v4.1c0 1.5-1.1 1.8-1.8 1.8-1.8 0-2.1-1.1-2.1-2.4v-3.6c0-.6-.1-1.5.4-1.6l.3-.3-.4-.4h-2.7l-.4.4.2.4c.6.1.5 1 .5 1.6v3.8c-.1 2.7 1.3 3.8 3.5 4 1.1-.1 2.2-.6 2.4-.9v.5l.2.2h2.1l.4-.4-.2-.2c-.6-.1-.5-1.1-.5-1.7V25h.1zm2.4-7.6l-.2.4.5.4 3.4.1.5-.5-.4-.2c-.5-.2-.6-.6-.6-1.9V8.5c-.1-1.5 0-1.9.7-2.2v-.4l-.2-.2h-3.4l-.2.2.1.4c.7.4.6.7.6 2.2v2.1h-6V8.5c0-1.5.1-1.9.7-2.2l.1-.4-.4-.2h-3.5l-.2.2.1.4c.6.1.7.7.7 2.3v6.9c-.1 1.5-.1 1.7-.6 1.9l-.2.2.2.4h3.5l.4-.4-.4-.2c-.5-.1-.6-.6-.6-1.9v-3.3l6 .1v3.3c0 1.3-.2 1.4-.6 1.8zm-17.8 4.9c-3.1 0-5.6 2.3-5.6 5.1 0 3 2.6 5.2 5.5 5.2 3.1 0 5.5-2.2 5.5-5.2 0-2.6-2.2-5.1-5.4-5.1zm-.1 8.8c-2 0-3.3-1.7-3.3-3.5 0-1.9 1.2-3.4 3.3-3.4 2.1 0 3.2 1.7 3.2 3.6 0 1.9-1.1 3.3-3.2 3.3zm1-22.6c.1-1 1-1.3 2.1-1.3 1.2 0 2 .5 2.7 1l.6-.1.1-2.2-.5-.2c-1-.2-2-.4-2.8-.4-2.6-.1-5 1-5 3.4 0 4.3 6.4 3.6 6.2 6.2-.1 1.1-1.2 1.5-2.3 1.5-1.5 0-2.7-.5-3.8-1.5l-.6.4.6 2.2.2.1c1 .5 2.2.6 3.4.6 3.3 0 5.3-2.1 5.3-4 .1-3.7-6.2-3.4-6.2-5.7zM148 22.7l-.4.4.2.2c.6.4.6.6.6 1.5v4.4l-5-6.2-.2-.2H141l-.2.4.1.2c.6.4.5.6.5 1.5v5.8c0 .9 0 1-.5 1.3l-.1.2.2.4h2.6l.2-.4-.2-.2c-.6-.4-.6-1-.6-1.8V26l4.5 5.6c.6.7 1 1.1 2 1.5l.4-.4v-8.1c0-.7.2-.9.6-1.2l.2-.2-.4-.2-2.3-.3zm25.9 7.6v-.1c-.1.1-.9 1-2.2.9l-1.6-.1v-6c0-.6-.2-1.3.4-1.6l.1-.2v-.1l-.2-.2h-2.7l-.4.2v.1l.2.2c.6.2.4 1.3.4 1.6v5.4c0 .6.1 1.5-.5 1.6l-.1.2v.1l.2.4h5.7l.4-.2.6-1.8-.2-.4h-.1zm.9-14.8l-.2-.5-.2.2c-1 .9-2 1.1-2.9 1l-2.1-.1v-3.8h1c1 0 1-.1 1.3.4l.2.1h.1l.2-.2v-2.1l-.4-.2-.5.1h-2.2V7.6l1.5-.1c1.3.1 1.5.1 2 .6l.2.1.2-.2.1-2.1-.4-.4h-.4l-6.4-.1-.2.4v.1l.1.2c.7.5.6.7.7 2.2v7.1c-.1 1.5-.2 1.8-.6 1.9l-.2.2.4.4h7.7l1-2.4zm-63.1-9.9h-4.6l-.2.2.2.5c.6.2.6.6.6 2.2v6.8c0 1.7-.1 1.9-.6 2.2l-.2.2.2.5h4.5c4.4 0 7.2-2.8 7.2-6.4 0-5.5-5.1-6.4-7.1-6.2zm-1.4 10.5V7.6c3.2-.5 5.9.6 5.9 4.4-.2 3.3-3 4.6-5.9 4.1zm52.3 6.7l-.4.2v.1l.2.2c.6.2.5.9.5 1.5v5.5c0 .6.1 1.3-.5 1.5l-.2.2.4.5h2.7l.4-.5-.2-.2c-.5-.1-.2-.9-.4-1.6V25c0-.6-.1-1.5.4-1.6l.2-.2v-.1l-.2-.2h-2.9v-.1zm-2.1 7.5c-.9.4-1.8.9-2.7.9-2.1 0-3.4-1.7-3.4-3.6 0-1.8 1.3-3 3.1-3 1 0 1.8.2 2.4.7l.5-.2v-1.6l-.2-.4c-.9-.2-1.7-.2-2.6-.2-2.8 0-5.4 1.9-5.3 5.1 0 2.9 2.1 5.1 5.7 5.1 1.2 0 2.2-.4 2.3-.6l.1-.2.7-1.5-.4-.4c-.1-.3-.2-.3-.2-.1zm-9.9-14.8V8.3c0-1.6.1-1.9.6-2.2l.2-.2-.5-.4-3.3-.1-.4.5.2.4c.6.1.6.6.6 2.1v7.2c-.1 1.3-.1 1.8-.6 1.9l-.2.2.4.4h3.4l.5-.4-.4-.2c-.5-.4-.5-.9-.5-2zm-47.4-.3l-2.4-3a3.6 3.6 0 0 0 2.7-3.4c.1-1.8-1.3-3.4-3.9-3.3h-4.4l-.2.2V6c.6.2.6.7.6 2.2v7.1c-.1 1.3-.1 1.8-.6 1.9l-.4.5.2.4h3.5l.4-.4-.2-.2c-.6-.4-.5-.6-.6-1.9v-3.4l3.9 5.2c.9 1 1.8.9 2.6.9h1.3l.4-.6c-.6-.5-1.7-1.1-2.9-2.5zM98 11.3V7.5c.2-.2.6-.2 1-.2 1.3.1 1.8.7 1.8 1.7 0 1.4-1.3 1.9-2.8 2.3zm-41.8 11c-3.1 0-5.6 2.3-5.6 5.1 0 3 2.6 5.2 5.5 5.2s5.4-2.2 5.4-5.2c.1-2.6-2.1-5.1-5.3-5.1zm-.1 8.8c-2 0-3.3-1.7-3.3-3.5 0-1.9 1.2-3.4 3.3-3.4 2.1 0 3.2 1.7 3.2 3.6 0 1.9-1.1 3.3-3.2 3.3zm9.9-13h2.2l.1-.6c-.2 0-.9-.1-1.8-1.6l-3.1-4.6 4-5.1-.6-.6-3.4-.1-.4.5.4.2c.7.1.5.5.1 1l-1.7 2.3L59.4 6c-.2-.4-.4-.5-1-.5h-2.2l-.1.6c.6.1 1.1.9 1.3 1.5l2.6 3.8-4.9 6.3.4.4h3.7l.4-.4-.2-.2c-.7-.1-.4-.7-.1-1.1l2.4-3.2 2.9 4.3c.3.5.7.6 1.4.6zM26.7 8.2l.6-.1c.6-.1 1.8.9 2 .9.4-.1.7-.5.7-.7.9 0 1.3-.2 1.7-.7.2-.4.2-.4-.2-.6-.4-.2-1.3-.1-1.6-.4-.1-.1.1-.2 0-.4-.1-.4-.4-.6-1-.7-.2.4-.7 1-1.1 1.1l-1 .1-.7.2c-.2.4-.1 1 0 1.1l-.1.1c-.2.1-.1-1.2-.5-.7l-.2.6c-.1.4-.4.7-.4 1.1v.9l.4.6 2.2 2.8c.2.2.5-.5.6-.6l.1.1c0 .6-.5.7-1 .9-1 .2-2.8.1-3.9-.4l-.4-.2-1-.1c-.5-.1-1.6-.2-2.2 0-.4.2.1.7.2 1 .1.5 1 1.2 1.6 1.1-.4 1.2.6 1.8 1.2 2.1l.6.6c.4.1.5-.4.6-.6.5.1 1 .2 1.5.5.6-.6 1.1-2.2.9-2.2l-.5.1c-.4.1-.2 1.7-1.2 1.1l-.5-.9-.6-.1v-.1l-.1.1c.1.2.2 1.6-.1 1-.2-.4-.6-.5-.9-.7-.6-.4.4-1.5 0-1.6-.7 0-1.7-.5-2-1.1 1.7.1 2 .7 3.1 1.1 1.1.5 2.6.6 3.8.2l.9-.2.6-1.6c.2-1-1.2-2.7-1.7-3.2-.3-.5-1-1.3-.4-1.5zM49 30.3c-.9.4-1.8.9-2.7.9-2.1 0-3.4-1.7-3.4-3.6 0-1.8 1.3-3 3.1-3 1 0 1.7.2 2.3.7l.5-.2v-1.6l-.3-.5c-.9-.2-1.7-.2-2.6-.2-2.9 0-5.4 1.9-5.4 5.1 0 2.9 2.1 5.1 5.7 5.1 1.2 0 2.2-.4 2.3-.6l.1-.2.7-1.5-.4-.4c.3-.2.1-.2.1 0zM71.5 25c.1-.6 0-1.5.4-1.6l.2-.4-.2-.2h-2.7l-.4.2v.1l.1.2c.5.1.5 1.1.5 1.6v4.3c0 1.5-1.1 1.7-1.8 1.8-1.8 0-2.1-1.1-2.1-2.4V25c0-.7-.1-1.5.4-1.7l.2-.2V23l-.4-.1h-2.6l-.1.2v.1l.2.2c.5.2.4 1.1.4 1.7v3.8c-.1 2.7 1.3 3.9 3.5 4 1.1 0 2.2-.5 2.4-.7v.1l.4.2h2l.2-.2v-.1L72 32c-.6-.1-.5-1-.5-1.7V25zm-51.1-6.2H25v6.8c-.6 0-1.8 0-2.7-.5-.4-.2-.7-.7-1-1.3-.2-.7-.4-1.6-1-2.1-.5-.6-1.2-.6-1.8-.7-1-.2-1.3-.4-2-1.8v-.1c-.2-.6-1-1.1-1.6-1.1h-1.7v7.7c0 1.9 1 3.8 2.6 5v.1c1.1.7 2.4 1.6 3.8 2.1 1.3-.6 2.6-1.2 3.7-2.1 1.1-1 2-2.1 2.3-3.5h-.1c-.6-.1-3.4.1-4.5-.6-.5-.2-.9-1-1-1.2-.2-.7-.6-1.8-1-2.2-.6-.5-1.2-.5-2-.7-1-.2-1.7-1-2-1.8l-.2-.5v1.9c.4.6 1 1 1.6 1.1.6.2 1.5.2 2 .7.3.3.7 1.3.9 2.1v.1c.1.4.5 1 1 1.2 1.1.7 3.5.6 4 .6-.2.6-.7 1.2-1.2 1.7-1 .7-2.3 1.7-3.7 2.2-1.3-.5-2.6-1.3-3.8-2.2a5.3 5.3 0 0 1-1.7-4v-6.8l1.2.2c.2.2.4.5.5.9.2.9 1.1 1.6 2 1.8.6.2 1.3.2 1.8.7.4.5.7 1.5 1 2.2.1.4.6 1 1 1.2 1 .7 3.5.6 4 .6l.1-.9V18h-4.3l-.8.8zM85.9 5.2c-4-.1-7.1 2.9-7.1 6.6 0 3.9 3.2 6.6 7 6.6s7-2.9 7-6.7c0-3.5-2.8-6.5-6.9-6.5zm-.1 11.2c-2.7 0-4.3-2.4-4.3-4.7 0-2.6 1.6-4.5 4.2-4.5 2.7 0 4.3 2.4 4.3 4.9.1 2.5-1.6 4.3-4.2 4.3zm-12.7-.9v-3.2h1.3c.6 0 .9.2 1 .2l.2.1.5-.2v-1.9l-.4-.2-.6.1H73V7.6l1.8-.1c.7 0 1.2.2 1.5.6l.4.1.4-.2V5.7l-.4-.2-.2.1h-6.4l-.5.4.2.2c.7.2.6.9.6 2.2v7.1s.1 1.8-.6 1.9l-.2.4.2.4h3.5l.5-.4-.2-.2c-.6-.6-.5-.7-.5-2.1zm29.1 7.7l-.1-.5h-2.4l-.4.2v.1l.1.2c.5.1.4.6 0 1l-1.3 2.1-1.8-3c-.4-.7-1.1-.7-1.3-.7h-1.3l-.2.6c.4.1.7.6 1.2 1.3l2.2 3.6v2.2c0 .7 0 1.2-.4 1.5l-.1.5.2.4h2.8l.4-.4-.2-.2c-.6-.6-.6-.7-.6-1.2v-2.4l3.2-5.3zm-10.3-.4h-6.1l-.2-.2-.4.2-.5 1.7.4.5.2-.2c.5-.4.9-.5 1.5-.5h.9l-.1 6.1c0 .6.1 1.3-.2 1.5l-.4.2v.2l.4.4h2.8l.2-.4v-.1l-.2-.2c-.6-.5-.6-.6-.6-1.3v-6.2h1c.5 0 .6 0 1 .4l.2.2.4-.2.5-1.7-.2-.5c-.1-.1-.6.1-.6.1zm-10.5 0l-.4.2v.1l.1.2c.6.4.6.6.6 1.5v4.4l-5-6.2-.1-.2h-2.2l-.2.2v.1l.2.2c.6.4.6.6.6 1.5v5.8c0 1-.1 1.1-.6 1.3l-.2.2.2.4H77l.2-.4V32h-.1c-.7-.5-.6-1-.6-1.7V26l4.5 5.6c.6.9 1 1.1 2 1.5l.5-.2v-8.1c0-.7.1-1 .6-1.2l.2-.2v-.1l-.2-.2h-2.7v-.3z"/></g></svg>