<svg fill="none" height="25" viewBox="0 0 25 25" width="25" xmlns="http://www.w3.org/2000/svg" xmlns:xlink="http://www.w3.org/1999/xlink"><clipPath id="a"><path d="m0 0h25v25h-25z"/></clipPath><g clip-path="url(#a)"><path d="m12.5.390625c-6.68735 0-12.109375 5.423975-12.109375 12.109375 0 6.6893 5.422025 12.1094 12.109375 12.1094 6.6874 0 12.1094-5.4201 12.1094-12.1094 0-6.6854-5.422-12.109375-12.1094-12.109375zm0 5.371095c1.1326 0 2.0508.91816 2.0508 2.05078s-.9182 2.05078-2.0508 2.05078-2.0508-.91816-2.0508-2.05078.9182-2.05078 2.0508-2.05078zm2.7344 12.40238c0 .3235-.2624.5859-.586.5859h-4.2968c-.3236 0-.58598-.2624-.58598-.5859v-1.1719c0-.3236.26238-.586.58598-.586h.5859v-3.125h-.5859c-.3236 0-.58598-.2623-.58598-.5859v-1.1719c0-.3235.26238-.5859.58598-.5859h3.125c.3235 0 .5859.2624.5859.5859v4.8828h.5859c.3236 0 .586.2624.586.586z" fill="#d20000"/></g></svg>