<svg id="Ebene_1" xmlns="http://www.w3.org/2000/svg" width="250.1" height="81.2" viewBox="0 0 250.1 81.2"><title>Logo Stadt Zürich</title><style>.st0{fill:#0f05a0}.st1{fill:none}</style><path class="st0" d="M83 39c-.3 0-.6.1-.9.2-.4-1.4-.8-2.8-1.1-4.2l1.6-2.2c.2-.3 2.9-3.7 2.9-6.9 0-4.7-4-4.8-4.4-4.8-1 0-2.5.4-3.4 1.6-.9 1.1-1.1 2.6-.7 4.4.1.3 1 3.9 2 7.5l-1.6 2.1-3.5-13.4 8-5.9c2.2-1.7 3.5-4.4 3.5-7.2 0-4.3-3-8-7.1-8.9V.4L76.7 0v1L72.1.7h-1.5v3.7h1.5c.4 0 .8.4.8.8s-.4.8-.8.8l-5-.5.4 1.6 4.5.4h.1c1.3 0 2.3-1 2.3-2.3s-1-2.3-2.3-2.3v-.6l4.5.3v4.3c0 .5-.2.9-.5 1.2-.3.3-.8.5-1.3.4l-5.1-.3.4 1.5c-1.4.9-2.6 2.1-3.5 3.4l-2-4.3c.3-.5.4-1.1.4-1.6 0-2-1.6-3.6-3.6-3.6-1.3 0-2.4.6-3 1.6l.4-4.2H26.7l.3 4.3c-.6-1-1.8-1.6-3-1.6-2 0-3.6 1.6-3.6 3.6 0 .6.1 1.1.4 1.6l-2 4.3c-.9-1.4-2.1-2.5-3.5-3.4l.4-1.5-5.1.3c-.5 0-.9-.1-1.3-.4-.3-.5-.4-.9-.4-1.4V2.5l4.5-.3v.6c-1.3 0-2.3 1.1-2.3 2.3 0 1.3 1 2.3 2.3 2.3h.1l4.5-.3.4-1.6-5 .5c-.4 0-.8-.4-.8-.8s.4-.8.8-.8h1.5V.8h-1.5L8.9 1V0L7.3.4v.8C3.1 2.1.2 5.8.2 10.1c0 2.8 1.3 5.5 3.5 7.2l8 5.9-3.5 13.5-1.6-2.1c1-3.5 1.9-7.1 2-7.5.4-1.8.2-3.3-.7-4.4-.9-1.2-2.4-1.6-3.4-1.6-.5 0-4.5.2-4.5 4.9 0 3.1 2.7 6.5 2.9 6.9L4.5 35c-.4 1.4-.8 2.8-1.1 4.2-.2-.1-.5-.2-.8-.2-1.2 0-2.2 1-2.2 2.2s1 2.2 2.2 2.2c1 0 1.9-.7 2.1-1.6.1-.5.7-2.5 1.3-4.8l1.6 2.1-4.2 15.8c-.1.3-.1.5-.1.8 0 2 1.6 3.6 3.6 3.6s3.6-1.6 3.6-3.6c0-.9-.3-1.7-.9-2.4l3.7-6 7.4 10.4c.7 1 1.8 1.5 3 1.5 2 0 3.6-1.6 3.6-3.6S25.7 52 23.7 52h-.2l-5-14.2c-.5-1.3-1.6-2.2-3-2.4h-.6l3.4-7.4 4.5 3.3c.6.5 1.4.8 2.2.8.2 0 .4 0 .7-.1L27 45.1c.4 3.6 2.3 7.1 5.3 9.8 3.1 2.8 6.8 4.3 10.6 4.3s7.6-1.5 10.6-4.3c3-2.7 4.9-6.3 5.3-9.8l1.2-13c.2 0 .4.1.7.1.8 0 1.6-.3 2.2-.8l4.5-3.3 3.4 7.4h-.6c-1.4.2-2.5 1.1-3 2.4l-5 14.2H62c-2 0-3.6 1.6-3.6 3.6s1.6 3.6 3.6 3.6c1.2 0 2.3-.6 3-1.5l7.4-10.4 3.7 6c-.8.6-1.1 1.4-1.1 2.3 0 2 1.6 3.6 3.6 3.6s3.6-1.6 3.6-3.6c0-.3 0-.5-.1-.8L78 39.1l1.6-2.1c.6 2.3 1.2 4.3 1.3 4.8.2.9 1.1 1.6 2.1 1.6 1.2 0 2.2-1 2.2-2.2S84.2 39 83 39zM5.2 32.7l-.7-1C3.8 30.8 2 28.1 2 26c0-2.6 1.8-2.9 2.5-2.9.6 0 1.4.2 2 .9.5.6.6 1.6.4 2.8-.2.2-.9 2.7-1.7 5.9zM61.6 5.5c1 0 1.7.8 1.7 1.7 0 .4-.1.7-.3 1l-.3.4 3.1 6.5c-.4 1.1-.7 2.2-.7 3.4l-5-10.8c-.1-.2-.1-.4-.1-.6-.2-.8.6-1.6 1.6-1.6zm-10.7 4.8h-4.4V8.2H51l-.1 2.1zm-5.9 0h-4.4V8.2H45v2.1zm-5.9 0h-4.4l-.1-2.1H39l.1 2.1zm-6 0H29l-.2-2.1h4.3v2.1zm23.4 1.6l-.2 2.5h-27l-.2-2.5h27.4zm.1-1.6h-4.2l.1-2.1h4.3l-.2 2.1zm-2.4-7.7l-.1 2.7h1.5l.1-2.7h1.5l-.3 4.1h-4.4l.1-4.1h1.6zm-6.1 0L48 5.3h1.5l.1-2.7h1.5L51 6.7h-4.5l.1-4.1h1.5zm-6.1 0v2.7h1.5V2.6H45v4.1h-4.5l-.1-4.1H42zm-6.1 0l.1 2.7h1.5l-.1-2.7H39v4.1h-4.5l-.1-4.1h1.5zm-6.1 0l.2 2.7h1.5l-.1-2.7h1.5l.1 4.1h-4.4l-.3-4.1h1.5zm-2.5 6.1l.6 7.2h29.8l.6-7.2 6.5 14-3.3 2.4c-.2-.1-.5-.1-.8-.1l.6-6.5h-37l.6 6.5c-.3 0-.6 0-.9.1l-3.3-2.4 6.6-14zm1.1 18.7h3.9l2.5 2.4h-6.4c.1-.4.2-.8.2-1.2 0-.4-.1-.8-.2-1.2zm-1-1.5c-.1-.1-.3-.3-.5-.4l-.3-3.6 4.1 3.9h-3.3v.1zM22.9 8.7l-.3-.4c-.2-.3-.3-.7-.3-1 0-1 .8-1.7 1.7-1.7 1 0 1.7.8 1.7 1.7 0 .2 0 .4-.1.6l-5 10.8c-.1-1.2-.3-2.3-.7-3.4l3-6.6zm-7.7 28.7c.4.1 1.2.3 1.5 1.2l5.6 15.8.9-.3c.2-.1.4-.1.5-.1 1 0 1.7.8 1.7 1.7s-.8 1.7-1.7 1.7c-.6 0-1.1-.3-1.4-.7l-7.8-11.1.5-.9c.3-.6.5-1.2.5-1.8 0-1.6-1.1-3-2.6-3.4l.8-1.8c.3-.2.9-.4 1.5-.3zm-4.5 2.4l1.1 1.5h.3c.9 0 1.6.7 1.6 1.6 0 .3-.1.6-.2.8l-6.3 10 .8.5c.5.3.8.9.8 1.4 0 1-.8 1.7-1.7 1.7s-1.7-.8-1.7-1.7v-.4l8.1-30.9 3.4 2.5-6.2 13zM25 30.3c-.4 0-.8-.1-1.1-.4l-19-14.1c-1.8-1.4-2.8-3.5-2.8-5.7 0-3.3 2.2-6.1 5.2-7v3.6c0 .9.4 1.7 1 2.3.6.7 1.4 1 2.2 1h.2l1.4-.1c.3.1.6.2.7.2 3.8 1.5 6.3 5.2 6.3 9.3 0 .6-.1 1.3-.2 1.9l-4-2.9-.5 2 9.3 6.9.5-.2c.4-.2.9-.2 1.4 0 .6.3 1.1.9 1.1 1.6 0 .6-.3 1.1-.8 1.4-.3.1-.6.2-.9.2zm2.4 1h8.9l2.5 2.4H27.7l-.3-2.4zm.4 3.9h12.6l2.5 2.4H28.1l-.3-2.4zm.4 3.9h16.3l2.5 2.4H28.4l-.2-2.4zm.6 6l-.2-2h20l2.5 2.4H28.8v-.4zm.3 1.9h23.5l2.5 2.4h-25c-.4-.8-.7-1.6-1-2.4zm13.7 10.5c-2.8 0-5.6-1-7.9-2.6h15.8c-2.3 1.6-5.1 2.6-7.9 2.6zm9.7-4.2H33c-.8-.7-1.4-1.5-2-2.4h23.6c-.6.9-1.3 1.7-2.1 2.4zm4.3-8.2c-.1.9-.3 1.8-.6 2.7L27.7 20.4h31.5l-.5 5.1c-1 .7-1.7 1.8-1.7 3.1 0 1 .4 2 1.1 2.6l-1.3 13.9zm4.9-15.2c-.3.3-.7.4-1.1.4-.3 0-.7-.1-1-.3-.5-.3-.8-.9-.8-1.4 0-.7.4-1.3 1.1-1.6.4-.2.9-.2 1.4 0l.5.2 9.3-6.9-.5-2-4 2.9c-.1-.6-.2-1.2-.2-1.9 0-4.1 2.5-7.7 6.3-9.3.1 0 .4-.1.7-.2l1.4.1h.2c.8 0 1.6-.3 2.2-.9.6-.6 1-1.4 1-2.3V3.1c3.1.9 5.2 3.7 5.2 7 0 2.2-1 4.3-2.8 5.7L61.7 29.9zm1.6 26.8c-.3.5-.9.7-1.4.7-1 0-1.7-.8-1.7-1.7S61 54 61.9 54c.2 0 .4 0 .5.1l.9.3 5.6-15.8c.3-.9 1.1-1.1 1.5-1.2.6-.1 1.2.1 1.4.3l.8 1.8c-1.5.4-2.6 1.8-2.6 3.5 0 .6.2 1.3.5 1.8l.5.9-7.7 11zm17-1.3v.4c0 1-.8 1.7-1.7 1.7s-1.7-.8-1.7-1.7c0-.6.3-1.1.8-1.4l.8-.5-6.3-10c-.2-.3-.2-.5-.2-.8 0-.9.7-1.6 1.6-1.6h.3L75 40l-6-12.9 3.4-2.5 7.9 30.8zm-1.5-28.7c-.3-1.3-.2-2.2.4-2.8.5-.6 1.4-.9 2-.9.8 0 2.5.3 2.5 2.9 0 2.5-2.5 5.6-2.5 5.7l-.8 1c-.8-3.1-1.5-5.6-1.6-5.9z" id="Bildmarke"/><path class="st0" d="M112.2 2.2c2.2 0 3.9.5 5.2 1.5 1.3 1 1.9 2.4 1.9 4.2h-3.8c0-.9-.4-1.6-.9-2-.6-.4-1.4-.7-2.6-.7-.8 0-1.5.2-2 .5s-.8.9-.8 1.5c0 .5.2.9.5 1.1.3.2.7.4 1.3.6.6.2 1.6.4 3 .8 1.5.4 2.6.8 3.4 1.2s1.4 1 1.8 1.7.6 1.5.6 2.5c0 1.1-.3 2.1-.9 3s-1.5 1.6-2.6 2-2.4.7-3.9.7c-2.2 0-4-.6-5.5-1.7-1.4-1.1-2.1-2.6-2.1-4.6v-.1h3.8c0 1 .4 1.9 1.1 2.4.7.6 1.7.9 2.8.9 1 0 1.9-.2 2.5-.6s1-.9 1-1.7c0-.5-.2-.9-.5-1.2s-.8-.6-1.4-.8-1.6-.5-2.9-.8c-1.6-.4-2.8-.8-3.5-1.3s-1.3-1-1.7-1.6c-.4-.6-.6-1.4-.6-2.3 0-1.1.3-2.1 1-2.9.6-.8 1.5-1.4 2.5-1.8 1.1-.3 2.2-.5 3.3-.5zm14.2 1.5v3.9h2.6V10h-2.6v6.4c0 .6.1 1 .3 1.2.2.2.6.3 1.2.3.4 0 .8 0 1.1-.1v2.8c-.5.1-1.2.1-2.1.1-1.4 0-2.4-.2-3-.7-.7-.5-1-1.3-1-2.4V9.9h-2.1V7.5h2.1V3.7h3.5zm10.7 3.5c3.8 0 5.6 1.2 5.6 3.7v6.8c0 1.3.1 2.2.5 2.7h-3.6c-.1-.4-.2-.8-.2-1.2-1 1.1-2.5 1.6-4.3 1.6-1.3 0-2.4-.3-3.2-1s-1.2-1.6-1.2-2.8.4-2.1 1.1-2.7c.8-.7 2.2-1.1 4.2-1.3 1.4-.1 2.3-.3 2.7-.6.4-.2.6-.6.6-1 0-.6-.2-1-.5-1.3-.4-.3-.9-.4-1.8-.4-.7 0-1.3.2-1.7.5s-.6.8-.7 1.5H131c.1-1.4.7-2.5 1.8-3.2 1-.9 2.5-1.3 4.3-1.3zm-3 9.6c0 1.1.7 1.6 2.2 1.6 1.9 0 2.9-1 2.9-2.9v-1.4c-.3.3-1 .5-2.1.6-1 .1-1.7.3-2.2.6-.5.4-.8.8-.8 1.5zM158 2.6v17.8h-3.4v-1.6c-.8 1.3-2.1 2-3.9 2-1.8 0-3.2-.6-4.2-1.9s-1.6-3-1.6-5 .5-3.6 1.6-4.8 2.4-1.9 4.1-1.9c.8 0 1.5.2 2.2.5s1.2.8 1.6 1.4h.1V2.6h3.5zM148.4 14c0 1.2.3 2.2.8 3 .6.8 1.3 1.2 2.3 1.2s1.8-.4 2.3-1.1.8-1.8.8-3.1-.3-2.3-.8-3-1.3-1.1-2.3-1.1-1.8.4-2.3 1.1c-.5.7-.8 1.7-.8 3zm17.1-10.3v3.9h2.6V10h-2.6v6.4c0 .6.1 1 .3 1.2s.6.3 1.2.3c.4 0 .8 0 1.1-.1v2.8c-.5.1-1.2.1-2.1.1-1.4 0-2.4-.2-3-.7-.7-.5-1-1.3-1-2.4V9.9h-2.1V7.5h2.1V3.7h3.5zM190 2.6v3.1l-9.6 11.4h9.8v3.3h-15v-3.1l9.6-11.4H176V2.6h14zm5.6 4.9v7.3c0 1 .2 1.8.5 2.3s.9.8 1.8.8c1 0 1.7-.3 2.1-.9.4-.6.6-1.5.6-2.8V7.5h3.5v12.9h-3.4v-1.8h-.1c-.9 1.4-2.2 2.1-4 2.1-1.7 0-2.9-.4-3.6-1.3-.7-.9-1.1-2.2-1.1-4v-8l3.7.1zm1.7-4.9v2.9h-3.4V2.6h3.4zm5.1 0v2.9H199V2.6h3.4zm12.3 4.6c.3 0 .6 0 .8.1v3.3c-.4-.1-.8-.1-1.3-.1-2.3 0-3.5 1.4-3.5 4.1v5.8h-3.5V7.5h3.4v2.4c.3-.8.9-1.5 1.7-2 .7-.5 1.5-.7 2.4-.7zm6.2-4.6v2.9h-3.5V2.6h3.5zm0 4.9v12.9h-3.5V7.5h3.5zm8.8-.3c1.8 0 3.2.4 4.3 1.3 1.1.9 1.7 2.1 1.8 3.6h-3.5c-.2-1.5-1.1-2.2-2.6-2.2-.9 0-1.7.4-2.2 1.1-.5.8-.8 1.8-.8 3s.3 2.2.8 2.9 1.2 1.1 2.2 1.1c1.6 0 2.6-.9 2.8-2.6h3.4c-.2 1.7-.9 3-2 3.9s-2.5 1.4-4.2 1.4c-1.9 0-3.5-.6-4.7-1.8-1.2-1.2-1.8-2.8-1.8-4.8 0-2.1.6-3.8 1.8-5.1 1.1-1.2 2.7-1.8 4.7-1.8zm11.8-4.6v6.7h.1c.4-.7.9-1.2 1.6-1.6.7-.4 1.4-.6 2.2-.6 1.6 0 2.8.4 3.6 1.2.7.8 1.1 2.1 1.1 3.9v8.1h-3.5V13c0-1-.2-1.8-.5-2.3s-.9-.8-1.8-.8c-1 0-1.6.3-2.1.9-.4.6-.7 1.5-.7 2.8v6.8H238V2.6h3.5z" id="Stadt_Zürich"/><path class="st1" d="M0 0h250.1v81.2H0z"/></svg>