<svg width="32" height="32" viewBox="0 0 32 32" fill="none" xmlns="http://www.w3.org/2000/svg">
<path fill-rule="evenodd" clip-rule="evenodd" d="M16 0C7.16344 0 0 7.16344 0 16C0 24.8366 7.16344 32 16 32C24.8366 32 32 24.8366 32 16C32 7.16344 24.8366 0 16 0ZM23.1224 8.38095L17.4497 15.1559H17.4494L23.619 24.381H19.0816L14.9269 18.1688L9.72528 24.381H8.38095L14.3301 17.2764L8.38095 8.38095H12.9185L16.8525 14.2635L21.7782 8.38095H23.1224ZM15.0057 16.469L15.6084 17.3548V17.3551L19.714 23.3885H21.7788L16.7477 15.9947L16.1449 15.1089L12.2745 9.4207H10.2097L15.0057 16.469Z" fill="white"/>
</svg>
