<svg width="205" height="32" viewBox="0 0 205 32" xmlns="http://www.w3.org/2000/svg"><title>logo-fms-platform</title><g fill="#FFF" fill-rule="evenodd"><path d="M28.954 22h5.112v-1.404h-1.728v-4.068h4.392v-1.476h-4.392V10.84h3.852v1.458h1.566V9.292h-8.802v1.386h1.584v9.918h-1.584V22zm10.77-10.926h1.836V9.292h-1.836v1.782zM38.338 22h4.608v-1.35h-1.44v-7.758h-3.258v1.35h1.512v6.408h-1.422V22zm5.1 0h2.376l1.8-2.934c.198-.306.324-.594.324-.594h.036s.144.306.324.576L50.134 22h2.322v-1.35h-1.224l-2.25-3.366 2.034-3.042h1.386v-1.35H49.99l-1.656 2.646c-.18.288-.324.594-.324.594h-.036s-.144-.324-.306-.594l-1.62-2.646h-2.556v1.35h1.476l2.016 3.06-2.178 3.348h-1.368V22zm9.564 0h4.896v-1.404h-1.53L56.944 13c.018-.396-.054-1.044-.054-1.044h.054s.144.612.288.972l2.916 6.678h1.584l2.916-6.678c.144-.36.288-.972.288-.972h.054s-.072.648-.054 1.044l.576 7.596h-1.53V22h4.896v-1.404h-1.584l-.81-9.918h1.62V9.292h-3.6l-3.258 7.74c-.198.522-.288.918-.288.918h-.036s-.09-.396-.288-.918l-3.258-7.74h-3.6v1.386h1.62l-.81 9.918h-1.584V22zm16.422 1.89l-.594 1.314s.792.576 1.962.576c1.404 0 2.592-.792 3.204-2.34l3.6-9.198h1.134v-1.35h-4.032v1.35h1.17l-2.016 5.418c-.144.396-.216.792-.216.792h-.054s-.036-.396-.162-.792l-2.034-5.418h1.206v-1.35h-4.158v1.35h1.152l3.186 7.92-.378.9c-.306.72-.9 1.26-1.674 1.26-.774 0-1.296-.432-1.296-.432zm14.406-9.954c-.936-.216-2.016-.504-2.016-1.404 0-.9.756-1.53 2.124-1.53 2.754 0 2.502 1.926 3.87 1.926.72 0 1.35-.432 1.35-1.17 0-1.728-2.718-3.024-5.022-3.024-2.502 0-5.166 1.08-5.166 3.96 0 1.386.486 2.862 3.168 3.546l3.33.846c1.008.252 1.26.828 1.26 1.35 0 .864-.846 1.71-2.376 1.71-2.988 0-2.574-2.34-4.176-2.34-.72 0-1.242.504-1.242 1.224 0 1.404 1.674 3.276 5.418 3.276 3.564 0 5.328-1.746 5.328-4.086 0-1.512-.684-3.114-3.384-3.726l-2.466-.558zm7.62 5.958c0 1.548.792 2.34 2.7 2.34 1.26 0 1.908-.414 1.908-1.17 0-.558-.342-.882-.918-.882h-.378c-.468 0-.684-.216-.684-.612v-5.256h.792c.774 0 1.188-.234 1.188-.864s-.414-.864-1.188-.864h-.792v-1.602c0-.864-.522-1.314-1.314-1.314s-1.314.45-1.314 1.314v1.602H91c-.738 0-1.044.288-1.044.864 0 .576.306.864 1.044.864h.45v5.58zm5.37 1.026c0 .702.288 1.314 1.314 1.314s1.314-.612 1.314-1.314v-3.06c0-2.178.576-2.916 1.638-2.916h.468c.648 0 1.296-.342 1.296-1.314 0-.738-.612-1.278-1.44-1.278-1.278 0-1.872 1.134-2.178 2.232h-.036v-1.008c0-.792-.522-1.224-1.188-1.224-.666 0-1.188.432-1.188 1.224v7.344zm14.388-3.132c.882 0 1.152-.234 1.152-1.134 0-2.16-1.728-4.302-4.752-4.302-3.114 0-4.968 2.052-4.968 5.112 0 2.286 1.386 4.77 5.058 4.77 1.584 0 4.122-.738 4.122-2.322 0-.486-.45-1.026-1.08-1.026-1.062 0-1.062 1.296-3.042 1.296-1.53 0-2.43-1.008-2.43-2.394h5.94zm-5.94-1.512c.288-1.278 1.08-2.088 2.394-2.088 1.17 0 2.07.882 2.214 2.088h-4.608zm16.206 1.512c.882 0 1.152-.234 1.152-1.134 0-2.16-1.728-4.302-4.752-4.302-3.114 0-4.968 2.052-4.968 5.112 0 2.286 1.386 4.77 5.058 4.77 1.584 0 4.122-.738 4.122-2.322 0-.486-.45-1.026-1.08-1.026-1.062 0-1.062 1.296-3.042 1.296-1.53 0-2.43-1.008-2.43-2.394h5.94zm-5.94-1.512c.288-1.278 1.08-2.088 2.394-2.088 1.17 0 2.07.882 2.214 2.088h-4.608zm8.718 3.618c0 1.548.792 2.34 2.7 2.34 1.26 0 1.908-.414 1.908-1.17 0-.558-.342-.882-.918-.882h-.378c-.468 0-.684-.216-.684-.612v-5.256h.792c.774 0 1.188-.234 1.188-.864s-.414-.864-1.188-.864h-.792v-1.602c0-.864-.522-1.314-1.314-1.314s-1.314.45-1.314 1.314v1.602h-.45c-.738 0-1.044.288-1.044.864 0 .576.306.864 1.044.864h.45v5.58zM133.138 22h4.986v-1.404h-1.602V17.23h2.574c.702 0 1.314-.054 1.908-.27 1.458-.504 2.394-1.944 2.394-3.726 0-1.692-.846-3.042-2.16-3.6-.63-.288-1.404-.342-2.178-.342h-5.922v1.386h1.584v9.918h-1.584V22zm3.384-6.246v-4.986h2.376c.612 0 1.152.09 1.548.306.72.378 1.134 1.134 1.134 2.16 0 1.098-.468 1.908-1.278 2.268-.396.162-.846.252-1.422.252h-2.358zm8.196 3.654c0 2.124 1.116 2.646 2.412 2.646.414 0 .774-.036.774-.036l.018-1.44s-.198.018-.486.018c-.792 0-.972-.522-.972-1.296V9.292h-3.258v1.35h1.512v8.766zm3.588.054c0 1.872 1.512 2.754 3.024 2.754 2.214 0 3.006-1.926 3.006-1.926h.036s-.072.234-.072.594v.126c0 .594.324.99 1.134.99h1.818v-1.35h-.918c-.252 0-.396-.126-.396-.396v-4.068c0-2.304-1.224-3.51-3.546-3.51-2.124 0-3.456 1.08-3.456 1.08l.702 1.242s1.17-.882 2.61-.882c1.116 0 1.944.504 1.944 1.944v.342h-.576c-1.512 0-5.31.198-5.31 3.06zm1.764-.144c0-1.746 2.862-1.782 3.69-1.782h.45v.378c0 1.368-.954 2.952-2.502 2.952-1.044 0-1.638-.738-1.638-1.548zm8.61-.648c0 3.042 2.322 3.402 3.474 3.402.378 0 .63-.036.63-.036v-1.458s-.162.018-.414.018c-.684 0-1.944-.234-1.944-2.088v-4.266h2.178v-1.35h-2.178V10.39h-1.71v2.502h-1.566v1.35h1.53v4.428zm4.74 3.33h4.842v-1.35h-1.674v-6.408h2.196v-1.35h-2.196v-.486c0-1.638 1.134-1.8 1.71-1.8.414 0 .648.054.648.054V9.22s-.342-.054-.828-.054c-1.08 0-3.276.36-3.276 3.276v.45h-1.512v1.35h1.512v6.408h-1.422V22zm5.766-4.572c0 2.772 2.196 4.788 4.914 4.788 2.718 0 4.914-2.016 4.914-4.788 0-2.754-2.196-4.752-4.914-4.752-2.718 0-4.914 1.998-4.914 4.752zm1.782 0c0-1.89 1.404-3.24 3.132-3.24 1.71 0 3.132 1.35 3.132 3.24 0 1.908-1.422 3.276-3.132 3.276-1.728 0-3.132-1.368-3.132-3.276zM179.812 22h4.464v-1.35h-1.35v-2.412c0-1.782.828-3.744 2.772-3.744.288 0 .504.054.504.054V12.82s-.216-.036-.45-.036c-1.404 0-2.466 1.044-2.88 2.376h-.036s.036-.27.036-.63v-.576c0-.738-.378-1.062-1.17-1.062h-2.052v1.35h1.134c.252 0 .396.126.396.396v6.012h-1.368V22zm6.828 0h4.608v-1.35h-1.44v-2.772c0-1.782 1.008-3.618 2.736-3.618 1.404 0 1.584 1.098 1.584 2.286V22h3.168v-1.35h-1.422v-2.844c0-1.8.972-3.546 2.682-3.546 1.368 0 1.602 1.008 1.602 2.286V22h3.186v-1.35h-1.44v-4.482c0-2.322-.954-3.492-2.97-3.492-1.494 0-2.754 1.008-3.258 2.142h-.036c-.306-1.476-1.206-2.142-2.664-2.142-1.476 0-2.79 1.134-3.24 2.214h-.036s.054-.234.054-.522V13.9c0-.666-.378-1.008-1.152-1.008h-2.052v1.35h1.116c.252 0 .396.126.396.378v6.03h-1.422V22zM12 24.49c-1.684 0-3.266-.443-4.64-1.215l4.28-4.406c.02-.02.034-.047.053-.067.348.087.706.146 1.08.146 2.506.006 4.543-2.02 4.55-4.526.004-.4-.064-.782-.16-1.155l-2.39 2.377-2.644-.572-.557-2.647 2.396-2.38c-.375-.104-.763-.177-1.17-.178-2.506-.006-4.544 2.016-4.552 4.525-.002.533.105 1.035.272 1.51L4.182 20.37c-1.052-1.528-1.67-3.378-1.67-5.37 0-5.232 4.257-9.49 9.49-9.49 5.23 0 9.488 4.258 9.488 9.49 0 5.233-4.257 9.49-9.49 9.49M12 3C5.385 3 0 8.384 0 15s5.384 12 12 12c6.617 0 12-5.384 12-12S18.617 3 12 3"/></g></svg>