<svg fill="none" xmlns="http://www.w3.org/2000/svg">
<style>
.wheel { fill: #333333; }
.main { fill: var(--primary-color, var(--default-color)); }
.lid { fill: var(--lid-color, var(--primary-color, var(--default-color))); }
.recycling-logo { fill: #ffffff; opacity: var(--recycling-logo, 0); }

.fill-primary { fill: var(--primary-color); }
.stroke-primary { stroke: var(--primary-color); fill: none; }

.fill-secondary { fill: var(--secondary-color, #d8d8d8); }
.stroke-secondary { stroke: var(--secondary-color, #d8d8d8); fill: none; }

.blend-multiply { mix-blend-mode: multiply; }
.blend-plus-lighter { mix-blend-mode: plus-lighter; }
.blend-plus-screen { mix-blend-mode: screen; }
.blend-plus-darker { mix-blend-mode: plus-darker;}
.blend-overlay { mix-blend-mode: overlay; }

</style>

<symbol id="wheelie" viewBox="0 0 401 692">
<path class="wheel" d="M357.536 644.891H47.5188V649.386H357.536V644.891Z"/>
<path class="wheel" d="M355.906 598.349H341.038C335.497 598.349 331.005 602.839 331.005 608.378V681.4C331.005 686.939 335.497 691.43 341.038 691.43H355.906C361.447 691.43 365.939 686.939 365.939 681.4V608.378C365.939 602.839 361.447 598.349 355.906 598.349Z"/>
<path class="wheel" d="M59.5608 598.349H44.6919C39.1512 598.349 34.6594 602.839 34.6594 608.378V681.4C34.6594 686.939 39.1512 691.43 44.6919 691.43H59.5608C65.1016 691.43 69.5932 686.939 69.5932 681.4V608.378C69.5932 602.839 65.1016 598.349 59.5608 598.349Z"/>
<g style="mix-blend-mode:multiply" opacity="0.1">
<path class="wheel" d="M34.6594 659.875H69.5932V681.282C69.5932 686.886 65.0367 691.441 59.4309 691.441H44.8218C39.2161 691.441 34.6594 686.886 34.6594 681.282V659.875Z"/>
</g>
<g style="mix-blend-mode:multiply" opacity="0.1">
<path class="wheel" d="M34.6594 675.647H69.5932V681.271C69.5932 686.875 65.0367 691.43 59.4309 691.43H44.8218C39.2161 691.43 34.6594 686.875 34.6594 681.271V675.647Z"/>
</g>
<g style="mix-blend-mode:multiply" opacity="0.1">
<path class="wheel" d="M331.005 659.875H365.939V681.282C365.939 686.886 361.382 691.441 355.777 691.441H341.168C335.562 691.441 331.005 686.886 331.005 681.282V659.875Z"/>
</g>
<g style="mix-blend-mode:multiply" opacity="0.1">
<path class="wheel" d="M331.005 675.647H365.939V681.271C365.939 686.875 361.382 691.43 355.777 691.43H341.168C335.562 691.43 331.005 686.875 331.005 681.271V675.647Z"/>
</g>
<path class="lid" d="M384.466 43.7749H373.694V21.2092C373.694 9.74149 364.391 0.441406 352.92 0.441406H48.8579C43.1222 0.441406 37.9362 2.75879 34.189 6.54474C30.4018 10.3007 28.0836 15.4853 28.0836 21.2092V43.7749H17.4914C8.36824 43.7749 0.973877 51.167 0.973877 60.2873V90.5849H16.3822L28.1535 106.478H51.6758L50.6666 90.5849H351.338L350.351 106.478H373.764L385.536 90.5849H400.974V60.2873C400.974 51.167 393.58 43.7749 384.456 43.7749H384.466Z"/>
<g style="mix-blend-mode:multiply" opacity="0.1">
<path fill="black" d="M0.973877 71.8767H400.974V90.582H0.973877V71.8767Z"/>
</g>
<g style="mix-blend-mode:multiply" opacity="0.1">
<path fill="black" d="M373.695 20.2083H28.0842V42.7739H373.695V20.2083Z"/>
</g>
<path class="main" d="M351.521 89.5948L322.413 681.301H79.3654L50.5969 89.5948H351.521Z"/>
<g style="mix-blend-mode:multiply" opacity="0.1">
<path fill="black" d="M55.7878 171.454L50.3718 90.582H351.296L350.349 106.473L55.7878 171.454Z"/>
</g>
<g style="mix-blend-mode:multiply" opacity="0.12">
<path fill="black" d="M307.103 90.5045L281.622 681.301H322.264L350.973 90.5045H307.103Z"/>
</g>
<g style="mix-blend-mode:multiply" opacity="0.12">
<path fill="black" d="M95.1227 90.7581L120.495 681.301H79.3654L50.9626 90.7581H95.1227Z"/>
</g>
<path class="recycling-logo" d="M184.674 265.748L164.61 254.071L175.052 235.794C177.935 230.711 188.654 230.572 192.364 234.966L197.448 243.484L184.667 265.741L184.674 265.748Z"/>
<path class="recycling-logo" d="M167.176 300.717H156.458C152.333 300.269 145.463 291.785 149.588 284.088L154.257 276.253L146.974 271.99H170.059L181.736 292.054L174.453 288.067L167.169 300.71L167.176 300.717Z"/>
<path class="recycling-logo" d="M194.792 307.483V330.981H169.1C167.59 331.119 166.486 329.609 165.666 328.367C153.575 306.931 153.713 307.069 153.161 306.386C153.816 306.938 154.534 307.483 156.596 307.483H194.792Z"/>
<path class="recycling-logo" d="M247.072 307.484C249.686 307.208 250.094 306.525 250.783 306.111L237.865 328.92C237.313 330.017 236.216 330.983 234.568 330.983H220.277V339.363L208.6 319.437L220.277 299.373V307.477H247.072V307.484Z"/>
<path class="recycling-logo" d="M223.995 278.735L244.19 267.196L254.77 285.198C258.619 292.619 252.025 299.764 247.625 300.585H236.768L223.988 278.735H223.995Z"/>
<path class="recycling-logo" d="M199.137 233.186C198.309 232.09 196.661 230.71 195.151 230.441H222.222C223.732 230.441 225.105 230.993 225.795 232.228L232.802 244.594L239.81 240.608L228.409 260.396H205.6L212.469 256.271L199.144 233.186H199.137Z"/>
</symbol>

<symbol id="sack" viewBox="0 0 360 558">
<path class="fill-primary" d="M152.874 58.4407L153.288 58.3686V57.9481V51.4539V51.1916L153.072 51.0425L111.861 22.5733L130.024 14.4438L130.093 14.4132L130.149 14.3637L145.828 0.638029L157.988 9.39764L158.175 9.53276L158.4 9.47739L194.511 0.568852L203.803 14.2681L204.007 14.5702L204.358 14.4671L220.862 9.61061L227.607 31.3015L203.896 51.0699L203.716 51.2198V51.4539V59.4467V59.8698L204.134 59.9398L278.317 72.3929L334.535 156.512V522.032V522.225L334.665 522.368L358.87 549.008H317.559H317.536L317.514 549.01L224.187 557.498L122.372 549.009L122.351 549.008H122.33H19.9723H0.992333L20.3741 522.829L20.4723 522.697V522.532V156.004L72.7052 72.3899L152.874 58.4407Z" />
<path class="stroke-primary blend-plus-darker" d="M152.874 58.4407L153.288 58.3686V57.9481V51.4539V51.1916L153.072 51.0425L111.861 22.5733L130.024 14.4438L130.093 14.4132L130.149 14.3637L145.828 0.638029L157.988 9.39764L158.175 9.53276L158.4 9.47739L194.511 0.568852L203.803 14.2681L204.007 14.5702L204.358 14.4671L220.862 9.61061L227.607 31.3015L203.896 51.0699L203.716 51.2198V51.4539V59.4467V59.8698L204.134 59.9398L278.317 72.3929L334.535 156.512V522.032V522.225L334.665 522.368L358.87 549.008H317.559H317.536L317.514 549.01L224.187 557.498L122.372 549.009L122.351 549.008H122.33H19.9723H0.992333L20.3741 522.829L20.4723 522.697V522.532V156.004L72.7052 72.3899L152.874 58.4407Z"/>
<path class="fill-primary blend-plus-screen" d="M204.716 51.7336L152.288 51.7336V57.4486L204.716 58.9472V51.7336Z"/>

<path class="fill-primary blend-plus-lighter" d="M76.3939 81.427L152.5 57.5L89.8752 88.9203L45.4369 148.367L76.3939 81.427Z"/>
<path class="blend-multiply fill-primary" d="M117.337 104.407L157 57.5L131.318 106.904L112.843 153.363L117.337 104.407Z"/>
<path class="blend-plus-screen" d="M233.898 102.888L241.043 154.154L222.99 111.986L195.229 58.9471L233.898 102.888Z"/>
<path class="fill-primary blend-plus-lighter" d="M277.615 81.9266L309.071 148.867L265.631 89.4199L204 59L277.615 81.9266Z"/>
<path class="fill-primary blend-multiply" d="M73.3981 290.24L19.4731 236.383L69.9031 266.262L123.329 266.262L73.3981 290.24Z"/>
<path class="fill-primary blend-plus-lighter" d="M271.623 416.627L205.215 431.818L254.065 399.417L333.537 320.213L271.623 416.627Z"/>

<path class="fill-primary blend-multiply" d="M168.766 530.525L172.614 465.583L183.745 522.532L219.196 556.002L168.766 530.525Z" />
</symbol>

<symbol id="sack-stripe" viewBox="0 0 360 559">
<path class="fill-secondary" d="M152.874 58.4407L153.288 58.3686V57.9481V51.4539V51.1916L153.072 51.0425L111.861 22.5733L130.024 14.4438L130.093 14.4132L130.149 14.3637L145.828 0.638029L157.988 9.39764L158.175 9.53276L158.4 9.47739L194.511 0.568852L203.803 14.2681L204.007 14.5702L204.358 14.4671L220.862 9.61061L227.607 31.3015L203.896 51.0699L203.716 51.2198V51.4539V59.4467V59.8698L204.134 59.9398L278.317 72.3929L334.535 156.512V522.032V522.225L334.665 522.368L358.87 549.008H317.559H317.536L317.514 549.01L224.187 557.498L122.372 549.009L122.351 549.008H122.33H19.9723H0.992333L20.3741 522.829L20.4723 522.697V522.532V156.004L72.7052 72.3899L152.874 58.4407Z"/>
<path class="stroke-secondary blend-multiply" d="M152.874 58.4407L153.288 58.3686V57.9481V51.4539V51.1916L153.072 51.0425L111.861 22.5733L130.024 14.4438L130.093 14.4132L130.149 14.3637L145.828 0.638029L157.988 9.39764L158.175 9.53276L158.4 9.47739L194.511 0.568852L203.803 14.2681L204.007 14.5702L204.358 14.4671L220.862 9.61061L227.607 31.3015L203.896 51.0699L203.716 51.2198V51.4539V59.4467V59.8698L204.134 59.9398L278.317 72.3929L334.535 156.512V522.032V522.225L334.665 522.368L358.87 549.008H317.559H317.536L317.514 549.01L224.187 557.498L122.372 549.009L122.351 549.008H122.33H19.9723H0.992333L20.3741 522.829L20.4723 522.697V522.532V156.004L72.7052 72.3899L152.874 58.4407Z"/>
<path class="fill-primary" d="M204.696 58.9326L152.307 57.5016L117.596 104.854L112.55 152.886L109.469 265.036L98.0024 391.713L114.929 482.9L122.391 549.984L223.54 558.352L255.001 555.595L249.168 417.174L255.001 343.385L239.82 186.584L249.168 119.97L204.696 58.9326Z"/>
<path class="fill-primary" d="M204.716 51.7336L152.288 51.7336V57.4486L204.716 58.9472V51.7336Z"/>
<path class="fill-primary blend-plus-screen" d="M204.716 51.7336L152.288 51.7336V57.4486L204.716 58.9472V51.7336Z"/>
<path class="blend-overlay fill-secondary" d="M76.3939 81.427L152.5 57.5L89.8752 88.9203L45.4369 148.367L76.3939 81.427Z"/>
<path class="fill-secondary blend-multiply" d="M117.201 105.019L152.547 57.1731L131.318 106.904L112.843 153.363L117.201 105.019Z"/>
<path class="blend-overlay fill-secondary" d="M242.712 121.75L236.135 152.716L222.99 111.986L197.561 58.7338L242.712 121.75Z" fill="white"/>
<path class="blend-overlay fill-secondary" d="M277.615 81.9265L309.071 148.866L265.631 89.4198L204.673 59.0222L277.615 81.9265Z"/>
<path class="blend-overlay fill-secondary" d="M73.3981 290.592L19.4731 236.735L69.9031 266.614L106.833 242.278L73.3981 290.592Z"/>
<path class="blend-overlay fill-secondary" d="M271.623 416.978L263.096 476.098L254.065 399.769L333.537 320.565L271.623 416.978Z"/>
<path class="blend-multiply fill-secondary" d="M168.766 530.525L172.614 465.583L183.745 522.532L219.196 556.002L168.766 530.525Z"/>
</symbol>

<symbol id="communal" viewBox="0 0 760 778">
<path d="M681.153 778C689.438 778 696.155 764.568 696.155 747.999C696.155 731.43 689.438 717.998 681.153 717.998C672.867 717.998 666.15 731.43 666.15 747.999C666.15 764.568 672.867 778 681.153 778Z" fill="#2A2A2A"/>
<path d="M666.151 778C657.865 778 651.148 764.564 651.148 747.999C651.148 731.434 657.865 717.998 666.151 717.998H681.153V778H666.151Z" fill="#2A2A2A"/>
<path d="M681.15 769.121C686.979 769.121 691.704 759.664 691.704 747.998C691.704 736.331 686.979 726.874 681.15 726.874C675.321 726.874 670.596 736.331 670.596 747.998C670.596 759.664 675.321 769.121 681.15 769.121Z" fill="#767472"/>
<path d="M733.154 133.562H16.9707V150.957H30.0437L31.9928 181.997L56.8696 708.301H66.5345C51.6123 718.488 42.8769 736.523 45.5555 755.637C45.5955 755.907 45.6656 756.167 45.7056 756.437L60.3278 754.388C60.2878 754.118 60.2179 753.858 60.1779 753.588C57.5293 734.693 70.5824 717.249 89.3325 714.609C92.6708 714.14 95.9691 714.19 99.1474 714.669L103.945 708.301H665.959C654.575 717.428 646.459 736.293 649.288 756.477C649.328 756.747 654.345 756.167 654.385 756.437L663.59 755.147C663.55 754.877 663.491 754.617 663.451 754.348C660.802 735.453 668.218 718.798 680.022 717.139C682.121 716.839 684.22 717.069 686.268 717.699L690.486 708.301H704.879L729.756 181.997L731.924 150.957H745.098V133.562H733.124H733.154Z" class="main"/>
<path d="M29.2746 133.56H0V88.6636C0 75.1576 14.0525 64.2009 31.3834 64.2009H51.5029V30.7708C51.5029 22.2733 55.9105 14.5956 63.0967 9.03723C70.2229 3.4389 80.0779 0 90.9722 0H668.678C690.477 0 708.147 13.7758 708.147 30.7708V64.2009H728.617C745.948 64.2009 760 75.1576 760 88.6636V133.56H29.2746Z" class="lid"/>
<g style="mix-blend-mode:multiply" opacity="0.1">
<path d="M706.627 41.7571H51.502V63.6806H706.627V41.7571Z" fill="black"/>
</g>
<g style="mix-blend-mode:multiply" opacity="0.1">
<path d="M759.2 111.646H0V133.57H759.2V111.646Z" fill="black"/>
</g>
<g style="mix-blend-mode:plus-darker" opacity="0.1">
<path d="M34.4608 234.271L30.043 151.195H731.974L730.914 166.631L34.4608 234.271Z" fill="black"/>
</g>
<path d="M93.7696 778C110.335 778 123.764 764.568 123.764 747.999C123.764 731.43 110.335 717.998 93.7696 717.998C77.2043 717.998 63.7754 731.43 63.7754 747.999C63.7754 764.568 77.2043 778 93.7696 778Z" fill="#2A2A2A"/>
<path d="M93.7697 769.121C105.351 769.121 114.739 759.664 114.739 747.998C114.739 736.331 105.351 726.874 93.7697 726.874C82.1889 726.874 72.8008 736.331 72.8008 747.998C72.8008 759.664 82.1889 769.121 93.7697 769.121Z" fill="#767472"/>
<g style="mix-blend-mode:multiply" opacity="0.12">
<path d="M702.991 708.3H632.488L658.115 151.195H729.817L702.991 708.3Z" fill="black"/>
</g>
<g style="mix-blend-mode:multiply" opacity="0.12">
<path d="M56.8689 708.3H127.362L101.745 151.195H30.043L56.8689 708.3Z" fill="black"/>
</g>
<path d="M356.66 373.19L327.57 356.26L342.71 329.76C346.89 322.39 362.43 322.19 367.81 328.56L375.18 340.91L356.65 373.18L356.66 373.19Z" class="recycling-logo"/>
<path d="M331.29 423.89H315.75C309.77 423.24 299.81 410.94 305.79 399.78L312.56 388.42L302 382.24H335.47L352.4 411.33L341.84 405.55L331.28 423.88L331.29 423.89Z" class="recycling-logo"/>
<path d="M371.331 433.699V467.77H334.081C331.891 467.97 330.291 465.779 329.101 463.979C311.571 432.899 311.771 433.099 310.971 432.109C311.921 432.909 312.961 433.699 315.951 433.699H371.331Z" class="recycling-logo"/>
<path d="M447.129 433.701C450.919 433.301 451.51 432.311 452.51 431.711L433.78 464.781C432.98 466.371 431.39 467.771 429 467.771H408.28V479.921L391.35 451.031L408.28 421.941V433.691H447.129V433.701Z" class="recycling-logo"/>
<path d="M413.67 392.019L442.95 375.289L458.29 401.389C463.87 412.149 454.31 422.509 447.93 423.699H432.19L413.66 392.019H413.67Z" class="recycling-logo"/>
<path d="M377.629 325.98C376.429 324.39 374.04 322.39 371.85 322H411.1C413.29 322 415.28 322.8 416.28 324.59L426.439 342.52L436.6 336.74L420.07 365.43H387L396.959 359.45L377.64 325.98H377.629Z" class="recycling-logo"/>
</symbol>

<symbol id="box" viewBox="0 0 469 248">
<path class="main" d="M0 0V35.5752H24.2934L64.49 248H404.041L444.707 35.5752H469V0H0Z"/>
<g style="mix-blend-mode:multiply" opacity="0.1">
<path d="M36.79 103.437L24.6528 35.5754H445.056L439.951 58.5748L36.79 103.437Z" fill="black"/>
</g>
<path class="recycling-logo" d="M222.847 127.742L208.912 119.65L216.164 106.985C218.172 103.457 225.614 103.367 228.191 106.417L231.727 112.316L222.847 127.742Z"/>
<path class="recycling-logo" d="M210.69 151.967H203.248C200.381 151.658 195.616 145.779 198.473 140.448L201.72 135.017L196.665 132.067H212.697L220.809 145.968L215.754 143.208L210.7 151.967H210.69Z"/>
<path class="recycling-logo" d="M229.87 156.66V172.943H212.02C210.971 173.042 210.202 171.986 209.632 171.129C201.232 156.271 201.331 156.371 200.942 155.893C201.391 156.271 201.901 156.65 203.329 156.65H229.86L229.87 156.66Z"/>
<path class="recycling-logo" d="M266.191 156.66C268.009 156.471 268.289 155.993 268.768 155.704L259.798 171.508C259.419 172.265 258.649 172.933 257.511 172.933H247.582V178.743L239.47 164.931L247.582 151.03V156.65H266.191V156.66Z"/>
<path class="recycling-logo" d="M250.158 136.74L264.193 128.738L271.545 141.214C274.222 146.356 269.636 151.309 266.58 151.877H259.038L250.158 136.74Z"/>
<path class="recycling-logo" d="M232.896 105.171C232.326 104.414 231.178 103.457 230.129 103.268H248.928C249.977 103.268 250.936 103.646 251.405 104.503L256.27 113.073L261.135 110.313L253.213 124.025H237.371L242.145 121.165L232.885 105.171H232.896Z"/>
</symbol>

</svg>
