<svg width="30" height="30" viewBox="0 0 30 30" fill="none" xmlns="http://www.w3.org/2000/svg">
<path d="M22.625 7.0918H22.1562V7.95985H22.625V7.0918Z" fill="black"/>
<path d="M25.4375 16.207H24.9688V17.0751H25.4375V16.207Z" fill="black"/>
<path d="M22.625 13.1699H22.1562V14.038H22.625V13.1699Z" fill="black"/>
<path d="M19.8125 10.1309H19.3438V10.9989H19.8125V10.1309Z" fill="black"/>
<path d="M19.8125 7.0918H19.3438V7.95985H19.8125V7.0918Z" fill="black"/>
<path d="M22.625 10.1309H22.1562V10.9989H22.625V10.1309Z" fill="black"/>
<path d="M19.8125 16.207H19.3438V17.0751H19.8125V16.207Z" fill="black"/>
<path d="M22.625 16.207H22.1562V17.0751H22.625V16.207Z" fill="black"/>
<path d="M25.4375 7.0918H24.9688V7.95985H25.4375V7.0918Z" fill="black"/>
<path d="M25.4375 13.1699H24.9688V14.038H25.4375V13.1699Z" fill="black"/>
<path d="M19.8125 13.1699H19.3438V14.038H19.8125V13.1699Z" fill="black"/>
<path d="M25.4375 10.1309H24.9688V10.9989H25.4375V10.1309Z" fill="black"/>
<path d="M28.069 25.2759V24.4138H27.6034V5.44828H22.9483V4.58621H26.6724V2H22.0172V5.44828H16.8966V13.2069H15.9655C15.8442 12.0329 15.2548 10.943 14.3122 10.1498C13.3697 9.35657 12.1418 8.91708 10.8681 8.91708C9.59444 8.91708 8.36649 9.35657 7.42396 10.1498C6.48144 10.943 5.89199 12.0329 5.77069 13.2069H3.39655V24.4138H2.93103V25.2759H2V27H29V25.2759H28.069ZM22.9483 2.86207H25.7414V3.72414H22.9483V2.86207ZM10.8448 10.1897C11.029 10.1897 11.209 10.2402 11.3621 10.3349C11.5152 10.4297 11.6345 10.5643 11.705 10.7218C11.7755 10.8793 11.7939 11.0527 11.758 11.2199C11.722 11.3871 11.6334 11.5407 11.5032 11.6613C11.373 11.7819 11.2071 11.864 11.0265 11.8972C10.8459 11.9305 10.6587 11.9134 10.4885 11.8482C10.3184 11.7829 10.173 11.6724 10.0707 11.5307C9.9684 11.3889 9.91379 11.2222 9.91379 11.0517C9.91379 10.8231 10.0119 10.6038 10.1865 10.4421C10.3611 10.2805 10.5979 10.1897 10.8448 10.1897ZM15.5 23.5517H5.25862V20.9655H15.5V23.5517ZM15.5 20.5345H5.25862V17.9483H15.5V20.5345ZM15.5 17.5172H5.25862V14.931H15.5V17.5172ZM25.2759 24.4138H19.6897V22.4741C19.6909 21.8457 19.961 21.2434 20.4409 20.7991C20.9208 20.3547 21.5713 20.1046 22.25 20.1034H22.7155C23.3942 20.1046 24.0447 20.3547 24.5246 20.7991C25.0045 21.2434 25.2746 21.8457 25.2759 22.4741V24.4138ZM23.8793 6.74138H26.2069V9.32759H23.8793V6.74138ZM23.8793 9.75862H26.2069V12.3448H23.8793V9.75862ZM23.8793 12.7759H26.2069V15.3621H23.8793V12.7759ZM23.8793 15.7931H26.2069V18.3793H23.8793V15.7931ZM21.0862 6.74138H23.4138V9.32759H21.0862V6.74138ZM21.0862 9.75862H23.4138V12.3448H21.0862V9.75862ZM21.0862 12.7759H23.4138V15.3621H21.0862V12.7759ZM21.0862 15.7931H23.4138V18.3793H21.0862V15.7931ZM18.2931 6.74138H20.6207V9.32759H18.2931V6.74138ZM18.2931 9.75862H20.6207V12.3448H18.2931V9.75862ZM18.2931 12.7759H20.6207V15.3621H18.2931V12.7759ZM18.2931 15.7931H20.6207V18.3793H18.2931V15.7931Z" fill="black"/>
</svg>
