<svg width="30" height="30" viewBox="0 0 30 30" fill="none" xmlns="http://www.w3.org/2000/svg">
<path d="M18.4375 18.75C19.6456 18.75 20.625 19.7294 20.625 20.9375L20.6236 22.1401C20.7695 24.8765 18.7349 26.2613 15.0835 26.2613C11.4473 26.2613 9.375 24.899 9.375 22.1875V20.9375C9.375 19.7294 10.3544 18.75 11.5625 18.75H18.4375ZM4.6875 12.5L10.1575 12.5001C10.0547 12.8996 10 13.3184 10 13.75C10 15.1444 10.5708 16.4055 11.4915 17.3124L11.6941 17.5013L11.5625 17.5C11.1858 17.5 10.8233 17.5606 10.4841 17.6725C9.40319 18.0294 8.55956 18.908 8.25153 20.0102L8.20849 20.0113C4.57233 20.0113 2.5 18.649 2.5 15.9375V14.6875C2.5 13.4794 3.47938 12.5 4.6875 12.5ZM25.3125 12.5C26.5206 12.5 27.5 13.4794 27.5 14.6875L27.4986 15.8901C27.6445 18.6265 25.6099 20.0113 21.9585 20.0113L21.7481 20.0091C21.4495 18.9417 20.6485 18.0841 19.6161 17.7074C19.322 17.6 19.0091 17.5317 18.6837 17.5086L18.4375 17.5L18.3059 17.5013C19.3448 16.585 20 15.244 20 13.75C20 13.3184 19.9454 12.8996 19.8425 12.5001L25.3125 12.5ZM15 10C17.0711 10 18.75 11.6789 18.75 13.75C18.75 15.8211 17.0711 17.5 15 17.5C12.9289 17.5 11.25 15.8211 11.25 13.75C11.25 11.6789 12.9289 10 15 10ZM8.125 3.75C10.1961 3.75 11.875 5.42894 11.875 7.5C11.875 9.57106 10.1961 11.25 8.125 11.25C6.05394 11.25 4.375 9.57106 4.375 7.5C4.375 5.42894 6.05394 3.75 8.125 3.75ZM21.875 3.75C23.9461 3.75 25.625 5.42894 25.625 7.5C25.625 9.57106 23.9461 11.25 21.875 11.25C19.8039 11.25 18.125 9.57106 18.125 7.5C18.125 5.42894 19.8039 3.75 21.875 3.75Z" fill="#212121"/>
</svg>
