<svg width="373" height="373" viewBox="0 0 373 373" fill="none" xmlns="http://www.w3.org/2000/svg">
<path d="M186.563 83.5781C179.522 89.3195 173.074 95.7523 167.317 102.78C165.634 104.832 164.001 106.961 162.9 109.375C162.448 110.245 162.226 111.218 162.255 112.198C162.362 112.978 162.615 113.731 163.001 114.418C166.306 121.028 171.372 126.596 177.641 130.509C178.536 131.065 179.573 131.602 180.592 131.337C181.21 131.118 181.767 130.755 182.218 130.278L195.545 118.163C197.41 116.477 199.275 114.75 200.543 112.568C201.812 110.386 202.319 107.648 201.308 105.354" fill="black"/>
<path d="M186.347 83.3618C180.898 87.6858 175.815 92.4528 171.151 97.6141C168.819 100.109 166.638 102.74 164.62 105.496C163.621 106.85 162.796 108.325 162.165 109.886C161.829 110.689 161.701 111.564 161.792 112.43C161.944 113.262 162.235 114.063 162.654 114.798C165.429 120.281 169.41 125.063 174.299 128.786C175.539 129.798 176.877 130.683 178.294 131.427C178.989 131.804 179.786 131.949 180.569 131.841C181.313 131.635 181.986 131.23 182.516 130.669C185.314 128.145 188.104 125.61 190.886 123.064L195.079 119.256C196.325 118.137 197.597 117.018 198.742 115.779C200.868 113.485 202.636 110.509 202.304 107.26C202.226 106.519 202.036 105.795 201.741 105.111C201.498 104.537 200.663 105.033 200.902 105.6C202.14 108.506 200.801 111.766 198.947 114.067C197.947 115.253 196.86 116.363 195.694 117.387C194.391 118.578 193.087 119.763 191.782 120.942L183.889 128.122L181.897 129.935C181.323 130.453 180.715 130.983 179.89 130.916C179.066 130.848 178.331 130.356 177.652 129.931C176.974 129.506 176.429 129.133 175.836 128.711C171.075 125.305 167.126 120.887 164.273 115.775C163.527 114.444 162.509 112.896 162.781 111.299C163.053 109.703 163.997 108.192 164.855 106.868C166.623 104.138 168.816 101.646 170.965 99.2143C175.306 94.3042 179.968 89.6864 184.918 85.3909C185.538 84.8538 186.159 84.3204 186.783 83.7907C187.086 83.5334 186.653 83.1156 186.347 83.358V83.3618Z" fill="black"/>
<path d="M195.101 147.022C174.42 205.022 161.072 265.38 155.366 326.692C155.216 328.292 155.06 329.933 154.329 331.362C153.396 333.197 151.639 334.447 150.297 336.006C148.954 337.565 148.018 339.878 149.069 341.646C154.377 342.81 159.807 343.319 165.239 343.16C169.652 343.029 174.665 342.089 176.974 338.311C178.16 336.379 178.398 334.036 178.656 331.787C180.623 314.492 185.186 297.591 192.192 281.656C197.787 268.952 205.034 256.411 205.657 242.543C205.833 238.601 205.46 234.639 205.829 230.712C206.642 222.039 210.965 214.162 214.557 206.228C222.83 187.992 227.459 166.533 219.66 148.081" fill="white"/>
<path d="M155.168 328.389C155.054 329.425 154.766 330.433 154.318 331.373C153.381 333.208 151.628 334.458 150.285 336.017C148.943 337.576 148.006 339.889 149.058 341.657C154.37 342.818 159.804 343.323 165.239 343.16C169.652 343.029 174.665 342.09 176.974 338.311C178.16 336.379 178.398 334.036 178.656 331.787C178.678 331.597 178.704 331.414 178.727 331.217C170.647 331.884 162.315 331.646 155.168 328.389Z" fill="#FFFAE6"/>
<path d="M194.796 146.936C189.805 160.861 185.224 174.917 181.054 189.104C176.896 203.36 173.178 217.731 169.898 232.219C166.635 246.641 163.805 261.15 161.408 275.744C159.011 290.338 157.065 304.977 155.571 319.661C155.382 321.514 155.199 323.367 155.023 325.222C154.858 326.968 154.821 328.807 154.209 330.467C153.09 333.469 149.819 334.92 148.614 337.878C148.351 338.444 148.205 339.057 148.184 339.68C148.163 340.304 148.267 340.925 148.491 341.508C148.79 342.186 149.17 342.157 149.886 342.302C150.815 342.489 151.751 342.675 152.684 342.809C156.343 343.388 160.043 343.663 163.747 343.634C168.868 343.593 175.53 342.91 177.887 337.546C179.208 334.562 179.174 330.959 179.614 327.755C180.112 324.204 180.712 320.672 181.416 317.158C184.296 302.876 189.111 289.217 195.247 276.02C198.134 269.824 201.11 263.64 203.248 257.139C204.344 253.881 205.154 250.533 205.668 247.135C206.172 243.644 206.168 240.156 206.127 236.635C206.086 232.883 206.284 229.212 207.194 225.561C208.086 222.179 209.264 218.88 210.715 215.698C213.487 209.398 216.586 203.285 218.888 196.784C223.326 184.24 225.713 170.476 223.02 157.283C222.357 154.087 221.383 150.964 220.111 147.958C219.883 147.41 218.992 147.648 219.208 148.204C224.43 160.696 223.96 174.665 220.7 187.589C219.002 194.132 216.718 200.509 213.874 206.642C211.088 212.744 207.936 218.772 206.314 225.322C205.526 228.652 205.158 232.068 205.217 235.49C205.236 239.063 205.355 242.614 204.908 246.169C204.042 253.013 201.662 259.571 198.94 265.867C196.243 272.089 193.18 278.146 190.566 284.405C187.843 290.911 185.521 297.578 183.613 304.368C181.691 311.213 180.189 318.168 179.115 325.196C178.607 328.516 178.469 331.966 177.72 335.237C176.992 338.401 174.952 340.568 171.916 341.649C169.118 342.645 166.104 342.768 163.161 342.768C159.41 342.759 155.666 342.428 151.971 341.78C151.304 341.661 149.894 341.631 149.405 341.168C148.842 340.631 149.069 339.411 149.267 338.755C149.759 337.136 150.957 335.954 152.132 334.801C153.146 333.805 154.183 332.776 154.806 331.474C155.47 330.094 155.657 328.572 155.806 327.061C157.227 312.574 158.935 298.12 161.136 283.734C163.314 269.423 165.913 255.185 168.932 241.021C171.96 226.805 175.402 212.685 179.256 198.66C183.083 184.71 187.311 170.87 191.938 157.141C193.077 153.787 194.237 150.442 195.418 147.107C195.556 146.734 194.941 146.552 194.803 146.936H194.796Z" fill="black"/>
<path d="M203.55 148.48C203.55 188.272 219.619 242.998 221.114 247.631C229.205 272.756 237.769 297.848 249.705 321.392C251.768 325.465 253.998 329.896 253.129 334.38C252.756 336.196 251.939 338.162 252.819 339.788C256.572 346.718 272.484 332.567 274.528 328.788C278.157 322.074 273.23 315.551 269.981 309.765C257.672 287.934 268.116 253.069 256.132 231.062C252.98 225.273 248.511 219.91 247.586 213.386C246.84 208.145 248.5 202.912 249.544 197.72C253.274 179.282 245.841 153.553 234.718 138.387" fill="white"/>
<path d="M274.528 328.788C276.393 325.368 276.02 322.003 274.77 318.762C271.767 320.092 268.628 321.093 265.408 321.746C260.705 322.768 255.9 323.365 251.234 324.476C252.7 327.658 253.797 331 253.144 334.372C252.771 336.189 251.954 338.154 252.834 339.781C256.572 346.718 272.484 332.567 274.528 328.788V328.788Z" fill="#FFFAE6"/>
<path d="M209.096 197.936C210.919 211.242 213.723 224.395 217.485 237.288C220.424 247.43 223.8 257.471 227.205 267.463C232.293 282.383 237.832 297.184 244.427 311.515C246.068 315.081 247.775 318.613 249.548 322.112C251.29 325.558 253.17 329.34 252.812 333.302C252.577 335.883 250.947 338.811 253.148 340.993C254.151 341.989 255.576 342.231 256.937 342.067C260.82 341.605 264.446 338.93 267.426 336.588C269.062 335.306 270.617 333.923 272.081 332.447C273.13 331.464 274.056 330.357 274.838 329.15C278.366 323.182 274.573 316.688 271.507 311.485C268.483 306.336 266.392 300.695 265.33 294.819C262.984 282.316 263.696 269.481 262.801 256.844C262.376 250.876 261.637 244.833 259.906 239.071C259.119 236.389 258.075 233.789 256.788 231.308C255.184 228.25 253.211 225.408 251.506 222.409C249.72 219.261 248.209 215.885 247.926 212.233C247.597 208.067 248.672 203.968 249.552 199.924C250.87 193.927 251.273 187.765 250.749 181.647C249.672 168.918 245.922 156.559 239.746 145.377C238.364 142.862 236.824 140.438 235.135 138.118C234.762 137.618 233.931 138.118 234.3 138.607C241.588 148.592 246.214 160.67 248.56 172.755C249.802 178.841 250.256 185.061 249.91 191.263C249.658 194.427 249.159 197.566 248.418 200.652C247.582 204.382 246.698 208.201 246.963 212.054C247.437 218.955 251.835 224.501 255.147 230.279C258.079 235.389 259.75 241.033 260.742 246.818C262.823 259.075 262.182 271.6 263.092 283.957C263.521 289.795 264.263 295.662 265.945 301.283C266.721 303.922 267.742 306.482 268.996 308.93C270.488 311.828 272.38 314.525 273.741 317.509C275.207 320.717 275.979 324.294 274.554 327.662C273.942 329.109 272.928 330.273 271.85 331.392C268.945 334.471 265.606 337.109 261.939 339.225C259.701 340.489 254.99 342.839 253.248 339.62C252.334 337.931 253.353 335.89 253.621 334.152C253.858 332.55 253.791 330.918 253.424 329.34C252.64 325.771 250.76 322.529 249.145 319.292C242.174 305.301 236.355 290.765 231.1 276.05C227.121 264.892 223.357 253.655 219.809 242.338C216.36 231.401 213.586 220.262 211.502 208.984C210.816 205.254 210.213 201.517 209.693 197.772C209.637 197.365 209.022 197.537 209.078 197.94L209.096 197.936Z" fill="black"/>
<path d="M226.501 73.3467C219.238 73.481 211.954 73.895 204.867 75.5213C197.78 77.1476 190.879 80.0309 185.303 84.671C182.561 86.9575 180.081 89.7736 179.1 93.2015C178.447 95.4693 178.473 97.8752 178.637 100.233C179.021 105.767 180.119 111.228 181.905 116.48C184.516 124.153 188.641 131.632 188.447 139.737C188.387 142.203 188.208 145.257 190.342 146.488C191.222 146.996 192.509 147.234 192.699 148.226C192.819 148.846 192.405 149.442 192.326 150.073C192.14 151.703 194.098 152.647 195.683 153.031C208.624 156.149 222.122 156.138 235.057 152.997C238.239 152.221 241.928 150.662 242.428 147.425C242.696 145.656 241.894 143.75 242.618 142.117C243.013 141.218 243.808 140.573 244.446 139.827C246.531 137.409 246.967 134.008 247.09 130.819C247.306 125.265 246.851 119.707 246.296 114.175C245.143 102.687 243.379 90.7658 236.848 81.2431C234.531 77.8861 233.636 74.1039 226.489 73.3318" fill="black"/>
<path d="M226.501 73.0147C217.213 73.1639 207.783 73.7607 198.899 76.7709C194.881 78.1 191.068 79.9832 187.571 82.3659C184.284 84.6412 181.05 87.4648 179.32 91.1425C177.376 95.2642 177.921 100.068 178.51 104.444C179.139 109.089 180.265 113.653 181.867 118.058C183.378 122.232 185.224 126.294 186.481 130.557C187.131 132.648 187.571 134.799 187.794 136.977C187.97 138.89 187.753 140.807 187.91 142.721C188.044 144.329 188.507 146.007 189.954 146.914C190.573 147.287 191.446 147.439 191.964 147.988C192.074 148.122 192.143 148.285 192.163 148.458C192.184 148.63 192.155 148.805 192.08 148.961C191.891 149.437 191.789 149.942 191.778 150.453C191.886 152.169 193.74 153.064 195.183 153.482C197.408 154.075 199.666 154.534 201.946 154.858C211.219 156.334 220.672 156.26 229.921 154.638C232.093 154.292 234.243 153.817 236.359 153.217C238.012 152.774 239.559 152.004 240.91 150.953C241.564 150.429 242.093 149.765 242.456 149.01C242.82 148.255 243.009 147.427 243.01 146.589C243.01 145.53 242.771 144.478 242.849 143.415C242.927 142.352 243.547 141.58 244.27 140.804C245.61 139.397 246.554 137.661 247.008 135.772C247.447 133.758 247.662 131.701 247.65 129.64C247.754 124.727 247.37 119.823 246.904 114.94C246.076 106.521 245.039 97.9722 241.969 90.0273C241.226 88.0836 240.354 86.192 239.358 84.3651C238.5 82.8023 237.467 81.3625 236.527 79.8481C235.169 77.6623 233.849 75.5176 231.488 74.2941C229.924 73.5465 228.236 73.0926 226.508 72.9551C225.997 72.8991 226.001 73.7011 226.508 73.7607C228.235 73.9042 229.912 74.4128 231.428 75.2527C232.482 75.9004 233.391 76.7604 234.095 77.778C234.789 78.7478 235.352 79.7996 235.982 80.8104C236.948 82.3659 237.967 83.8728 238.821 85.4953C242.659 92.7912 244.255 101.038 245.251 109.147C245.796 113.586 246.243 118.051 246.493 122.516C246.628 124.918 246.687 127.327 246.631 129.733C246.647 131.741 246.427 133.744 245.975 135.701C245.745 136.6 245.399 137.465 244.945 138.275C244.406 139.101 243.781 139.867 243.08 140.561C242.429 141.24 241.999 142.102 241.849 143.031C241.711 144.053 241.902 145.071 241.958 146.089C242.028 146.899 241.889 147.713 241.555 148.453C241.22 149.194 240.702 149.836 240.048 150.319C238.739 151.334 237.12 151.923 235.538 152.356C231.161 153.499 226.689 154.241 222.177 154.571C217.655 154.939 213.111 154.939 208.589 154.571C206.286 154.387 203.996 154.106 201.718 153.728C200.599 153.542 199.458 153.329 198.335 153.094C197.292 152.898 196.26 152.649 195.243 152.348C194.488 152.15 193.797 151.758 193.24 151.21C192.572 150.464 193.024 149.767 193.195 148.928C193.283 148.549 193.252 148.152 193.106 147.791C192.961 147.43 192.708 147.122 192.382 146.91C191.756 146.47 190.976 146.309 190.357 145.854C189.089 144.918 188.973 143.094 188.954 141.65C188.932 139.688 189.021 137.764 188.764 135.806C188.201 131.542 186.705 127.488 185.142 123.497C183.542 119.394 181.938 115.339 180.883 111.068C180.329 108.836 179.896 106.577 179.585 104.298C179.249 102.031 179.078 99.7421 179.074 97.45C179.046 95.2985 179.51 93.1692 180.431 91.2246C181.329 89.4974 182.503 87.9288 183.908 86.5808C186.859 83.7567 190.255 81.438 193.96 79.7176C201.961 75.8458 210.872 74.4508 219.671 73.9398C221.95 73.8055 224.233 73.7309 226.515 73.6787C226.603 73.6787 226.688 73.6437 226.75 73.5815C226.812 73.5192 226.847 73.4348 226.847 73.3467C226.847 73.2587 226.812 73.1742 226.75 73.112C226.688 73.0497 226.603 73.0147 226.515 73.0147H226.501Z" fill="black"/>
<path d="M184.519 48.5124C182.412 52.2163 184.314 57.4383 181.703 60.8214C181.428 61.1103 181.214 61.4515 181.073 61.8248C180.868 62.6081 181.446 63.2198 182.192 63.6413C183.635 64.4432 183.557 66.5134 183.74 67.9382C183.934 69.4302 184.008 70.967 184.292 72.4478C184.538 73.7197 185.068 75.0066 186.108 75.7824C186.965 76.3686 187.992 76.6546 189.029 76.5956C190.577 76.562 192.035 75.9801 193.58 75.9018C194.102 75.8757 194.699 75.8607 195.072 76.2039C195.314 76.4583 195.485 76.7722 195.568 77.114C196.189 78.974 196.785 80.839 197.354 82.709C197.454 83.2127 197.702 83.675 198.067 84.0369C198.574 84.4435 199.294 84.4099 199.932 84.3129C202.362 83.9539 204.697 83.1151 206.799 81.8452C208.902 80.5754 210.732 78.8999 212.181 76.9163C212.479 76.5847 212.648 76.1573 212.659 75.7115C212.562 75.2837 212.337 74.8957 212.013 74.6C209.346 71.5712 207.56 67.7331 206.631 63.8203C205.139 57.5987 207.977 49.4598 203.188 44.2453C202.042 43.007 200.546 42.147 198.899 41.7797C196.11 41.1984 193.211 41.4567 190.569 42.522C188.242 43.4433 185.236 45.2374 184.851 47.9678" fill="white"/>
<path d="M184.24 48.3483C183.296 50.0118 183.094 51.9291 182.975 53.8053C182.856 55.6814 182.852 57.7143 182.02 59.4562C181.822 59.8671 181.58 60.2549 181.297 60.6125C180.937 60.9779 180.693 61.441 180.595 61.9441C180.48 62.9102 181.226 63.5667 181.972 64.0255C182.718 64.4842 182.949 65.275 183.091 66.0844C183.236 66.9759 183.292 67.8935 183.389 68.7961C183.617 70.9222 183.613 73.3915 184.926 75.1968C186.284 77.0618 188.589 77.2483 190.696 76.8529C191.815 76.6403 193.009 76.2561 194.18 76.3456C194.84 76.3941 195.016 76.8305 195.206 77.3975C195.417 78.0391 195.627 78.6806 195.836 79.3222C196.209 80.5344 196.582 81.7579 196.978 82.9701C197.276 83.9175 197.783 84.6747 198.843 84.809C199.805 84.9358 200.868 84.6598 201.8 84.436C202.781 84.1923 203.74 83.8705 204.669 83.4737C206.538 82.6779 208.269 81.5901 209.798 80.2509C210.564 79.582 211.273 78.8496 211.916 78.0614C212.491 77.3565 213.36 76.4464 213.11 75.4504C212.958 75.0007 212.702 74.5931 212.364 74.2606C211.991 73.813 211.618 73.3542 211.245 72.8805C210.591 71.986 210.001 71.0462 209.481 70.0681C208.436 68.098 207.645 66.0038 207.127 63.8352C206.742 62.0187 206.571 60.1636 206.616 58.3074C206.616 54.6221 206.94 50.7019 205.542 47.2032C204.866 45.4146 203.687 43.8599 202.147 42.7272C200.376 41.4701 198.182 41.0076 196.038 41.0188C193.859 41.0507 191.711 41.5306 189.726 42.4288C188.126 43.1412 186.552 44.111 185.508 45.5433C184.997 46.2299 184.664 47.032 184.538 47.8783C184.482 48.2998 185.12 48.4975 185.198 48.0573C185.5 46.3341 186.847 45.0733 188.261 44.1707C189.835 43.1791 191.581 42.4897 193.408 42.1378C195.538 41.7163 197.884 41.7201 199.939 42.5108C201.712 43.212 203.187 44.5065 204.113 46.1737C205.896 49.277 205.769 53.063 205.724 56.5207C205.662 58.3174 205.712 60.1163 205.874 61.9068C206.111 63.7842 206.581 65.6247 207.272 67.3862C208.007 69.3542 208.983 71.2235 210.178 72.9513C210.443 73.3243 210.719 73.6973 211.002 74.0703C211.409 74.4887 211.783 74.9376 212.121 75.4131C212.397 75.9018 212.121 76.3009 211.838 76.7074C211.536 77.1278 211.212 77.5324 210.868 77.9197C208.292 80.8335 204.85 82.8453 201.047 83.6602C200.301 83.8243 198.947 84.2458 198.302 83.6266C197.947 83.2834 197.843 82.6941 197.705 82.2428C197.526 81.6534 197.344 81.0666 197.16 80.4822C196.787 79.311 196.414 78.1398 196.041 76.9797C195.709 76.0174 195.172 75.4579 194.113 75.4206C191.938 75.346 189.816 76.5396 187.641 75.9689C185.467 75.3982 184.844 73.1528 184.587 71.1423C184.448 70.0233 184.355 68.9267 184.214 67.8226C184.153 67.0373 184.054 66.2555 183.915 65.4802C183.781 64.7177 183.398 64.0212 182.826 63.4995C182.203 62.9922 181.047 62.567 181.688 61.5748C181.931 61.2018 182.237 60.8661 182.468 60.4782C182.686 60.104 182.869 59.7107 183.016 59.3033C183.303 58.4686 183.486 57.6016 183.561 56.7221C183.755 54.8907 183.654 53.0294 183.967 51.2092C184.104 50.3246 184.386 49.4687 184.803 48.6765C184.843 48.6025 184.853 48.5157 184.83 48.4346C184.808 48.3534 184.755 48.2842 184.682 48.2416C184.609 48.199 184.523 48.1863 184.441 48.2062C184.359 48.2261 184.288 48.277 184.243 48.3483H184.24Z" fill="black"/>
<path d="M186.66 57.9531L186.633 57.986L186.66 57.9642L186.624 57.9968L186.63 57.9944C186.63 57.9943 186.63 57.9942 186.631 57.994L186.63 57.9944C186.628 57.9953 186.626 57.9962 186.624 57.9972L186.623 57.9978L186.623 57.9973C186.622 57.9979 186.621 57.9984 186.62 57.999C186.629 57.9994 186.637 58.0002 186.645 58.0015H186.655L186.701 57.9828C186.688 57.9894 186.674 57.9957 186.66 58.0015H186.675L186.626 58.0152C186.62 58.0175 186.614 58.0197 186.608 58.0218C186.609 58.0225 186.61 58.0232 186.612 58.0239L186.607 58.0219C186.604 58.0229 186.602 58.0238 186.599 58.0247L186.594 58.0365L186.588 58.077C186.59 58.0816 186.591 58.0863 186.593 58.091L186.588 58.077L186.585 58.095C186.584 58.1012 186.583 58.1073 186.582 58.1134L186.585 58.095C186.586 58.0884 186.586 58.0817 186.587 58.0749C186.585 58.0715 186.584 58.068 186.582 58.0646L186.582 58.0655V58.1059C186.581 58.0959 186.579 58.086 186.578 58.0761L186.575 58.0836C186.576 58.0808 186.577 58.078 186.578 58.0752C186.575 58.0619 186.572 58.0487 186.569 58.0356C186.568 58.0342 186.567 58.0328 186.566 58.0313H186.545L186.562 58.0238C186.558 58.017 186.555 58.0102 186.55 58.0036C186.546 58.0028 186.542 58.0021 186.537 58.0015H186.549C186.549 58.0013 186.549 58.0011 186.549 58.0009C186.547 57.999 186.545 57.997 186.543 57.9951C186.542 57.9945 186.541 57.9939 186.54 57.9933L186.515 57.9828C186.523 57.9859 186.532 57.9894 186.54 57.9933L186.543 57.9946C186.533 57.9841 186.522 57.974 186.511 57.9642L186.539 57.9856C186.533 57.977 186.527 57.9686 186.521 57.9604L186.515 57.953C186.517 57.9555 186.519 57.9579 186.521 57.9604L186.543 57.9886L186.557 57.9998C186.556 57.9962 186.555 57.9927 186.553 57.9892L186.552 57.9866C186.553 57.9875 186.553 57.9883 186.553 57.9892L186.557 58L186.559 58.0015H186.571C186.575 58.0009 186.578 58.0005 186.582 58.0001V57.9903C186.583 57.9935 186.583 57.9967 186.584 57.9999C186.589 57.9994 186.594 57.999 186.6 57.9988C186.6 57.9972 186.6 57.9956 186.601 57.994L186.6 57.9988C186.602 57.9988 186.605 57.9987 186.608 57.9987C186.609 57.9963 186.61 57.9939 186.611 57.9914L186.608 57.994L186.612 57.99C186.615 57.9852 186.617 57.9803 186.619 57.9754L186.614 57.9881L186.653 57.9493L186.669 57.9421L186.675 57.9394C186.679 57.9373 186.682 57.935 186.686 57.9326L186.698 57.9232C186.694 57.9265 186.69 57.9297 186.686 57.9326L186.68 57.9371L186.761 57.9008C186.743 57.9041 186.724 57.9041 186.705 57.9008H186.757H186.761H186.824H186.855L186.81 57.8821L186.88 57.9008H186.872L186.918 57.9269L186.889 57.9151L186.936 57.9509L186.927 57.938L186.925 57.935C186.924 57.9335 186.923 57.9321 186.921 57.9306L186.925 57.935C186.925 57.9355 186.926 57.936 186.926 57.9366L186.884 57.8784L186.935 57.9472C186.936 57.9481 186.937 57.949 186.938 57.9499L186.933 57.9381L186.941 57.9527C186.945 57.9569 186.95 57.9609 186.954 57.9646L186.959 57.9679C186.957 57.9669 186.956 57.9658 186.954 57.9646L186.942 57.9554L186.945 57.9599L186.992 58.0239L186.948 57.9651L186.951 57.9717L186.942 57.9581L186.936 57.9509L186.889 57.9151L186.855 57.9008H186.824H186.761L186.68 57.9371L186.66 57.9531Z" fill="black"/>
<path d="M185.433 55.7187C185.556 55.7503 185.684 55.7503 185.806 55.7187H185.877H185.814C185.814 55.7187 185.918 55.7187 185.933 55.7187H185.985C185.899 55.7187 185.877 55.7187 185.918 55.7187C185.992 55.7474 186.07 55.7614 186.149 55.7598C186.228 55.7598 186.31 55.7598 186.388 55.7822L186.213 55.7598C186.421 55.7875 186.628 55.8261 186.832 55.8754L186.653 55.7971H186.683C186.862 55.893 187.07 55.9208 187.268 55.8754C187.379 55.8453 187.482 55.7898 187.568 55.7135C187.654 55.6371 187.721 55.5419 187.764 55.4353C187.809 55.336 187.832 55.2281 187.83 55.1192C187.829 55.0103 187.804 54.903 187.756 54.8049C187.709 54.7068 187.641 54.6202 187.557 54.5512C187.472 54.4823 187.374 54.4326 187.268 54.4058C186.697 54.3014 186.112 54.3014 185.541 54.4058C185.444 54.4308 185.354 54.4751 185.274 54.5359C185.195 54.5968 185.128 54.6731 185.079 54.7601C184.995 54.9096 184.962 55.0826 184.986 55.2525C185.008 55.4356 185.096 55.6043 185.233 55.7277C185.37 55.8511 185.547 55.9208 185.732 55.9239C186.252 55.8785 186.776 55.8872 187.295 55.95L187.089 55.9239C187.35 55.9612 187.608 56.0283 187.869 56.0507L187.477 54.6035L187.321 54.693C187.203 54.7636 187.108 54.8675 187.049 54.9916C186.99 55.1157 186.969 55.2545 186.989 55.3905C187.007 55.5254 187.064 55.6521 187.152 55.7554C187.241 55.8586 187.358 55.934 187.488 55.9724L187.664 56.0246C187.852 56.0537 188.045 56.0126 188.206 55.909C188.366 55.8054 188.483 55.6466 188.534 55.4626C188.585 55.2786 188.567 55.0823 188.483 54.9109C188.399 54.7395 188.255 54.6049 188.078 54.5326C187.85 54.4757 187.618 54.4407 187.384 54.4282C187.198 54.4058 187.011 54.3834 186.828 54.3722C186.463 54.3461 186.097 54.3461 185.732 54.3722L185.937 55.8941H185.982L185.773 55.9202C185.986 55.8927 186.2 55.8766 186.414 55.8717C186.627 55.8717 186.839 55.8941 187.052 55.9052L186.851 54.4132H186.817L187.015 54.3871C186.679 54.386 186.345 54.4261 186.019 54.5065C185.944 54.5283 185.872 54.557 185.803 54.5923L185.679 54.6893C185.646 54.7191 185.65 54.7154 185.679 54.6893C185.709 54.6631 185.679 54.6893 185.65 54.6893L185.56 54.7452C185.4 54.8608 185.187 55.0175 185.142 55.2301C185.117 55.3329 185.131 55.4416 185.183 55.5339C185.235 55.6262 185.321 55.695 185.422 55.7262L185.433 55.7187Z" fill="black"/>
<path d="M198.611 56.7445C198.407 56.7976 198.222 56.9062 198.076 57.0583C197.929 57.2104 197.828 57.4 197.783 57.6061C197.69 57.846 197.69 58.1122 197.783 58.3521C197.824 58.4278 197.884 58.4914 197.958 58.5366C198.031 58.5817 198.115 58.6069 198.201 58.6095C198.297 58.6122 198.392 58.584 198.471 58.529C198.551 58.4739 198.61 58.395 198.641 58.3036C198.67 58.2023 198.665 58.094 198.626 57.996C198.587 57.898 198.516 57.816 198.425 57.7628C198.323 57.7065 198.206 57.6835 198.09 57.6968C197.975 57.7102 197.866 57.7593 197.78 57.8374C197.735 57.8875 197.706 57.9486 197.693 58.0142C197.681 58.0798 197.686 58.1476 197.709 58.2104C197.738 58.2729 197.783 58.3262 197.84 58.3643C197.898 58.4025 197.964 58.4241 198.033 58.4267C198.099 58.4231 198.164 58.4118 198.227 58.3932H198.134H198.194H198.097H198.134L198.048 58.3558L198.074 58.3745L198 58.3148L198.026 58.3372L197.966 58.2663C197.968 58.275 197.968 58.2838 197.966 58.2924L197.929 58.2067C197.931 58.2165 197.931 58.2267 197.929 58.2365V58.1395V58.0425C197.931 58.0524 197.931 58.0625 197.929 58.0724L197.966 57.9866C197.99 57.9493 198.022 57.9175 198.059 57.8933L198.145 57.8598H198.119H198.216H198.175H198.272H198.231L198.317 57.8933C198.272 57.871 198.361 57.9381 198.373 57.953C198.384 57.9679 198.373 57.953 198.373 57.953L198.41 58.0388C198.408 58.0215 198.408 58.0039 198.41 57.9866V58.0836C198.394 57.9598 198.394 57.8344 198.41 57.7106V57.8038C198.421 57.7227 198.44 57.6427 198.466 57.5651C198.464 57.5527 198.464 57.5402 198.466 57.5278L198.447 57.5688C198.447 57.5688 198.447 57.5315 198.47 57.5166C198.487 57.483 198.507 57.4506 198.529 57.4196C198.57 57.3599 198.503 57.4495 198.529 57.4196L198.567 57.3786L198.604 57.3413C198.604 57.3413 198.66 57.2928 198.604 57.3413C198.548 57.3898 198.604 57.3413 198.604 57.3413L198.649 57.3152C198.708 57.2816 198.611 57.3152 198.649 57.3152L198.705 57.2965C198.743 57.2862 198.779 57.2683 198.811 57.2438C198.842 57.2194 198.868 57.1889 198.888 57.1541C198.907 57.1193 198.919 57.081 198.924 57.0414C198.928 57.0018 198.925 56.9617 198.913 56.9235C198.89 56.8474 198.838 56.7833 198.769 56.7444C198.699 56.7055 198.618 56.6948 198.54 56.7147L198.611 56.7445Z" fill="black"/>
<path d="M187.175 67.2817C187.572 67.1399 187.949 66.9454 188.294 66.7036C188.475 66.5775 188.644 66.4365 188.801 66.2821C188.973 66.1316 189.12 65.954 189.234 65.7562C189.264 65.7167 189.286 65.6718 189.299 65.6238C189.312 65.5758 189.315 65.5258 189.308 65.4767C189.302 65.4275 189.286 65.3801 189.261 65.3371C189.236 65.2942 189.203 65.2566 189.163 65.2265C189.124 65.1964 189.079 65.1743 189.031 65.1616C188.983 65.1488 188.933 65.1457 188.884 65.1522C188.835 65.1588 188.787 65.175 188.744 65.1999C188.701 65.2248 188.664 65.2579 188.634 65.2974C188.582 65.3464 188.534 65.4001 188.492 65.4578L188.447 65.5137C188.417 65.5585 188.507 65.4428 188.447 65.5137C188.387 65.5846 188.324 65.6629 188.261 65.7338C188.134 65.8755 187.996 66.0061 187.858 66.1329L187.649 66.3082C187.578 66.3679 187.682 66.2858 187.649 66.3082L187.589 66.353L187.474 66.435C187.313 66.5451 187.147 66.6448 186.974 66.7334C186.909 66.7675 186.86 66.8246 186.835 66.8934C186.811 66.9622 186.813 67.0377 186.842 67.1048C186.871 67.172 186.923 67.2259 186.99 67.2559C187.057 67.2859 187.132 67.2898 187.201 67.2668L187.175 67.2817Z" fill="black"/>
<path d="M184.527 44.9017C184.9 47.2852 186.653 49.2509 188.686 50.549C190.719 51.847 193.035 52.6079 195.254 53.5553C195.452 53.6212 195.628 53.7384 195.765 53.8948C195.86 54.0446 195.919 54.2144 195.937 54.3909L196.437 57.0429C196.586 56.605 196.831 56.2058 197.153 55.8742C197.476 55.5426 197.868 55.2869 198.302 55.1257C198.743 54.9797 199.218 54.973 199.663 55.1064C200.108 55.2399 200.502 55.5071 200.79 55.8717C201.112 56.3812 201.27 56.9777 201.241 57.58C201.237 58.6288 200.956 59.6581 200.428 60.564C200.236 60.8153 200.122 61.1175 200.1 61.4331C200.132 61.6501 200.214 61.8568 200.338 62.0374C200.741 62.7162 201.146 63.3938 201.554 64.0702C201.887 64.7151 202.353 65.2811 202.923 65.7301C203.979 66.45 205.381 66.2858 206.653 66.1031C207.291 66.0024 208.007 65.8569 208.354 65.3123C208.5 65.0432 208.591 64.7478 208.623 64.4432C209.227 60.758 209.686 57.0566 209.999 53.339C210.141 51.668 210.253 49.982 209.895 48.3296C209.205 45.1852 206.787 42.5742 203.867 41.2202C200.946 39.8662 197.582 39.6686 194.404 40.1908C191.226 40.713 188.205 41.9289 185.288 43.2941C183.296 44.2303 181.11 45.5321 180.741 47.7067C180.394 49.7396 181.808 51.6232 183.21 53.1338C183.019 50.4762 183.886 47.8508 185.623 45.8305" fill="black"/>
<path d="M184.24 44.9801C184.657 47.8074 186.817 49.9596 189.201 51.3211C190.617 52.089 192.082 52.7631 193.587 53.339C194.02 53.5143 194.452 53.6896 194.885 53.8761C195.239 54.029 195.433 54.1111 195.515 54.5177C195.694 55.398 195.836 56.2894 195.997 57.1734C196.09 57.6695 196.743 57.5464 196.892 57.1734C197.328 56.0544 198.514 55.1294 199.745 55.6255C201.088 56.1663 200.864 58.0463 200.547 59.1653C200.441 59.522 200.296 59.866 200.114 60.191C199.931 60.4701 199.786 60.7724 199.682 61.0899C199.503 61.8359 200.055 62.485 200.409 63.0743C201.062 64.1746 201.677 65.551 202.815 66.2411C203.953 66.9311 205.277 66.7931 206.497 66.6141C207.095 66.575 207.679 66.4084 208.209 66.1254C208.456 65.9566 208.664 65.7354 208.816 65.4776C208.969 65.2198 209.063 64.9317 209.093 64.6334C209.652 61.4928 210.036 58.3148 210.342 55.1443C210.626 52.2237 211.01 49.1763 209.805 46.4198C208.798 44.2091 207.109 42.3791 204.986 41.1978C199.842 38.2735 193.565 39.3328 188.331 41.403C187.015 41.9215 185.72 42.4884 184.445 43.1263C183.366 43.6283 182.383 44.3135 181.539 45.1516C180.732 45.9692 180.256 47.0556 180.2 48.2028C180.166 49.5568 180.793 50.8324 181.588 51.888C181.994 52.4235 182.438 52.9296 182.915 53.4024C183.158 53.6449 183.691 53.4845 183.661 53.1003C183.547 51.8386 183.689 50.5667 184.079 49.3614C184.469 48.1562 185.1 47.0425 185.933 46.0879C186.284 45.6888 185.691 45.1032 185.351 45.506C183.569 47.6317 182.648 50.3478 182.77 53.1189L183.516 52.8131C181.972 50.9966 180.159 48.4937 181.938 46.2072C182.633 45.3879 183.49 44.7223 184.456 44.2527C185.642 43.6265 186.861 43.0649 188.108 42.5705C193.087 40.5302 199.078 39.2471 204.109 41.8804C206.141 42.9167 207.784 44.5806 208.794 46.625C210.006 49.1763 209.626 52.0745 209.365 54.79C209.074 57.8511 208.686 60.9022 208.201 63.9434C208.104 64.5588 208.074 65.1594 207.422 65.4167C206.884 65.5925 206.326 65.6966 205.762 65.7263C204.445 65.8643 203.27 65.7002 202.449 64.5663C201.994 63.9397 201.621 63.2459 201.222 62.5857C200.957 62.2471 200.746 61.8696 200.596 61.4667C200.532 61.116 200.931 60.6684 201.077 60.3477C201.655 59.1354 201.98 57.5427 201.521 56.2447C201.315 55.6783 200.919 55.2005 200.401 54.8926C199.883 54.5846 199.274 54.4653 198.678 54.555C197.38 54.7154 196.44 55.7337 195.989 56.9011H196.884C196.713 56.0171 196.56 55.1294 196.37 54.2528C196.205 53.4882 195.739 53.2607 195.06 52.9809C193.535 52.3543 191.979 51.806 190.499 51.0823C187.91 49.8141 185.355 47.7999 184.81 44.8048C184.743 44.4318 184.184 44.5921 184.24 44.9614V44.9801Z" fill="black"/>
<path d="M229.57 160.491C230.733 162.698 232.215 164.721 233.968 166.496C234.837 167.381 235.764 168.207 236.743 168.969C237.661 169.685 238.672 170.577 239.917 170.357C240.432 170.263 240.208 169.506 239.705 169.581C239.089 169.67 238.515 169.275 238.037 168.939C237.56 168.603 237.09 168.245 236.635 167.876C235.772 167.172 234.952 166.415 234.181 165.612C232.62 163.958 231.244 162.138 230.078 160.185C230.039 160.118 229.975 160.07 229.9 160.05C229.825 160.03 229.745 160.041 229.679 160.08C229.612 160.119 229.563 160.183 229.544 160.258C229.524 160.333 229.535 160.413 229.574 160.48L229.57 160.491Z" fill="#FFFAE6"/>
<path d="M197.858 160.606C196.077 163.185 193.977 165.528 191.606 167.578C191.207 167.913 191.785 168.499 192.181 168.152C194.598 166.062 196.69 163.623 198.388 160.916C198.596 160.576 198.082 160.289 197.858 160.606V160.606Z" fill="#FFFAE6"/>
<path d="M177.764 232.83C179.271 233.134 180.712 233.702 182.02 234.509C182.36 234.721 182.677 234.181 182.334 233.975C180.976 233.151 179.481 232.575 177.921 232.275C177.548 232.204 177.403 232.756 177.768 232.83H177.764Z" fill="#FFFAE6"/>
<path d="M178.025 228.134L183.561 230.816C183.908 230.988 184.214 230.466 183.863 230.298L178.313 227.642C177.984 227.485 177.693 227.974 178.025 228.134V228.134Z" fill="#FFFAE6"/>
<path d="M226.471 229.731C228.262 227.851 230.359 226.29 232.674 225.113C233.047 224.923 232.715 224.367 232.345 224.553C229.989 225.77 227.856 227.378 226.038 229.309C225.777 229.589 226.195 230.01 226.459 229.731H226.471Z" fill="#FFFAE6"/>
<path d="M228.97 233.793C230.585 231.801 232.456 230.031 234.535 228.53C234.859 228.295 234.535 227.746 234.214 227.985C232.102 229.53 230.201 231.345 228.56 233.382C228.332 233.67 228.735 234.08 228.97 233.793Z" fill="#FFFAE6"/>
<path d="M226.661 224.967C228.341 228.447 230.53 231.658 233.155 234.494C233.427 234.781 233.852 234.352 233.588 234.061C231.012 231.249 228.848 228.087 227.157 224.669C226.993 224.33 226.486 224.628 226.65 224.967H226.661Z" fill="#FFFAE6"/>
<path d="M230.014 221.264L235.643 230.324C235.881 230.697 236.486 230.354 236.247 229.951L230.626 220.887C230.387 220.514 229.775 220.853 230.014 221.26V221.264Z" fill="#FFFAE6"/>
<path d="M218.205 73.854C227.241 72.9029 236.349 72.8617 245.393 73.7309C248.034 73.9883 250.697 74.324 253.181 75.249C254.119 75.5392 254.967 76.0659 255.643 76.7783C256.12 77.4064 256.475 78.1188 256.687 78.8783C259.048 85.8815 259.426 93.4009 257.78 100.606C257.545 101.631 257.195 102.747 256.288 103.28C255.697 103.565 255.046 103.705 254.39 103.687L236.4 104.604C233.893 104.731 231.338 104.854 228.914 104.209C226.489 103.563 224.173 102.004 223.27 99.6656" fill="black"/>
<path d="M218.205 74.1636C225.046 73.5415 231.922 73.3944 238.783 73.7234C242.163 73.8336 245.533 74.1425 248.877 74.6485C250.423 74.8827 251.939 75.2868 253.398 75.8533C254.054 76.1012 254.652 76.4822 255.154 76.9723C255.638 77.5481 255.993 78.2209 256.195 78.9454C258.268 85.0357 258.825 91.5397 257.818 97.8939C257.695 98.6809 257.542 99.4642 257.37 100.24C257.261 100.876 257.062 101.493 256.777 102.071C256.005 103.47 254.188 103.228 252.816 103.295L242.525 103.821L237.332 104.086C235.68 104.171 234.024 104.283 232.368 104.216C229.57 104.108 226.631 103.373 224.725 101.173C224.304 100.691 223.966 100.142 223.725 99.55C223.494 98.9793 222.554 99.2292 222.789 99.8073C223.83 102.374 226.254 104.033 228.873 104.712C232.23 105.589 235.852 105.134 239.279 104.958L250.313 104.395L253.002 104.257C253.84 104.246 254.676 104.183 255.505 104.067C256.934 103.813 257.698 102.698 258.082 101.385C258.504 99.8361 258.799 98.2557 258.966 96.6592C259.173 94.9912 259.275 93.3119 259.272 91.6312C259.264 88.2535 258.84 84.8898 258.008 81.6161C257.803 80.8179 257.571 80.0234 257.318 79.2401C257.104 78.4777 256.805 77.742 256.426 77.0469C255.647 75.7488 254.282 75.1147 252.905 74.641C249.63 73.522 246.072 73.287 242.64 73.0334C235.417 72.4825 228.161 72.5548 220.95 73.2497C220.033 73.3393 219.118 73.44 218.205 73.5519C217.832 73.5966 217.806 74.1972 218.205 74.1636Z" fill="black"/>
<path d="M250.805 79.4005C247.914 86.2898 248.705 93.1195 251.178 100.173C251.376 100.736 251.622 101.337 252.129 101.646C252.542 101.851 253 101.948 253.461 101.93C260.716 102.205 267.982 101.934 275.196 101.117C281.705 100.371 288.381 99.1136 293.797 95.4246C298.49 92.2317 301.899 87.4051 304.185 82.2092C306.472 77.0133 307.714 71.4258 308.762 65.8457C309.642 61.1409 310.397 56.4163 311.026 51.6717C307.997 50.9996 304.887 50.7585 301.791 50.9555C300.358 51.0488 298.87 51.2577 297.688 52.0745C296.595 52.8205 295.89 54.0179 295.196 55.1518C291.383 61.4006 286.891 67.2087 281.802 72.4702C280.683 73.5892 279.564 74.7343 278.168 75.4915C276.501 76.4016 274.588 76.7298 272.708 76.9835C267.354 77.6942 261.943 77.8804 256.553 77.5392C255.016 77.4423 253.401 77.3192 252.017 77.9831C250.634 78.6471 248.213 86.8829 248.97 88.222" fill="white"/>
<path d="M250.54 79.2439C249.012 82.753 248.35 86.5779 248.608 90.3966C248.738 92.2832 249.03 94.1552 249.481 95.9916C249.73 96.9688 250.001 97.9361 250.294 98.8935C250.548 99.6954 250.757 100.613 251.223 101.325C251.689 102.038 252.398 102.292 253.226 102.344C254.222 102.403 255.222 102.411 256.21 102.43C258.299 102.469 260.389 102.463 262.48 102.411C266.601 102.309 270.711 102.032 274.811 101.579C281.82 100.803 289.153 99.4716 294.916 95.1299C300.511 90.9225 304.029 84.63 306.207 78.0987C307.389 74.3975 308.323 70.6219 309.004 66.7968C309.78 62.7461 310.46 58.6791 311.045 54.596C311.186 53.6163 311.322 52.634 311.451 51.6493C311.45 51.5529 311.418 51.4595 311.36 51.3829C311.301 51.3063 311.219 51.2506 311.127 51.2241C307.958 50.518 304.704 50.278 301.466 50.5117C300.075 50.6161 298.616 50.8548 297.441 51.6605C296.266 52.4662 295.543 53.6561 294.83 54.831C291.591 60.1227 287.867 65.1025 283.708 69.7062C282.678 70.8252 281.634 71.9778 280.533 73.0409C279.472 74.1394 278.193 75.0035 276.777 75.5773C275.336 76.0636 273.845 76.3827 272.331 76.5284C270.63 76.7485 268.918 76.9014 267.206 77.0282C263.838 77.2495 260.46 77.2657 257.09 77.0767C255.632 76.9947 254.106 76.8156 252.693 77.2035C252.343 77.2719 252.011 77.4111 251.717 77.6125C251.424 77.8139 251.174 78.0733 250.984 78.3748C250.085 79.7623 249.574 81.4669 249.119 83.0447C248.871 83.9099 248.67 84.7877 248.515 85.6744C248.375 86.3399 248.323 87.0207 248.358 87.6998C248.372 87.9585 248.437 88.2119 248.549 88.4458C248.828 88.9717 249.63 88.5054 249.351 87.9758C249.313 87.9012 249.351 88.0429 249.351 87.9534C249.351 87.8639 249.324 87.8602 249.313 87.8117C249.296 87.7168 249.286 87.6208 249.283 87.5244C249.277 87.2292 249.29 86.9338 249.324 86.6404C249.419 85.8348 249.571 85.0371 249.779 84.2532C250.153 82.575 250.725 80.9472 251.484 79.4042C251.612 79.1434 251.762 78.8939 251.932 78.6582C252.03 78.5097 252.17 78.3941 252.335 78.3263C253.621 77.7257 255.173 77.9011 256.546 77.9868C259.821 78.1932 263.105 78.2057 266.382 78.0241C268.003 77.9346 269.619 77.7966 271.231 77.6101C272.737 77.4721 274.232 77.2341 275.707 76.8977C277.093 76.5675 278.4 75.9653 279.552 75.1259C280.686 74.2349 281.74 73.2477 282.704 72.1755C286.845 67.8233 290.581 63.1042 293.868 58.0761C294.663 56.8564 295.394 55.5994 296.184 54.3797C296.975 53.16 297.941 52.179 299.377 51.7687C300.813 51.3584 302.294 51.3323 303.741 51.3248C305.341 51.3179 306.94 51.4288 308.523 51.6568C309.319 51.7761 310.11 51.9228 310.896 52.0969L310.571 51.668C310.041 55.6466 309.42 59.6091 308.706 63.5555C308.046 67.2482 307.337 70.9371 306.349 74.559C304.547 81.1685 301.675 87.696 296.651 92.5077C291.626 97.3194 284.894 99.3075 278.146 100.292C270.401 101.381 262.576 101.795 254.759 101.531C254.304 101.531 253.849 101.516 253.394 101.486C252.938 101.521 252.486 101.375 252.137 101.079C251.574 100.49 251.391 99.4343 251.141 98.6846C250.55 96.8778 250.091 95.0303 249.768 93.1568C249.123 89.5082 249.276 85.7632 250.216 82.1794C250.465 81.2644 250.765 80.364 251.115 79.4826C251.242 79.1618 250.693 78.9268 250.555 79.2439H250.54Z" fill="black"/>
<path d="M323.764 40.8137C320.949 38.9924 317.741 37.8649 314.405 37.5238C313.716 37.4264 313.015 37.453 312.335 37.6021C310.985 37.9751 309.978 39.1538 309.482 40.4593C308.986 41.7648 308.915 43.1934 308.863 44.5884C308.825 45.6291 308.971 46.9383 309.952 47.2815C310.698 47.5389 311.518 47.0167 311.944 46.349C312.369 45.6813 312.529 44.8831 312.846 44.1595C312.486 44.6037 312.26 45.1412 312.194 45.7092C312.128 46.2772 312.225 46.8523 312.473 47.3673C312.82 48.0573 313.592 48.6317 314.338 48.4229C315.592 48.0685 315.431 46.1849 316.278 45.1852C316.08 46.0021 315.883 46.8563 316.088 47.6694C316.293 48.4825 317.043 49.2248 317.874 49.1129C318.993 48.96 319.396 47.5426 319.523 46.4087C319.866 47.2442 319.523 48.3483 320.135 49.0197C320.39 49.2434 320.714 49.3735 321.053 49.3884C321.392 49.4033 321.726 49.3022 322 49.1017C322.535 48.6947 322.938 48.1377 323.156 47.5016C323.683 46.2322 323.949 44.8699 323.939 43.4955C323.896 43.1261 323.96 42.7522 324.122 42.4176C324.264 42.205 324.495 42.0446 324.629 41.8394C324.764 41.6343 324.745 41.2613 324.503 41.1829" fill="white"/>
<path d="M323.906 40.5637C322.133 39.3027 320.156 38.3587 318.061 37.7737C316.996 37.4708 315.91 37.2489 314.812 37.1098C313.745 36.9718 312.656 36.8972 311.649 37.3373C309.859 38.1206 308.922 40.0304 308.613 41.8655C308.439 42.9031 308.361 43.9543 308.378 45.0062C308.378 45.7857 308.519 46.666 309.075 47.2442C309.406 47.5744 309.849 47.7683 310.316 47.7876C310.783 47.807 311.24 47.6503 311.597 47.3486C312.581 46.6026 312.761 45.4127 313.212 44.3646C313.376 43.9916 312.876 43.4396 312.548 43.8536C312.226 44.2469 311.992 44.7052 311.864 45.197C311.735 45.6888 311.714 46.2026 311.802 46.7033C311.973 47.6507 312.637 48.6206 313.622 48.8481C314.023 48.9286 314.439 48.8682 314.801 48.6773C315.162 48.4863 315.447 48.1764 315.606 47.7999C315.979 47.0539 316.05 46.1438 316.576 45.4911L315.83 45.0621C315.595 46.017 315.357 47.0763 315.718 48.0461C315.853 48.4405 316.093 48.7904 316.412 49.0575C316.732 49.3246 317.119 49.4986 317.531 49.5605C319.243 49.7321 319.792 47.7291 319.952 46.4124L319.068 46.5317C319.441 47.606 318.986 49.0868 320.288 49.6687C321.522 50.217 322.705 49.2957 323.272 48.2438C323.965 46.8738 324.333 45.3628 324.35 43.8275C324.31 43.4762 324.329 43.1207 324.406 42.7756C324.517 42.4847 324.823 42.3206 324.976 42.052C325.044 41.951 325.09 41.8373 325.112 41.7179C325.134 41.5985 325.132 41.4759 325.106 41.3573C325.079 41.2388 325.029 41.1269 324.958 41.0283C324.887 40.9297 324.797 40.8466 324.693 40.7838C324.174 40.5153 323.719 41.3023 324.238 41.5634C324.163 41.5261 323.641 42.2758 323.589 42.4101C323.455 42.8954 323.407 43.4003 323.447 43.9021C323.402 45.0988 323.138 46.2771 322.667 47.3785C322.362 48.0909 321.601 49.3031 320.638 48.8257C320.202 48.6056 320.176 48.0797 320.146 47.6321C320.143 47.1745 320.074 46.7197 319.941 46.2818C319.91 46.1785 319.844 46.0896 319.753 46.0311C319.663 45.9725 319.554 45.9483 319.448 45.9627C319.341 45.9771 319.243 46.0292 319.171 46.1097C319.099 46.1901 319.059 46.2935 319.057 46.4012C318.963 47.1472 318.702 48.7026 317.662 48.6653C317.072 48.6467 316.632 48.0685 316.498 47.5463C316.308 46.8003 316.498 46.0207 316.688 45.3083C316.785 44.9129 316.244 44.5101 315.942 44.8756C315.58 45.3651 315.311 45.9179 315.151 46.5056C314.995 46.9831 314.842 47.7067 314.335 47.9491C313.559 48.3221 312.865 47.3934 312.686 46.7518C312.577 46.3621 312.56 45.9523 312.636 45.5548C312.712 45.1574 312.88 44.7831 313.126 44.4616L312.421 44.0513C312.093 44.8383 311.925 45.8007 311.302 46.4236C310.772 46.9458 309.944 47.0838 309.571 46.3266C309.334 45.6937 309.255 45.0127 309.34 44.3422C309.353 43.4048 309.454 42.4706 309.642 41.5522C309.985 40.0602 310.877 38.4936 312.447 38.0684C313.342 37.8259 314.338 37.9677 315.245 38.0908C316.167 38.2192 317.079 38.4099 317.975 38.6614C319.942 39.2301 321.832 40.0368 323.604 41.0636C323.932 41.2538 324.189 40.7801 323.895 40.5675L323.906 40.5637Z" fill="black"/>
<path d="M132.715 49.7941C107.986 58.9751 82.5939 66.2587 56.7584 71.5818C55.765 71.7848 54.6795 72.0453 54.0883 72.8665C53.256 74.0245 53.8263 75.6226 54.4215 76.9149C68.8231 108.23 85.6588 140.213 85.0182 174.672C84.703 191.385 80.3026 208.708 85.9899 224.446C88.3537 230.978 92.3632 236.848 94.4477 243.476C96.6154 250.42 96.5792 257.865 94.3441 264.787C93.1921 268.338 91.4498 271.778 91.2381 275.509C90.3629 290.686 116.737 281.576 123.825 279.922C142.923 275.468 161.987 270.784 180.674 264.802C186.889 262.809 194.657 259.055 194.315 251.358C193.861 241.066 193.394 230.697 191.026 220.67C186.879 203.13 176.976 186.923 175.923 168.93C175.468 161.165 176.965 153.605 177.36 145.867C177.778 137.389 177.512 128.891 176.565 120.456C173.888 96.453 165.789 71.225 152.401 50.9958C150.901 48.7368 149.284 46.3713 146.835 45.2181C144.387 44.0649 138.719 47.8765 133.642 49.4395" fill="white"/>
<path d="M85.3764 93.862C83.6715 94.168 82.4947 95.8165 82.0347 97.4886C81.3968 99.8131 82.0664 102.733 84.2446 103.754C84.8408 104.021 85.487 104.157 86.14 104.154C88.9252 104.179 91.5838 101.865 91.8008 99.0873C92.0177 96.3092 89.6185 93.5548 86.8287 93.5275" fill="#FFFAE6"/>
<path d="M85.2994 93.5931C82.927 94.0204 81.5955 96.5513 81.4192 98.7668C81.2433 100.862 82.0719 103.267 84.1086 104.173C88.3367 106.066 93.445 101.55 91.9747 97.148C91.2472 94.9468 89.19 93.2236 86.829 93.1899C86.3771 93.1835 86.3889 93.8746 86.8356 93.8902C88.6207 93.9454 90.1863 95.1576 90.9415 96.7377C91.3201 97.5445 91.4587 98.443 91.3409 99.3263C91.2232 100.21 90.8539 101.04 90.2772 101.72C89.1044 103.138 87.2041 104.008 85.3548 103.661C83.3871 103.294 82.3489 101.484 82.2288 99.602C82.0921 97.445 83.1477 94.6827 85.4607 94.156C85.8254 94.0748 85.6683 93.5262 85.2994 93.5931V93.5931Z" fill="black"/>
<path d="M97.3487 119.378C95.6392 119.681 94.4659 121.328 94.0059 123.001C93.3691 125.329 94.033 128.242 96.2265 129.263C96.8216 129.533 97.4686 129.67 98.122 129.663C100.907 129.688 103.567 127.378 103.784 124.6C104.001 121.822 101.598 119.068 98.8118 119.04" fill="#FFFAE6"/>
<path d="M97.2675 119.094C94.8951 119.522 93.5636 122.052 93.3883 124.272C93.2114 126.363 94.0364 128.769 96.0767 129.675C100.301 131.569 105.414 127.054 103.939 122.65C103.212 120.449 101.158 118.725 98.7936 118.692C98.3417 118.686 98.3534 119.377 98.8038 119.391C99.6816 119.452 100.527 119.749 101.249 120.251C101.972 120.753 102.545 121.442 102.907 122.244C103.286 123.05 103.424 123.949 103.306 124.832C103.187 125.715 102.816 126.545 102.238 127.223C101.065 128.642 99.1651 129.512 97.3168 129.168C95.3527 128.8 94.3098 126.988 94.2112 125.099C94.0745 122.942 95.1302 120.18 97.4431 119.653C97.8079 119.572 97.6507 119.023 97.2819 119.09L97.2675 119.094Z" fill="black"/>
<path d="M100.159 147.502C98.4492 147.805 97.276 149.453 96.817 151.129C96.1781 153.449 96.8451 156.374 99.0268 157.394C99.623 157.659 100.269 157.795 100.921 157.791C103.707 157.819 106.366 155.505 106.583 152.727C106.8 149.949 104.401 147.195 101.611 147.167" fill="#FFFAE6"/>
<path d="M100.078 147.219C97.7051 147.646 96.3736 150.177 96.1983 152.396C96.0225 154.491 96.8464 156.894 98.8867 157.799C103.111 159.693 108.224 155.179 106.754 150.777C106.026 148.576 103.968 146.849 101.608 146.819C101.518 146.824 101.434 146.864 101.372 146.93C101.311 146.995 101.277 147.082 101.278 147.172C101.279 147.262 101.314 147.349 101.377 147.413C101.44 147.478 101.525 147.516 101.615 147.519C102.493 147.579 103.339 147.876 104.062 148.378C104.785 148.88 105.359 149.568 105.722 150.37C106.099 151.177 106.237 152.075 106.119 152.957C106.002 153.84 105.633 154.67 105.056 155.349C103.88 156.768 101.983 157.638 100.131 157.295C98.1673 156.926 97.1255 155.118 97.0269 153.23C96.8902 151.073 97.9458 148.31 100.258 147.78C100.622 147.699 100.465 147.15 100.096 147.217L100.078 147.219Z" fill="black"/>
<path d="M102.969 175.626C101.264 175.932 100.087 177.581 99.627 179.253C98.9927 181.576 99.6587 184.497 101.84 185.518C102.435 185.785 103.08 185.922 103.732 185.918C106.517 185.943 109.176 183.63 109.397 180.851C109.617 178.071 107.211 175.319 104.421 175.292" fill="#FFFAE6"/>
<path d="M102.889 175.347C100.516 175.774 99.1847 178.305 99.0084 180.52C98.8325 182.615 99.6611 185.02 101.698 185.927C105.926 187.82 111.034 183.303 109.564 178.901C108.836 176.7 106.779 174.977 104.418 174.943C103.966 174.937 103.978 175.628 104.425 175.644C106.21 175.699 107.775 176.911 108.531 178.491C108.91 179.297 109.049 180.195 108.933 181.078C108.816 181.961 108.449 182.791 107.874 183.471C106.701 184.89 104.8 185.76 102.951 185.413C100.983 185.045 99.9453 183.236 99.8251 181.353C99.6884 179.196 100.744 176.434 103.057 175.907C103.422 175.826 103.265 175.278 102.896 175.345L102.889 175.347Z" fill="black"/>
<path d="M105.783 203.753C104.074 204.057 102.901 205.704 102.441 207.376C101.803 209.701 102.469 212.622 104.65 213.642C105.245 213.911 105.89 214.048 106.542 214.043C109.331 214.067 111.991 211.757 112.208 208.979C112.425 206.2 110.022 203.447 107.232 203.42" fill="#FFFAE6"/>
<path d="M105.702 203.47C103.326 203.898 101.995 206.429 101.823 208.647C101.646 210.739 102.471 213.145 104.508 214.051C108.736 215.944 113.845 211.431 112.374 207.026C111.646 204.825 109.589 203.101 107.228 203.068C106.776 203.061 106.788 203.753 107.235 203.768C108.114 203.826 108.961 204.121 109.684 204.624C110.408 205.126 110.981 205.816 111.342 206.619C111.719 207.425 111.857 208.321 111.738 209.203C111.62 210.084 111.251 210.913 110.674 211.59C109.502 213.009 107.601 213.879 105.753 213.536C103.785 213.168 102.746 211.355 102.626 209.473C102.493 207.315 103.545 204.553 105.861 204.026C106.226 203.944 106.069 203.396 105.7 203.463L105.702 203.47Z" fill="black"/>
<path d="M113.979 230.335C112.271 230.642 111.096 232.286 110.637 233.961C109.999 236.282 110.666 239.207 112.847 240.227C113.442 240.494 114.087 240.629 114.738 240.625C117.528 240.652 120.187 238.338 120.404 235.56C120.62 232.782 118.218 230.029 115.428 230.001" fill="#FFFAE6"/>
<path d="M113.898 230.052C111.526 230.479 110.194 233.01 110.019 235.229C109.843 237.324 110.667 239.726 112.708 240.636C116.928 242.512 122.045 238.012 120.571 233.611C119.843 231.41 117.786 229.687 115.425 229.653C115.337 229.661 115.255 229.701 115.195 229.767C115.136 229.833 115.104 229.919 115.105 230.007C115.106 230.096 115.141 230.181 115.202 230.245C115.264 230.309 115.347 230.347 115.435 230.352C116.313 230.412 117.158 230.709 117.881 231.212C118.603 231.714 119.176 232.403 119.539 233.204C119.918 234.008 120.059 234.904 119.943 235.786C119.828 236.667 119.461 237.497 118.887 238.175C117.714 239.594 115.815 240.468 113.965 240.12C111.998 239.753 110.959 237.943 110.843 236.06C110.706 233.903 111.762 231.141 114.074 230.61C114.438 230.529 114.281 229.981 113.912 230.047L113.898 230.052Z" fill="black"/>
<path d="M103.232 92.0999C103.138 92.2611 103.089 92.4448 103.09 92.6314C103.092 92.8181 103.144 93.0009 103.241 93.1605C103.394 93.4232 103.751 93.7243 104.081 93.6416C104.461 93.5327 104.889 93.0221 105.14 92.7483C105.439 92.4045 105.689 92.0221 105.886 91.6114C106.3 90.7765 106.49 89.8487 106.439 88.9182C106.388 87.9877 106.097 87.0862 105.595 86.3016C105.562 86.241 105.514 86.1905 105.455 86.1557C105.395 86.1209 105.328 86.1032 105.259 86.1044C105.19 86.1056 105.123 86.1257 105.065 86.1626C105.007 86.1995 104.961 86.2516 104.931 86.3133C103.513 88.2714 103.466 91.1985 105.275 92.9347C106.965 94.5419 109.783 94.7204 111.342 92.8344C111.763 92.3476 112.055 91.763 112.192 91.1341C112.33 90.5052 112.307 89.8519 112.126 89.234C112.097 89.1434 112.04 89.0645 111.962 89.009C111.885 88.9536 111.792 88.9245 111.696 88.9261C111.601 88.9277 111.509 88.96 111.433 89.018C111.358 89.076 111.303 89.1568 111.277 89.2484C111.144 89.9276 111.15 90.6268 111.295 91.3036C111.44 91.9803 111.721 92.6205 112.121 93.1853C112.186 93.2842 112.286 93.3547 112.4 93.3825C112.515 93.4102 112.636 93.3931 112.738 93.3345C113.851 92.5981 114.669 91.4945 115.05 90.2163L114.217 90.3424C115.123 91.6622 116.943 90.8924 118.143 90.5022L123.966 88.617C127.874 87.3502 131.777 86.0782 135.677 84.8009L142.283 82.641C142.363 82.6086 142.429 82.5476 142.467 82.4697C142.505 82.3918 142.513 82.3025 142.489 82.2191C142.465 82.1357 142.411 82.0642 142.338 82.0182C142.264 81.9723 142.176 81.9553 142.091 81.9704C134.753 84.2765 127.419 86.5921 120.087 88.9172L116.996 89.8994C116.448 90.0566 115.408 90.4631 114.992 89.8644C114.943 89.7909 114.875 89.7329 114.794 89.6971C114.714 89.6613 114.625 89.6493 114.537 89.6624C114.45 89.6755 114.369 89.7133 114.302 89.7712C114.236 89.8292 114.187 89.9049 114.163 89.9894C113.851 91.0443 113.181 91.957 112.267 92.5694L112.884 92.7186C112.547 92.2576 112.308 91.7329 112.18 91.1763C112.053 90.6198 112.04 90.0431 112.143 89.4815L111.293 89.4923C111.458 90.0584 111.456 90.6606 111.284 91.2251C111.113 91.7896 110.781 92.292 110.329 92.6706C109.869 93.0486 109.31 93.2881 108.719 93.3612C108.128 93.4343 107.529 93.3381 106.99 93.0837C104.451 91.9797 104.132 88.808 105.602 86.7068L104.938 86.7186C105.601 87.7175 105.855 88.9332 105.646 90.1139C105.438 91.2947 104.783 92.35 103.818 93.0612L104.071 93.0237C104.002 93.0146 103.936 92.9893 103.878 92.9498C103.821 92.9102 103.773 92.8576 103.74 92.7962C103.707 92.7349 103.689 92.6665 103.688 92.5968C103.686 92.5271 103.701 92.458 103.732 92.3952C103.75 92.3625 103.761 92.3265 103.766 92.2894C103.77 92.2522 103.767 92.2146 103.756 92.1786C103.746 92.1427 103.729 92.1091 103.705 92.0798C103.682 92.0505 103.653 92.0261 103.621 92.008C103.588 91.9898 103.552 91.9783 103.515 91.974C103.478 91.9698 103.44 91.9729 103.404 91.9832C103.368 91.9935 103.335 92.0108 103.305 92.0341C103.276 92.0574 103.252 92.0862 103.233 92.1189L103.232 92.0999Z" fill="black"/>
<path d="M115.645 121.199C119.909 119.546 124.169 117.88 128.442 116.245C128.493 116.227 128.539 116.198 128.578 116.161C128.617 116.124 128.647 116.078 128.666 116.028C128.686 115.978 128.694 115.924 128.691 115.87C128.688 115.816 128.673 115.764 128.648 115.716L127.967 114.48L127.561 115.026C129.231 115.617 131.004 115.857 132.771 115.73C134.537 115.603 136.258 115.113 137.826 114.29C138.228 114.066 137.858 113.505 137.461 113.692C134.423 115.142 130.943 115.365 127.745 114.314C127.423 114.205 127.188 114.602 127.339 114.861L128.04 116.088L128.246 115.56C123.997 117.266 119.734 118.937 115.48 120.625C115.132 120.763 115.295 121.334 115.645 121.199V121.199Z" fill="black"/>
<path d="M145.806 112.998C145.904 112.97 145.988 112.903 146.037 112.814C146.087 112.724 146.099 112.619 146.071 112.52C146.043 112.422 145.977 112.339 145.887 112.289C145.797 112.239 145.692 112.227 145.593 112.255C145.495 112.284 145.412 112.35 145.362 112.439C145.313 112.529 145.3 112.634 145.329 112.733C145.357 112.831 145.423 112.915 145.513 112.964C145.602 113.014 145.708 113.026 145.806 112.998V112.998Z" fill="black"/>
<path d="M117.784 151.315C121.567 150.446 124.861 148.131 126.959 144.865C126.984 144.817 126.997 144.763 126.999 144.709C127 144.654 126.99 144.6 126.968 144.55C126.946 144.5 126.914 144.455 126.873 144.419C126.832 144.383 126.784 144.356 126.731 144.341C125.826 144.026 124.964 144.645 124.6 145.46C124.401 145.888 124.36 146.374 124.485 146.829C124.61 147.285 124.892 147.682 125.282 147.949C125.702 148.233 126.182 148.415 126.685 148.482C127.187 148.549 127.698 148.498 128.178 148.334C129.476 147.908 130.433 146.846 131.304 145.852L130.628 145.685C130.869 146.892 132.158 147.602 133.332 147.471C134.696 147.317 135.675 146.171 136.234 144.991L135.543 145.006C137.171 147.275 140.678 145.39 142.613 144.654C146.007 143.363 149.397 142.065 152.784 140.759L158.604 138.525C159.027 138.361 158.84 137.681 158.409 137.844L148.834 141.448L144.044 143.258C142.561 143.823 141.084 144.463 139.568 144.928C138.543 145.253 136.966 145.611 136.222 144.571C136.184 144.513 136.132 144.465 136.071 144.432C136.009 144.4 135.94 144.383 135.871 144.385C135.801 144.387 135.733 144.406 135.673 144.442C135.613 144.477 135.563 144.527 135.528 144.588C135.124 145.479 134.462 146.379 133.461 146.623C132.594 146.833 131.579 146.363 131.395 145.45C131.375 145.382 131.338 145.321 131.287 145.272C131.236 145.223 131.173 145.188 131.105 145.171C131.036 145.154 130.964 145.156 130.897 145.175C130.829 145.195 130.767 145.232 130.718 145.283C129.63 146.522 128.161 148.153 126.313 147.596C125.651 147.397 125.045 146.838 125.169 146.092C125.275 145.445 125.856 144.793 126.551 145.025L126.323 144.501C124.347 147.629 121.228 149.862 117.631 150.727C117.267 150.812 117.429 151.378 117.794 151.297L117.784 151.315Z" fill="black"/>
<path d="M117.825 178.727C119.217 178.472 120.591 178.133 121.942 177.711C123.333 177.313 124.704 176.858 126.055 176.347C127.201 175.918 128.567 175.538 129.535 174.76C130.323 174.123 130.756 172.994 130.165 172.081C130.137 171.986 130.074 171.906 129.987 171.858C129.901 171.81 129.799 171.798 129.703 171.825C129.608 171.852 129.528 171.916 129.48 172.003C129.432 172.089 129.42 172.191 129.448 172.287C129.467 172.627 129.573 172.956 129.756 173.243C129.939 173.53 130.192 173.766 130.492 173.927C131.213 174.271 132.032 174.35 132.806 174.149C134.605 173.79 136.306 173.046 137.792 171.968L137.259 171.842C137.689 172.463 138.182 173.129 138.91 173.409C139.846 173.778 140.71 173.232 141.526 172.815C143.626 171.748 145.729 170.692 147.821 169.612C148.234 169.4 147.86 168.797 147.449 169.001C145.667 169.879 143.896 170.794 142.115 171.673L140.803 172.336C140.419 172.593 139.974 172.744 139.513 172.775C138.788 172.723 138.292 171.98 137.919 171.439C137.894 171.394 137.861 171.355 137.82 171.324C137.779 171.293 137.733 171.27 137.683 171.258C137.633 171.246 137.581 171.244 137.531 171.252C137.48 171.261 137.432 171.28 137.389 171.308C136.231 172.135 134.945 172.766 133.582 173.174C132.943 173.402 132.267 173.506 131.59 173.481C130.945 173.41 130.267 173.006 130.226 172.296L129.509 172.502C130.231 173.599 128.798 174.475 127.963 174.838C126.873 175.313 125.757 175.738 124.637 176.136C123.517 176.534 122.369 176.914 121.217 177.255C120.066 177.597 118.837 177.871 117.658 178.213C117.3 178.315 117.462 178.816 117.814 178.758L117.825 178.727Z" fill="black"/>
<path d="M123.941 206.894C126.654 205.853 129.597 205.55 132.263 204.371C134.511 203.374 136.538 201.687 137.11 199.2C137.422 197.959 137.258 196.647 136.65 195.521C136.612 195.457 136.556 195.406 136.489 195.374C136.422 195.342 136.346 195.33 136.273 195.341C136.199 195.352 136.131 195.385 136.076 195.436C136.021 195.486 135.983 195.552 135.965 195.624C135.619 197.124 135.41 198.751 136.007 200.214C136.491 201.402 137.492 202.458 138.804 202.664C140.182 202.882 141.537 202.153 142.394 201.108C143.392 199.891 143.775 198.33 144.126 196.833L143.303 196.844C143.698 198.562 144.432 200.788 146.477 201.033C148.714 201.323 150.151 198.89 150.897 197.148C151.085 196.706 150.557 196.229 150.188 196.621C149.652 197.19 149.866 197.99 150.415 198.469C151.135 199.089 152.048 198.917 152.776 198.394C153.21 198.084 153.57 197.686 153.975 197.341C154.402 196.981 154.876 196.681 155.384 196.448C156.456 195.973 157.636 195.793 158.801 195.928C159.245 195.975 159.344 195.209 158.898 195.143C157.154 194.871 155.373 195.279 153.92 196.282C153.219 196.774 152.651 197.592 151.846 197.912C151.708 197.981 151.553 198.007 151.4 197.986C151.247 197.966 151.104 197.899 150.99 197.796C150.838 197.657 150.661 197.421 150.831 197.24L150.118 196.715C149.53 198.075 148.388 200.427 146.557 200.172C144.941 199.948 144.432 197.929 144.122 196.601C144.094 196.513 144.038 196.436 143.963 196.382C143.888 196.328 143.798 196.3 143.705 196.302C143.613 196.303 143.523 196.335 143.45 196.391C143.377 196.448 143.324 196.527 143.299 196.616C143.016 197.861 142.725 199.108 142.023 200.194C141.379 201.154 140.241 202.004 139.01 201.864C137.909 201.733 137.064 200.8 136.702 199.809C136.235 198.53 136.416 197.117 136.675 195.813L135.991 195.916C136.324 196.532 136.509 197.217 136.533 197.917C136.556 198.617 136.417 199.314 136.126 199.951C135.518 201.286 134.501 202.393 133.221 203.111C130.334 204.857 126.852 205.094 123.764 206.328C123.415 206.467 123.576 207.026 123.925 206.891L123.941 206.894Z" fill="black"/>
<path d="M132.002 231.637L142.436 228.605C144.003 228.156 145.65 227.797 147.148 227.147C147.712 226.92 148.228 226.586 148.667 226.165C148.869 225.962 149.041 225.731 149.177 225.479C149.364 225.131 149.431 224.565 149.939 224.66C150.316 224.73 150.679 224.925 151.056 225.023C151.455 225.122 151.862 225.184 152.272 225.206C153.117 225.247 153.962 225.118 154.756 224.828C155.192 224.672 154.999 223.983 154.557 224.132C153.823 224.401 153.042 224.519 152.262 224.479C151.475 224.441 150.848 224.108 150.114 223.958C149.381 223.807 148.975 224.152 148.714 224.77C148.471 225.378 148.03 225.886 147.462 226.211C146.861 226.545 146.221 226.804 145.557 226.982C144.685 227.232 143.824 227.502 142.958 227.757L137.75 229.311L131.837 231.075C131.77 231.102 131.716 231.154 131.684 231.219C131.653 231.284 131.647 231.359 131.667 231.428C131.686 231.498 131.731 231.558 131.793 231.596C131.854 231.635 131.927 231.65 131.999 231.638L132.002 231.637Z" fill="black"/>
<path d="M164.308 223.784L164.352 222.797C164.35 222.684 164.304 222.576 164.223 222.497C164.142 222.423 164.036 222.383 163.926 222.384C163.816 222.386 163.711 222.432 163.634 222.511C163.556 222.589 163.513 222.695 163.512 222.805L163.469 223.795C163.47 223.851 163.482 223.905 163.504 223.956C163.526 224.007 163.557 224.053 163.597 224.092C163.657 224.149 163.732 224.187 163.814 224.201C163.895 224.215 163.979 224.205 164.054 224.172C164.13 224.14 164.194 224.085 164.24 224.016C164.285 223.947 164.308 223.866 164.308 223.784V223.784Z" fill="black"/>
<path d="M132.615 49.4427C109.23 58.0516 85.2574 64.9688 60.8814 70.1409C59.4552 70.4446 58.0274 70.7294 56.6012 71.0332C55.5039 71.266 54.3795 71.5532 53.6674 72.4672C52.2939 74.2418 53.6543 76.6342 54.4419 78.3408C56.8724 83.6159 59.3429 88.868 61.7832 94.1364C66.8166 105.018 71.7118 115.985 75.6972 127.298C79.5636 138.277 82.5822 149.615 83.8201 161.211C84.4246 166.908 84.5836 172.645 84.2957 178.367C84.0161 183.934 83.4137 189.484 82.9834 195.039C82.1304 206.027 82.1076 217.204 86.5786 227.49C88.9314 232.9 92.0944 237.969 93.8766 243.636C95.5565 249 95.9032 254.692 94.8867 260.22C94.3575 262.813 93.6012 265.353 92.6266 267.813C91.7209 270.245 90.8372 272.714 90.6545 275.327C90.4849 277.742 91.0036 280.271 92.7806 282.005C96.4514 285.609 102.97 284.933 107.588 284.27C112.865 283.515 117.959 282.021 123.114 280.704C134.323 277.842 145.644 275.375 156.812 272.374C162.889 270.738 168.944 269.012 174.964 267.175C179.244 265.864 183.659 264.684 187.584 262.47C190.704 260.696 193.588 258.1 194.536 254.515C195.136 252.236 194.793 249.805 194.681 247.49C194.531 244.339 194.359 241.192 194.111 238.05C193.703 232.152 192.845 226.293 191.544 220.526C190.169 214.712 188.163 209.047 186.069 203.443C181.939 192.4 177.272 181.239 176.483 169.329C176.096 163.507 176.841 157.71 177.416 151.927C177.996 145.963 178.202 139.967 178.032 133.977C177.719 122.571 176.23 111.228 173.587 100.128C171.005 89.1603 167.324 78.4803 162.601 68.2503C160.228 63.109 157.532 58.1235 154.527 53.3241C153.231 51.2627 151.94 49.126 150.32 47.2929C149.165 45.9672 147.493 44.4246 145.627 44.4545C143.848 44.4869 142.081 45.3345 140.481 46.0334C138.171 47.0443 135.911 48.1919 133.5 48.9564C133.377 48.9916 133.273 49.074 133.211 49.1856C133.15 49.2972 133.135 49.4288 133.17 49.5515C133.205 49.6742 133.287 49.7779 133.399 49.8398C133.51 49.9017 133.642 49.9167 133.765 49.8816C136.028 49.1106 138.247 48.216 140.412 47.2016C142.038 46.4837 144.333 45.1901 146.185 45.548C148.353 45.9667 150.116 48.5852 151.265 50.266C152.743 52.4189 154.125 54.6421 155.452 56.8925C161.083 66.4837 165.62 76.6761 168.979 87.2785C175.875 108.917 178.464 131.746 176.121 154.343C175.532 160.021 175.022 165.689 175.608 171.392C176.178 176.92 177.53 182.33 179.222 187.614C182.759 198.606 187.714 209.133 190.432 220.383C191.867 226.315 192.62 232.385 193.089 238.463C193.31 241.321 193.468 244.175 193.607 247.045C193.72 249.484 194.132 252.101 193.407 254.474C192.315 258.166 188.968 260.584 185.67 262.207C181.277 264.374 176.368 265.562 171.698 266.95C160.051 270.407 148.278 273.438 136.475 276.295C131.757 277.433 127.031 278.433 122.353 279.657C120.082 280.249 117.824 280.888 115.548 281.447C110.166 282.775 104.237 284.167 98.6725 283.312C96.5424 282.987 94.2804 282.242 92.9768 280.4C91.03 277.668 91.837 273.848 92.7737 270.914C93.5729 268.407 94.6487 266 95.3525 263.459C97.4319 255.886 96.9688 247.84 94.0344 240.556C91.9297 235.254 88.8949 230.388 86.846 225.051C84.8823 219.929 83.9903 214.485 83.7602 209.022C83.2975 198.181 85.164 187.427 85.5514 176.615C85.9543 165.438 84.498 154.285 81.8096 143.45C76.2983 121.255 66.0518 100.627 56.4729 79.9862C55.8906 78.7251 55.257 77.4749 54.7325 76.1856C54.208 74.8964 53.8427 73.3365 55.3572 72.5962C56.5107 72.0175 58.0185 71.9038 59.2684 71.635C60.7626 71.3156 62.2562 70.99 63.7494 70.658C69.7212 69.3277 75.668 67.8921 81.5898 66.3511C93.2899 63.3101 104.876 59.8621 116.348 56.0071C121.874 54.1657 127.364 52.2167 132.82 50.1599C133.262 49.9946 133.064 49.2908 132.615 49.4427V49.4427Z" fill="black"/>
<path d="M181.651 99.4232C180.159 106.365 181.33 113.575 183.143 120.341C183.408 121.326 183.68 122.303 183.979 123.28C184.237 124.261 184.544 125.229 184.9 126.178C184.94 126.253 185.004 126.312 185.082 126.345C185.16 126.378 185.246 126.384 185.328 126.362C185.409 126.339 185.481 126.289 185.531 126.221C185.58 126.152 185.605 126.069 185.601 125.984C185.456 125.138 185.172 124.306 184.956 123.474C184.739 122.642 184.512 121.796 184.292 120.956C183.841 119.248 183.397 117.54 183.016 115.813C182.231 112.418 181.806 108.95 181.748 105.466C181.722 103.498 181.873 101.532 182.199 99.591C182.259 99.2367 181.729 99.0763 181.651 99.4381V99.4232Z" fill="#FFFAE6"/>
<path d="M185.877 127.73L186.026 127.57C186.059 127.541 186.082 127.503 186.093 127.462C186.113 127.422 186.123 127.379 186.123 127.335C186.123 127.291 186.113 127.247 186.093 127.208C186.083 127.166 186.06 127.128 186.026 127.1L185.959 127.048C185.908 127.018 185.85 127.003 185.791 127.003H185.702C185.647 127.018 185.596 127.047 185.556 127.089L185.392 127.238C185.36 127.267 185.336 127.305 185.321 127.346C185.301 127.388 185.292 127.434 185.295 127.48C185.293 127.525 185.302 127.57 185.321 127.611C185.336 127.652 185.36 127.689 185.392 127.719L185.463 127.775C185.515 127.804 185.575 127.82 185.635 127.82H185.724C185.783 127.805 185.836 127.774 185.877 127.73Z" fill="#FFFAE6"/>
<path d="M237.664 104.97C239.752 105.091 241.846 105.031 243.923 104.791C244.364 104.731 244.386 104.045 243.923 104.082C241.844 104.293 239.754 104.39 237.664 104.373C237.585 104.373 237.509 104.404 237.453 104.46C237.397 104.516 237.366 104.592 237.366 104.671C237.366 104.75 237.397 104.826 237.453 104.882C237.509 104.938 237.585 104.97 237.664 104.97Z" fill="#FFFAE6"/>
<path d="M196.772 148.081C202.615 149.119 208.542 149.6 214.475 149.517C220.434 149.434 226.371 148.795 232.211 147.607C234.639 147.111 237.597 146.637 239.037 144.37L238.593 144.489C239.073 144.709 239.617 144.742 240.12 144.582C240.623 144.422 241.048 144.08 241.312 143.624C241.357 143.546 241.37 143.455 241.347 143.368C241.324 143.282 241.268 143.208 241.191 143.163C241.114 143.118 241.022 143.105 240.936 143.128C240.849 143.151 240.776 143.207 240.73 143.284C240.558 143.592 240.279 143.827 239.946 143.945C239.614 144.063 239.25 144.056 238.921 143.926C238.846 143.884 238.758 143.873 238.675 143.894C238.591 143.916 238.519 143.968 238.474 144.041C237.213 146.059 234.535 146.481 232.394 146.925C229.534 147.519 226.651 147.977 223.744 148.297C218.057 148.936 212.325 149.061 206.616 148.67C203.375 148.447 200.144 148.081 196.94 147.551C196.567 147.488 196.426 148.033 196.787 148.1L196.772 148.081Z" fill="#FFFAE6"/>
<path d="M194.467 146.899C194.421 146.953 194.381 147.014 194.348 147.078C194.315 147.144 194.29 147.214 194.273 147.287C194.238 147.432 194.238 147.585 194.273 147.73C194.299 147.813 194.353 147.885 194.426 147.932C194.504 147.976 194.597 147.988 194.684 147.965C194.766 147.94 194.836 147.886 194.881 147.812C194.904 147.774 194.919 147.731 194.925 147.687C194.93 147.643 194.927 147.598 194.915 147.555C194.9 147.513 194.889 147.469 194.881 147.425V147.514C194.878 147.461 194.878 147.407 194.881 147.354V147.439C194.888 147.386 194.903 147.335 194.926 147.287L194.893 147.357C194.906 147.328 194.923 147.299 194.941 147.272C194.962 147.236 194.975 147.197 194.978 147.156C194.988 147.115 194.988 147.073 194.978 147.033C194.958 146.971 194.921 146.917 194.87 146.876C194.818 146.832 194.752 146.809 194.684 146.809C194.643 146.808 194.603 146.816 194.566 146.831C194.529 146.847 194.495 146.869 194.467 146.899Z" fill="#FFFAE6"/>
<path d="M192.666 147.395L192.875 147.495C192.909 147.517 192.949 147.529 192.99 147.529C193.03 147.54 193.073 147.54 193.113 147.529C193.152 147.519 193.188 147.5 193.218 147.473C193.25 147.451 193.277 147.422 193.296 147.387L193.326 147.316C193.341 147.263 193.341 147.206 193.326 147.152L193.296 147.078C193.269 147.033 193.23 146.995 193.184 146.969L192.979 146.861C192.944 146.84 192.904 146.827 192.863 146.824C192.823 146.813 192.781 146.813 192.74 146.824C192.7 146.832 192.663 146.85 192.632 146.876C192.599 146.899 192.572 146.929 192.554 146.966L192.524 147.04C192.509 147.094 192.509 147.151 192.524 147.204L192.554 147.279C192.581 147.325 192.62 147.364 192.666 147.391V147.395Z" fill="#FFFAE6"/>
<path d="M196.981 148.316C196.575 149.9 196.496 151.55 196.75 153.165C196.77 153.239 196.819 153.301 196.885 153.339C196.952 153.377 197.031 153.387 197.104 153.366C197.178 153.346 197.241 153.297 197.278 153.231C197.316 153.164 197.326 153.086 197.306 153.012C197.091 151.501 197.167 149.963 197.53 148.48C197.549 148.407 197.539 148.33 197.502 148.264C197.465 148.199 197.403 148.151 197.33 148.131C197.257 148.112 197.18 148.121 197.114 148.159C197.049 148.196 197.001 148.258 196.981 148.331V148.316Z" fill="#FFFAE6"/>
<path d="M203.658 148.92C203.499 149.884 203.433 150.861 203.46 151.837C203.46 152.329 203.516 152.818 203.58 153.303C203.624 153.635 203.725 154.153 204.177 154.101C204.55 154.056 204.55 153.441 204.177 153.489C204.229 153.527 204.244 153.519 204.214 153.463V153.407C204.193 153.298 204.178 153.187 204.169 153.075C204.143 152.893 204.124 152.702 204.109 152.527C204.076 152.154 204.057 151.763 204.053 151.378C204.046 150.607 204.101 149.836 204.218 149.073C204.27 148.7 203.725 148.558 203.669 148.92H203.658Z" fill="#FFFAE6"/>
<path d="M210.917 149.345C210.635 151.092 210.676 152.876 211.036 154.609C211.114 154.982 211.681 154.825 211.607 154.452C211.285 152.821 211.245 151.147 211.487 149.502C211.547 149.129 210.973 148.969 210.917 149.345Z" fill="#FFFAE6"/>
<path d="M218.47 149.625C218.672 151.563 218.7 153.516 218.552 155.459C218.526 155.851 219.138 155.851 219.167 155.459C219.302 153.515 219.26 151.562 219.044 149.625C219.007 149.252 218.429 149.252 218.47 149.625Z" fill="#FFFAE6"/>
<path d="M225.93 148.853C226.411 150.601 226.519 152.431 226.247 154.224C226.184 154.638 226.818 154.817 226.881 154.4C227.174 152.494 227.047 150.548 226.508 148.696C226.487 148.622 226.438 148.558 226.37 148.52C226.303 148.482 226.223 148.472 226.148 148.493C226.073 148.514 226.01 148.564 225.972 148.631C225.934 148.699 225.924 148.778 225.945 148.853H225.93Z" fill="#FFFAE6"/>
<path d="M232.379 147.19C232.908 149.098 233.126 151.079 233.024 153.057C233.002 153.467 233.64 153.467 233.662 153.057C233.761 151.022 233.508 148.986 232.916 147.037C232.906 147 232.889 146.966 232.866 146.936C232.842 146.906 232.814 146.881 232.781 146.862C232.748 146.844 232.711 146.832 232.674 146.827C232.636 146.822 232.598 146.825 232.562 146.835C232.525 146.845 232.491 146.862 232.461 146.886C232.431 146.909 232.406 146.938 232.388 146.971C232.369 147.004 232.357 147.04 232.352 147.077C232.348 147.115 232.35 147.153 232.36 147.19H232.379Z" fill="#FFFAE6"/>
<path d="M238.161 145.31C238.346 146.15 238.489 146.999 238.589 147.853C238.642 148.271 238.683 148.689 238.713 149.107C238.713 149.301 238.75 149.498 238.746 149.696C238.746 149.746 238.739 149.796 238.727 149.845C238.701 149.953 238.672 149.92 238.746 149.916C238.317 149.939 238.317 150.606 238.746 150.58C238.928 150.561 239.097 150.474 239.217 150.335C239.337 150.196 239.399 150.017 239.391 149.834C239.41 149.328 239.376 148.822 239.291 148.323C239.166 147.253 238.972 146.191 238.709 145.145C238.623 144.772 238.082 144.94 238.161 145.298V145.31Z" fill="#FFFAE6"/>
<mask id="path-68-inside-1_2_9" fill="white">
<path d="M308.545 57.5685C313.731 59.3533 315.936 66.0891 314.158 71.2788C312.379 76.4684 307.667 80.1468 302.665 82.4197C297.663 84.6925 292.251 85.8608 287.129 87.8465C282.007 89.8323 277.024 92.893 274.397 97.7112C273.077 100.136 272.459 103.175 273.708 105.632C274.423 107.031 275.652 108.083 276.89 109.045C281.977 113.006 287.686 116.096 293.784 118.19C297.735 119.542 302.526 120.355 305.822 117.746C307.773 116.213 308.763 113.794 310.246 111.8C313.483 107.441 318.843 105.346 323.71 102.932C338.355 95.6717 351.205 82.5309 353.285 66.3153C354.816 54.375 350.171 42.0349 341.941 33.247C333.711 24.459 322.173 19.1227 310.272 17.335C305.72 16.6536 301.069 16.4613 296.517 17.1447C279.002 19.797 265.681 35.0775 259.405 51.6298C258.955 52.82 258.526 54.1 258.809 55.338C259.125 56.7199 260.259 57.7516 261.364 58.6381C269.475 65.1445 279.215 69.3012 289.524 70.6556C290.725 70.8073 292.019 70.9254 293.142 70.4448C295.695 69.3529 296.15 66.0363 296.828 63.3449C297.506 60.6535 300.104 54.2952 307.792 57.3158"/>
</mask>
<path d="M308.545 57.5685C313.731 59.3533 315.936 66.0891 314.158 71.2788C312.379 76.4684 307.667 80.1468 302.665 82.4197C297.663 84.6925 292.251 85.8608 287.129 87.8465C282.007 89.8323 277.024 92.893 274.397 97.7112C273.077 100.136 272.459 103.175 273.708 105.632C274.423 107.031 275.652 108.083 276.89 109.045C281.977 113.006 287.686 116.096 293.784 118.19C297.735 119.542 302.526 120.355 305.822 117.746C307.773 116.213 308.763 113.794 310.246 111.8C313.483 107.441 318.843 105.346 323.71 102.932C338.355 95.6717 351.205 82.5309 353.285 66.3153C354.816 54.375 350.171 42.0349 341.941 33.247C333.711 24.459 322.173 19.1227 310.272 17.335C305.72 16.6536 301.069 16.4613 296.517 17.1447C279.002 19.797 265.681 35.0775 259.405 51.6298C258.955 52.82 258.526 54.1 258.809 55.338C259.125 56.7199 260.259 57.7516 261.364 58.6381C269.475 65.1445 279.215 69.3012 289.524 70.6556C290.725 70.8073 292.019 70.9254 293.142 70.4448C295.695 69.3529 296.15 66.0363 296.828 63.3449C297.506 60.6535 300.104 54.2952 307.792 57.3158" fill="#FFFAE6"/>
<path d="M274.397 97.7112L273.519 97.2325L273.519 97.233L274.397 97.7112ZM273.708 105.632L272.816 106.085L272.817 106.088L273.708 105.632ZM276.89 109.045L277.504 108.256L277.504 108.255L276.89 109.045ZM293.784 118.19L293.459 119.135L293.46 119.136L293.784 118.19ZM305.822 117.746L305.204 116.96L305.202 116.962L305.822 117.746ZM310.246 111.8L311.048 112.397L311.048 112.397L310.246 111.8ZM323.71 102.932L323.266 102.037L323.266 102.037L323.71 102.932ZM353.285 66.3153L354.277 66.4425L354.277 66.4424L353.285 66.3153ZM310.272 17.335L310.42 16.3461L310.42 16.346L310.272 17.335ZM296.517 17.1447L296.369 16.1558L296.367 16.156L296.517 17.1447ZM259.405 51.6298L258.47 51.2753L258.469 51.2761L259.405 51.6298ZM258.809 55.338L257.834 55.5604L257.834 55.5612L258.809 55.338ZM261.364 58.6381L260.738 59.4181L260.738 59.4181L261.364 58.6381ZM289.524 70.6556L289.394 71.6471L289.399 71.6478L289.524 70.6556ZM293.142 70.4448L292.749 69.5253L292.749 69.5254L293.142 70.4448ZM308.22 58.5141C310.472 59.289 312.132 61.1577 313.029 63.5039C313.927 65.8538 314.021 68.5939 313.212 70.9546L315.104 71.6029C316.073 68.7739 315.953 65.5513 314.897 62.7897C313.84 60.0243 311.805 57.6328 308.871 56.6229L308.22 58.5141ZM313.212 70.9546C311.561 75.7704 307.139 79.2886 302.251 81.5092L303.079 83.3301C308.196 81.0051 313.197 77.1665 315.104 71.6029L313.212 70.9546ZM302.251 81.5092C299.81 82.6185 297.257 83.4636 294.642 84.2869C292.043 85.1051 289.367 85.9063 286.767 86.9141L287.49 88.7789C290.013 87.801 292.604 87.0252 295.242 86.1946C297.864 85.3692 300.518 84.4937 303.079 83.3301L302.251 81.5092ZM286.767 86.9141C281.559 88.9333 276.313 92.1082 273.519 97.2325L275.275 98.1899C277.735 93.6778 282.455 90.7313 287.49 88.7789L286.767 86.9141ZM273.519 97.233C272.124 99.7951 271.354 103.208 272.816 106.085L274.599 105.179C273.564 103.141 274.03 100.476 275.275 98.1894L273.519 97.233ZM272.817 106.088C273.643 107.702 275.037 108.871 276.276 109.834L277.504 108.255C276.268 107.295 275.203 106.359 274.598 105.177L272.817 106.088ZM276.276 109.834C281.45 113.863 287.257 117.006 293.459 119.135L294.109 117.244C288.115 115.186 282.504 112.149 277.504 108.256L276.276 109.834ZM293.46 119.136C295.484 119.828 297.779 120.404 300.027 120.453C302.281 120.503 304.557 120.023 306.443 118.53L305.202 116.962C303.791 118.078 302.024 118.496 300.071 118.454C298.111 118.411 296.035 117.903 294.108 117.244L293.46 119.136ZM306.44 118.532C307.547 117.662 308.355 116.562 309.049 115.489C309.775 114.367 310.33 113.363 311.048 112.397L309.443 111.204C308.679 112.231 307.997 113.433 307.37 114.402C306.711 115.421 306.047 116.297 305.204 116.96L306.44 118.532ZM311.048 112.397C312.555 110.368 314.577 108.836 316.87 107.501C319.185 106.153 321.665 105.063 324.155 103.828L323.266 102.037C320.888 103.216 318.254 104.38 315.863 105.773C313.449 107.178 311.173 108.874 309.443 111.204L311.048 112.397ZM324.155 103.828C338.971 96.4822 352.139 83.1095 354.277 66.4425L352.293 66.188C350.271 81.9523 337.738 94.8613 323.266 102.037L324.155 103.828ZM354.277 66.4424C355.85 54.1694 351.077 41.5403 342.671 32.5634L341.211 33.9305C349.264 42.5296 353.781 54.5806 352.293 66.1881L354.277 66.4424ZM342.671 32.5634C334.263 23.5847 322.506 18.1614 310.42 16.3461L310.123 18.3239C321.841 20.0839 333.16 25.3332 341.211 33.9305L342.671 32.5634ZM310.42 16.346C305.799 15.6544 301.045 15.4537 296.369 16.1558L296.666 18.1336C301.093 17.4689 305.64 17.6528 310.124 18.324L310.42 16.346ZM296.367 16.156C278.357 18.8834 264.815 34.5408 258.47 51.2753L260.34 51.9844C266.547 35.6142 279.648 20.7107 296.667 18.1334L296.367 16.156ZM258.469 51.2761C258.03 52.4378 257.476 53.9897 257.834 55.5604L259.784 55.1156C259.577 54.2102 259.879 53.2022 260.34 51.9835L258.469 51.2761ZM257.834 55.5612C258.237 57.3205 259.651 58.5456 260.738 59.4181L261.99 57.8581C260.867 56.9576 260.014 56.1193 259.784 55.1148L257.834 55.5612ZM260.738 59.4181C268.992 66.039 278.903 70.2689 289.394 71.6471L289.654 69.6641C279.526 68.3336 269.958 64.25 261.99 57.8581L260.738 59.4181ZM289.399 71.6478C290.575 71.7962 292.13 71.9655 293.536 71.3641L292.749 69.5254C291.907 69.8854 290.876 69.8183 289.649 69.6635L289.399 71.6478ZM293.535 71.3642C295.163 70.6683 296.054 69.2808 296.617 67.864C297.167 66.4804 297.48 64.8493 297.797 63.5892L295.858 63.1006C295.497 64.5319 295.244 65.9049 294.759 67.1253C294.287 68.3126 293.675 69.1293 292.749 69.5253L293.535 71.3642ZM297.797 63.5892C298.119 62.3129 298.875 60.2785 300.355 58.9267C301.078 58.2666 301.97 57.7712 303.089 57.5925C304.212 57.413 305.634 57.5422 307.427 58.2465L308.158 56.385C306.106 55.579 304.32 55.3703 302.773 55.6176C301.221 55.8656 299.979 56.5617 299.007 57.45C297.096 59.195 296.214 61.6855 295.858 63.1006L297.797 63.5892Z" fill="black" mask="url(#path-68-inside-1_2_9)"/>
<mask id="path-70-inside-2_2_9" fill="white">
<path d="M290.882 128.362C287.061 126.071 283.655 123.15 279.869 120.806C276.083 118.461 271.731 116.675 267.291 117.032C254.634 118.058 247.46 136.216 258.51 144.167C262.749 147.216 267.047 150.281 271.955 152.117C277.521 154.191 282.072 153.005 285.651 148.325C288.611 144.453 291.193 140.306 293.361 135.941C293.875 134.911 294.372 133.834 294.422 132.682C294.473 131.531 293.98 130.285 292.945 129.773"/>
</mask>
<path d="M290.882 128.362C287.061 126.071 283.655 123.15 279.869 120.806C276.083 118.461 271.731 116.675 267.291 117.032C254.634 118.058 247.46 136.216 258.51 144.167C262.749 147.216 267.047 150.281 271.955 152.117C277.521 154.191 282.072 153.005 285.651 148.325C288.611 144.453 291.193 140.306 293.361 135.941C293.875 134.911 294.372 133.834 294.422 132.682C294.473 131.531 293.98 130.285 292.945 129.773" fill="#FFFAE6"/>
<path d="M267.291 117.032L267.211 116.035L267.211 116.035L267.291 117.032ZM258.51 144.167L257.926 144.979L257.926 144.979L258.51 144.167ZM271.955 152.117L271.605 153.054L271.606 153.054L271.955 152.117ZM285.651 148.325L286.445 148.933L286.445 148.933L285.651 148.325ZM293.361 135.941L292.466 135.495L292.466 135.496L293.361 135.941ZM291.396 127.504C289.529 126.385 287.756 125.107 285.95 123.795C284.156 122.491 282.326 121.151 280.396 119.955L279.343 121.656C281.198 122.804 282.964 124.097 284.775 125.413C286.574 126.72 288.414 128.048 290.367 129.22L291.396 127.504ZM280.396 119.955C276.536 117.565 271.962 115.653 267.211 116.035L267.372 118.029C271.5 117.697 275.631 119.358 279.343 121.656L280.396 119.955ZM267.211 116.035C260.403 116.587 255.162 121.725 253.067 127.671C250.965 133.64 251.953 140.681 257.926 144.979L259.094 143.356C254.017 139.702 253.068 133.689 254.954 128.335C256.848 122.958 261.522 118.503 267.372 118.029L267.211 116.035ZM257.926 144.979C262.149 148.016 266.552 151.163 271.605 153.054L272.306 151.181C267.543 149.398 263.349 146.415 259.094 143.355L257.926 144.979ZM271.606 153.054C274.53 154.144 277.279 154.41 279.812 153.719C282.349 153.027 284.554 151.406 286.445 148.933L284.856 147.718C283.169 149.925 281.31 151.237 279.285 151.789C277.256 152.343 274.946 152.165 272.304 151.18L271.606 153.054ZM286.445 148.933C289.444 145.01 292.06 140.809 294.257 136.386L292.466 135.496C290.326 139.804 287.778 143.897 284.856 147.718L286.445 148.933ZM294.256 136.387C294.764 135.369 295.361 134.116 295.421 132.726L293.423 132.639C293.383 133.552 292.985 134.454 292.466 135.495L294.256 136.387ZM295.421 132.726C295.482 131.334 294.9 129.624 293.389 128.877L292.502 130.669C293.061 130.946 293.463 131.728 293.423 132.639L295.421 132.726Z" fill="black" mask="url(#path-70-inside-2_2_9)"/>
</svg>
