<svg xmlns="http://www.w3.org/2000/svg" width="186" height="186" viewBox="0 0 186 186"><g fill="none"><path fill="#8DC63F" d="M93 185.9A92.91 92.91 0 1093 .1a92.91 92.91 0 000 185.8"/><path fill="#4A3A3C" d="M17.16 113.24h7.06c5.5 0 8.31-2.24 8.31-6.63 0-3.4-1.71-5.6-4.94-6.4 2.73-.66 4.12-2.27 4.12-4.88 0-3.8-2.84-6.07-8.12-6.07h-6.43v23.98zm4.98-4.51v-5.48h1.79c2.3 0 3.62 1.05 3.62 2.87 0 2.07-1.32 2.6-4.02 2.6h-1.39zm0-15.11h1.42c2 0 3.13.92 3.13 2.5 0 1.52-1.12 2.38-3.2 2.38h-1.35v-4.88zM38.3 105h9.5c.04-.57.07-1.13.07-1.65 0-6.04-2.27-9.08-6.76-9.08-4.81 0-7.45 3.37-7.45 9.7 0 6.3 2.67 9.67 7.32 9.67 4.15 0 6.53-2.35 6.76-6.73h-4.68c-.14 1.88-.96 2.87-2.28 2.87-1.58 0-2.48-1.62-2.48-4.78m4.82-3.07h-4.68c0-2.45.92-3.8 2.34-3.8 1.52 0 2.31 1.25 2.34 3.8m19.73-12.67h-4.59v3.83c0 .36.07 1.51.27 3.53-.46-1.52-1.75-2.35-3.56-2.35-3.73 0-6.17 3.53-6.17 9.7 0 6.4 2.24 9.67 6.1 9.67 1.88 0 3.17-.8 3.92-2.41v2.01h4.03V89.26zM58.3 101.5v5.37c-.46 1.49-1.29 2.28-2.38 2.28-1.72 0-2.64-1.68-2.64-4.98 0-3.56.92-5.37 2.77-5.37 1.32 0 2.25 1.08 2.25 2.7m15.73-8.68V89.4c-1.12-.1-1.9-.13-2.4-.13-3.5 0-5.22 1.49-5.22 4.55 0 .27 0 .53.04.8H64v3.66h2.45v14.97h4.58V98.27h2.6V94.6H71v-.56c0-.82.76-1.25 2.3-1.25.24 0 .47.03.73.03m7.23 20.82c4.78 0 7.61-3.5 7.61-9.67s-2.83-9.7-7.61-9.7c-4.75 0-7.66 3.57-7.66 9.7 0 6.1 2.9 9.67 7.66 9.67m2.9-9.67c0 3.82-.96 5.68-2.9 5.68-1.95 0-2.9-1.89-2.9-5.68s.98-5.7 2.9-5.7c1.94 0 2.9 1.91 2.9 5.7m10.55 9.27v-10.2c0-3.25 1.4-4.77 4.26-4.77h.46V94.4c-.46-.07-.89-.14-1.22-.14-1.95 0-3.3 1.16-3.76 3.24v-2.9h-4.29v18.63h4.55zm18.98-23.98h-4.6v3.83c0 .36.07 1.51.28 3.53-.47-1.52-1.76-2.35-3.57-2.35-3.72 0-6.17 3.53-6.17 9.7 0 6.4 2.25 9.67 6.1 9.67 1.88 0 3.17-.8 3.93-2.41v2.01h4.03V89.26zm-4.55 12.24v5.37c-.47 1.49-1.3 2.28-2.38 2.28-1.72 0-2.64-1.68-2.64-4.98 0-3.56.92-5.37 2.77-5.37 1.32 0 2.25 1.08 2.25 2.7m5.56 6.23c.27 3.73 2.74 5.88 6.74 5.88 4.32 0 6.9-2.22 6.9-5.64 0-2.84-1.36-4.72-4.06-5.65l-2.22-.72c-1.48-.5-2.3-.89-2.3-2.02 0-.78.66-1.31 1.74-1.31 1.29 0 1.98.65 2.01 1.81h4.5c-.34-3.8-2.51-5.8-6.35-5.8-4.15 0-6.62 2.3-6.62 5.5a5.12 5.12 0 003.73 5.19l2.34.78c1.65.56 2.47 1.16 2.47 2.28 0 .96-.76 1.62-2.01 1.62-1.32 0-2.05-.66-2.15-1.92h-4.72zm14.85 5.51h4.55v-9.86c0-3.13.24-4.75 2.08-4.75 1.75 0 1.98 1.55 1.98 4.62v10h4.52v-12.41c0-4.29-1.88-6.53-5.21-6.53-2.08 0-3.4.92-3.86 2.7v-7.75h-4.06v23.98zm19.4-23.98h-4.59v3.83h4.59v-3.83zm0 5.34h-4.59v18.64h4.59V94.6zm6.24 18.64v-10.2c0-3.25 1.38-4.77 4.25-4.77h.46V94.4c-.46-.07-.9-.14-1.22-.14-1.95 0-3.3 1.16-3.76 3.24v-2.9h-4.29v18.63h4.56zm8.83-8.24h9.5c.04-.57.07-1.13.07-1.65 0-6.04-2.27-9.08-6.76-9.08-4.82 0-7.45 3.37-7.45 9.7 0 6.3 2.67 9.67 7.33 9.67 4.15 0 6.52-2.35 6.75-6.73h-4.69c-.13 1.88-.95 2.87-2.27 2.87-1.58 0-2.48-1.62-2.48-4.78m4.82-3.07h-4.69c0-2.45.93-3.8 2.35-3.8 1.52 0 2.3 1.25 2.34 3.8"/><path fill="#FFF" d="M28.24 69.49h4.92c-.1-6.36-2.97-9.63-8.45-9.63-5.74 0-8.94 4.29-8.94 12.47 0 8.34 2.97 12.43 9.14 12.43 5.4 0 8.31-3.3 8.31-9.63v-.42h-5c-.1 3.75-1.1 5.53-3.34 5.53-2.77 0-4-2.6-4-7.91 0-5.31 1.3-7.92 4-7.92 2.1 0 3.13 1.62 3.36 5.08m10.85 6.57h9.51c.03-.57.07-1.13.07-1.65 0-6.04-2.28-9.07-6.77-9.07-4.81 0-7.46 3.36-7.46 9.7 0 6.3 2.68 9.66 7.33 9.66 4.16 0 6.53-2.34 6.76-6.73h-4.68c-.13 1.88-.96 2.87-2.28 2.87-1.58 0-2.48-1.62-2.48-4.78m4.82-3.07h-4.68c0-2.44.92-3.8 2.34-3.8 1.52 0 2.31 1.26 2.34 3.8m6.7 11.31h4.55v-9.33c0-3.47.23-5.28 2.11-5.28 1.95 0 1.95 1.81 1.95 5.24v9.37h4.52V71.9c0-4.29-1.88-6.56-5.21-6.56-2.08 0-3.4.95-3.87 2.73v-2.41h-4.05V84.3zm21.15-18.64v-5.34h-4.6v5.34h-2.43v3.67h2.44V84.3h4.59V69.33h2.6v-3.67h-2.6zm8.2 18.64V74.11c0-3.27 1.4-4.78 4.27-4.78h.46v-3.86c-.46-.07-.9-.13-1.22-.13-1.95 0-3.3 1.15-3.77 3.23v-2.91h-4.28V84.3h4.55zm18.98-18.64h-4.32v2.02c-.5-1.55-1.72-2.34-3.5-2.34-3.83 0-6.24 3.43-6.24 9.7 0 6.4 2.25 9.66 6.1 9.66 1.89 0 3.18-.8 3.93-2.4v2h4.03V65.66zm-4.56 6.9v5.38c-.46 1.48-1.28 2.27-2.37 2.27-1.71 0-2.64-1.68-2.64-4.98 0-3.56.93-5.38 2.77-5.38 1.32 0 2.24 1.1 2.24 2.7m11.65-12.23h-4.59V84.3h4.6V60.32z"/></g></svg>