<svg fill="none" height="84" viewBox="0 0 83 84" width="83" xmlns="http://www.w3.org/2000/svg"><g clip-rule="evenodd" fill-rule="evenodd"><path d="m14.6799 41.802c-.0382-14.7305 11.872-26.7036 26.6033-26.7418 14.7314-.0383 26.7036 11.8728 26.7419 26.6033.0382 14.7313-11.8728 26.7036-26.6033 26.7418-14.7314.0383-26.7036-11.872-26.7419-26.6033" fill="#dc062b"/><g fill="#fefefe"><path d="m18.5859 31.3951.0127 4.6206 11.2005-.0289-.0128-4.6206-2.3349.006.0059 2.1879-2.0408.0051-.0051-2.1871-2.4489.006.0051 2.1879-2.0408.0051-.006-2.1871zm.0153 5.6001-.0017-.4896 11.1834-.0281.0017.4888zm1.7157 6.8207-1.2248.0034-.0162-6.335 10.2366-.0264.017 6.3351-1.2087.0025c-.516-3.6558-3.9117-3.7935-3.9117-3.7935-3.6576.2371-3.8922 3.8139-3.8922 3.8139zm3.1535-5.2759c-.0008-.4038.3256-.731.7285-.7319.4037-.0017.7318.3247.7327.7285.0008.4029-.3256.7301-.7293.7318-.4029.0009-.731-.3247-.7319-.7284zm-1.9527-.7253c-.4029.0009-.7293.329-.7284.7327.0008.4029.3289.7285.7318.7276.4038-.0008.7302-.3281.7293-.7318-.0008-.4029-.3289-.7293-.7327-.7285zm4.6339.7186c-.0017-.4037.3247-.7318.7284-.7327.4029-.0008.7319.3256.7327.7285.0009.4037-.3255.731-.7293.7318-.4029.0017-.731-.3238-.7318-.7276zm-4.4068 8.1853-2.6613.0068.0255 9.9271 2.6698 3.1433zm4.914-.0132 2.6622-.0068.0484 19.0043-2.6656-1.6915zm-4.4143-2.4049-3.6567.0093.0017.9639.493.9775 2.6605-.0068.5041-.9809zm3.9187-.0106 3.6576-.0094.0017.9631-.5032.9809-2.6614.0068-.4921-.9775zm-5.1119-.4756.7183-.0026s-.006-2.4327 2.4429-2.4386c0 0 2.204-.006 2.4386 2.4259l.7191-.0017s-.0085-2.9393-3.1594-3.1586c0 0-2.9223.0068-3.1595 3.1756zm-3.0279-9.0869-2.2525.0059-.6783 3.0056 3.3465-.0085-.0009-.4241-.408.0008zm-3.1091 3.4533 3.5258-.0093.0068 2.482-3.7714.0102zm-.156 3.6085h3.6916v-.6945h-3.6916zm3.6933.7352h-3.8701v-.3204h3.8701zm.0018.4639-3.6899.0094.1692 2.3995 3.1509-.0085-.1147-.3264-.0034-1.2571.4896-.0009zm-2.99 5.6731-.5295-2.7421 3.3966-.0085.2295.5058.0051 2.2372zm3.1037.5135-2.7591.0077.8713 2.5772 1.8946-.0051zm-1.8863 3.0914 1.8938-.0051.0102 3.6082z"/><path d="m47.6318 16.8059-.4088.0357-.1199 6.5493.7497-.0017zm.8005 31.6294c.0391-4.93-.091-11.4665-.3842-17.1063l-1.1416 1.4042-.2932 12.5775 1.1492 1.6651.0008.3264-1.1322-.0875s-.0399 1.1135-.0399 1.0965c0 0 .8287.1096 1.8411.1241z"/><path d="m58.9438 22.8745c-22.9942 10.3947-11.9195 23.7881-11.9195 23.7881-16.5113-1.8504-11.7802-21.8628-11.7802-21.8628"/><path d="m46.6843 17.4741s-10.7032-3.5521-12.308 1.5904c-.0688.7038-.0646 2.4641-1.5453 1.4815-1.0582-1.1934-2.5814-.691-2.5814-.691s-2.7685.4233-4.3767 4.4395c4.2135-3.9525 7.3865-1.4263 7.3865-1.4263s1.9032 1.1212 1.921-1.5487c.1717-5.8471 11.5099-1.5019 11.5099-1.5019"/><path d="m66.8938 36.446-1.0447.0187s-.5134 9.8294-6.1752 17.4046l.8984.1445s6.511-7.5769 6.3215-17.5678zm-31.0747 17.1092s-3.9661-5.8344-3.9924-15.9732l-1.0285.0025s-.499 8.948 4.1718 15.81zm16.7877-4.8243c7.0736-.9961 11.1569-4.3587 11.1569-4.3587-.5185 1.4059-1.2002 2.9427-1.2002 2.9427-2.631 1.4224-5.2601 2.3279-7.8003 2.858-.6698-.5057-1.3928-.9981-2.1564-1.442zm-2.3865.2323c-4.7138.2571-10.5029-.6023-17.1169-3.8906l.6919 2.3171s7.9787 4.2894 18.0121 3.2435c-.545-.6402-1.0898-1.2261-1.5871-1.67zm2.1709 2.3752c-4.6735.5106-10.8525.0716-18.2502-2.9712l.7072 1.8598s8.411 4.4757 18.7196 2.6324c-.3686-.4947-.7678-1.0144-1.1766-1.521zm1.6698 2.1918c-2.0349.3634-5.6352.5961-5.6352.5961.7676.2601 2.5815.9733 2.5815.9733 1.5756.5683 2.6519.1633 3.197-.0419.1388-.0522.2432-.0915.3126-.0984.1446-.0571.2906-.1141.4363-.1703-.2389-.3449-.544-.7788-.8922-1.2588zm4.6887.3135c-.3116-.3452-.7223-.7823-1.2167-1.2687.8338-.3006 1.8566-.7213 3.1464-1.337 0 0-.748 1.1934-1.7399 2.6172 0 0-.0705-.0064-.1898-.0115zm-1.7869-1.8153c-.4201-.3923-.8854-.8043-1.3889-1.2171 4.4048-.9893 6.8117-2.6642 6.8117-2.6642l-1.1857 2.1581c-1.4231.7196-2.8404 1.2859-4.2371 1.7232zm-18.1352 2.8417c1.1441.4709 1.8292.5168 1.8292.5168.5066.0977 1.2903-.1012 1.2903-.1012-3.8403-.9359-5.7035-1.7969-5.7035-1.7969.051.3102.1488.5058.1488.5058.7352.1614 2.4352.8755 2.4352.8755zm4.1141.1041s-4.2474-.986-6.8459-2.1055l-.9358-1.745s4.0545 1.9329 10.4244 2.7982c-.015.005-.0392.0127-.0717.0231l-.0002.0001h-.0001c-.2881.092-1.2285.3924-2.195.8642 0 0-.1147.0493-.3757.1649z"/><path d="m55.6289 55.6758c.314.038.607.055.881.055 1.912 0 2.856-.815 2.901-.855l.124-.109-.0349-.0445c.203.0496.3525.1072.4673.1515.1085.0417.186.0716.2485.0716 3.1374 1.1016 3.7579.9044 3.7579.9044l-1.2844 2.0766c-1.258-.3562-2.4684-.7778-2.4684-.7778-1.4203-.5669-2.7268-.2533-2.7268-.2533.261-.1317-1.7782.5262-2.952 1.0515-1.9315.8734-3.54.1417-3.7086.065h-.0001c-.0122-.0056-.0168-.0077-.0135-.0055-.0493-.0323-2.5168-.9571-2.5168-.9571-.5236-.2601-1.8139-.2567-1.8139-.2567-1.0447-.1275-3.3762 1.054-3.3762 1.054-1.8105.7718-2.448.5125-2.448.5125s-.9146-.1113-1.8301-.5015c-2.7132-1.2988-5.0481-1.2937-5.0481-1.2937-1.3065.0043-3.7536.6639-3.7536.6639l-.006-2.2041c2.448-.6596 3.7545-.663 3.7545-.663 2.0847-.005 3.9858.8314 4.7492 1.1673h.0001c.1389.0611.2401.1057.298.1256.9163.3893 1.8309.5015 1.8309.5015 1.1585.1436 2.4471-.5117 2.4471-.5117 2.4625-1.1824 3.3771-1.0549 3.3771-1.0549 1.2894-.0034 1.813.2567 1.813.2567l2.7132 1.0379c1.8131.7148 3.5088-.1394 3.5088-.1394.3045-.1259.5899-.2391.8542-.3403.0809.1201.1265.1891.1306.1955l.045.067zm-25.5917 3.1023c1.8598-.5109 3.7697-.6622 3.7697-.6622 2.9563.1879 5.032 1.3252 5.032 1.3252.7846.3085 1.8301.5015 1.8301.5015 1.2903.1113 2.448-.5117 2.448-.5117 2.1522-1.0999 3.3762-1.0872 3.3762-1.0872 1.3719.0289 1.813.2729 1.813.2729l2.7141 1.0378c1.7153.6817 3.5088-.1555 3.5088-.1555 2.3009-.9367 2.9699-1.0532 2.9699-1.0532 1.5002-.3136 2.7268.2542 2.7268.2542l1.4212.47-1.8233 1.8335c-1.258-.4539-2.3196-.0918-2.3196-.0918-1.2878.3459-2.9682 1.0523-2.9682 1.0523-1.9406.8542-3.5105.1394-3.5105.1394l-2.7124-1.0379c-.6536-.2592-1.8785-.2558-1.8785-.2558-1.371.0527-3.3107 1.0531-3.3107 1.0531-1.468.7225-2.448.5296-2.448.5296-.7837-.0629-1.8301-.5185-1.8301-.5185-3.0566-1.3464-5.0481-1.2929-5.0481-1.2929-2.1063.1683-3.7536.663-3.7536.663zm3.7635 3.24s-1.0616-.0298-3.7536.6621l.006 2.3197s2.3825-.6273 3.7544-.6477c0 0 2.3503.0102 5.0473 1.2928 1.0144.3654 1.4581.4463 1.6827.4872.0649.0118.1114.0203.1482.0313 1.3396.1105 2.448-.5457 2.448-.5457s2.1522-1.0667 3.3762-1.0531c0 0 .9954-.0196 1.8131.2567 0 0 2.7123 1.054 2.7123 1.037.8728.2842 1.1692.2689 1.3281.2606.0227-.0012.0425-.0022.0608-.0022 3.0158-1.6244 6.2433-3.9508 6.2433-3.9508s-.686.0671-1.1586.1819c-.4679.0898-.5953.138-2.302.7843l-.6679.2527s-1.7433.8364-3.5088.1394l-2.7132-1.0217s-.7029-.2924-1.813-.2567c0 0-.7506-.1777-3.3771 1.0378 0 0-1.2061.7047-2.4471.5287-.2618-.0323-1.0948-.1768-1.8309-.5015-.0488-.0153-.1426-.056-.276-.1139l-.0001-.0001c-.7151-.3103-2.571-1.1158-4.7721-1.1788zm-3.0746 4.2365c1.762-.4293 3.0846-.482 3.0846-.482 2.0487.0347 3.8722.7961 4.6714 1.1299.1816.0758.3104.1296.3768.1477 1.0948.47 1.83.5176 1.83.5176 1.2903.159 2.448-.5287 2.448-.5287 2.0853-.9953 2.9799-1.0192 3.2695-1.027.0591-.0016.0931-.0025.1067-.0108 1.2087-.0034 1.8131.2567 1.8131.2567l1.7986.7947c-10.3751 3.5216-19.3987-.7981-19.3987-.7981z"/></g><path d="m55.3733 55.4033c-.0955-.1417-.2401-.3545-.4235-.6192-.1395.0556-.2839.1141-.4328.1757 0 0-1.6949.8534-3.5097.1394l-2.7123-1.0378s-.5236-.2601-1.8131-.2567c0 0-.9146-.1275-3.377 1.0548 0 0-1.2878.6554-2.448.5117 0 0-.9146-.1122-1.8292-.5015-.0579-.0199-.1591-.0645-.2981-.1256-.7635-.3361-2.6647-1.173-4.7509-1.1672 0 0-1.2895-.0298-3.7366.6298l.0017.7999c2.4471-.6596 3.7374-.646 3.7374-.646 2.0856-.0051 3.9868.8314 4.7502 1.1673.1389.0611.2402.1056.298.1255.9154.3893 1.83.5015 1.83.5015 1.1586.1437 2.4472-.5125 2.4472-.5125 2.4633-1.1815 3.3779-1.054 3.3779-1.054 1.2886-.0034 1.813.2567 1.813.2567l2.7124 1.0378c1.8139.7149 3.5096-.1394 3.5096-.1394.3043-.1259.5896-.239.8538-.3402zm4.1268-.6809c.2027.0496.3521.1071.4668.1513.1085.0418.186.0717.2485.0717 3.1373 1.1016 3.7578.9044 3.7578.9044l.4024-.8275c.0251-.0036.0371-.0064.0371-.0064h-.034l-.0031.0064c-.2117.0308-1.3571.1232-4.1619-.8606-.0628 0-.1406-.03-.2494-.0718-.2259-.087-.5854-.2253-1.2212-.2537.4363.4831.6802.7884.6898.8005zm-29.4464 4.0556c1.8598-.5108 3.7528-.6621 3.7528-.6621 2.9571.1878 5.0328 1.3251 5.0328 1.3251.7846.3086 1.8292.5015 1.8292.5015 1.2912.1114 2.448-.5117 2.448-.5117 2.1522-1.0999 3.3771-1.0871 3.3771-1.0871 1.371.0289 1.813.2728 1.813.2728l2.7132 1.0379c1.7162.6817 3.5097-.1556 3.5097-.1556 2.3001-.9367 2.969-1.0531 2.969-1.0531 1.5011-.3137 2.7268.2541 2.7268.2541l1.4212.4701 1.026-1.2436h.017c-1.258-.3561-2.4684-.7777-2.4684-.7777-1.4212-.567-2.7268-.2533-2.7268-.2533.2609-.1318-1.7791.5261-2.9521 1.0514-1.9314.8734-3.5399.1417-3.7086.065-.0122-.0056-.0169-.0077-.0135-.0055-.0493-.0323-2.5169-.9571-2.5169-.9571-.5236-.2601-1.8139-.2567-1.8139-.2567-1.0455-.1275-3.377 1.054-3.377 1.054-1.8105.7727-2.448.5126-2.448.5126s-.9138-.1114-1.8292-.5015c-2.7132-1.2988-5.0482-1.2929-5.0482-1.2929-1.3073.0034-3.7536.663-3.7536.663zm29.7699 2.2088v.017l-.0123-.0044zm-2.3196-.0756s1.0547-.3598 2.3073.0882l-1.1437 1.1664s-.6859.0671-1.1594.1827c-.4674.0891-.5946.1373-2.304.7845l-.665.2517s-1.7442.8372-3.5097.1394l-2.7123-1.0217s-.703-.2924-1.8131-.2567c0 0-.7514-.1777-3.3779 1.0378 0 0-1.2053.7047-2.4463.5287-.2618-.0323-1.0956-.1768-1.8309-.5015-.0488-.0154-.1425-.056-.276-.114-.7151-.3103-2.571-1.1158-4.7721-1.1788 0 0-1.0455-.0459-3.7375.6468l-.0034-1.4373s1.6312-.4777 3.7375-.6469c0 0 1.9915-.0535 5.0481 1.2929 0 0 1.0464.4556 1.8301.5185 0 0 .98.1929 2.448-.5296 0 0 1.9397-.9996 3.3107-1.0531 0 0 1.2249-.0034 1.8785.2567l2.7124 1.037s1.5699.7148 3.5105-.1394c0 0 1.6804-.7064 2.9682-1.0523zm-5.0793 5.2055h-.017l-.0007.0003c-.0133.0004-.0275.0011-.043.0019h-.0001c-.1589.0083-.4553.0237-1.3281-.2606 0 .017-2.7132-1.037-2.7132-1.037-.8177-.2762-1.8122-.2567-1.8122-.2567-1.2248-.0136-3.377 1.0532-3.377 1.0532s-1.1084.6562-2.448.5457c-.0367-.0111-.0833-.0196-.1483-.0315-.2244-.0409-.6683-.1219-1.6818-.487-2.697-1.2818-5.0481-1.2929-5.0481-1.2929-1.3042.0194-3.5216.5873-3.7375.6433v-.0126l-.017.017.017-.0044.0026.9666.6536.2924c1.7621-.4292 3.0847-.4819 3.0847-.4819 2.0476.0353 3.8703.7956 4.6705 1.1294.1824.0761.3117.13.3785.1481 1.0948.4701 1.8292.5177 1.8292.5177 1.2903.1598 2.448-.5287 2.448-.5287 2.0852-.9953 2.9798-1.0193 3.2694-1.027.0592-.0016.0931-.0025.1068-.0109 1.2087-.0034 1.813.2567 1.813.2567l1.7986.7956 2.2824-.9364z" fill="#4c565c"/><path d="m50.7998 28.6063c.0833.1148.0136.306-.1564.431-.1691.1232-.3731.1309-.4573.017-.0824-.1131-.0119-.306.1564-.4301.17-.1233.374-.1309.4573-.0179zm.3968.5719c.0833.1139.0136.306-.1564.4301-.1691.1232-.3731.1317-.4573.017-.0816-.1131-.0119-.306.1564-.4293.1692-.1241.374-.1317.4573-.0178zm.2404 1.0012c.17-.1241.2397-.3162.1564-.4301s-.2881-.1054-.4564.0179c-.1692.1241-.2397.317-.1564.4301.0833.1139.2873.1054.4564-.0179zm.5532.1418c.0841.1139.0136.3051-.1564.4292-.1692.1233-.3732.1318-.4565.0179-.0824-.1131-.0127-.306.1564-.4293.1692-.1241.3732-.1326.4565-.0178zm.2404 1.0012c.17-.1241.2405-.3162.1564-.4301-.0833-.1139-.2873-.1062-.4565.0179-.1691.1232-.2397.3162-.1572.4292.0841.1139.2881.1054.4573-.017zm.5531.141c.0842.1139.0136.306-.1555.4301-.1692.1233-.374.1318-.4582.0179-.0816-.1139-.0119-.306.1573-.4301.1691-.1233.3731-.1318.4564-.0179zm.2413 1.0011c.1691-.1241.2397-.3153.1555-.4292-.0833-.1148-.2873-.1063-.4564.0178-.1692.1233-.2389.3162-.1564.4293.0833.1139.2881.1062.4573-.0179zm.5523.1419c.0842.1139.0136.306-.1555.4301-.17.1233-.374.1309-.4573.0179-.0825-.1139-.0128-.306.1564-.4301.1691-.1241.374-.1326.4564-.0179zm.2404 1.0012c.17-.1241.2405-.3162.1572-.4301-.0841-.1139-.2881-.1054-.4573.0179-.1691.1241-.2388.317-.1564.4301.0833.1139.2873.1054.4565-.0179zm.554.141c.0833.1139.0128.306-.1572.4301-.1683.1233-.3732.1318-.4565.0179-.0824-.1131-.0127-.306.1564-.4301.1692-.1233.3732-.1318.4573-.0179zm.2404 1.0012c.17-.1233.2397-.3154.1564-.4301-.0833-.1139-.2882-.1054-.4573.0178-.1692.1241-.2389.3171-.1564.4301.0833.1139.2881.1063.4573-.0178zm.5532.1418c.0833.1139.0136.306-.1564.4301-.1692.1233-.374.1318-.4573.017-.0825-.1122-.0128-.306.1564-.4292.1691-.1233.374-.1318.4573-.0179zm.2404 1.0013c.17-.1241.2397-.3162.1564-.4301s-.2882-.1054-.4573.0178c-.1692.1241-.2389.3171-.1564.4301.0833.1139.2881.1054.4573-.0178zm.5531.1409c.0842.1139.0136.306-.1564.4301-.1691.1232-.374.1317-.4573.0178-.0824-.113-.0119-.306.1564-.4301.1692-.1232.374-.1309.4573-.0178zm.2404 1.002c.17-.1241.2397-.3162.1564-.4301s-.2881-.1062-.4573.0179c-.1683.1232-.2388.3162-.1564.4292.0833.1139.2882.1063.4573-.017zm.5532.1411c.0841.1139.0136.306-.1564.4301-.1692.1232-.3732.1317-.4573.0178-.0825-.113-.0128-.306.1564-.4301.1691-.1232.374-.1317.4573-.0178zm.2404 1.0011c.17-.1241.2397-.3162.1564-.4293-.0833-.1147-.2873-.1062-.4573.0179-.1683.1232-.2389.3162-.1556.4292.0825.1139.2873.1054.4565-.0178zm.5532.1419c.0841.1139.0144.306-.1564.4301-.1692.1232-.374.1309-.4573.017-.0825-.1131-.0128-.306.1564-.4293.1691-.1241.374-.1326.4573-.0178zm.2403 1.0012c.17-.1241.2406-.3162.1564-.4301-.0833-.1139-.2873-.1063-.4564.0178-.1692.1241-.2397.3162-.1573.4301.0842.1131.2882.1054.4573-.0178zm.5531.141c.0842.1139.0145.306-.1564.4301-.1691.1232-.3731.1317-.4564.0178-.0833-.113-.0128-.306.1564-.4301.1691-.1232.3731-.1317.4564-.0178zm.2404 1.0011c.17-.1241.2406-.3153.1564-.4301-.0833-.1139-.2873-.1054-.4564.0179-.1692.1241-.2397.317-.1564.4301.0833.1139.2873.1054.4564-.0179zm.554.1419c.0833.1139.0128.306-.1572.4301-.1683.1232-.3732.1317-.4565.017-.0824-.1131-.0127-.3052.1564-.4293.1692-.1232.374-.1317.4573-.0178zm.2396 1.0012c.1708-.1241.2405-.3162.1572-.4301s-.2881-.1054-.4573.0178c-.17.1241-.2388.3171-.1564.4301.0833.1131.2882.1054.4565-.0178zm.554.1409c.0833.1148.0136.306-.1572.4301-.1692.1233-.3732.1318-.4565.0179-.0824-.1139-.0127-.306.1564-.4301.1692-.1233.374-.1309.4573-.0179zm.2404 1.0021c.17-.1241.2397-.3162.1564-.431-.0833-.113-.2882-.1045-.4573.0179-.1692.1241-.2389.3179-.1556.4301.0825.1147.2873.1062.4565-.017zm.5523.141c.0842.1139.0136.306-.1564.4301-.1683.1233-.3731.1318-.4564.0179-.0825-.1131-.0128-.306.1564-.4301.1691-.1233.374-.1318.4564-.0179zm.2412 1.0011c.17-.1241.2397-.3162.1564-.4301-.0841-.1139-.2881-.1054-.4573.0179-.1691.1241-.2388.3162-.1564.4301.0833.1139.2882.1062.4573-.0179zm.5524.1411c.0841.1147.0136.306-.1556.4301-.1691.1241-.374.1317-.4573.0178-.0824-.113-.0127-.306.1564-.4301.1692-.1232.374-.1317.4565-.0178zm.2412 1.0012c.17-.1233.2397-.3162.1564-.4301-.0833-.1131-.2881-.1054-.4573.0178-.1691.1241-.2388.3171-.1564.4301.0833.1139.2882.1063.4573-.0178zm-23.2036-3.9879c-.0842.1131-.289.102-.4565-.0238-.1674-.1258-.2354-.3187-.1513-.4318.085-.113.289-.102.4565.023.1691.1266.2363.3196.1513.4326zm-.8947.49c.1674.1258.3723.1369.4564.0238.085-.113.017-.306-.1513-.4326-.1674-.125-.3723-.136-.4564-.023-.0842.1131-.017.306.1513.4318zm.0181.5377c-.085.1122-.289.102-.4573-.023-.1675-.1266-.2346-.3196-.1513-.4326.085-.1131.2898-.102.4573.0238.1683.1258.2363.3187.1513.4318zm-.8956.49c.1674.1258.3723.1368.4573.0238.0841-.1131.017-.306-.1513-.4318-.1675-.1258-.3723-.1369-.4573-.0238-.0833.113-.0162.306.1513.4318zm.019.5368c-.085.1139-.2898.1028-.4573-.023-.1674-.1266-.2346-.3187-.1504-.4318.0841-.113.2881-.102.4556.023.1691.1266.2363.3196.1521.4318zm-.8955.4908c.1674.1258.3714.136.4564.0238.085-.113.0179-.306-.1513-.4326-.1674-.125-.3714-.136-.4564-.023-.0842.1131-.0162.306.1513.4318zm.0181.5368c-.085.1131-.289.1029-.4565-.0229-.1674-.1258-.2354-.3188-.1513-.4318.085-.1131.289-.102.4565.0238.1683.1249.2354.3187.1513.4309zm-.8956.4909c.1683.1249.3723.136.4573.0229.085-.1122.017-.3051-.1513-.4318-.1674-.1258-.3723-.136-.4573-.0229-.0833.1122-.0161.306.1513.4318zm.0182.5368c-.0841.113-.289.102-.4564-.023-.1675-.1266-.2346-.3187-.1505-.4326.0842-.1122.289-.1012.4565.0238.1683.1266.2354.3196.1504.4318zm4.2675-3.5863c.1802.108.3842.0978.4565-.0238.0722-.1215-.0153-.306-.1947-.4131-.1802-.1079-.385-.0977-.4573.0238-.0722.1216.0153.306.1955.4131zm.0738.5332c-.0722.1216-.2762.1318-.4564.0238-.1794-.1071-.2678-.2915-.1955-.4131.0722-.1215.2779-.1317.4573-.0238.1793.1071.2677.2916.1946.4131zm-.8383.5808c.1794.108.3842.0978.4565-.0238.0722-.1215-.0153-.306-.1947-.4139-.1802-.1071-.385-.0969-.4581.0246-.0714.1207.0153.3052.1963.4131zm.0747.5324c-.0731.1215-.2771.1317-.4573.0246-.1802-.1079-.2678-.2924-.1955-.4131.0722-.1215.2771-.1317.4573-.0246.1793.1071.2669.2924.1955.4131zm-.84.5816c.181.1071.385.0969.4573-.0247.0722-.1215-.0153-.306-.1947-.4131-.1802-.1079-.385-.0977-.4581.0247-.0723.1207.0161.3051.1955.4131zm.0746.5323c-.0722.1216-.2762.1318-.4564.0238-.1802-.1071-.2678-.2915-.1964-.4131.0731-.1215.278-.1317.4582-.0246.1793.1079.2669.2932.1946.4139zm-.8391.5808c.1802.108.3842.0978.4573-.0238.0723-.1215-.0161-.306-.1955-.4139-.1802-.1071-.385-.0969-.4573.0246-.0722.1216.0153.3052.1955.4131zm.0746.5332c-.0722.1207-.2771.1318-.4564.0238-.1802-.1079-.2678-.2924-.1955-.4139.0722-.1207.2771-.1309.4573-.0238.1793.1079.2669.2924.1946.4139zm-.8391.5808c.1802.1071.3842.0969.4565-.0246.0722-.1207-.0153-.306-.1947-.4131-.1802-.1071-.385-.0969-.4573.0238-.0722.1215.0153.306.1955.4139zm1.1612-6.0909c-.0884.1096-.2924.0918-.4556-.0391-.1641-.1318-.2244-.3273-.1352-.4369.0884-.1088.2916-.0918.4548.0391.1632.1326.2244.3272.136.4369zm-.9113.459c.1624.1309.3672.1496.4556.0399.0884-.1105.0272-.3051-.136-.4377-.1632-.1309-.3672-.1479-.4556-.0391-.0884.1096-.028.3051.136.4369zm-.0009.538c-.0884.1096-.2924.0918-.4556-.04-.1641-.1309-.2244-.3272-.1352-.4369.0876-.1088.2916-.0918.4556.0391.1632.1326.2236.3281.1352.4378zm-.9114.458c.1624.1318.3672.1496.4556.04.0884-.1105.0272-.3052-.136-.4369-.164-.1318-.3672-.1488-.4556-.04-.0884.1097-.028.306.136.4369zm-.0009.5381c-.0884.1096-.2924.0918-.4556-.04-.1632-.1309-.2244-.3272-.1352-.4369.0876-.1088.2916-.0918.4556.0391.1632.1326.2236.3281.1352.4378zm-.9113.458c.1623.1318.3672.1505.4556.04.0884-.1097.0263-.3052-.136-.4369-.1632-.1318-.3672-.1488-.4556-.04-.0884.1097-.0281.306.136.4369zm-.0009.538c-.0884.1097-.2924.0918-.4556-.0399-.1641-.1309-.2236-.3264-.1352-.4361.0884-.1096.2916-.0926.4556.0391.1632.1318.2236.3273.1352.4369zm-.9113.459c.1632.1309.3663.1496.4547.0391.0884-.1096.0281-.3051-.1343-.4369-.164-.1317-.368-.1487-.4564-.0399-.0884.1105-.0281.306.136.4377zm-.0011.5371c-.0884.1105-.2924.0918-.4556-.0399-.1632-.1309-.2244-.3264-.1351-.4361.0875-.1088.2915-.0918.4556.0391.1623.1318.2235.3273.1351.4369zm15.8474-13.8702c.187-.085.2916-.2499.2329-.3706-.0595-.1207-.2601-.1496-.4479-.0654-.1879.0833-.2924.2499-.2338.3697.0604.1207.2601.1496.4488.0663zm.5318.2761c.0595.1207-.045.2856-.2329.3697-.1878.0842-.3884.0553-.4488-.0654-.0586-.1199.0459-.2865.2346-.3698.187-.0841.3885-.0552.4471.0655zm.0667 1.0172c.187-.085.2916-.2499.2329-.3706-.0595-.1207-.2601-.1496-.4479-.0655-.1879.0833-.2933.2499-.2338.3698.0595.1198.2601.1496.4488.0663zm.5326.276c.0586.1207-.0459.2856-.2329.3706-.1887.0833-.3893.0544-.4488-.0672-.0595-.119.045-.2856.2337-.3689.1879-.0841.3885-.0552.448.0655zm.0659 1.0164c.1879-.0841.2916-.2499.2329-.3697-.0586-.1207-.2601-.1505-.4479-.0655-.1887.0833-.2924.2499-.2329.3698.0595.1198.2592.1496.4479.0654zm.5318.2769c.0595.1207-.0442.2856-.2321.3697-.1887.0842-.3893.0553-.4488-.0663-.0595-.1198.0451-.2856.2338-.3689.187-.085.3884-.0552.4471.0655zm.0667 1.0172c.1879-.0841.2916-.2499.2329-.3706-.0586-.1207-.2601-.1496-.4479-.0654-.1879.0833-.2924.2499-.2338.3697.0604.1199.261.1496.4488.0663zm.5326.2752c.0587.1207-.0459.2864-.2329.3714-.1887.0833-.3893.0536-.4488-.0671-.0595-.1199.0451-.2856.2338-.3689.1878-.085.3884-.0561.4479.0646zm.0659 1.0173c.1878-.0842.2924-.2499.2329-.3706-.0587-.1199-.2601-.1496-.4471-.0646-.1887.0833-.2933.2499-.2338.3697.0595.1207.2601.1496.448.0655zm.5326.2768c.0586.1207-.0451.2856-.2329.3698-.1887.0841-.3885.0544-.4488-.0663-.0595-.1199.0459-.2856.2337-.3698.187-.0841.3885-.0544.448.0663zm.0659 1.0164c.1878-.0841.2924-.2499.2329-.3706-.0587-.1198-.2601-.1496-.448-.0654-.1878.0841-.2924.2499-.2337.3697.0603.1207.2609.1505.4488.0663zm.5326.2769c.0595.1207-.0459.2856-.2329.3697-.1887.0842-.3893.0544-.4488-.0663-.0587-.119.045-.2856.2337-.3697.1879-.0842.3885-.0544.448.0663zm.0659 1.0172c.1878-.085.2924-.2508.2337-.3706-.0595-.1216-.2601-.1505-.4479-.0655-.1887.0833-.2924.2499-.2338.3689.0595.1207.2601.1505.448.0672zm.5326.2752c.0586.1207-.0451.2865-.2329.3706-.1887.0842-.3885.0544-.4488-.0663-.0587-.1198.0459-.2856.2337-.3697.1879-.0842.3885-.0544.448.0654zm.0667 1.0172c.187-.0842.2915-.2499.2329-.3706-.0595-.1199-.261-.1496-.4488-.0655-.187.0842-.2924.2499-.2329.3698.0603.1207.2601.1496.4488.0663zm.5318.2768c.0595.1199-.0451.2856-.2329.3698-.1887.0841-.3885.0544-.4488-.0663-.0587-.119.0459-.2856.2337-.3689.1879-.085.3885-.0561.448.0654zm.0667 1.0165c.187-.0842.2915-.2499.2329-.3706-.0595-.1207-.2601-.1496-.448-.0655-.1887.0833-.2932.2499-.2337.3698.0595.1207.2601.1496.4488.0663zm.5317.2761c.0587.1207-.045.2864-.2329.3706-.1878.0833-.3884.0544-.4479-.0663-.0595-.1199.045-.2856.2337-.3689.187-.085.3885-.0553.4471.0646zm.0668 1.0171c.1878-.0841.2915-.2499.2329-.3706-.0595-.1198-.261-.1496-.448-.0654-.1878.0841-.2932.2499-.2337.3697.0603.1207.2601.1496.4488.0663zm.5317.276c.0595.1207-.045.2865-.232.3706-.1887.0833-.3893.0544-.4497-.0663-.0586-.1198.0459-.2864.2346-.3697.187-.0842.3885-.0553.4471.0654zm.0667 1.0173c.187-.0841.2916-.2499.2329-.3697-.0595-.1216-.2601-.1513-.4479-.0663-.1887.0841-.2924.2499-.2338.3697.0604.1207.261.1496.4488.0663zm.5318.276c.0595.1207-.045.2865-.2329.3706-.1878.0833-.3884.0544-.4479-.0663-.0595-.1198.045-.2856.2337-.3689.187-.085.3885-.0561.4471.0646zm.0667 1.0173c.1879-.0842.2916-.2499.2329-.3706-.0586-.1207-.2601-.1496-.4479-.0655-.1879.0833-.2933.2499-.2338.3698.0604.1207.2601.1496.4488.0663zm.5326.276c.0586.1207-.0459.2864-.2329.3706-.1887.0833-.3885.0544-.4488-.0663-.0595-.1199.045-.2865.2337-.3698.187-.0841.3885-.0544.448.0655zm.0659 1.0163c.1879-.0841.2916-.249.2329-.3697-.0595-.1207-.2601-.1496-.4471-.0655-.1895.0833-.2932.2499-.2346.3698.0604.1207.261.1496.4488.0654zm.5318.277c.0595.1198-.0451.2856-.2329.3697-.1879.0842-.3885.0544-.448-.0663-.0595-.1198.0451-.2856.2338-.3689.1878-.085.3884-.0561.4471.0655zm.0667 1.0163c.1879-.0841.2924-.2499.2329-.3697-.0595-.1207-.2601-.1496-.4479-.0655-.1879.0833-.2924.2499-.2338.3698.0604.1207.2601.1487.4488.0654z" fill="#fefefe"/><path d="m55.7509 55.3376c1.843.204 2.932-.381 3.292-.624-.668-.803-4.187-4.851-8.526-6.638-.595-.121-.798-.029-.858.016 2.09 1.297 5.629 6.55 6.092 7.246" fill="#fff"/><path d="m68.307 22.3907.5474-.0952c.3731.6698.7777.4437 1.7578-.0476.2337-.13.4955-.2626.8151-.4403 1.4042-.782 2.3724-1.3226 2.9776-1.6881.9817-.589 1.1237-.7106.6885-1.6396l.5091-.0884 1.6677 2.9903-.5202.0671c-.6443-.9809-.6443-.9809-3.0702.3723-.9035.5041-3.1892 1.8335-3.6252 2.0774.1759.3902.2448.5891.5533 1.1416.5457.98 1.0455 1.4254 2.3545.6961l.4539.5134-2.2559 1.258zm-6.6011-12.8554c-.6197.7982-2.2806 3.0558.2006 4.9844.7403.5755 1.4951.9146 2.2372.8126.4105-.051.8202-.1028 1.7765-1.3336 1.8241-2.3469.997-3.8837-.2814-4.8782-.7021-.5457-1.3787-.8857-1.9941-.80835-.6689.12665-1.3107.41565-1.9388 1.22315zm-.7591 5.6432c-1.0871-.8449-2.7803-2.9946-.4029-6.05205.6129-.7888 1.6014-1.34725 2.6877-1.47475 1.1195-.1496 2.1726.0833 3.298.95795 2.0579 1.59975 2.2279 3.64395.6061 5.73155-1.6592 2.1352-4.4285 2.2049-6.1889.8373zm-12.2043-6.00615.2695-.3995c1.0242.2788 1.2027.08075 1.5886-.95965.2261-.58055.5474-1.462.9554-2.7251.272-.84745.7013-2.2185.8381-2.76335-1.3107-.42245-1.9941-.64175-2.516.7004l-.7395.02975.7285-2.261 6.5858 2.1216-.6316 1.9601-.7395.02975c.3587-1.11265.2958-1.632-1.1305-2.09185-.1394-.0442-.2703-.07395-.4131-.1071-.2805.83045-.7148 2.09865-.9528 2.8407-.4038 1.25205-.6409 2.1488-.8007 2.72425-.3358 1.15855.0297 1.34045.9843 1.71105l-.3043.3885zm-10.0325-.5304c-.5602.0306-2.074.017-2.2687.02635l-.1351-2.4684.7446-.44285c.0051.10965.011.21845.017.32725.0765 1.3872.3544 1.77395 1.9346 1.68725.3051-.017.7905-.04335 1.0659-.3638.1844-.20485.3476-.5678.3187-1.07865-.1096-1.9941-4.2211-1.5725-4.352-3.94485-.0459-.83895.34-2.2389 2.6265-2.3647.6214-.034 1.7323-.0102 2.1225-.01955l.1088 1.9822-.6987.3927c-.0051-.0969-.0111-.20655-.017-.30345-.057-1.04635-.4276-1.343-1.5096-1.2835-.2797.0153-1.496.08245-1.4314 1.2614.0986 1.7765 4.1786 1.45435 4.3163 3.96015.0578 1.03275-.3647 1.5572-.7234 1.9057-.6256.61965-1.4866.6919-2.119.72675zm-11.1588 2.71235-.0247-.5432c.4582-.1989.6911-.3068.4769-.99615-.1666-.5372-.5432-1.52745-1.2368-3.2317-.34-.8347-.5941-1.42715-.776-1.8411-.4089-.93755-.5704-.8857-1.2844-.6341l-.0102-.57545 2.6172-1.0642.0246.5423c-.5644.23035-.606.41735-.2745 1.3617.221.67235.5958 1.62435 1.082 2.8203.4548 1.11775.7582 1.79605.9682 2.18365.2881.51425.5814.45985 1.2452.2822l.0128.54735zm-11.8388 2.1649c.1717-.1173.3425-.2184.4989-.3544.3485-.3052 1.3141-1.1807.3519-2.2814-.657-.7523-1.371-.6622-2.0323-.085-.4854.425-.4947.6919-.1454 1.1466.1666.21.3978.493.6868.8237zm1.5759 5.0618-.2159-.5066c.5448-.5423.4479-.7641-.295-1.6515-.3289-.3766-.7582-.9231-1.3829-1.638-.8016-.918-1.3719-1.5512-1.7434-1.9388-.4989-.5347-.8041-.754-1.4722-.1862l-.2235-.5329c.2286-.1828.5916-.4522 1.0327-.8373.4854-.425.9495-.8942 1.4348-1.31835 1.1101-.9707 2.2585-.71145 2.9393.06805.9707 1.1092.4556 2.3528-.0858 2.8254.4522-.1853.6757-.3001 1.8351.1759l1.1339.465c1.2351.5057 1.3821.5074 2.0638-.0085l.1981.5227-1.3209 1.1543-2.3018-.9486c-1.8547-.7735-1.9669-.7888-2.6894-.1904.0569.0646.153.1743.2329.2661.4649.5321.8525.9384 1.1424 1.2512.7021.7293 1.1109 1.0497 2.1811.164l.1963.5398zm-9.59058 5.4264c.08245-.1488.1751-.2916.25755-.442.76925-1.3974-.1003-1.9882-.46325-2.1879-.59755-.329-1.38635-.3876-1.921.5831-.2176.3944-.22695.6392.1071.8661.2278.1666 1.01235.612 1.2036.7174zm3.64138 1.9227c.1785-.249.4157-.5771.5916-.8976.6996-1.2699-.4598-1.9915-.7157-2.1326-1.57928-.8704-2.27288.3893-2.66048 1.0931-.0714.1283-.1309.2618-.1904.3961 1.5793.8695 2.48368 1.2716 2.97498 1.541zm-.425 2.3112-.3825-.3911c.4429-.8279.1649-.98-2.51343-2.4556-3.1365-1.7281-3.3388-1.8394-3.9304-.969l-.39185-.4242c.13005-.2354.3604-.5533.70125-1.1713.34085-.6196.57375-1.1441.7446-1.4535.95795-1.7391 2.414-1.201 2.8203-.9783.60775.3349 1.15515 1.082.9452 1.9949.90185-1.1577 2.19813-.986 2.82713-.64.6723.3714 1.9541 1.4526.7029 3.7247z" fill="#fff"/><path d="m81.4306 52.2769-.4879-.2508c.1181-.6808-.3383-.7599-1.4102-.9911-.2643-.045-.5508-.1062-.9103-.1683-1.5844-.2754-2.6767-.4658-3.3762-.5635-1.1339-.1649-1.3192-.1641-1.5496.731l-.4539-.2338.527-3.0362.4505.2576c-.096 1.0506-.096 1.0506 2.6401 1.5257 1.02.1777 3.6321.5865 4.1251.6724.1011-.3723.1691-.55.266-1.1118.1726-.9928.0544-1.5929-1.422-1.8488l-.0408-.6188 2.5449.442zm-2.9062 7.548-.402-.357c.1708-.4157.2524-.6316-.3825-.9733-.4947-.266-1.4552-.714-3.1374-1.4577-.8253-.3655-1.4195-.6163-1.836-.7888-.9452-.3936-1.0183-.2576-1.326.3493l-.4148-.3876 1.0285-2.3256.4012.3579c-.221.4998-.1164.6545.7786 1.0982.629.3255 1.5598.7497 2.7404 1.2724 1.1042.4879 1.7927.7684 2.2117.9053.561.1759.7234-.04 1.0489-.567l.3978.3672zm-3.4714 6.256c-1.3404 1.9252-3.5666 2.2448-5.6465.7973-1.7595-1.2257-2.9614-3.5054-1.2954-5.899.4012-.5755.6978-.9172 1.0735-1.3498l1.8122 1.235-.1436.6749c-.6392-.4454-1.3379-.9571-2.114.1581-.5015.72-.7148 1.4527-.6205 2.0001.0451.2975.7956 1.4348 1.7255 2.0825 1.8794 1.3081 3.3482 1.0752 4.5135-.5976.533-.765.6605-1.1832.839-1.7807l.7072.7327c-.2083.6834-.2295 1.0548-.8509 1.9465zm-11.73 11.4699-.1955-.4973c.5857-.5686.2967-1.0234-1.6592-3.5139-1.9337-2.4624-2.0918-2.663-2.9835-2.1488l-.1802-.4777 1.1637-.9137c1.6634.6443 5.3813 1.8292 7.1527 2.2023l-.9766-1.2605c-.1573-.2176-.4131-.5432-.6239-.8118-.4055-.5168-.754-.9256-1.0268-1.2537-.5449-.6239-1.2521-.7973-2.25-.0434l-.164-.493 2.5177-1.9771.1946.5143c-.4972.5916-.4666.6298 2.0621 3.8488.6834.8712 1.4178 1.7518 2.1199 2.6095l-.3451.6273c-1.1262-.3859-2.2414-.7956-3.3787-1.1263l-3.8777-1.1364c.2184.2779.4445.5652.6706.8525l.6171.7846c1.9185 2.4429 2.1106 2.6171 3.4782 1.7144l.193.5296zm-7.4655 3.7085c-2.4905.9138-3.2181-.9741-3.7732-2.4565l-.9333-2.5117c-.4462-1.2504-.5533-1.5088-1.2291-1.3141l-.0578-.5364 3.0056-1.1033.0111.5415c-1.1161.487-1.2002.674-.822 1.8326.221.6978.5678 1.7374 1.1552 3.3388.2099.572.7718 2.1046 2.357 1.5223.6979-.2295 1.0948-.7386 1.2045-1.0123.187-.51.2167-.4947-.8075-3.2853-.4106-1.1203-.6809-1.7603-.8951-2.2142-.3621-.7633-.646-.7106-1.2308-.5219l-.0255-.5491 2.2644-.8296.0238.51c-.4301.2609-.5389.4445-.1904 1.3931.3358.9146 1.1985 3.1671 1.4875 3.9568.4743 1.292-.0408 2.6877-1.5444 3.2393zm-14.8716-2.6231c.0025 1.0107.0756 3.8123 2.9036 3.8046.844-.0017 1.5674-.1989 2.0366-.7361.2626-.2932.5253-.5848.521-2.1445-.0076-2.9725-1.445-3.6763-2.9036-3.672-.8007.0025-1.4688.1504-1.8623.5907-.4038.5117-.6979 1.1339-.6953 2.1573zm2.5891 4.9147c-1.2393.0034-3.6312-.6485-3.6414-4.522-.0026-.9987.3901-2.0485 1.0897-2.8169.7097-.8058 1.5861-1.2707 2.8687-1.2741 2.346-.0068 3.5998 1.5011 3.6066 4.1446.0076 2.7038-1.9176 4.4625-3.9236 4.4684zm-10.5655-1.1373c-2.2959-.4819-3.4595-2.4063-2.9393-4.8858.4403-2.0986 2.0697-4.0961 4.9232-3.4977.6868.1445 1.1169.2839 1.6617.4615l-.4292 2.1497-.6775.1317c.1607-.7624.3596-1.6048-.9707-1.8836-.8585-.1802-1.6158-.0909-2.0825.21-.2575.1572-1.0106 1.2937-1.2435 2.4021-.4701 2.2414.3179 3.502 2.3128 3.921.9129.1921 1.3481.1462 1.9669.0774l-.3978.9358c-.7106.0757-1.0616.2015-2.1241-.0221zm-18.4858-8.2407.4003-.3451c.7557.527 1.1254.0714 1.5776-.578l1.2317-1.7689.1878-2.5721c.119-1.4169.1139-1.7161-.4522-2.17l.442-.3468 2.9767 2.0748-.4335.3349c-.0816-.0552-.1623-.1113-.2431-.1683-.2346-.1632-.7378-.5134-1.065-.0442-.1734.2491-.2304.6571-.2933 1.2657l-.1521 1.4076c1.2954-.6707 2.4352-1.2725 3.2835-1.972l1.3736.5992c-1.173.5338-2.1343.8585-3.6813 1.6227-.3545.1827-.7115.3502-1.0591.5227l-1.3158 1.8904c-.6477.9291-.4675 1.1883.2796 1.7085l-.4666.3426zm-7.98575-8.5383.44455-.1751c.6018.7412.8568.6775 1.77735.0587.52105-.34 1.29795-.8662 2.36975-1.649.7191-.5245 1.8726-1.3813 2.3061-1.7391-.731-1.0005-1.1127-1.5224-2.3188-.737l-.5746-.3536 1.9176-1.4016 3.6737 5.0286-1.6626 1.2146-.5755-.3536c.9444-.6902 1.2121-1.1296.4157-2.2185-.0774-.1062-.1573-.1963-.2457-.2949-.7148.5074-1.8096 1.2809-2.4386 1.7408-1.0625.776-1.78415 1.3574-2.25335 1.7272-.95455.7378-.78965 1.0659-.2958 1.8453l-.46495.1496zm-4.301-8.2195.5355-.0501c.18785.4088.28985.6162.97155.3833.5321-.1793 1.5164-.5754 3.20705-1.2996.8296-.3545 1.41865-.6171 1.82835-.805.93245-.4224.8823-.5686.6494-1.2078l.5661-.0391.9996 2.3383-.5347.051c-.2159-.5049-.4003-.5329-1.3353-.181-.6681.2371-1.61245.6298-2.79905 1.1373-1.10925.4734-1.78415.7862-2.17005.9987-.51255.2907-.4641.5568-.30175 1.1543l-.5389.04zm-2.1632542-6.8263c-.4130998-2.3095.9350042-4.1098 3.4289042-4.5569 2.11055-.3774 4.573.3842 5.08725 3.2547.12325.691.1547 1.1424.19465 1.7144l-2.1539.408-.3757-.5788c.76755-.1377 1.62265-.2686 1.38295-1.6065-.1547-.8636-.5219-1.5334-.97495-1.8522-.2431-.1793-1.57845-.453-2.69365-.2533-2.2542.4029-3.128004 1.6065-2.76845 3.6142.16405.9172.36975 1.3039.6664 1.8513l-1.019154-.0178c-.3349-.6307-.58225-.9087-.7743502-1.9771z" fill="#fff"/><path d="m3.4065 35.4685c-.0017-.6332.51085-1.15 1.14495-1.1509.63495-.0017 1.15005.5109 1.15175 1.145.0017.6349-.51085 1.1509-1.1458 1.1526-.6341.0017-1.1492-.5117-1.1509-1.1467" fill="#fff"/><path d="m76.5372 35.2899c-.0017-.6349.5117-1.1509 1.1458-1.1517.635-.0017 1.1501.5108 1.1518 1.1449s-.5109 1.1501-1.1458 1.1518c-.6341.0017-1.1501-.5117-1.1518-1.145" fill="#fff"/><path d="m41.2829 14.983c-14.774.0384-26.7188 12.0462-26.6804 26.8194.0384 14.774 12.0453 26.7188 26.8194 26.6804 14.7732-.0383 26.7188-12.0453 26.6804-26.8194-.0383-14.7732-12.0453-26.7188-26.8194-26.6804zm.0013.5c-14.4979.0376-26.2193 11.821-26.1817 26.3181.0377 14.4979 11.8202 26.2194 26.3181 26.1817 14.4971-.0376 26.2194-11.8202 26.1817-26.3181-.0376-14.497-11.8201-26.2193-26.3181-26.1817z" fill="#dc062b"/></g></svg>