<svg width="32" height="32" viewBox="0 0 32 32" xmlns="http://www.w3.org/2000/svg"><title>icon-twitter-white</title><path d="M16 32c8.837 0 16-7.163 16-16S24.837 0 16 0 0 7.163 0 16s7.163 16 16 16zm8.643-20.022c.008.173.01.347.01.52 0 5.33-4.055 11.475-11.472 11.475-2.276 0-4.395-.668-6.18-1.812.316.038.637.056.962.056 1.89 0 3.628-.644 5.008-1.725-1.765-.033-3.253-1.198-3.767-2.8.247.048.5.073.76.073.367 0 .723-.05 1.062-.142-1.846-.37-3.236-2-3.236-3.952v-.05c.543.3 1.165.482 1.827.504-1.083-.725-1.794-1.958-1.794-3.357 0-.74.198-1.432.545-2.028 1.99 2.44 4.96 4.045 8.312 4.214-.07-.294-.104-.602-.104-.918C16.576 9.805 18.38 8 20.608 8c1.16 0 2.207.49 2.943 1.273.92-.18 1.783-.517 2.562-.98-.302.944-.94 1.734-1.773 2.232.815-.097 1.592-.314 2.315-.635-.54.81-1.225 1.52-2.012 2.088z" fill="#FFF" fill-rule="evenodd"/></svg>