<svg width="152" height="32" viewBox="0 0 152 32" xmlns="http://www.w3.org/2000/svg"><title>mysociety-logo-white</title><g fill="none" fill-rule="evenodd"><path d="M.136 12.013C.136 10.08.102 8.458 0 7.007h3.61l.17 2.487h.102c.818-1.312 2.316-2.866 5.11-2.866 2.18 0 3.88 1.244 4.596 3.107h.068c.58-.933 1.26-1.624 2.043-2.106.92-.657 1.974-1.002 3.337-1.002 2.758 0 5.55 1.898 5.55 7.284v9.906H20.5v-9.285c0-2.797-.952-4.453-2.963-4.453-1.43 0-2.485 1.035-2.927 2.243-.103.414-.204.932-.204 1.415v10.08h-4.088v-9.734c0-2.348-.92-4.005-2.86-4.005-1.566 0-2.622 1.242-2.997 2.415-.17.415-.237.898-.237 1.382v9.94H.136V12.013M31.09 7.007l2.996 9.01c.34 1.036.683 2.314.92 3.28h.103c.27-.966.578-2.21.884-3.313l2.588-8.976h4.496l-4.155 11.46c-2.282 6.283-3.814 9.077-5.79 10.804-1.635 1.485-3.338 2.038-4.394 2.177l-.953-3.594c.715-.172 1.6-.55 2.452-1.172.783-.517 1.702-1.52 2.28-2.658.17-.313.273-.552.273-.76 0-.173-.034-.414-.24-.828l-6.06-15.43h4.596M45.562 19.192c1.362.794 3.405 1.485 5.55 1.485 2.69 0 4.19-1.277 4.19-3.174 0-1.762-1.16-2.798-4.087-3.868-3.78-1.38-6.2-3.417-6.2-6.766 0-3.798 3.135-6.697 8.107-6.697 2.486 0 4.325.552 5.517 1.173l-1.023 3.417c-.818-.448-2.418-1.105-4.563-1.105-2.657 0-3.815 1.45-3.815 2.797 0 1.795 1.328 2.623 4.393 3.832 3.984 1.52 5.925 3.556 5.925 6.904 0 3.73-2.793 7.008-8.717 7.008-2.418 0-4.937-.724-6.198-1.483l.92-3.523M94.765 23.3c-.883.413-2.62.897-4.698.897-5.176 0-8.548-3.383-8.548-8.595 0-5.04 3.404-8.975 9.23-8.975 1.532 0 3.097.346 4.05.795l-.747 3.175c-.68-.31-1.67-.656-3.167-.656-3.2 0-5.11 2.383-5.074 5.455 0 3.452 2.213 5.42 5.074 5.42 1.463 0 2.487-.312 3.303-.657l.575 3.143M97.866 7.007h4.222v16.81h-4.222M102.326 2.313c0 1.277-.92 2.28-2.383 2.28-1.397 0-2.317-1.003-2.317-2.28C97.626 1 98.58 0 99.976 0c1.43 0 2.317 1 2.35 2.313M109.544 16.604c.103 3.038 2.453 4.35 5.11 4.35 1.94 0 3.336-.277 4.597-.762l.613 2.936c-1.432.586-3.405 1.07-5.79 1.07-5.38 0-8.546-3.384-8.546-8.526 0-4.66 2.792-9.045 8.104-9.045 5.415 0 7.152 4.488 7.152 8.183 0 .793-.067 1.415-.135 1.794h-11.103zm7.29-2.968c.034-1.554-.648-4.108-3.44-4.108-2.59 0-3.68 2.38-3.85 4.108h7.29zM128.954 2.692v4.315h3.986v3.177h-3.986v7.42c0 2.038.545 3.11 2.145 3.11.783 0 1.156-.07 1.635-.21l.068 3.247c-.614.24-1.704.45-3.03.45-1.534 0-2.828-.554-3.61-1.416-.886-.966-1.294-2.487-1.294-4.695v-7.906h-2.385V7.008h2.384V3.902l4.084-1.21M138.965 7.007l3 9.01c.34 1.036.678 2.314.918 3.28h.1c.275-.966.582-2.21.886-3.313l2.588-8.976h4.494l-4.154 11.46c-2.282 6.283-3.813 9.08-5.79 10.806-1.634 1.485-3.338 2.036-4.39 2.175l-.956-3.592c.715-.172 1.602-.553 2.452-1.174.783-.517 1.703-1.52 2.282-2.656.172-.313.273-.554.273-.76 0-.173-.036-.416-.24-.83l-6.06-15.43h4.596" fill="#FFF"/><path d="M70.18 5.938c1.178 0 2.134.968 2.134 2.163 0 1.195-.956 2.164-2.135 2.164-1.18 0-2.134-.97-2.134-2.163 0-1.194.955-2.162 2.133-2.162" fill="#F94950"/><path d="M70.18 20.387c1.178 0 2.134.97 2.134 2.164 0 1.195-.956 2.164-2.135 2.164-1.18 0-2.134-.97-2.134-2.163 0-1.193.955-2.163 2.133-2.163" fill="#41BAEC"/><path d="M75.277 8.113c1.177 0 2.134.968 2.134 2.162 0 1.195-.956 2.163-2.133 2.163-1.18 0-2.134-.968-2.134-2.163 0-1.194.956-2.162 2.134-2.162" fill="#FA9C30"/><path d="M66.572 21.923c-.842.83-2.194.817-3.017-.036-.824-.855-.807-2.224.036-3.058.843-.837 2.193-.82 3.017.033.823.853.808 2.22-.035 3.06" fill="#9C4CD8"/><path d="M77.306 13.102c1.177 0 2.134.968 2.134 2.163 0 1.192-.957 2.16-2.134 2.16s-2.132-.967-2.132-2.16c0-1.195.955-2.163 2.132-2.163" fill="#FCEE21"/><path d="M63.053 13.223c1.18 0 2.134.97 2.134 2.163 0 1.195-.955 2.164-2.134 2.164-1.18 0-2.134-.97-2.134-2.164 0-1.194.954-2.163 2.133-2.163" fill="#C749C3"/><path d="M73.71 21.964c-.832-.847-.832-2.214 0-3.06.834-.843 2.185-.843 3.018 0 .833.846.833 2.213 0 3.06-.834.843-2.184.843-3.017 0" fill="#9FDB50"/></g></svg>