<?xml version="1.0" encoding="iso-8859-1"?>
<!-- Generator: Adobe Illustrator 16.2.1, SVG Export Plug-In . SVG Version: 6.00 Build 0)  -->
<!DOCTYPE svg PUBLIC "-//W3C//DTD SVG 1.1//EN" "http://www.w3.org/Graphics/SVG/1.1/DTD/svg11.dtd">
<svg version="1.1" xmlns="http://www.w3.org/2000/svg" xmlns:xlink="http://www.w3.org/1999/xlink" x="0px" y="0px" width="70px"
	 height="110px" viewBox="0 0 70 110" style="enable-background:new 0 0 70 110;" xml:space="preserve">
<g id="Layer_1">
	<g>
		<path style="fill:#333333;" d="M35,4.319c-17.434,0-31.562,14.129-31.562,31.562C3.438,67.444,35,105.319,35,105.319
			s31.562-37.875,31.562-69.438C66.562,18.448,52.434,4.319,35,4.319z M35.002,61.745c-4.352,0-8.438-1.133-11.987-3.111
			l4.737-4.838l6.316-6.453c0.053-0.051,0.088-0.115,0.137-0.166c0.9,0.225,1.822,0.373,2.789,0.373
			c6.479,0.021,11.738-5.174,11.757-11.596c0.009-1.025-0.166-2.002-0.415-2.959l-6.176,6.094l-6.828-1.465l-1.438-6.785
			l6.188-6.096c-0.964-0.27-1.965-0.457-3.018-0.457c-6.471-0.016-11.739,5.166-11.758,11.596c-0.002,1.361,0.27,2.652,0.701,3.871
			l-6.934,7.076l-4.273,4.361c-2.717-3.916-4.316-8.652-4.316-13.758c0-13.41,10.998-24.316,24.518-24.316
			c13.516,0,24.512,10.906,24.512,24.316C59.516,50.843,48.518,61.745,35.002,61.745z"/>
	</g>
</g>
<g id="nyt_x5F_exporter_x5F_info" style="display:none;">
</g>
</svg>
