<?xml version="1.0" encoding="iso-8859-1"?>
<!-- Generator: Adobe Illustrator 16.2.1, SVG Export Plug-In . SVG Version: 6.00 Build 0)  -->
<!DOCTYPE svg PUBLIC "-//W3C//DTD SVG 1.1//EN" "http://www.w3.org/Graphics/SVG/1.1/DTD/svg11.dtd">
<svg version="1.1" xmlns="http://www.w3.org/2000/svg" xmlns:xlink="http://www.w3.org/1999/xlink" x="0px" y="0px" width="185px"
	 height="110px" viewBox="0 0 185 110" style="enable-background:new 0 0 185 110;" xml:space="preserve">
<g id="Layer_1">
	<g>
		
			<linearGradient id="SVGID_1_" gradientUnits="userSpaceOnUse" x1="79.6641" y1="159.1553" x2="142.6646" y2="120.1549" gradientTransform="matrix(0.9604 -0.2786 0.2786 0.9604 -26.9562 -25.734)">
			<stop  offset="0" style="stop-color:#000000;stop-opacity:0.2"/>
			<stop  offset="1" style="stop-color:#000000;stop-opacity:0"/>
		</linearGradient>
		<path style="opacity:0.7;fill:url(#SVGID_1_);" d="M143.532,51.094c-30.477-2.699-62.367,2.56-71.242,11.748
			c-16.067,16.632,19.826,41.478,19.826,41.478s74.455-15.074,90.523-31.708C191.513,63.424,174.009,53.791,143.532,51.094z
			 M114.3,81.355c-7.605-0.673-14.174-1.903-19.371-3.495l10.744-1.815l14.328-2.422c0.117-0.02,0.211-0.049,0.324-0.067
			c1.46,0.258,2.996,0.479,4.686,0.627c11.312,1.016,23.152-0.909,26.455-4.289c0.537-0.54,0.729-1.082,0.779-1.623l-13.898,2.255
			l-11.189-1.83l0.941-3.797l13.918-2.255c-1.547-0.292-3.201-0.546-5.041-0.709c-11.305-1.01-23.152,0.906-26.455,4.291
			c-0.699,0.718-0.879,1.44-0.747,2.148L94.052,71.03l-9.691,1.638c-2.756-2.484-3.139-5.229-0.539-7.919
			c6.825-7.066,31.602-11.11,55.234-9.019c23.629,2.093,37.297,9.541,30.471,16.608C162.704,79.404,137.929,83.448,114.3,81.355z"/>
	</g>
</g>
<g id="nyt_x5F_exporter_x5F_info" style="display:none;">
</g>
</svg>
