<svg width="360" height="559" viewBox="0 0 360 559" fill="none" xmlns="http://www.w3.org/2000/svg">
<style>
:root {
    --secondary-color: #D8D8D8;
}
.fill-primary { fill: var(--primary-color); }
.fill-secondary { fill: var(--secondary-color); }
.stroke-primary { stroke: var(--primary-color); }
.stroke-secondary { stroke: var(--secondary-color); }

.blend-multiply { mix-blend-mode: multiply;}
.blend-plus-lighter { mix-blend-mode: plus-lighter; }
.blend-plus-screen { mix-blend-mode: screen; }
.blend-overlay { mix-blend-mode: overlay; }
.blend-plus-darker { mix-blend-mode: plus-darker;}
</style>

<path class="fill-secondary" d="M152.874 58.4407L153.288 58.3686V57.9481V51.4539V51.1916L153.072 51.0425L111.861 22.5733L130.024 14.4438L130.093 14.4132L130.149 14.3637L145.828 0.638029L157.988 9.39764L158.175 9.53276L158.4 9.47739L194.511 0.568852L203.803 14.2681L204.007 14.5702L204.358 14.4671L220.862 9.61061L227.607 31.3015L203.896 51.0699L203.716 51.2198V51.4539V59.4467V59.8698L204.134 59.9398L278.317 72.3929L334.535 156.512V522.032V522.225L334.665 522.368L358.87 549.008H317.559H317.536L317.514 549.01L224.187 557.498L122.372 549.009L122.351 549.008H122.33H19.9723H0.992333L20.3741 522.829L20.4723 522.697V522.532V156.004L72.7052 72.3899L152.874 58.4407Z"/>
<path class="stroke-secondary blend-multiply" d="M152.874 58.4407L153.288 58.3686V57.9481V51.4539V51.1916L153.072 51.0425L111.861 22.5733L130.024 14.4438L130.093 14.4132L130.149 14.3637L145.828 0.638029L157.988 9.39764L158.175 9.53276L158.4 9.47739L194.511 0.568852L203.803 14.2681L204.007 14.5702L204.358 14.4671L220.862 9.61061L227.607 31.3015L203.896 51.0699L203.716 51.2198V51.4539V59.4467V59.8698L204.134 59.9398L278.317 72.3929L334.535 156.512V522.032V522.225L334.665 522.368L358.87 549.008H317.559H317.536L317.514 549.01L224.187 557.498L122.372 549.009L122.351 549.008H122.33H19.9723H0.992333L20.3741 522.829L20.4723 522.697V522.532V156.004L72.7052 72.3899L152.874 58.4407Z"/>
<path class="fill-primary" d="M204.696 58.9326L152.307 57.5016L117.596 104.854L112.55 152.886L109.469 265.036L98.0024 391.713L114.929 482.9L122.391 549.984L223.54 558.352L255.001 555.595L249.168 417.174L255.001 343.385L239.82 186.584L249.168 119.97L204.696 58.9326Z"/>
<path class="fill-primary" d="M204.716 51.7336L152.288 51.7336V57.4486L204.716 58.9472V51.7336Z"/>
<path class="fill-primary blend-plus-screen" d="M204.716 51.7336L152.288 51.7336V57.4486L204.716 58.9472V51.7336Z"/>
<path class="blend-overlay fill-secondary" d="M76.3939 81.427L152.5 57.5L89.8752 88.9203L45.4369 148.367L76.3939 81.427Z"/>
<path class="blend-multiply" d="M117.201 105.019L152.547 57.1731L131.318 106.904L112.843 153.363L117.201 105.019Z"/>
<path class="blend-overlay fill-secondary" d="M242.712 121.75L236.135 152.716L222.99 111.986L197.561 58.7338L242.712 121.75Z" fill="white"/>
<path class="blend-overlay fill-secondary" d="M277.615 81.9265L309.071 148.866L265.631 89.4198L204.673 59.0222L277.615 81.9265Z"/>
<path class="blend-overlay fill-secondary" d="M73.3981 290.592L19.4731 236.735L69.9031 266.614L106.833 242.278L73.3981 290.592Z"/>
<path class="blend-overlay fill-secondary" d="M271.623 416.978L263.096 476.098L254.065 399.769L333.537 320.565L271.623 416.978Z"/>
<path class="blend-multiply fill-secondary" d="M168.766 530.525L172.614 465.583L183.745 522.532L219.196 556.002L168.766 530.525Z"/>
</svg>
