<svg width="360" height="558" viewBox="0 0 360 558" fill="none" xmlns="http://www.w3.org/2000/svg">
<style>
.fill-primary { fill: var(--primary-color); }
.stroke-primary { stroke: var(--primary-color); }

.blend-multiply { mix-blend-mode: multiply;}
.blend-plus-lighter { mix-blend-mode: plus-lighter; }
.blend-plus-screen { mix-blend-mode: screen; }
.blend-plus-darker { mix-blend-mode: plus-darker;}
</style>
<path class="fill-primary" d="M152.874 58.4407L153.288 58.3686V57.9481V51.4539V51.1916L153.072 51.0425L111.861 22.5733L130.024 14.4438L130.093 14.4132L130.149 14.3637L145.828 0.638029L157.988 9.39764L158.175 9.53276L158.4 9.47739L194.511 0.568852L203.803 14.2681L204.007 14.5702L204.358 14.4671L220.862 9.61061L227.607 31.3015L203.896 51.0699L203.716 51.2198V51.4539V59.4467V59.8698L204.134 59.9398L278.317 72.3929L334.535 156.512V522.032V522.225L334.665 522.368L358.87 549.008H317.559H317.536L317.514 549.01L224.187 557.498L122.372 549.009L122.351 549.008H122.33H19.9723H0.992333L20.3741 522.829L20.4723 522.697V522.532V156.004L72.7052 72.3899L152.874 58.4407Z" />
<path class="stroke-primary blend-plus-darker" d="M152.874 58.4407L153.288 58.3686V57.9481V51.4539V51.1916L153.072 51.0425L111.861 22.5733L130.024 14.4438L130.093 14.4132L130.149 14.3637L145.828 0.638029L157.988 9.39764L158.175 9.53276L158.4 9.47739L194.511 0.568852L203.803 14.2681L204.007 14.5702L204.358 14.4671L220.862 9.61061L227.607 31.3015L203.896 51.0699L203.716 51.2198V51.4539V59.4467V59.8698L204.134 59.9398L278.317 72.3929L334.535 156.512V522.032V522.225L334.665 522.368L358.87 549.008H317.559H317.536L317.514 549.01L224.187 557.498L122.372 549.009L122.351 549.008H122.33H19.9723H0.992333L20.3741 522.829L20.4723 522.697V522.532V156.004L72.7052 72.3899L152.874 58.4407Z"/>
<path class="fill-primary blend-plus-screen" d="M204.716 51.7336L152.288 51.7336V57.4486L204.716 58.9472V51.7336Z"/>

<path class="fill-primary blend-plus-lighter" d="M76.3939 81.427L152.5 57.5L89.8752 88.9203L45.4369 148.367L76.3939 81.427Z"/>
<path class="blend-multiply fill-primary" d="M117.337 104.407L157 57.5L131.318 106.904L112.843 153.363L117.337 104.407Z"/>
<path class="blend-plus-screen" d="M233.898 102.888L241.043 154.154L222.99 111.986L195.229 58.9471L233.898 102.888Z"/>
<path class="fill-primary blend-plus-lighter" d="M277.615 81.9266L309.071 148.867L265.631 89.4199L204 59L277.615 81.9266Z"/>
<path class="fill-primary blend-multiply" d="M73.3981 290.24L19.4731 236.383L69.9031 266.262L123.329 266.262L73.3981 290.24Z"/>
<path class="fill-primary blend-plus-lighter" d="M271.623 416.627L205.215 431.818L254.065 399.417L333.537 320.213L271.623 416.627Z"/>

<path class="fill-primary blend-multiply" d="M168.766 530.525L172.614 465.583L183.745 522.532L219.196 556.002L168.766 530.525Z" />
</svg>
