<svg width="356" height="662" viewBox="0 0 356 662" fill="none" xmlns="http://www.w3.org/2000/svg">
<path d="M100 216V662H63.7233C61.6252 662 59.8837 660.379 59.7335 658.287L28 216H100Z" fill="#F6CA0C"/>
<g opacity="0.12" style="mix-blend-mode:multiply">
<path d="M52 216L73 662H63.7233C61.6252 662 59.8837 660.379 59.7335 658.287L28 216H52Z" fill="black"/>
</g>
<path d="M255 216V662H291.277C293.375 662 295.116 660.379 295.266 658.287L327 216H255Z" fill="#F6CA0C"/>
<g opacity="0.12" style="mix-blend-mode:multiply">
<path d="M303 216L282 662H291.277C293.375 662 295.116 660.379 295.266 658.287L327 216H303Z" fill="black"/>
</g>
<rect x="100" y="216" width="168" height="446" fill="#F6CA0C"/>
<rect x="72.1219" y="351.184" width="150" height="150" transform="rotate(-45 72.1219 351.184)" fill="white"/>
<rect x="94.7494" y="351.184" width="118" height="118" transform="rotate(-45 94.7494 351.184)" stroke="#333333" stroke-width="7"/>
<path d="M197.851 326.954L213.353 312.993C214.034 312.41 214.963 313.338 214.379 314.02L200.418 329.522L201.303 330.407C201.571 330.674 201.783 330.991 201.927 331.34C202.072 331.689 202.147 332.063 202.147 332.441C202.147 332.819 202.072 333.193 201.927 333.542C201.783 333.891 201.571 334.208 201.303 334.475L199.455 336.324L203.063 339.926C203.597 340.46 204.021 341.094 204.31 341.792C204.599 342.49 204.748 343.238 204.748 343.993C204.748 344.748 204.599 345.496 204.31 346.194C204.021 346.892 203.597 347.526 203.063 348.06L168.735 382.384L169.569 383.221C170.108 383.76 170.411 384.491 170.411 385.253C170.411 386.016 170.108 386.747 169.569 387.286L167.537 389.319C167.27 389.586 166.952 389.798 166.603 389.943C166.254 390.087 165.88 390.162 165.502 390.162C165.125 390.162 164.751 390.087 164.402 389.943C164.052 389.798 163.735 389.586 163.468 389.319L154.881 380.731L150.045 385.567L150.425 385.949C150.805 386.358 151.013 386.899 151.003 387.457C150.993 388.016 150.767 388.549 150.372 388.944C149.977 389.339 149.444 389.565 148.885 389.575C148.326 389.585 147.786 389.378 147.377 388.997L138.229 379.854C137.848 379.445 137.641 378.905 137.65 378.346C137.66 377.788 137.887 377.255 138.282 376.86C138.677 376.464 139.21 376.238 139.768 376.228C140.327 376.218 140.868 376.426 141.276 376.807L141.785 377.313L146.621 372.477L138.324 364.177C137.785 363.638 137.482 362.907 137.482 362.144C137.482 361.382 137.785 360.651 138.324 360.112L140.356 358.079C140.895 357.54 141.627 357.237 142.389 357.237C143.151 357.237 143.882 357.54 144.422 358.079L144.985 358.642L179.313 324.309C179.846 323.775 180.48 323.351 181.178 323.062C181.876 322.773 182.624 322.624 183.379 322.624C184.135 322.624 184.882 322.773 185.58 323.062C186.278 323.351 186.912 323.775 187.446 324.309L191.327 328.19L193.176 326.342C193.715 325.803 194.446 325.5 195.208 325.5C195.971 325.5 196.702 325.803 197.241 326.342L197.851 326.954ZM148.012 383.534L152.848 378.701L148.654 374.507L143.818 379.342L148.012 383.534ZM198.998 343.994L183.381 328.374L179.528 332.227L182.041 334.737C182.422 335.146 182.629 335.686 182.619 336.245C182.609 336.803 182.383 337.336 181.988 337.731C181.593 338.127 181.06 338.353 180.501 338.363C179.943 338.373 179.402 338.165 178.993 337.784L176.481 335.274L173.692 338.063L176.116 340.487C176.496 340.896 176.704 341.436 176.694 341.995C176.684 342.553 176.458 343.086 176.063 343.481C175.668 343.877 175.135 344.103 174.576 344.113C174.017 344.123 173.477 343.915 173.068 343.534L170.642 341.114L168.028 343.727L170.541 346.237C170.922 346.646 171.129 347.186 171.119 347.745C171.109 348.303 170.883 348.836 170.488 349.231C170.093 349.627 169.56 349.853 169.001 349.863C168.443 349.873 167.902 349.665 167.493 349.284L164.981 346.774L149.05 362.705L164.667 378.322L198.998 343.994Z" fill="#333333"/>
<path d="M108.876 225V0H76.6066C66.9486 0 58.6703 6.90167 56.9329 16.4021L25.6645 187.38C5.12685 187.38 2.49828 205.869 2.49828 205.869L1.16886 222.844C1.07781 224.006 1.99664 225 3.16276 225H25.6645H108.876Z" fill="#FFDB40"/>
<path d="M248 225.016V0.0163574H280.27C289.928 0.0163574 298.206 6.91803 299.943 16.4184L331.212 187.397C351.749 187.397 354.378 205.885 354.378 205.885L355.707 222.86C355.798 224.023 354.88 225.016 353.713 225.016H331.212H248Z" fill="#FFDB40"/>
<rect x="108" width="154" height="225" fill="#FFDB40"/>
<g opacity="0.1" style="mix-blend-mode:multiply">
<path d="M2.47004 205.949H354.326L355.683 222.863C355.776 224.027 354.857 225.023 353.689 225.023L3.01444 225.099C1.84262 225.1 0.921632 224.097 1.02125 222.929L2.47004 205.949Z" fill="black"/>
</g>
<g opacity="0.1" style="mix-blend-mode:multiply">
<path d="M327.664 167.966H29.0886L25.5292 187.473L331.211 187.414L327.664 167.966Z" fill="black"/>
</g>
</svg>
