<svg width="401" height="692" viewBox="0 0 401 692" fill="none" xmlns="http://www.w3.org/2000/svg">
<title>Wheelie bin</title>
<style>
.wheel { fill: #333333; }
.main { fill: var(--primary-color, var(--default-color)); }
.lid { fill: var(--lid-color, var(--primary-color, var(--default-color))); }
.recycling-logo { fill: #ffffff; opacity: var(--recycling-logo, 0); }
</style>
<path class="wheel" d="M357.536 644.891H47.5188V649.386H357.536V644.891Z"/>
<path class="wheel" d="M355.906 598.349H341.038C335.497 598.349 331.005 602.839 331.005 608.378V681.4C331.005 686.939 335.497 691.43 341.038 691.43H355.906C361.447 691.43 365.939 686.939 365.939 681.4V608.378C365.939 602.839 361.447 598.349 355.906 598.349Z"/>
<path class="wheel" d="M59.5608 598.349H44.6919C39.1512 598.349 34.6594 602.839 34.6594 608.378V681.4C34.6594 686.939 39.1512 691.43 44.6919 691.43H59.5608C65.1016 691.43 69.5932 686.939 69.5932 681.4V608.378C69.5932 602.839 65.1016 598.349 59.5608 598.349Z"/>
<g style="mix-blend-mode:multiply" opacity="0.1">
<path class="wheel" d="M34.6594 659.875H69.5932V681.282C69.5932 686.886 65.0367 691.441 59.4309 691.441H44.8218C39.2161 691.441 34.6594 686.886 34.6594 681.282V659.875Z"/>
</g>
<g style="mix-blend-mode:multiply" opacity="0.1">
<path class="wheel" d="M34.6594 675.647H69.5932V681.271C69.5932 686.875 65.0367 691.43 59.4309 691.43H44.8218C39.2161 691.43 34.6594 686.875 34.6594 681.271V675.647Z"/>
</g>
<g style="mix-blend-mode:multiply" opacity="0.1">
<path class="wheel" d="M331.005 659.875H365.939V681.282C365.939 686.886 361.382 691.441 355.777 691.441H341.168C335.562 691.441 331.005 686.886 331.005 681.282V659.875Z"/>
</g>
<g style="mix-blend-mode:multiply" opacity="0.1">
<path class="wheel" d="M331.005 675.647H365.939V681.271C365.939 686.875 361.382 691.43 355.777 691.43H341.168C335.562 691.43 331.005 686.875 331.005 681.271V675.647Z"/>
</g>
<path class="lid" d="M384.466 43.7749H373.694V21.2092C373.694 9.74149 364.391 0.441406 352.92 0.441406H48.8579C43.1222 0.441406 37.9362 2.75879 34.189 6.54474C30.4018 10.3007 28.0836 15.4853 28.0836 21.2092V43.7749H17.4914C8.36824 43.7749 0.973877 51.167 0.973877 60.2873V90.5849H16.3822L28.1535 106.478H51.6758L50.6666 90.5849H351.338L350.351 106.478H373.764L385.536 90.5849H400.974V60.2873C400.974 51.167 393.58 43.7749 384.456 43.7749H384.466Z"/>
<g style="mix-blend-mode:multiply" opacity="0.1">
<path fill="black" d="M0.973877 71.8767H400.974V90.582H0.973877V71.8767Z"/>
</g>
<g style="mix-blend-mode:multiply" opacity="0.1">
<path fill="black" d="M373.695 20.2083H28.0842V42.7739H373.695V20.2083Z"/>
</g>
<path class="main" d="M351.521 89.5948L322.413 681.301H79.3654L50.5969 89.5948H351.521Z"/>
<g style="mix-blend-mode:multiply" opacity="0.1">
<path fill="black" d="M55.7878 171.454L50.3718 90.582H351.296L350.349 106.473L55.7878 171.454Z"/>
</g>
<g style="mix-blend-mode:multiply" opacity="0.12">
<path fill="black" d="M307.103 90.5045L281.622 681.301H322.264L350.973 90.5045H307.103Z"/>
</g>
<g style="mix-blend-mode:multiply" opacity="0.12">
<path fill="black" d="M95.1227 90.7581L120.495 681.301H79.3654L50.9626 90.7581H95.1227Z"/>
</g>
<path class="recycling-logo" d="M184.674 265.748L164.61 254.071L175.052 235.794C177.935 230.711 188.654 230.572 192.364 234.966L197.448 243.484L184.667 265.741L184.674 265.748Z"/>
<path class="recycling-logo" d="M167.176 300.717H156.458C152.333 300.269 145.463 291.785 149.588 284.088L154.257 276.253L146.974 271.99H170.059L181.736 292.054L174.453 288.067L167.169 300.71L167.176 300.717Z"/>
<path class="recycling-logo" d="M194.792 307.483V330.981H169.1C167.59 331.119 166.486 329.609 165.666 328.367C153.575 306.931 153.713 307.069 153.161 306.386C153.816 306.938 154.534 307.483 156.596 307.483H194.792Z"/>
<path class="recycling-logo" d="M247.072 307.484C249.686 307.208 250.094 306.525 250.783 306.111L237.865 328.92C237.313 330.017 236.216 330.983 234.568 330.983H220.277V339.363L208.6 319.437L220.277 299.373V307.477H247.072V307.484Z"/>
<path class="recycling-logo" d="M223.995 278.735L244.19 267.196L254.77 285.198C258.619 292.619 252.025 299.764 247.625 300.585H236.768L223.988 278.735H223.995Z"/>
<path class="recycling-logo" d="M199.137 233.186C198.309 232.09 196.661 230.71 195.151 230.441H222.222C223.732 230.441 225.105 230.993 225.795 232.228L232.802 244.594L239.81 240.608L228.409 260.396H205.6L212.469 256.271L199.144 233.186H199.137Z"/>
</svg>
