<svg width="20" height="20" viewBox="0 0 20 20" fill="none" xmlns="http://www.w3.org/2000/svg">
<path d="M10 20C8.17708 19.974 6.51042 19.5312 5 18.6719C3.48958 17.7865 2.26562 16.5625 1.32812 15C0.442708 13.4115 0 11.7448 0 10C0 8.25521 0.442708 6.58854 1.32812 5C2.26562 3.4375 3.48958 2.21354 5 1.32812C6.51042 0.46875 8.17708 0.0260417 10 0C11.8229 0.0260417 13.4896 0.46875 15 1.32812C16.5104 2.21354 17.7344 3.4375 18.6719 5C19.5573 6.58854 20 8.25521 20 10C20 11.7448 19.5573 13.4115 18.6719 15C17.7344 16.5625 16.5104 17.7865 15 18.6719C13.4896 19.5312 11.8229 19.974 10 20ZM8.4375 13.125C7.86458 13.1771 7.55208 13.4896 7.5 14.0625C7.55208 14.6354 7.86458 14.9479 8.4375 15H11.5625C12.1354 14.9479 12.4479 14.6354 12.5 14.0625C12.4479 13.4896 12.1354 13.1771 11.5625 13.125H11.25V9.6875C11.1979 9.11458 10.8854 8.80208 10.3125 8.75H8.4375C7.86458 8.80208 7.55208 9.11458 7.5 9.6875C7.55208 10.2604 7.86458 10.5729 8.4375 10.625H9.375V13.125H8.4375H9.375H8.4375ZM10 5C9.63542 5 9.33594 5.11719 9.10156 5.35156C8.86719 5.58594 8.75 5.88542 8.75 6.25C8.75 6.61458 8.86719 6.91406 9.10156 7.14844C9.33594 7.38281 9.63542 7.5 10 7.5C10.3646 7.5 10.6641 7.38281 10.8984 7.14844C11.1328 6.91406 11.25 6.61458 11.25 6.25C11.25 5.88542 11.1328 5.58594 10.8984 5.35156C10.6641 5.11719 10.3646 5 10 5Z" fill="white"/>
</svg>
