<svg width="216" height="51" viewBox="0 0 216 51" fill="none" xmlns="http://www.w3.org/2000/svg">
<g clip-path="url(#clip0_1445_2)">
<path d="M45.74 0H0V45.75H45.74V0ZM0.84 30C4.45 34.28 10.75 35.62 13.05 35.62C15.953 35.4237 18.7928 34.6806 21.42 33.43C23.3185 34.2277 25.3609 34.626 27.42 34.6C30.61 34.6 35.89 32.47 38.35 31L33.85 44.8H0.84V30ZM32.57 30.21C31.1996 30.2166 29.8354 30.0246 28.52 29.64C29.02 29.33 29.52 29 30.03 28.64C31.6153 27.4029 32.6845 25.621 33.03 23.64C35.2 23.58 38.52 23.44 40.64 23.35L38.8 29.24C36.7701 29.7572 34.6926 30.0655 32.6 30.16M25.36 28.01C21.9 25.46 20.81 21.18 20.81 18.21C20.7817 16.56 21.0008 14.9151 21.46 13.33C24.82 15.98 26.46 18.89 26.46 22.86C26.4763 24.641 26.0864 26.4023 25.32 28.01M0.84 3.02C6.51073 5.31322 12.0612 7.89322 17.47 10.75C14.9635 13.5306 13.5681 17.1365 13.55 20.88C13.5012 22.9907 13.9448 25.0837 14.8457 26.993C15.7466 28.9024 17.0799 30.5756 18.74 31.88C14.74 31.46 5.1 29.27 5.1 19.7C5.1 14.14 7.24 11.21 9.57 10.05L9.26 9.35C5.44 10.92 2.66 12.21 0.84 14.14V3.02ZM44.92 7.02C41.5272 5.92363 37.9747 5.4031 34.41 5.48C30.6987 5.47361 27.0143 6.10967 23.52 7.36L23.22 7.21L10.83 0.82H44.92V7.04V7.02ZM44.92 21.36C43.74 21.46 42.56 21.55 41.41 21.55C38.8971 21.4891 36.3928 21.2316 33.92 20.78C33.7356 20.8903 33.5453 20.9904 33.35 21.08C33.35 20.95 33.35 20.82 33.35 20.69C33.35 16.8 31.6 11.94 25.49 8.37C27.3334 7.58448 29.3276 7.2157 31.33 7.29C39.07 7.29 42.33 10.35 42.33 12.18C42.2527 13.2743 41.9388 14.3388 41.41 15.3L44.86 13.03V21.36H44.92ZM44.92 44.86H39.72L44.92 29.18V44.88V44.86ZM2.64 40.06C2.64 41.69 3.73 42.48 5.31 42.48C5.68432 42.4701 6.05648 42.4198 6.42 42.33V41.52C6.08395 41.6581 5.72326 41.7261 5.36 41.72C5.1348 41.7293 4.91021 41.6906 4.70111 41.6064C4.49201 41.5223 4.30319 41.3947 4.14716 41.2321C3.99113 41.0694 3.87147 40.8754 3.7961 40.663C3.72073 40.4506 3.69138 40.2246 3.71 40C3.69219 39.7791 3.7199 39.5569 3.79141 39.3471C3.86292 39.1373 3.97671 38.9445 4.12575 38.7804C4.27478 38.6164 4.45589 38.4847 4.65787 38.3934C4.85985 38.3022 5.0784 38.2534 5.3 38.25C5.65035 38.2476 5.99519 38.3372 6.3 38.51L6.37 37.69C6.01808 37.5587 5.64562 37.491 5.27 37.49C4.91756 37.4507 4.5608 37.4897 4.22515 37.6041C3.8895 37.7185 3.58325 37.9056 3.32823 38.1521C3.07322 38.3985 2.87573 38.6981 2.74985 39.0297C2.62397 39.3612 2.5728 39.7164 2.6 40.07M7.12 39.96C7.08296 40.2875 7.11799 40.6191 7.22262 40.9316C7.32726 41.2441 7.49896 41.5299 7.72572 41.769C7.95247 42.0082 8.22877 42.1948 8.53527 42.3159C8.84176 42.437 9.17103 42.4896 9.5 42.47C9.82852 42.4878 10.157 42.4341 10.4627 42.3124C10.7684 42.1907 11.0439 42.004 11.2703 41.7652C11.4967 41.5265 11.6685 41.2414 11.7737 40.9297C11.879 40.618 11.9153 40.2871 11.88 39.96C11.9124 39.6349 11.8738 39.3066 11.7671 38.9978C11.6604 38.689 11.4879 38.4071 11.2617 38.1713C11.0355 37.9356 10.7608 37.7517 10.4567 37.6324C10.1526 37.513 9.82617 37.461 9.5 37.48C9.1734 37.4593 8.84622 37.5101 8.54128 37.6289C8.23633 37.7476 7.96096 37.9315 7.73436 38.1676C7.50777 38.4037 7.33541 38.6864 7.2293 38.996C7.12319 39.3055 7.08589 39.6345 7.12 39.96ZM8.12 39.96C8.12 39.11 8.52 38.24 9.48 38.24C10.44 38.24 10.84 39.11 10.84 39.96C10.84 40.81 10.53 41.75 9.54 41.75C8.55 41.75 8.18 40.87 8.18 40M14 37.56H13V40.65C13 41.94 13.74 42.48 15 42.48C16.26 42.48 17 41.95 17 40.65V37.56H16V40.35C16 41.17 15.74 41.71 15 41.71C14.26 41.71 14 41.17 14 40.35V37.56ZM19.51 37.56H18.31V42.39H19.24V38.75L21.1 42.36H22.29V37.56H21.36V41.17L19.51 37.56ZM23.43 40.06C23.43 41.69 24.52 42.48 26.1 42.48C26.4743 42.4701 26.8465 42.4198 27.21 42.33V41.52C26.874 41.6581 26.5133 41.7261 26.15 41.72C25.9248 41.7293 25.7002 41.6906 25.4911 41.6064C25.282 41.5223 25.0932 41.3947 24.9372 41.2321C24.7811 41.0694 24.6615 40.8754 24.5861 40.663C24.5107 40.4506 24.4814 40.2246 24.5 40C24.4819 39.7757 24.5108 39.5502 24.5847 39.3377C24.6586 39.1252 24.776 38.9304 24.9293 38.7658C25.0827 38.6011 25.2686 38.4703 25.4754 38.3815C25.6821 38.2927 25.905 38.2479 26.13 38.25C26.4972 38.2386 26.8605 38.3285 27.18 38.51L27.25 37.69C26.8981 37.5587 26.5256 37.491 26.15 37.49C25.7976 37.4507 25.4408 37.4897 25.1052 37.6041C24.7695 37.7185 24.4632 37.9056 24.2082 38.1521C23.9532 38.3985 23.7557 38.6981 23.6298 39.0297C23.504 39.3612 23.4528 39.7164 23.48 40.07M29.13 37.56H28.13V42.39H29.13V37.56ZM31.42 37.56H30.42V42.39H33.28V41.63H31.42V37.56Z" fill="white"/>
<path d="M65.45 45.2398C65.3679 44.6131 65.3245 43.9819 65.32 43.3498V36.7498C65.32 33.5698 64.14 31.9098 60.74 31.9098C59.4183 31.9437 58.1151 32.2287 56.9 32.7498V34.3098C58.0493 33.5885 59.3834 33.2168 60.74 33.2398C62.33 33.2398 63.74 33.7798 63.74 36.5698V37.2598H62.95C57.95 37.2598 55.4 38.5398 55.4 41.8398C55.4 43.0398 56.01 45.5198 59.7 45.5198C60.5468 45.5401 61.3826 45.3257 62.1151 44.9004C62.8475 44.475 63.448 43.8553 63.85 43.1098V45.2098H65.43L65.45 45.2398ZM63.72 39.6398C63.72 43.2498 61.88 44.1698 59.85 44.1698C58.11 44.1698 57.14 43.3198 57.14 41.8098C57.14 40.2998 58.14 38.6598 62.98 38.6598H63.72V39.6598V39.6398ZM79.35 45.2398V36.8998C79.35 34.0098 78.1 31.8998 74.9 31.8998C74.0055 31.8227 73.1101 32.0386 72.3489 32.5147C71.5878 32.9909 71.002 33.7017 70.68 34.5398H70.63V32.1998H69.07C69.12 32.7598 69.17 33.5798 69.17 34.4298V45.2498H70.78V38.0098C70.78 35.8898 71.7 33.2798 74.65 33.2798C76.75 33.2798 77.75 34.6898 77.75 37.2798V45.2798H79.36L79.35 45.2398ZM93.74 45.2398V26.0498H92.13V34.3898C91.7617 33.614 91.1744 32.963 90.4405 32.517C89.7066 32.071 88.8583 31.8495 88 31.8798C84.54 31.8798 82.65 34.2798 82.65 38.7098C82.65 42.7098 84.57 45.5398 88.02 45.5398C88.8593 45.6001 89.6973 45.405 90.4237 44.9802C91.1501 44.5554 91.731 43.9208 92.09 43.1598H92.14V45.2298H93.76L93.74 45.2398ZM88.26 44.1698C85.49 44.1698 84.39 41.7598 84.39 38.7198C84.39 35.2398 85.8 33.2698 88.23 33.2698C91.1 33.2698 92.12 36.2698 92.12 38.7198C92.12 41.1698 91.02 44.1698 88.25 44.1698H88.26ZM115 42.4798C114.236 42.6581 113.454 42.7454 112.67 42.7398C108.93 42.7398 106.58 40.1298 106.58 36.3698C106.529 35.5055 106.662 34.6403 106.969 33.831C107.277 33.0217 107.753 32.2868 108.365 31.6746C108.977 31.0624 109.712 30.5869 110.521 30.2792C111.33 29.9716 112.196 29.8389 113.06 29.8898C114.642 29.8872 116.208 30.2106 117.66 30.8398L117.89 27.8398C116.197 27.3318 114.437 27.0824 112.67 27.0998C106.42 27.0998 102.84 30.6798 102.84 36.6398C102.84 42.5998 106.55 45.5698 112.64 45.5698C114.598 45.5155 116.542 45.2063 118.42 44.6498V35.0098H111.2V37.8198H115V42.4798ZM132.94 45.2398C132.79 43.4698 132.73 40.7098 132.73 40.0198V37.3098C132.73 33.3098 130.99 31.7598 127.05 31.7598C125.471 31.7799 123.913 32.1201 122.47 32.7598L122.57 35.7098C123.744 34.8201 125.168 34.3232 126.64 34.2898C128.48 34.2898 129.64 34.8698 129.64 37.0598H127.51C122.37 37.0598 121.06 39.2798 121.06 41.5598C121.06 44.0698 123.28 45.4998 125.66 45.4998C126.477 45.5079 127.282 45.3028 127.996 44.9048C128.71 44.5067 129.308 43.9294 129.73 43.2298H129.78C129.79 43.8989 129.84 44.5667 129.93 45.2298H132.93L132.94 45.2398ZM129.62 39.2998C129.62 41.9898 128.03 43.0398 126.49 43.0398C125.11 43.0398 124.31 42.4498 124.31 41.4298C124.31 39.8698 125.67 39.1498 128.1 39.1498H129.61V39.2998H129.62ZM139.62 45.2398V26.0498H136.19V45.2398H139.62ZM146.74 45.2398V26.0498H143.3V45.2398H146.74ZM163.29 38.7498C163.325 37.8222 163.173 36.8971 162.843 36.0297C162.512 35.1624 162.01 34.3706 161.366 33.7019C160.722 33.0332 159.95 32.5012 159.096 32.1378C158.242 31.7745 157.323 31.5872 156.395 31.5872C155.467 31.5872 154.548 31.7745 153.694 32.1378C152.84 32.5012 152.068 33.0332 151.424 33.7019C150.78 34.3706 150.278 35.1624 149.947 36.0297C149.617 36.8971 149.465 37.8222 149.5 38.7498C149.568 40.533 150.324 42.2206 151.61 43.4582C152.895 44.6958 154.611 45.3872 156.395 45.3872C158.18 45.3872 159.895 44.6958 161.18 43.4582C162.466 42.2206 163.222 40.533 163.29 38.7498ZM156.38 42.8998C154.15 42.8998 153.08 41.1298 153.08 38.3398C153.08 36.2698 154.23 34.4198 156.38 34.4198C158.53 34.4198 159.71 36.2398 159.71 38.3398C159.71 41.1798 158.61 42.8998 156.38 42.8998ZM182.63 45.2498L186.63 32.0698H183.4L180.66 41.8198L177.79 32.0698H173.79L171.13 41.8198H171L168.08 32.0698H164.45L168.9 45.2498H172.82L175.64 35.1898L178.51 45.2498H182.51H182.63ZM199.78 45.2498C199.63 43.4798 199.58 40.7198 199.58 40.0298V37.3098C199.58 33.3098 197.84 31.7598 193.9 31.7598C192.321 31.7799 190.763 32.1201 189.32 32.7598L189.42 35.7098C190.594 34.8201 192.018 34.3232 193.49 34.2898C195.33 34.2898 196.49 34.8698 196.49 37.0598H194.37C189.23 37.0598 187.92 39.2798 187.92 41.5598C187.92 44.0698 190.14 45.4998 192.52 45.4998C193.337 45.5079 194.142 45.3028 194.856 44.9048C195.57 44.5067 196.168 43.9294 196.59 43.2298H196.64C196.645 43.8991 196.695 44.5673 196.79 45.2298H199.79L199.78 45.2498ZM196.46 39.3098C196.46 41.9998 194.87 43.0498 193.34 43.0498C191.96 43.0498 191.16 42.4598 191.16 41.4398C191.16 39.8798 192.52 39.1598 194.95 39.1598H196.46V39.3098ZM202.29 50.5698C203.063 50.8001 203.864 50.9213 204.67 50.9298C207.48 50.9298 208.61 49.3198 209.61 46.7098L215.14 32.0698H211.66L208.49 41.6898H208.44L205.27 32.0698H201.48L206.48 45.9198C206.511 46.2275 206.475 46.5382 206.374 46.8305C206.273 47.1228 206.11 47.3898 205.896 47.6132C205.683 47.8365 205.423 48.0109 205.135 48.1242C204.848 48.2376 204.539 48.2872 204.23 48.2698C203.641 48.2943 203.052 48.2164 202.49 48.0398L202.26 50.5698H202.29Z" fill="white"/>
<path d="M60.34 19.4998C67.07 19.4998 70.58 16.5898 70.58 10.5698C70.58 4.54979 67.05 1.63979 60.32 1.63979H55.38V19.4998H60.34ZM59 16.6898V4.44978H60.92C61.7236 4.42978 62.5228 4.57533 63.2677 4.87738C64.0127 5.17943 64.6876 5.63153 65.2503 6.20555C65.8131 6.77957 66.2517 7.46325 66.539 8.21405C66.8262 8.96485 66.9559 9.76672 66.92 10.5698C66.9583 11.3667 66.833 12.1631 66.5517 12.9097C66.2703 13.6563 65.839 14.3373 65.2843 14.9108C64.7296 15.4842 64.0632 15.9379 63.3264 16.2439C62.5895 16.5499 61.7978 16.7016 61 16.6898H59ZM85.7 19.4998V6.31979H82.22V12.6898C82.22 15.2298 81.22 17.1398 79.22 17.1398C77.97 17.1398 76.99 16.4698 76.99 13.8398V6.31979H73.54V14.6398C73.54 17.8398 75.07 19.8098 78.02 19.8098C78.8506 19.8163 79.6718 19.6343 80.4218 19.2775C81.1718 18.9207 81.8311 18.3983 82.35 17.7498H82.4V19.5398L85.7 19.4998ZM108.52 19.4998V11.1298C108.52 7.69979 107.17 6.00979 104.38 6.00979C103.54 5.97142 102.705 6.1694 101.972 6.58125C101.238 6.9931 100.635 7.60232 100.23 8.33979C99.9157 7.59308 99.3728 6.96527 98.6792 6.54661C97.9856 6.12795 97.1771 5.94 96.37 6.00979C95.5854 6.00747 94.8129 6.20332 94.1241 6.57917C93.4353 6.95502 92.8526 7.49869 92.43 8.15979V6.31979H89.23V19.4998H92.66V13.0298C92.66 10.3698 93.43 8.67979 95.22 8.67979C96.5 8.67979 97.22 9.36979 97.22 11.2898V19.5098H100.65V13.0598C100.65 10.2998 101.47 8.67979 103.21 8.67979C104.44 8.67979 105.21 9.31979 105.21 11.2898V19.5098H108.63L108.52 19.4998ZM116.66 19.4998V8.82979H119.66V6.32978H116.66V4.68979C116.66 3.42979 117.17 2.68979 118.17 2.68979C118.699 2.68717 119.216 2.84781 119.65 3.14979L119.93 0.339785C119.125 0.13938 118.299 0.0353168 117.47 0.0297852C114.37 0.0297852 113.22 2.24978 113.22 4.47978V6.32978H110.69V8.82979H113.22V19.4998H116.66ZM125.44 19.4998V14.0798C125.44 9.97979 126.95 9.28979 128.23 9.28979C128.758 9.2667 129.284 9.36238 129.77 9.56979V6.11978C129.444 6.03366 129.107 5.9999 128.77 6.01978C127.884 6.08871 127.047 6.45045 126.39 7.04796C125.732 7.64547 125.293 8.44476 125.14 9.31979V6.31979H122.14V19.5098H125.55L125.44 19.4998ZM135.44 3.91979V0.649785H132.01V3.91979H135.44ZM135.44 19.4998V6.31979H132.01V19.4998H135.44ZM149.62 15.9698C148.311 16.7854 146.811 17.244 145.27 17.2998C144.799 17.3466 144.324 17.2961 143.873 17.1514C143.423 17.0066 143.007 16.7708 142.651 16.4585C142.296 16.1461 142.008 15.764 141.807 15.3359C141.605 14.9078 141.494 14.4428 141.48 13.9698H150.59C150.59 8.76979 148.8 5.96978 144.32 5.96978C140.12 5.96978 138.2 9.23979 138.2 12.9698C138.2 17.2998 140.73 19.7998 145.11 19.7998C146.676 19.8474 148.227 19.4855 149.61 18.7498V15.9598L149.62 15.9698ZM141.48 11.6198C141.66 9.61979 142.79 8.51979 144.48 8.51979C146.17 8.51979 147.17 9.71979 147.3 11.6198H141.48ZM152.56 19.2498C153.818 19.5973 155.115 19.7854 156.42 19.8098C159.49 19.8098 161.97 18.3998 161.97 15.5098C161.97 13.3098 160.74 12.2098 158.29 11.5098C156.73 11.0698 156.01 10.7198 156.01 9.96979C156.01 8.96979 156.86 8.50979 158.06 8.50979C159.086 8.50919 160.103 8.69907 161.06 9.06979L161.29 6.48978C160.078 6.17615 158.832 6.0116 157.58 5.99978C154.58 5.99978 152.38 7.42979 152.38 10.0898C152.38 12.2898 153.58 13.2398 155.88 13.8498C157.26 14.2298 158.34 14.5698 158.34 15.6698C158.34 16.7698 157 17.2898 156 17.2898C154.821 17.2692 153.663 16.9712 152.62 16.4198L152.41 19.2298L152.56 19.2498Z" fill="white"/>
</g>
<defs>
<clipPath id="clip0_1445_2">
<rect width="215.14" height="50.92" fill="white"/>
</clipPath>
</defs>
</svg>
