<svg fill="none" height="72" viewBox="0 0 389 72" width="389" xmlns="http://www.w3.org/2000/svg" xmlns:xlink="http://www.w3.org/1999/xlink"><clipPath id="a"><path d="m0 0h389v72h-389z"/></clipPath><mask id="b" height="1021" maskUnits="userSpaceOnUse" width="722" x="-33" y="-65"><path d="m-32.5975 955.332h721.4305v-1019.4532h-721.4305z" fill="#fff"/></mask><mask id="c" height="1021" maskUnits="userSpaceOnUse" width="722" x="-33" y="-65"><path d="m-32.5975 955.332h721.4305v-1019.4532h-721.4305z" fill="#fff"/></mask><mask id="d" height="1021" maskUnits="userSpaceOnUse" width="722" x="-33" y="-65"><path d="m-32.5975 955.332h721.4305v-1019.4532h-721.4305z" fill="#fff"/></mask><mask id="e" height="1021" maskUnits="userSpaceOnUse" width="722" x="-33" y="-65"><path d="m-32.5975 955.332h721.4305v-1019.4532h-721.4305z" fill="#fff"/></mask><g clip-path="url(#a)"><path d="m38.0428 68.2769c.7335-.5326 1.4328-1.0986 2.1329-1.7306 1.0326.1328 2.0318.1662 3.0652-.0333l.3659-.1002c.7001-.1995 1.3993-.5326 1.8989-1.0319.3668-.4666.6333-.8991.833-1.4325.2999-.7647.4336-1.597.7335-2.3634.066-.2329.1996-.4324.2999-.6653l.0994-.4992c.0334-.6662-.0334-1.2322-.2665-1.8316-.1328-.2997-.2665-.4992-.4996-.7655l-.2331-.2004-.4336-.1995c-.7326-.2663-1.5321-.1995-2.1988.2329-.0326-.0994-.066-.2329-.1328-.3331l.0668-.5652.0334-1.1328c.7995.0334 1.6659-.066 2.4319.1669.5656.2004 1.1329.4993 1.665.7322l.1337-1.8642c0-1.4985-.5998-2.9627-1.6658-3.9612v-.4332c.4002.5994.8329 1.0986 1.3659 1.5319l.8663.6987.8998-.7989c.9332-.8991 1.4328-2.0971 1.7327-3.3627.2999-.1661.5664-.399.7995-.6653.3993-.4667.5998-1.0327.7661-1.5653.0668-.399.1002-.6987.1002-1.0986-.0334-.2663-.1002-.4658-.1671-.7321l-.4661-.9325-1.9658.4333c-.0668-.2664-.0668-.5327-.0334-.7998.0668-.9317.3333-1.7982.4662-2.6965.2005-.5994.2999-1.1645.2999-1.8307l-.0669-.5994c-.1996-1.2656-.6992-2.3642-1.4319-3.3627l.9992-.2329-.0668-1.2322c-.0994-.5326-.2331-1.0652-.5665-1.531 1.2331-.1336 2.4662-.2663 3.6985-.0334l2.4988.7321-.9992-2.4635c-.5998-1.2981-1.4662-2.5637-2.6659-3.3292-.8655-.5661-1.7986-.8324-2.8312-.8992.2665-.6319.3993-1.1988.4327-1.8307-.0334-.7321-.2331-1.4317-.3667-2.1304-.6993.3656-1.4654.6987-2.1321 1.132.0669-.334.1663-.6328.2331-.9325.0669-.0668.1003-.1661.1671-.2663.7995-1.1654 1.1988-2.5638.9323-3.9955l-.0334-.2997c-.1996-.3322-.3659-.6653-.533-.9984-.1662-.3331-.2999-.7321-.1996-1.0986l-.1003-1.9977-1.8655 1.0652c-.1663.2338-.4328.3999-.6993.566-.6332.3999-1.1662.8323-1.5664 1.4651-.5664-.3999-1.2331-.6996-1.8655-.9984-.4336-.2338-.8998-.4333-1.2665-.7989l-.7661-.9659c-.4662.399-.9324.7321-1.2991 1.1654l-.2999.3656c-.1337.2338-.2331.4333-.3334.6662v7.99c.1337.1002.2999.1995.4996.2663.5005.2329 1.0326.4324 1.5665.6654.2665.1344.3659.4666.3993.7329 0 .566-.2331.8657-.7327 1.0319-.5664.1995-1.1997.0668-1.7327-.1328zm0-53.7671v-7.05839l.7335-2.43015 1.366 2.19724c.1328.19951.1996.43242.2999.63279.2665.93164.2665 1.86414-.0668 2.76321l.1662.4333c-.0668.3323-.0994.632-.1997.9317-.1662.4666-.4001.8323-.6992 1.2322-.4336.5317-.8998.965-1.4996 1.2647zm-4.9975 56.3976c1.7661-.6002 3.4319-1.4985 4.9975-2.6305v-42.1148c-.1328-.0667-.2331-.1001-.3667-.1669-.8655-.3991-1.599-1.0644-2.132-1.8642.1002-.2663.1336-.5326.1336-.8323.4662-.2997.8664-.7989 1.0995-1.2981.1328.3322.2665.5994.4661.8991l.4996.4992c.1003.0668.2005.1327.2999.1995v-7.99c-.2331.4992-.3667.9993-.4661 1.5644l-.0669.3331v.3665l.0334.3999c.0669.3323.1663.5986.3.8983l-.9666-.4659c-.3994-1.1988-1.0995-2.2306-1.3985-3.4628-.0335-.1327-.0677-.2997-.0677-.4324.1671-.0668.4002-.0334.5673-.0334.6324 0 1.1988 0 1.7986-.1661l.2665-.1002v-7.05839l-.0668.19951-.1328.23291c-.2665-.53175-.6333-.93164-1.0995-1.33067l-.7995-.53261-.7995-.53347-.2999.26717-.2005.16612c-.1663-.3331-.3334-.66619-.533-.99843-.2665-.50007-.5664-.89911-1.066-1.2322v5.79278c.0668 0 .1002 0 .1671.0334.0994-.0334.1662-.06679.2665-.06679.1662 0 .3325 0 .4996-.0334-.3.3331-.6333.63277-.9332.96587zm-12.6601-59.2276.1996.4332c.3.4659.6667.8315 1.1329 1.132-.2331.2655-.4662.5318-.7001.7647-.3325.4008-.6659.7664-1.1989.8332l-1.0325-.0334c-.2006.566-.3668 1.1645-.5005 1.7648-.0325-.334-.0994-.6328-.1996-.9325v7.424c.4327-.2663.766-.5994 1.0325-1.0652.4336.5994.9332.9984 1.5665 1.3649 0 .3331.066.566.1996.8657-.8997.566-1.7995 1.0986-2.7986 1.4651v43.4797c2.7987 1.6646 5.9967 2.6297 9.3284 2.6297 2.0326-.0334 3.8989-.3323 5.6308-.8983v-60.5258c-.0994.1002-.1663.1661-.2665.2663l-.6658-.96586.1328-.2997c.2665.03339.533.06678.7995.10018v-5.79278l-.1997-.2997-.2665-.23291c-.2665-.19952-.4996-.3665-.7995-.49922-.3667-.13358-.7335-.23376-1.0994-.39988l.1328-2.063657-1.8321 1.164547c-.2331.0334-.467.0668-.7001.13359l-.4327.2663c-.3334.2997-.5999.63279-.7327 1.06522l-1.1337.10019.0334 2.26316-.299.3331-2.1989-.36564c-.0334-.39988 0-.79891 0-1.19879l-.2999-.43329-.4002-.39902c-.2331-.19952-.4662-.29971-.7661-.39904l-.2999-.06679h-.1997c-.5338-.2997-1.0994-.36649-1.6992-.2997l-1.7661.36649v.09933l.5664.69873-.5664.66619v.86571l.9991.53261c.0334.20037.0669.36649.1003.53261l-.0334.06679-.0335.59941c.0335.69873.2006 1.33152.234 2.03025.0334.13358.066.2997.0994.46668.1337.73209.2999 1.46429.7995 2.03029zm-2.2991 3.962c-.1663-.6662-.4662-1.2647-.7327-1.8984l-1.2665.2663c-1.4319.3674-2.7653.8991-3.9307 1.7648-.2674-.5651-.5999-.9984-1.0669-1.4308-.2999-.2329-.533-.3665-.8663-.5335-.56645-.1995-1.13287-.3322-1.6993-.4658-.16624.5326-.3659 1.0661-.53214 1.6312-.33334 1.132-.50044 2.2306-.46702 3.396.03342.5327.10026 1.0319.23308 1.5311l.1671.4992c.19966.4667.39932.9.66582 1.299 0 .3331 0 .6653.03342.9659-.69924-.3006-1.39934-.4667-2.13201-.4667l-1.00002.0334c-.09941.5001-.23309.9659-.26651 1.4317-.03342.399 0 .7664.06684 1.1654-.16624.0334-.33334.0668-.49958.1327-.86634.3665-1.66585.9659-2.33253 1.6321-.23308.2663-.39932.4992-.59984.7981-.23308.3665-.39933.7664-.59899 1.1654l-1.066862 2.9636 2.732712-1.4651c.533-.1661 1.06601.0334 1.56559.2329.46616.1995.93318.4324 1.43277.6328-.36676.5326-.63326 1.132-.79951 1.7306l-.29992 1.2655.59984.1662c-.76694.7321-1.26652 1.698-1.56644 2.6964-.23308.733-.33334 1.3992-.36591 2.1647 0 .4658.03257.8991.09941 1.3649.13368 1.0319.33334 2.0311.46701 3.0296l-.73352-.5994-.66582 1.6312c-.2665.7321-.40018 1.3324-.29992 2.0979.06598.3322.16624.5985.33334.8982.29906.4333.6324.6662 1.13284.8657.16625 1.1321.66583 2.2307 1.36508 3.1298l.7001.7655c.46616-.2988.9666-.5651 1.39934-.8991.53301-.4324.93319-.8982 1.29909-1.4643l.13368-.1995.39933.1662c0 .1669 0 .2997.03342.4658l-.29992.1002c-.73267.3331-1.19884.8323-1.5656 1.4985-.46616.8657-.63326 1.7973-.7001 2.7623l-.16624 1.4985 4.13119-.7321c-.0334.6996.1671 1.3315.3334 1.9969l.1671.3331c-.6342-.3991-1.33341-.4658-2.03265-.2997-.23309.0668-.40019.167-.59985.2663l-.40018.3999c-.2665.3665-.43274.7321-.533 1.1654-.09941.4992-.09941.9325-.03342 1.4317l.06684.2997c.16624.2997.2665.5651.36676.8982.13282.3331.23308.6996.29992 1.0653.29992 1.0652.69924 2.1646 1.63243 2.83.46615.3339.93235.5334 1.46615.6996.6993.1995 1.3985.2663 2.1655.2329.4327 0 .8329-.0668 1.2656-.0994 1.0326.9985 2.1655 1.8642 3.3652 2.6297v-43.4797c-.1997.066-.4002.1327-.5999.1661-.3993.1002-.8329.1662-1.2657.1328-.467-.1995-.8329-.5326-.8997-1.0319 0-.3656.0334-.5317.3333-.7321.3334-.2004.6667-.3331 1.0326-.4658.4662-.2004.9658-.4333 1.3994-.6996zm0-12.9171h-.0669l.0669.09933zm0 1.46425-.4662.59941.4662.2663z" fill="#fff"/><path d="m39.1091 51.664c.7335 1.9977 1.4662 4.195 3.3651 5.0273l.0668-.0334.0994-2.2974c1.3668.4333 2.7653-.066 4.1313.566.1336-1.4317-.6325-3.0621-1.7319-3.7617.1663-.8323.0994-1.6655-.3333-2.5637-.2999-.5326-.8998-1.0652-1.599-1.0652-.0335.0334-.0335.1002-.0335.1669-.0334.6988-.3667 1.4643-1.1328 1.7306-.4996 0-1.0994 0-1.4996-.3665.7995-.9984 1.7327-1.8307 2.8655-2.663.7995-.4993 1.6325-1.0987 2.1989-1.6981l.1662.2663c-.299.4333-.6324.9325-.7995 1.5319-.2999.8991-.1996 1.9978.4336 2.7958.0994-.0993.1663-.0334.2331-.0334l.7995-.8314c.5999 1.1654 1.2331 2.0636 2.0652 2.7298.9332-.7989 1.4662-2.2974 1.6667-3.4953.4327-.167.7661-.4667 1.066-.8332.3659-.6653.6658-1.5645.3325-2.1972l-1.9984.3998c-1-1.4651-.233-3.2624.0335-4.927.9991-2.7633-1.1997-5.4272-2.9658-6.9248.8997.5326 1.7661.5651 2.6658.3322-.0334-1.3649-1.066-2.2298-2.1328-2.83 2.3325.101 4.665-.7321 6.9633 0-.3993-1.0652-1.0326-1.9635-1.7318-2.6965-1.2666-1.3315-3.432-1.4985-5.031-1.0977l.6658-.7664c.5664-.8323.9666-1.8975.7661-2.7966-2.5982 1.2322-3.4311 3.4294-5.9633 4.6273-.0668-.0993-.1662.1002-.1662-.0325 2.2314-1.1654 3.4979-3.962 3.9975-6.459.8329-.965 1.3325-2.4301 1.0334-3.6623-.5338-.9984-1.1328-2.0645-.5998-3.063-.4002.799-1.3334 1.0653-1.9324 1.6647-.8003.6987-.8997 1.865-.6666 2.7966-.1337.0334-.1997.0334-.2665 0-.1329-2.5637-3.2983-2.4635-4.4646-4.028-.6333.4992-1.0326 1.4977-1.1997 2.3968-.299 1.3315.9666 2.4301 1.9992 2.9627-1.0326-.3665-1.9992.4992-2.9983-.0659.0334.399.1002.7981.1662 1.2981.4002 1.3983 1.8664 1.4643 2.9984 2.0971.6666.4658.9666 1.4985.6666 2.3308-.2665.8657-1.0994 1.3649-1.9991 1.4317-2.0986.0659-3.9642-1.3658-4.8973-2.9302l-.1663-.3331c.2665-.4324.2999-.8649.0994-1.2981l.3334-.3323c.2665-.1336.4995-.2671.6666-.5001 2.0318-2.3967-1.533-5.1274-1.0994-7.7237.7995-1.0986 2.3651-.1327 3.5314-.8991.7326-.4658 1.3993-1.3315 1.4996-2.1972-.6667.2997-1.1663.6996-1.8664.8991-.7995.1002-1.7652.1661-2.4319.4658.3993-.2663.7326-.6319 1.2657-.6319 1.0994-.1011 2.6658-.4333 3.0326-1.7314.2331-.83319.2331-1.76483-.3008-2.53121-.6992 2.46441-3.2649 3.03041-4.6642 4.52891.5998-1.1988 1.6324-1.7314 2.8321-2.43015-.0334-.9325-.6324-1.93179-1.2991-2.36421.0994 2.09704-1.6992 3.16226-2.7987 4.49466-1.1328 1.531-.533 3.2958.0335 4.8603-.6333-.8991-1.0995-1.9977-1.0995-2.9962-.7001.9985-.6667 2.0971-.2999 3.1623.2665.6996.7327 1.1654 1.4653 1.299.1671.1661.5999.2997.4671.4992l-.3334-.1995-.7995.2329-.0668 1.0318c.467-.0668.8663-.2997 1.3659 0 .2999.1995.4002.6662.2665.9659-.0994.0334-.0994.1995-.2665.2663-.2999.1661-.5998.1995-.9657 0-1.6659-2.5971-2.5991-5.9597-3.2658-8.8223l1.9667-1.299-.767-1.16455-.533.33225-.1328-.1995.5656-.39991.0668-.3331c.1337-.03253.2665.06679.3668.06679l.3667-.8657.0334-.09933c.533.13272 1.0995.19951 1.5656.23291.1997-.0334.4328-.0334.6659-.0334.4336-.16612.8003-.56601.8337-1.06522-.8337.76552-1.8997.23291-2.7995.23291l-1.0994-.66619c.1336-.13272.2673-.23291.5004-.2997.2665.06679.6992.16698.7661.43329l-.0669.39902 1.4662-1.49764c-.2999-.6328-.5998-1.13201-1.1662-1.39832-.4662-1.13201-2.132-.86571-2.6316-1.79821v-.43242c-.2005.16698-.5665.16698-.8998.2663-.4996.23292-.7001.86572-.6667 1.33154l-.9323.06678.0326 1.66463-.9992 1.06521-1.2991-.19951-.1671 2.59626-.2665.23291c-.1662-.29884-.3333-.59854-.533-.89824-1.2657-1.16541-1.3993-2.46354-1.3993-4.09476-.1663-.3331-.5665-.59941-.899-.56601l.0994.56601c-.0994-.13358-.1662-.23292-.1996-.39989-.4002-.43243-.9992-.53261-1.4662-.43242l.6667.86484c0 .06679-.1337-.03253-.2999-.03253-.3668-.10019-.8664-.16698-1.066.16612l.766.39988c-.0334.16612.0669.19951.1337.36563.066.9325.4662 1.86414 1.1654 2.29742-.5998-.10018-.9323-.49921-1.0994-.99843-.066.69873.1671 1.36493.2005 2.13045.1663.73212.2331 1.56443.8321 2.09793 0 0 .0334.0993.0334.1995.2005.8314.8664 1.3315 1.5999 1.6312v.9984c-.9666.8324-1.7327 2.431-3.2992 2.2641-.1996.6662-.3659 1.3315-.1996 2.0302.1002.1336.1337.2672.1671.3674-.1671.399-.2005.7989-.2005 1.531.233 1.4317 1.2331 2.3642 2.599 2.8968-.4662.8649 0 1.3641.7001 1.5645-1.833 1.2313-4.3317 2.9961-6.6308 2.663-1.2323-.4324-1.899-1.3983-1.6985-2.5629.366-2.0979 4.031-1.2989 4.1313-3.9286l-2.2657-.6662c.9657-1.3649 1.6324-2.3642.5664-4.7943-1.9992.4332-4.1646 1.2989-5.0978 2.9627-.0669-.4658-.0994-.8982-.2665-1.3974-.4662-1.0661-.9992-1.6981-2.06606-1.931-.7995 2.2966-1.09942 4.6942.46702 6.7578-.36676 2.0979 1.13284 4.3611 2.49874 5.5933-.8663-.4992-1.3993-1.0986-1.9657-1.8307-.86638-.9993-2.43197-2.0311-3.86473-1.931-.23309.8649.03341 1.6981.3659 2.497-.56642.0325-1.06601-.0334-1.63243.2329-1.53217.7321-2.36509 1.6646-2.8981 3.1956 1.93235-1.132 3.8647 1.1655 5.69679 1.0653-.7995.6328-1.53216 1.698-1.79867 2.83 2.69844.8657 4.63074-2.097 7.16294-2.3634-.0334.1336-.2999.0668-.4995.1662-1.7327.4658-2.7653 1.8984-4.36433 2.4969-1.7661.7321-2.99921 1.7982-3.49879 3.6289-.79951 2.1313.13368 4.3945.2665 6.5258.03342.2329.10026.3656.10026.5994-.06684.1327-.13368.1995-.23308.3656-.4336.2997-.89977.1328-1.23311-.1327-.29992.7321-.56642 1.4309-.23308 2.1639.23308.4658.7995.6661 1.26567.5985 0 1.1329.46702 2.5312 1.26652 3.4294.99917-.566 1.56559-1.4317 2.13202-2.4969l1.69927.6662c.49955-1.3649-.19967-2.9962-.66669-4.195 2.09944 1.0653 3.36514 2.4302 4.53134 4.2609 0 0-.0668.0668-.1002.1336-.2331.1995-.5656.1661-.8989.1002-.8664-.3331-1.2331-1.1654-1.3994-1.9977-.0668.1669-.2339.3331-.4001.5326-.4328.6662-1.09948 1.6312-.6993 2.4635.2665.3331.7661.1995 1.0994.1995.0326.167 0 .3999-.0668.4667-.7327.1661-1.46619.1327-2.23228.4992-1.13284.5994-1.36593 2.2307-1.46619 3.3627l4.39767-.7656c-.4327.7322-.4995 1.4977-.3324 2.2307h.4327c2.1654-.4992 2.9315-2.997 3.8313-4.7944.2005.7655.3333 1.3983.5998 2.1973 2.432 5.7927 5.1638 9.9877 10.7612 12.3176 1.3334-.6319 2.6325-1.364 3.7987-2.1304 3.9641-2.5303 6.2967-7.2913 7.4629-12.185z" fill="#00669b"/><path d="m16.4203 35.9503h7.4963l.7335.6988 1.7319-.6988h12.5941v8.789h-22.5558z" fill="#fff"/><path d="m32.2463 36.7822h5.3643v7.0249h-5.3643z" fill="#00669b"/><g mask="url(#b)"><path d="m34.9113 39.0128c-.3334 0-.4662.0668-.7001.2663-.6993.4992-.533 1.8975 0 2.8625l-.6324.334c-.7001-.9325-1.2666-2.7641-.4002-3.8953.4002-.4658 1.066-.7329 1.7327-.7329.6992 0 1.3659.2671 1.7327.7329.8663 1.1312.3333 2.9628-.3668 3.8953l-.6333-.334c.533-.965.6667-2.3633 0-2.8625-.233-.1995-.3659-.2663-.7326-.2663z" fill="#fff"/></g><path d="m25.0825 36.7822h5.3309v7.0249h-5.3309z" fill="#00669b"/><path d="m27.7481 39.0128c-.3668 0-.4662.0668-.7327.2663-.6666.4992-.5004 1.8975 0 2.8625l-.6332.334c-.6993-.9325-1.2331-2.7641-.3668-3.8953.3668-.4658 1.0326-.7329 1.7327-.7329s1.3659.2671 1.7327.7329c.8663 1.1312.3325 2.9628-.3668 3.8953l-.6332-.334c.4995-.965.6666-2.3633 0-2.8625-.2665-.1995-.3659-.2663-.7327-.2663z" fill="#fff"/><path d="m39.8423 41.1104c.1996.0994.2331.066.4327.1662 1.1997.5334 2.5322.6328 3.7319.6328l-4.1646 1.8975z" fill="#fff"/><path d="m38.6428 34.5185c.8663-1.4651-.2999-3.0629-.1003-4.5614-.8329.2329-1.2656.4324-1.9992.9659-.6324.3665-.4327 1.2647-.4661 1.7982v-.1336c-.1663-.3999-.4328-.7321-.9658-.8323-.4996-.0668-.8329.2997-1.0334.6987.6667.566-.2331 1.5987-.7327 2.0645-.2665-.0667-.6667.1002-.7327-.1001.4328-.6654.899-.9651.7661-2.0971-.3667-.2997-.8663-.3999-1.2331-.2997h-.2999c-.1328-1.4642.3333-2.3967.467-3.8618l.7661-.3665c.6333 1.698 1.5656 1.3983 2.8321 2.3308.8998-.4992 2.5322-1.3649 3.5982-1.2656l.0334 3.396.0326.2997 1.3668.9993-.1337.3656c-.0334.1996.0669.5994-.1662.5994z" fill="#fff"/><path d="m40.6416 32.2878c.9992.6328 2.066 1.5644 2.7653 2.1313.533.4324.5998.6653 1.1328 1.531.9666-.2997 1.4328-.0667 2.0995.5652-.8672.4333-1.1997.9325-1.3 1.9318 0 .6328.4002 1.1988.9332 1.4317.8664.2329 1.3994-.2329 1.7987-.8323.7995-1.0661.0668-2.3634-.6324-3.3961-1.1329-1.3649-2.366-2.3967-3.7653-3.4619l-3.0318-.5335z" fill="#fff"/><path d="m7.89113 32.6875-.59984-.0334c.33334-1.3315 1.39935-2.097 2.33253-2.8626-1.49961.3991-3.2323-.3673-4.79789-1.1654-.46616-.0668-.76608-.0668-1.16626-.1002.56642-1.132 1.29994-1.7314 2.63245-1.8307.49958 0 1.23225.0659 1.66585.2655-.33334-.7656-.9666-1.6981-.89976-2.6297 3.06519.3331 3.43199 3.8618 6.76369 4.1282-1.0001-2.0971-3.8656-4.2609-3.1655-6.9908-.9666-1.0994-1.79952-2.5971-1.3325-4.0288.23308-.6662.19966-.9325.3659-1.531.8998.4992 1.1997 1.0986 1.3334 2.1972 0 .4658.1996 1.3649.3659 1.7305.0668-.7989 2.8655-3.4619 4.7644-3.4285.9332 2.2297-.6658 2.6296-1.3993 4.1615l2.599.6988c-1.1997 1.5644-3.132 1.0986-3.7319 2.8634-.233 1.1311.4671 2.6296 1.3 3.2624 1.5322.8991 2.8312.4667 4.4645-.2997l-.533 1.0653c-.0668.5-1.7661.5326-2.2331.6328-.3993.2329-.599.6987-.7327 1.0986-.0334.0668-.8329-.0334-.9331-.066-3.0644-.4007-4.0978 2.1305-7.06277 2.8626z" fill="#fff"/><path d="m26.7819 23.0655-.8664-1.0652c.8664-.1336 1.599-.2329 2.2657-.1336l.8998 1.0995c-1.4996-.1002-2.1989.1327-2.2991.0993z" fill="#fff"/><path d="m23.0503 24.0645c-.1997 0-.5999-.1662-.6993-.4325-.0668-.6662.3994-1.0986 1.2991-1.1988l1 .9993c-.6332.1327-1.1337.3656-1.5998.632z" fill="#fff"/><path d="m18.5192 34.9515c-.7326.0668-1.1662-.2329-1.4327-.7656-.4996-1.0994-.8989-3.0963.0334-4.1949.8997.566 1.1328.9316 1.7327 1.8641.3667 0 .9657-.2337 1.5321.1002-1.0325.2329-.9657 1.7306-.766 2.3634z" fill="#fff"/><path d="m15.2875 50.998c-.3993-3.6957-3.0652-5.9589-6.26323-7.5233-.13368 0-.20052 0-.2665-.0342-.10026.0667-.56642.5994-.56642.7663.76608 1.2314 1.23224 2.4636 1.1654 3.7292l-1.43276-.733c-.56557.9659-.79865 1.9309-1.59901 2.4969-.76609-.8657-.63241-1.9643-.63241-3.0295-.56642.0659-1.36678.2329-1.56644-.4333-.03342-.3322.03341-.5994.13367-.8657.49959 0 .99917.2329 1.36593-.4992l.49959-2.6631.13282-.3331c1.2331-2.5971 1.89979-.9984 3.09861-2.5303.63327-.965.36677-1.8975-.0994-2.7299-.13368-.1327-.23308-.1995-.29992-.2997l2.46537.3331c.4996-1.0652 1.1997-1.5319 2.4653-1.6646h.1671c.4328 1.3315.1329 2.2632-.5672 3.6624.5672 0 1.0994.1995 1.533.7329v.1996c-.6333.9316-1.599 1.3315-2.7319 1.0318-.1328-.0668-.2331-.1002-.3333-.1002l-2.56563.9316c2.09943.8332 4.53143 1.931 5.83043 3.6298l.0335.4984.0668 1.1654.1337 1.3324.299 1.9977c-.1662.5326-.233.4992-.4661.9316z" fill="#fff"/><path d="m15.8207 32.3214c-1.2665.6328-2.9324 1.0652-3.4988 2.3308.8672-.5335 1.533-.5669 2.366-.4667.1002.3656.1671.6328.1996.8323h1.6659c-.4662-.8323-.6993-1.7639-.7327-2.6964z" fill="#fff"/><path d="m18.9858 49.4004c-.1337.0334-.2999.0334-.4662-.1002-.2005.0334.0994.2329.1328.3331l-.1996.8323.1002.6987-.2339.167c-.3993 0-.3993-.7655-.7327-.9325-.1328-.3665-.1328-.6987-.233-1.0652-.1003-.0668-.2331-.1661-.1671-.3665.0668-.1995.1671-.2988.3333-.399.4996-.566.8329-1.4985 1.7327-1.8642 0 0 .0334-.1335.0334-.1669.0668 0 .1662-.066.2999-.066.0334-.0334.1328-.0668.1663-.1002l.233-.0667.1003-.0334c0-.0994-.0334-.5327.4002-.5327.3659 0 .4662.2664.4327.4659h.0994c.4671-.0668.9332.1669 1.3334.5.4002.3991.7995.8649 1.1663 1.3641.1662.6328.3324 1.1988.1328 1.7648-.0669.1002-.0994.1336-.0994.1336-.0669 0-.1337-.0334-.234-.1002l-.233-.8991-.0994.3331c-.3.4992-.1337.965-.2665 1.4317l-.5339.5994-.066.3331c-.0334 0-.0668.0326-.1337.0659 0 .0334.0669.0334.1003.1002l-.2665.4325h-.1337v-.6654l.7335-.965c.066-.334-.2005-.5669-.4336-.6996-.3659-.2663-.4327-.7655-.6992-.9993l.533 1.132-1 1.4985s.0334.0668.1002.0668c0 .1995-.1996.3323-.4661.4324l.7995-1.9309-.4336-.566v-1.2656h-.2665-.2331c-.0994.0334-.2999-.1661-.4328-.0993.4996.9325-.3667 1.8641-.1336 2.8634-.4996.566.1336 1.3641-.3659 1.8308l-.0669-.0334-.0668-.4993.0334-2.1638c-.0334.7321-.4336 1.4977-.3333 2.2632l-.1997.2337h-.0668z" fill="#fff"/><path d="m29.114 11.9463c-.5999-.965-2.3651-2.13131-4.031-2.43101l.0334-.46582.1328-1.63123 1.0661.13358-.0994.43243.533.19951.2665-.46582 1.1662.53261-.2673.56601.7669.46582.4328-.46582.7335.6328-.4336.43242.7326.89912.4671-.2004.233.2663z" fill="#fff"/><path d="m17.8861 36.7822h5.3643v7.0249h-5.3643z" fill="#00669b"/><g mask="url(#c)"><g fill="#fff"><path d="m20.5182 33.6528c-.1336-.4324-.1002-.965.3334-1.299.2665-.1995.2331-.0659.533-.2329-.2331-.6319-.533-1.0643-1.1329-1.0977-.3333 0-.5998.0659-.8997.0659-.1328-.2988-.4002-.5651-.6658-.8323l2.5981-1.2647 1.4328 1.9643c-.7327 1.2313-1.066 1.7648-2.1989 2.6964z"/><path d="m30.3801 24.1649-.1996.4992c-.2331.4324-.4002.9325-.7336 1.2981-.2665.3331-.6324.566-.9991.7655-.4336.2329-1.0995.1002-1.5322.2997l-.2005.5335-4.1646.7655-2.7319-.2004c.8998-1.8975 2.7653-2.3299 4.0978-3.6614 1.8329-.733 3.0986-.8323 4.9316-.9325h1.2656c.0669 0 .2331.0668.2999.1669z"/><path d="m23.3502 17.3399c.0335 0-.6666.4658-.6332.4658 1.2999.566 1.3659 1.9309.9991 3.063l.6333.2329c.533-1.8308.2005-2.6965-.9992-3.7617z"/><path d="m31.4128 5.52075h-.0668l-.8664-.566.5664-.19952c.0335 0 .1003 0 .1337.0334.1663.13272.1663.39903.1663.59854.1336-.09933.1336.06679.0668.13358z"/><path d="m41.8409 54.8604c-1.0326-.799-1.4328-2.1973-1.6659-2.9962l.3334-1.6646c.7327.0993 1.6324.4658 2.3659-.2004.2657-.2329.599-.7989.599-1.1645.9666.4658.8998 1.9643.5999 2.7966.7001.4992 1.2991 1.0318 1.4327 2.1304-1.5664-.4324-2.4653-.0334-3.5647-.4324-.0669.6653 0 .7655-.1003 1.5311z"/><path d="m19.8185 18.6379c0 .0334.8329.1335.7995.1669-.4661 1.5645.5999 2.3968 1.4328 2.7958l-.3334.7998c-.8654-.5326-1.6658-.8323-1.8989-2.1305-.1002-.3998-.1337-.9324 0-1.632z"/><path d="m30.4468 32.7545c-.4662-.2997-.0334-.9993-.3333-1.5987-1.0995-1.3307.2999-2.5963.5998-4.2609-1.1997 1.2647-1.4328 2.1638-2.5322 2.1638-.5664-.1002-.7995.1328-1.2322-.2329l-1.7327.3331c0 .399-.0335.9984-.4336 1.3983.1671 1.198.4995 1.6313.8997 2.6965l-1.2656.5651c-.1337.1345-.234.2338-.4002.3674l1.1328 1.0977 2.2323-.8314c1.1328-.1336.3993-.8666 1.7995-.566l.4996-.566.7995-.167z"/><path d="m28.2144 21.4347c-.0668-1.4317-.7661-3.1622-2.1988-3.6289-.5999-.2329-1.3326-.4324-1.6325-.9325l-.2665-.1995-.4002.3665c.8998.566 1.3994 1.9977 1.2666 3.0295-.0335.566-.1337 1.0652-.3668 1.5644l-1.4662-.4992c.2005-.8323.5664-1.8641-.1328-2.663-.2005-.1995-.4336-.3006-.6667-.4333l-1.1328.2338.1662.6987-.3659-.1995c-.2665.4658-.0994 1.1979.2331 1.698.2999.4324.9332.7321 1.3993.9984l-.4327.9985c1.066-.9317 5.2306-1.1988 5.9967-1.0319z"/><path d="m20.5849 39.0128c-.3668 0-.4996.0668-.7327.2663-.6667.4992-.5339 1.8975 0 2.8625l-.6333.334c-.7001-.9325-1.2331-2.7641-.3667-3.8953.3667-.4658 1.0326-.7329 1.7327-.7329.6667 0 1.3659.2671 1.7327.7329.8663 1.1312.2999 2.9628-.4002 3.8953l-.5999-.334c.4996-.965.6667-2.3633-.0325-2.8625-.234-.1995-.3334-.2663-.7001-.2663z"/><path d="m31.4129 23.2323-1.1329-1.3315c.8664.1327 1.833.3331 2.432.5994.8329.6987.9666 1.0986.5664 1.2981-1.4319-.4992-1.7987-.4992-1.8655-.566z"/><path d="m33.1787 49.4006c-.1337.0334-.2999.0334-.4662-.1002-.2005.0334.0994.233.1328.3331l-.1662.8324.066.6987-.2331.167c-.3659 0-.3659-.7656-.7327-.9325-.1336-.3665-.1336-.6988-.1996-1.0653-.1337-.0667-.2665-.1661-.2005-.3664.0668-.1996.2005-.2989.3333-.3991.5004-.566.8329-1.4985 1.7327-1.8641 0 0 .0334-.1336.0334-.167.0668 0 .1997-.0659.2999-.0659.0334-.0334.1329-.0668.1663-.1002l.2665-.0668.0668-.0334c0-.0993 0-.5326.3993-.5326.4002 0 .4671.2663.4671.4658h.0668c.4662-.0668.9323.167 1.3325.5001.4327.399.7995.8648 1.1663 1.3641.1662.6327.3659 1.1988.1328 1.7648-.0668.1001-.0994.1335-.0994.1335-.0668 0-.1337-.0334-.2005-.1001l-.2665-.8991-.0994.333c-.2674.4993-.1337.9651-.234 1.4318l-.5321.5994-.1003.3331c-.0334 0-.0668.0325-.1337.0659 0 .0334.0669.0334.1003.1002l-.2665.4324h-.1003v-.6653l.7001-.9651c.066-.3339-.1671-.5668-.4336-.6996-.3324-.2663-.4327-.7655-.6992-.9992l.533 1.132-1 1.4985s.0334.0668.1002.0668c0 .1995-.1996.3322-.4661.4324l.7995-1.9309-.4336-.566v-1.2656h-.2331-.2665c-.0994.0334-.2665-.1662-.4327-.0994.4995.9325-.3334 1.8642-.1337 2.8635-.4996.566.1337 1.364-.3659 1.8307l-.0669-.0334-.0668-.4992.0334-2.1639c-.0334.7322-.4336 1.4977-.2999 2.2632l-.2331.2338h-.0668z"/><path d="m27.3816 47.3695 7.8965 9.4885-.5664.8983-7.3301-8.5886zm0 16.713v-4.6282l2.665 3.1631c-.8329.5326-1.7318 1.0318-2.665 1.4651zm0-6.792 3.7645 4.528.7995-.6653-4.564-5.4272zm0-4.0614 5.6968 6.7587.5998-.733-6.2966-7.5576zm0-4.0614-7.3635 8.5886-.533-.8983 7.8965-9.4885zm0 2.5295-6.33 7.5576.5998.733 5.7302-6.7587zm0 4.0288-4.5648 5.4272.7669.6653 3.7979-4.528zm0 3.7283v4.6282c-.9657-.4333-1.8655-.9325-2.6659-1.4651z"/></g><path d="m38.3096 60.9199v-1.5653c.1328-.1661.2331-.3991.2999-.5994h-.2999v-.5318h.3993c.1003-.3673.2005-.8999.1003-1.1988-.1003-.2663-.1997-.3665-.3334-.3665-.0334-.0334-.0994-.0334-.1662 0v-.8323h.1328c.533.0326.7335.3999 1 .8323.2331.9985.0335 1.9977-.4002 2.9294-.1996.4667-.4661.8991-.7326 1.3324zm-21.7897-2.1647h.3667c-.0668.1669-.1996.4333-.3667.5994v1.6646c.3667.5326.7335 1.0327 1.0994 1.4651 2.6324 2.83 5.7311 4.4613 9.762 4.4613 4.0644 0 7.163-1.6313 9.762-4.4613.4002-.4667.7995-.9993 1.1663-1.5644v-1.5653.0668c-.1997-.1996-.3334-.4659-.4002-.6662h.4002v-.5318h-.4002c-.1662-.5001-.0994-.9325-.0334-1.2322.0668-.2663.3008-.3331.4336-.3331v-.8323c-.4662.0659-.8329.4333-1.0326.8657-.4002 1.2656-.1671 2.4636.6324 3.4294-.5664.9985-1.1654 1.7974-1.8321 2.4636-.2331-.2329-.3993-.4333-.533-.6662-.1003-.2329-.1337-.4333-.1002-.6996 0-.2329.3667-.9984.5998-1.4976.4662-1.0987 1.066-2.2307.7661-3.3627l-.9658 1.2648c.1997 1.0326-.5664 2.0311-.9332 3.0304-.3333.8982-.1328 1.6646.6667 2.3299-2.1328 1.9977-5.1312 3.2299-8.1964 3.2299s-6.0635-1.2322-8.1956-3.2299c.833-.6653 1.0326-1.4317.6993-2.3299-.3668-.9993-1.1663-1.9978-.9658-3.0304l-.9331-1.2648c-.3 1.132.2665 2.264.766 3.3627.1997.4992.5665 1.2647.5999 1.4976 0 .2663 0 .4667-.1328.6996-.1003.2329-.2674.4333-.5005.6662-.6992-.6662-1.2657-1.4651-1.8655-2.4636.8329-.9658 1.0326-2.1638.6333-3.4294-.1671-.3999-.4996-.7664-.9666-.8657v.8323c.1671.0334.2999.1002.3667.3331.1003.2997.1337.7321 0 1.2322h-.3667zm-.0335.6662c-.1328-.1996-.233-.4325-.299-.6662h.3325v-.5318h-.4328c-.1002-.3673-.2331-.8999-.1328-1.1988.0994-.2663.1997-.3665.3325-.3665.0668-.0334.1671-.0334.2331 0v-.8323h-.1997c-.533.0326-.7327.3999-.9666.8323-.2665.9985-.066 1.9977.3668 2.9294.2665.5334.533.9993.7995 1.4317v-1.6646c0 .0334-.0335.0334-.0335.0668z" fill="#00669b"/><path d="m37.0435 63.7157c.0668-.0334.1336-.0334.1996-.0334.1337 0 .2665.0668.3668.167.1337.1327.1997.2663.1662.4324 0 .1327-.0659.2663-.233.4324l-.1997.2004.4327.4658-.3993.3665-.3333-.3331v-.7655h.0334l.1002-.0668c.066-.1002.1329-.1336.1329-.1995 0-.0668-.0334-.1002-.0669-.1336-.0334-.0668-.066-.0668-.1328-.0668h-.0668zm-.8664.7989.6333-.6319c.0994-.0668.1662-.1336.2331-.167v.4658c-.0335 0-.0669.0334-.1337.1002l-.0994.1002.2331.2663v.7655z" fill="#00669b"/><path d="m40.7083 61.7515-.7326-.3657v-.6336l.0659.0342.1003-.2003s.0334-.0668.0334-.1328c.0334-.0334.0334-.0668 0-.1002 0-.0333-.0334-.0667-.0668-.0667-.0669-.0334-.0994-.0334-.1328-.0334v.0334-.5318c0-.0334.0334-.0334.0659-.0334.0669 0 .1671 0 .2674.0659.0994.0334.1662.1002.1997.167.0334.066.0668.1327.0668.2329v.1995c.0326-.0667.066-.1001.0994-.1001s.0668-.0334.1337-.0334c.066 0 .0994-.0326.1328-.0326h.5664l-.2999.566h-.5998c-.066 0-.1329 0-.1663.0326-.0334 0-.0668.0342-.1002.101v.0325l.6332.3331zm-.7326-.3657-.7996-.4333.3994-.7989c.0668-.1335.1337-.2329.1996-.2997.0669-.0668.1337-.0993.2006-.0993v.5318c-.0669 0-.1003.0667-.1337.1335l-.1328.2338.2665.0985z" fill="#00669b"/></g><path d="m37.8099 62.8171.8664-1.132.2999.2329-.5664.6996.2331.1661.4995-.6653.3.2329-.4996.6653.2665.1995.5664-.7321.2999.2329-.8997 1.1654z" fill="#00669b"/><path d="m33.8783 66.0466.5998-.3665.7995.7321-.3333-1.0318.5664-.3665.9332 1.4651-.3668.2329-.6992-1.132.4327 1.2982-.3659.2329-1-.9317.7327 1.0995-.3659.2329z" fill="#00669b"/><path d="m31.8795 66.9454 1.3325-.5326.1337.3331-.8329.3331.0994.2663.7661-.3005.1336.3331-.766.2997.1328.3331.8663-.3665.1329.3665-1.3651.566z" fill="#00669b"/><g mask="url(#d)"><path d="m29.7805 68.7099.4996-.1336c.0334.0668.0668.1336.1003.167.0668.0668.1328.0993.2665.0668.0668 0 .0994-.0334.1328-.1002.0334-.0334.0668-.0668.0668-.1336-.0334-.0334-.0334-.0659-.1002-.0993-.0326-.0334-.1329-.0334-.2991-.0334-.2339-.0334-.4002-.0668-.5339-.1336-.0994-.0659-.1662-.1661-.1996-.2989-.0334-.0667 0-.1669.0334-.2663.0334-.0676.1003-.1669.1997-.2337.0668-.0668.1996-.1002.4001-.1336.1997-.0325.3994-.0325.533.0334.1003.0334.1997.167.2665.3339l-.4995.1328c-.0335-.0668-.0669-.1328-.1003-.167-.0668 0-.1328-.0334-.1997 0-.0668 0-.1002.0342-.1336.0668-.0335.0334-.0335.0668-.0335.1002s.0335.0334.0669.0668c.0334 0 .1002.0334.2005.0334.2331 0 .3993 0 .4996.0333.1328.0326.1996.0994.2665.1662.066.0668.0994.1327.1328.2329 0 .1002 0 .2329-.0334.3331-.0669.0993-.1328.1661-.2331.2663-.0994.0659-.2331.0993-.3993.1327-.2665.0668-.5005.0334-.6333-.0334-.1337-.0993-.2331-.2329-.2665-.399z" fill="#00669b"/></g><path d="m26.0823 67.6776h.7326l.2331 1.0661.3008-1.0661.6992.0334v1.7314h-.467l.0334-1.3324-.3659 1.3324h-.4001l-.3334-1.3324v1.3324l-.4327-.0334z" fill="#00669b"/><g mask="url(#e)"><g fill="#00669b"><path d="m24.7496 67.4783.4996.1327-.2331.9993c-.0335.1001-.0669.1995-.1329.2997-.0334.0668-.1002.1327-.2005.1661-.066.0668-.1662.1002-.2331.1002-.1328 0-.233 0-.4001-.0334-.066-.0334-.1663-.0334-.2657-.1002-.0668-.0334-.1671-.0659-.2005-.0993-.0668-.0668-.1328-.1336-.1662-.1996-.0335-.1001-.0335-.1669-.0669-.2329 0-.1002.0334-.2003.0334-.3005l.2665-.9985.4996.1328-.2331 1.0318c-.0334.101-.0334.167 0 .2338.0335.0668.1003.1001.1997.1335.1003.0326.1671 0 .2331-.0334.0668-.0333.1002-.1001.1337-.1995z"/><path d="m20.9515 67.4448.4996.1336c-.0335.0993-.0335.1661-.0335.2329.0335.0659.1003.1327.2006.1661.0659.0334.1328.0334.1662.0334.0668-.0334.1003-.0668.1328-.1002 0-.0334 0-.0993-.0325-.1327 0-.0668-.1003-.1336-.2006-.1995-.1996-.1336-.3333-.2672-.3993-.3999-.0668-.1002-.0668-.2329 0-.3665.0334-.0659.066-.1327.1663-.1995.0668-.0659.1671-.0659.2665-.1002.1336 0 .2665.0343.4336.1002.1996.1002.3324.1995.4327.3331.0668.0993.1003.2663.0334.4324l-.4661-.1661c0-.0668 0-.1336-.0335-.1995-.0334-.0334-.0668-.0668-.1336-.1002-.0669-.0334-.0994-.0334-.1663-.0334-.0334.0334-.0668.0334-.0668.0668v.0993c.0334.0334.0668.0668.1662.1336.2005.1327.3334.2329.4002.3331.0668.0668.1328.1661.1328.2663 0 .066 0 .1661-.0325.2663-.0335.0994-.1003.1661-.2006.2329-.0994.066-.1996.0994-.3324.0994-.1003 0-.2665 0-.4002-.066-.2665-.1336-.4662-.2663-.4996-.3999-.0668-.1661-.1003-.2997-.0334-.4658z"/><path d="m19.8186 65.3473.4002.2663c.1328.1002.2331.167.2999.2329.066.1002.0994.167.0994.2663 0 .1002-.0334.167-.0994.2663-.0334.1002-.1002.167-.1671.2004-.1002.0334-.1662.0334-.2331.0334-.0668 0-.1328 0-.1996-.0334.0334.0334.0668.0993.0668.1327 0 0 .0326.0668.0326.1002v.1327l-.066.5669-.1337-.1002v-1.2322s.0334 0 .0334.0334h.1003c.0334-.0334.066-.0334.0994-.0668.0334-.0668.0334-.0993.0334-.1661-.0334-.0334-.0668-.0668-.1662-.1336l-.1003-.0659zm-1.2991 1.2656.9324-1.4651.3667.1995v.4333l-.1002-.0668-.1663.2997.1663.1327c.0334 0 .0668 0 .1002.0334v1.2322l-.3667-.2004.0334-.6319c.0334-.0668 0-.1336 0-.167s-.0334-.0659-.0994-.1002l-.0334-.0325-.3668.5985z"/><path d="m17.553 63.7492c.2331 0 .4327.1002.6332.2997.1997.1995.3.399.3.6328.0325.2329-.0669.4324-.2665.6328-.1671.1327-.3.2329-.4336.2988-.066 0-.1663.0334-.2331.0334v-.4992c.0668-.0334.1671-.0993.2665-.2329.1337-.0993.1996-.2004.1996-.2997s-.0334-.2004-.1328-.2663c-.0668-.1002-.1662-.1336-.2665-.1002h-.0668zm-.6333.2997c.2005-.1995.4002-.2997.6333-.2997v.4992c-.0669.0334-.1663.1002-.2665.1995-.1328.1002-.1663.2338-.1997.334 0 .0993.0334.1995.1328.2663.0669.0659.1671.0993.2665.0993h.0669v.4992c-.0669 0-.1337-.0334-.1997-.0334-.1337-.0334-.2665-.1327-.4002-.2663-.1662-.1327-.2665-.2654-.2999-.399-.0334-.1327-.066-.2997 0-.4324.0334-.167.1003-.3006.2665-.4667z"/><path d="m16.0538 61.6521.533.6653c.1002.1336.1671.2329.1996.3331.0335.1002.0335.167 0 .2663-.0325.1002-.066.167-.1662.2329-.0668.0668-.1671.1002-.2331.1002-.0668.0334-.1671 0-.2331-.0334-.0334 0-.0668 0-.1002-.0334v-.4324c.0334.0334.0668.0334.1002.0334s.066 0 .0994-.0334.0669-.0668.0669-.1327c0-.0334-.0335-.1011-.1003-.167l-.1328-.2004-.0334.0334zm-1.3994 1.0318 1.3659-1.0652.0335.0334v.6319l-.2331.1995.1328.167c0 .0334.0334.0668.1003.1002v.4324s-.0335-.0334-.0669-.0659c0 .0659.0334.1327.0334.1661 0 0 0 .0668-.0334.0993 0 .0668-.0334.1336-.0334.1336l-.2331.5326-.3667-.4992.2339-.5326c.0334-.0668.0334-.1336.0334-.1661 0-.0668 0-.1002-.0334-.1336l-.0334-.0334-.5664.4333z"/><path d="m14.9543 59.6547.4001.7989c.066.1661.0994.3331.066.4333-.066.1327-.1328.2329-.299.3322-.1337.0668-.2665.0668-.3668.0668v-.5335c.0334.0343.0668 0 .1328 0 .0334-.0325.0669-.0659.1003-.1327 0-.0334 0-.1002-.0669-.1995l-.0659-.1336-.1003.0668v-.5986zm-.1997 1.6312c-.0334-.0334-.0668-.0334-.0668-.0334-.1329-.0668-.2665-.1661-.3668-.3656l-.1328-.2672-.5664.3006-.2331-.5001 1.3659-.6654v.5986l-.2331.1002.066.1327c.0334.1002.0668.1336.1337.1661h.0334z"/><path d="m28.8144 68.7434c.1662 0 .2999-.1336.2999-.2997 0-.1336-.1337-.2663-.2999-.2663-.1671 0-.2665.1327-.2665.2663 0 .1661.0994.2997.2665.2997z"/><path d="m44.4066 63.6824c.6332-.8315.6667-2.33 1.1662-3.2959 0-.3665.0335-1.0652-.2665-1.1654-.3333-.1661-1 .0668-1.0668.5001-.2991.5985-.599 1.2647-.7987 1.9309v-1.7982c.2331-.4324.4996-.8323.8321-1.0986.4002-.2988.9666-.3665 1.4662-.0993.4996.399.6667 1.364.4996 2.0302-.7327 1.3316-.6659 3.0964-1.7653 4.195-.3333.2329-.6667.3999-1.0326.5326v-.7321c.066-.0668.1663-.0994.2331-.1661.066-.4333-.0668-.7998-.2331-1.0661v-.8649l.4328-.0668c.1337.1002.2665.1995.3333.3331.0994.2663.1663.5318.1997.8315zm-.9658-2.0303c-.1336.3323-.2005.632-.2673.9325h.2673v.8649c-.0334-.0334-.0334-.0668-.0334-.0668l-.8663.1336-.1337-.9659-.4996-.0994c-.4336.7656-1.066 1.6313-1.6658 2.3968.4661.1002 1.0325.1336 1.4996.1336.533.0334 1.0994 0 1.6992-.2997v.7321c-1.2331.4333-2.599.2329-3.7987.1002-3.0318 3.2299-7.4295 5.3261-12.2608 5.3261-4.8304 0-9.229-2.0962-12.2608-5.3261-1.1654.1327-2.5647.3331-3.7644-.1002v-.7321c.5664.2997 1.1663.3331 1.6993.2997.4661 0 1.0326-.0334 1.4662-.1336-.5665-.7655-1.2332-1.6312-1.6659-2.3968l-.5004.0994-.1329.9659-.8329-.1336c-.0334 0-.0334.0334-.0334.0668v-.8649h.2665c-.0668-.3005-.1662-.6002-.2665-.9325v-1.7982c.3333.6662.5664 1.3983.8329 1.9643l.2665-.0667c-.4661-1.3984-.9991-2.896-.1002-4.2943 1.1328-.6662 1.9992-1.4651 2.6993-2.4302.7326-.5326 1.5321-.4992 2.2991-.2003l.2656.6328c-.533-.1996-1.7652-.5327-2.0317-.1002-.6667 1.0994-1.5331 1.7648-2.5991 2.431-.6667.9984-.3667 2.0636-.1328 3.0963 2.9315 6.1259 8.7954 9.1554 14.5256 9.2214 5.7637-.066 11.5941-3.0955 14.5599-9.2214.2331-1.0327.4996-2.0979-.1337-3.0963-1.0994-.6662-1.9323-1.3316-2.5981-2.431-.2665-.4325-1.5331-.0994-2.0661.1002l.2665-.6328c.767-.2989 1.5991-.3323 2.3326.2003.6992.9651 1.5321 1.764 2.665 2.4302.9332 1.3983.4002 2.8959-.066 4.2943l.2331.0667c.2665-.566.4996-1.2981.8663-1.9643zm-32.0847-1.7982v1.7982c-.2331-.6662-.4996-1.3324-.8329-1.9309-.0334-.4333-.73269-.6662-1.03261-.5001-.29992.1002-.29992.7989-.2665 1.1654.49958.9659.49958 2.4644 1.13281 3.2959.0326-.2997.0994-.5652.2331-.8315.0669-.1336.1663-.2329.2999-.3331l.4662.0668v.8649c-.1662.2663-.3333.6328-.2331 1.0661.0669.0667.1328.0993.2331.1661v.7321c-.3668-.1327-.7327-.2997-1.066-.5326-1.09943-1.0986-1.00003-2.8634-1.7327-4.195-.16624-.6662-.03342-1.6312.46702-2.0302.49959-.2672 1.06598-.1995 1.46538.0993.3667.2663.6332.6662.8663 1.0986z"/></g><path d="m323.109 69.0193v-1.3855c.397 0 .804-.0531 1.147-.2312.407-.1122.752-.3442 1.044-.6345.225-.3442.459-.6876.576-1.0952.175-.3973.228-.8597.228-1.3229 0-.4059-.053-.8127-.171-1.2091-.119-.4076-.346-.6988-.58-.9796-.291-.2877-.573-.5224-.98-.6379-.344-.1131-.751-.1756-1.158-.1756h-.106v-1.382h.225c.633 0 1.215.0625 1.791.2346.581.1721 1.095.4598 1.558.8606.463.4058.807.8691 1.039 1.3811.229.5267.344 1.1577.344 1.8453 0 .6346-.115 1.2768-.344 1.9087-.169.572-.524 1.0943-.982 1.5567-.463.4008-1.034.751-1.678.9231-.632.2278-1.263.3434-1.953.3434zm10.673-8.872h1.031.984l-.344 5.1283v.2252c0 .5258.113.9856.281 1.2673.119.2903.408.5223.698.6345.344.1156.689.1781 1.095.1781.292 0 .517 0 .751-.0625.172-.0531.345-.1156.517-.2278.118-.0625.234-.1686.344-.232.119-.1747.234-.2903.287-.4624.064-.1721.12-.3442.176-.5155.064-.292.116-.8666.168-1.6175l.12-2.1895c.063-.6876.063-1.3847.063-2.1262h1.094.924l-.173 3.0458-.172 2.4798c0 .5789-.062.9856-.178 1.2673-.057.2338-.112.4624-.291.6405-.11.1721-.227.3443-.396.4599-.239.2286-.464.3442-.751.5189-.344.1164-.637.2252-1.044.2877-.459.119-.978.1721-1.492.1721-.582 0-1.042-.0531-1.503-.1721-.405-.0625-.808-.2338-1.158-.4068-.28-.1712-.573-.3433-.745-.578-.171-.1712-.286-.3973-.406-.6884-.119-.2903-.172-.6345-.172-.9779v-.5232c.053-.1721.053-.459.053-.7509l.062-.9214c.057-.2817.057-.6893.057-1.2048l.12-1.448zm13.666 8.6999c.053-.7501.172-1.6193.172-2.5398l.173-3.1665c.061-1.1577.061-2.1373.061-2.9936h1.269 1.151c.46.8041 1.095 1.8984 1.963 3.2839.867 1.3195 1.555 2.4772 2.075 3.3369l.231-5.9323v-.6885h.926.858l-.106 2.2948-.239 4.0443-.052 2.3608h-1.148-1.216c-.171-.3434-.35-.6311-.462-.8692-.178-.2252-.576-.804-1.159-1.7262-.343-.5789-.804-1.3298-1.384-2.1887-.399-.6945-.749-1.2673-1.038-1.7896-.056.6953-.113 2.0139-.174 3.8592-.054.751-.054 1.6758-.054 2.7145h-.923zm21.635-1.6193c-.062.5249-.175 1.0413-.237 1.5568-.46.0625-.915.119-1.32.1815-.407.0531-.752.0531-1.04.0531-.636 0-1.271-.1156-1.846-.2903-.582-.1695-1.096-.4598-1.616-.8666-.46-.3442-.803-.804-.983-1.376-.228-.5223-.344-1.1577-.344-1.7914 0-.7509.17-1.3837.407-1.9617.225-.6345.632-1.1474 1.095-1.5542.461-.3999 1.04-.6876 1.671-.9256.636-.1687 1.325-.2877 2.022-.2877.689 0 1.441.0625 2.245.2346 0 .3973.062.6354.062.8032l.053.6979c-.514-.1156-.919-.2347-1.21-.2912-.345 0-.637-.0625-.923-.0625-.464 0-.924.0625-1.323.2381-.407.1156-.813.3442-1.093.6319-.355.2877-.584.6876-.752 1.0935-.175.4641-.291.87-.291 1.3837 0 .5189.116 1.0413.345 1.4377.234.4633.578.8075 1.042 1.0952.459.2903 1.032.4059 1.727.4059.631 0 1.439-.1156 2.309-.4059zm5.54 1.6193c.107-1.4446.168-2.9388.225-4.4972.062-1.5542.119-2.7111.119-3.5708v-.6319h1.04.976c-.169 2.1895-.288 5.1283-.288 8.6999h-.977zm7.954 0c.12-1.2665.237-2.7145.29-4.2686.118-1.6098.118-3.0552.174-4.4313h1.04.976c-.054.7415-.116 1.6072-.168 2.586l-.12 2.5954c-.056.6979-.056 1.4394-.109 2.1895h1.148 2.022c.288 0 .631-.0531.976-.0531-.056.3973-.109.8572-.109 1.3821h-2.889-2.015zm-59.468-8.8814v1.382c-.635 0-1.158.119-1.558.4067-.526.2912-.87.6876-1.097 1.2143-.234.5146-.349 1.0943-.349 1.6723 0 .5728.115 1.0952.349 1.555.227.4624.571.8058 1.034 1.0318.526.2903 1.039.4059 1.558.4059h.063v1.3855h-.119c-.688 0-1.33-.1156-1.965-.2903-.633-.2252-1.149-.5129-1.608-.9205-.465-.4059-.808-.8683-.981-1.3846-.235-.5789-.29-1.1483-.29-1.7289 0-.6944.112-1.3264.343-1.9617.239-.6345.636-1.1474 1.096-1.5542.462-.3999 1.042-.6876 1.677-.9256.576-.1687 1.15-.2877 1.847-.2877zm-84.281 9.0535v-1.3855c.407 0 .804-.0531 1.211-.2312.344-.1122.688-.3442.98-.6345.288-.3442.46-.6876.632-1.0952.118-.3973.234-.8597.234-1.3229 0-.4059-.116-.8127-.234-1.2091-.11-.4076-.288-.6988-.57-.9796-.238-.2877-.582-.5224-.927-.6379-.406-.1131-.813-.1756-1.211-.1756h-.115v-1.382h.231c.636 0 1.271.0625 1.847.2346.573.1721 1.096.4598 1.558.8606.463.4058.745.8691.976 1.3811.228.5267.345 1.1577.345 1.8453 0 .6346-.052 1.2768-.287 1.9087-.226.572-.571 1.0943-1.034 1.5567-.462.4008-.985.751-1.674.9231-.636.2278-1.267.3434-1.962.3434zm10.725-8.872h.987.975l-.289 5.1283v.2252c0 .5258.064.9856.236 1.2673.172.2903.398.5223.751.6345.282.1156.636.1781 1.033.1781.291 0 .522 0 .75-.0625.236-.0531.408-.1156.517-.2278.182-.0625.289-.1686.35-.232.113-.1747.229-.2903.292-.4624.11-.1721.173-.3442.173-.5155.055-.292.118-.8666.172-1.6175l.116-2.1895c.055-.6876.055-1.3847.112-2.1262h1.039.976l-.225 3.0458-.119 2.4798c-.052.5789-.116.9856-.168 1.2673-.057.2338-.177.4624-.292.6405-.116.1721-.292.3443-.461.4599-.174.2286-.462.3442-.75.5189-.282.1164-.636.2252-.98.2877-.516.119-1.042.1721-1.556.1721-.518 0-1.042-.0531-1.502-.1721-.4-.0625-.75-.2338-1.095-.4068-.344-.1712-.634-.3433-.807-.578-.172-.1712-.288-.3973-.407-.6884-.056-.2903-.109-.6345-.109-.9779v-.5232c0-.1721 0-.459.053-.7509l.056-.9214c0-.2817 0-.6893.063-1.2048l.056-1.448c0-.3442 0-.7501.053-1.2005zm13.677 8.6999c.053-.7501.116-1.6193.172-2.5398l.119-3.1665c.054-1.1577.106-2.1373.106-2.9936h1.276 1.095c.464.8041 1.153 1.8984 2.018 3.2839.806 1.3195 1.503 2.4772 2.021 3.3369l.224-5.9323v-.6885h.927.92l-.168 2.2948-.176 4.0443-.116 2.3608h-1.095-1.211c-.229-.3434-.401-.6311-.52-.8692-.168-.2252-.513-.804-1.096-1.7262-.407-.5789-.866-1.3298-1.438-2.1887-.407-.6945-.753-1.2673-1.041-1.7896-.056.6953-.118 2.0139-.172 3.8592 0 .751-.062 1.6758-.062 2.7145h-.859zm16.32 0 .118-1.8453.17-2.8206.063-2.7145h-.461-.407-.406l-1.439.0566c0-.6346.051-1.0952.051-1.3761h3.871 2.306 1.21c-.053.5686-.053 1.0318-.053 1.3761-.813-.0566-1.502-.0566-2.253-.0566h-.46l-.119 1.1577-.173 4.4973v.7406.9848h-.978zm11.596 0c.063-.4624.115-1.0944.172-1.8453.063-.7501.119-1.3812.119-1.8445l-2.888-5.0101h1.104 1.033c.231.3973.46.9762.867 1.6638.343.6944.688 1.2758.922 1.8453l1.904-3.0587c.063-.1062.169-.2817.288-.4504h1.095 1.039l-3.519 5.1814-.055 1.6115c0 .4624-.062 1.1004-.062 1.907h-.977zm21.688-1.6193c-.108.5249-.172 1.0413-.229 1.5568-.513.0625-.975.119-1.382.1815-.408.0531-.753.0531-1.039.0531-.636 0-1.272-.1156-1.847-.2903-.573-.1695-1.096-.4598-1.559-.8666-.463-.3442-.807-.804-1.033-1.376-.171-.5223-.288-1.1577-.288-1.7914 0-.7509.117-1.3837.398-1.9617.236-.6345.579-1.1474 1.043-1.5542.513-.3999 1.038-.6876 1.671-.9256.688-.1687 1.323-.2877 2.02-.2877.689 0 1.503.0625 2.308.2346v.8032l.052.6979c-.46-.1156-.856-.2347-1.21-.2912-.291 0-.635-.0625-.924-.0625-.463 0-.86.0625-1.267.2381-.459.1156-.804.3442-1.149.6319-.29.2877-.581.6876-.751 1.0935-.174.4641-.237.87-.237 1.3837 0 .5189.118 1.0413.291 1.4377.234.4633.579.8075 1.042 1.0952.461.2903 1.096.4059 1.784.4059.638 0 1.383-.1156 2.306-.4059zm-84.271 0c-.063.5249-.176 1.0413-.238 1.5568-.513.0625-.921.119-1.321.1815-.407.0531-.752.0531-1.039.0531-.635 0-1.27-.1156-1.847-.2903-.581-.1695-1.094-.4598-1.615-.8666-.459-.3442-.813-.804-.982-1.376-.228-.5223-.345-1.1577-.345-1.7914 0-.7509.17-1.3837.408-1.9617.224-.6345.632-1.1474 1.095-1.5542.46-.3999 1.039-.6876 1.671-.9256.636-.1687 1.324-.2877 2.022-.2877.688 0 1.44.0625 2.244.2346 0 .3973.054.6354.054.8032l.061.6979c-.521-.1156-.919-.2347-1.21-.2912-.345 0-.635-.0625-.924-.0625-.463 0-.923.0625-1.329.2381-.398.1156-.806.3442-1.097.6319-.343.2877-.572.6876-.741 1.0935-.182.4641-.291.87-.291 1.3837 0 .5189.109 1.0413.344 1.4377.235.4633.517.8075 1.043 1.0952.46.2903 1.032.4059 1.726.4059.634 0 1.44-.1156 2.311-.4059zm10.265-7.2621v1.382c-.582 0-1.095.119-1.559.4067-.463.2912-.87.6876-1.094 1.2143-.236.5146-.345 1.0943-.345 1.6723 0 .5728.109 1.0952.345 1.555.224.4624.578.8058 1.094 1.0318.464.2903.977.4059 1.559.4059v1.3855h-.056c-.695 0-1.384-.1156-2.019-.2903-.636-.2252-1.158-.5129-1.618-.9205-.463-.4059-.751-.8683-.98-1.3846-.172-.5789-.291-1.1483-.291-1.7289 0-.6944.119-1.3264.345-1.9617.29-.6345.635-1.1474 1.095-1.5542.464-.3999 1.042-.6876 1.677-.9256.576-.1687 1.212-.2877 1.847-.2877z" fill="#fff"/><path d="m86.8276 32.2951c0 1.8453-.0626 3.6376-.1191 5.4203 0 1.7914-.0531 3.581-.1688 5.363 0 .5788-.0566 1.1577-.1757 1.6732 0 .5779-.1688 1.0951-.3436 1.6106-1.0395 3.0587-2.8861 5.1352-5.54 6.286-1.0951.4068-2.1903.751-3.402.9223-1.2108.1721-2.3625.2902-3.521.3442-3.9779.0625-7.9548-.3442-11.9926-1.323-.0626-1.1568-.1191-2.3676-.2374-3.6341 1.6213.5258 3.2923.9231 4.9633 1.2665 1.6718.3536 3.3488.5223 5.0764.5788 1.383.0566 2.7096-.0565 4.0969-.3442 1.3239-.2868 2.5373-.8066 3.6925-1.6201 1.3239-1.0318 2.1311-2.3573 2.479-3.9714.4036-1.6167.5759-3.1709.6916-4.666.0565-1.1568.1191-2.3702.1756-3.4645 0-1.1483.0532-2.306.1157-3.5159-.6358 1.0943-1.2117 2.0765-1.7935 2.9405-.5724.8126-1.3839 1.6167-2.4191 2.3043-1.8467 1.2733-4.0369 1.96-6.5194 2.0799-1.7867.1096-3.5177-.0625-5.2478-.5258-1.7344-.4598-3.2332-1.3195-4.5605-2.5337-1.3831-1.3821-2.3591-3.0553-2.8818-4.9537-.4611-1.9634-.6359-3.9175-.5193-5.8253.1157-1.8453.5193-3.6281 1.1542-5.4194.6324-1.7272 1.5553-3.3473 2.7696-4.7858 1.5553-1.7879 3.402-3.1075 5.5365-4.034 1.4422-.5763 2.8853-.9821 4.384-1.2099 1.4997-.2346 3.0018-.3477 4.498-.4068 1.6736 0 3.2923.1156 4.9633.2912 1.6153.1687 3.2237.4059 4.845.6944.0557.6311.0557 1.2665.1191 1.901 0 .5763.0531 1.2108.1054 1.8984-1.7832-.5155-3.6299-.9222-5.5297-1.2108-1.9058-.3434-3.7524-.3999-5.6548-.3434-2.0223.1156-3.8681.5129-5.5965 1.21-1.6736.6978-3.1723 1.8983-4.3806 3.5184-1.9066 2.5398-2.8852 5.5351-2.8295 8.9911.06 2.8308.808 5.1385 2.3034 6.9205 1.4456 1.7887 3.6402 2.6493 6.582 2.7641 2.7695.0565 5.132-.7493 6.9187-2.4764 1.8475-1.7263 3.0558-3.915 3.5811-6.5104h4.5536c-.0531.632-.0531 1.263-.1165 1.8976 0 .6353-.0557 1.2673-.0557 1.8983z" fill="#fff"/><path d="m376.929 40.5449v-2.8831c.459.0531.98.1156 1.44.1156 2.075 0 4.554-.5223 7.495-1.5019-.172.8665-.344 1.9617-.569 3.2847-1.503.4059-2.835.6414-3.931.8126-1.148.1096-2.244.1721-3.402.1721zm0-13.6038v-2.0166h7.089c0-.9856-.056-1.7297-.172-2.3059-.11-.5806-.344-1.1569-.635-1.7289-.288-.578-.69-1.0952-1.212-1.5542-.515-.4692-1.149-.7595-1.899-.9881-.69-.2321-1.503-.3442-2.31-.3442h-.861v-2.5954h.861c1.439 0 2.823.1746 4.156.6345 1.328.4067 2.422 1.0412 3.287 1.8984.867.8699 1.555 1.9078 2.014 3.1776.464 1.2631.699 2.6485.699 4.1496 0 .5789 0 1.0952-.115 1.6732zm0-11.5333v2.5954c-.642.0556-1.211.1755-1.737.3442-.807.2903-1.558.6345-2.19 1.0412-.633.4599-1.152.9788-1.612 1.6107-.407.578-.751 1.1577-.923 1.7349-.235.5171-.464 1.2673-.633 2.1903h7.095v2.0166h-7.333c-.053.8597-.053 1.5576-.053 2.0174 0 1.6732.345 3.1683 1.042 4.6128.689 1.3821 1.728 2.4139 3.111 3.1649.926.4624 2.022.8066 3.233.9256v2.8831c-1.566-.0625-3.003-.2877-4.271-.6944-1.612-.4633-2.942-1.3221-4.094-2.4798-1.159-1.1475-1.962-2.4798-2.423-4.0349-.526-1.5002-.751-3.1109-.751-4.8371 0-2.3651.461-4.5598 1.385-6.5772.869-2.073 2.246-3.6272 4.037-4.7849 1.673-1.0404 3.691-1.6107 6.117-1.7288zm-120.281 25.1371v-2.8831c.463.0531.989.1156 1.449.1156 2.075 0 4.553-.5223 7.494-1.5019-.171.8665-.344 1.9617-.578 3.2847-1.492.4059-2.825.6414-3.975.8126-1.095.1096-2.199.1721-3.348.1721zm0-13.6038v-2.0166h7.098c0-.9856-.056-1.7297-.172-2.3059-.116-.5806-.344-1.1569-.635-1.7289-.289-.578-.696-1.0952-1.212-1.5542-.516-.4692-1.148-.7595-1.899-.9881-.699-.2321-1.503-.3442-2.311-.3442h-.869v-2.5954h.869c1.441 0 2.823.1746 4.157.6345 1.321.4067 2.416 1.0412 3.287 1.8984.865.8699 1.554 1.9078 2.015 3.1776.463 1.2631.687 2.6485.687 4.1496 0 .5789-.053 1.0952-.105 1.6732zm15.062 13.0789c.572-9.1075.861-16.4253.861-21.9047v-2.1886h1.966 2.015l-.169 3.9783c.576-.9762 1.096-1.7263 1.556-2.2521.46-.5163.978-.9222 1.555-1.2664.582-.2903 1.214-.5789 1.966-.751.688-.1721 1.439-.2277 2.246-.2277.632 0 1.327.0556 1.963.2277 0 1.0413.053 2.199.171 3.5185-.976-.2877-1.845-.4007-2.652-.4007-.921 0-1.792.1755-2.541.4632-.746.2877-1.441.751-2.019 1.3821-.574.6353-1.095 1.3863-1.44 2.246-.344.7501-.579 1.6201-.751 2.7675-.173 1.0944-.292 3.1118-.398 6.0514-.063 2.1322-.063 4.4399-.063 6.8024v1.5541c-.863 0-1.558-.0539-2.074-.0539-.524 0-1.212.0539-2.192.0539zm16.034-.4598-.119-1.7297c0-.1687-.057-.8041-.226-1.7271 2.479.977 4.732 1.5027 6.804 1.5027 1.096 0 2.022-.1198 2.71-.4075.752-.2878 1.328-.6311 1.734-1.2134.344-.5694.52-1.1483.52-1.7819 0-.2886 0-.632-.119-.9831-.109-.3433-.288-.6345-.464-.9787-.224-.2903-.513-.6345-.919-1.0412-.4-.3443-1.271-1.031-2.536-2.0697-1.27-1.0387-2.252-1.8453-2.941-2.4241-.635-.5729-1.214-1.21-1.677-1.782-.461-.6353-.805-1.2673-1.04-1.8461-.226-.6345-.344-1.2656-.344-1.9078 0-1.0319.344-2.0166.986-2.9388.635-.9787 1.555-1.674 2.764-2.1356 1.21-.4607 2.66-.6884 4.325-.6884 1.789 0 3.811.1746 6.002.6345.063 1.2108.169 2.3616.231 3.3994-1.789-.7509-3.516-1.0943-5.247-1.0943-.923 0-1.794.119-2.598.3434-.804.2911-1.387.6447-1.793 1.1577-.345.4632-.57.9778-.57 1.6132 0 .3511.056.7501.225 1.0943.119.3503.345.6953.635 1.1012.355.4008.753.8075 1.212 1.204.464.4067 1.386 1.1577 2.772 2.2529 1.385 1.0934 2.307 1.8975 2.824 2.4224.525.5163.923 1.0952 1.331 1.6107.344.5788.634 1.1474.75 1.6732.172.5788.291 1.0943.291 1.6731 0 1.1483-.354 2.1896-.989 3.0493-.689.9856-1.671 1.7357-2.994 2.252-1.269.5164-2.772.7501-4.391.7501-.69 0-1.441 0-2.418-.119-.922-.1147-1.674-.1687-2.309-.2877-.695-.1182-1.44-.3434-2.422-.578zm20.655.4598.576-10.3114.574-14.1262.17-8.07475 2.136.05994c.582 0 1.27 0 2.138-.05994l-.523 8.29995-.176 4.9665c.354-.6979.699-1.2699.988-1.6766.29-.4067.634-.8032 1.034-1.2091.461-.4076.92-.7518 1.384-1.0421.462-.2885 1.038-.5129 1.621-.7501.575-.226 1.263-.3982 2.134-.5138.808-.1746 1.674-.2277 2.592-.2277 1.326 0 2.66.1712 3.861.4529 1.214.2886 2.31.8135 3.18 1.5011.859.6945 1.502 1.5576 1.846 2.5398.288.9256.46 1.9009.46 2.9396v1.5576c-.062.9753-.116 2.133-.235 3.4551l-.4 8.7667c-.062.9188-.062 2.0696-.062 3.4525-.92 0-1.671-.0539-2.129-.0539-.576 0-1.326.0539-2.306.0539.227-1.7263.398-4.3217.635-8.0063.225-3.6906.345-6.286.345-7.7245 0-1.2725-.237-2.3043-.689-3.1186-.469-.8589-1.213-1.4908-2.309-1.9541-1.039-.4632-2.255-.6405-3.523-.6405-1.21 0-2.305.1773-3.348.5215-.923.3442-1.73.8075-2.418 1.4386-.639.5822-1.212 1.3323-1.556 2.1981-.47.923-.751 1.8992-.929 2.8248-.282 1.5551-.458 3.6273-.573 6.2766-.063 1.6167-.172 4.3876-.292 8.1844-.866 0-1.554-.0539-1.962-.0539-.397 0-1.147.0539-2.244.0539zm30.803-29.2816c.056-1.50105.056-2.65532.056-3.40629.867.06337 1.672.06337 2.306.06337.868 0 1.613 0 2.307-.06337-.054.52576-.054 1.62096-.169 3.40629-.807-.0599-1.559-.0599-2.191-.0599-.636 0-1.386 0-2.309.0599zm-1.096 29.2816.401-5.9332.46-10.2575.235-7.9026h2.19 2.134c-.168 2.4772-.349 5.0726-.521 7.787-.11 2.7025-.229 5.6413-.291 8.872-.107 3.2308-.17 5.6515-.17 7.4343-.98 0-1.731-.0539-2.127-.0539-.407 0-1.159.0539-2.311.0539zm10.844 0c.573-9.1075.862-16.4253.862-21.9047l-.057-2.1886h2.021 2.015l-.168 3.9783c.576-.9762 1.096-1.7263 1.556-2.2521.459-.5163.978-.9222 1.554-1.2664.583-.2903 1.215-.5789 1.903-.751.753-.1721 1.503-.2277 2.311-.2277.632 0 1.326.0556 1.962.2277 0 1.0413.053 2.199.172 3.5185-.977-.2877-1.904-.4007-2.655-.4007-.92 0-1.79.1755-2.534.4632-.751.2877-1.445.751-2.024 1.3821-.574.6353-1.086 1.3863-1.441 2.246-.344.7501-.579 1.6201-.75 2.7675-.173 1.0944-.282 3.1118-.398 6.0514-.063 2.1322-.119 4.4399-.119 6.8024v1.5541c-.807 0-1.502-.0539-2.072-.0539-.464 0-1.159.0539-2.138.0539zm-92.302-24.6122v2.5954c-.632.0556-1.203.1755-1.729.3442-.807.2903-1.558.6345-2.189 1.0412-.633.4599-1.159.9788-1.621 1.6107-.398.578-.742 1.1577-.976 1.7349-.173.5171-.401 1.2673-.634 2.1903h7.149v2.0166h-7.323c-.053.8597-.053 1.5576-.053 2.0174 0 1.6732.344 3.1683 1.032 4.6128.698 1.3821 1.737 2.4139 3.114 3.1649.923.4624 2.027.8066 3.23.9256v2.8831c-1.556-.0625-2.994-.2877-4.325-.6944-1.559-.4633-2.943-1.3221-4.038-2.4798-1.152-1.1475-1.956-2.4798-2.416-4.0349-.525-1.5002-.751-3.1109-.751-4.8371 0-2.3651.46-4.5598 1.321-6.5772.922-2.073 2.31-3.6272 4.101-4.7849 1.673-1.0404 3.692-1.6107 6.108-1.7288zm-61.081 25.1371v-2.8831c.46.0531.979.1156 1.492.1156 2.023 0 4.563-.5223 7.505-1.5019-.235.8665-.406 1.9617-.579 3.2847-1.554.4059-2.889.6414-3.984.8126-1.148.1096-2.244.1721-3.339.1721zm0-13.6038v-2.0166h7.089c0-.9856-.058-1.7297-.172-2.3059-.116-.5806-.292-1.1569-.636-1.7289-.287-.578-.688-1.0952-1.211-1.5542-.517-.4692-1.149-.7595-1.837-.9881-.751-.2321-1.502-.3442-2.373-.3442h-.86v-2.5954h.86c1.44 0 2.823.1746 4.156.6345 1.321.4067 2.423 1.0412 3.286 1.8984.868.8699 1.556 1.9078 2.016 3.1776.526 1.2631.751 2.6485.751 4.1496 0 .5789-.054 1.0952-.169 1.6732zm14.011 12.6191-.169-1.7297c0-.1687 0-.8041-.175-1.7271 2.482.977 4.734 1.5027 6.81 1.5027 1.096 0 2.016-.1198 2.705-.4075.75-.2878 1.332-.6311 1.739-1.2134.344-.5694.514-1.1483.514-1.7819 0-.2886 0-.632-.117-.9831-.116-.3433-.29-.6345-.459-.9787-.23-.2903-.519-.6345-.927-1.0412-.397-.3443-1.263-1.031-2.534-2.0697-1.265-1.0387-2.255-1.8453-2.942-2.4241-.633-.5729-1.212-1.21-1.672-1.782-.464-.6353-.807-1.2673-1.043-1.8461-.227-.6345-.344-1.2656-.344-1.9078 0-1.0319.344-2.0166.98-2.9388.638-.9787 1.555-1.674 2.766-2.1356 1.215-.4607 2.655-.6884 4.328-.6884 1.794 0 3.81.1746 6.001.6345.056 1.2108.175 2.3616.228 3.3994-1.785-.7509-3.515-1.0943-5.242-1.0943-.923 0-1.847.119-2.598.3434-.807.2911-1.44.6447-1.79 1.1577-.401.4632-.582.9778-.582 1.6132 0 .3511.063.7501.181 1.0943.173.3503.401.6953.689 1.1012.345.4008.751.8075 1.215 1.204.46.4067 1.383 1.1577 2.767 2.2529 1.386 1.0934 2.309 1.8975 2.826 2.4224.458.5163.922 1.0952 1.266 1.6107.407.5788.633 1.1474.807 1.6732.179.5788.289 1.0943.289 1.6731 0 1.1483-.344 2.1896-1.033 3.0493-.632.9856-1.622 1.7357-2.942 2.252-1.277.5164-2.77.7501-4.387.7501-.689 0-1.497 0-2.42-.119-.923-.1147-1.674-.1687-2.306-.2877-.699-.1182-1.439-.3434-2.429-.578zm32.714-2.6494c-.178.751-.353 1.7888-.522 3.0553-1.096.2911-1.966.4598-2.598.5163-.635.0625-1.271.0625-1.846.0625-1.387 0-2.536-.1721-3.405-.5249-.862-.3442-1.497-.9196-2.019-1.7263-.46-.7509-.688-1.7827-.688-3.1648 0-.1199.053-.4632.053-.9256 0-.4076.118-1.9618.237-4.6094l.571-10.7276h-3.168c.053-.6345.115-1.6132.169-2.824h3.233c.115-.9223.173-2.4242.228-4.5563 1.503-.2912 2.767-.5763 3.809-.8666-.116 2.3668-.172 4.1564-.172 5.4229h6.635c-.12.9787-.12 1.9609-.173 2.824h-6.581l-.631 13.4283-.058 1.0412c0 1.1577.119 2.0175.401 2.5963.288.5789.633.9787 1.158 1.2099.578.2287 1.096.4008 1.674.4008.398 0 .804-.0565 1.268-.1088.462-.0633 1.267-.2354 2.425-.5232zm-46.725-21.503v2.5954c-.522.0556-1.096.1755-1.674.3442-.808.2903-1.56.6345-2.191 1.0412-.579.4599-1.159.9788-1.559 1.6107-.46.578-.814 1.1577-.983 1.7349-.229.5171-.462 1.2673-.635 2.1903h7.042v2.0166h-7.215c-.118.8597-.118 1.5576-.118 2.0174 0 1.6732.344 3.1683 1.042 4.6128.689 1.3821 1.731 2.4139 3.115 3.1649.976.4624 2.018.8066 3.176.9256v2.8831c-1.503-.0625-2.942-.2877-4.216-.6944-1.615-.4633-2.941-1.3221-4.093-2.4798-1.096-1.1475-1.903-2.4798-2.426-4.0349-.516-1.5002-.751-3.1109-.751-4.8371 0-2.3651.46-4.5598 1.387-6.5772.866-2.073 2.253-3.6272 4.099-4.7849 1.609-1.0404 3.63-1.6107 6-1.7288zm-80.009 25.1371v-2.9388c1.095-.0633 2.071-.2354 3.113-.6328 1.033-.3527 1.956-.9881 2.77-1.9078.808-.9787 1.378-2.1261 1.785-3.4585.343-1.3821.515-2.8206.515-4.3217 0-1.382-.172-2.7144-.515-3.9158-.407-1.2125-.977-2.1989-1.785-2.9396-.751-.7501-1.674-1.2759-2.659-1.5636-.977-.2903-2.019-.4624-3.053-.4624h-.171v-2.9961h.282c1.673 0 3.292.2277 4.787.6884 1.503.4616 2.833 1.2125 3.928 2.2512 1.096 1.0412 1.957 2.3702 2.535 3.9278.58 1.5541.867 3.2213.867 5.0101 0 1.8453-.35 3.6898-.92 5.4169-.635 1.7288-1.503 3.1768-2.597 4.3242-1.095 1.2108-2.483 2.1365-4.038 2.7119-1.559.5189-3.179.8066-4.844.8066zm39.739-.5249c-.744 0-1.439-.0539-2.021-.0539-.632 0-1.265.0539-1.953.0539l.106-4.5477c-.344.7509-.688 1.2639-.976 1.6081-.288.4059-.632.8126-1.039 1.1568-.401.3434-.864.6876-1.271.9257-.46.2877-.976.5129-1.555.6876-.579.2312-1.268.3511-2.075.5223-.751.1096-1.618.1721-2.479.1721-1.965 0-3.636-.2877-5.022-.8691-1.387-.5754-2.42-1.4386-3.115-2.4772-.688-1.0379-1.039-2.5329-1.039-4.3782 0-.2878 0-.8067.063-1.5011 0-.632.053-1.5576.106-2.6519l.407-7.9498.063-2.5389c0-.5823.056-1.3324.056-2.252h2.19 2.019c-.228 2.7641-.407 5.8227-.635 9.1066-.169 3.3464-.288 5.4794-.288 6.405 0 1.3821.235 2.4764.695 3.337.463.8134 1.208 1.4479 2.247 1.9078 1.095.3973 2.253.6336 3.637.6336 1.151 0 2.302-.1747 3.342-.5805.923-.3443 1.728-.8572 2.363-1.4395.698-.6936 1.274-1.6158 1.737-2.6476.344-.8135.569-1.8453.751-3.1126.109-.8691.225-2.5389.344-4.9031.109-2.8206.226-5.7671.226-8.7067h2.253 2.022c-.237 2.8839-.526 7.2056-.808 13.0318-.182 3.2299-.288 6.9205-.351 11.0615zm24.231-3.5724c-.057.2886-.119.6944-.288 1.3829-.12.6979-.229 1.3855-.345 2.02-1.157.2877-2.253.4607-3.349.5754-1.032.0565-2.021.119-2.826.119-1.731 0-3.286-.2337-4.735-.6944-1.493-.4633-2.766-1.2134-3.8-2.2444-1.095-1.0386-1.908-2.3094-2.427-3.9252-.514-1.5541-.752-3.1682-.752-4.8945 0-2.3702.406-4.5597 1.214-6.6928.87-2.0705 2.191-3.7462 3.928-4.9031 1.784-1.2013 4.21-1.7827 7.324-1.7827 2.243 0 4.444.2902 6.572.8691.116 1.376.172 2.4764.291 3.3395-1.502-.4624-2.773-.8058-3.693-.9787-.98-.1713-1.846-.2338-2.653-.2338-1.441 0-2.655.2338-3.75.7501-1.158.5258-2.072 1.2759-2.886 2.1955-.751.9257-1.321 2.074-1.674 3.3396-.344 1.2673-.517 2.5962-.517 3.9252 0 1.7819.288 3.3994.87 4.7215.57 1.3864 1.494 2.425 2.942 3.1752 1.384.631 2.943 1.0318 4.67 1.0318 1.674 0 3.637-.4008 5.884-1.0952zm-86.6442 3.5724c.3436-4.838.635-10.6017.9229-17.3484.2348-4.8996.3436-9.9132.4627-15.16395l2.1911.05994c.4602 0 1.2109 0 2.1346-.05994l-.7515 14.01745-.5158 14.1732-.0634 4.3217c-.9786 0-1.6676-.0539-2.1278-.0539-.1782 0-.9237.0539-2.2528.0539zm22.6742-24.6122v2.9961c-1.565.0625-3.005.4624-4.273 1.2125-1.385.8135-2.362 2.014-2.995 3.6906-.697 1.6175-.989 3.3995-.989 5.3073 0 1.6663.239 3.2213.808 4.5503.526 1.3289 1.383 2.4241 2.66 3.283 1.268.751 2.77 1.1585 4.5 1.1585h.289v2.9388h-.351c-1.668 0-3.286-.2337-4.788-.7501-1.496-.5163-2.826-1.3289-3.921-2.3608-1.096-1.0421-1.963-2.3685-2.536-3.9252-.578-1.5576-.867-3.2282-.867-4.957 0-2.5954.513-4.8946 1.556-6.9745 1.095-2.0731 2.597-3.6366 4.672-4.6685 1.909-.9821 3.981-1.501 6.235-1.501z" fill="#fff"/></g><g fill="#fff"><path d="m92.5923 52.4761h2.9418v-6.5763h-2.9418z"/><path d="m98.4758 52.4761h3.0042v-6.5763h-3.0042z"/><path d="m110.306 45.8998h-5.884v6.5763h5.884z"/><path d="m119.188 52.4761h-5.941v-6.5763h5.941z"/><path d="m131.012 52.4761h-8.882v-6.5763h8.882z"/><path d="m133.954 52.4761h8.888v-6.5763h-8.888z"/><path d="m157.604 45.8998h-11.82v6.5763h11.82z"/><path d="m172.376 52.4761h-11.83v-6.5763h11.83z"/><path d="m190.08 52.4761h-14.762v-6.5763h14.762z"/><path d="m207.795 52.4761h-14.71v-6.5763h14.71z"/><path d="m228.445 45.8998h-17.708v6.5763h17.708z"/><path d="m249.156 52.4761h-17.77v-6.5763h17.77z"/><path d="m272.806 52.4761h-20.709v-6.5763h20.709z"/><path d="m296.394 52.4761h-20.647v-6.5763h20.647z"/><path d="m328.93 45.8998h-29.532v6.5763h29.532z"/><path d="m387.999 45.8998h-56.121v6.5763h56.121z"/></g></g></svg>