<svg width="77" height="20" viewBox="0 0 77 20" fill="none" xmlns="http://www.w3.org/2000/svg">
<path d="M70.5933 10.7799C70.5933 10.2439 70.7173 9.76392 70.9653 9.33992C71.2213 8.91592 71.5773 8.58392 72.0333 8.34392C72.4893 8.09592 73.0133 7.97192 73.6053 7.97192C74.2053 7.97192 74.7253 8.09592 75.1653 8.34392C75.6053 8.58392 75.9413 8.91592 76.1733 9.33992C76.4133 9.76392 76.5333 10.2439 76.5333 10.7799C76.5333 11.3159 76.4133 11.7999 76.1733 12.2319C75.9413 12.6559 75.6053 12.9919 75.1653 13.2399C74.7253 13.4879 74.1973 13.6119 73.5813 13.6119C73.0053 13.6119 72.4893 13.4999 72.0333 13.2759C71.5853 13.0519 71.2333 12.7279 70.9773 12.3039C70.7213 11.8799 70.5933 11.3719 70.5933 10.7799ZM72.2853 10.7919C72.2853 11.0639 72.3413 11.3119 72.4533 11.5359C72.5653 11.7519 72.7173 11.9239 72.9093 12.0519C73.1013 12.1799 73.3173 12.2439 73.5573 12.2439C73.8213 12.2439 74.0493 12.1799 74.2413 12.0519C74.4333 11.9239 74.5813 11.7519 74.6853 11.5359C74.7893 11.3119 74.8413 11.0639 74.8413 10.7919C74.8413 10.5119 74.7893 10.2639 74.6853 10.0479C74.5813 9.83192 74.4333 9.65992 74.2413 9.53192C74.0493 9.40392 73.8213 9.33992 73.5573 9.33992C73.3173 9.33992 73.1013 9.40392 72.9093 9.53192C72.7173 9.65992 72.5653 9.83192 72.4533 10.0479C72.3413 10.2639 72.2853 10.5119 72.2853 10.7919Z" fill="#2B2ED8"/>
<path d="M66.1196 16.108C65.6476 16.108 65.2476 16.052 64.9196 15.94C64.5996 15.828 64.3276 15.692 64.1036 15.532C63.8796 15.372 63.6796 15.22 63.5036 15.076L64.4876 13.924C64.6716 14.092 64.8836 14.252 65.1236 14.404C65.3716 14.564 65.6956 14.644 66.0956 14.644C66.3596 14.644 66.6036 14.596 66.8276 14.5C67.0596 14.412 67.2436 14.28 67.3796 14.104C67.5236 13.928 67.5956 13.708 67.5956 13.444V12.292L67.6556 12.592C67.5276 12.864 67.2956 13.104 66.9596 13.312C66.6236 13.512 66.1836 13.612 65.6396 13.612C65.1676 13.612 64.7276 13.492 64.3196 13.252C63.9196 13.004 63.5996 12.672 63.3596 12.256C63.1196 11.832 62.9996 11.352 62.9996 10.816C62.9996 10.264 63.1276 9.77596 63.3836 9.35196C63.6396 8.91996 63.9716 8.57996 64.3796 8.33196C64.7876 8.08396 65.2196 7.95996 65.6756 7.95996C66.1316 7.95996 66.5236 8.02796 66.8516 8.16396C67.1876 8.29196 67.4396 8.45196 67.6076 8.64396L67.5476 8.79996L67.7276 8.22396H69.2756V13.468C69.2756 13.98 69.1316 14.432 68.8436 14.824C68.5556 15.224 68.1716 15.536 67.6916 15.76C67.2196 15.992 66.6956 16.108 66.1196 16.108ZM64.6916 10.768C64.6916 11.048 64.7556 11.3 64.8836 11.524C65.0116 11.748 65.1836 11.924 65.3996 12.052C65.6236 12.18 65.8716 12.244 66.1436 12.244C66.3756 12.244 66.5796 12.216 66.7556 12.16C66.9396 12.096 67.0996 12.008 67.2356 11.896C67.3796 11.776 67.4996 11.628 67.5956 11.452V10.168C67.5236 9.99196 67.4156 9.84396 67.2716 9.72396C67.1276 9.59596 66.9596 9.49996 66.7676 9.43596C66.5836 9.36396 66.3756 9.32796 66.1436 9.32796C65.8716 9.32796 65.6236 9.39196 65.3996 9.51996C65.1836 9.63996 65.0116 9.80796 64.8836 10.024C64.7556 10.24 64.6916 10.488 64.6916 10.768Z" fill="#2B2ED8"/>
<path d="M56.1441 10.7799C56.1441 10.2439 56.2681 9.76392 56.5161 9.33992C56.7721 8.91592 57.1281 8.58392 57.5841 8.34392C58.0401 8.09592 58.5641 7.97192 59.1561 7.97192C59.7561 7.97192 60.2761 8.09592 60.7161 8.34392C61.1561 8.58392 61.4921 8.91592 61.7241 9.33992C61.9641 9.76392 62.0841 10.2439 62.0841 10.7799C62.0841 11.3159 61.9641 11.7999 61.7241 12.2319C61.4921 12.6559 61.1561 12.9919 60.7161 13.2399C60.2761 13.4879 59.7481 13.6119 59.1321 13.6119C58.5561 13.6119 58.0401 13.4999 57.5841 13.2759C57.1361 13.0519 56.7841 12.7279 56.5281 12.3039C56.2721 11.8799 56.1441 11.3719 56.1441 10.7799ZM57.8361 10.7919C57.8361 11.0639 57.8921 11.3119 58.0041 11.5359C58.1161 11.7519 58.2681 11.9239 58.4601 12.0519C58.6521 12.1799 58.8681 12.2439 59.1081 12.2439C59.3721 12.2439 59.6001 12.1799 59.7921 12.0519C59.9841 11.9239 60.1321 11.7519 60.2361 11.5359C60.3401 11.3119 60.3921 11.0639 60.3921 10.7919C60.3921 10.5119 60.3401 10.2639 60.2361 10.0479C60.1321 9.83192 59.9841 9.65992 59.7921 9.53192C59.6001 9.40392 59.3721 9.33992 59.1081 9.33992C58.8681 9.33992 58.6521 9.40392 58.4601 9.53192C58.2681 9.65992 58.1161 9.83192 58.0041 10.0479C57.8921 10.2639 57.8361 10.5119 57.8361 10.7919Z" fill="#2B2ED8"/>
<path d="M49.1406 4.63599H50.8806V11.788H55.0326V13.468H49.1406V4.63599Z" fill="#2B2ED8"/>
<path d="M44.8118 13.6119C44.1718 13.6119 43.6278 13.4919 43.1798 13.2519C42.7398 13.0119 42.4038 12.6799 42.1718 12.2559C41.9398 11.8319 41.8238 11.3439 41.8238 10.7919C41.8238 10.2639 41.9598 9.78792 42.2318 9.36392C42.5038 8.93992 42.8678 8.60392 43.3238 8.35592C43.7798 8.09992 44.2878 7.97192 44.8478 7.97192C45.5998 7.97192 46.2158 8.19192 46.6958 8.63192C47.1838 9.06392 47.4998 9.69192 47.6438 10.5159L43.5638 11.8119L43.1918 10.8999L46.1438 9.90392L45.7958 10.0599C45.7318 9.85192 45.6158 9.67192 45.4478 9.51992C45.2878 9.35992 45.0438 9.27992 44.7158 9.27992C44.4678 9.27992 44.2478 9.33992 44.0558 9.45992C43.8718 9.57192 43.7278 9.73592 43.6238 9.95192C43.5278 10.1599 43.4798 10.4079 43.4798 10.6959C43.4798 11.0239 43.5398 11.2999 43.6598 11.5239C43.7798 11.7399 43.9438 11.9039 44.1518 12.0159C44.3598 12.1279 44.5918 12.1839 44.8478 12.1839C45.0318 12.1839 45.2078 12.1519 45.3758 12.0879C45.5518 12.0239 45.7238 11.9399 45.8918 11.8359L46.6358 13.0839C46.3558 13.2439 46.0518 13.3719 45.7238 13.4679C45.4038 13.5639 45.0998 13.6119 44.8118 13.6119Z" fill="#2B2ED8"/>
<path d="M35.8099 13.468V4H37.4899V13.468H35.8099ZM38.8219 9.904L41.1979 13.468H39.2419L37.7179 10.864L38.8219 9.904ZM36.9859 12.016L36.8179 10.42L39.9859 8.092L41.0059 8.992L36.9859 12.016Z" fill="#2B2ED8"/>
<path d="M30.6468 13.612C30.1588 13.612 29.7148 13.516 29.3148 13.324C28.9228 13.124 28.6108 12.82 28.3788 12.412C28.1468 12.004 28.0308 11.484 28.0308 10.852C28.0308 10.26 28.1508 9.74796 28.3908 9.31596C28.6308 8.88396 28.9468 8.55196 29.3388 8.31996C29.7308 8.07996 30.1468 7.95996 30.5868 7.95996C31.1068 7.95996 31.4988 8.04796 31.7628 8.22396C32.0348 8.39196 32.2588 8.57996 32.4348 8.78796L32.3628 8.99196L32.5188 8.22396H34.0788V13.468H32.3988V12.328L32.5308 12.688C32.5148 12.688 32.4668 12.736 32.3868 12.832C32.3068 12.92 32.1868 13.028 32.0268 13.156C31.8748 13.276 31.6828 13.38 31.4508 13.468C31.2268 13.564 30.9588 13.612 30.6468 13.612ZM31.1268 12.244C31.3268 12.244 31.5068 12.216 31.6668 12.16C31.8268 12.096 31.9668 12.008 32.0868 11.896C32.2068 11.776 32.3108 11.628 32.3988 11.452V10.168C32.3348 9.99196 32.2388 9.84396 32.1108 9.72396C31.9828 9.59596 31.8308 9.49996 31.6548 9.43596C31.4788 9.36396 31.2828 9.32796 31.0668 9.32796C30.8268 9.32796 30.6028 9.39196 30.3948 9.51996C30.1948 9.63996 30.0348 9.80796 29.9148 10.024C29.7948 10.24 29.7348 10.488 29.7348 10.768C29.7348 11.048 29.7988 11.3 29.9268 11.524C30.0548 11.748 30.2228 11.924 30.4308 12.052C30.6468 12.18 30.8788 12.244 31.1268 12.244Z" fill="#2B2ED8"/>
<path d="M22 4.63599H27.52V6.31599H23.74V8.31999H27.016V9.99999H23.74V13.468H22V4.63599Z" fill="#2B2ED8"/>
<g clip-path="url(#clip0_1297_23)">
<path d="M13.5 7C11.5 7 11 9 11 9H16C16 9 15.499 7 13.5 7Z" fill="#2B2ED8"/>
<path d="M10 0C4.486 0 0 4.486 0 10C0 15.514 4.486 20 10 20C15.514 20 20 15.514 20 10C20 4.486 15.514 0 10 0ZM8 16V13H12V16C12 17.103 11.103 18 10 18C8.897 18 8 17.103 8 16ZM13.856 17.005C13.941 16.682 14 16.349 14 16V14.501C15.589 13.028 16 11 16 11H4C4 11 4.412 13.028 6 14.501V16C6 16.349 6.059 16.682 6.144 17.005C4.88968 16.315 3.8435 15.301 3.1146 14.0689C2.3857 12.8367 2.00078 11.4316 2 10C2 5.589 5.589 2 10 2C14.411 2 18 5.589 18 10C17.9992 11.4316 17.6143 12.8367 16.8854 14.0689C16.1565 15.301 15.1103 16.315 13.856 17.005Z" fill="#2B2ED8"/>
<path d="M6.5 9C7.32843 9 8 8.32843 8 7.5C8 6.67157 7.32843 6 6.5 6C5.67157 6 5 6.67157 5 7.5C5 8.32843 5.67157 9 6.5 9Z" fill="#2B2ED8"/>
</g>
<defs>
<clipPath id="clip0_1297_23">
<rect width="20" height="20" fill="white"/>
</clipPath>
</defs>
</svg>
