<svg width="170" height="32" viewBox="0 0 170 32" xmlns="http://www.w3.org/2000/svg" xmlns:xlink="http://www.w3.org/1999/xlink"><title>site-logo-mobile</title><defs><path d="M.435 3.77c4.492-4.353 19.254-5.66 25.244 0 1.71 10.45-3.638 20.682-12.41 26.56C4.287 24.888-1.704 14.22.436 3.77z" id="a"/></defs><g fill="none" fill-rule="evenodd"><path d="M51.125 24.35h3.06V7.594h-3.178L45.64 18.156 40.225 7.593H37V24.35h3.037V13.244l4.355 8.71h2.472l4.26-8.616V24.35zm9.134-12.318h-3.25v12.32h3.25V12.03zm.023-4.818H57.01V9.92h3.273V7.214zm12.783 3.655l.895-2.327c-1.34-.973-3.154-1.33-5.437-1.33-3.32 0-6.05 1.567-6.05 4.772 0 2.872 2.095 4.01 4.19 4.7l2.095.71c1.436.5 2.613.974 2.613 2.54 0 1.425-1.223 1.995-3.083 1.995-1.883 0-3.908-.57-5.06-1.306l-.896 2.516c1.508.974 3.415 1.448 5.98 1.448 3.65 0 6.475-1.614 6.475-5.055 0-3.205-2.425-4.225-4.873-5.056l-2.284-.76c-.99-.332-1.742-.783-1.742-2.065 0-1.305 1.06-1.827 2.637-1.827 1.93 0 3.437.356 4.543 1.044zm6.192 6.218c.165-2.47 1.742-3.11 2.8-3.11 1.555 0 2.426.997 2.426 2.99v.12h-5.226zm8.17 1.756v-.047c0-.31.023-.617.023-.926v-.046c0-3.3-1.718-6.267-5.438-6.267-3.79 0-5.98 2.896-5.98 6.528 0 3.964 2.284 6.503 6.522 6.503 2.07 0 3.46-.617 4.52-1.448l-.895-2.017c-.73.546-2.002 1.092-3.51 1.092-2.117 0-3.365-1.116-3.436-3.37h8.193zm7.603 3.11c-1.788 0-3.083-1.614-3.083-3.94 0-2.47 1.06-4.036 3.108-4.036h.07c1.72.024 3.014 1.52 3.014 4.035 0 2.445-1.273 3.94-3.015 3.94h-.094zM93.714 30c5.838 0 7.533-1.946 7.533-6.41V12.033h-3.25v1.21c-.658-.95-1.764-1.685-3.648-1.685h-.023c-2.684 0-5.51 2.16-5.51 6.433 0 4.035 2.567 6.36 5.698 6.36 1.978 0 2.872-.782 3.484-1.66v.996c0 3.75-1.318 3.774-4.802 3.774H91.9l.235 2.54h1.578zm9.746-10.11c0 3.227 2.26 4.698 5.555 4.698 3.32 0 5.603-1.52 5.603-4.7v-7.856h-3.272v7.81c0 1.732-.895 2.35-2.33 2.35-1.437 0-2.308-.618-2.308-2.35v-7.81h-3.25v7.857zm19.727-7.858c-1.53 0-2.33.593-3.107 1.685l-.236-1.685h-3.013v12.32h3.25v-6.79c0-1.827.423-3.038 2.73-3.038h.872l-.165-2.492h-.33zm4.85 0h-3.25v12.32h3.25V12.03zm.023-4.818h-3.272V9.92h3.272V7.214zm11.23 17.137h3.178V7h-3.25v6.432c-.446-.902-1.482-1.875-3.553-1.875-3.58 0-5.533 2.99-5.533 6.456 0 3.703 1.907 6.504 5.438 6.575h.165c1.79 0 2.896-.854 3.484-1.97l.07 1.733zm-2.99-2.183c-1.46 0-3.037-.926-3.037-4.06 0-3.298 1.6-4.13 3.037-4.13 1.46 0 2.966.998 2.966 4.13 0 3.182-1.46 4.06-2.966 4.06zm15.632.855l.33 1.33h2.495v-8.783c0-2.684-1.836-4.013-4.66-4.013h-.284c-2.024.048-3.578.404-4.708.926l.636 2.35c.542-.19 2.59-.855 3.79-.855h.166c1.67.072 1.79.69 1.79 2.137v.57l-.872.142c-4.05.593-6.215 1.09-6.215 4.225 0 2.183 1.576 3.536 3.86 3.536 1.577 0 2.613-.664 3.672-1.566zm-3.107-.546c-1.013 0-1.507-.64-1.507-1.543 0-1.71 1.483-1.994 3.296-2.255l.87-.142v2.92c-.87.593-1.53 1.02-2.66 1.02zm16.997 1.875H169V7h-3.25v6.432c-.446-.902-1.482-1.875-3.554-1.875-3.578 0-5.532 2.99-5.532 6.456 0 3.703 1.907 6.504 5.438 6.575h.165c1.79 0 2.896-.854 3.484-1.97l.072 1.733zm-2.99-2.183c-1.46 0-3.037-.926-3.037-4.06 0-3.298 1.6-4.13 3.037-4.13 1.46 0 2.966.998 2.966 4.13 0 3.182-1.46 4.06-2.966 4.06z" fill="#FFF"/><g transform="translate(1)"><mask id="b" fill="#fff"><use xlink:href="#a"/></mask><use fill="#52B3FF" xlink:href="#a"/><path fill="#FFF" mask="url(#b)" d="M27.44 5.055L.723 20.22l10.11 12.276h5.055l11.2-11.2"/></g></g></svg>