<svg width="240" height="50" viewBox="0 0 240 50" xmlns="http://www.w3.org/2000/svg" xmlns:xlink="http://www.w3.org/1999/xlink"><title>site-logo-desktop</title><defs><path d="M.602 5.222c6.22-6.03 26.663-7.838 34.958 0 2.37 14.47-5.037 28.64-17.183 36.778C5.935 34.464-2.36 19.692.602 5.222z" id="a"/></defs><g fill="none" fill-rule="evenodd"><path d="M73.747 36h4.29V12.702h-4.455l-7.524 14.685-7.59-14.685h-4.52V36h4.256V20.556l6.105 12.11h3.464l5.973-11.978V36zM86.55 18.873h-4.553V36h4.554V18.873zm.034-6.7h-4.587v3.763h4.587v-3.762zm17.92 5.083l1.253-3.234c-1.88-1.353-4.422-1.848-7.623-1.848-4.653 0-8.48 2.178-8.48 6.633 0 3.993 2.936 5.577 5.873 6.534l2.937.99c2.013.694 3.663 1.354 3.663 3.532 0 1.98-1.716 2.772-4.323 2.772-2.64 0-5.478-.792-7.095-1.815l-1.255 3.497c2.112 1.353 4.785 2.013 8.382 2.013 5.115 0 9.075-2.244 9.075-7.03 0-4.454-3.4-5.873-6.83-7.028l-3.202-1.056c-1.386-.462-2.442-1.09-2.442-2.87 0-1.816 1.485-2.542 3.696-2.542 2.706 0 4.818.495 6.37 1.452zm8.678 8.646c.23-3.432 2.442-4.323 3.927-4.323 2.177 0 3.398 1.385 3.398 4.157v.165h-7.326zm11.45 2.442v-.066c0-.43.034-.858.034-1.287v-.065c0-4.587-2.41-8.712-7.623-8.712-5.313 0-8.382 4.026-8.382 9.075 0 5.51 3.202 9.042 9.142 9.042 2.904 0 4.85-.858 6.336-2.013l-1.254-2.805c-1.023.76-2.805 1.518-4.917 1.518-2.97 0-4.72-1.55-4.818-4.686h11.483zm10.66 4.323c-2.508 0-4.323-2.244-4.323-5.478 0-3.433 1.484-5.61 4.355-5.61h.1c2.408.032 4.223 2.11 4.223 5.61 0 3.398-1.782 5.477-4.224 5.477h-.132zm-1.848 11.187c8.184 0 10.56-2.706 10.56-8.91v-16.07h-4.554v1.682c-.924-1.32-2.475-2.343-5.115-2.343h-.033c-3.762 0-7.722 3.003-7.722 8.943 0 5.61 3.597 8.844 7.986 8.844 2.772 0 4.026-1.09 4.884-2.31v1.386c0 5.214-1.848 5.247-6.732 5.247h-1.815l.33 3.53h2.21zm13.662-14.058c0 4.488 3.168 6.534 7.788 6.534 4.653 0 7.854-2.112 7.854-6.534V18.873h-4.587V29.73c0 2.41-1.253 3.267-3.266 3.267s-3.234-.858-3.234-3.267V18.873h-4.554v10.923zm27.654-10.923c-2.145 0-3.267.825-4.356 2.343l-.33-2.343h-4.224V36h4.554v-9.438c0-2.54.594-4.224 3.828-4.224h1.22l-.23-3.465h-.462zm6.798 0h-4.554V36h4.554V18.873zm.033-6.7h-4.586v3.763h4.587v-3.762zM197.333 36h4.455V11.877h-4.554v8.943c-.627-1.254-2.08-2.607-4.983-2.607-5.016 0-7.755 4.158-7.755 8.976 0 5.147 2.673 9.04 7.623 9.14h.23c2.51 0 4.06-1.188 4.885-2.74l.1 2.41zm-4.19-3.036c-2.047 0-4.258-1.287-4.258-5.643 0-4.586 2.244-5.74 4.257-5.74 2.047 0 4.16 1.385 4.16 5.74 0 4.423-2.047 5.644-4.16 5.644zm21.91 1.188l.463 1.848h3.498V23.79c0-3.73-2.574-5.577-6.534-5.577h-.397c-2.838.066-5.016.56-6.6 1.287l.89 3.267c.76-.264 3.63-1.188 5.314-1.188h.23c2.344.098 2.51.956 2.51 2.97v.79l-1.222.2c-5.676.824-8.712 1.517-8.712 5.873 0 3.036 2.21 4.917 5.412 4.917 2.21 0 3.663-.924 5.148-2.178zm-4.355-.76c-1.42 0-2.112-.89-2.112-2.144 0-2.376 2.08-2.772 4.62-3.135l1.22-.198v4.06c-1.22.824-2.144 1.418-3.728 1.418zM234.523 36h4.455V11.877h-4.554v8.943c-.627-1.254-2.08-2.607-4.983-2.607-5.015 0-7.754 4.158-7.754 8.976 0 5.147 2.673 9.04 7.623 9.14h.23c2.508 0 4.06-1.188 4.884-2.74l.1 2.41zm-4.19-3.036c-2.047 0-4.258-1.287-4.258-5.643 0-4.586 2.244-5.74 4.257-5.74 2.046 0 4.158 1.385 4.158 5.74 0 4.423-2.046 5.644-4.158 5.644z" fill="#FFF"/><g transform="translate(1 2)"><mask id="b" fill="#fff"><use xlink:href="#a"/></mask><use fill="#52B3FF" xlink:href="#a"/><path fill="#FFF" mask="url(#b)" d="M38 7L1 28l14 17h7l15.508-15.508"/></g></g></svg>