<?xml version="1.0" encoding="utf-8"?>
<!-- Generator: Adobe Illustrator 17.1.0, SVG Export Plug-In . SVG Version: 6.00 Build 0)  -->
<!DOCTYPE svg PUBLIC "-//W3C//DTD SVG 1.1//EN" "http://www.w3.org/Graphics/SVG/1.1/DTD/svg11.dtd">
<svg version="1.1" id="Layer_1" xmlns="http://www.w3.org/2000/svg" xmlns:xlink="http://www.w3.org/1999/xlink" x="0px" y="0px"
	 viewBox="0 0 900 300" style="enable-background:new 0 0 900 300;" xml:space="preserve">
<style type="text/css">
	.st0{display:none;stroke:#FFFFFF;stroke-miterlimit:10;}
	.st1{display:none;}
	.st2{display:inline;fill:#FFFFFF;}
	.st3{display:inline;}
	.st4{fill:#CCCCCC;}
	.st5{fill:#FFFFFF;}
	.st6{fill:#A3858F;}
	.st7{fill:#F2F2F2;}
	.st8{fill:#E6E6E6;}
	.st9{fill:#E4D4C4;}
	.st10{fill:#C8D4D2;}
</style>
<rect x="-62" y="-56" class="st0" width="1036" height="430"/>
<g class="st1">
	<path class="st2" d="M217.9,114.3h-8.4v-8.1h48.7c5.5,0,7.8,2.3,7.8,7.8v9.1h-8.4v-6.2c0-1.9-1-2.9-2.9-2.9h-27.6v34.1h33.1v8.1
		h-33.1v40.6h-9.1V114.3z"/>
	<path class="st2" d="M280.8,142.5c0-1.9-1-2.9-2.9-2.9h-5.5v-7.5h9.1c5.5,0,7.8,2.3,7.8,7.8v46.8c0,1.9,1,2.9,2.9,2.9h5.5v7.5h-9.1
		c-5.5,0-7.8-2.3-7.8-7.8V142.5z M280.5,106.2h8.4v11h-8.4V106.2z"/>
	<path class="st2" d="M326.6,163l-14.3-20.8c-1.6-2.3-3.2-2.6-5.8-2.6h-2.6v-7.5h4.5c6.5,0,8.4,1,12.3,7.1l9.4,14.6
		c1,1.6,2.3,3.9,2.3,3.9h0.3c0,0,1.3-2.3,1.9-3.9l9.4-14.6c3.9-5.8,5.5-7.1,12.3-7.1h4.5v7.5h-2.6c-2.6,0-4.5,0.3-6.2,2.6L338,163
		l23.1,33.8h-10.4l-15.9-24c-1-1.6-1.9-3.6-1.9-3.6h-0.3c0,0-1,1.9-2.3,3.6l-15.9,24h-10.4L326.6,163z"/>
	<path class="st2" d="M366.2,189h4.9c1.9,0,2.6-1,2.9-2.9l6.5-79.9h9.1l24.4,52.9c2.3,4.5,4.5,10.7,4.5,10.7h0.3
		c0,0,2.3-6.2,4.5-10.7l24.4-52.9h9.1l6.5,79.9c0,1.9,1,2.9,2.9,2.9h4.9v8.1h-8.8c-5.5,0-7.5-2.3-7.8-7.8l-4.2-55.2
		c-0.3-4.9-0.3-12.7-0.3-12.7h-0.3c0,0-2.6,8.1-4.5,12.7l-21.8,46.1h-8.1l-22.4-46.4c-1.9-4.5-4.9-13-4.9-13h-0.3c0,0,0,8.1-0.3,13
		l-4.2,55.2c-0.3,5.5-2.3,7.8-7.8,7.8h-8.8V189H366.2z"/>
	<path class="st2" d="M488.3,216.2c5.8,0,9.7-4.5,12-10.7l3.9-8.8l-23.1-54.2c-1-2.3-2.3-2.9-4.5-2.9h-1.3v-7.5h3.9
		c5.8,0,7.8,1.3,10.1,7.1l16.9,40.6c1.3,3.2,2.3,6.8,2.3,6.8h0.3c0,0,1-3.9,2.3-6.8l16.2-40.6c2.3-5.8,4.2-7.1,10.1-7.1h3.9v7.5
		h-1.3c-2.3,0-3.6,0.6-4.5,2.9l-28.2,67.9c-3.2,8.1-10.1,13.6-18.8,13.6c-9.1,0-14.3-6.2-14.3-6.2l4.2-6.5
		C478.6,211.4,482.8,216.2,488.3,216.2"/>
	<path class="st2" d="M620.8,124.4c0,6.2-5.5,9.7-10.4,9.7c-2.6,0-5.2-1-7.8-4.5c-0.6-1-1.3-1.9-1.9-2.6c-2.9-3.9-7.8-6.2-15.3-6.2
		c-9.1,0-15.6,3.2-15.6,9.4c0,1.9,0.6,3.9,2.6,5.5c1.9,1.6,5.2,2.6,11.7,4.2c20.1,5.5,22.4,5.8,26.9,8.8
		c5.5,3.6,11.7,10.4,11.7,21.1c0,9.4-4.5,16.9-10.7,21.8c-7.5,5.8-17.2,7.8-26.9,7.8c-9.4,0-17.9-1.6-24.7-4.9
		c-13.6-6.8-14.6-15.6-14.6-17.9c0-6.2,5.2-10.1,10.1-10.1c4.2,0,7.1,2.6,10.1,7.1c2.9,4.2,6.2,9.1,19.5,9.1c2.9,0,6.2-0.3,9.1-1.3
		c1-0.3,6.8-2.6,6.8-9.4c0-3.6-1.6-5.8-3.9-7.1c-2.6-1.9-4.5-2.3-16.9-5.5c-14.9-3.9-32.1-8.4-32.1-27.3c0-16.6,13-27.6,36.7-27.6
		C607.8,103.6,620.8,115.3,620.8,124.4"/>
	<path class="st2" d="M653.6,129.9c5.5,0,6.8,0,8.4,0.6c1.3,0.6,3.6,2.6,3.6,6.2c0,1.3-0.3,2.6-1,3.6c-1.9,3.9-4.5,3.9-11,3.9v32.1
		c0,5.8,1.9,6.5,6.8,6.5c5.2,0,6.5,3.9,6.5,6.8c0,7.8-9.1,8.4-14,8.4c-17.5,0-17.9-10.1-17.9-17.9v-35.7c-2.3,0-4.2,0-6.2-1
		c-0.6-0.3-3.6-1.9-3.6-6.2c0-1.3,0-2.3,0.6-3.2c1.9-3.9,5.8-3.9,9.1-3.9v-9.7c0-2.9,0-6.5,2.6-9.1c0.6-0.6,2.6-2.9,7.1-2.9
		c1.3,0,2.6,0.3,3.6,0.6c5.5,1.9,5.5,7.5,5.8,11.4v9.4H653.6z"/>
	<path class="st2" d="M672.4,141.2c0-3.2,0-6.8,2.9-9.4c1.3-1.3,3.2-2.6,6.5-2.6c1.6,0,3.2,0.3,3.9,1c5.2,2.6,5.2,8.1,5.2,10.4v1.6
		c0.6-1.9,1.3-3.9,2.6-5.8c2.9-5.2,8.1-7.5,13.6-7.5c7.1,0,9.7,4.2,9.7,8.8c0,2.6-0.6,4.5-2.3,6.2c-1.9,1.9-4.5,2.3-6.8,2.6
		c-1.9,0-3.6,0-5.2,0.3c-10.1,1.6-10.1,12-10.4,19.2V186c0,2.9,0,6.8-2.6,9.4c-1.6,1.6-4.2,2.6-6.8,2.6c-0.6,0-1.9,0-3.2-0.6
		c-6.5-1.9-6.5-7.5-6.5-11.7v-44.5H672.4z"/>
	<path class="st2" d="M736.4,169.2c0.3,3.2,1,6.8,4.2,10.1c4.2,4.5,9.1,4.5,10.4,4.5c5.2,0,7.8-1.9,9.1-3.2c0.6-0.6,1.3-1.6,2.3-2.3
		c1.9-1.6,3.9-2.3,5.5-2.3c4.5,0,8.4,3.9,8.4,8.4c0,2.6-1.3,5.5-5.2,8.1c-5.8,4.2-13.6,5.8-21.1,5.8c-25.3,0-34.1-18.8-34.1-34.7
		c0-19.8,13-35.4,34.4-35.4c24,0,30.8,19.2,30.8,31.8c0,8.8-4.5,8.8-8.1,8.8h-36.7V169.2z M763.6,155.2c-0.6-2.3-1-4.5-2.3-6.8
		c-2.6-3.6-6.5-5.2-11-5.2c-10.4,0-12.7,7.5-14,12H763.6z"/>
	<path class="st2" d="M807.1,169.2c0.3,3.2,1,6.8,4.2,10.1c4.2,4.5,9.1,4.5,10.4,4.5c5.2,0,7.8-1.9,9.1-3.2c0.6-0.6,1.3-1.6,2.3-2.3
		c1.9-1.6,3.9-2.3,5.5-2.3c4.5,0,8.4,3.9,8.4,8.4c0,2.6-1.3,5.5-5.2,8.1c-5.8,4.2-13.6,5.8-21.1,5.8c-25.3,0-34.1-18.8-34.1-34.7
		c0-19.8,13-35.4,34.4-35.4c24,0,30.8,19.2,30.8,31.8c0,8.8-4.5,8.8-8.1,8.8h-36.7V169.2z M834.4,155.2c-0.6-2.3-1-4.5-2.3-6.8
		c-2.6-3.6-6.5-5.2-11-5.2c-10.4,0-12.7,7.5-14,12H834.4z"/>
	<path class="st2" d="M883.1,129.9c5.5,0,6.8,0,8.4,0.6c1.3,0.6,3.6,2.6,3.6,6.2c0,1.3-0.3,2.6-1,3.6c-1.9,3.9-4.5,3.9-11,3.9v32.1
		c0,5.8,1.9,6.5,6.8,6.5c5.2,0,6.5,3.9,6.5,6.8c0,7.8-9.1,8.4-14,8.4c-17.5,0-17.9-10.1-17.9-17.9v-35.7c-2.3,0-4.2,0-6.2-1
		c-0.6-0.3-3.6-1.9-3.6-6.2c0-1.3,0-2.3,0.6-3.2c1.9-3.9,5.8-3.9,9.1-3.9v-9.7c0-2.9,0-6.5,2.6-9.1c0.6-0.6,2.6-2.9,7.1-2.9
		c1.3,0,2.6,0.3,3.6,0.6c5.5,1.9,5.5,7.5,5.8,11.4v9.4H883.1z"/>
	<path class="st2" d="M85.1,70.1c-45.1,0-81.8,36.4-81.8,81.2s36.7,81.2,81.8,81.2s81.8-36.4,81.8-81.2S130.2,70.1,85.1,70.1
		 M85.1,215.3c-11.4,0-22.4-2.9-31.5-8.1l29.2-29.9l0.3-0.3c2.3,0.6,4.9,1,7.5,1c17.2,0,30.8-13.6,31.2-30.5c0-2.6-0.3-5.2-1-7.8
		l-16.2,16.2l-17.9-3.9l-3.9-17.9L99,117.9c-2.6-0.6-5.2-1.3-8.1-1.3c-17.2,0-30.8,13.6-31.2,30.5c0,3.6,0.6,7.1,1.9,10.1
		l-29.5,30.2C25,176.9,20.8,164.6,20.8,151c0-35.4,28.9-64.3,64.6-64.3S150,115.6,150,151C149.7,186.7,120.8,215.3,85.1,215.3"/>
</g>
<g class="st1">
	<g class="st3">
		<path class="st4" d="M214.4,120.7c-10.4-2.2-20.7-4.8-30.9-7.8c-0.1,27.2,0,54.4,0,81.6c0,3.3,0,6.5,0,10.2c-5,0.8-9,1.4-13.2,2
			c0,5.9,0,11.6,0,17.5c19.4,0,38.3,0,57.3,0c0-6.2,0-11.9,0-17.5c-4.5-0.7-8.4-1.4-13.1-2.2C214.4,176.4,214.4,148.5,214.4,120.7z"
			/>
		<path class="st5" d="M214.4,66.5c-15.1,0-29.4,0-44,0c0,6.3,0,12.2,0,18c12.2,1.2,13.1-1.9,13.1,13.5c0,5,0,9.9,0,14.9
			c10.3,3,20.6,5.6,30.9,7.8C214.4,102.7,214.4,84.6,214.4,66.5z"/>
	</g>
	<g class="st3">
		<path class="st5" d="M61.8,152.2c1.3-4.1,2.5-8.2,3.7-12.3c-5.9-21-10.3-42.6-13.1-64.8c-4.9,0-9.8,0-14.8,0
			c-1.6,6.4-3.2,12.7-5,20.3c7.5,0,14,0,21.1,0c-1,3.6-1.6,6-2.3,8.3c-9.5,29.5-19,59-28.6,88.5c-3.2,9.8-3.7,12.4-16.4,12.6
			c-0.4,0-0.9,0.6-1.2,0.8c0,6.3,0,12.4,0,19c9.5,0,18.3,0,27.2,0c9,0,18.1,0,27,0c0-7.3,0-13.5,0-19.8c-4.5-0.2-8.3-0.4-12.8-0.6
			c3.4-11.1,6.6-21.6,9.9-32.4c6.6,0,13,0,19.3,0c-2.4-6.5-4.5-13-6.6-19.7C66.7,152.2,64.3,152.2,61.8,152.2z"/>
		<path class="st6" d="M97.9,224.2c0.3,0,0.6,0,0.9,0c-0.3-0.6-0.6-1.1-0.9-1.7C97.9,223.1,97.9,223.6,97.9,224.2z"/>
		<path class="st4" d="M142.2,192.3c-11.3-35.4-23.1-70.7-34.7-106.1c-7.1-3.5-14.2-7.1-21.2-11c-11.3,0-22.6,0-33.9,0
			c2.8,22.1,7.2,43.8,13.1,64.8c4.2-13.8,8.4-27.5,12.5-41.2c0.7,0,1.3,0,2,0c5.2,17.6,10.4,35.1,15.9,53.5c-9.1,0-17.8,0-26.8,0
			c2.1,6.6,4.3,13.2,6.6,19.7c8.6,0,17.1,0,25.7,0c3,10.8,5.9,21.3,8.9,32.3c-5,0.4-8.7,0.6-12.4,0.9c0,6.2,0,11.7,0,17.4
			c0.3,0.6,0.6,1.2,0.9,1.7c20.2,0,40,0,59.9,0c0-6.7,0-12.9,0-20.1C147.8,207.1,144.9,200.6,142.2,192.3z"/>
		<path class="st7" d="M106.3,82.6c-0.8-2.6-1.9-5-2.7-7.4c-5.8,0-11.5,0-17.3,0c7,3.9,14.1,7.6,21.2,11
			C107.1,85,106.7,83.8,106.3,82.6z"/>
	</g>
	<g class="st3">
		<path class="st4" d="M880.6,191.5c0-11.6,0-23.3,0-34.9c0-4.1,0-8.3,0-12.5c-7.3,24.9-16.6,48.9-27.9,71.7
			c1.7,3.2,4.4,5.9,8.3,7.7c10.8,5,22,3.3,33,1.4c0-6.7,0-12.5,0-18.1C880.8,204.8,880.6,204.6,880.6,191.5z"/>
		<path class="st5" d="M880.6,111.4c-8.2,0-15.4,0-22.5,0c-7.1,0-14.1,0.1-20.8,0.1c0,7,0,12.6,0,18.2c1.5,0.2,2.4,0.3,3.2,0.3
			c9.2,0.7,9.5,1,9.6,10.4c0,1.4,0,2.8,0,4.2c0,19.7-0.1,39.4-0.1,59c0,4.5,0.8,8.7,2.7,12.2c11.3-22.9,20.7-46.8,27.9-71.7
			C880.6,133.5,880.6,122.8,880.6,111.4z"/>
		<path class="st5" d="M880.6,90.7c0.9-8.6,0.9-16.4,0.1-24.2c-1.6,0-3.2,0-4.8,0c-2.4,1.5-4.8,3-7.3,4.4
			c-6.4,3.7-12.9,7.2-19.4,10.5c0,3.1,0.1,6.2,0.4,9.3C860.3,90.7,870,90.7,880.6,90.7z"/>
		<path class="st8" d="M875.9,66.6c-9,0-17.5,0-26.4,0c-0.2,5.1-0.3,10-0.2,14.9c6.5-3.3,13-6.8,19.4-10.5
			C871,69.5,873.4,68,875.9,66.6z"/>
	</g>
	<g class="st3">
		<path class="st5" d="M754.8,120.3c-27,5.9-54.3,9.3-81.5,10.1c-0.7,1.1-1.4,2.2-2.1,3.4c-10,16.9-9.5,34.8-6.1,53.2
			c3.4,18.1,13.5,30.9,31.2,36.5c6.5,2.1,13.5,2.6,20.4,3.2c15.5,1.2,30.3-2.1,44.7-7.4c2-0.7,4.8-3,4.9-4.6
			c0.5-8.5,0.2-17,0.2-25.8c-4.9,0-8.7,0-12.7,0c-2.9,3.2-5.2,6.4-8.1,8.9c-8.8,7.4-19,7.9-29.8,5.9c-13.6-2.4-22-14.7-19.1-29.1
			c23.6,0,47.3,0,71.4,0c1.8-16.4,0.7-31.4-7.1-45.6C759.3,125.5,757.3,122.7,754.8,120.3z M718.1,156.3c-7.2,0-14.3,0-22.1,0
			c-0.9-16.4,7.4-26.3,21.4-26.7c14.8-0.4,22.3,8,22.5,26.5C732.7,156.2,725.4,156.3,718.1,156.3z"/>
		<path class="st8" d="M749.3,116.2c-17.6-10.2-36-9.5-54.5-3.4c-9.5,3.1-16.2,9.5-21.6,17.6c27.2-0.8,54.5-4.2,81.5-10.1
			C753.2,118.7,751.4,117.4,749.3,116.2z"/>
	</g>
	<g class="st3">
		<path class="st5" d="M820.4,97.8c-10.3,4.2-20.7,7.9-31.1,11.3c0,28.5,0,57,0,85.5c0,3.3-0.3,6.5-0.5,10.1
			c-4.7,0.7-8.7,1.2-12.7,1.8c0,6.2,0,11.8,0,17.5c19.5,0,38.4,0,57.2,0c0-6.3,0-12,0-17.5c-4.5-0.8-8.5-1.5-12.9-2.2
			C820.4,168.7,820.4,133.4,820.4,97.8z"/>
		<path class="st8" d="M820.4,66.6c-15.4,0-29.7,0-44.3,0c0,6.2,0,11.9,0,17.3c0.9,0.4,1.4,0.8,1.9,0.8c13.3-0.1,11.3,2.3,11.4,12.6
			c0,3.9,0,7.9,0,11.8c10.4-3.4,20.8-7.1,31.1-11.3C820.4,87.4,820.4,77,820.4,66.6z"/>
	</g>
	<g class="st3">
		<path class="st4" d="M555.5,117c-3.5-2.3-7.1-4-10.8-5.3c-2.1-0.6-4.2-1.3-6.3-1.9c-12.6-2.9-25.6-1.2-38.7,3.3
			c-10.4,3.5-17.5,11.1-23.1,20.5c-10.2,17.2-9.7,35.3-6.1,54c3.5,18.2,13.8,31.1,31.5,36.3c22.6,6.5,45,3.3,66.6-5.4
			c1.3-0.5,3-2.2,3-3.4c0.3-8.7,0.8-17.5-0.3-26.3c-4.8,0-8.6,0-12.9,0c-5.6,10.8-15.2,15.3-27,16c-19.4,1.2-32-11.2-29.7-30
			c23.6,0,47.4,0,71.7,0c1.7-17,0.9-32.3-7.6-46.2C563.2,124.1,559.7,119.7,555.5,117z M544.8,155.8c-14.4,0-28.9,0-43.4,0
			c-1.3-15.7,7.5-26.1,21.9-26.2C538,129.5,546.1,139.3,544.8,155.8z"/>
		<path class="st9" d="M541.7,109.7c2.1,0.7,4.2,1.3,6.3,1.9C546,110.9,543.9,110.2,541.7,109.7z"/>
	</g>
	<g class="st3">
		<path class="st5" d="M617.7,226.2c11,0.6,22.1-0.8,33.1-1.7c1.5-0.1,4-2.5,4.1-4c0.5-6.2,0.2-12.4,0.2-19.1
			c-5.9,0.7-10.6,1.5-15.2,1.6c-9.8,0.1-14.6-3.4-15.8-11.6c-7.5,9.1-15.4,17.8-23.6,26.3C604.9,222.6,610.9,225.8,617.7,226.2z"/>
		<path class="st4" d="M580.9,131.1c4.1,0.3,7.6,0.5,11.8,0.8c0,2.6,0,4.8,0,6.9c0,19.4,0,38.8-0.2,58.2c0,7.8,3,15.3,7.9,20.7
			c8.3-8.5,16.1-17.3,23.6-26.3c-0.2-1.4-0.3-2.8-0.3-4.5c0-13.3,0-26.6,0-39.9c0-4.9,0-9.8,0-15.4c11.5,0,22.2,0,33.7,0
			c0-0.4,0-0.7,0-1.1c-25.8-0.5-51.4-3.3-76.5-8.2C580.9,125.3,580.9,128.2,580.9,131.1z"/>
		<path class="st8" d="M623.6,85.3c-7.5,0-14.2,0-20.9,0c-2.6,13.7-5.9,26.4-21.8,28.8c0,2.9,0,5.6,0,8.2
			c25.1,4.9,50.7,7.7,76.5,8.2c0-6.7,0-12.5,0-19.2c-11.3,0-22.2,0-33.8,0C623.6,102.1,623.6,93.9,623.6,85.3z"/>
	</g>
	<g class="st3">
		<path class="st4" d="M416.9,113.3c0,5.7,0,11,0,16.4c4.2,0.3,7.7,0.5,12.3,0.8c-7.4,21.7-14.6,42.9-21.7,64.1
			c-0.6,0-1.3-0.1-2-0.1c-7.5-21.2-15-42.3-22.7-64.1c5.5-0.3,9.8-0.5,13.9-0.7c0-4,0-7.6,0-11.1c-18.2,4.3-36.7,7.5-55.4,9.5
			c0,0.6,0,1.2,0,1.9c7.6-1.1,10.4,3.2,12.7,9.3c9.9,25.8,20.1,51.5,30.3,77.3c1.1,2.8,2.3,5.5,3.4,7.9c11.5,0,22.2,0,33,0
			c10.6-28.1,21.3-55.7,31.5-83.5c2.4-6.6,4.8-12.3,13-11.3c0-6.4,0-12.1,0-17.5c-15,0-29.5,0-43.8,0
			C419.8,112.5,418.3,112.9,416.9,113.3z"/>
		<path class="st10" d="M416.9,112c0,0.5,0,0.9,0,1.3c1.5-0.4,3-0.9,4.5-1.3C419.8,112,418.3,112,416.9,112z"/>
		<path class="st8" d="M396.7,111.6c-18.6,0-36.6,0-55.4,0c0,5.8,0,11,0,16.4c18.7-2,37.2-5.2,55.4-9.5
			C396.7,116.2,396.7,113.9,396.7,111.6z"/>
	</g>
	<g class="st3">
		<path class="st4" d="M333.9,193.9c0-6.2,0-12.3,0-18.5c-10.8-14.4-20.7-29.3-29.6-44.8c-0.1,0-0.2,0-0.4,0
			c-3.3,0-6.7-0.1-10.1-0.2c4.6,1.9,7.5,5.3,8.6,10.9c1.1,5.2,0.2,10.9,0.2,17.2c-7,0-13.3-0.2-19.6,0.1
			c-10.5,0.5-21.2,0.4-30.7,5.7c-11.1,6.1-17.3,15.3-17.3,28.2c0,12.9,5.2,23.3,16.8,29.4c12.1,6.4,24.7,5.1,37,0.6
			c5.6-2.1,10.9-5.1,16.2-7.7c8.8,12.3,22.2,13.6,42,8.7c0-5.4,0-10.8,0-16.9c-1.4-0.3-2.2-0.5-3-0.6
			C334.1,204.3,333.9,204.2,333.9,193.9z M302.9,194.3c-0.1,1.8-1.6,4.2-3.2,5.1c-6.9,3.9-14.4,5.6-22.3,4.2
			c-7.2-1.3-11.1-6.1-11.1-13.2c0-6.5,4.5-12.9,10.9-13.8c8.1-1.2,16.4-1.4,25.9-2.2C303,182.2,303.3,188.3,302.9,194.3z"/>
		<path class="st4" d="M243.8,143.9c5.9,0,11,0,16.2,0c3.1-8,8.5-12.4,15.3-14.2c-10.5-0.7-21-1.8-31.4-3.2
			C243.8,132.3,243.8,138,243.8,143.9z"/>
		<path class="st5" d="M304.4,130.6c-4.1-7.1-8-14.4-11.7-21.7c-9-0.4-17.8,0.5-26.6,1.4c-7.6,0.8-15.5,0.6-22.2,4.4
			c0,4,0,7.9,0,11.8c10.5,1.4,20.9,2.5,31.4,3.2c2.4-0.6,5-0.9,7.7-0.9c4.4,0,8.1,0.5,11,1.7c3.4,0.1,6.7,0.2,10.1,0.2
			C304.1,130.6,304.2,130.6,304.4,130.6z"/>
		<path class="st5" d="M333.9,175.4c0-9.1,0.1-18.1,0.1-27.2c0-6-1.5-12.4-4.6-18.3c-8.4,0.5-16.7,0.7-25.1,0.7
			C313.3,146.1,323.2,161,333.9,175.4z"/>
		<path class="st8" d="M329.5,129.9c-5.3-10.3-15.4-18.9-30.3-20.5c-2.2-0.2-4.3-0.4-6.5-0.5c3.7,7.3,7.6,14.6,11.7,21.7
			C312.8,130.6,321.1,130.4,329.5,129.9z"/>
	</g>
</g>
<g>
	<path class="st5" d="M52.8,95.7H32.5l4.9-19.1h62l38,115.8c1,3.1,2.1,5.7,6.4,5.7h7.4V217H93.3v-18.9h12.5l-8.8-31H55.1l-9.6,31
		h12.9V217H6.2v-18.9H14c4.9,0,7-4.5,8.4-8.4L52.8,95.7z M77.2,98.9h-2l-15.4,50.7h32.4L77.2,98.9z"/>
	<path class="st5" d="M165.7,86h-8V68.2h41.7V195c0,3.7,1.8,4.3,4.7,4.3h8.2V217h-54.6v-17.7h8c2.9,0,4.9-0.4,4.9-4.1V90.9
		C170.5,86.8,168.8,86,165.7,86z"/>
	<path class="st5" d="M280.1,155.2v-12.9c0-9.2-6.6-15.4-17.7-15.4c-6.8,0-18.9,1.4-22.2,14.6H224v-27.9c14.6-3.7,30.6-5.7,41.1-5.7
		c28.7,0,43.7,14,43.7,39.2v44.9c0,4.5,2,7.2,7.8,7.2h5.1v17.4c-5.5,0.8-11.7,1.9-17.4,1.9c-9.9,0-18.5-3.3-22-11.9
		c-9.4,7.2-22.8,11.9-33,11.9c-17.7,0-32.8-10.5-32.8-31.8c0-17.9,13.1-31.6,41.1-31.6H280.1z M280.1,170.6h-16.2
		c-9.9,0-18.3,3.7-18.3,14.4c0,8.8,6.4,12.9,13.3,12.9c7.4,0,15.6-2.1,21.3-6.6V170.6z"/>
	<path class="st5" d="M328.9,130.6c-0.6-1.4-1.8-2.1-3.9-2.1h-5.9v-17.7h52.8v17.7h-13.7l21.5,60.5h1.8l20.5-60.5h-12.1v-17.7h46.2
		v17.7h-6.4c-1.6,0-2.7,0.8-3.1,2l-32.8,86.8H363L328.9,130.6z"/>
	<path class="st5" d="M436.7,163.6c0-36.9,20.9-55.6,52.5-55.6c37.4,0,46.6,24.6,46.6,51.1v10.7h-68.4c0.2,20.1,9,28.5,26.7,28.5
		c8.8,0,21.1-2.3,26.5-15.2h13.1v26.7c-12.3,6-31,9.6-42.5,9.6C456.4,219.4,436.7,202.2,436.7,163.6z M508.8,152.9
		c0-12.3-3.5-25.2-20.5-25.2c-15,0-21.5,11.1-21.5,25.2H508.8z"/>
	<path class="st5" d="M583.7,182.7c0,10.9,6,14.2,15.6,14.2c4.3,0,9.4-1,13.8-2.3v21.3c-8.2,2.1-18.1,3.5-26.7,3.5
		c-13.5,0-31.6-4.5-31.6-29.6v-60.1h-11.9v-16c13.8-2.5,18.7-11.1,20.9-27.9h19.9v25h32.2v18.9h-32.2V182.7z"/>
	<path class="st5" d="M620.7,163.6c0-36.9,20.9-55.6,52.5-55.6c37.4,0,46.6,24.6,46.6,51.1v10.7h-68.4c0.2,20.1,9,28.5,26.7,28.5
		c8.8,0,21.1-2.3,26.5-15.2h13.1v26.7c-12.3,6-31,9.6-42.5,9.6C640.4,219.4,620.7,202.2,620.7,163.6z M692.9,152.9
		c0-12.3-3.5-25.2-20.5-25.2c-15,0-21.5,11.1-21.5,25.2H692.9z"/>
	<path class="st5" d="M736.3,86h-8V68.2H770V195c0,3.7,1.8,4.3,4.7,4.3h8.2V217h-54.6v-17.7h8c2.9,0,4.9-0.4,4.9-4.1V90.9
		C741.1,86.8,739.4,86,736.3,86z"/>
	<path class="st5" d="M833.8,199.5h6.2v17.9c-5.8,1.2-11.1,1.6-15.8,1.6c-18.1,0-25.9-6.8-25.9-23.2v-62.4c0-4.1-1.6-4.9-5.1-4.9
		h-7.6v-17.7h41.5v80C827.1,196.2,828.7,199.5,833.8,199.5z M797.7,68.2h29.8v23.4h-29.8V68.2z"/>
</g>
</svg>
