<svg baseProfile="tiny" xmlns="http://www.w3.org/2000/svg" viewBox="0 0 275 102.2"><g><g><g fill="#37373A"><path d="M66.1 22.7h-2.6v-2.5h15c1.7 0 2.4.7 2.4 2.4v2.8h-2.6v-1.9c0-.6-.3-.9-.9-.9h-8.5v10.5h10.2v2.5h-10.2v12.5h-2.8v-25.4zM85.5 31.4c0-.6-.3-.9-.9-.9h-1.7v-2.3h2.8c1.7 0 2.4.7 2.4 2.4v14.4c0 .6.3.9.9.9h1.7v2.3h-2.8c-1.7 0-2.4-.7-2.4-2.4v-14.4zm-.1-11.2h2.6v3.4h-2.6v-3.4zM99.6 37.8l-4.4-6.4c-.5-.7-1-.8-1.8-.8h-.8v-2.3h1.4c2 0 2.6.3 3.8 2.2l2.9 4.5c.3.5.7 1.2.7 1.2h.1s.4-.7.6-1.2l2.9-4.5c1.2-1.8 1.7-2.2 3.8-2.2h1.4v2.3h-.8c-.8 0-1.4.1-1.9.8l-4.4 6.4 7.1 10.4h-3.2l-4.9-7.4c-.3-.5-.6-1.1-.6-1.1h-.1s-.3.6-.7 1.1l-4.9 7.4h-3.2l7-10.4zM111.8 45.7h1.5c.6 0 .8-.3.9-.9l2-24.6h2.8l7.5 16.3c.7 1.4 1.4 3.3 1.4 3.3h.1s.7-1.9 1.4-3.3l7.5-16.3h2.8l2 24.6c0 .6.3.9.9.9h1.5v2.5h-2.7c-1.7 0-2.3-.7-2.4-2.4l-1.3-17c-.1-1.5-.1-3.9-.1-3.9h-.1s-.8 2.5-1.4 3.9l-6.9 14.2h-2.5l-6.7-14.2c-.6-1.4-1.5-4-1.5-4h-.1s0 2.5-.1 4l-1.3 17c-.1 1.7-.7 2.4-2.4 2.4h-2.7v-2.5zM149.4 54.1c1.8 0 3-1.4 3.7-3.3l1.2-2.7-7.1-16.7c-.3-.7-.7-.9-1.4-.9h-.4v-2.3h1.2c1.8 0 2.4.4 3.1 2.2l5.2 12.5c.4 1 .7 2.1.7 2.1h.1s.3-1.2.7-2.1l5-12.5c.7-1.8 1.3-2.2 3.1-2.2h1.2v2.3h-.4c-.7 0-1.1.2-1.4.9l-8.7 20.9c-1 2.5-3.1 4.2-5.8 4.2-2.8 0-4.4-1.9-4.4-1.9l1.3-2c.1.1 1.4 1.5 3.1 1.5zM190.2 25.9c0 1.9-1.7 3-3.2 3-.8 0-1.6-.3-2.4-1.4-.2-.3-.4-.6-.6-.8-.9-1.2-2.4-1.9-4.7-1.9-2.8 0-4.8 1-4.8 2.9 0 .6.2 1.2.8 1.7.6.5 1.6.8 3.6 1.3 6.2 1.7 6.9 1.8 8.3 2.7 1.7 1.1 3.6 3.2 3.6 6.5 0 2.9-1.4 5.2-3.3 6.7-2.3 1.8-5.3 2.4-8.3 2.4-2.9 0-5.5-.5-7.6-1.5-4.2-2.1-4.5-4.8-4.5-5.5 0-1.9 1.6-3.1 3.1-3.1 1.3 0 2.2.8 3.1 2.2.9 1.3 1.9 2.8 6 2.8.9 0 1.9-.1 2.8-.4.3-.1 2.1-.8 2.1-2.9 0-1.1-.5-1.8-1.2-2.2-.8-.6-1.4-.7-5.2-1.7-4.6-1.2-9.9-2.6-9.9-8.4 0-5.1 4-8.5 11.3-8.5 7-.3 11 3.2 11 6.1zM200.3 27.5c1.7 0 2.1 0 2.6.2.4.2 1.1.8 1.1 1.9 0 .4-.1.8-.3 1.1-.6 1.2-1.4 1.2-3.4 1.2v9.9c0 1.8.6 1.9 2.1 1.9 1.6 0 2 1.2 2 2.1 0 2.4-2.8 2.6-4.3 2.6-5.4 0-5.5-3.1-5.5-5.5v-11c-.7 0-1.3 0-1.9-.3-.2-.1-1.1-.6-1.1-1.9 0-.4 0-.7.2-1 .6-1.2 1.8-1.2 2.8-1.2v-2.8c0-.9 0-2 .8-2.8.2-.2.8-.9 2.2-.9.4 0 .8.1 1.1.2 1.7.6 1.7 2.3 1.8 3.5v2.8zM206.1 31.1c0-1 0-2.1.9-2.9.4-.4 1-.8 2-.8.5 0 1 .1 1.2.3 1.6.8 1.6 2.5 1.6 3.2v.5c.2-.6.4-1.2.8-1.8.9-1.6 2.5-2.3 4.2-2.3 2.2 0 3 1.3 3 2.7 0 .8-.2 1.4-.7 1.9-.6.6-1.4.7-2.1.8-.6 0-1.1 0-1.6.1-3.1.5-3.1 3.7-3.2 5.9v6.2c0 .9 0 2.1-.8 2.9-.5.5-1.3.8-2.1.8-.2 0-.6 0-1-.2-2-.6-2-2.3-2-3.6v-13.7zM225.8 39.6c.1 1 .3 2.1 1.3 3.1 1.3 1.4 2.8 1.4 3.2 1.4 1.6 0 2.4-.6 2.8-1 .2-.2.4-.5.7-.7.6-.5 1.2-.7 1.7-.7 1.4 0 2.6 1.2 2.6 2.6 0 .8-.4 1.7-1.6 2.5-1.8 1.3-4.2 1.8-6.5 1.8-7.8 0-10.5-5.8-10.5-10.7 0-6.1 4-10.9 10.6-10.9 7.4 0 9.5 5.9 9.5 9.8 0 2.7-1.4 2.7-2.5 2.7h-11.3zm8.4-4.3c-.2-.7-.3-1.4-.7-2.1-.8-1.1-2-1.6-3.4-1.6-3.2 0-3.9 2.3-4.3 3.7h8.4zM247.5 39.6c.1 1 .3 2.1 1.3 3.1 1.3 1.4 2.8 1.4 3.2 1.4 1.6 0 2.4-.6 2.8-1 .2-.2.4-.5.7-.7.6-.5 1.2-.7 1.7-.7 1.4 0 2.6 1.2 2.6 2.6 0 .8-.4 1.7-1.6 2.5-1.8 1.3-4.2 1.8-6.5 1.8-7.8 0-10.5-5.8-10.5-10.7 0-6.1 4.1-10.9 10.6-10.9 7.4 0 9.5 5.9 9.5 9.8 0 2.7-1.4 2.7-2.5 2.7h-11.3zm8.5-4.3c-.2-.7-.3-1.4-.7-2.1-.8-1.1-2-1.6-3.4-1.6-3.2 0-3.9 2.3-4.3 3.7h8.4zM271 27.5c1.7 0 2.1 0 2.6.2.4.2 1.1.8 1.1 1.9 0 .4-.1.8-.3 1.1-.6 1.2-1.4 1.2-3.4 1.2v9.9c0 1.8.6 1.9 2.1 1.9 1.6 0 2 1.2 2 2.1 0 2.4-2.8 2.6-4.3 2.6-5.4 0-5.5-3.1-5.5-5.5v-11c-.7 0-1.3 0-1.9-.3-.2-.1-1.1-.6-1.1-1.9 0-.4 0-.7.2-1 .6-1.2 1.8-1.2 2.8-1.2v-2.8c0-.9 0-2 .8-2.8.2-.2.8-.9 2.2-.9.4 0 .8.1 1.1.2 1.7.6 1.7 2.3 1.8 3.5v2.8zM25.2 9.1c-13.9 0-25.2 11.2-25.2 25s11.3 25 25.2 25c13.9 0 25.2-11.2 25.2-25s-11.3-25-25.2-25zm0 44.8c-3.5 0-6.9-.9-9.7-2.5l9-9.2.1-.1c.7.2 1.5.3 2.3.3 5.3 0 9.5-4.2 9.6-9.4 0-.8-.1-1.6-.3-2.4l-5 5-5.6-1.2-1.2-5.5 5-5c-.8-.2-1.6-.4-2.5-.4-5.3 0-9.5 4.2-9.6 9.4 0 1.1.2 2.2.6 3.1l-9.1 9.3c-2.2-3.2-3.5-7-3.5-11.2 0-10.9 8.9-19.8 19.9-19.8 11 0 19.9 8.9 19.9 19.8s-8.9 19.8-19.9 19.8z"/></g><g fill="#37373A"><path d="M67.8 68.3h-2.6v-2.5h12c5 0 8.7 3.3 8.7 8.5 0 5.3-3.7 8.7-8.7 8.7h-6.5v11.1h-2.8v-25.8zm9 12.2c3.7 0 6.2-2.3 6.2-6.2 0-3.8-2.5-6-6.2-6h-6.2v12.2h6.2zM90.3 69.1c0-.6-.3-.9-.9-.9h-1.7v-2.4h2.9c1.7 0 2.5.7 2.5 2.5v22.6c0 .6.3.9.9.9h1.7v2.4h-2.9c-1.7 0-2.5-.7-2.5-2.5v-22.6zM110.7 81.7h1.1v-.2c0-4.2-1.5-5.7-5.2-5.7-1 0-4 .3-4 1.8v1.3h-2.6v-1.9c0-2.8 4.8-3.4 6.6-3.4 6.4 0 7.9 3.4 7.9 7.8v9.7c0 .6.3.9.9.9h1.7v2.4h-2.8c-1.7 0-2.4-.8-2.4-2.4v-1.5h-.1s-1.7 4.4-6.7 4.4c-3.4 0-6.9-2-6.9-6 .1-7 9-7.2 12.5-7.2zm-5.1 10.6c3.9 0 6.2-4 6.2-7.5v-.9h-1.2c-3.2 0-9.6.1-9.6 4.6.1 1.9 1.6 3.8 4.6 3.8zM121.7 76.2h-2.7v-2.3h2.7v-5.6h2.7v5.6h5.1v2.3h-5.1v10.3c0 4.8 3 5.4 4.6 5.4.6 0 .9-.1.9-.1v2.5s-.5.1-1.2.1c-2.3 0-7.1-.8-7.1-7.5v-10.7zM135.1 76.2h-2.5v-2.3h2.5v-.7c0-6.7 4.7-7.5 7-7.5.8 0 1.2.1 1.2.1v2.5s-.4-.1-1-.1c-1.5 0-4.5.6-4.5 5.1v.7h5.2v2.3h-5.2v18h-2.7v-18.1zM155.2 73.4c5.9 0 10.7 4.5 10.7 10.5 0 6.1-4.8 10.7-10.7 10.7-5.9 0-10.7-4.6-10.7-10.7 0-6 4.8-10.5 10.7-10.5zm0 18.8c4.3 0 7.9-3.5 7.9-8.3 0-4.6-3.5-8-7.9-8s-7.9 3.4-7.9 8c0 4.7 3.6 8.3 7.9 8.3zM171 77.1c0-.6-.3-.9-.9-.9h-1.7v-2.4h2.8c1.7 0 2.5.7 2.5 2.3v1.4c0 .8-.1 1.5-.1 1.5h.1c1-3.1 3.2-5.4 6.4-5.4.6 0 1.1.1 1.1.1v2.7s-.5-.1-1-.1c-2.9 0-5 2.3-5.9 5.2-.4 1.3-.6 2.7-.6 4v8.5h-2.7v-16.9zM185.9 77.1c0-.6-.3-.9-.9-.9h-1.7v-2.4h2.8c1.7 0 2.5.7 2.5 2.3v.9c0 .8-.1 1.5-.1 1.5h.1c1-2.7 4.2-5.1 7.3-5.1 3.8 0 5.7 1.7 6.3 5.1h.1c1.1-2.7 4-5.1 7.5-5.1 4.9 0 6.7 2.9 6.7 7.9v9.6c0 .6.3.9.9.9h1.7v2.4h-2.9c-1.7 0-2.5-.7-2.5-2.5v-9.8c0-3.3-.7-6-4.4-6-3.1 0-5.6 2.7-6.4 5.7-.3.9-.4 1.9-.4 2.9v9.6h-2.7v-12.2c0-3.1-.4-6-4.3-6-3.3 0-5.8 2.9-6.6 6-.2.8-.3 1.8-.3 2.7v9.6h-2.7v-17.1z"/></g></g></g></svg>