<?xml version="1.0" encoding="utf-8"?>
<!-- Generator: Adobe Illustrator 17.1.0, SVG Export Plug-In . SVG Version: 6.00 Build 0)  -->
<!DOCTYPE svg PUBLIC "-//W3C//DTD SVG 1.1 Tiny//EN" "http://www.w3.org/Graphics/SVG/1.1/DTD/svg11-tiny.dtd">
<svg version="1.1" baseProfile="tiny" xmlns="http://www.w3.org/2000/svg" xmlns:xlink="http://www.w3.org/1999/xlink" x="0px"
	 y="0px" viewBox="0 0 20.4 17" xml:space="preserve">
<g id="Background">
</g>
<g id="Working">
	<g id="Alert">
	</g>
	<g id="mySociety_Logo">
		<g id="Earth">
			<g id="Paintbrush">
				<g id="Refresh_F">
				</g>
			</g>
		</g>
		<g id="Duplicate_files">
		</g>
		<g id="Upload_-_Circle_1_">
		</g>
		<g id="Upload_-_Circle">
		</g>
		<path fill="#FFFFFF" d="M20.4,2c-0.8,0.3-1.6,0.6-2.4,0.7c0.9-0.5,1.5-1.4,1.8-2.4c-0.8,0.5-1.7,0.8-2.7,1C16.4,0.5,15.3,0,14.1,0
			c-2.3,0-4.2,1.9-4.2,4.3c0,0.3,0,0.7,0.1,1C6.6,5.1,3.5,3.4,1.4,0.8C1.1,1.4,0.9,2.2,0.9,2.9c0,1.5,0.7,2.8,1.9,3.6
			C2,6.5,1.4,6.3,0.8,6c0,0,0,0,0,0.1c0,2.1,1.4,3.8,3.4,4.2c-0.4,0.1-0.7,0.1-1.1,0.1c-0.3,0-0.5,0-0.8-0.1c0.5,1.7,2.1,2.9,3.9,3
			C4.8,14.4,3,15.1,1,15.1c-0.3,0-0.7,0-1-0.1C1.9,16.3,4.1,17,6.4,17c7.7,0,11.9-6.5,11.9-12.2c0-0.2,0-0.4,0-0.6
			C19.1,3.6,19.8,2.9,20.4,2z"/>
		<g id="Mail">
		</g>
	</g>
</g>
</svg>
