<svg baseProfile="tiny" xmlns="http://www.w3.org/2000/svg" viewBox="0 0 113.5 113.5"><g><g><path fill="#37373A" d="M56.7 113.5c-31.2 0-56.7-25.5-56.7-56.8s25.5-56.7 56.7-56.7 56.7 25.5 56.7 56.7-25.4 56.8-56.7 56.8zm0-107.5c-27.9 0-50.7 22.8-50.7 50.7s22.8 50.7 50.7 50.7 50.7-22.8 50.7-50.7-22.7-50.7-50.7-50.7zM41.3 57.8c0-8.5 6.9-15.4 15.4-15.4s15.4 6.9 15.4 15.4c0 5.9-3.3 11-8.2 13.6l10.2 20.3c12.3-6.4 20.7-19.2 20.7-33.9 0-21.1-17.1-38.2-38.2-38.2s-38.2 17.1-38.2 38.2c0 14.8 8.4 27.6 20.7 33.9l10.2-20.3c-4.7-2.6-8-7.7-8-13.6z"/><path fill="#333" d="M56.7 113.5c-31.2 0-56.7-25.5-56.7-56.8s25.5-56.7 56.7-56.7 56.7 25.5 56.7 56.7-25.4 56.8-56.7 56.8zm0-107.5c-27.9 0-50.7 22.8-50.7 50.7s22.8 50.7 50.7 50.7 50.7-22.8 50.7-50.7-22.7-50.7-50.7-50.7zM41.3 57.8c0-8.5 6.9-15.4 15.4-15.4s15.4 6.9 15.4 15.4c0 5.9-3.3 11-8.2 13.6l10.2 20.3c12.3-6.4 20.7-19.2 20.7-33.9 0-21.1-17.1-38.2-38.2-38.2s-38.2 17.1-38.2 38.2c0 14.8 8.4 27.6 20.7 33.9l10.2-20.3c-4.7-2.6-8-7.7-8-13.6z"/></g></g></svg>