<svg baseProfile="tiny" xmlns="http://www.w3.org/2000/svg" viewBox="0 0 113.5 113.5"><g><g><g fill="#37373A"><path d="M56.7 113.5c-31.2 0-56.7-25.5-56.7-56.8s25.5-56.7 56.7-56.7 56.7 25.5 56.7 56.7-25.4 56.8-56.7 56.8zm0-107.5c-27.9 0-50.7 22.8-50.7 50.7s22.8 50.7 50.7 50.7 50.7-22.8 50.7-50.7-22.7-50.7-50.7-50.7zM86.8 28.3c-2.6-2.6-5.8.6-5.8.6s-15.9 15.9-19.1 19c-3.2 3.2-12.3 6.8-12.3 6.8l10.5 10.5s3.9-8.9 7-12.1l19.1-19.1s3.2-3.1.6-5.7zM37.8 65.2c-4.8 11.6-4 18.1-12.2 20.2 31.3 5.4 31.3-17 31.3-17l-10.4-10.4s-6.3 1.6-8.7 7.2zm-3 16.7c2.4-2.8 6.1-16.1 11-19.4 3.3 2.3-.2 12.9-11 19.4z"/></g><g fill="#333"><path d="M56.7 113.5c-31.2 0-56.7-25.5-56.7-56.8s25.5-56.7 56.7-56.7 56.7 25.5 56.7 56.7-25.4 56.8-56.7 56.8zm0-107.5c-27.9 0-50.7 22.8-50.7 50.7s22.8 50.7 50.7 50.7 50.7-22.8 50.7-50.7-22.7-50.7-50.7-50.7zM86.8 28.3c-2.6-2.6-5.8.6-5.8.6s-15.9 15.9-19.1 19c-3.2 3.2-12.3 6.8-12.3 6.8l10.5 10.5s3.9-8.9 7-12.1l19.1-19.1s3.2-3.1.6-5.7zM37.8 65.2c-4.8 11.6-4 18.1-12.2 20.2 31.3 5.4 31.3-17 31.3-17l-10.4-10.4s-6.3 1.6-8.7 7.2zm-3 16.7c2.4-2.8 6.1-16.1 11-19.4 3.3 2.3-.2 12.9-11 19.4z"/></g></g></g></svg>