<?xml version="1.0" encoding="utf-8"?>
<!-- Generator: Adobe Illustrator 17.1.0, SVG Export Plug-In . SVG Version: 6.00 Build 0)  -->
<!DOCTYPE svg PUBLIC "-//W3C//DTD SVG 1.1 Tiny//EN" "http://www.w3.org/Graphics/SVG/1.1/DTD/svg11-tiny.dtd">
<svg version="1.1" baseProfile="tiny" xmlns="http://www.w3.org/2000/svg" xmlns:xlink="http://www.w3.org/1999/xlink" x="0px"
	 y="0px" viewBox="0 0 113.8 23.4" xml:space="preserve">
<g id="Background">
</g>
<g id="Working">
	<g id="Alert">
	</g>
	<g id="mySociety_Logo">
		<g id="Earth">
			<g id="Paintbrush">
				<g id="Refresh_F">
				</g>
			</g>
		</g>
		<g id="Duplicate_files">
		</g>
		<g id="Upload_-_Circle_1_">
		</g>
		<g id="Upload_-_Circle">
		</g>
		<g>
			<g id="logo-my_1_">
				<g>
					<path fill="#FFFFFF" d="M0.1,8.9c0-1.4,0-2.6-0.1-3.7h2.7l0.1,1.8h0.1c0.6-1,1.7-2.1,3.8-2.1c1.6,0,2.9,0.9,3.5,2.3h0.1
						c0.4-0.7,0.9-1.2,1.5-1.6c0.7-0.5,1.5-0.7,2.5-0.7c2.1,0,4.2,1.4,4.2,5.4v7.4h-3.1v-6.9c0-2.1-0.7-3.3-2.2-3.3
						c-1.1,0-1.9,0.8-2.2,1.7c-0.1,0.3-0.2,0.7-0.2,1.1v7.5H7.8v-7.2c0-1.7-0.7-3-2.2-3c-1.2,0-2,0.9-2.3,1.8
						c-0.1,0.3-0.2,0.7-0.2,1v7.4H0.1V8.9z"/>
					<path fill="#FFFFFF" d="M23.4,5.2l2.3,6.7c0.3,0.8,0.5,1.7,0.7,2.4h0.1c0.2-0.7,0.4-1.6,0.7-2.5l2-6.7h3.4l-3.1,8.5
						c-1.7,4.7-2.9,6.8-4.4,8c-1.2,1.1-2.5,1.5-3.3,1.6l-0.7-2.7c0.5-0.1,1.2-0.4,1.8-0.9c0.6-0.4,1.3-1.1,1.7-2
						c0.1-0.2,0.2-0.4,0.2-0.6c0-0.1,0-0.3-0.2-0.6L20,5.2H23.4L23.4,5.2z"/>
				</g>
			</g>
			<g id="logo-society_1_">
				<g>
					<path fill="#FFFFFF" d="M34.3,14.3c1,0.6,2.6,1.1,4.2,1.1c2,0,3.2-0.9,3.2-2.4c0-1.3-0.9-2.1-3.1-2.9c-2.8-1-4.7-2.5-4.7-5
						c0-2.8,2.4-5,6.1-5c1.9,0,3.3,0.4,4.2,0.9l-0.8,2.5c-0.6-0.3-1.8-0.8-3.4-0.8c-2,0-2.9,1.1-2.9,2.1c0,1.3,1,2,3.3,2.8
						c3,1.1,4.5,2.6,4.5,5.1c0,2.8-2.1,5.2-6.6,5.2c-1.8,0-3.7-0.5-4.7-1.1L34.3,14.3z"/>
					<path fill="#FFFFFF" d="M71.4,17.3c-0.7,0.3-2,0.7-3.5,0.7c-3.9,0-6.4-2.5-6.4-6.4c0-3.7,2.6-6.7,7-6.7c1.2,0,2.3,0.3,3.1,0.6
						l-0.6,2.4c-0.5-0.2-1.3-0.5-2.4-0.5c-2.4,0-3.9,1.8-3.8,4.1c0,2.6,1.7,4,3.8,4c1.1,0,1.9-0.2,2.5-0.5L71.4,17.3z"/>
					<path fill="#FFFFFF" d="M73.8,17.7V5.2H77v12.5H73.8z"/>
					<path fill="#FFFFFF" d="M77.1,1.7c0,0.9-0.7,1.7-1.8,1.7c-1.1,0-1.7-0.7-1.7-1.7c0-1,0.7-1.7,1.8-1.7C76.4,0,77.1,0.7,77.1,1.7
						z"/>
					<path fill="#FFFFFF" d="M82.6,12.3c0.1,2.3,1.8,3.2,3.9,3.2c1.5,0,2.5-0.2,3.5-0.6l0.5,2.2C89.3,17.6,87.8,18,86,18
						c-4.1,0-6.4-2.5-6.4-6.3c0-3.5,2.1-6.7,6.1-6.7c4.1,0,5.4,3.3,5.4,6.1c0,0.6,0,1.1-0.1,1.3H82.6z M88.1,10.1
						c0-1.2-0.5-3.1-2.6-3.1c-2,0-2.8,1.8-2.9,3.1H88.1z"/>
					<path fill="#FFFFFF" d="M97.2,2v3.2h3v2.4h-3v5.5c0,1.5,0.4,2.3,1.6,2.3c0.6,0,0.9-0.1,1.2-0.2l0.1,2.4
						c-0.5,0.2-1.3,0.3-2.3,0.3c-1.2,0-2.1-0.4-2.7-1.1c-0.7-0.7-1-1.8-1-3.5V7.6h-1.8V5.2h1.8V2.9L97.2,2z"/>
					<path fill="#FFFFFF" d="M104.8,5.2l2.3,6.7c0.3,0.8,0.5,1.7,0.7,2.4h0.1c0.2-0.7,0.4-1.6,0.7-2.5l2-6.7h3.4l-3.1,8.5
						c-1.7,4.7-2.9,6.8-4.4,8c-1.2,1.1-2.5,1.5-3.3,1.6l-0.7-2.7c0.5-0.1,1.2-0.4,1.8-0.9c0.6-0.4,1.3-1.1,1.7-2
						c0.1-0.2,0.2-0.4,0.2-0.6c0-0.1,0-0.3-0.2-0.6l-4.6-11.5L104.8,5.2L104.8,5.2L104.8,5.2z"/>
				</g>
			</g>
			<g id="logo-colourwheel_1_">
				<g>
					<path fill="#ED1C24" d="M52.9,4.4c0.9,0,1.6,0.7,1.6,1.6c0,0.9-0.7,1.6-1.6,1.6c-0.9,0-1.6-0.7-1.6-1.6
						C51.3,5.1,52,4.4,52.9,4.4z"/>
					<path fill="#29ABE2" d="M52.9,15.2c0.9,0,1.6,0.7,1.6,1.6c0,0.9-0.7,1.6-1.6,1.6c-0.9,0-1.6-0.7-1.6-1.6
						C51.3,15.9,52,15.2,52.9,15.2z"/>
					<path fill="#F7931E" d="M56.7,6c0.9,0,1.6,0.7,1.6,1.6c0,0.9-0.7,1.6-1.6,1.6c-0.9,0-1.6-0.7-1.6-1.6C55.1,6.8,55.9,6,56.7,6z"
						/>
					<path fill="#662D91" d="M50.2,16.3c-0.6,0.6-1.7,0.6-2.3,0c-0.6-0.6-0.6-1.7,0-2.3c0.6-0.6,1.7-0.6,2.3,0
						C50.8,14.7,50.8,15.7,50.2,16.3z"/>
					<path fill="#FCEE21" d="M58.3,9.7c0.9,0,1.6,0.7,1.6,1.6c0,0.9-0.7,1.6-1.6,1.6c-0.9,0-1.6-0.7-1.6-1.6
						C56.7,10.5,57.4,9.7,58.3,9.7z"/>
					<circle fill="#93278F" cx="47.5" cy="11.4" r="1.6"/>
					<path fill="#8CC63F" d="M55.6,16.3c-0.6-0.6-0.6-1.6,0-2.3c0.6-0.6,1.6-0.6,2.3,0c0.6,0.6,0.6,1.6,0,2.3
						C57.2,17,56.2,17,55.6,16.3z"/>
				</g>
			</g>
		</g>
		<g id="Mail">
		</g>
	</g>
</g>
</svg>
