<svg fill="none" height="72" viewBox="0 0 312 72" width="312" xmlns="http://www.w3.org/2000/svg" xmlns:xlink="http://www.w3.org/1999/xlink"><clipPath id="a"><path d="m0 0h312v72h-312z"/></clipPath><g clip-path="url(#a)" fill="#00a3ad"><path d="m171.21 19.7805c-.106 0-.211 0-.317 0-2.692 0-4.989 1.7421-5.86 4.1968-2.824-2.4019-6.387-3.8536-10.452-3.8536-9.08 0-16.497 7.6282-16.497 16.9984 0 9.5551 7.417 17.1305 16.497 17.1305 4.065 0 7.628-1.4517 10.452-3.8537v3.8273h6.177zm-6.177 18.8462c-.765 5.3054-5.147 9.3439-10.452 9.3439-5.781 0-10.532-4.8831-10.532-10.8749 0-5.8333 4.751-10.7164 10.532-10.7164 5.305 0 9.687 4.0649 10.452 9.3439z"/><path d="m191.824 19.6485c-4.117 0-7.628 1.5045-10.584 3.9329v-14.49094c0-3.48417-2.772-6.33484-6.177-6.33484 0 0 0 0-.026 0v51.47058h6.176v-3.9329c2.957 2.402 6.467 3.9329 10.585 3.9329 9.344 0 16.84-7.7074 16.84-17.3416.053-9.6079-7.443-17.2361-16.814-17.2361zm0 28.2693c-5.437 0-9.845-4.1969-10.584-9.6343v-2.6923c.765-5.4374 5.147-9.6342 10.584-9.6342 5.834 0 10.717 4.8831 10.717 10.9276.026 6.15-4.857 11.0332-10.717 11.0332z"/><path d="m244.087 37.0958c0 9.5551-7.496 17.1305-16.656 17.1305-9.212 0-16.708-7.5754-16.708-17.1305 0-9.5023 7.496-17.1305 16.708-17.1305 9.16.0264 16.656 7.6546 16.656 17.1305zm-6.045 0c0-5.9917-4.751-10.8748-10.584-10.8748-5.913 0-10.664 4.8831-10.664 10.8748s4.751 10.8748 10.664 10.8748c5.833 0 10.584-4.8831 10.584-10.8748z"/><path d="m273.57 9.06409v14.49091c-2.824-2.4019-6.467-3.7745-10.532-3.7745-9.211 0-16.708 7.6282-16.708 17.1305s7.497 17.3416 16.708 17.3416c4.065 0 7.708-1.5837 10.532-3.9856v3.9592h6.203v-51.49695c-3.431 0-6.203 2.85068-6.203 6.33484zm0 29.27221c-.554 5.3583-5.015 9.5023-10.532 9.5023-5.833 0-10.584-4.8831-10.584-10.9276s4.751-10.9276 10.584-10.9276c5.491 0 9.978 4.1176 10.532 9.5023z"/><path d="m290.674 25.218 6.282 14.2006 6.282-14.2006c1.452-3.273 4.25-4.7776 8.632-4.7776l-21.935 51.2331h-6.863l10.453-24.4156-11.508-26.8175c4.408 0 7.205 1.5046 8.657 4.7776z"/><path d="m135.523 37.0958c0 1.1614-.079 2.138-.264 3.0354h-26.764c1.24 4.672 5.358 7.9714 10.135 7.9714 2.27 0 4.171-.6071 5.755-1.7949h8.499c-2.956 4.9623-8.235 8.0505-14.254 8.0505-9.106 0-16.734-7.6282-16.734-17.2624 0-9.6343 7.602-17.3416 16.734-17.3416 9.344.0263 16.893 7.7337 16.893 17.3416zm-27.028-3.0883h20.43c-1.241-4.5399-5.411-7.9713-10.295-7.9713-4.856 0-8.816 3.3786-10.135 7.9713z"/><path d="m85.6365 6.16064h-14.3854v48.06556c3.6425 0 6.5988-3.0354 6.5988-6.7835v-7.0475h7.7866c2.4019 0 6.0445-1.1614 9.0007-3.0355 4.7512-2.9562 7.8398-8.3144 7.8398-14.3853 0-8.9744-7.2063-16.81376-16.8405-16.81376zm0 27.63576h-7.7602v-20.9842h7.7602c5.4374 0 10.1885 4.7512 10.1885 10.2413 0 6.0709-4.7511 10.7429-10.1885 10.7429z"/><path d="m9.11694 51.3228c12.53776 0 19.92836-7.3379 19.92836-19.9284-12.5905.0264-19.92836 7.417-19.92836 19.9284z"/><path d="m9.11694 9.11694c0 12.53776 7.33786 19.92836 19.92836 19.92836-.0264-12.5905-7.417-19.92836-19.92836-19.92836z"/><path d="m51.3229 9.11694c0 12.53776-7.3379 19.92836-19.9284 19.92836.0264-12.5905 7.4171-19.92836 19.9284-19.92836z"/><path d="m35.1954 12.865c.4487-.4487.9238-.871 1.4253-1.2669-.7126-3.85372-2.8243-7.65463-6.3876-11.217973-3.5634 3.563343-5.675 7.364253-6.3876 11.217973.5015.3959.9766.8182 1.4253 1.2669 2.3492 2.3492 4.0121 5.3583 4.9623 8.8688.9238-3.5105 2.6131-6.5196 4.9623-8.8688z"/><path d="m51.3228 51.3229c-12.5377 0-19.9284-7.3379-19.9284-19.9284 12.5905.0264 19.9284 7.4171 19.9284 19.9284z"/><path d="m47.5747 35.1954c.4487.4487.8711.9238 1.267 1.4253 3.8537-.7126 7.6546-2.8243 11.2179-6.3876-3.5633-3.5634-7.3642-5.675-11.2179-6.3876-.3959.5015-.8183.9766-1.267 1.4253-2.3492 2.3492-5.3582 4.0121-8.8688 4.9623 3.5106.9238 6.5196 2.6131 8.8688 4.9623z"/><path d="m35.1954 47.5747c-2.3492-2.3492-4.0121-5.3582-4.9623-8.8688-.9502 3.5106-2.6131 6.5196-4.9623 8.8688-.4487.4487-.9238.8711-1.4253 1.267.7126 3.8537 2.8242 7.6546 6.3876 11.2179 3.5633-3.5633 5.675-7.3642 6.3876-11.2179-.5015-.3959-.9766-.8183-1.4253-1.267z"/><path d="m12.865 35.1954c2.3492-2.3492 5.3583-4.0121 8.8688-4.9623-3.5105-.9502-6.5196-2.6131-8.8688-4.9623-.4487-.4487-.871-.9238-1.2669-1.4253-3.85372.7126-7.65462 2.8242-11.217973 6.3876 3.563353 3.5633 7.364253 5.675 11.217973 6.3876.3959-.5015.8182-.9766 1.2669-1.4253z"/></g></svg>