<svg width="1635" height="1599" fill="none" xmlns="http://www.w3.org/2000/svg"><path fill-rule="evenodd" clip-rule="evenodd" d="M542.89 951.49h-.91a120.905 120.905 0 00-81.41 32.91 121.623 121.623 0 00-36.01 109.51 121.592 121.592 0 0024.397 54.2 121.57 121.57 0 0047.172 36.17 121.579 121.579 0 0058.678 9.49 121.523 121.523 0 0056.169-19.45 121.601 121.601 0 0040.242-43.75 121.584 121.584 0 0014.702-57.59V951.49H542.89zm107.89 15.12v106.37c.089 21.07-6.054 41.7-17.659 59.29a106.774 106.774 0 01-47.56 39.56 106.866 106.866 0 01-61.514 6.58 106.905 106.905 0 01-54.845-28.63 106.835 106.835 0 0114.017-164.252 106.834 106.834 0 0158.901-18.918h108.66zm440.6-726.9a286.005 286.005 0 00-200.579 82.088A286.003 286.003 0 00805.38 520.98v126.85h24.24V523.58a261.526 261.526 0 01161.961-239.643 261.532 261.532 0 01283.739 56.16 261.578 261.578 0 0171.95 132.818 261.506 261.506 0 01-13.49 150.453 261.532 261.532 0 01-238.32 163.902h-4.26l-547.61-.35h-2.36A286 286 0 00485.762 1353a285.953 285.953 0 00164.526-14.73 285.958 285.958 0 00128.943-103.24 286.004 286.004 0 0050.349-157.32V811.78h264.12a286.035 286.035 0 00201.91-84.611 286.04 286.04 0 0082.94-202.599 286.03 286.03 0 00-287.21-284.85l.04-.01zm-286.26 833.63a261.438 261.438 0 01-43.907 144.69 261.473 261.473 0 01-116.668 96.19 261.524 261.524 0 01-150.409 15.51 261.498 261.498 0 01-133.841-70.36A261.452 261.452 0 01539.12 811.6h266v261.74zm693.65-168.67A440.389 440.389 0 001433.28 795a440.859 440.859 0 0089.33-223.44 440.742 440.742 0 00-41.3-237.066 440.84 440.84 0 00-159.63-180.068A440.856 440.856 0 001091.28 85h-.16a438.89 438.89 0 00-277.73 98.82 440.848 440.848 0 00-460.648-48.358A440.844 440.844 0 00103.12 525.62v.12a440.778 440.778 0 0095.3 273.86 440.865 440.865 0 00-6.373 539.7 440.899 440.899 0 00236.273 159.73 440.914 440.914 0 00284.61-18.33l1.62-.67a440.302 440.302 0 00103.14-61 440.833 440.833 0 00539.54 6.32 440.782 440.782 0 00159.73-236.16 440.859 440.859 0 00-18.2-284.53l.01.01zm10.35 251.89c-14.31 72-47 139.07-94.88 194.71a425.732 425.732 0 01-394.16 141.98 425.743 425.743 0 01-197.25-89.49l-5.14-4.2-5.1 4.19a424.886 424.886 0 01-103.86 62.31l-1.59.67a425.8 425.8 0 01-276.232 17.24 425.8 425.8 0 01-228.465-156.22 425.77 425.77 0 0111.547-523.36l3.9-4.78-3.9-4.78a425.625 425.625 0 01-95.74-269 425.707 425.707 0 01474.527-416.037A425.71 425.71 0 01808.81 199.44l4.83 3.85 4.73-4a423.247 423.247 0 01565.48 26.041 423.28 423.28 0 01125.28 276.049 423.296 423.296 0 01-91.46 289.02l-3.83 4.83 4 4.73a425.858 425.858 0 0191.28 356.6zm-205.83-265.7l-2.2 1.33-2.07 1.22-.1.06-4.13 2.39-2.11 1.19.91 1c2.35 2.733 4.65 5.507 6.9 8.32a267.642 267.642 0 0157.85 180.9A267.605 267.605 0 011281.6 1261a267.676 267.676 0 01-172.69 79.06 267.659 267.659 0 01-181.66-55.43c-3.23-2.49-6.38-5.06-9.48-7.69-1.94 3.58-3.94 7.13-6 10.65-.747 1.28-1.5 2.56-2.26 3.84a282.039 282.039 0 00193.94 63.58 282.013 282.013 0 00186.04-83.92 282.026 282.026 0 0080.7-187.47 281.984 281.984 0 00-66.92-192.81l.02.05zm-153.61 288.82c23.65-13 42.3-33.5 53.01-58.27a121.579 121.579 0 006.19-78.53 121.63 121.63 0 00-43.24-65.851 121.605 121.605 0 00-74.52-25.539H969.54V1073a121.527 121.527 0 0015.903 60.3 121.522 121.522 0 0043.717 44.48 121.443 121.443 0 0060.02 16.95c21.14.33 42-4.86 60.52-15.05h-.02zm-168.14-106.67V963.49h109.58c18.17.008 36.05 4.532 52.04 13.164a109.774 109.774 0 0139.55 36.286 109.589 109.589 0 0117.57 50.72 109.615 109.615 0 01-41.33 95.53 109.648 109.648 0 01-102.53 17.92 109.526 109.526 0 01-45.22-28.92 109.332 109.332 0 01-29.69-75.16l.03-.02zM324.33 708.52c7.08-4.22 14.21-8.37 21.5-12.23a267.29 267.29 0 01-7.77-9.46 261.3 261.3 0 01366.77-366.75c2.6 2 5.173 4.09 7.72 6.27l.12.1c.54.453 1.08.913 1.62 1.38 1.58-2.98 3.196-5.927 4.85-8.84.18-.33.37-.65.56-1l.18.15.46-.83.09-.16a398.35 398.35 0 013.18-5.55v-.05l-.15-.13.16-.27c.71-1.21 1.42-2.42 2.14-3.63l.66-1.1-2.43-2a261.497 261.497 0 00-6.75-5.24c-113.12-85.33-272.74-74.81-373.81 26.25C241.9 426.92 231.76 587.57 318.3 700.92c1.96 2.553 3.97 5.087 6.03 7.6zm308.35-266.36l-.3-.31a122.82 122.82 0 00-12.61-11.4 121.625 121.625 0 00-109.213-20.966 121.634 121.634 0 00-86.25 133.536 121.623 121.623 0 0064.025 90.927 121.626 121.626 0 0055.498 13.883H665.9V525.75a121 121 0 00-23.45-71.3 122.22 122.22 0 00-9.49-11.4l-.31-.31c-.08-.1-.18-.19-.27-.29h.58a3.827 3.827 0 01-.28-.29zm21.22 83.6v110.07h-110a109.624 109.624 0 01-107.933-96.796 109.615 109.615 0 0136.204-94.896 109.616 109.616 0 0198.584-24.435 109.624 109.624 0 0146.395 24.127l6.58 6.88a109.093 109.093 0 0130.17 75.05zm348.75-82.71a121.11 121.11 0 00-32.95 82.7v122.08h122.07a121.618 121.618 0 0098.49-51.602 121.596 121.596 0 0021-53.2c2.68-19.152.74-38.664-5.63-56.919a121.722 121.722 0 00-31.03-48.049 121.611 121.611 0 00-106.69-31.29c-19 3.642-36.84 11.76-52.07 23.68a123.558 123.558 0 00-12.62 11.4l-.3.31-.27.29h.57l-.27.29-.3.31zm9.25 7.69l6.58-6.88a109.623 109.623 0 0198.69-24.016 109.638 109.638 0 0146.29 24.324 109.585 109.585 0 0129.75 43.002 109.528 109.528 0 016.45 51.894 109.63 109.63 0 01-18.32 48.976 109.636 109.636 0 01-38.93 34.914 109.646 109.646 0 01-50.68 12.906h-110v-110.1a109.046 109.046 0 0130.17-75.02z" fill="#F7F9FA"/></svg>