<svg width="165" height="64" fill="none" xmlns="http://www.w3.org/2000/svg"><path d="M85.763 30.201v-.074c3.142-.569 5.263-2.762 5.263-5.904 0-5.788-5.112-6.772-8.52-6.772h-9.24v26.412h9.24c3.333 0 9.316-.984 9.316-7.644 0-3.254-2.462-5.677-6.06-6.018zm-7.196-8.589h2.045c2.424 0 5.114.228 5.114 3.293 0 2.725-2.766 3.217-5 3.217h-2.159v-6.51zm2.5 18.088h-2.5v-7.645h2.5c2.65 0 5.453.532 5.453 3.974 0 3.065-2.992 3.67-5.453 3.67zm19.01-10.897h-.076v-4.428h-4.506v19.487h5.075v-7.153c0-2.799 0-7.946 4.127-7.946a5.172 5.172 0 012.272.418v-5.108a5.489 5.489 0 00-1.552-.153c-3.031 0-5.112 3.066-5.34 4.883zm17.344-4.883c-6.058 0-9.051 4.656-9.051 10.293 0 6.395 3.75 10.104 10.186 10.104 2.332.074 4.643-.461 6.704-1.553V38.64a13.175 13.175 0 01-6.476 1.968c-3.142 0-5.339-1.78-5.567-4.92h13.482c0-6.81-2.044-11.768-9.278-11.768zm-4.204 8.288c.228-2.611 1.667-4.58 4.508-4.58 2.84 0 3.976 2.12 4.127 4.58h-8.635zm28.176-8.288a7.292 7.292 0 00-6.401 3.103h-.074v-2.648h-4.81v19.487h5.074v-9.536c0-2.497.795-6.47 4.469-6.47 3.256 0 3.294 3.216 3.294 5.6v10.406h5.074V31.564c0-4.388-2.006-7.644-6.626-7.644zm22.723 15.931c-.71.378-1.508.56-2.311.53-1.931 0-2.386-1.551-2.386-3.217v-9.08h4.506v-3.71h-4.506v-5.523l-5.074 1.627v3.897h-3.751v3.708h3.751v9.914c0 3.86 2.197 6.32 6.173 6.32a13.332 13.332 0 003.749-.456l-.151-4.01z" fill="#fff"/><path d="M44.096 0A19.982 19.982 0 0032.02 4.07 19.958 19.958 0 003.236 9.036 19.92 19.92 0 000 19.319L0 20.512A19.71 19.71 0 004.063 32 19.681 19.681 0 000 43.453L0 44.646a19.92 19.92 0 003.222 10.296c2 3.071 4.81 5.532 8.119 7.111a19.962 19.962 0 0020.678-2.123 19.958 19.958 0 0026.182-1.77A19.922 19.922 0 0059.97 32a19.92 19.92 0 00-5.357-29.005A19.959 19.959 0 0044.096 0zm-4.203 24.134v-4.222l-.001-.035a4.199 4.199 0 014.231-4.147 4.205 4.205 0 014.175 4.204 4.2 4.2 0 01-4.202 4.2h-4.203zm-19.95 0a4.205 4.205 0 01-4.198-4.2 4.198 4.198 0 014.197-4.2 4.207 4.207 0 014.204 4.2v4.2h-4.204zm19.95 15.732h4.203a4.205 4.205 0 013.882 2.588 4.198 4.198 0 01-3.05 5.73 4.206 4.206 0 01-5.036-4.097v-4.22zm-19.95 8.402a4.206 4.206 0 01-4.21-4.201 4.2 4.2 0 014.21-4.2h4.203v4.199a4.204 4.204 0 01-4.204 4.202z" fill="#fff"/><path d="M40.185 47.74a5.332 5.332 0 01-1.458-3.674s.002 0 .002-5.363h5.367a5.371 5.371 0 014.488 2.418 5.36 5.36 0 01-1.163 7.158 5.37 5.37 0 01-7.236-.54zM7.598 19.933a12.325 12.325 0 013.615-8.721A12.344 12.344 0 0119.942 7.6a12.353 12.353 0 018.728 3.613 12.333 12.333 0 013.615 8.721v12.332H19.943a12.352 12.352 0 01-8.73-3.611 12.333 12.333 0 01-3.615-8.721zm-6.434-.58v1.158a18.763 18.763 0 005.7 12.898 18.793 18.793 0 0013.078 5.293h12.343v5.363a11.793 11.793 0 007.29 10.901 11.818 11.818 0 0012.869-2.557 11.797 11.797 0 002.561-12.858 11.816 11.816 0 00-10.909-7.285H38.73V19.934c0-4.928-1.94-9.66-5.4-13.17a18.795 18.795 0 00-26.36-.408 18.765 18.765 0 00-5.805 12.998" fill="url(#paint0_linear)"/><path d="M31.75 44.066V31.731h12.346A12.352 12.352 0 0155.5 39.347a12.325 12.325 0 01-2.677 13.441 12.348 12.348 0 01-21.073-8.722zM14.575 19.934a5.36 5.36 0 011.575-3.788 5.37 5.37 0 019.16 3.788v5.363h-5.367a5.371 5.371 0 01-4.96-3.31 5.356 5.356 0 01-.408-2.053zm-6.442 0a11.79 11.79 0 003.46 8.342 11.809 11.809 0 008.35 3.456h5.367v12.334c0 3.712 1.101 7.34 3.165 10.427a18.798 18.798 0 0028.901 2.845 18.765 18.765 0 004.074-20.453 18.772 18.772 0 00-6.918-8.424 18.795 18.795 0 00-10.436-3.164H31.75v-5.363a11.791 11.791 0 00-3.45-8.36 11.807 11.807 0 00-8.358-3.465 11.817 11.817 0 00-8.36 3.465 11.796 11.796 0 00-3.449 8.36" fill="url(#paint1_linear)"/><path d="M14.575 44.066a5.357 5.357 0 013.313-4.955 5.37 5.37 0 012.054-.408h5.368v5.363a5.36 5.36 0 01-5.367 5.37 5.371 5.371 0 01-4.96-3.316 5.359 5.359 0 01-.408-2.054zM31.75 19.934a12.327 12.327 0 017.618-11.397 12.354 12.354 0 0113.454 2.672A12.332 12.332 0 0155.5 24.65a12.35 12.35 0 01-11.404 7.616H31.75V19.934zm-6.44 0v12.332h-5.367A11.816 11.816 0 009.03 39.55a11.79 11.79 0 002.558 12.86 11.811 11.811 0 0012.87 2.558 11.792 11.792 0 007.29-10.901v-5.363h12.347c3.716 0 7.348-1.1 10.437-3.164a18.773 18.773 0 006.918-8.424A18.756 18.756 0 0057.378 6.66a18.79 18.79 0 00-20.473-4.068 18.782 18.782 0 00-8.43 6.914 18.76 18.76 0 00-3.165 10.428" fill="url(#paint2_linear)"/><path d="M7.598 44.066c0-3.271 1.3-6.409 3.615-8.722a12.35 12.35 0 018.73-3.613h12.342v12.335c0 3.271-1.3 6.408-3.615 8.721a12.349 12.349 0 01-17.457 0 12.328 12.328 0 01-3.615-8.721zm31.13-24.132a5.36 5.36 0 013.312-4.953 5.371 5.371 0 015.848 1.162 5.36 5.36 0 01-3.792 9.154h-5.369v-5.363zm-6.443 0v5.363H19.943A18.793 18.793 0 006.863 30.59a18.763 18.763 0 00-5.7 12.898v1.158a18.765 18.765 0 005.805 12.998 18.796 18.796 0 0026.36-.407 18.764 18.764 0 005.4-13.171V31.731h5.367a11.815 11.815 0 0010.908-7.285 11.79 11.79 0 00-2.563-12.857 11.811 11.811 0 00-12.868-2.556 11.792 11.792 0 00-7.288 10.9" fill="url(#paint3_linear)"/><path fill-rule="evenodd" clip-rule="evenodd" d="M11.193 27.451a11.524 11.524 0 01.589-15.672 11.544 11.544 0 0115.685-.588c.169-.323.35-.639.537-.95a12.62 12.62 0 00-16.981.78 12.598 12.598 0 00-.781 16.968c.31-.189.627-.368.951-.538zm41.652 9.096a11.526 11.526 0 01-.59 15.673 11.545 11.545 0 01-15.686.588c-.169.323-.349.639-.537.95a12.62 12.62 0 0016.981-.78 12.598 12.598 0 00.781-16.968c-.31.188-.627.367-.949.537zm3.863-16.613a12.595 12.595 0 00-3.686-8.927 12.614 12.614 0 00-8.927-3.7 12.622 12.622 0 00-8.928 3.7 12.603 12.603 0 00-3.686 8.927v5.36h1.073l.002-5.36a11.523 11.523 0 017.125-10.651 11.548 11.548 0 0112.575 2.5 11.528 11.528 0 012.5 12.565 11.546 11.546 0 01-10.662 7.117l-24.151-.002a12.62 12.62 0 00-7.009 2.123A12.605 12.605 0 007.57 46.524a12.6 12.6 0 003.452 6.453 12.617 12.617 0 0013.746 2.733 12.596 12.596 0 007.787-11.644v-11.53l11.54.001a12.62 12.62 0 008.92-3.691 12.598 12.598 0 003.694-8.912zM31.48 44.066a11.523 11.523 0 01-7.124 10.652 11.548 11.548 0 01-12.575-2.5A11.528 11.528 0 019.28 39.653a11.546 11.546 0 0110.66-7.118h11.541v11.531z" fill="#fff"/><defs><linearGradient id="paint0_linear" x1="6.657" y1="6.66" x2="52.407" y2="52.447" gradientUnits="userSpaceOnUse"><stop stop-color="#BA181D"/><stop offset=".035" stop-color="#BA181D"/><stop offset=".445" stop-color="#D65C1A"/><stop offset=".82" stop-color="#EC9318"/><stop offset="1" stop-color="#F5A917"/></linearGradient><linearGradient id="paint1_linear" x1="11.592" y1="11.591" x2="57.34" y2="57.377" gradientUnits="userSpaceOnUse"><stop stop-color="#DA92BE"/><stop offset=".581" stop-color="#8869A9"/><stop offset=".984" stop-color="#534F9C"/><stop offset="1" stop-color="#534F9C"/></linearGradient><linearGradient id="paint2_linear" x1="11.591" y1="52.409" x2="57.34" y2="6.623" gradientUnits="userSpaceOnUse"><stop stop-color="#F5E63C"/><stop offset=".138" stop-color="#D6DD44"/><stop offset=".561" stop-color="#7CC25A"/><stop offset=".858" stop-color="#44B168"/><stop offset="1" stop-color="#2EAA6D"/></linearGradient><linearGradient id="paint3_linear" x1="6.658" y1="57.34" x2="52.407" y2="11.553" gradientUnits="userSpaceOnUse"><stop stop-color="#B5D9BF"/><stop offset=".03" stop-color="#AFD6BF"/><stop offset=".506" stop-color="#55AEC6"/><stop offset=".84" stop-color="#1D94C9"/><stop offset="1" stop-color="#078ACB"/></linearGradient></defs></svg>
