<svg width="77" height="30" viewBox="0 0 77 30" fill="none" xmlns="http://www.w3.org/2000/svg">
<g clip-path="url(#clip0_1_9639)">
<path d="M40.201 14.1569V14.1219C41.674 13.8549 42.668 12.8269 42.668 11.3549C42.668 8.64093 40.272 8.17993 38.675 8.17993H34.343V20.5599H38.675C40.237 20.5599 43.042 20.0999 43.042 16.9779C43.042 15.4519 41.888 14.3169 40.202 14.1569H40.201ZM36.828 10.1309H37.787C38.923 10.1309 40.184 10.2369 40.184 11.6739C40.184 12.9509 38.887 13.1819 37.84 13.1819H36.828V10.1309ZM38 18.6089H36.828V15.0259H38C39.242 15.0259 40.556 15.2749 40.556 16.8879C40.556 18.3249 39.154 18.6089 38 18.6089ZM46.911 13.5009H46.875V11.4259H44.763V20.5599H47.143V17.2079C47.143 15.8959 47.143 13.4829 49.077 13.4829C49.442 13.4669 49.806 13.5329 50.142 13.6779V11.2839C49.904 11.2257 49.6588 11.2018 49.414 11.2129C47.994 11.2129 47.018 12.6499 46.911 13.5009ZM55.041 11.2129C52.201 11.2129 50.798 13.3949 50.798 16.0369C50.798 19.0349 52.556 20.7729 55.573 20.7729C56.6658 20.8081 57.7488 20.5575 58.715 20.0459V18.1129C57.8009 18.6793 56.7547 18.9971 55.68 19.0349C54.207 19.0349 53.177 18.2009 53.07 16.7289H59.39C59.39 13.5359 58.432 11.2129 55.041 11.2129ZM53.071 15.0969C53.177 13.8739 53.852 12.9509 55.184 12.9509C56.515 12.9509 57.047 13.9439 57.118 15.0969H53.07H53.071ZM66.278 11.2129C65.6954 11.179 65.1139 11.2949 64.5887 11.5494C64.0636 11.8039 63.6124 12.1886 63.278 12.6669H63.243V11.4259H60.988V20.5599H63.367V16.0899C63.367 14.9199 63.739 13.0569 65.462 13.0569C66.988 13.0569 67.005 14.5649 67.005 15.6819V20.5599H69.385V14.7959C69.385 12.7389 68.443 11.2129 66.278 11.2129ZM76.929 18.6799C76.5964 18.857 76.2226 18.9426 75.846 18.9279C74.941 18.9279 74.728 18.2009 74.728 17.4209V13.1639H76.84V11.4259H74.728V8.83593L72.349 9.59893V11.4259H70.591V13.1639H72.349V17.8109C72.349 19.6209 73.379 20.7729 75.243 20.7729C75.8358 20.7857 76.4274 20.714 77 20.5599L76.93 18.6799H76.929Z" fill="black"/>
<path d="M20.67 -6.80533e-06C18.6253 0.00109371 16.6372 0.671186 15.009 1.90799C13.9866 1.13057 12.815 0.572011 11.5673 0.267127C10.3196 -0.0377571 9.02243 -0.0824382 7.75669 0.135867C6.49094 0.354173 5.28372 0.830788 4.21022 1.53602C3.13671 2.24125 2.21994 3.15999 1.517 4.23499C0.577973 5.67171 0.053087 7.33944 0 9.05499L0 9.61499C0.0503165 11.5661 0.717192 13.4512 1.905 15C0.719714 16.5436 0.0529255 18.4225 0 20.368L0 20.928C0.049441 22.6456 0.571899 24.3162 1.50985 25.756C2.4478 27.1957 3.76485 28.3487 5.316 29.088C6.86728 29.8283 8.59251 30.127 10.3024 29.9513C12.0122 29.7756 13.6407 29.1323 15.009 28.092C16.8095 29.4605 19.0447 30.1304 21.3011 29.9778C23.5575 29.8252 25.6822 28.8604 27.282 27.262C28.8803 25.6643 29.845 23.5412 29.9972 21.2864C30.1495 19.0316 29.479 16.7981 28.11 15C28.8989 13.9643 29.4625 12.7751 29.7646 11.5087C30.0668 10.2423 30.1007 8.92672 29.8644 7.64642C29.628 6.36613 29.1265 5.1494 28.3922 4.07436C27.6578 2.99933 26.7067 2.08974 25.6 1.40399C24.1194 0.486161 22.412 -9.11768e-05 20.67 -6.80533e-06ZM18.7 11.313V9.31699C18.7063 8.79661 18.9185 8.29992 19.2902 7.9356C19.6618 7.57128 20.1626 7.36899 20.683 7.37299C21.0713 7.37602 21.4501 7.49368 21.7717 7.71121C22.0934 7.92873 22.3437 8.23643 22.4911 8.59569C22.6385 8.95494 22.6765 9.34973 22.6004 9.73051C22.5242 10.1113 22.3373 10.4611 22.063 10.736C21.693 11.105 21.193 11.312 20.67 11.313H18.7ZM9.348 11.313C8.82621 11.3119 8.3261 11.1041 7.95723 10.7351C7.58836 10.366 7.38079 9.86579 7.38 9.34399C7.38 8.82178 7.58745 8.32096 7.95671 7.9517C8.32597 7.58244 8.82679 7.37499 9.349 7.37499C9.87121 7.37499 10.372 7.58244 10.7413 7.9517C11.1106 8.32096 11.318 8.82178 11.318 9.34399V11.313H9.348ZM18.7 18.687H20.67C20.9608 18.6874 21.2479 18.752 21.5108 18.8764C21.7737 19.0007 22.0058 19.1817 22.1905 19.4063C22.3753 19.6308 22.5081 19.8935 22.5794 20.1754C22.6507 20.4574 22.6587 20.7516 22.603 21.037C22.5468 21.3225 22.4281 21.592 22.2552 21.8261C22.0824 22.0601 21.8598 22.253 21.6035 22.3907C21.3472 22.5284 21.0635 22.6076 20.7729 22.6225C20.4824 22.6374 20.1921 22.5877 19.923 22.477C19.5632 22.3295 19.255 22.0789 19.0374 21.7566C18.8197 21.4343 18.7023 21.0549 18.7 20.666V18.687ZM9.348 22.626C8.82525 22.626 8.32386 22.4185 7.95394 22.0492C7.58401 21.6798 7.37579 21.1787 7.375 20.656C7.37487 20.397 7.42584 20.1406 7.52499 19.9014C7.62415 19.6622 7.76954 19.4449 7.95283 19.262C8.13612 19.0791 8.3537 18.9341 8.59311 18.8355C8.83252 18.7368 9.08905 18.6863 9.348 18.687H11.318V20.656C11.318 21.1785 11.1104 21.6795 10.741 22.049C10.3716 22.4184 9.87048 22.626 9.348 22.626Z" fill="white"/>
<path d="M18.837 22.3781C18.3969 21.9129 18.1521 21.2965 18.153 20.6561L18.154 18.1421H20.67C21.2994 18.1421 21.906 18.378 22.37 18.8032C22.8341 19.2284 23.122 19.8121 23.177 20.4391C23.2319 21.0662 23.0493 21.691 22.6654 22.1899C22.2815 22.6889 21.7243 23.0254 21.104 23.1331C20.6932 23.2046 20.271 23.1731 19.8754 23.0413C19.4797 22.9096 19.1229 22.6817 18.837 22.3781ZM3.56204 9.34406C3.56169 8.20029 3.90086 7.08216 4.53658 6.13135C5.1723 5.18053 6.07595 4.43981 7.13304 4.00306C8.55061 3.41671 10.1429 3.41688 11.5604 4.00355C12.9778 4.59021 14.1045 5.7154 14.693 7.13206C14.984 7.83306 15.133 8.58506 15.133 9.34406V15.1241H9.34904C8.20516 15.1239 7.08694 14.785 6.1355 14.15C5.18406 13.515 4.44203 12.6124 4.00304 11.5561C3.71248 10.8548 3.56296 10.1031 3.56304 9.34406H3.56204ZM0.545044 9.07206V9.61506C0.615943 11.9013 1.57474 14.07 3.21804 15.6611C4.8617 17.2527 7.06007 18.1424 9.34804 18.1421H15.134V20.6561C15.1339 21.7504 15.4585 22.8201 16.0668 23.7298C16.6751 24.6395 17.5397 25.3482 18.551 25.7661C19.307 26.0786 20.1227 26.2197 20.9397 26.1795C21.7567 26.1392 22.5546 25.9185 23.2762 25.5332C23.9977 25.1479 24.625 24.6076 25.1129 23.9511C25.6008 23.2945 25.9372 22.5381 26.098 21.7361C26.3119 20.663 26.2025 19.5506 25.7836 18.5398C25.3647 17.529 24.6552 16.6653 23.745 16.0581C22.8348 15.45 21.7647 15.1253 20.67 15.1251H18.154V9.34506C18.154 7.03406 17.245 4.81606 15.623 3.17006C14.4129 1.943 12.8694 1.09784 11.1836 0.739225C9.49793 0.380613 7.74406 0.5243 6.13919 1.15249C4.53433 1.78069 3.14896 2.8658 2.15462 4.27346C1.16029 5.68113 0.600666 7.34952 0.545044 9.07206Z" fill="url(#paint0_linear_1_9639)"/>
<path d="M14.883 20.6559V14.8739H20.67C21.8139 14.8744 22.9321 15.2138 23.8834 15.8491C24.8347 16.4845 25.5764 17.3874 26.015 18.4439C26.453 19.5002 26.5676 20.6628 26.3444 21.7843C26.1211 22.9058 25.5701 23.9358 24.761 24.7439C23.9517 25.5522 22.921 26.1025 21.7992 26.3254C20.6773 26.5484 19.5146 26.4339 18.4577 25.9966C17.4008 25.5592 16.4972 24.8185 15.861 23.8679C15.2248 22.9174 14.8845 21.7997 14.883 20.6559ZM6.83301 9.34392C6.8338 8.67761 7.09919 8.03888 7.57081 7.56819C8.04244 7.09751 8.68169 6.83339 9.34801 6.83392C10.0142 6.83418 10.6531 7.09852 11.1247 7.56901C11.5963 8.0395 11.8622 8.67776 11.864 9.34392V11.8579H9.34801C8.68115 11.8577 8.04165 11.5928 7.56992 11.1214C7.0982 10.6501 6.8328 10.0108 6.83201 9.34392H6.83301ZM3.81301 9.34392C3.81255 10.4383 4.13706 11.5082 4.74539 12.4179C5.35371 13.3276 6.21846 14.0363 7.23001 14.4539C7.90101 14.7309 8.62101 14.8739 9.34801 14.8739H11.864V20.6559C11.8637 22.3965 12.38 24.0981 13.3476 25.545C14.3151 26.992 15.6903 28.1192 17.299 28.7839C18.9079 29.4498 20.6779 29.6242 22.3858 29.285C24.0937 28.9457 25.6628 28.1081 26.895 26.8779C28.1274 25.6479 28.967 24.0797 29.3074 22.372C29.6477 20.6644 29.4735 18.8941 28.8069 17.2856C28.1402 15.677 27.0111 14.3026 25.5625 13.3363C24.114 12.3701 22.4112 11.8555 20.67 11.8579H14.883V9.34392C14.886 8.24812 14.5629 7.1762 13.955 6.26449C13.3471 5.35278 12.4817 4.64248 11.469 4.22392C10.7967 3.94546 10.0762 3.80218 9.34848 3.80225C8.62081 3.80232 7.90028 3.94574 7.22804 4.22433C6.55581 4.50292 5.94504 4.91121 5.43063 5.42589C4.91622 5.94057 4.50825 6.55154 4.23001 7.22392C3.95289 7.89627 3.81118 8.6167 3.81301 9.34392Z" fill="url(#paint1_linear_1_9639)"/>
<path d="M6.83195 20.656C6.83169 20.3256 6.8966 19.9984 7.02297 19.6932C7.14935 19.3879 7.33469 19.1106 7.56841 18.877C7.80212 18.6435 8.0796 18.4584 8.38496 18.3323C8.69032 18.2061 9.01757 18.1415 9.34795 18.142H11.864V20.656C11.8649 21.1539 11.7177 21.6408 11.4412 22.0548C11.1646 22.4688 10.7712 22.7912 10.311 22.981C9.92862 23.1389 9.51328 23.2001 9.10165 23.1593C8.69001 23.1185 8.29477 22.977 7.95086 22.7471C7.60694 22.5173 7.32494 22.2063 7.12979 21.8416C6.93464 21.4768 6.83235 21.0697 6.83195 20.656ZM14.882 9.34401C14.8816 8.19999 15.2209 7.08162 15.8568 6.13062C16.4927 5.17961 17.3966 4.43878 18.454 4.00201C19.5112 3.56436 20.6743 3.44972 21.7967 3.67254C22.919 3.89537 23.9501 4.44568 24.76 5.25401C25.5695 6.06238 26.1209 7.0928 26.3444 8.21478C26.5679 9.33676 26.4535 10.4998 26.0155 11.5567C25.5775 12.6136 24.8358 13.5167 23.8842 14.1518C22.9326 14.7868 21.814 15.1252 20.67 15.124H14.883V9.34401H14.882ZM11.864 9.34401V15.124H9.34795C8.25337 15.1243 7.18338 15.4487 6.27304 16.0565C5.3627 16.6643 4.65281 17.5281 4.23295 18.539C3.81384 19.5497 3.70414 20.6621 3.91777 21.7352C4.13139 22.8083 4.65872 23.7939 5.43295 24.567C6.20718 25.3403 7.19319 25.8669 8.26648 26.0803C9.33978 26.2936 10.4522 26.1841 11.4633 25.7657C12.4745 25.3472 13.3389 24.6385 13.9475 23.7291C14.5562 22.8197 14.8817 21.7503 14.883 20.656V18.142H20.67C22.4109 18.1417 24.1127 17.6255 25.5606 16.6588C27.0085 15.692 28.1374 14.3179 28.805 12.71C29.4714 11.1023 29.6458 9.33305 29.306 7.62621C28.9661 5.91938 28.1274 4.35179 26.896 3.12201C25.6643 1.892 24.0958 1.0545 22.3885 0.715274C20.6812 0.376044 18.9117 0.550289 17.3033 1.21601C15.695 1.88172 14.32 3.00906 13.3519 4.45568C12.3838 5.90231 11.866 7.60334 11.864 9.34401Z" fill="url(#paint2_linear_1_9639)"/>
<path d="M3.56202 20.656C3.56204 19.8967 3.71166 19.1449 4.00232 18.4434C4.29298 17.742 4.71899 17.1047 5.25602 16.568C6.34157 15.4832 7.81341 14.8739 9.34802 14.874H15.134V20.656C15.1339 21.4153 14.9841 22.1672 14.6933 22.8686C14.4024 23.5701 13.9762 24.2073 13.439 24.744C12.6295 25.5517 11.5989 26.1016 10.4772 26.3243C9.35551 26.547 8.19299 26.4324 7.13632 25.9951C6.07965 25.5578 5.17618 24.8174 4.53988 23.8671C3.90358 22.9169 3.56297 21.7996 3.56102 20.656H3.56202ZM18.152 9.34397C18.1518 8.9719 18.2342 8.60443 18.3934 8.26812C18.5525 7.9318 18.7844 7.63503 19.0722 7.39926C19.36 7.16348 19.6966 6.99459 20.0577 6.90479C20.4188 6.81498 20.7953 6.80651 21.16 6.87997C21.5245 6.95262 21.8683 7.10511 22.1669 7.32648C22.4654 7.54785 22.7111 7.8326 22.8865 8.16027C23.0618 8.48794 23.1624 8.85039 23.181 9.22156C23.1996 9.59274 23.1358 9.96342 22.994 10.307C22.8037 10.7664 22.4815 11.1591 22.068 11.4354C21.6545 11.7116 21.1683 11.859 20.671 11.859H18.154V9.34397H18.152ZM15.132 9.34397V11.858H9.34902C7.06105 11.8576 4.86267 12.7474 3.21902 14.339C1.57572 15.93 0.61692 18.0987 0.546021 20.385V20.928C0.617776 23.2377 1.59556 25.4264 3.26802 27.021C4.94077 28.6166 7.17366 29.4908 9.48512 29.4551C11.7966 29.4194 14.0014 28.4765 15.624 26.83C17.2459 25.1843 18.1551 22.9665 18.155 20.656V14.874H20.671C21.7654 14.8737 22.8351 14.5492 23.7451 13.9414C24.6551 13.3336 25.3646 12.4698 25.784 11.459C26.0975 10.7032 26.2393 9.88734 26.1991 9.07016C26.159 8.25299 25.9379 7.45491 25.5519 6.73355C25.1658 6.01218 24.6245 5.38552 23.9668 4.89879C23.3092 4.41206 22.5517 4.0774 21.749 3.91897C20.6755 3.70592 19.5629 3.81561 18.5517 4.2342C17.5405 4.65279 16.6759 5.36152 16.067 6.27097C15.4591 7.18049 15.1347 8.24997 15.135 9.34397" fill="url(#paint3_linear_1_9639)"/>
<path fill-rule="evenodd" clip-rule="evenodd" d="M5.24702 12.868C4.58226 12.097 4.1489 11.1538 3.99688 10.1472C3.84486 9.14062 3.98036 8.11155 4.38777 7.17861C4.79519 6.24568 5.45793 5.44685 6.29961 4.87421C7.14129 4.30156 8.12766 3.9784 9.14502 3.94198C10.5083 3.891 11.8405 4.35674 12.875 5.24598C12.955 5.09398 13.039 4.94598 13.127 4.79998C11.9931 3.85847 10.5485 3.37414 9.07616 3.44184C7.60383 3.50954 6.2098 4.12438 5.16702 5.16598C4.12467 6.20706 3.50912 7.60017 3.44122 9.07182C3.37331 10.5435 3.85796 11.9873 4.80002 13.12C4.94502 13.032 5.09402 12.948 5.24602 12.868H5.24702ZM24.77 17.13C25.4344 17.9012 25.8674 18.8444 26.0192 19.8509C26.171 20.8575 26.0353 21.8864 25.6278 22.8193C25.2204 23.7521 24.5577 24.5508 23.7161 25.1234C22.8745 25.6961 21.8883 26.0193 20.871 26.056C19.5079 26.1071 18.1758 25.6418 17.141 24.753C17.061 24.904 16.977 25.053 16.889 25.198C17.7351 25.9002 18.7601 26.3526 19.849 26.5046C20.9379 26.6566 22.0476 26.5021 23.0536 26.0584C24.0596 25.6147 24.922 24.8994 25.544 23.9928C26.166 23.0862 26.5231 22.0242 26.575 20.926C26.6423 19.4546 26.1572 18.0111 25.215 16.879C25.0692 16.9673 24.9208 17.0513 24.77 17.131V17.13ZM26.58 9.34298C26.5827 8.17281 26.2375 7.02824 25.5884 6.05466C24.9392 5.08107 24.0153 4.32239 22.934 3.87498C22.216 3.57766 21.4465 3.42469 20.6694 3.4248C19.8923 3.42492 19.1228 3.57811 18.4049 3.87564C17.687 4.17316 17.0347 4.60919 16.4853 5.15883C15.9359 5.70846 15.5002 6.36093 15.203 7.07898C14.9065 7.79689 14.7546 8.56625 14.756 9.34298V11.856H15.259V9.34398C15.259 8.27459 15.5764 7.22926 16.171 6.34041C16.7656 5.45155 17.6106 4.75917 18.599 4.35098C19.5875 3.94198 20.6749 3.83503 21.7241 4.04362C22.7733 4.25221 23.7372 4.767 24.494 5.52298C25.2508 6.2788 25.7663 7.24225 25.9751 8.29127C26.1839 9.34029 26.0766 10.4277 25.6669 11.4157C25.2572 12.4037 24.5634 13.2479 23.6735 13.8413C22.7836 14.4347 21.7376 14.7506 20.668 14.749H9.35002C8.18092 14.7488 7.03798 15.095 6.0655 15.744C5.09302 16.3929 4.33461 17.3154 3.88602 18.395C3.43833 19.4744 3.32108 20.6624 3.54912 21.8085C3.77717 22.9545 4.34024 24.0072 5.16702 24.833C5.99391 25.6591 7.04708 26.2218 8.19353 26.4497C9.33997 26.6777 10.5283 26.5609 11.6083 26.1139C12.6884 25.667 13.6118 24.91 14.2619 23.9386C14.912 22.9672 15.2597 21.8249 15.261 20.656V15.251H20.671C22.2385 15.251 23.742 14.6287 24.851 13.521C25.4 12.9727 25.8355 12.3215 26.1327 11.6048C26.4299 10.8881 26.5829 10.1199 26.583 9.34398L26.58 9.34298ZM14.758 20.656C14.758 21.7254 14.4406 22.7707 13.846 23.6595C13.2515 24.5484 12.4064 25.2408 11.418 25.649C10.4297 26.0576 9.34244 26.1644 8.29348 25.9558C7.24453 25.7472 6.28084 25.2326 5.52402 24.477C4.76781 23.7211 4.25284 22.7579 4.04425 21.7092C3.83567 20.6605 3.94286 19.5735 4.35225 18.5858C4.76165 17.5981 5.45485 16.754 6.34413 16.1604C7.23341 15.5667 8.27881 15.2503 9.34802 15.251H14.758V20.656Z" fill="white"/>
</g>
<defs>
<linearGradient id="paint0_linear_1_9639" x1="3.12104" y1="3.12206" x2="24.566" y2="24.5841" gradientUnits="userSpaceOnUse">
<stop stop-color="#BA181D"/>
<stop offset="0.035" stop-color="#BA181D"/>
<stop offset="0.445" stop-color="#D65C1A"/>
<stop offset="0.82" stop-color="#EC9318"/>
<stop offset="1" stop-color="#F5A917"/>
</linearGradient>
<linearGradient id="paint1_linear_1_9639" x1="5.43401" y1="5.43292" x2="26.878" y2="26.8949" gradientUnits="userSpaceOnUse">
<stop stop-color="#DA92BE"/>
<stop offset="0.581" stop-color="#8869A9"/>
<stop offset="0.984" stop-color="#534F9C"/>
<stop offset="1" stop-color="#534F9C"/>
</linearGradient>
<linearGradient id="paint2_linear_1_9639" x1="5.43395" y1="24.567" x2="26.878" y2="3.10401" gradientUnits="userSpaceOnUse">
<stop stop-color="#F5E63C"/>
<stop offset="0.138" stop-color="#D6DD44"/>
<stop offset="0.561" stop-color="#7CC25A"/>
<stop offset="0.858" stop-color="#44B168"/>
<stop offset="1" stop-color="#2EAA6D"/>
</linearGradient>
<linearGradient id="paint3_linear_1_9639" x1="3.12102" y1="26.878" x2="24.566" y2="5.41497" gradientUnits="userSpaceOnUse">
<stop stop-color="#B5D9BF"/>
<stop offset="0.03" stop-color="#AFD6BF"/>
<stop offset="0.506" stop-color="#55AEC6"/>
<stop offset="0.84" stop-color="#1D94C9"/>
<stop offset="1" stop-color="#078ACB"/>
</linearGradient>
<clipPath id="clip0_1_9639">
<rect width="77" height="30" fill="white"/>
</clipPath>
</defs>
</svg>
