<svg fill="none" viewBox="0 0 1521 179" xmlns="http://www.w3.org/2000/svg" xmlns:xlink="http://www.w3.org/1999/xlink"><mask id="a" height="43" maskUnits="userSpaceOnUse" width="86" x="374" y="61"><path d="m459.26 61.7h-84.42v42.21h84.42z" fill="#fff"/></mask><mask id="b" height="43" maskUnits="userSpaceOnUse" width="86" x="318" y="104"><path d="m318.77 146.75h84.42v-42.21h-84.42z" fill="#fff"/></mask><mask id="c" height="43" maskUnits="userSpaceOnUse" width="85" x="502" y="61"><path d="m586.52 61.7h-84.42v42.21h84.42z" fill="#fff"/></mask><mask id="d" height="43" maskUnits="userSpaceOnUse" width="86" x="446" y="102"><path d="m446.66 144.23h84.42v-42.21h-84.42z" fill="#fff"/></mask><mask id="e" height="43" maskUnits="userSpaceOnUse" width="86" x="34" y="59"><path d="m119.07 59.307h-84.42v42.21h84.42z" fill="#fff"/></mask><mask id="f" height="43" maskUnits="userSpaceOnUse" width="85" x="262" y="59"><path d="m346.42 59.307h-84.42v42.21h84.42z" fill="#fff"/></mask><mask id="g" height="43" maskUnits="userSpaceOnUse" width="86" x="88" y="101"><path d="m88.83 143.727h84.42v-42.21h-84.42z" fill="#fff"/></mask><mask id="h" height="43" maskUnits="userSpaceOnUse" width="86" x="318" y="104"><path d="m318.78 146.247h84.42v-42.21h-84.42z" fill="#fff"/></mask><mask id="i" height="43" maskUnits="userSpaceOnUse" width="86" x="197" y="104"><path d="m197.82 146.247h84.42v-42.21h-84.42z" fill="#fff"/></mask><mask id="j" height="63" maskUnits="userSpaceOnUse" width="163" x="138" y="61"><path d="m219.225 123.924c44.527 0 76.163-13.172 80.624-30.181 4.461-17.01-21.812-31.916-66.34-31.916s-94.909 15.247-94.909 31.916c0 16.668 36.097 30.181 80.625 30.181z" fill="#fff"/></mask><mask id="k" height="43" maskUnits="userSpaceOnUse" width="85" x="840" y="61"><path d="m924.83 61.07h-84.42v42.21h84.42z" fill="#fff"/></mask><mask id="l" height="44" maskUnits="userSpaceOnUse" width="86" x="723" y="59"><path d="m808.28 59.81h-84.42v42.21h84.42z" fill="#fff"/></mask><mask id="m" height="43" maskUnits="userSpaceOnUse" width="86" x="784" y="102"><path d="m784.97 144.23h84.42v-42.21h-84.42z" fill="#fff"/></mask><mask id="n" height="43" maskUnits="userSpaceOnUse" width="85" x="668" y="102"><path d="m668.42 144.23h84.42v-42.21h-84.42z" fill="#fff"/></mask><mask id="o" height="43" maskUnits="userSpaceOnUse" width="85" x="557" y="102"><path d="m557.54 144.23h84.42v-42.21h-84.42z" fill="#fff"/></mask><mask id="p" height="44" maskUnits="userSpaceOnUse" width="86" x="612" y="59"><path d="m697.4 59.81h-84.42v42.21h84.42z" fill="#fff"/></mask><mask id="q" height="43" maskUnits="userSpaceOnUse" width="85" x="1092" y="62"><path d="m1176.45 62.37h-84.42v42.21h84.42z" fill="#fff"/></mask><mask id="r" height="43" maskUnits="userSpaceOnUse" width="85" x="981" y="62"><path d="m1065.57 62.37h-84.42v42.21h84.42z" fill="#fff"/></mask><mask id="s" height="43" maskUnits="userSpaceOnUse" width="86" x="1036" y="104"><path d="m1036.59 146.79h84.42v-42.21h-84.42z" fill="#fff"/></mask><mask id="t" height="43" maskUnits="userSpaceOnUse" width="86" x="1036" y="104"><path d="m1036.59 146.79h84.42v-42.21h-84.42z" fill="#fff"/></mask><mask id="u" height="43" maskUnits="userSpaceOnUse" width="86" x="1110" y="52"><path d="m1110.59 94.79h84.42v-42.21h-84.42z" fill="#fff"/></mask><mask id="v" height="43" maskUnits="userSpaceOnUse" width="85" x="1149" y="104"><path d="m1149.36 146.79h84.42v-42.21h-84.42z" fill="#fff"/></mask><mask id="w" height="43" maskUnits="userSpaceOnUse" width="86" x="1204" y="62"><path d="m1289.22 62.37h-84.42v42.21h84.42z" fill="#fff"/></mask><mask id="x" height="43" maskUnits="userSpaceOnUse" width="85" x="1260" y="104"><path d="m1260.24 146.79h84.42v-42.21h-84.42z" fill="#fff"/></mask><mask id="y" height="43" maskUnits="userSpaceOnUse" width="86" x="1315" y="62"><path d="m1400.1 62.37h-84.42v42.21h84.42z" fill="#fff"/></mask><mask id="z" height="43" maskUnits="userSpaceOnUse" width="86" x="1379" y="104"><path d="m1379.94 146.79h84.42v-42.21h-84.42z" fill="#fff"/></mask><g fill-rule="evenodd"><path clip-rule="evenodd" d="m482.57 23.27c1.186 1.02 2.307 1.53 3.363 1.53 2.247 0 2.096-1.53 4.297-1.53 1.227 0 2.453.51 3.68 1.53v8.55c-1.206-1.02-2.413-1.53-3.619-1.53-2.322 0-2.081 1.53-4.358 1.53-1.056 0-2.177-.51-3.363-1.53zm28.98 12.6c.923.765 1.795 1.148 2.616 1.148 1.747 0 1.63-1.148 3.342-1.148.954 0 1.908.383 2.862 1.148v6.412c-.938-.765-1.876-1.148-2.815-1.148-1.806 0-1.618 1.148-3.389 1.148-.821 0-1.693-.383-2.616-1.148zm17.01 11.97c.725.638 1.41.956 2.055.956 1.373 0 1.281-.956 2.626-.956.75 0 1.499.319 2.249.956v5.344c-.737-.638-1.474-.956-2.212-.956-1.419 0-1.271.956-2.663.956-.645 0-1.33-.319-2.055-.956zm-127.26-22.05c1.252 1.084 2.436 1.626 3.55 1.626 2.372 0 2.212-1.626 4.536-1.626 1.295 0 2.589.542 3.884 1.626v9.084c-1.273-1.084-2.547-1.626-3.82-1.626-2.451 0-2.196 1.626-4.6 1.626-1.114 0-2.298-.542-3.55-1.626z" fill="#05b369"/><path clip-rule="evenodd" d="m478.16 101.39 1.658-27.464c.68-.74 1.131-1.281 1.351-1.625.365-.57.638.077.638-2.053 0-4.06 2.508-12.159 7.524-24.298h9.575c5.578 12.14 8.367 20.238 8.367 24.298 0 2.13.273 1.483.638 2.053.22.344.671.886 1.351 1.625l1.658 27.464z" fill="#05b369" stroke="#05b369" stroke-width="3.15"/><path clip-rule="evenodd" d="m506.51 101.39 1.409-23.406c.579-.63.962-1.093 1.15-1.386.31-.485.542.066.542-1.75 0-3.46 2.133-10.362 6.398-20.708h8.005c4.743 10.346 7.115 17.249 7.115 20.708 0 1.816.232 1.265.542 1.75.188.293.571.755 1.15 1.386l1.409 23.406z" fill="#05b369" stroke="#05b369" stroke-width="3.15"/><path clip-rule="evenodd" d="m524.15 102.65 1.161-19.35c.477-.52.793-.902.947-1.144.256-.402.447.054.447-1.447 0-2.86 1.757-8.566 5.271-17.119h6.438c3.907 8.553 5.861 14.259 5.861 17.119 0 1.5.191 1.045.447 1.447.154.242.47.623.947 1.145l1.161 19.349zm-127.26 1.89 1.658-27.464c.68-.74 1.131-1.281 1.351-1.625.365-.57.638.077.638-2.053 0-4.06 2.508-12.159 7.524-24.298h9.575c5.578 12.14 8.367 20.238 8.367 24.298 0 2.13.273 1.483.638 2.053.22.344.671.886 1.351 1.625l1.658 27.464z" fill="#05b369" stroke="#05b369" stroke-width="3.15"/><path clip-rule="evenodd" d="m497.69 43.26c0-2.341-1.692-4.24-3.78-4.24s-3.78 1.899-3.78 4.24c0 .255 7.56.196 7.56 0zm25.83 8.215c0-2.008-1.551-3.635-3.465-3.635s-3.465 1.627-3.465 3.635c0 .218 6.93.168 6.93 0zm14.49 9.475c0-1.674-1.269-3.03-2.835-3.03s-2.835 1.356-2.835 3.03c0 .18 5.67.139 5.67 0zm-120.96-15.17c0-2.341-1.692-4.24-3.78-4.24s-3.78 1.899-3.78 4.24c0 .255 7.56.196 7.56 0zm78.75-8.092c0-1.004-.846-1.818-1.89-1.818s-1.89.814-1.89 1.818c0 .108 3.78.083 3.78 0z" fill="#05b369"/><path clip-rule="evenodd" d="m521.63 47.767c0-1.003-.705-1.817-1.575-1.817s-1.575.814-1.575 1.817c0 .11 3.15.084 3.15 0zm14.49 9.475c0-.67-.564-1.212-1.26-1.212s-1.26.542-1.26 1.212c0 .072 2.52.056 2.52 0zm-120.96-16.405c0-1.003-.846-1.817-1.89-1.817s-1.89.814-1.89 1.817c0 .11 3.78.084 3.78 0zm-40.95-6.227c1.055.893 2.051 1.339 2.989 1.339 1.998 0 1.863-1.339 3.82-1.339 1.09 0 2.181.446 3.271 1.339v7.481c-1.072-.893-2.145-1.339-3.217-1.339-2.064 0-1.849 1.339-3.874 1.339-.938 0-1.934-.446-2.989-1.339zm64.26-29.61c1.384 1.211 2.692 1.817 3.924 1.817 2.621 0 2.444-1.817 5.013-1.817 1.431 0 2.862.606 4.293 1.817v10.153c-1.407-1.211-2.815-1.817-4.222-1.817-2.71 0-2.428 1.817-5.084 1.817-1.232 0-2.54-.606-3.924-1.817z" fill="#05b369"/><path clip-rule="evenodd" d="m370.43 102.02 1.409-23.406c.579-.63.962-1.093 1.15-1.386.31-.485.542.066.542-1.75 0-3.46 2.133-10.362 6.398-20.708h8.005c4.743 10.346 7.115 17.249 7.115 20.708 0 1.816.232 1.265.542 1.75.188.293.571.755 1.15 1.386l1.409 23.406zm60.48-2.52 1.967-33.081c.807-.891 1.342-1.544 1.603-1.958.434-.686.757.093.757-2.473 0-4.89 2.976-14.646 8.927-29.268h11.551c6.619 14.622 9.928 24.378 9.928 29.268 0 2.566.323 1.787.757 2.473.261.414.796 1.067 1.603 1.958l1.967 33.081z" fill="#05b369" stroke="#05b369" stroke-width="3.15"/><path clip-rule="evenodd" d="m387.44 51.5c0-1.674-1.551-3.03-3.465-3.03s-3.465 1.356-3.465 3.03c0 .18 6.93.139 6.93 0zm66.78-22.123c0-2.677-2.115-4.847-4.725-4.847s-4.725 2.17-4.725 4.847c0 .29 9.45.223 9.45 0zm-68.67 17.785c0-.67-.705-1.212-1.575-1.212s-1.575.542-1.575 1.212c0 .072 3.15.056 3.15 0zm66.78-24.619c0-1.338-1.128-2.423-2.52-2.423s-2.52 1.085-2.52 2.423c0 .145 5.04.112 5.04 0z" fill="#05b369"/><path clip-rule="evenodd" d="m530.45 104.001c0-16.174-13.116-29.285-29.295-29.285s-29.295 13.111-29.295 29.285c0 1.753 58.59 1.351 58.59 0zm-22.572-31.921c0-3.537-2.902-6.406-6.483-6.406s-6.483 2.869-6.483 6.407c0 .383 12.966.295 12.966 0zm-3.361-8.437c0-1.769-1.398-3.203-3.122-3.203s-3.121 1.434-3.121 3.203c0 .192 6.243.148 6.243 0zm-84.947 42.221c0-13.61-11-24.642-24.57-24.642s-24.57 11.032-24.57 24.642c0 1.475 49.14 1.136 49.14 0zm-19.084-28.036c0-3.05-2.456-5.522-5.486-5.522s-5.487 2.472-5.487 5.522c0 .33 10.973.254 10.973 0zm-13.676-21.798c1.055.893 2.051 1.339 2.989 1.339 1.998 0 1.863-1.339 3.82-1.339 1.09 0 2.181.446 3.271 1.339v7.481c-1.072-.893-2.145-1.339-3.217-1.339-2.064 0-1.849 1.339-3.874 1.339-.938 0-1.934-.446-2.989-1.339zm105.21-8.19c1.055.893 2.051 1.339 2.989 1.339 1.998 0 1.863-1.339 3.82-1.339 1.09 0 2.181.446 3.271 1.339v7.481c-1.072-.893-2.145-1.339-3.217-1.339-2.064 0-1.849 1.339-3.874 1.339-.938 0-1.934-.446-2.989-1.339z" fill="#2d3192"/></g><g mask="url(#a)" stroke="#05b369" stroke-width="2.52"><path d="m417.05 118.4c8.003 0 14.49-6.487 14.49-14.49s-6.487-14.49-14.49-14.49-14.49 6.487-14.49 14.49 6.487 14.49 14.49 14.49z"/><path d="m417.05 127.22c12.874 0 23.31-10.436 23.31-23.31s-10.436-23.31-23.31-23.31-23.31 10.436-23.31 23.31 10.436 23.31 23.31 23.31z"/><path d="m417.05 136.04c17.745 0 32.13-14.385 32.13-32.13s-14.385-32.13-32.13-32.13-32.13 14.385-32.13 32.13 14.385 32.13 32.13 32.13z"/><path d="m417.05 144.86c22.616 0 40.95-18.334 40.95-40.95s-18.334-40.95-40.95-40.95-40.95 18.334-40.95 40.95 18.334 40.95 40.95 40.95z"/></g><path clip-rule="evenodd" d="m488.87 110.472c0-22.536-18.193-40.804-40.635-40.804s-40.635 18.268-40.635 40.804c0 2.442 81.27 1.882 81.27 0zm-31.492-44.244c0-5.159-4.094-9.34-9.143-9.34s-9.143 4.181-9.143 9.34c0 .559 18.286.43 18.286 0zm-4.572-12.074c0-2.443-1.933-4.424-4.317-4.424s-4.317 1.98-4.317 4.425c0 .264 8.634.204 8.634 0zm-16.226-18.284c1.45 1.211 2.82 1.817 4.11 1.817 2.746 0 2.562-1.817 5.253-1.817 1.499 0 2.998.606 4.497 1.817v10.153c-1.474-1.212-2.949-1.817-4.423-1.817-2.839 0-2.543 1.817-5.327 1.817-1.29 0-2.66-.606-4.11-1.817z" fill="#5d54a4" fill-rule="evenodd"/><g mask="url(#b)" stroke="#5d54a4" stroke-width="2.52"><path d="m360.98 90.05c-8.003 0-14.49 6.487-14.49 14.49s6.487 14.49 14.49 14.49 14.49-6.487 14.49-14.49-6.487-14.49-14.49-14.49z"/><path d="m360.98 81.23c-12.874 0-23.31 10.436-23.31 23.31s10.436 23.31 23.31 23.31 23.31-10.436 23.31-23.31-10.436-23.31-23.31-23.31z"/><path d="m360.98 72.41c-17.745 0-32.13 14.385-32.13 32.13s14.385 32.13 32.13 32.13 32.13-14.385 32.13-32.13-14.385-32.13-32.13-32.13z"/><path d="m360.98 63.59c-22.616 0-40.95 18.334-40.95 40.95s18.334 40.95 40.95 40.95 40.95-18.334 40.95-40.95-18.334-40.95-40.95-40.95z"/></g><g mask="url(#c)" stroke="#05b369" stroke-width="2.52"><path d="m544.31 118.4c8.003 0 14.49-6.487 14.49-14.49s-6.487-14.49-14.49-14.49-14.49 6.487-14.49 14.49 6.487 14.49 14.49 14.49z"/><path d="m544.31 127.22c12.874 0 23.31-10.436 23.31-23.31s-10.436-23.31-23.31-23.31-23.31 10.436-23.31 23.31 10.436 23.31 23.31 23.31z"/><path d="m544.31 136.04c17.745 0 32.13-14.385 32.13-32.13s-14.385-32.13-32.13-32.13-32.13 14.385-32.13 32.13 14.385 32.13 32.13 32.13z"/><path d="m544.31 144.86c22.616 0 40.95-18.334 40.95-40.95s-18.334-40.95-40.95-40.95-40.95 18.334-40.95 40.95 18.334 40.95 40.95 40.95z"/></g><path clip-rule="evenodd" d="m397.624 70.76c0-1.524-1.175-2.76-2.624-2.76s-2.624 1.236-2.624 2.76c0 .166 5.248.128 5.248 0z" fill="#2d3192" fill-rule="evenodd"/><g mask="url(#d)" stroke="#2d3192" stroke-width="2.52"><path d="m488.87 87.53c-8.003 0-14.49 6.487-14.49 14.49s6.487 14.49 14.49 14.49 14.49-6.487 14.49-14.49c0-8.002-6.487-14.49-14.49-14.49z"/><path d="m488.87 78.71c-12.874 0-23.31 10.436-23.31 23.31s10.436 23.31 23.31 23.31 23.31-10.436 23.31-23.31-10.436-23.31-23.31-23.31z"/><path d="m488.87 69.89c-17.745 0-32.13 14.385-32.13 32.13s14.385 32.13 32.13 32.13 32.13-14.385 32.13-32.13-14.385-32.13-32.13-32.13z"/><path d="m488.87 61.07c-22.616 0-40.95 18.334-40.95 40.95s18.334 40.95 40.95 40.95 40.95-18.334 40.95-40.95-18.334-40.95-40.95-40.95z"/></g><g mask="url(#e)" stroke="#5d54a4" stroke-width="2.52"><path d="m76.86 116.007c8.003 0 14.49-6.488 14.49-14.49 0-8.003-6.487-14.49-14.49-14.49s-14.49 6.487-14.49 14.49c0 8.002 6.487 14.49 14.49 14.49z"/><path d="m76.86 124.827c12.874 0 23.31-10.437 23.31-23.31 0-12.874-10.436-23.31-23.31-23.31s-23.31 10.436-23.31 23.31c0 12.873 10.436 23.31 23.31 23.31z"/><path d="m76.86 133.647c17.745 0 32.13-14.385 32.13-32.13s-14.385-32.13-32.13-32.13-32.13 14.385-32.13 32.13 14.385 32.13 32.13 32.13z"/><path d="m76.86 142.467c22.616 0 40.95-18.334 40.95-40.95s-18.334-40.95-40.95-40.95-40.95 18.334-40.95 40.95 18.334 40.95 40.95 40.95z"/></g><g mask="url(#f)" stroke="#5d54a4" stroke-width="2.52"><path d="m304.21 116.007c8.003 0 14.49-6.488 14.49-14.49 0-8.003-6.487-14.49-14.49-14.49s-14.49 6.487-14.49 14.49c0 8.002 6.487 14.49 14.49 14.49z"/><path d="m304.21 124.827c12.874 0 23.31-10.437 23.31-23.31 0-12.874-10.436-23.31-23.31-23.31s-23.31 10.436-23.31 23.31c0 12.873 10.436 23.31 23.31 23.31z"/><path d="m304.21 133.647c17.745 0 32.13-14.385 32.13-32.13s-14.385-32.13-32.13-32.13-32.13 14.385-32.13 32.13 14.385 32.13 32.13 32.13z"/><path d="m304.21 142.467c22.616 0 40.95-18.334 40.95-40.95s-18.334-40.95-40.95-40.95-40.95 18.334-40.95 40.95 18.334 40.95 40.95 40.95z"/></g><g mask="url(#g)" stroke="#05b369" stroke-width="2.52"><path d="m131.04 87.027c-8.003 0-14.49 6.487-14.49 14.49 0 8.002 6.487 14.49 14.49 14.49s14.49-6.488 14.49-14.49c0-8.003-6.487-14.49-14.49-14.49z"/><path d="m131.04 78.207c-12.874 0-23.31 10.436-23.31 23.31 0 12.873 10.436 23.31 23.31 23.31s23.31-10.437 23.31-23.31c0-12.874-10.436-23.31-23.31-23.31z"/><path d="m131.04 69.387c-17.745 0-32.13 14.385-32.13 32.13s14.385 32.13 32.13 32.13 32.13-14.385 32.13-32.13-14.385-32.13-32.13-32.13z"/><path d="m131.04 60.567c-22.616 0-40.95 18.334-40.95 40.95s18.334 40.95 40.95 40.95 40.95-18.334 40.95-40.95-18.334-40.95-40.95-40.95z"/></g><g mask="url(#h)" stroke="#2d3192" stroke-width="2.52"><path d="m360.99 89.547c-8.003 0-14.49 6.487-14.49 14.49 0 8.002 6.487 14.49 14.49 14.49s14.49-6.488 14.49-14.49c0-8.003-6.487-14.49-14.49-14.49z"/><path d="m360.99 80.727c-12.874 0-23.31 10.436-23.31 23.31 0 12.873 10.436 23.31 23.31 23.31s23.31-10.437 23.31-23.31c0-12.874-10.436-23.31-23.31-23.31z"/><path d="m360.99 71.907c-17.745 0-32.13 14.385-32.13 32.13s14.385 32.13 32.13 32.13 32.13-14.385 32.13-32.13-14.385-32.13-32.13-32.13z"/><path d="m360.99 63.087c-22.616 0-40.95 18.334-40.95 40.95s18.334 40.95 40.95 40.95 40.95-18.334 40.95-40.95-18.334-40.95-40.95-40.95z"/></g><g mask="url(#i)" stroke="#2d3192" stroke-width="2.52"><path d="m240.03 89.547c-8.003 0-14.49 6.487-14.49 14.49 0 8.002 6.487 14.49 14.49 14.49s14.49-6.488 14.49-14.49c0-8.003-6.487-14.49-14.49-14.49z"/><path d="m240.03 80.727c-12.874 0-23.31 10.436-23.31 23.31 0 12.873 10.436 23.31 23.31 23.31s23.31-10.437 23.31-23.31c0-12.874-10.436-23.31-23.31-23.31z"/><path d="m240.03 71.907c-17.745 0-32.13 14.385-32.13 32.13s14.385 32.13 32.13 32.13 32.13-14.385 32.13-32.13-14.385-32.13-32.13-32.13z"/><path d="m240.03 63.087c-22.616 0-40.95 18.334-40.95 40.95s18.334 40.95 40.95 40.95 40.95-18.334 40.95-40.95-18.334-40.95-40.95-40.95z"/></g><path clip-rule="evenodd" d="m218.995 124.197c44.402 0 75.948-13.23 80.396-30.314s-21.751-32.056-66.152-32.056-94.639 15.314-94.639 32.056 35.994 30.314 80.395 30.314z" fill="#05b369" fill-rule="evenodd"/><path clip-rule="evenodd" d="m218.995 127.977c44.402 0 75.948-13.23 80.396-30.314s-21.751-32.056-66.152-32.056-94.639 15.314-94.639 32.056 35.994 30.314 80.395 30.314z" fill="#05b369" fill-rule="evenodd"/><g mask="url(#j)"><path d="m219.225 123.924c44.527 0 76.163-13.172 80.624-30.181 4.461-17.01-21.812-31.916-66.34-31.916s-94.909 15.247-94.909 31.916c0 16.668 36.097 30.181 80.625 30.181z" fill="#05b369"/><g clip-rule="evenodd" fill="#5d54a4" fill-rule="evenodd"><path d="m141.574 75.718 7.6 13.892h-15.2zm75.668 0 7.6 13.892h-15.2z"/><path d="m156.774 75.718 7.599 13.892h-15.199zm75.668 0 7.6 13.892h-15.2zm-83.268-13.891 7.6 13.891h-15.2zm75.668 0 7.6 13.891h-15.2z"/><path d="m164.208 61.827 7.6 13.891h-15.2zm75.834 0 7.599 13.891h-15.199zm-68.234 13.891 7.6 13.892h-15.2zm75.833 0 7.6 13.892h-15.199zm-68.233-13.891 7.6 13.891h-15.2zm75.833 0 7.6 13.891h-15.2zm-68.233 13.891 7.6 13.892h-15.2z"/><path d="m262.676 75.718 7.6 13.892h-15.2zm-68.068-13.891 7.6 13.891h-15.2zm75.668 0 7.6 13.891h-15.2zm-68.068 13.891 7.599 13.892h-15.199zm75.668 0 7.6 13.892h-15.2zm16.191 0 7.6 13.892h-15.2z"/><path d="m209.642 61.827 7.6 13.891h-15.2zm75.834 0 7.599 13.891h-15.199zm-143.902 41.674 7.6 14.057h-15.2zm75.668 0 7.6 14.057h-15.2z"/><path d="m156.774 103.501 7.599 14.057h-15.199zm75.668 0 7.6 14.057h-15.2z"/><path d="m149.174 89.61 7.6 14.057h-15.2zm75.668 0 7.6 14.057h-15.2z"/><path d="m164.208 89.61 7.6 14.057h-15.2zm75.834 0 7.599 14.057h-15.199z"/><path d="m171.808 103.501 7.6 14.057h-15.2zm75.833 0 7.6 14.057h-15.199z"/><path d="m179.408 89.61 7.6 14.057h-15.2zm75.833 0 7.6 14.057h-15.2z"/><path d="m187.008 103.501 7.6 14.057h-15.2zm75.668 0 7.6 14.057h-15.2z"/><path d="m194.608 89.61 7.6 14.057h-15.2zm75.668 0 7.6 14.057h-15.2z"/><path d="m202.208 103.501 7.599 14.057h-15.199zm75.668 0 7.6 14.057h-15.2zm16.191 0 7.6 14.057h-15.2z"/><path d="m209.642 89.61 7.6 14.057h-15.2zm75.834 0 7.599 14.057h-15.199z"/></g></g><path clip-rule="evenodd" d="m233.786 42.549c22.223 0 40.028 4.545 51.926 11.775 6.226 3.783 10.824 8.297 13.552 13.28 2.663 4.865 3.532 10.173 2.394 15.654-2.313 11.143-11.882 20.946-26.625 27.917-14.351 6.786-33.611 10.88-56.047 10.88-22.919 0-43.671-4.382-58.692-11.485-7.577-3.582-13.688-7.853-17.855-12.609-3.919-4.474-6.107-9.374-6.107-14.524 0-4.913 2.815-9.7 7.598-14.178 5.302-4.965 13.024-9.539 22.236-13.452 18.902-8.029 44.056-13.258 67.62-13.258z" stroke="#5d54a4" stroke-width="1.764"/><path clip-rule="evenodd" d="m234.416 45.699c22.223 0 40.028 4.545 51.926 11.775 6.226 3.783 10.824 8.297 13.552 13.28 2.663 4.865 3.532 10.173 2.394 15.654-2.313 11.143-11.882 20.946-26.625 27.917-14.351 6.786-33.611 10.88-56.047 10.88-22.919 0-43.671-4.382-58.692-11.485-7.577-3.582-13.688-7.853-17.855-12.609-3.919-4.474-6.107-9.374-6.107-14.524 0-4.913 2.815-9.7 7.598-14.178 5.302-4.965 13.024-9.539 22.236-13.452 18.902-8.029 44.056-13.258 67.62-13.258z" stroke="#5d54a4" stroke-width="1.764"/><path clip-rule="evenodd" d="m136.71 99.792.011-.263c.729-8.669 37.395-15.652 82.519-15.652 45.58 0 82.53 7.125 82.53 15.915v12.9c0 8.789-36.95 15.915-82.53 15.915s-82.53-7.126-82.53-15.915z" fill="#5d54a4" fill-rule="evenodd"/><path d="m138.6 100.257c52.269-13.384 106.239-13.44 161.91-.168m-161.91 3.948c52.033-9.24 106.003-9.24 161.91 0m-161.91 2.52c52.033-2.52 106.003-2.52 161.91 0m-161.91 6.3c52.033 11.76 106.003 11.76 161.91 0m-161.91-3.15c52.033 5.04 106.003 5.04 161.91 0" stroke="#f9f9f9" stroke-linecap="round" stroke-width="1.764"/><path clip-rule="evenodd" d="m231.84 127.609 11.382-12.9v-28.312l33.978 4.792v36.42l-33.978 3.518z" fill="#2d3192" fill-rule="evenodd"/><path clip-rule="evenodd" d="m852.38 57.96 5.04 3.11v4.41h3.78l.001 56.393c-5.59-1.804-11.928-3.461-18.899-4.943l-.002-51.45h5.04v-4.41zm-21.381 4.295 5.001 3.225v3.78h3.78l.003 47.147c-5.896-1.193-12.218-2.263-18.901-3.196l-.002-43.951h5.04v-3.78zm-18.939 4.839 3.78 2.796-.001 3.15h3.151l.003 39.912a405.91 405.91 0 0 0 -14.492-1.677l-.001-38.235h3.779l.001-3.15z" fill="#5d54a4" fill-rule="evenodd"/><g mask="url(#k)" stroke="#05b369" stroke-width="2.52"><path d="m882.62 117.77c8.003 0 14.49-6.487 14.49-14.49s-6.487-14.49-14.49-14.49-14.49 6.487-14.49 14.49 6.487 14.49 14.49 14.49z"/><path d="m882.62 126.59c12.874 0 23.31-10.436 23.31-23.31s-10.436-23.31-23.31-23.31-23.31 10.436-23.31 23.31 10.436 23.31 23.31 23.31z"/><path d="m882.62 135.41c17.745 0 32.13-14.385 32.13-32.13s-14.385-32.13-32.13-32.13-32.13 14.385-32.13 32.13 14.385 32.13 32.13 32.13z"/><path d="m882.62 144.23c22.616 0 40.95-18.334 40.95-40.95s-18.334-40.95-40.95-40.95-40.95 18.334-40.95 40.95 18.334 40.95 40.95 40.95z"/></g><g mask="url(#l)" stroke="#5d54a4" stroke-width="2.52"><path d="m766.07 116.51c8.003 0 14.49-6.487 14.49-14.49s-6.487-14.49-14.49-14.49-14.49 6.487-14.49 14.49 6.487 14.49 14.49 14.49z"/><path d="m766.07 125.33c12.874 0 23.31-10.436 23.31-23.31s-10.436-23.31-23.31-23.31-23.31 10.436-23.31 23.31 10.436 23.31 23.31 23.31z"/><path d="m766.07 134.15c17.745 0 32.13-14.385 32.13-32.13s-14.385-32.13-32.13-32.13-32.13 14.385-32.13 32.13 14.385 32.13 32.13 32.13z"/><path d="m766.07 142.97c22.616 0 40.95-18.334 40.95-40.95s-18.334-40.95-40.95-40.95-40.95 18.334-40.95 40.95 18.334 40.95 40.95 40.95z"/></g><path clip-rule="evenodd" d="m793.16 70.385 3.78 2.655-.001 3.15h3.151l.001 34.903a468.828 468.828 0 0 0 -14.489-1.128l-.002-33.775h3.779l.001-3.15 3.78-2.656zm-16.301 3.297 3.701 2.508-.001 3.15h3.151l.002 30.51a515.767 515.767 0 0 0 -14.491-.646l-.001-29.864h3.779l.001-3.15zm-87.761-44.742-.001 5.609h3.285c-.013.266-.02.535-.02.807 0 4.464 1.774 8.222 4.185 9.335l4.005-.001-.002 73.587c-10.198.678-19.91 1.646-28.98 2.865l.002-76.452 3.375.001c2.411-1.113 4.185-4.87 4.185-9.335 0-.272-.006-.541-.019-.807h3.283l.001-5.609zm26.288 5.04-.001 5.609h2.19c-.009.266-.013.535-.013.807 0 4.465 1.183 8.223 2.791 9.336l2.249-.002v67.562c-6.445.152-12.757.416-18.901.785l.001-68.347h2.251c1.607-1.113 2.789-4.87 2.789-9.334 0-.272-.004-.54-.013-.807h2.189v-5.609z" fill="#5d54a4" fill-rule="evenodd"/><g mask="url(#m)" stroke="#05b369" stroke-width="2.52"><path d="m827.18 87.53c-8.003 0-14.49 6.487-14.49 14.49s6.487 14.49 14.49 14.49 14.49-6.487 14.49-14.49c0-8.002-6.487-14.49-14.49-14.49z"/><path d="m827.18 78.71c-12.874 0-23.31 10.436-23.31 23.31s10.436 23.31 23.31 23.31 23.31-10.436 23.31-23.31-10.436-23.31-23.31-23.31z"/><path d="m827.18 69.89c-17.745 0-32.13 14.385-32.13 32.13s14.385 32.13 32.13 32.13 32.13-14.385 32.13-32.13-14.385-32.13-32.13-32.13z"/><path d="m827.18 61.07c-22.616 0-40.95 18.334-40.95 40.95s18.334 40.95 40.95 40.95 40.95-18.334 40.95-40.95-18.334-40.95-40.95-40.95z"/></g><g mask="url(#n)" stroke="#2d3192" stroke-width="2.52"><path d="m710.63 87.53c-8.003 0-14.49 6.487-14.49 14.49s6.487 14.49 14.49 14.49 14.49-6.487 14.49-14.49c0-8.002-6.487-14.49-14.49-14.49z"/><path d="m710.63 78.71c-12.874 0-23.31 10.436-23.31 23.31s10.436 23.31 23.31 23.31 23.31-10.436 23.31-23.31-10.436-23.31-23.31-23.31z"/><path d="m710.63 69.89c-17.745 0-32.13 14.385-32.13 32.13s14.385 32.13 32.13 32.13 32.13-14.385 32.13-32.13-14.385-32.13-32.13-32.13z"/><path d="m710.63 61.07c-22.616 0-40.95 18.334-40.95 40.95s18.334 40.95 40.95 40.95 40.95-18.334 40.95-40.95-18.334-40.95-40.95-40.95z"/></g><path clip-rule="evenodd" d="m647.573 28.31-.001 6.829h5.811c-.023.324-.035.651-.035.981 0 6.502 4.492 11.773 10.032 11.773l-.001.262h3.466v9.442l.315.18-.001 61.912c-21.246 3.042-38.747 7.485-50.4 12.812l.001-74.724.315-.18v-9.442h2.834l.001-.262c5.54 0 10.032-5.27 10.032-11.773 0-.33-.012-.657-.035-.98l5.81-.001v-6.829zm227.802 20.16 6.615 3.827v5.04h5.04v68.04h-24.57v-68.04h6.299l.001-5.04z" fill="#5d54a4" fill-rule="evenodd"/><g mask="url(#o)" stroke="#05b369" stroke-width="2.52"><path d="m599.75 87.53c-8.003 0-14.49 6.487-14.49 14.49s6.487 14.49 14.49 14.49 14.49-6.487 14.49-14.49c0-8.002-6.487-14.49-14.49-14.49z"/><path d="m599.75 78.71c-12.874 0-23.31 10.436-23.31 23.31s10.436 23.31 23.31 23.31 23.31-10.436 23.31-23.31-10.436-23.31-23.31-23.31z"/><path d="m599.75 69.89c-17.745 0-32.13 14.385-32.13 32.13s14.385 32.13 32.13 32.13 32.13-14.385 32.13-32.13-14.385-32.13-32.13-32.13z"/><path d="m599.75 61.07c-22.616 0-40.95 18.334-40.95 40.95s18.334 40.95 40.95 40.95 40.95-18.334 40.95-40.95-18.334-40.95-40.95-40.95z"/></g><g mask="url(#p)" stroke="#fff" stroke-width="2.52"><path d="m655.19 116.51c8.003 0 14.49-6.487 14.49-14.49s-6.487-14.49-14.49-14.49-14.49 6.487-14.49 14.49 6.487 14.49 14.49 14.49z"/><path d="m655.19 125.33c12.874 0 23.31-10.436 23.31-23.31s-10.436-23.31-23.31-23.31-23.31 10.436-23.31 23.31 10.436 23.31 23.31 23.31z"/><path d="m655.19 134.15c17.745 0 32.13-14.385 32.13-32.13s-14.385-32.13-32.13-32.13-32.13 14.385-32.13 32.13 14.385 32.13 32.13 32.13z"/><path d="m655.19 142.97c22.616 0 40.95-18.334 40.95-40.95s-18.334-40.95-40.95-40.95-40.95 18.334-40.95 40.95 18.334 40.95 40.95 40.95z"/></g><path clip-rule="evenodd" d="m729.558 42.8h32.074l-15.169-12.528z" fill="#2d3192" fill-rule="evenodd"/><path d="m757.25 68h-23.31v-26.46h23.31z" fill="#2d3192"/><path clip-rule="evenodd" d="m741.5 34.566h8.19l-1.82-6.3c-.745-.81-1.49-1.214-2.236-1.214-.771 0-1.542.404-2.314 1.214z" fill="#2d3192" fill-rule="evenodd"/><path clip-rule="evenodd" d="m744.65 38.976h1.89v-32.13c-.276-1.23-.578-1.846-.906-1.846s-.656.615-.984 1.846z" fill="#2d3192" fill-rule="evenodd"/><path d="m745.595 21.336a2.205 2.205 0 1 0 0-4.41 2.205 2.205 0 0 0 0 4.41zm0-12.546c.87 0 1.575-.447 1.575-1 0-.552-.705-1-1.575-1s-1.575.448-1.575 1c0 .553.705 1 1.575 1zm4.725 115.91h-10.08v-58.59h10.08zm10.08 22.05h-30.24v-22.05h30.24z" fill="#2d3192"/><path d="m745.595 63.59a8.505 8.505 0 1 0 0-17.01 8.505 8.505 0 0 0 0 17.01z" fill="#5d54a4"/><path clip-rule="evenodd" d="m735.795 41.54h19.601l-9.271-7.655-10.33 7.656zm14.525 42.84-16.38-16.38h16.38zm10.01 45.99 16.38 16.38h-16.38zm-30.17-5.67 16.38-16.38v16.38z" fill="#05b369" fill-rule="evenodd"/><path clip-rule="evenodd" d="m1091.72 103.568v-38.88l18.69-45.613 4.91 1.178 7.31-16.158 38.08 10.267 38.23-5.723 24.13 26.641-19.21 81.585h-76.03l-8.99-4.713v-2.356h-12.37z" fill="#3a308e" fill-rule="evenodd"/><path clip-rule="evenodd" d="m1119.44 18.682c1.71-3.215 2.57-4.822 2.57-4.822l18.85 4.822v7.778l-18-3.112-3.42-.932zm37.17 3.053 3.88.927 4.94-.927v6.604h-2.25v3.476h-2.69v-3.476h-3.88zm33.7-4.725-6.3.887v9.193l3.15-.645zm-46.3 21.371-33.6-6.566-2.94 5.408v17.448l2.94-2.557 33.6 3.641z" fill="#05b369" fill-rule="evenodd"/><path clip-rule="evenodd" d="m1313.45 80.01 2.36 2.186v3.101h1.76v38.704c-2.62-1.218-5.58-2.335-8.82-3.335v-35.369h2.35v-3.1zm-9.97 3.02 2.33 2.267v2.657h1.76v32.358a105.67 105.67 0 0 0 -8.82-2.166v-30.191h2.36v-2.658zm-8.84 3.402 1.76 1.966v2.214h1.47v27.359c-2.18-.425-4.43-.805-6.76-1.135v-26.223l1.76-.001v-2.214zm-87.63-51.152 6.61 10.71h-13.23z" fill="#5d54a4" fill-rule="evenodd"/><g mask="url(#q)" stroke="#05b369" stroke-width="2.52"><path d="m1134.24 119.07c8 0 14.49-6.487 14.49-14.49s-6.49-14.49-14.49-14.49-14.49 6.487-14.49 14.49 6.49 14.49 14.49 14.49z"/><path d="m1134.24 127.89c12.87 0 23.31-10.436 23.31-23.31s-10.44-23.31-23.31-23.31-23.31 10.436-23.31 23.31 10.44 23.31 23.31 23.31z"/><path d="m1134.24 136.71c17.74 0 32.13-14.385 32.13-32.13s-14.39-32.13-32.13-32.13-32.13 14.385-32.13 32.13 14.39 32.13 32.13 32.13z"/><path d="m1134.24 145.53c22.62 0 40.95-18.334 40.95-40.95s-18.33-40.95-40.95-40.95-40.95 18.334-40.95 40.95 18.33 40.95 40.95 40.95z"/></g><path clip-rule="evenodd" d="m1032.15 58.59-.01 4.165h2.48c-.01.198-.02.397-.02.599 0 3.314 1.34 6.103 3.15 6.93h3.02v54.67c-7.68.503-14.99 1.22-21.83 2.123l.01-56.792h2.54c1.82-.828 3.15-3.617 3.15-6.931 0-.202 0-.401-.01-.599h2.47v-4.165zm19.79 3.742v4.165l1.65.001c-.01.197-.01.397-.01.598 0 3.315.89 6.105 2.1 6.932l1.7-.001v50.196c-4.86.113-9.61.309-14.24.583v-50.78l1.7.002c1.21-.827 2.1-3.617 2.1-6.932 0-.201 0-.4-.01-.598h1.65v-4.166zm-50.83-17.602v5.134h4.35c-.01.244-.02.49-.02.739 0 4.889 3.37 8.852 7.52 8.852v.196h2.6v7.1l.24.136v46.673c-15.914 2.274-29.037 5.598-37.806 9.587l.003-56.26.236-.136v-7.1h2.126v-.196c4.156 0 7.524-3.963 7.524-8.852 0-.249-.009-.495-.026-.739h4.358v-5.134z" fill="#5d54a4" fill-rule="evenodd"/><g mask="url(#r)" stroke="#05b369" stroke-width="2.52"><path d="m1023.36 119.07c8 0 14.49-6.487 14.49-14.49s-6.49-14.49-14.49-14.49-14.49 6.487-14.49 14.49 6.49 14.49 14.49 14.49z"/><path d="m1023.36 127.89c12.87 0 23.31-10.436 23.31-23.31s-10.44-23.31-23.31-23.31-23.31 10.436-23.31 23.31 10.44 23.31 23.31 23.31z"/><path d="m1023.36 136.71c17.74 0 32.13-14.385 32.13-32.13s-14.39-32.13-32.13-32.13-32.13 14.385-32.13 32.13 14.39 32.13 32.13 32.13z"/><path d="m1023.36 145.53c22.62 0 40.95-18.334 40.95-40.95s-18.33-40.95-40.95-40.95-40.95 18.334-40.95 40.95 18.33 40.95 40.95 40.95z"/></g><path clip-rule="evenodd" d="m1128.01 61.523c6.91-12.416 10.36-18.625 10.36-18.625l10.89 3.744 13.46-17.032 7.58 7.524h35.72l3.19 2.003 18.9-5.343 18.73 26.076h-5.09c.33 31.306.49 46.959.49 46.959l-21.98 2.563-4.61-.496-32.68.496-3.78 1.488-39.44-1.488v-1.819h-10.6l1.64-27.117h-3.12l3.12-3.886h.91v-15.047z" fill="#5d54a4" fill-rule="evenodd"/><path clip-rule="evenodd" d="m1183.38 34.033 14.22-6.313 11.61 6.313v40.307h-25.83zm-32.76 14.085 23.94-1.498v27.72h-23.94z" fill="#05b369" fill-rule="evenodd"/><path d="m1192.83 69.3h-1.89v5.04h1.89zm7.56 0h-1.89v5.04h1.89z" fill="#05b369"/><path clip-rule="evenodd" d="m1196.29 0 12.92 34.02h-25.83zm-34.02 32.13 19.22 19.53h-38.43z" fill="#5d54a4" fill-rule="evenodd"/><path clip-rule="evenodd" d="m1230.63 61.74v11.97h-5.67v-11.97zm-7.56 0v11.97h-5.04v-11.97zm14.49 0v11.97h-5.04v-11.97zm-10.08 16.38v11.97h-5.67v-11.97zm6.93 0v11.97h-5.04v-11.97zm-32.76 0v17.64h-7.56v-17.64zm-10.71 0v17.64h-7.56v-17.64zm21.42 0v17.64h-7.56v-17.64zm-76.86-17.64 7.56-6.3v12.318l-7.56 4.722zm-40.95 7.56 1.89-6.3v12.318l-1.89 4.722zm0 18.27 1.89-6.3v12.318l-1.89 4.722zm3.78-27.09 1.89-6.3v12.318l-1.89 4.722zm0 18.27 1.89-6.3v12.318l-1.89 4.722zm3.78-26.46 1.89-6.3v12.318l-1.89 4.722zm0 18.27 1.89-6.3v12.318l-1.89 4.722z" fill="#05b369" fill-rule="evenodd"/><path d="m1199.13 54.18h-5.67v11.97h5.67zm-7.56 0h-5.04v11.97h5.04zm2.52 15.75h-1.89v6.93h1.89zm6.93 0h-1.89v6.93h1.89zm5.04-15.75h-5.04v11.97h5.04z" fill="#5d54a4"/><g mask="url(#s)" stroke="#5d54a4" stroke-width="2.52"><path d="m1078.8 90.09c-8 0-14.49 6.487-14.49 14.49s6.49 14.49 14.49 14.49 14.49-6.487 14.49-14.49c0-8.002-6.49-14.49-14.49-14.49z"/><path d="m1078.8 81.27c-12.87 0-23.31 10.436-23.31 23.31s10.44 23.31 23.31 23.31 23.31-10.436 23.31-23.31-10.44-23.31-23.31-23.31z"/><path d="m1078.8 72.45c-17.74 0-32.13 14.385-32.13 32.13s14.39 32.13 32.13 32.13 32.13-14.385 32.13-32.13-14.39-32.13-32.13-32.13z"/><path d="m1078.8 63.63c-22.62 0-40.95 18.334-40.95 40.95s18.33 40.95 40.95 40.95 40.95-18.334 40.95-40.95-18.33-40.95-40.95-40.95z"/></g><path clip-rule="evenodd" d="m1181.8 40.32 6.62 10.71h-13.23z" fill="#5d54a4" fill-rule="evenodd"/><path clip-rule="evenodd" d="m1227.79 41.58 9.77 14.49h-19.53z" fill="#05b369" fill-rule="evenodd"/><path d="m1209.21 68.04h-25.83v1.89h25.83zm0-17.64h-25.83v1.89h25.83z" fill="#5d54a4"/><g mask="url(#t)" stroke="#05b369" stroke-width="2.52"><path d="m1078.8 90.09c-8 0-14.49 6.487-14.49 14.49s6.49 14.49 14.49 14.49 14.49-6.487 14.49-14.49c0-8.002-6.49-14.49-14.49-14.49z"/><path d="m1078.8 81.27c-12.87 0-23.31 10.436-23.31 23.31s10.44 23.31 23.31 23.31 23.31-10.436 23.31-23.31-10.44-23.31-23.31-23.31z"/><path d="m1078.8 72.45c-17.74 0-32.13 14.385-32.13 32.13s14.39 32.13 32.13 32.13 32.13-14.385 32.13-32.13-14.39-32.13-32.13-32.13z"/><path d="m1078.8 63.63c-22.62 0-40.95 18.334-40.95 40.95s18.33 40.95 40.95 40.95 40.95-18.334 40.95-40.95-18.33-40.95-40.95-40.95z"/></g><g mask="url(#u)" stroke="#05b369" stroke-width="2.52"><path d="m1152.8 38.09c-8 0-14.49 6.487-14.49 14.49s6.49 14.49 14.49 14.49 14.49-6.487 14.49-14.49c0-8.002-6.49-14.49-14.49-14.49z"/><path d="m1152.8 29.27c-12.87 0-23.31 10.436-23.31 23.31s10.44 23.31 23.31 23.31 23.31-10.436 23.31-23.31-10.44-23.31-23.31-23.31z"/><path d="m1152.8 20.45c-17.74 0-32.13 14.385-32.13 32.13s14.39 32.13 32.13 32.13 32.13-14.385 32.13-32.13-14.39-32.13-32.13-32.13z"/><path d="m1152.8 11.63c-22.62 0-40.95 18.334-40.95 40.95s18.33 40.95 40.95 40.95 40.95-18.334 40.95-40.95-18.33-40.95-40.95-40.95z"/></g><g mask="url(#v)" stroke="#fff" stroke-width="2.52"><path d="m1191.57 90.09c-8 0-14.49 6.487-14.49 14.49s6.49 14.49 14.49 14.49 14.49-6.487 14.49-14.49c0-8.002-6.49-14.49-14.49-14.49z"/><path d="m1191.57 81.27c-12.87 0-23.31 10.436-23.31 23.31s10.44 23.31 23.31 23.31 23.31-10.436 23.31-23.31-10.44-23.31-23.31-23.31z"/><path d="m1191.57 72.45c-17.74 0-32.13 14.385-32.13 32.13s14.39 32.13 32.13 32.13 32.13-14.385 32.13-32.13-14.39-32.13-32.13-32.13z"/><path d="m1191.57 63.63c-22.62 0-40.95 18.334-40.95 40.95s18.33 40.95 40.95 40.95 40.95-18.334 40.95-40.95-18.33-40.95-40.95-40.95z"/></g><path clip-rule="evenodd" d="m1162.55 28.761-19.49 21.101h5.75v53.869h29.78v-53.868h6.05z" fill="#5d54a4" fill-rule="evenodd"/><path d="m1167.63 88.83h-10.08v10.08h10.08z" fill="#05b369"/><path clip-rule="evenodd" d="m1162.59 34.65 11.34 12.6h-22.68z" fill="#05b369" fill-rule="evenodd"/><path d="m1174.56 51.03h-23.31v25.83h23.31z" fill="#05b369"/><path clip-rule="evenodd" d="m1162.21 80.01c3.69 0 6.73 2.745 7.19 6.3h-14.37c.46-3.555 3.5-6.3 7.18-6.3z" fill="#05b369" fill-rule="evenodd"/><path d="m1165.74 54.18h-5.67v11.97h5.67zm-7.56 0h-5.04v11.97h5.04zm1.89 15.75h-1.89v6.93h1.89zm7.56 0h-1.89v6.93h1.89zm5.04-15.75h-5.04v11.97h5.04zm1.89 13.86h-24.57v1.89h24.57z" fill="#5d54a4"/><g mask="url(#w)" stroke="#5d54a4" stroke-width="2.52"><path d="m1247.01 119.07c8 0 14.49-6.487 14.49-14.49s-6.49-14.49-14.49-14.49-14.49 6.487-14.49 14.49 6.49 14.49 14.49 14.49z"/><path d="m1247.01 127.89c12.87 0 23.31-10.436 23.31-23.31s-10.44-23.31-23.31-23.31-23.31 10.436-23.31 23.31 10.44 23.31 23.31 23.31z"/><path d="m1247.01 136.71c17.74 0 32.13-14.385 32.13-32.13s-14.39-32.13-32.13-32.13-32.13 14.385-32.13 32.13 14.39 32.13 32.13 32.13z"/><path d="m1247.01 145.53c22.62 0 40.95-18.334 40.95-40.95s-18.33-40.95-40.95-40.95-40.95 18.334-40.95 40.95 18.33 40.95 40.95 40.95z"/></g><path clip-rule="evenodd" d="m1349.98 66.15 3.08 2.86v4.053l2.31.001v49.57c-3.5-1.417-7.36-2.712-11.55-3.863v-45.707l3.08-.001v-4.054zm-13.07 3.949 3.06 2.965v3.475h2.31v41.818c-3.63-.953-7.5-1.8-11.55-2.528v-39.29h3.08v-3.475zm-11.57 4.449 2.31 2.57v2.897h1.93v35.611c-2.87-.495-5.82-.93-8.86-1.303v-34.308h2.31v-2.896z" fill="#5d54a4" fill-rule="evenodd"/><g mask="url(#x)" stroke="#05b369" stroke-width="2.52"><path d="m1302.45 90.09c-8 0-14.49 6.487-14.49 14.49s6.49 14.49 14.49 14.49 14.49-6.487 14.49-14.49c0-8.002-6.49-14.49-14.49-14.49z"/><path d="m1302.45 81.27c-12.87 0-23.31 10.436-23.31 23.31s10.44 23.31 23.31 23.31 23.31-10.436 23.31-23.31-10.44-23.31-23.31-23.31z"/><path d="m1302.45 72.45c-17.74 0-32.13 14.385-32.13 32.13s14.39 32.13 32.13 32.13 32.13-14.385 32.13-32.13-14.39-32.13-32.13-32.13z"/><path d="m1302.45 63.63c-22.62 0-40.95 18.334-40.95 40.95s18.33 40.95 40.95 40.95 40.95-18.334 40.95-40.95-18.33-40.95-40.95-40.95z"/></g><g mask="url(#y)" stroke="#05b369" stroke-width="2.52"><path d="m1357.89 119.07c8 0 14.49-6.487 14.49-14.49s-6.49-14.49-14.49-14.49-14.49 6.487-14.49 14.49 6.49 14.49 14.49 14.49z"/><path d="m1357.89 127.89c12.87 0 23.31-10.436 23.31-23.31s-10.44-23.31-23.31-23.31-23.31 10.436-23.31 23.31 10.44 23.31 23.31 23.31z"/><path d="m1357.89 136.71c17.74 0 32.13-14.385 32.13-32.13s-14.39-32.13-32.13-32.13-32.13 14.385-32.13 32.13 14.39 32.13 32.13 32.13z"/><path d="m1357.89 145.53c22.62 0 40.95-18.334 40.95-40.95s-18.33-40.95-40.95-40.95-40.95 18.334-40.95 40.95 18.33 40.95 40.95 40.95z"/></g><path clip-rule="evenodd" d="m1414.81 43.47 6 4.57-.01 6.478h4.5v82.014c-6.64-2.612-14.18-5.012-22.47-7.159v-74.854l5.99-.001v-6.479zm-25.42 6.31 5.95 4.739v5.553h4.49l.01 68.544c-7.01-1.727-14.53-3.277-22.47-4.629l-.01-63.914 5.99-.001.01-5.553 6.03-4.74zm-22.51 7.11 4.49 4.108v4.629h3.75v57.985c-5.55-.908-11.3-1.72-17.23-2.429v-55.556h4.49v-4.628l4.5-4.11zm-400.304 11.78 4.368 3.336-.001 4.73h3.277l.001 59.896c-4.841-1.92-10.333-3.685-16.378-5.264l-.003-54.632h4.367l.001-4.73zm-18.53 4.607 4.334 3.46v4.054h3.276v50.02c-5.108-1.269-10.586-2.409-16.379-3.403l-.001-46.617h4.367l.001-4.055 4.402-3.46zm-16.414 5.19 3.276 3v3.378h2.73l.002 42.287a292.185 292.185 0 0 0 -12.559-1.787l-.001-40.5h3.276v-3.378z" fill="#5d54a4" fill-rule="evenodd"/><g mask="url(#z)" stroke="#fff" stroke-width="2.52"><path d="m1422.15 90.09c-8 0-14.49 6.487-14.49 14.49s6.49 14.49 14.49 14.49 14.49-6.487 14.49-14.49c0-8.002-6.49-14.49-14.49-14.49z"/><path d="m1422.15 81.27c-12.87 0-23.31 10.436-23.31 23.31s10.44 23.31 23.31 23.31 23.31-10.436 23.31-23.31-10.44-23.31-23.31-23.31z"/><path d="m1422.15 72.45c-17.75 0-32.13 14.385-32.13 32.13s14.38 32.13 32.13 32.13c17.74 0 32.13-14.385 32.13-32.13s-14.39-32.13-32.13-32.13z"/><path d="m1422.15 63.63c-22.62 0-40.95 18.334-40.95 40.95s18.33 40.95 40.95 40.95 40.95-18.334 40.95-40.95-18.33-40.95-40.95-40.95z"/></g></svg>