<svg width="1460" height="1460" viewBox="0 0 1460 1460" fill="none" xmlns="http://www.w3.org/2000/svg">
<path d="M1123.4 1056.5C1134.7 1030.5 1137 1001 1129.9 973.5C1122.8 946 1106.6 921.3 1084.2 903.9C1061.8 886.5 1033.8 876.9 1005.5 876.9H877V1005.3C877 1027.6 882.8 1049.6 893.8 1069C904.8 1088.4 920.8 1104.6 940 1116C959.2 1127.4 981.1 1133.5 1003.4 1133.9H1005.4C1027 1133.9 1047.7 1129 1067.4 1118C1087.1 1107 1113.4 1079.5 1123.4 1056.5ZM1070.1 1087.4C1056.6 1098.1 1040.4 1105.3 1023.4 1108.3C1006.4 1111.3 988.8 1110 972.4 1104.5C956 1099 941.1 1089.5 929.3 1077C911.6 1058.2 901.7 1033.9 901.1 1008.2V901H1005.5C1022.8 901 1039.9 905.3 1055.1 913.5C1070.3 921.7 1083.3 933.6 1092.8 948.1C1102.3 962.5 1108.1 979.2 1109.5 996.4C1111 1013.6 1108.2 1031 1101.3 1046.9C1094.4 1062.7 1083.6 1076.7 1070.1 1087.4V1087.4ZM1220.3 813.8L1199 826.5C1199 826.5 1209.6 838.5 1211.7 841.2C1251.9 891.7 1272.1 955 1268.7 1019.4C1265.3 1083.8 1238.4 1144.6 1193.1 1190.5C1147.8 1236.4 1087.4 1264.1 1023 1268.4C958.6 1272.7 895.1 1253.3 844.1 1213.8C841.1 1211.5 829.1 1201.4 829.1 1201.4L814.7 1226.7L818.7 1230C870.8 1272.7 935.5 1295.8 1002.5 1295.8C1007.7 1295.8 1012.9 1295.7 1018.2 1295.4C1090.7 1291.5 1158.7 1260.9 1209.6 1209.1C1260.5 1157.3 1290 1088.8 1292.6 1016.3C1295.2 943.7 1270.8 873.3 1223.8 818L1220.3 813.8V813.8ZM231.6 645.9L264.1 627.6C264.1 627.6 254 615.7 251.6 612.6C212.9 563.1 193.8 501.3 197.6 438.6C201.5 375.9 228 316.9 272.5 272.5C316.9 228.1 375.9 201.5 438.6 197.6C501.3 193.8 563.1 212.9 612.7 251.6C615.6 253.9 627.7 264.1 627.7 264.1L646 231.7C646 231.7 635.6 223.2 632.6 221C576.2 178.5 506.3 157.7 435.7 162.6C364.908 167.487 298.274 197.821 248.1 248C197.7 298.4 167.3 365.3 162.6 436.5C157.9 507.5 179.1 577.7 222.2 634.2C224.2 636.7 231.6 645.9 231.6 645.9V645.9ZM877.1 583H1006.1C1026.4 582.8 1046.7 577.8 1064.7 568.3C1082.7 558.9 1098.4 545.1 1110.1 528.4C1121.8 511.8 1129.5 492.3 1132.3 472.2C1135.1 452.1 1133.1 431.3 1126.4 412C1119.7 392.8 1108.3 375.2 1093.6 361.2C1078.9 347.2 1060.7 336.8 1041.2 331C1021.7 325.3 1000.8 324.3 980.8 328.1C960.8 331.9 941.8 340.6 925.8 353.1C921.1 356.8 916.6 360.8 912.5 365.1L902.5 375.9H903.8C886.6 398.1 877.2 425.4 877.1 453.8V583ZM901.3 454C901.4 427.3 911.6 401.9 930 382.6L936.4 375.9C949 364.9 964.2 357 980.4 353.1C996.7 349.1 1013.9 349.2 1030.2 353.2C1046.5 357.2 1061.7 365.2 1074.3 376.4C1086.9 387.5 1096.7 401.7 1102.6 417.4C1108.6 433.1 1110.7 450.2 1108.7 466.8C1106.7 483.5 1100.7 499.6 1091.2 513.5C1081.7 527.4 1068.9 538.9 1054.1 546.8C1039.3 554.7 1022.6 559 1005.9 559.1H901.3V454V454ZM1214 245.2C1186.4 217.9 1154.2 196.5 1118.3 181.8C1094.7 172.1 1066 165 1045.3 162.4C1024.6 159.8 1005.7 159.9 1005.7 159.9C967.3 159.9 929.8 167.3 894.3 181.8C858.8 196.3 826.9 217.4 799.5 244.3C772.1 271.2 750.6 302.8 735.4 338.1C720.3 373.4 712.3 410.8 711.6 449.3V583H748V451.9C748.4 401.1 763.7 352 792.1 309.9C820.6 267.8 860.4 235.3 907.4 216C954.4 196.7 1005.6 191.7 1055.4 201.5C1105.2 211.4 1150.6 235.5 1186.7 271.3C1222.8 307.1 1247.3 352.3 1257.5 402.1C1267.8 451.9 1263.2 503.1 1244.2 550.2C1225.2 597.3 1193.1 637.5 1151.2 666.3C1109.3 695.1 1060.4 710.7 1009.6 711.6L451.3 711.2C393.3 711.7 337.2 729.1 289.1 761.6C241 794.1 203.9 839.6 181.8 893.3C159.7 947 154 1005.4 165.2 1062.4C176.5 1119.3 204 1171.2 244.9 1212.4C285.8 1253.6 337.4 1281.6 394.2 1293.3C414 1297.4 433.9 1299.4 453.8 1299.4C491.1 1299.4 528.2 1292.3 563.4 1278.2C617.2 1256.6 663.1 1219.8 696 1172C728.9 1124.2 746.8 1068.2 747.8 1010.2V748.2H1007.9C1046.7 748 1084.6 740.4 1120.4 725.3C1156.2 710.3 1188.2 688.7 1215.6 661.1C1242.9 633.5 1264.3 601.3 1279 565.4C1293.7 529.5 1301.1 491.6 1300.9 452.7C1300.7 413.9 1293 376 1278 340.2C1263.2 304.5 1241.6 272.5 1214 245.2V245.2ZM711.3 1005.6C711.2 1056.5 696.3 1105.7 668.1 1148C639.9 1190.3 600.2 1223.1 553.2 1242.7C506.3 1262.3 455.1 1267.6 405.1 1258C355.2 1248.4 309.6 1224.4 273.3 1188.7C237 1153 212.4 1107.9 201.9 1058.1C191.5 1008.3 195.9 957 214.8 909.8C233.7 862.6 265.8 822.3 307.6 793.4C349.4 764.5 398.4 748.8 449.3 747.9H711.2V1005.6H711.3ZM1455.1 977.1C1452.5 937 1444.7 897.6 1431.6 859.7L1433.2 861.3L1421.7 833.4C1405.6 794.5 1384.1 758.1 1357.8 725.1C1407.1 659.7 1437.6 582.2 1446.1 500.7C1454.8 417.6 1440.2 333.9 1403.9 258.7C1367.6 183.4 1311.3 119.9 1240.9 74.7999C1170.5 29.7999 1089.2 5.2999 1005.6 3.8999H1005.2C903.9 3.8999 804.8 38.5999 725.6 101.8C660.2 52.3999 582.8 21.7999 501.2 13.1999C418.1 4.5999 334.3 19.1999 259 55.3999C183.7 91.5999 120.1 148 75 218.4C30 288.8 5.49998 370.2 4.19998 453.9V454C4.19998 504.5 12.6 554.3 29.2 602C45.3 648.2 68.6 691.2 98.6 729.8C69.1 767.8 46 810 29.9 855.3C13.3 902 4.59998 950.9 3.99998 1000.6C3.39998 1050.2 11 1099.3 26.5 1146.5C42 1193.7 65 1237.6 95 1277.2C124.9 1316.8 160.9 1351 202.1 1378.8C243.3 1406.6 288.4 1427.3 336.3 1440.3C374.8 1450.8 414.3 1456 454.1 1456C463.8 1456 473.5 1455.7 483.1 1455.1C532.6 1451.9 581 1440.6 626.8 1421.6L628.4 1420.9C664.7 1405.7 698.9 1385.7 730 1361.5C767.9 1390.9 810.1 1414 855.4 1430C902.2 1446.6 951 1455.3 1000.7 1455.9C1050.3 1456.5 1099.4 1448.9 1146.5 1433.4C1193.6 1417.9 1237.6 1394.9 1277.2 1365C1316.8 1335.1 1351 1299.1 1378.8 1258C1406.6 1216.9 1427.3 1171.8 1440.3 1123.9C1453.3 1076 1458.2 1026.7 1455.1 977.1ZM1420.7 1088.3C1406.5 1159.7 1373.9 1226.6 1326.5 1281.7C1279 1336.9 1217.7 1379.1 1149.3 1403.7C1103.2 1420.3 1054.6 1428.7 1005.9 1428.7C982.2 1428.7 958.5 1426.7 935 1422.7C863.3 1410.5 795.5 1379.7 739.1 1333.8L730.1 1326.5L721.2 1333.8C689.9 1359.3 655.2 1380.1 618 1395.7L616.4 1396.4C573.1 1414.4 527.4 1425 480.6 1427.9C433.8 1430.8 387.2 1426 342 1413.5C296.8 1401.1 254.3 1381.3 215.6 1354.9C176.9 1328.4 143.1 1296 115.1 1258.4C87.1 1220.8 65.7 1179.1 51.4 1134.4C37.1 1089.7 30.4 1043.3 31.5 996.5C32.5 949.6 41.3 903.6 57.5 859.6C73.7 815.6 97 774.9 126.6 738.6L133.6 730L126.6 721.4C65.3 646.2 31.5 551.3 31.5 454.3C32.8 375.3 56.1 298.4 98.9 232C141.6 165.4 202 112.5 273.5 78.6999C345 44.8999 424.2 31.8999 502.7 40.8999C581.2 49.9999 655.4 80.7999 717.3 129.9L726 136.8L734.5 129.6C814.9 63.6999 916.4 29.9999 1020.3 34.7999C1124.2 39.5999 1222.1 82.3999 1296.2 155.4C1370.2 228.4 1414.4 325.8 1420.6 429.6C1426.8 533.4 1394.5 635.3 1329.7 716.7L1322.8 725.4L1330 733.9C1370.4 782.1 1400 839.8 1415.6 900.7C1431.2 961.8 1432.9 1026.6 1420.7 1088.3V1088.3ZM332.5 964.8C325.9 984.9 324.3 1006.6 328.1 1027.5C331.8 1048.4 340.7 1068.2 353.9 1084.8C367.1 1101.4 384.3 1114.6 403.7 1123C419.8 1129.9 437.2 1133.5 454.7 1133.5C458.4 1133.5 462 1133.3 465.7 1133C486.8 1131.2 507.3 1124.1 525.1 1112.4C542.8 1100.8 557.5 1084.8 567.6 1066.2C577.7 1047.6 583.1 1026.5 583.1 1005.3V876.9H452.2C420.1 877.3 389.5 889.7 366.1 911.7C350.8 926.3 339.1 944.6 332.5 964.8ZM396.5 922.1C413 910.7 432.4 904.5 452.5 904.1H555.9V1005.3C556 1025.4 550.2 1044.9 539.1 1061.7C528 1078.5 512.4 1091.5 493.9 1099.3C475.4 1107.1 455.1 1109.3 435.4 1105.6C415.6 1101.8 397.6 1092.4 383.2 1078.4C368.8 1064.3 359 1046.5 354.9 1026.8C350.7 1007.1 352.5 986.8 359.9 968.2C367.3 949.5 379.9 933.6 396.5 922.1V922.1ZM548.1 365.8L547.7 365.3C543.6 361 539.1 356.9 534.4 353.3C518.4 340.8 499.4 332.1 479.4 328.3C459.4 324.5 438.5 325.5 419 331.2C399.5 336.9 381.4 347.4 366.6 361.4C351.9 375.4 340.5 393 333.8 412.2C327.1 431.4 325 452.2 327.8 472.4C330.6 492.6 338.3 512 350 528.6C361.7 545.2 377.4 559 395.5 568.5C413.5 577.9 433.8 583 454.2 583.2H583.2V454C583.1 426.7 574.6 400.6 558.4 378.6C557.8 377.7 557.1 376.9 556.5 376.1H559.3L548.1 365.8V365.8ZM559 454V558.9H454.2C437.4 558.8 420.7 554.5 405.9 546.6C391.1 538.7 378.3 527.2 368.8 513.3C359.3 499.4 353.3 483.3 351.3 466.6C349.3 449.9 351.5 432.8 357.4 417.2C363.4 401.5 373.2 387.4 385.7 376.2C398.3 365.1 413.5 357.1 429.8 353C438 351 446.5 349.9 454.9 349.9C463.2 349.9 471.5 350.9 479.6 352.8C495.8 356.7 511 364.6 523.6 375.6L530 382.3C548.7 401.9 558.9 427.3 559 454V454Z" fill="#B1B4B6" fill-opacity="0.2"/>
</svg>
