<svg viewBox="0 0 1460 1460" xmlns="http://www.w3.org/2000/svg"><path d="m1123.4 1056.5c11.3-26 13.6-55.5 6.5-83s-23.3-52.2-45.7-69.6-50.4-27-78.7-27h-128.5v128.4c0 22.3 5.8 44.3 16.8 63.7s27 35.6 46.2 47 41.1 17.5 63.4 17.9h2c21.6 0 42.3-4.9 62-15.9s46-38.5 56-61.5zm-53.3 30.9c-13.5 10.7-29.7 17.9-46.7 20.9s-34.6 1.7-51-3.8-31.3-15-43.1-27.5c-17.7-18.8-27.6-43.1-28.2-68.8v-107.2h104.4c17.3 0 34.4 4.3 49.6 12.5s28.2 20.1 37.7 34.6c9.5 14.4 15.3 31.1 16.7 48.3 1.5 17.2-1.3 34.6-8.2 50.5-6.9 15.8-17.7 29.8-31.2 40.5zm150.2-273.6-21.3 12.7s10.6 12 12.7 14.7c40.2 50.5 60.4 113.8 57 178.2s-30.3 125.2-75.6 171.1-105.7 73.6-170.1 77.9-127.9-15.1-178.9-54.6c-3-2.3-15-12.4-15-12.4l-14.4 25.3 4 3.3c52.1 42.7 116.8 65.8 183.8 65.8 5.2 0 10.4-.1 15.7-.4 72.5-3.9 140.5-34.5 191.4-86.3s80.4-120.3 83-192.8c2.6-72.6-21.8-143-68.8-198.3zm-988.7-167.9 32.5-18.3s-10.1-11.9-12.5-15c-38.7-49.5-57.8-111.3-54-174 3.9-62.7 30.4-121.7 74.9-166.1 44.4-44.4 103.4-71 166.1-74.9 62.7-3.8 124.5 15.3 174.1 54 2.9 2.3 15 12.5 15 12.5l18.3-32.4s-10.4-8.5-13.4-10.7c-56.4-42.5-126.3-63.3-196.9-58.4a293.92 293.92 0 0 0 -187.6 85.4c-50.4 50.4-80.8 117.3-85.5 188.5-4.7 71 16.5 141.2 59.6 197.7 2 2.5 9.4 11.7 9.4 11.7zm645.5-62.9h129c20.3-.2 40.6-5.2 58.6-14.7 18-9.4 33.7-23.2 45.4-39.9 11.7-16.6 19.4-36.1 22.2-56.2s.8-40.9-5.9-60.2c-6.7-19.2-18.1-36.8-32.8-50.8s-32.9-24.4-52.4-30.2c-19.5-5.7-40.4-6.7-60.4-2.9s-39 12.5-55 25c-4.7 3.7-9.2 7.7-13.3 12l-10 10.8h1.3c-17.2 22.2-26.6 49.5-26.7 77.9zm24.2-129c.1-26.7 10.3-52.1 28.7-71.4l6.4-6.7c12.6-11 27.8-18.9 44-22.8 16.3-4 33.5-3.9 49.8.1s31.5 12 44.1 23.2c12.6 11.1 22.4 25.3 28.3 41 6 15.7 8.1 32.8 6.1 49.4-2 16.7-8 32.8-17.5 46.7s-22.3 25.4-37.1 33.3-31.5 12.2-48.2 12.3h-104.6zm312.7-208.8c-27.6-27.3-59.8-48.7-95.7-63.4-23.6-9.7-52.3-16.8-73-19.4s-39.6-2.5-39.6-2.5c-38.4 0-75.9 7.4-111.4 21.9s-67.4 35.6-94.8 62.5-48.9 58.5-64.1 93.8c-15.1 35.3-23.1 72.7-23.8 111.2v133.7h36.4v-131.1c.4-50.8 15.7-99.9 44.1-142 28.5-42.1 68.3-74.6 115.3-93.9s98.2-24.3 148-14.5c49.8 9.9 95.2 34 131.3 69.8s60.6 81 70.8 130.8c10.3 49.8 5.7 101-13.3 148.1s-51.1 87.3-93 116.1-90.8 44.4-141.6 45.3l-558.3-.4c-58 .5-114.1 17.9-162.2 50.4s-85.2 78-107.3 131.7-27.8 112.1-16.6 169.1c11.3 56.9 38.8 108.8 79.7 150s92.5 69.2 149.3 80.9c19.8 4.1 39.7 6.1 59.6 6.1 37.3 0 74.4-7.1 109.6-21.2 53.8-21.6 99.7-58.4 132.6-106.2s50.8-103.8 51.8-161.8v-262h260.1c38.8-.2 76.7-7.8 112.5-22.9 35.8-15 67.8-36.6 95.2-64.2 27.3-27.6 48.7-59.8 63.4-95.7s22.1-73.8 21.9-112.7c-.2-38.8-7.9-76.7-22.9-112.5-14.8-35.7-36.4-67.7-64-95zm-502.7 760.4c-.1 50.9-15 100.1-43.2 142.4s-67.9 75.1-114.9 94.7c-46.9 19.6-98.1 24.9-148.1 15.3-49.9-9.6-95.5-33.6-131.8-69.3s-60.9-80.8-71.4-130.6c-10.4-49.8-6-101.1 12.9-148.3s51-87.5 92.8-116.4 90.8-44.6 141.7-45.5h261.9v257.7zm743.8-28.5c-2.6-40.1-10.4-79.5-23.5-117.4l1.6 1.6-11.5-27.9c-16.1-38.9-37.6-75.3-63.9-108.3 49.3-65.4 79.8-142.9 88.3-224.4 8.7-83.1-5.9-166.8-42.2-242-36.3-75.3-92.6-138.8-163-183.9-70.4-45-151.7-69.5-235.3-70.9h-.4c-101.3 0-200.4 34.7-279.6 97.9-65.4-49.4-142.8-80-224.4-88.6-83.1-8.6-166.9 6-242.2 42.2s-138.9 92.6-184 163c-45 70.4-69.5 151.8-70.8 235.5v.1c0 50.5 8.4 100.3 25 148 16.1 46.2 39.4 89.2 69.4 127.8-29.5 38-52.6 80.2-68.7 125.5-16.6 46.7-25.3 95.6-25.9 145.3-.6 49.6 7 98.7 22.5 145.9s38.5 91.1 68.5 130.7c29.9 39.6 65.9 73.8 107.1 101.6s86.3 48.5 134.2 61.5c38.5 10.5 78 15.7 117.8 15.7 9.7 0 19.4-.3 29-.9 49.5-3.2 97.9-14.5 143.7-33.5l1.6-.7c36.3-15.2 70.5-35.2 101.6-59.4 37.9 29.4 80.1 52.5 125.4 68.5 46.8 16.6 95.6 25.3 145.3 25.9 49.6.6 98.7-7 145.8-22.5s91.1-38.5 130.7-68.4 73.8-65.9 101.6-107 48.5-86.2 61.5-134.1 17.9-97.2 14.8-146.8zm-34.4 111.2c-14.2 71.4-46.8 138.3-94.2 193.4-47.5 55.2-108.8 97.4-177.2 122-46.1 16.6-94.7 25-143.4 25-23.7 0-47.4-2-70.9-6-71.7-12.2-139.5-43-195.9-88.9l-9-7.3-8.9 7.3c-31.3 25.5-66 46.3-103.2 61.9l-1.6.7c-43.3 18-89 28.6-135.8 31.5s-93.4-1.9-138.6-14.4c-45.2-12.4-87.7-32.2-126.4-58.6-38.7-26.5-72.5-58.9-100.5-96.5s-49.4-79.3-63.7-124-21-91.1-19.9-137.9c1-46.9 9.8-92.9 26-136.9s39.5-84.7 69.1-121l7-8.6-7-8.6c-61.3-75.2-95.1-170.1-95.1-267.1 1.3-79 24.6-155.9 67.4-222.3 42.7-66.6 103.1-119.5 174.6-153.3s150.7-46.8 229.2-37.8c78.5 9.1 152.7 39.9 214.6 89l8.7 6.9 8.5-7.2c80.4-65.9 181.9-99.6 285.8-94.8s201.8 47.6 275.9 120.6c74 73 118.2 170.4 124.4 274.2s-26.1 205.7-90.9 287.1l-6.9 8.7 7.2 8.5c40.4 48.2 70 105.9 85.6 166.8 15.6 61.1 17.3 125.9 5.1 187.6zm-1088.2-123.5c-6.6 20.1-8.2 41.8-4.4 62.7 3.7 20.9 12.6 40.7 25.8 57.3s30.4 29.8 49.8 38.2c16.1 6.9 33.5 10.5 51 10.5 3.7 0 7.3-.2 11-.5 21.1-1.8 41.6-8.9 59.4-20.6 17.7-11.6 32.4-27.6 42.5-46.2s15.5-39.7 15.5-60.9v-128.4h-130.9c-32.1.4-62.7 12.8-86.1 34.8-15.3 14.6-27 32.9-33.6 53.1zm64-42.7c16.5-11.4 35.9-17.6 56-18h103.4v101.2c.1 20.1-5.7 39.6-16.8 56.4s-26.7 29.8-45.2 37.6-38.8 10-58.5 6.3c-19.8-3.8-37.8-13.2-52.2-27.2-14.4-14.1-24.2-31.9-28.3-51.6-4.2-19.7-2.4-40 5-58.6 7.4-18.7 20-34.6 36.6-46.1zm151.6-556.3-.4-.5c-4.1-4.3-8.6-8.4-13.3-12-16-12.5-35-21.2-55-25s-40.9-2.8-60.4 2.9-37.6 16.2-52.4 30.2c-14.7 14-26.1 31.6-32.8 50.8s-8.8 40-6 60.2 10.5 39.6 22.2 56.2 27.4 30.4 45.5 39.9c18 9.4 38.3 14.5 58.7 14.7h129v-129.2c-.1-27.3-8.6-53.4-24.8-75.4-.6-.9-1.3-1.7-1.9-2.5h2.8zm10.9 88.2v104.9h-104.8c-16.8-.1-33.5-4.4-48.3-12.3s-27.6-19.4-37.1-33.3-15.5-30-17.5-46.7.2-33.8 6.1-49.4c6-15.7 15.8-29.8 28.3-41 12.6-11.1 27.8-19.1 44.1-23.2 8.2-2 16.7-3.1 25.1-3.1 8.3 0 16.6 1 24.7 2.9 16.2 3.9 31.4 11.8 44 22.8l6.4 6.7c18.7 19.6 28.9 45 29 71.7z" fill="#6c6c6e"/></svg>