<svg fill="none" height="65" viewBox="0 0 108 65" width="108" xmlns="http://www.w3.org/2000/svg"><path d="m11.2383 35.5208c-.2521.079-.457.1264-.6619.2053-1.68618.6634-3.37241 1.3268-5.04288 1.9902-.91403.3949-1.85958.7266-2.82088.9635-.26791.079-.56733.0632-.81948-.0474-.37822-.1737-.58309-.5844-.47277-.9951.03152-.1579.03152-.3159-.03152-.458-.11031-.3475-.18911-.695-.29942-1.0267-.06304-.2053-.157595-.3949-.25215-.5844-.299424-.5686-.252146-1.232-.457015-1.8322-.015759-.1738.015759-.3475.126073-.4897.126073-.1895.126073-.4422 0-.6476-.236387-.458-.393979-.9477-.4727742-1.4531-.126073-.5212.1103142-1.0583.5830882-1.3268.693398-.4107 1.386808-.7897 2.095968-1.153 1.35528-.6476 2.75784-1.2004 4.17617-1.6901 1.33952-.5054 2.66329-1.0109 3.98709-1.5163.3624-.158.7249-.3317 1.0716-.5212.2994-.1422.4412-.5055.2994-.8056 0-.0158-.0157-.0316-.0157-.0474-.3783-.6949-.5516-1.4847-.5043-2.2744 0-.0632-.0158-.1106-.0316-.1738-.0945-.0158-.2048-.0158-.2994 0-.52.1738-1.0401.3317-1.51286.5528-.97706.4739-2.00141.853-3.05727 1.1531-.3467.1105-.70916.0947-1.05586-.0316-.3467-.1264-.61461-.4107-.70916-.7582-.06304-.2211-.09456-.4422-.12608-.6634-.04727-.4738-.06303-.9477-.09455-1.4215 0-.158 0-.2843-.18911-.3633-.0788-.0474-.14183-.1106-.15759-.2053-.04728-.4897-.09456-.9793-.14183-1.469 0-.0474 0-.0789.03151-.1105.25215-.2054.12608-.4423.0788-.695-.06304-.3475-.09455-.7108-.17335-1.0583-.04728-.1737-.11031-.3317-.18911-.4738-.04728-.079-.14183-.158-.15759-.2212-.03152-.4106-.23639-.8055-.14183-1.2478.01576-.0789.01576-.1579.01576-.2369-.03152-.616.37821-1.1846.9613-1.3584 2.48995-1.0108 5.04293-1.9112 7.61162-2.7325 4.8223-1.51631 9.7077-2.7957 14.656-3.83817 3.2307-.67919 6.4613-1.31099 9.7077-1.8954 2.222-.41067 4.4598-.74237 6.6976-1.07406 1.8281-.26852 3.6404-.53703 5.4369-.77396 1.6232-.22113 3.2464-.39487 4.8538-.58441s3.2149-.36329 4.8381-.53703c1.2765-.12636 2.5687-.23692 3.8609-.34749 1.4499-.12636 2.884-.25272 4.3338-.363285.8195-.06318 1.639-.126358 2.4742-.173743 1.702-.110565 3.3882-.205336 5.0902-.300106.5673-.03159 1.1504-.06318 1.7177-.078975 1.8754-.06318 3.7507-.12636 5.6261-.18954 3.7979-.14215461 7.6116-.1579501 11.4096-.1263601 2.0644.015795 4.1289.0947711 6.1775.1421561.3625 0 .4571.094771.5674.44226.0945.25272.0788.537033-.0315.773953-.1419.26852-.1734.56862-.1104.85293.0631.34749.0158.71078-.1576 1.01088-.2679.52123-.457 1.08985-.5515 1.65847-.0631.3317-.2206.6318-.4413.88452-.1891.22113-.3782.44226-.2206.75816.1576.30011.4255.26852.6934.26852.0946-.0158.1891-.0158.2837 0 .52.14215.7876.41067.6618.94769-.0788.34749-.1891.69498-.3151 1.02668-.1104.23692-.1419.52124-.0788.77396.126.48965.0157 1.01085-.2995 1.40575-.2048.3001-.3151.6476-.2994 1.0109.1419.0474.2994.0632.457.0948.4098.0315.8196.0789 1.2296.0947 1.339.0474 2.694.0632 4.034.1106.236.0158.473.0474.693.1263.253.0632.426.2686.457.5213.111.3791.253.7581.442 1.1056.141.3001.189.3949-.079.6318-.473.4581-.772 1.0741-.835 1.7217-.111.6002-.379 1.153-.773 1.5953-.204.2685-.299.616-.267.9477 0 .5054-.174.9951-.505 1.3741-.157.1738-.299.3633-.394.5687-.079.2369-.299.4106-.551.4264-1.34.1896-2.679.2369-4.0189.1422-.5831-.0474-1.1662-.0474-1.7493-.079-.1891-.0316-.3782.0948-.4255.2843-.0472.1106-.0788.2211-.0945.3475-.0473.4581.063.616.52.6476 1.6863.1737 3.3882.2527 5.0902.1895 1.781-.0631 3.562.0316 5.327.3001l.236.0474c.236.079.299.2054.173.4265-.126.1895-.141.4265-.078.6476.063.2527 0 .5054-.142.7108-.079.1737-.142.3632-.205.5528-.047.1737-.126.3475-.221.5054-.315.3633-.551.7898-.709 1.2478-.063.158-.142.3001-.189.4897-.032.0789-.079.2053-.047.2685.126.2527 0 .4738-.095.6792-.173.4738-.425.9161-.741 1.311-.047.0631-.078.1421-.094.2211-.016.0632-.032.1263-.047.2053-.237.8529-.457 1.0109-1.34 1.0109-1.623 0-3.246-.0948-4.8537-.2369-.1891-.0474-.3782.0632-.4413.2369-.126.3317-.2521.6476-.3624.9793-.0158.1106 0 .2211.0788.3001.126.079.1891.2369.1418.3791-.0315.3317-.0788.6634-.1418.9793-.0473.2211-.1261.4422-.1576.6633-.0158.3475-.1891.6792-.4728.8846-.0946.0947-.1734.2053-.2049.3317-.1576.4738-.2994.9635-.4412 1.4531-.0473.1422-.0946.3001-.1261.4581-.0158.3001-.1891.5686-.457.7107-.1261.0948-.2206.2212-.2679.3791-.0473.1738-.0788.3633-.0946.5528-.0315.1738-.0945.3633-.1418.5371-.0158.0631-.0788.1263-.0788.1737 0 .4107-.2521.6792-.5201.9477-.1575.1738-.2836.3633-.3939.5528-.1103.2054-.331.3159-.5516.3001-.6776.0158-1.3553.0474-2.0329.079-.9298.0316-1.8596.0632-2.7894.1106-1.7177.0947-3.4197.1895-5.1375.3001-.914.0474-1.828.1105-2.7421.1737-1.371.0948-2.7578.2054-4.1289.3001-1.0716.079-2.1432.158-3.2148.2686-1.2135.1105-2.4112.2369-3.6089.3632-1.0085.1106-2.0014.2212-3.0099.3317-1.1189.1422-2.2378.2685-3.3567.4265-1.4184.2053-2.8209.3949-4.2235.6318-2.1117.3633-4.2234.7266-6.3194 1.1372-4.3653.853-8.6675 1.8796-12.954 3.0485-6.2721 1.7058-12.4655 3.6486-18.6431 5.702-2.5529.8371-5.0902 1.69-7.6431 2.5429-.4413.1738-.8983.2212-1.3711.1422-.3152-.0316-.5673-.2527-.6619-.5528-.0315-.158-.1576-.2843-.2994-.3475-.3625-.2053-.5673-.616-.4885-1.0267.063-.2685.0315-.537-.0788-.7739-.0473-.1264-.0946-.2528-.1261-.3791-.0788-.3949-.2837-.5371-.6461-.4107-.4886.1738-.9771.3633-1.4341.5844-.63037.2843-1.24498.616-1.87534.9161-.25215.1422-.56733.1738-.85099.079-.0788-.0158-.14184-.0632-.20487-.1106-.29943-.379-.61461-.7739-.53581-1.2951.09455-.4107-.11032-.8372-.50429-1.0109-.18911-.1422-.34671-.3317-.40974-.5686-.11032-.2212-.23639-.4423-.33095-.6792-.06303-.1264-.11031-.2685-.14183-.4107-.03152-.0948 0-.1895-.04727-.2685-.12608-.1738-.11032-.4265.04727-.5844.11032-.1422.11032-.3475 0-.4897-.04727-.0947-.12607-.1737-.17335-.2685-.22063-.2527-.18911-.6318.06304-.8529.01576-.0158.03152-.0158.03152-.0316.18911-.2211.22062-.537.07879-.774-.06303-.2211-.15759-.4264-.22062-.6318-.0788-.2369-.01576-.4896.17335-.6633.47277-.5371 1.05586-.9793 1.71774-1.2952.91403-.4265 1.82806-.8056 2.72633-1.2163.44126-.2053.89832-.4106 1.32372-.6318.3625-.1895.4098-.3474.268-.7107-.1261-.2212-.1261-.4897 0-.7266.0945-.2211.0787-.4738-.0316-.695-.1891-.5686-.4727-1.1214-.4097-1.7532 0-.2211-.0315-.4423-.0788-.6634 0-.1264-.0473-.3001 0-.3791.2837-.3633.1418-.695-.0158-1.0425-.0472-.0947-.1103-.1737-.1733-.2685-.20488-.2369-.17336-.5844.0473-.7739l.0157-.0158c.2837-.2843.6146-.5213.9141-.7898.126-.1895.2994-.2527.2048-.5528zm25.908-4.9122c-.0157-.0316-.0315-.0474-.0315-.0474.0315-.1422.0631-.2843.1103-.4265.6304-2.1955 1.0717-4.4542 1.2923-6.7444.1103-.932-.5516-1.7691-1.4814-1.8797-.063 0-.126-.0157-.1733-.0157-.8353-.0158-1.639.2685-2.2851.7897-.394.3317-.7722.695-1.1189 1.0741-.2206.2527-.4255.5528-.5673.8529-.2049.5054-.0788 1.0898.3467 1.4531.1733.158.4097.2212.6303.1896.4255-.0316.8195-.237 1.1032-.5844.1103-.1896.3467-.2686.5515-.1738.2049.1106.1261.3001.1104.4581-.2049 1.5795-.5358 3.159-.9929 4.6753-.2048.695-.3939 1.3899-.5988 2.0691-.1103.3633-.0158.7582.2521 1.0425.4255.537 1.1189.7897 1.7808.6318.5043-.0948.9613-.3475 1.308-.7266.6146-.6634 1.2135-1.3425 1.8281-2.0059.1418-.158.2679-.3317.4255-.5213.0945.158.1733.2843.2521.4107.2995.5212.6934.9793 1.1504 1.3584.5359.4738 1.245.6949 1.9542.6476.5043-.0474.9928-.1422 1.4813-.2686.4728-.1263.9141-.3948 1.2608-.7581.914-.9319 1.6389-1.9744 1.9226-3.2696.063-.2685.1418-.537.1733-.8213.0315-.1738.1261-.3475.2522-.4739.2836-.3001.5515-.616.7879-.9477.6304-.9319 1.182-1.8954 1.6705-2.9062.1103-.237.2206-.4739.3625-.7108.0788-.1106.1576-.2211.2521-.3317.331.2369.3467.2843.2994.5686-.0315.1264-.0472.2685-.0788.3949-.4727 1.9112-1.0873 3.7908-1.828 5.623-.1419.3633-.2679.7582-.3782 1.1372-.0946.2686 0 .5845.2363.7424.4571.4265 1.1505.4107 1.576-.0474.063-.0632.126-.1421.1575-.2211.0788-.1422.1419-.2843.2049-.4265.1734-.458.2994-.9477.4886-1.3899.583-1.4058 1.1819-2.7957 1.7807-4.1857.0631-.1422.1419-.2843.2522-.4107.1576-.2053.2994-.4738.6303-.3791.2207.0632.3467.3475.2995.7108-.0631 1.1688-.331 2.3219-.788 3.4117-.1576.3949-.2994.8056-.394 1.2162-.1103.3002.0316.6476.331.774.7722.4265 1.4498.3791 2.0329-.3159.1261-.1579.2206-.3317.2994-.5054.1419-.3001.2679-.6002.3782-.9161.5516-1.4848 1.245-2.9063 2.0803-4.2647.1575-.2685.3309-.5054.52-.7582.0788-.1105.2049-.2369.3309-.1421.0946.079.1576.2053.1734.3317.0158.1895 0 .3791-.0473.5528-.1103.616-.2521 1.2162-.3309 1.8006-.1419.8372-.1576 1.7059-.0473 2.543.0473.4423.3467.8372.7722.9951.1891.079.394.1264.6146.158.6146.0631 1.2292-.1264 1.7177-.5213.6147-.4422 1.1662-.9793 1.6548-1.5637l.2521-.2843c.0473.0158.063.0316.063.0316.0473.079.0788.1738.1104.2527.3782.9951 1.3395 1.6427 2.3953 1.6111.6146-.0158 1.2135-.1737 1.7493-.4738.9298-.4739 1.7965-1.0583 2.5687-1.7533.0946-.079.2049-.1579.3152-.2685.0946.1264.1891.2211.2679.3001.5043.616 1.2765.9635 2.0645.9477 1.0874 0 2.1432-.4107 2.9469-1.153.6304-.6002 1.1977-1.2636 1.6705-1.9744.0946-.1421.2049-.2685.3152-.4265.457.5529.8667 1.0899 1.5286 1.2952.6777.2054 1.308 0 1.9226-.2211.0316.0632.0473.0948.0316.1264-.1734.9477-.3467 1.9112-.5201 2.8746 0 .1896-.1576.3475-.3467.3475-1.1819.1738-2.3639.3633-3.5458.5371-2.5057.379-5.0272.7423-7.5329 1.153-3.2621.5212-6.4927 1.1372-9.7076 1.8322-4.9326 1.0425-9.8179 2.2745-14.6402 3.7118-5.8939 1.7375-11.6933 3.7435-17.4296 5.9548-.8353.3316-1.6547.6475-2.49.9792-.1733.0474-.2994.1738-.3309.3475-.0788.3633-.1734.7266-.2679 1.0741-.0315.1264-.0631.2527-.0946.3949-.0472.458.2364.8687.6777 1.0108.1733.0474.3624 0 .4727-.1421.0631-.079.1261-.1738.1892-.2527.2679-.4107.6618-.7424 1.1031-.9319 2.7736-1.1373 5.563-2.2271 8.3839-3.2222 7.5486-2.6852 15.2548-4.9596 23.0556-6.7919 3.6403-.8687 7.2964-1.6268 10.9683-2.2902 1.765-.3159 3.5301-.616 5.3108-.8845 1.6863-.2686 3.3725-.4739 5.0587-.7108.3783-.0474.7565-.079 1.1662-.1264.0315.2685.0473.4739.0788.6792.0473.2843.1103.5686.2049.8529.2364.6476.9455.9635 1.5759.7266.0315-.0158.063-.0316.0945-.0316.1104-.0316.2049-.079.2995-.1264.8982-.5054.9613-.7739.7879-1.5479-.0473-.2053-.0945-.4106-.1103-.6318-.0158-.2685.0473-.3317.2994-.379.5043-.0948 1.0244-.1738 1.5287-.2528 1.4971-.2053 2.9942-.4422 4.5071-.616 1.0874-.1105 2.1747-.1263 3.2621-.1895.331-.0158.6619.0474.9613.2053.4098.2212.7407 0 .7722-.458.0946-.6476-.3624-1.232-1.0086-1.3268-.063-.0158-.1418-.0158-.2048-.0158-.4098.0158-.8195.0316-1.2292.0948-1.2608.1105-2.5057.2211-3.7665.3475-1.4498.1421-2.9154.3001-4.3653.4422-.2206.0316-.4412.0316-.6934.0474 0-.1421-.0157-.2369-.0157-.3475 0-.7265.0945-1.4373.2994-2.1323.6461-2.2903 1.4026-4.549 2.2693-6.7761.2837-.7581.5358-1.5321.7249-2.3218.1734-.4265-.0315-.9161-.457-1.0741-.0157 0-.0157 0-.0315-.0158-.2521-.1263-.52-.2053-.788-.2369-.583-.0948-1.1346.2527-1.308.8056-.2521.8055-.5515 1.5794-.8352 2.3692-.4412 1.3268-1.0716 2.6062-1.8596 3.7592-.0945.1422-.2048.2843-.3309.3949-.2994.2843-.788.2843-1.0716-.0158-.1103-.1106-.1734-.2527-.2049-.3949-.0473-.3001-.063-.6002-.0473-.9161.1103-.8529.3152-1.7059.6146-2.5114.2207-.6792.4255-1.3426.6304-2.0218.1103-.2369.0157-.5054-.2206-.616-.0316-.0158-.0631-.0158-.0788-.0316-.6462-.3316-1.1189-.1895-1.4499.4739-.3309.6634-.6146 1.311-.8667 1.9744-.8668 2.1797-2.0487 4.154-3.8295 5.7335-.3309.3317-.7249.5845-1.1504.774-.1891.079-.3782.0948-.5673.0474-.2679-.1106-.5201-.2369-.7722-.4107.1418-.1421.2363-.2369.3151-.3317.8038-.8213 1.6232-1.6269 2.3954-2.464.8983-.9319 1.6232-2.006 2.1433-3.2064.3467-.7265.52-1.5163.52-2.3218-.0472-1.4058-1.1819-2.2587-2.5529-1.9112-.7092.2053-1.3553.5844-1.8596 1.1372-1.4814 1.4373-2.5215 3.2696-2.9943 5.2755-.2048.9951-.3467 1.9902-.3939 3.0011.0157.1579-.0473.3159-.1734.4106-.7722.5687-1.5129 1.1531-2.3166 1.7217-.2206.1422-.4728.2527-.7249.3317-.3152.1106-.6619-.0316-.8195-.3317-.0788-.1264-.1418-.2843-.1733-.4423-.0631-.5054-.0946-1.0108-.1419-1.5163-.0315-.3159.0788-.6318.2995-.8687 1.1977-1.4373 2.3008-2.9695 3.2936-4.5648 1.1977-1.848 2.159-3.8381 2.8839-5.9073.2995-.8687.4255-1.8006.3625-2.7167-.0158-.47387-.1103-.93192-.2994-1.35839-.2049-.58441-.8353-.88451-1.4183-.67918h-.0158c-.5201.15795-1.0086.44226-1.3868.82134-.5516.50544-1.0559 1.05826-1.4814 1.67423-1.828 2.543-2.9469 5.3861-3.7349 8.3872-.3309 1.4689-.5831 2.9536-.7249 4.4542-.0158.3633-.0946.7107-.2364 1.0424-.4728.7582-1.0401 1.4532-1.702 2.0534-.1576.1421-.3624.2211-.5831.2053-.2836 0-.4255-.1105-.4412-.3949-.0158-.2211 0-.458.0473-.6791.1891-.853.4412-1.7059.6146-2.5588.126-.6792.2206-1.3742.2521-2.0534.0946-.6476-.2837-1.2636-.914-1.4373-.3782-.1422-.8037-.1106-1.1504.079-.9613.4264-1.8123 1.074-2.49 1.8953-.0788.0948-.1418.2054-.2048.3002-.1892-.3002-.2995-.5055-.4413-.695-.4097-.5844-1.1662-.7898-1.8281-.5055-.2048.079-.3782.1738-.5831.2686-.0787.0315-.1575.0631-.2836.0947 0-.1421 0-.2527 0-.3633-.0315-.7107-.4728-1.3425-1.1189-1.5953-.5516-.2211-1.1819-.1737-1.702.1264-.5358.2527-.9771.6634-1.2607 1.1846-.7407 1.3426-1.4656 2.6852-2.2063 4.0277-.063.1106-.1261.2212-.2206.4265-.0316-.2527-.0473-.4107-.0631-.5686-.0788-.8845-.3467-1.7375-.7722-2.4956-.2521-.4423-.6934-.7582-1.1977-.8529-.7406-.158-1.5286-.0632-2.222.2843-.7564.379-1.4341.8687-2.0329 1.4689-.5201.5054-.9298 1.1056-1.1977 1.7848-.4255 1.0741-.7407 2.1955-.9613 3.3486-.0158.2053-.0788.3948-.1734.5686-.5673.8371-1.2607 1.5479-2.0802 2.1323-.0157.1106-.063.1422-.1261.158zm-17.3823 4.5015c.9771.4739 2.0487.774 3.1361.853 1.6074.1421 3.2306-.0158 4.775-.4739 1.4656-.3791 2.7894-1.153 3.8452-2.2429 1.1189-1.153 1.639-2.7799 1.4184-4.3752-.2207-1.7374-1.245-2.8589-2.8052-3.5539-.126-.0631-.2521-.1105-.4255-.1895.1103-.0948.1891-.1422.2522-.2053.6146-.5055 1.245-.9635 1.828-1.5006 1.1347-.9634 2.0172-2.1797 2.5845-3.5538.394-.9793.5201-2.0534.331-3.0958-.2679-1.7059-1.5602-3.0801-3.2464-3.4591-.5673-.0948-1.1347-.1106-1.702-.0316-1.0243.0631-2.0172.4106-2.8839.9793-1.2292.7897-2.3008 1.8164-3.1518 3.0168-.2995.4423-.6146.9161-.9141 1.3584-.063.0947-.126.1895-.2364.3317-.063-.2054-.1103-.3475-.1733-.4897-.1734-.5528-.6146-.9635-1.1662-1.1214-.4412-.1738-.9613-.079-1.308.2527-.3152.3317-.394.8055-.2049 1.2162.0316.079.0473.1737.0631.2685.063 1.1531.0315 2.3219-.1261 3.4749-.1576 1.0583-.3309 2.1007-.5043 3.159-.3467 1.9902-.7249 3.9803-1.2607 5.9389-.3152 1.2162-.6146 2.4325-.914 3.6487-.1734.6476.2048 1.311.8509 1.4847.0473.0158.0946.0158.1419.0316.4885.0948.977-.158 1.1819-.616.2364-.3475.4097-.7266.6146-1.1057z" fill="#063"/><path d="m37.1459 30.6086c.0631-.0315.1261-.0631.1891-.0947.8195-.5686 1.5287-1.2952 2.0803-2.1323.0945-.1738.1575-.3633.1733-.5687.2049-1.1372.5358-2.2586.9613-3.3485.2522-.6792.6619-1.2794 1.1819-1.7848.5989-.6002 1.2765-1.0899 2.033-1.469.6934-.3317 1.4656-.4422 2.222-.2843.5043.0948.9613.3949 1.2135.8529.4255.774.6934 1.6269.7722 2.4957.0157.1579.0315.3001.063.5686.1103-.2054.1734-.3001.2206-.4265.7407-1.3426 1.4656-2.7009 2.2063-4.0277.2994-.5212.7407-.9319 1.2607-1.1846.5201-.2843 1.1505-.3317 1.702-.1106.6777.2527 1.1504.8845 1.1662 1.6111v.3633l.2837-.0948c.1891-.0948.3782-.1895.583-.2685.6462-.2843 1.4184-.079 1.8281.5054.1418.1896.2522.3949.4413.695.0788-.1106.126-.2211.2048-.3001.6619-.8213 1.5287-1.4689 2.49-1.8954.3467-.2053.7722-.2369 1.1504-.079.6146.1896 1.0086.8056.914 1.4374-.0315.695-.1261 1.3741-.2521 2.0691-.1734.8529-.4098 1.7059-.6146 2.5588-.0473.2211-.0631.4423-.0473.6792.0158.2843.1733.3949.4412.3949.2207 0 .4255-.0632.5831-.2054.6619-.6002 1.245-1.2952 1.702-2.0533.1419-.3317.2207-.6792.2364-1.0425.1261-1.5005.3625-2.9852.6777-4.4542.7879-3.001 1.9068-5.8441 3.7349-8.3871.4255-.616.9298-1.18464 1.4813-1.67429.394-.37908.8668-.66339 1.3868-.82134.5831-.22113 1.2135.07898 1.4341.66339v.0158c.1891.42646.2837.88452.2994 1.35834.0473.9161-.0788 1.848-.3624 2.7168-.7249 2.0849-1.6863 4.0593-2.8839 5.9073-.9929 1.5953-2.096 3.1116-3.2937 4.5647-.2206.237-.3309.5529-.2994.8688.0472.5054.0788 1.0108.1418 1.5163.0315.1579.0788.3001.1734.4423.1575.3001.5042.4422.8194.3316.2522-.0631.5043-.1737.7249-.3316.7722-.5529 1.5444-1.1373 2.3166-1.7217.1261-.0948.1891-.2527.1734-.4107.0473-1.0109.1733-2.0217.394-3.0168.4727-2.006 1.5128-3.8382 2.9942-5.2755.5043-.5371 1.1504-.932 1.8596-1.1373 1.371-.3475 2.4899.5055 2.553 1.9112 0 .8056-.1892 1.5953-.5201 2.3219-.52 1.1846-1.245 2.2745-2.1432 3.2064-.788.8371-1.6075 1.6426-2.3954 2.464l-.3152.3317c.2364.1579.5043.3001.7722.4106.1891.0474.394.0316.5673-.0473.4255-.1896.8195-.4581 1.1504-.7898 1.7651-1.5795 2.9628-3.5381 3.8295-5.7336.2679-.6634.5516-1.3268.8668-1.9743.3151-.6476.8037-.8056 1.4498-.4739.2521.0632.394.3159.3309.5686 0 .0316-.0157.0474-.0315.079-.2048.6792-.4097 1.3584-.6303 2.0218-.2995.8055-.5201 1.6584-.6304 2.5114-.0315.3001-.0158.616.0473.9161.0788.4106.4727.6949.8825.616.1418-.0316.2836-.0948.394-.2054.126-.1105.2364-.2527.3309-.3948.788-1.1689 1.4183-2.4483 1.8596-3.7908.2836-.7898.5831-1.5795.8352-2.3693.1576-.5686.7249-.9161 1.308-.8055.2837.0316.5516.1105.788.2369.4255.1579.6461.6318.4885 1.0583 0 .0158-.0158.0158-.0158.0316-.2048.7897-.4412 1.5637-.7249 2.3218-.8667 2.2113-1.6389 4.4858-2.2693 6.7761-.2049.6949-.2994 1.4057-.2994 2.1323 0 .1106 0 .2053.0158.3475.2521 0 .4727 0 .6934-.0474 1.4498-.1422 2.9154-.3001 4.3652-.4423 1.2608-.1263 2.5215-.2369 3.7665-.3475.4097-.0315.8194-.0947 1.2292-.0947.6461-.0316 1.1977.4738 1.2292 1.1214 0 .0632 0 .1422-.0158.2054-.0315.4738-.3624.6791-.7722.458-.2994-.1579-.6303-.2369-.9613-.2053-1.0874.0474-2.1905.0632-3.2621.1895-1.5129.158-3.01.3949-4.5071.616-.5201.079-1.0244.158-1.5287.2527-.2679.0474-.3309.1106-.2994.3791.0315.2054.0631.4265.1103.6318.1734.774.0946 1.0583-.7879 1.5479-.0946.0474-.2049.0948-.2994.1264-.6147.2843-1.3553.0158-1.639-.616-.0158-.0316-.0315-.0632-.0315-.079-.0946-.2685-.1734-.5528-.2049-.8529-.0473-.2054-.0473-.4107-.0788-.6792-.4097.0474-.7879.079-1.1662.1264-1.6862.2369-3.3724.4422-5.0586.6949-1.7808.2685-3.5458.5687-5.3109.8846-3.6718.6633-7.328 1.4215-10.9683 2.2902-7.8008 1.848-15.507 4.1067-23.0556 6.7919-2.8209 1.0109-5.6103 2.0849-8.3839 3.2222-.4412.2053-.8352.5212-1.1031.9319-.0631.0947-.1261.1737-.1891.2527-.1104.1421-.2995.1895-.4728.1421-.4413-.1263-.7249-.5528-.6777-1.0108.0158-.1264.0473-.2686.0946-.3949.0946-.3633.1891-.7108.2679-1.0741.0315-.1737.1734-.3159.3309-.3475.8353-.3001 1.6548-.6476 2.49-.9793 5.7206-2.2271 11.5357-4.2172 17.4296-5.9705 4.838-1.4215 9.7234-2.6535 14.6402-3.696 3.2306-.6792 6.4613-1.2952 9.7076-1.8322 2.5057-.4107 5.0114-.774 7.5329-1.153 1.1819-.1738 2.3639-.3791 3.5458-.5371.1891 0 .3467-.1421.3467-.3317.1576-.9635.3467-1.9112.5201-2.8747 0-.0316-.0158-.0473-.0316-.1105-.6146.2211-1.2449.4422-1.9226.2211-.6618-.2053-1.0873-.7424-1.5286-1.2952-.1261.158-.2206.3001-.2994.4265-.4886.7265-1.0401 1.3899-1.6705 1.9744-.8037.7423-1.8596 1.153-2.9469 1.153-.8038.0158-1.5602-.3317-2.0645-.9477-.0946-.0948-.1733-.2053-.2679-.3001-.1261.0948-.2206.1737-.3152.2685-.7722.695-1.6389 1.2794-2.5687 1.7374-.5358.3002-1.1347.4581-1.7493.4739-1.0558.0316-2.0172-.616-2.3954-1.5953-.0315-.079-.0788-.1737-.1103-.2527 0 0-.0315 0-.063-.0316-.0788.0948-.1734.1895-.2522.2843-.4885.5844-1.0401 1.1056-1.6547 1.5637-.4728.3949-1.0874.5844-1.7177.5212-.2049-.0316-.4098-.0789-.6146-.1579-.4255-.158-.7249-.537-.7722-.9951-.1103-.8529-.1103-1.7059.0473-2.543.0945-.616.2206-1.2162.3309-1.8006.0315-.1896.0473-.3633.0473-.5528-.0158-.1264-.0631-.2528-.1734-.3317-.1418-.0948-.2521.0473-.3309.1421-.1891.2369-.3625.4739-.5358.7266-.8195 1.3426-1.5287 2.7799-2.0802 4.2646-.1103.3159-.2364.616-.3783.9161-.0787.1738-.1891.3475-.2994.5055-.5831.7108-1.2607.7581-2.0329.3317-.2994-.1264-.457-.4739-.331-.774.0946-.4106.2364-.8213.394-1.2162.4413-1.0898.7092-2.2429.788-3.4117.0315-.3633-.0788-.6476-.2994-.7108-.331-.0948-.4728.1738-.6304.3791-.0946.1264-.1734.2685-.2364.4107-.6146 1.3899-1.2134 2.7957-1.7808 4.1856-.1891.4581-.3309.9319-.4885 1.39-.0473.1422-.1261.3001-.2049.4265-.2994.537-.9928.7423-1.5286.4264-.0788-.0474-.1418-.0947-.2206-.1579-.2364-.1738-.331-.4739-.2522-.7424.1261-.3791.2364-.7739.3782-1.1372.725-1.8322 1.3396-3.7118 1.8281-5.623.0315-.1264.063-.2686.0788-.3949.063-.3001.0315-.3475-.2994-.5686-.0946.1105-.1734.2211-.2522.3317-.1261.2369-.2521.4738-.3624.7107-.4728 1.0109-1.0244 1.9902-1.6547 2.9063-.2364.3317-.5043.6634-.788.9477-.1261.1264-.2206.3001-.2521.4739-.0473.2843-.1261.537-.1734.8213-.3152 1.2478-.9771 2.385-1.9226 3.2538-.3467.3633-.7722.616-1.2607.7581-.4886.1264-.9929.2054-1.4814.2685-.7092.0632-1.4183-.1737-1.9541-.6476-.4728-.379-.851-.8371-1.1505-1.3583-.063-.1264-.1575-.2369-.2521-.3949-.1576.1895-.2837.3633-.4255.5212-.6146.6792-1.2135 1.3584-1.8281 2.006-.3467.3791-.8037.6318-1.308.7266-.6618.1421-1.3552-.0948-1.7807-.6318-.2522-.2843-.3467-.6792-.2522-1.0425.2049-.695.394-1.39.5831-2.0691.457-1.5322.8037-3.0959.9928-4.6754.0158-.1579.1103-.3475-.1103-.458-.2049-.0948-.4412-.0158-.5516.1737-.2679.3317-.6618.5529-1.1031.5687-.2206.0473-.457-.0316-.6304-.1896-.4097-.3633-.5515-.9477-.3467-1.4531.1419-.3159.331-.6002.5674-.853.3467-.379.7249-.7265 1.1189-1.0424.6461-.5213 1.4498-.8056 2.285-.7898.9298.0158 1.6863.7898 1.6705 1.7375 0 .0474 0 .1105-.0158.1579-.2206 2.2745-.6618 4.5332-1.2922 6.7445-.0473.1421-.0788.2843-.1103.4264-.0315-.0631-.0158-.0315.0157 0zm8.6676-2.464c-.3467-.2211-.6146-.5212-.788-.8845-.3309-.8687-.2994-1.6901.2994-2.4324.0473-.0632.0946-.1264.1576-.1896.0946-.1105.1419-.2685.0946-.4106-.1261-.616-.7249-1.0267-1.3553-.8845-.0946.0157-.2049.0631-.2994.1105-.2995.1738-.5674.3791-.8037.6476-.8353.8687-1.3711 1.9902-1.5129 3.1906-.1103.6792-.0631 1.39.1576 2.0534.3309.8687.977 1.2162 1.8595.9476 1.0717-.3474 1.6705-1.1846 2.1906-2.1481zm21.5427-8.4187h.0788c.0315-.0316.0473-.0632.0788-.0948 1.8123-2.4166 3.1833-5.1176 4.0658-7.9922.0788-.2528.1419-.5055.1891-.774.0158-.1579.0158-.3317 0-.4896-.3309-.1106-.4727.0947-.6303.2685-.9298 1.0424-1.6862 2.2271-2.2536 3.5223-.5831 1.3267-1.0086 2.7167-1.2922 4.1383-.1103.4738-.1891.9477-.2679 1.4215zm8.3208-2.2587c-.2206.079-.394.2369-.5043.4423-.6934.9951-1.1977 2.1165-1.4813 3.3011-.0473.2212-.0788.4581-.1104.7266.8195-.5528 2.4585-2.8589 2.6633-3.6802-.2048-.2686-.3782-.5213-.5673-.7898z" fill="#fff"/><path d="m19.764 35.11c-.2049.3791-.3782.7582-.5831 1.1057-.2049.4423-.6934.695-1.1819.616-.5201-.0948-.9298-.5212-1.0086-1.0583-.0158-.1579-.0158-.3159.0315-.4738.2994-1.2162.5988-2.4324.914-3.6487.5201-1.9585.9141-3.9487 1.2608-5.9389.1733-1.0424.3624-2.1007.5043-3.159.1575-1.153.1891-2.306.126-3.4749 0-.0947-.0315-.1895-.063-.2685-.1891-.4107-.1103-.8845.2049-1.2162.3467-.3317.8352-.4265 1.2764-.2685.5516.1579.9929.5844 1.1662 1.1214.0473.1422.0946.3001.1734.4897.0945-.1422.1576-.2369.2364-.3317.2994-.4581.6146-.9161.914-1.3584.851-1.2004 1.9226-2.2271 3.1518-3.0168.8668-.5686 1.8438-.9003 2.8839-.9793.5674-.079 1.1505-.0632 1.702.0316 1.6863.3791 2.9785 1.7532 3.2622 3.4591.1733 1.0424.063 2.1165-.331 3.0958-.5673 1.3742-1.4498 2.5904-2.5845 3.5539-.5831.5212-1.2134.995-1.828 1.5005l-.2522.2053.4255.1738c1.5602.6949 2.5845 1.8322 2.8051 3.5538.2364 1.5953-.2836 3.2222-1.4183 4.3753-1.0401 1.0898-2.3796 1.8638-3.8452 2.2428-1.5444.4581-3.1676.6318-4.775.4739-1.1189-.0316-2.1905-.3317-3.1676-.8056zm2.222-8.9873c.5831-.1737 1.0716-.3001 1.5444-.4738 2.3166-.7424 4.2865-2.085 6.2564-3.4592.0473-.0315.0788-.0631.1261-.1105 1.1504-1.0109 1.7965-2.464 1.7965-3.9962 0-1.2951-1.3395-2.6219-2.8682-2.2428-.5988.1579-1.1661.4422-1.6547.8371-.6461.4896-1.2292 1.0583-1.7492 1.6901-1.0401 1.2636-2.0172 2.5903-2.9155 3.9487-.063.1106-.1103.2369-.126.3633-.1103.8213-.2049 1.6427-.2995 2.464-.0472.3159-.0788.6002-.1103.9793zm-1.5916 6.6339c.1418.079.2679.1579.3939.2211.7722.3791 1.6075.5844 2.4585.616 1.2764.0632 2.5529-.1263 3.7506-.5686 1.1977-.3949 2.0802-1.39 2.3324-2.622.3624-1.2794-.3625-2.6061-1.6232-2.9852-.4255-.1264-.8668-.2053-1.308-.1896-1.6232.0316-3.1991.4423-4.6174 1.2163-.2207.0947-.3625.3001-.394.537-.2049.9635-.4413 1.9112-.6777 2.8747-.1103.2527-.2206.5528-.3151.9003z" fill="#fff"/><path d="m45.8136 28.1442c-.5043.9793-1.1031 1.8322-2.1905 2.1323-.8983.2685-1.5444-.079-1.8596-.9477-.2206-.6634-.2679-1.3584-.1576-2.0534.1576-1.2004.6777-2.3218 1.5129-3.1905.2206-.2528.5043-.4739.8037-.6476.5516-.2843 1.245-.079 1.5444.4896.0473.0948.0788.1895.1103.3001.0473.1422 0 .3001-.0945.4107-.0473.0632-.0946.1263-.1576.1895-.6146.7582-.6146 1.5795-.2994 2.4324.1733.3475.4412.6634.7879.8846zm21.5427-8.4188c.0788-.4738.1576-.9319.2679-1.4057.268-1.4216.7092-2.8115 1.2923-4.1383.5673-1.2794 1.3238-2.464 2.2536-3.5223.1575-.1737.2994-.3791.6303-.2685.0158.1579.0158.3317 0 .4896-.0473.2686-.1103.5213-.1891.774-.8825 2.8747-2.2693 5.5914-4.0658 7.9923-.0316.0316-.0473.0631-.0788.0947zm8.3209-2.2586c.1891.2527.3624.5054.5673.7897-.2049.8213-1.8438 3.1274-2.6633 3.6802.0473-.2685.063-.5054.1103-.7265.2837-1.1847.7722-2.3061 1.4656-3.3012.1261-.2053.2994-.3633.5201-.4422zm-53.7072 8.6398c.0473-.3791.0631-.6634.0946-.9477.0946-.8213.2049-1.6427.2994-2.464.0158-.1264.0788-.2527.1419-.3633.8982-1.3742 1.8753-2.6851 2.9154-3.9487.52-.6318 1.1031-1.2005 1.7493-1.6901.4885-.3949 1.0558-.6792 1.6547-.8371 1.5128-.3791 2.8681.9319 2.8681 2.2429.0158 1.5321-.6461 3.001-1.7965 3.9961-.0315.0316-.0788.079-.1261.1106-1.9699 1.3741-3.9398 2.7167-6.2564 3.4591zm-1.5759 6.6339c.0946-.3317.1891-.6318.2679-.9477.2364-.9477.4728-1.9112.6777-2.8747.0315-.2369.1891-.4422.394-.537 1.434-.7582 3.0257-1.1688 4.6489-1.1846.457 0 .8983.0631 1.3238.2053 1.2607.3791 1.9856 1.7217 1.6232 2.9853-.2522 1.232-1.1347 2.2428-2.3324 2.6219-1.1977.4423-2.4899.6318-3.7664.5529-.851-.0316-1.6863-.237-2.4585-.6161zm-3.6718 26.4566v.3317h-1.9227v4.8333h-.4097v-4.8175h-1.9226v-.3317zm4.8538 0v5.165h-.394v-2.4324h-3.4355v2.4324h-.394v-5.165h.394v2.3851h3.4355v-2.3851zm3.987 0v.3317h-2.3954v2.0692h2.3481v.3317h-2.3481v2.0849h2.4742v.3317h-2.8681v-5.165zm3.3725 0v4.8333h2.553v.3317h-2.947v-5.165zm5.6417-.0632c.725-.0157 1.4184.2686 1.9384.774 1.0401.9951 1.0716 2.6378.0631 3.6802-.0158.0158-.0473.0474-.0631.0632-1.0874 1.0267-2.7736 1.0267-3.861 0-1.0401-1.0109-1.0558-2.6535-.063-3.696.0158-.0158.0315-.0316.063-.0632.5043-.4896 1.2135-.7739 1.9226-.7582zm.0158 4.9281c1.2607 0 2.2693-1.0267 2.2693-2.2745 0-1.2636-1.0243-2.2745-2.2693-2.2745-.6146-.0158-1.1977.2212-1.6389.6634-.8983.9003-.8983 2.3377 0 3.238.4412.4107 1.0401.6476 1.6389.6476zm8.3208-4.8649v5.165h-.3309l-3.9083-4.5174v4.5174h-.394v-5.165h.331l3.9083 4.5174v-4.5016zm1.182 0h1.7965c.914 0 1.6074.237 2.0802.7266.9613 1.0425.9613 2.6536 0 3.7118-.5516.5213-1.2765.774-2.0172.7266h-1.8753zm.3939.3317v4.5016h1.4499c.6146.0158 1.2134-.1895 1.6705-.616.4412-.4265.6934-1.0109.6618-1.6269.0158-.616-.2206-1.2004-.6618-1.6269-.4571-.4264-1.0717-.6634-1.702-.6318zm7.6905-.3949c.7249-.0157 1.4183.2686 1.9384.774 1.0401 1.0109 1.0558 2.6536.063 3.696-.0157.0158-.0315.0316-.063.0632-1.0874 1.0267-2.7736 1.0267-3.861 0-1.0401-1.0109-1.0559-2.6535-.0631-3.696.0158-.0158.0316-.0316.0631-.0632.5043-.5054 1.1977-.7897 1.9226-.774zm0 4.9281c.6146.0158 1.1977-.2211 1.6232-.6634.8825-.9003.8825-2.3377 0-3.238-.914-.8845-2.3481-.8845-3.2621 0-.8983.9003-.8983 2.3377 0 3.238.4412.4265 1.0243.6634 1.6389.6634zm8.3208-4.8649v5.165h-.3309l-3.9083-4.5174v4.5174h-.394v-5.165h.331l3.9082 4.5174v-4.5016zm3.2779 0h1.0716c.4571-.0316.8983.0948 1.2765.3633.2995.2369.457.6002.4413.9793 0 .4896-.2837.9477-.7407 1.153.788.1738 1.1977.616 1.1977 1.311.0158.3949-.1576.7582-.4728.9951-.3624.2685-.8037.3949-1.2607.3791h-1.5129zm.394.3317v2.0534h.5516c.9298 0 1.4025-.3475 1.4025-1.0267s-.4727-1.0267-1.4183-1.0267zm0 2.3851v2.1007h1.0716c.3625.0316.7092-.079 1.0086-.2843.2206-.1896.3467-.4739.3467-.7582 0-.7107-.5043-1.0582-1.5129-1.0582zm6.0988-2.7958c.7249-.0157 1.4183.2686 1.9384.774 1.0401.9951 1.0716 2.6378.063 3.6802-.0158.0158-.0473.0474-.063.0632-1.0874 1.0267-2.7736 1.0267-3.861 0-1.0401-1.0109-1.0559-2.6535-.0631-3.696l.0631-.0632c.5043-.4896 1.2134-.7582 1.9226-.7582zm0 4.9281c.6146.0158 1.1977-.2211 1.6232-.6634.8825-.9003.8825-2.3377 0-3.238-.9141-.8845-2.3481-.8845-3.2622 0-.8982.8845-.8982 2.3377 0 3.238.4413.4423 1.0401.6792 1.6547.6634zm3.6876-4.8649h1.3238c.457-.0316.8983.0948 1.2607.3633.2837.2369.457.6002.4413.9793 0 .616-.331 1.0109-.9771 1.2636.2837.2053.5201.4739.6934.7898l1.1662 1.7848h-.4728l-.914-1.4058c-.1891-.3317-.4255-.6318-.6934-.8845-.2206-.1263-.4728-.1895-.7407-.1737h-.6934v2.4798h-.394zm.394.3317v2.0534h.8825c.3467.0158.7092-.0632.9928-.2685.2364-.1738.3625-.4581.3467-.7424.0158-.2843-.126-.5686-.3467-.7424-.2994-.1895-.6461-.2843-1.0085-.2685h-.8353zm6.3352-.3791c.7249-.0157 1.4183.2686 1.9383.774 1.0401 1.0109 1.0559 2.6536.0631 3.696-.0158.0158-.0315.0316-.0631.0632-.52.5055-1.2134.7898-1.9383.774-.7249.0158-1.4183-.2685-1.9226-.774-1.0401-1.0109-1.0559-2.6535-.0631-3.696l.0631-.0632c.5043-.5054 1.1977-.7897 1.9226-.774zm.0157 4.9281c1.2608 0 2.2693-1.0267 2.2693-2.2745 0-1.2636-1.0243-2.2745-2.2693-2.2745-.6146-.0158-1.1977.2212-1.6389.6634-.8983.8845-.8983 2.3377 0 3.238.4255.4107 1.0243.6476 1.6389.6476zm7.4699-4.8649h.4097v2.8115c.0315.6476-.1734 1.2952-.6146 1.7849-.4098.4264-.9771.6476-1.5602.6318-.583.0316-1.1504-.1896-1.5601-.616-.4255-.4581-.6461-1.0741-.6146-1.7059v-2.9063h.394v2.8905c-.0316.5212.1418 1.0425.4885 1.4374.6934.6949 1.828.6949 2.5372 0 .3467-.4107.5201-.9477.4885-1.5006v-2.8431zm5.7678.3633v.4581c-.5516-.3317-1.1819-.5055-1.8281-.5213-1.2764.0158-2.285 1.0583-2.2693 2.3377 0 .5844.2364 1.153.6461 1.5795.4728.4422 1.1032.6792 1.7493.6476.4886.0158.9771-.0948 1.4026-.3001v-1.39h-1.0874v-.3317h1.4814v1.9586c-.5674.2843-1.182.4265-1.8281.4423-.7407.0158-1.4656-.2528-2.0014-.7582-1.0401-1.0267-1.0559-2.7009-.0473-3.7434l.0473-.0474c.5358-.5054 1.245-.7739 1.9856-.7582.6146.0158 1.2135.1738 1.7493.4265zm5.3424-.3633v5.165h-.3783v-2.4324h-3.4355v2.4324h-.3939v-5.165h.3939v2.3851h3.4355v-2.3851z" fill="#063"/></svg>