<svg xmlns="http://www.w3.org/2000/svg" width="160" height="40" viewBox="0 0 160 40"><path fill="#ED1C24" d="M17.555 39.304C9.293 37.994 2.9 31.937 1.203 23.816.87 22.224.76 19.277.973 17.65 2.112 8.888 8.634 2.19 17.426.746c1.705-.28 5.114-.202 6.743.155 6.965 1.524 12.409 6.38 14.608 13.028.666 2.015.967 3.9.967 6.07 0 9.139-6.26 16.941-15.27 19.033-1.424.33-5.531.492-6.92.272zm2.02-8.845c-1.019-1.188-2.58-3.67-3.057-4.86-.433-1.082-.48-1.342-.481-2.737-.003-1.394.038-1.63.421-2.461.755-1.635 2.129-2.549 3.845-2.559 2.51-.014 4.356 2.142 4.344 5.075-.007 1.922-1.011 4.17-3.006 6.73l-1.153 1.479 1.114-.101a13.75 13.75 0 008.563-4.073c1.233-1.256 1.86-2.15 2.614-3.723.992-2.075 1.292-3.433 1.298-5.873.003-1.643-.06-2.315-.32-3.348C32.085 7.335 25.645 2.84 18.862 3.611 13.14 4.262 8.37 8.432 6.972 14.008c-.464 1.855-.459 4.888.013 6.651 1.42 5.304 5.643 9.247 10.934 10.207.578.105 1.308.197 1.62.204l.57.013-.535-.624zm77.501.988c-1.414-.26-3.139-.84-4.028-1.354-2.125-1.227-3.51-3.533-3.988-6.644-.214-1.39-.082-4.44.247-5.726.582-2.275 1.778-4.058 3.512-5.234 1.731-1.175 5.331-1.84 8.31-1.537 3.045.311 4.882 1.06 6.428 2.623 1.153 1.165 1.77 2.33 2.246 4.233.438 1.755.47 5.459.062 7.036-.89 3.441-2.936 5.51-6.329 6.398-1.56.41-4.795.512-6.46.205zm4.984-3.72c1.103-.49 1.595-.935 2.116-1.913.634-1.189.897-2.527.897-4.567 0-4.752-1.672-6.824-5.5-6.818-1.768.003-2.768.315-3.704 1.157-1.26 1.133-1.8 2.83-1.8 5.66 0 3.922 1.222 6.107 3.776 6.75.988.249 3.395.095 4.215-.27zM54.445 30.92c-.075-.193-1.993-4.54-4.262-9.66-2.269-5.121-4.125-9.366-4.125-9.434 0-.067.848-.122 1.885-.122 1.69 0 1.953.035 2.533.34.359.19.815.599 1.025.918.207.317 1.456 3.12 2.774 6.23 1.318 3.108 2.443 5.742 2.5 5.851.062.12 1.07-2.215 2.49-5.764 1.313-3.28 2.528-6.173 2.701-6.428.173-.256.606-.619.962-.806.59-.311.833-.341 2.736-.341h2.089l-4.032 8.919c-2.218 4.905-4.196 9.134-4.396 9.397-.617.81-1.372 1.091-3.164 1.176-1.56.074-1.581.071-1.716-.276zm20.756-.009c-2.753-.52-5.079-2.952-5.972-6.244-.458-1.69-.456-4.94.004-6.569.712-2.519 2.165-4.531 3.963-5.49 1.664-.887 2.22-.958 7.584-.968l4.845-.01v3.524l-4.188.073-4.188.074-.967.476c-.675.332-1.09.654-1.377 1.068-.405.584-.805 1.802-.805 2.45v.333l5.542.039 5.542.038v3.377l-5.542.038-5.542.039v.319c0 .175.108.704.24 1.174.325 1.161 1.12 2.052 2.223 2.49.79.312 1.09.336 4.987.387l4.148.055v3.5l-4.882-.017c-2.685-.01-5.212-.08-5.615-.156zm43.288-.12c-.578-.15-1.33-.417-1.672-.592-.884-.45-2.006-1.63-2.427-2.547-.662-1.446-.712-2.093-.718-9.268l-.005-6.754h1.541c1.333 0 1.611.044 2.056.322.982.616.946.366 1.027 7.24l.074 6.239.367.653c.264.47.572.758 1.096 1.027.714.367.806.376 4.295.423l3.565.049v3.5l-4.075-.008c-3.495-.007-4.223-.047-5.124-.283zm12.02-8.774c.04-8.624.055-9.086.32-9.477.465-.686 1.037-.889 2.694-.956l1.505-.06v9.053c0 9.99.032 9.635-.924 10.219-.39.237-.742.286-2.053.287h-1.583l.041-9.066zm6.944 8.894c.042-.107 1.783-4.126 3.871-8.93 4.25-9.783 4.284-9.842 5.738-10.217 1.023-.264 3.582-.28 3.787-.024.116.145 7.959 18.101 8.34 19.094.087.227-.08.25-1.834.25-2.857 0-3.311-.289-4.427-2.812l-.672-1.52-3.919-.039-3.918-.039-.15.396c-.083.217-.44.999-.795 1.736-.514 1.072-.768 1.429-1.265 1.773-.606.42-.672.432-2.726.478-1.7.039-2.09.01-2.03-.146zm13.68-7.94c-1.12-2.688-2.656-6.231-2.74-6.321-.089-.096-1.17 2.278-2.744 6.028l-.2.477h2.88c2.247 0 2.864-.04 2.804-.183z"/></svg>