<svg width="112" height="16" viewBox="0 0 112 16" xmlns="http://www.w3.org/2000/svg"><g fill="none" fill-rule="evenodd"><path d="M104 1c.3 0 .6.2.8.4l7 12.3c.2.2.2.6 0 .9 0 .2-.4.4-.7.4H97a.9.9 0 0 1-.8-.4.9.9 0 0 1 0-1l7.1-12.2c.2-.2.5-.4.8-.4zm-1 10.2v2h2v-2h-2zm0-6.1v5h2v-5h-2z" fill="#999" fill-rule="nonzero"/><g transform="translate(81)"><path stroke="#999" stroke-width="2" d="M11 3L3 8l8 5"/><circle fill="#999" cx="11" cy="3" r="3"/><circle fill="#999" cx="3" cy="8" r="3"/><circle fill="#999" cx="11" cy="13" r="3"/></g><path d="M68.8 13.1a1.9 1.9 0 1 1-3.8 0 1.9 1.9 0 0 1 3.8 0zM65 5.8v2.8c3.5 0 6.4 2.9 6.4 6.4h2.8c0-5-4.1-9.2-9.2-9.2zm0-2c6.2 0 11.2 5 11.2 11.2H79A14 14 0 0 0 65 1v2.8zM18 0h6.5L31 8l-6.5 8H18l6.5-8M48 2v6.5L40 15l-8-6.5V2l8 6.5M48 14V7.5L56 1l8 6.5V14l-8-6.5M14 0H7.5L1 8l6.5 8H14L7.5 8" fill="#999" fill-rule="nonzero"/></g></svg>