<svg xmlns="http://www.w3.org/2000/svg" width="400" height="251.7" viewBox="0 0 400 251.7"><path d="M58.06,135.35c-.81.25-1.52.42-2.2.68-5.55,2.17-11.09,4.34-16.63,6.56a56.86,56.86,0,0,1-9.32,3.17,3.93,3.93,0,0,1-2.7-.16,2.77,2.77,0,0,1-1.56-3.26,2.66,2.66,0,0,0-.08-1.53c-.36-1.12-.61-2.28-1-3.4a13.54,13.54,0,0,0-.85-1.92c-1-1.89-.82-4.06-1.49-6a2.22,2.22,0,0,1,.4-1.6,2,2,0,0,0,0-2.11A16.25,16.25,0,0,1,21.09,121,3.86,3.86,0,0,1,23,116.66c2.26-1.33,4.56-2.6,6.92-3.77a138.79,138.79,0,0,1,13.75-5.58q6.59-2.48,13.13-5a36.18,36.18,0,0,0,3.54-1.73,2,2,0,0,0,.92-2.8,13.61,13.61,0,0,1-1.65-7.46,4,4,0,0,0-.09-.58,3,3,0,0,0-1,0c-1.69.57-3.42,1.1-5,1.82a62.71,62.71,0,0,1-10.08,3.77,5.5,5.5,0,0,1-3.47-.11,3.65,3.65,0,0,1-2.32-2.5,11.66,11.66,0,0,1-.39-2.2c-.14-1.56-.21-3.13-.29-4.69,0-.5,0-.94-.61-1.19a1,1,0,0,1-.54-.67c-.18-1.6-.31-3.21-.46-4.83a.52.52,0,0,1,.08-.38c.84-.67.43-1.46.28-2.26-.23-1.16-.33-2.34-.56-3.5a6.53,6.53,0,0,0-.63-1.57c-.13-.27-.48-.5-.5-.75-.08-1.37-.76-2.67-.47-4.09a4.14,4.14,0,0,0,.06-.79,4.49,4.49,0,0,1,3.19-4.49C45,58,53.41,55,61.9,52.35q23.82-7.5,48.29-12.61c10.63-2.24,21.29-4.29,32-6.25,7.32-1.34,14.7-2.42,22.06-3.54q9-1.36,17.94-2.55c5.35-.71,10.7-1.32,16-1.94s10.62-1.21,15.94-1.75c4.22-.43,8.46-.77,12.7-1.14q7.14-.63,14.27-1.22c2.71-.23,5.42-.4,8.14-.57q8.38-.54,16.78-1c1.89-.1,3.77-.21,5.65-.27,6.17-.23,12.36-.41,18.53-.63,12.54-.47,25.08-.54,37.62-.41,6.79.06,13.59.31,20.38.48,1.18,0,1.51.31,1.89,1.44a3.23,3.23,0,0,1-.1,2.55,3.94,3.94,0,0,0-.34,2.8,4.8,4.8,0,0,1-.52,3.32,19.74,19.74,0,0,0-1.83,5.46,6.33,6.33,0,0,1-1.48,2.9c-.61.71-1.24,1.46-.74,2.47s1.41.89,2.3.87a2.84,2.84,0,0,1,.92,0c1.7.47,2.58,1.34,2.16,3.12a29.74,29.74,0,0,1-1.05,3.36,4.09,4.09,0,0,0-.26,2.56,5.3,5.3,0,0,1-1,4.6,5.67,5.67,0,0,0-1,3.34,11.33,11.33,0,0,0,1.5.29c1.35.12,2.71.25,4.06.29,4.43.13,8.86.21,13.28.36a9.5,9.5,0,0,1,2.3.41,1.93,1.93,0,0,1,1.49,1.73,16.73,16.73,0,0,0,1.45,3.65c.48,1,.6,1.29-.28,2.08a9.12,9.12,0,0,0-2.76,5.67,11,11,0,0,1-2.53,5.27,4.56,4.56,0,0,0-.88,3.14,6.92,6.92,0,0,1-1.67,4.5A7.2,7.2,0,0,0,361.8,87,2,2,0,0,1,360,88.41a64.54,64.54,0,0,1-13.25.45c-1.92-.14-3.86-.16-5.78-.25a1.28,1.28,0,0,0-1.41.93,6.38,6.38,0,0,0-.3,1.14c-.16,1.52.2,2,1.74,2.13a124,124,0,0,0,16.8.64,92.22,92.22,0,0,1,17.57,1,6.53,6.53,0,0,1,.77.14c.77.27,1,.7.57,1.41a2.7,2.7,0,0,0-.28,2.15,2.86,2.86,0,0,1-.47,2.35,12,12,0,0,0-.66,1.83,4.87,4.87,0,0,1-.74,1.65,12.6,12.6,0,0,0-2.35,4.08c-.21.52-.45,1-.63,1.59-.11.27-.28.66-.17.87.44.85,0,1.54-.32,2.23a15.16,15.16,0,0,1-2.43,4.33,1.9,1.9,0,0,0-.31.71c-.06.21-.09.44-.14.65-.8,2.81-1.51,3.33-4.44,3.33-5.35,0-10.68-.31-16-.78a1.22,1.22,0,0,0-1.46.8c-.41,1.07-.84,2.12-1.17,3.2a1.18,1.18,0,0,0,.25,1,1.18,1.18,0,0,1,.49,1.26c-.12,1.08-.27,2.17-.45,3.24-.13.73-.41,1.43-.5,2.17a4,4,0,0,1-1.54,2.93,2.3,2.3,0,0,0-.66,1.09c-.51,1.58-1,3.19-1.43,4.78a11.69,11.69,0,0,0-.42,1.51,2.81,2.81,0,0,1-1.49,2.32,2.37,2.37,0,0,0-.86,1.24,15,15,0,0,0-.3,1.8c-.12.59-.3,1.17-.47,1.75-.07.21-.27.39-.27.59,0,1.37-.85,2.21-1.69,3.12a9.84,9.84,0,0,0-1.28,1.83,1.92,1.92,0,0,1-1.83,1c-2.24.07-4.47.17-6.7.25-3.06.12-6.13.2-9.19.36-5.65.29-11.29.63-16.94,1-3,.17-6,.35-9.05.56-4.54.32-9.09.67-13.63,1-3.54.27-7.08.54-10.61.87-4,.36-7.93.8-11.89,1.22-3.32.35-6.62.71-9.92,1.1-3.7.45-7.4.9-11.08,1.41-4.65.65-9.29,1.29-13.91,2.07-6.95,1.17-13.9,2.38-20.82,3.72-14.37,2.79-28.59,6.19-42.71,10-20.68,5.61-41.11,12-61.45,18.74q-12.61,4.15-25.18,8.37a8.42,8.42,0,0,1-4.5.47,2.53,2.53,0,0,1-2.17-1.82,1.65,1.65,0,0,0-1-1.14,3.21,3.21,0,0,1-1.59-3.4,3.72,3.72,0,0,0-.27-2.56,5.19,5.19,0,0,1-.39-1.23c-.24-1.28-.94-1.79-2.12-1.37-1.61.56-3.2,1.2-4.75,1.91-2.08.93-4.11,2-6.16,3a3.45,3.45,0,0,1-2.79.28,1.7,1.7,0,0,1-.68-.36c-1-1.26-2-2.54-1.79-4.28a3,3,0,0,0-1.65-3.35,3.66,3.66,0,0,1-1.37-1.87c-.35-.74-.76-1.46-1.1-2.21a7.75,7.75,0,0,1-.46-1.33c-.08-.29,0-.64-.15-.89a1.47,1.47,0,0,1,.15-1.91,1.31,1.31,0,0,0,0-1.61c-.17-.3-.39-.58-.58-.88a2,2,0,0,1,.32-2.92,2.29,2.29,0,0,0,.26-2.57c-.22-.71-.52-1.39-.75-2.09a2.11,2.11,0,0,1,.55-2.17,17.9,17.9,0,0,1,5.64-4.25c3-1.38,6-2.64,9-4,1.47-.66,2.95-1.35,4.38-2.1,1.17-.61,1.37-1.14.87-2.36a2.52,2.52,0,0,1,0-2.37,2.67,2.67,0,0,0-.11-2.27c-.64-1.87-1.57-3.69-1.34-5.79a12.06,12.06,0,0,0-.25-2.2c0-.41-.17-1,0-1.23.95-1.19.47-2.31-.06-3.44a7.38,7.38,0,0,0-.59-.87,1.82,1.82,0,0,1,.21-2.61c.93-.92,2-1.72,3-2.58C57.78,136.57,58.37,136.32,58.06,135.35Zm85.37-16.16c-.07-.12-.12-.16-.12-.18.1-.46.21-.94.34-1.4a123,123,0,0,0,4.26-22.16,5.57,5.57,0,0,0-5.47-6.22,11.61,11.61,0,0,0-7.55,2.6,34.39,34.39,0,0,0-3.7,3.54,12.56,12.56,0,0,0-1.88,2.83,4.22,4.22,0,0,0,1.12,4.79,2.47,2.47,0,0,0,2.08.61,5.1,5.1,0,0,0,3.61-1.9,1.41,1.41,0,0,1,1.83-.56c.69.37.41,1,.34,1.52a94,94,0,0,1-3.28,15.4c-.66,2.27-1.29,4.55-1.95,6.81a3.64,3.64,0,0,0,.81,3.44,5.86,5.86,0,0,0,5.89,2.09,7.52,7.52,0,0,0,4.3-2.38c2.05-2.16,4-4.4,6-6.61.47-.51.87-1.08,1.39-1.72.33.53.59.93.83,1.33a15.91,15.91,0,0,0,3.8,4.49,8.83,8.83,0,0,0,6.45,2.13,32.53,32.53,0,0,0,4.89-.87,8.92,8.92,0,0,0,4.13-2.47c3-3.06,5.38-6.47,6.33-10.73.2-.89.46-1.79.59-2.7a3.11,3.11,0,0,1,.83-1.58,26.57,26.57,0,0,0,2.58-3.14,67.75,67.75,0,0,0,5.48-9.58c.35-.8.75-1.58,1.17-2.35a11.13,11.13,0,0,1,.81-1.1c1.09.78,1.16.91,1,1.88-.08.44-.18.86-.28,1.28a144.38,144.38,0,0,1-6,18.48c-.49,1.22-.86,2.48-1.25,3.73a2.19,2.19,0,0,0,.8,2.46,3.69,3.69,0,0,0,5.76-.89,7.93,7.93,0,0,0,.66-1.42c.55-1.53,1-3.1,1.63-4.58,1.92-4.61,3.91-9.19,5.88-13.78a6.9,6.9,0,0,1,.81-1.35c.51-.69,1-1.56,2.07-1.24.74.21,1.12,1.13,1,2.35a34.41,34.41,0,0,1-2.58,11.22,26.08,26.08,0,0,0-1.3,4,2,2,0,0,0,1.11,2.54c2.53,1.42,4.78,1.24,6.69-1.06a7.61,7.61,0,0,0,1-1.68,30.55,30.55,0,0,0,1.26-3,81.34,81.34,0,0,1,6.84-14,26.32,26.32,0,0,1,1.74-2.48c.26-.34.65-.77,1.09-.47a1.59,1.59,0,0,1,.56,1.09,7,7,0,0,1-.14,1.83c-.35,2-.81,4-1.1,5.94a27.38,27.38,0,0,0-.13,8.38,3.91,3.91,0,0,0,2.52,3.26,9,9,0,0,0,2,.5,7.87,7.87,0,0,0,5.65-1.72,30.06,30.06,0,0,0,5.44-5.13l.82-.92c.14.07.2.09.21.11.13.28.25.56.38.83a8.22,8.22,0,0,0,7.92,5.28,12.49,12.49,0,0,0,5.79-1.55,41.21,41.21,0,0,0,8.48-5.74c.32-.28.67-.54,1.05-.86.33.39.6.73.88,1a8.73,8.73,0,0,0,6.82,3.14,14.39,14.39,0,0,0,9.69-3.78,37.25,37.25,0,0,0,5.52-6.51c.31-.45.65-.89,1.05-1.41,1.49,1.81,2.84,3.56,5.05,4.26s4.29,0,6.32-.74c.08.23.13.32.12.39-.57,3.14-1.16,6.29-1.7,9.43a1.15,1.15,0,0,1-1.16,1.12c-3.91.55-7.8,1.17-11.7,1.76-8.27,1.26-16.55,2.45-24.81,3.79q-16.09,2.61-32,6-24.37,5.13-48.27,12.19c-19.42,5.72-38.55,12.3-57.43,19.6-2.74,1.07-5.46,2.15-8.2,3.21a1.54,1.54,0,0,0-1.11,1.16c-.25,1.2-.59,2.37-.89,3.55a9.5,9.5,0,0,0-.3,1.28,3.18,3.18,0,0,0,2.23,3.32,1.48,1.48,0,0,0,1.56-.45c.23-.26.4-.57.63-.84a8.5,8.5,0,0,1,3.64-3.08c9.12-3.74,18.32-7.31,27.61-10.61a720,720,0,0,1,76-22.34q18-4.25,36.14-7.54,8.72-1.58,17.5-2.92c5.54-.86,11.1-1.57,16.65-2.32,1.24-.17,2.49-.26,3.83-.41.11.87.15,1.57.28,2.24a14.61,14.61,0,0,0,.7,2.79,4.06,4.06,0,0,0,5.51,2.29,7.63,7.63,0,0,0,1-.41c2.94-1.64,3.18-2.55,2.62-5.1a16.36,16.36,0,0,1-.38-2.07c-.06-.87.13-1.09,1-1.24,1.68-.29,3.37-.59,5.05-.81,4.95-.69,9.88-1.45,14.84-2,3.57-.38,7.17-.44,10.77-.6a6,6,0,0,1,3.16.68c1.34.73,2.42,0,2.52-1.52a3.86,3.86,0,0,0-4-4.38,40,40,0,0,0-4.07.29c-4.14.36-8.28.73-12.43,1.14-4.8.47-9.59,1-14.38,1.46-.73.08-1.46.08-2.26.13,0-.46-.07-.79-.07-1.13a24.41,24.41,0,0,1,1-7,234.11,234.11,0,0,1,7.5-22.28,68.93,68.93,0,0,0,2.4-7.63,2.73,2.73,0,0,0-1.59-3.59,7.49,7.49,0,0,0-2.62-.78,3.8,3.8,0,0,0-4.29,2.67c-.84,2.64-1.81,5.22-2.75,7.81A50.6,50.6,0,0,1,293.79,92a6.29,6.29,0,0,1-1.11,1.29,2.5,2.5,0,0,1-4.2-1.36,11.12,11.12,0,0,1-.13-3,37.57,37.57,0,0,1,2-8.28c.73-2.21,1.41-4.42,2.07-6.65a1.51,1.51,0,0,0-1-2.11c-2.13-1.08-3.71-.62-4.76,1.54s-2,4.29-2.87,6.48c-2.87,7.19-6.77,13.66-12.61,18.85a13.14,13.14,0,0,1-3.77,2.57,3.09,3.09,0,0,1-1.89.16,14.4,14.4,0,0,1-2.52-1.33c.46-.47.76-.77,1.05-1.08,2.64-2.68,5.33-5.34,7.92-8.08a34.94,34.94,0,0,0,7.07-10.53,18.11,18.11,0,0,0,1.72-7.64c-.14-4.63-3.87-7.43-8.39-6.29a13.13,13.13,0,0,0-6.11,3.73,35.79,35.79,0,0,0-9.88,17.37,59.89,59.89,0,0,0-1.28,9.89,1.61,1.61,0,0,1-.59,1.37c-2.54,1.88-5,3.8-7.61,5.64a8,8,0,0,1-2.38,1.07,2.24,2.24,0,0,1-2.71-1.07,3.8,3.8,0,0,1-.56-1.44c-.21-1.65-.32-3.31-.48-5a3.76,3.76,0,0,1,1-2.87,135.92,135.92,0,0,0,10.87-15,89.8,89.8,0,0,0,9.5-19.44,23.35,23.35,0,0,0,1.22-8.92,11.9,11.9,0,0,0-1-4.47,3.66,3.66,0,0,0-4.74-2.19,11.1,11.1,0,0,0-4.59,2.71,32.32,32.32,0,0,0-4.86,5.52c-6,8.36-9.7,17.72-12.29,27.58a113.51,113.51,0,0,0-2.39,14.65,8.84,8.84,0,0,1-.78,3.41,31,31,0,0,1-5.63,6.73,2.68,2.68,0,0,1-1.92.7c-.94,0-1.42-.38-1.48-1.3a7.77,7.77,0,0,1,.14-2.21c.64-2.82,1.46-5.59,2-8.44a48,48,0,0,0,.83-6.77,4.29,4.29,0,0,0-3-4.75,4.45,4.45,0,0,0-3.79.26,22,22,0,0,0-8.2,6.22,12.07,12.07,0,0,0-.67,1c-.61-1-1-1.66-1.46-2.28a4.89,4.89,0,0,0-6-1.66c-.65.24-1.27.58-1.9.87-.27.12-.53.2-.92.33,0-.49,0-.83,0-1.18A5.93,5.93,0,0,0,197,81.33a6.6,6.6,0,0,0-5.59.39,9.53,9.53,0,0,0-4.18,3.89q-3.64,6.61-7.25,13.26c-.19.37-.39.74-.75,1.4-.09-.84-.14-1.36-.21-1.87a20.24,20.24,0,0,0-2.55-8.22,5.78,5.78,0,0,0-3.95-2.81,11.22,11.22,0,0,0-7.3.91,25.31,25.31,0,0,0-6.68,4.84A16.1,16.1,0,0,0,154.6,99a58.81,58.81,0,0,0-3.16,11,4.71,4.71,0,0,1-.58,1.86,27.05,27.05,0,0,1-6.87,7A1.24,1.24,0,0,1,143.43,119.19ZM86.14,134a28.36,28.36,0,0,0,10.32,2.8,42.27,42.27,0,0,0,15.74-1.58,26.73,26.73,0,0,0,12.67-7.38,17.11,17.11,0,0,0,4.66-14.39c-.74-5.69-4.1-9.42-9.24-11.71-.42-.19-.85-.36-1.4-.6.36-.29.6-.47.84-.65,2-1.64,4.08-3.19,6-4.91a30.39,30.39,0,0,0,8.53-11.67,18.38,18.38,0,0,0,1.1-10.18,13.92,13.92,0,0,0-10.68-11.38,18.33,18.33,0,0,0-5.63-.12,19.69,19.69,0,0,0-9.49,3.2,38,38,0,0,0-10.39,9.94c-1,1.48-2,3-3,4.47-.21.32-.43.62-.76,1.08-.22-.66-.38-1.15-.55-1.62A5.67,5.67,0,0,0,91,75.6a4,4,0,0,0-4.29.84,3.6,3.6,0,0,0-.66,4,3.1,3.1,0,0,1,.2.89,61.39,61.39,0,0,1-.41,11.42c-.5,3.46-1.09,6.93-1.68,10.37-1.12,6.57-2.41,13.1-4.14,19.53-1.06,4-2,8-3,12a4,4,0,0,0,3.26,5,3.63,3.63,0,0,0,3.91-2C84.89,136.47,85.46,135.26,86.14,134Z" fill="#063"/><path d="M143.43,119.19a5.46,5.46,0,0,0,.64-.32,27.06,27.06,0,0,0,6.87-7,4.52,4.52,0,0,0,.58-1.85,58.16,58.16,0,0,1,3.16-11,16,16,0,0,1,3.9-5.85,25.2,25.2,0,0,1,6.69-4.84,11.22,11.22,0,0,1,7.3-.91,5.78,5.78,0,0,1,4,2.8,20.55,20.55,0,0,1,2.55,8.23c.05.51.12,1,.21,1.86.36-.65.56-1,.75-1.39,2.42-4.42,4.82-8.86,7.25-13.26a9.59,9.59,0,0,1,4.17-3.9,6.66,6.66,0,0,1,5.6-.38,5.88,5.88,0,0,1,3.86,5.3c0,.34,0,.7,0,1.19l.93-.33c.64-.29,1.26-.63,1.9-.87a4.88,4.88,0,0,1,6,1.66c.48.62.85,1.31,1.46,2.27.25-.37.43-.71.67-1a22,22,0,0,1,8.2-6.22,4.43,4.43,0,0,1,3.79-.27,4.33,4.33,0,0,1,3,4.75,48.47,48.47,0,0,1-.83,6.78c-.55,2.83-1.37,5.62-2,8.43a8.2,8.2,0,0,0-.13,2.21c.07.94.56,1.31,1.48,1.31a2.72,2.72,0,0,0,1.92-.7,31.29,31.29,0,0,0,5.63-6.74,8.79,8.79,0,0,0,.78-3.41A113.36,113.36,0,0,1,236,81.11c2.58-9.87,6.3-19.22,12.29-27.58A32.77,32.77,0,0,1,253.17,48a11.27,11.27,0,0,1,4.59-2.71,3.68,3.68,0,0,1,4.74,2.2,12.45,12.45,0,0,1,1,4.46,23.35,23.35,0,0,1-1.22,8.92,90.56,90.56,0,0,1-9.5,19.45,135.8,135.8,0,0,1-10.87,15,3.75,3.75,0,0,0-1,2.87c.16,1.66.28,3.32.48,5a3.84,3.84,0,0,0,.56,1.45,2.24,2.24,0,0,0,2.71,1.07,8,8,0,0,0,2.38-1.07c2.57-1.84,5.07-3.76,7.61-5.64a1.62,1.62,0,0,0,.59-1.37,61.25,61.25,0,0,1,1.28-9.9,35.88,35.88,0,0,1,9.88-17.37,13.23,13.23,0,0,1,6.11-3.72c4.52-1.16,8.23,1.66,8.39,6.29a18.1,18.1,0,0,1-1.72,7.63,35,35,0,0,1-7.07,10.54c-2.59,2.74-5.28,5.4-7.92,8.08l-1.05,1.08a15.89,15.89,0,0,0,2.52,1.33,3.12,3.12,0,0,0,1.88-.16,13,13,0,0,0,3.78-2.58c5.84-5.2,9.74-11.66,12.61-18.84.86-2.2,1.84-4.37,2.86-6.49s2.65-2.63,4.77-1.54a1.53,1.53,0,0,1,1,2.12c-.66,2.22-1.34,4.45-2.07,6.65A36.8,36.8,0,0,0,288.43,89a10.4,10.4,0,0,0,.13,3,2.51,2.51,0,0,0,4.2,1.37,6.77,6.77,0,0,0,1.1-1.29A50.52,50.52,0,0,0,300,79.62c.94-2.59,1.91-5.18,2.75-7.8a3.8,3.8,0,0,1,4.29-2.67,7.49,7.49,0,0,1,2.62.78,2.72,2.72,0,0,1,1.59,3.59,67.56,67.56,0,0,1-2.41,7.63,229.49,229.49,0,0,0-7.5,22.28,24.65,24.65,0,0,0-1,7c0,.34,0,.67.06,1.13.81,0,1.54,0,2.27-.13,4.8-.49,9.59-1,14.38-1.46,4.14-.41,8.29-.78,12.43-1.15,1.36-.12,2.71-.29,4.07-.29a3.86,3.86,0,0,1,4,4.38c-.12,1.54-1.18,2.25-2.53,1.53a5.78,5.78,0,0,0-3.15-.68c-3.6.15-7.2.23-10.77.6-5,.53-9.91,1.29-14.84,2-1.7.24-3.38.53-5.05.82-.86.14-1.07.37-1,1.24a16.21,16.21,0,0,0,.38,2.06c.55,2.56.33,3.48-2.62,5.11a9.41,9.41,0,0,1-1,.41,4.07,4.07,0,0,1-5.51-2.29,13.9,13.9,0,0,1-.7-2.79c-.13-.67-.17-1.37-.28-2.24-1.34.14-2.59.24-3.83.41-5.55.76-11.11,1.47-16.65,2.31q-8.78,1.35-17.5,2.93-18.18,3.27-36.14,7.53a722.44,722.44,0,0,0-76,22.35q-13.93,4.95-27.61,10.6a8.69,8.69,0,0,0-3.64,3.08,10.34,10.34,0,0,1-.64.84,1.43,1.43,0,0,1-1.55.45,3.16,3.16,0,0,1-2.23-3.31,7.94,7.94,0,0,1,.3-1.28c.3-1.18.64-2.36.89-3.55a1.51,1.51,0,0,1,1.11-1.16c2.73-1,5.46-2.15,8.2-3.21,18.88-7.3,38-13.88,57.43-19.61q23.91-7,48.27-12.18,15.95-3.36,32-6c8.26-1.35,16.54-2.53,24.81-3.79,3.9-.59,7.79-1.23,11.7-1.77a1.15,1.15,0,0,0,1.16-1.11c.54-3.15,1.13-6.29,1.7-9.44,0-.08-.06-.16-.12-.38-2,.75-4.12,1.43-6.32.74s-3.57-2.45-5.05-4.27c-.4.53-.74,1-1,1.41a37.38,37.38,0,0,1-5.52,6.51,14.35,14.35,0,0,1-9.7,3.78,8.67,8.67,0,0,1-6.81-3.13c-.29-.32-.55-.66-.88-1-.4.32-.73.58-1.06.86a40.31,40.31,0,0,1-8.47,5.73,12.49,12.49,0,0,1-5.79,1.55,8.23,8.23,0,0,1-7.92-5.27c-.12-.28-.25-.55-.38-.83,0,0-.08,0-.21-.12-.27.29-.56.61-.82.92a29.46,29.46,0,0,1-5.45,5.13,7.69,7.69,0,0,1-5.64,1.73,8.87,8.87,0,0,1-2-.5,3.9,3.9,0,0,1-2.52-3.27,27.38,27.38,0,0,1,.13-8.38c.29-2,.75-4,1.1-5.93a6.68,6.68,0,0,0,.13-1.83,1.62,1.62,0,0,0-.55-1.09c-.45-.31-.83.13-1.09.47A28.16,28.16,0,0,0,214.57,98a80.62,80.62,0,0,0-6.84,14,30.72,30.72,0,0,1-1.26,3,7.78,7.78,0,0,1-1,1.67c-1.92,2.32-4.17,2.49-6.69,1.07a2,2,0,0,1-1.11-2.54,26.19,26.19,0,0,1,1.3-4,34.73,34.73,0,0,0,2.58-11.21c.09-1.22-.28-2.14-1-2.36-1.09-.3-1.56.56-2.08,1.24a6.39,6.39,0,0,0-.8,1.36c-2,4.58-4,9.17-5.88,13.77-.62,1.49-1.07,3.06-1.63,4.58a9.68,9.68,0,0,1-.66,1.42,3.71,3.71,0,0,1-5.76.9,2.2,2.2,0,0,1-.81-2.46c.4-1.25.78-2.52,1.26-3.74a144.75,144.75,0,0,0,6-18.47c.1-.42.2-.86.27-1.28.19-1,.12-1.12-1-1.88a7.69,7.69,0,0,0-.81,1.09,24.73,24.73,0,0,0-1.18,2.36,66.72,66.72,0,0,1-5.47,9.58,26.57,26.57,0,0,1-2.58,3.14,2.9,2.9,0,0,0-.83,1.58c-.14.91-.39,1.79-.59,2.7a22.15,22.15,0,0,1-6.33,10.72,8.76,8.76,0,0,1-4.13,2.47,34,34,0,0,1-4.9.87,8.75,8.75,0,0,1-6.44-2.13,16,16,0,0,1-3.81-4.49c-.23-.4-.5-.8-.82-1.32-.52.64-.93,1.19-1.39,1.72-2,2.21-4,4.45-6,6.6a7.53,7.53,0,0,1-4.31,2.39,5.85,5.85,0,0,1-5.88-2.1,3.62,3.62,0,0,1-.81-3.43c.65-2.26,1.3-4.55,1.94-6.82a93.91,93.91,0,0,0,3.29-15.39c.07-.53.36-1.16-.34-1.53a1.42,1.42,0,0,0-1.83.57,5.05,5.05,0,0,1-3.62,1.89,2.4,2.4,0,0,1-2.07-.6,4.22,4.22,0,0,1-1.12-4.79,11.44,11.44,0,0,1,1.88-2.83A34.39,34.39,0,0,1,135,91.9a11.58,11.58,0,0,1,7.55-2.61A5.59,5.59,0,0,1,148,95.52a123,123,0,0,1-4.26,22.16c-.13.46-.24.93-.34,1.39C143.31,119,143.36,119.07,143.43,119.19ZM172,111.07a7,7,0,0,1-2.6-2.92c-1.07-2.84-1-5.57,1-8,.17-.21.31-.42.5-.62a1.36,1.36,0,0,0,.31-1.33,3.77,3.77,0,0,0-5.42-2.59,9.94,9.94,0,0,0-2.64,2.11,18.55,18.55,0,0,0-5,10.5,14,14,0,0,0,.51,6.75c1.08,2.86,3.2,4,6.15,3.11C168.34,117,170.28,114.28,172,111.07Zm71-27.66.28,0a2.43,2.43,0,0,0,.26-.29,86.36,86.36,0,0,0,13.42-26.3,20.48,20.48,0,0,0,.63-2.54,8.77,8.77,0,0,0,0-1.62c-1.07-.34-1.58.32-2.09.9a44.77,44.77,0,0,0-7.41,11.56,65.69,65.69,0,0,0-4.25,13.63C243.48,80.33,243.23,81.87,242.94,83.41ZM270.43,76a3,3,0,0,0-1.64,1.44,31.34,31.34,0,0,0-4.86,10.85c-.15.75-.24,1.5-.37,2.4,2.7-1.83,8.08-9.41,8.76-12.11C271.64,77.7,271.05,76.87,270.43,76Z" fill="#fff"/><path d="M86.14,134c-.66,1.26-1.25,2.49-1.93,3.66a3.61,3.61,0,0,1-3.9,2A4.13,4.13,0,0,1,77,136.2a4.06,4.06,0,0,1,.09-1.55c1-4,1.95-8,3-12,1.72-6.44,3-13,4.13-19.53.59-3.45,1.18-6.91,1.68-10.37a60.54,60.54,0,0,0,.41-11.42,2.74,2.74,0,0,0-.2-.89,3.6,3.6,0,0,1,.66-4A4,4,0,0,1,91,75.58a5.66,5.66,0,0,1,3.83,3.69c.18.47.33,1,.55,1.62.33-.46.54-.77.77-1.08,1-1.49,2-3,3-4.48a37.93,37.93,0,0,1,10.39-9.93,19.51,19.51,0,0,1,9.49-3.2,18,18,0,0,1,5.63.12A13.93,13.93,0,0,1,135.39,73.7a18.45,18.45,0,0,1-1.11,10.17,30.18,30.18,0,0,1-8.52,11.67c-1.94,1.73-4,3.28-6,4.91l-.84.66,1.41.59c5.13,2.29,8.5,6,9.23,11.71a17.1,17.1,0,0,1-4.65,14.4,26.66,26.66,0,0,1-12.67,7.38,42.1,42.1,0,0,1-15.74,1.58A28.06,28.06,0,0,1,86.14,134Zm7.32-29.53c1.93-.58,3.52-1,5.1-1.54,7.63-2.43,14.14-6.87,20.63-11.38a4.35,4.35,0,0,0,.41-.34,17.37,17.37,0,0,0,5.92-13.13c0-4.27-4.42-8.6-9.45-7.37a14.86,14.86,0,0,0-5.47,2.75A37,37,0,0,0,104.85,79a156.26,156.26,0,0,0-9.6,13,3,3,0,0,0-.44,1.21c-.36,2.69-.69,5.38-1,8.08C93.68,102.27,93.6,103.22,93.46,104.45Zm-5.21,21.77c.46.26.87.51,1.29.73A20.14,20.14,0,0,0,97.62,129,30.71,30.71,0,0,0,110,127.11a11.47,11.47,0,0,0,7.69-8.64,8,8,0,0,0-5.36-9.83A14.17,14.17,0,0,0,108,108a33.12,33.12,0,0,0-15.24,4,2.35,2.35,0,0,0-1.32,1.77c-.69,3.15-1.48,6.3-2.25,9.44C88.9,124.15,88.57,125.14,88.25,126.22Z" fill="#fff"/><path d="M172,111.07c-1.67,3.22-3.61,6-7.21,7-2.94.86-5.08-.25-6.14-3.11a14.33,14.33,0,0,1-.52-6.75,18.55,18.55,0,0,1,5-10.5,9.64,9.64,0,0,1,2.65-2.11,3.76,3.76,0,0,1,5.42,2.59,1.34,1.34,0,0,1-.32,1.33c-.17.2-.33.41-.5.62-2,2.47-2,5.2-1,8A7.24,7.24,0,0,0,172,111.07Zm71-27.66c.28-1.54.54-3.08.86-4.62a63.94,63.94,0,0,1,4.25-13.63,44.77,44.77,0,0,1,7.41-11.56c.52-.58,1-1.24,2.09-.9a8.78,8.78,0,0,1,0,1.62,22.43,22.43,0,0,1-.63,2.54,86.36,86.36,0,0,1-13.42,26.3,2.43,2.43,0,0,1-.26.29ZM270.43,76c.62.84,1.21,1.66,1.88,2.58-.68,2.7-6.06,10.26-8.76,12.11.13-.89.22-1.65.37-2.4a31.51,31.51,0,0,1,4.85-10.85A3.07,3.07,0,0,1,270.43,76Zm-177,28.42c.14-1.23.22-2.18.33-3.12.33-2.69.66-5.39,1-8.08A2.9,2.9,0,0,1,95.25,92a152.45,152.45,0,0,1,9.6-13,37,37,0,0,1,5.75-5.58,14.94,14.94,0,0,1,5.47-2.75c5-1.24,9.46,3.09,9.45,7.37A17.29,17.29,0,0,1,119.6,91.2a4.35,4.35,0,0,1-.41.34c-6.47,4.52-13,8.95-20.63,11.39Zm-5.21,21.77c.32-1.08.64-2.08.89-3.1.77-3.14,1.55-6.27,2.25-9.44a2.32,2.32,0,0,1,1.32-1.77A33.21,33.21,0,0,1,108,108a14.17,14.17,0,0,1,4.38.69,8,8,0,0,1,5.36,9.83,11.41,11.41,0,0,1-7.69,8.64A30.86,30.86,0,0,1,97.62,129,20.3,20.3,0,0,1,89.54,127Zm-12.11,87v1.09H69.77v15.87H68.44V214.31H62.1v-1.09Zm16,0v17H90.82v-8H79.5v8H78.19v-17H79.5v7.83H90.82v-7.83Zm13.18,0v1.09H97.39v6.79h7.73v1.11H97.39v6.88h8.13v1.09H96.07v-17Zm11.08,0v15.87h8.4v1.09h-9.7v-17ZM135,213a8.87,8.87,0,0,1,6.38,2.53,8.56,8.56,0,0,1,0,12.33,9.28,9.28,0,0,1-12.74,0,8.59,8.59,0,0,1,0-12.33A8.82,8.82,0,0,1,135,213Zm.05,16.19a7.5,7.5,0,1,0,0-15,7.39,7.39,0,0,0-5.38,2.17,7.54,7.54,0,0,0,0,10.65A7.35,7.35,0,0,0,135.06,229.18Zm27.41-16v17h-1.08l-12.9-14.83v14.83h-1.31v-17h1.1l12.87,14.83V213.22Zm3.88,0h5.93c3,0,5.31.79,6.88,2.37a9.05,9.05,0,0,1,0,12.19,8.88,8.88,0,0,1-6.67,2.4h-6.17v-17Zm1.31,1.09v14.78h4.79a7.74,7.74,0,0,0,5.49-2,6.93,6.93,0,0,0,2.2-5.35,7.05,7.05,0,0,0-2.16-5.33,7.71,7.71,0,0,0-5.59-2.07ZM193,213a8.88,8.88,0,0,1,6.39,2.53,8.59,8.59,0,0,1,0,12.33,9.28,9.28,0,0,1-12.74,0,8.59,8.59,0,0,1,0-12.33A8.8,8.8,0,0,1,193,213Zm0,16.19a7.3,7.3,0,0,0,5.36-2.17,7.59,7.59,0,0,0,0-10.65,7.73,7.73,0,0,0-10.74,0,7.54,7.54,0,0,0,0,10.65A7.38,7.38,0,0,0,193,229.18Zm27.41-16v17h-1.08l-12.89-14.83v14.83h-1.32v-17h1.11l12.87,14.83V213.22Zm10.8,0h3.54a6.48,6.48,0,0,1,4.21,1.17,3.89,3.89,0,0,1,1.44,3.22,4.14,4.14,0,0,1-2.44,3.78q3.93.86,3.93,4.3a4,4,0,0,1-1.54,3.29,6.48,6.48,0,0,1-4.16,1.23h-5v-17Zm1.31,1.09v6.76h1.81c3.08,0,4.63-1.13,4.63-3.38s-1.55-3.38-4.67-3.38Zm0,7.87v6.91h3.51a5.07,5.07,0,0,0,3.3-.94,3.09,3.09,0,0,0,1.13-2.5q0-3.47-5-3.47Zm20.1-9.19a8.85,8.85,0,0,1,6.38,2.53,8.56,8.56,0,0,1,0,12.33,9.27,9.27,0,0,1-12.73,0,8.59,8.59,0,0,1,0-12.33A8.75,8.75,0,0,1,252.65,213Zm0,16.19a7.3,7.3,0,0,0,5.36-2.17,7.59,7.59,0,0,0,0-10.65,7.73,7.73,0,0,0-10.74,0,7.52,7.52,0,0,0,0,10.65A7.36,7.36,0,0,0,252.69,229.18Zm12.15-16h4.34a6.42,6.42,0,0,1,4.17,1.18,3.94,3.94,0,0,1,1.45,3.2c0,2-1.08,3.33-3.23,4.13a7.54,7.54,0,0,1,2.27,2.59l3.84,5.87h-1.55l-3-4.64a11.19,11.19,0,0,0-2.31-2.91,4.23,4.23,0,0,0-2.42-.58h-2.29v8.13h-1.31v-17Zm1.31,1.09V221H269a5.35,5.35,0,0,0,3.29-.87,2.91,2.91,0,0,0,1.13-2.46,2.87,2.87,0,0,0-1.16-2.44,5.4,5.4,0,0,0-3.31-.87h-2.77ZM286.94,213a8.88,8.88,0,0,1,6.39,2.53,8.59,8.59,0,0,1,0,12.33,8.88,8.88,0,0,1-6.39,2.53,8.78,8.78,0,0,1-6.35-2.53,8.59,8.59,0,0,1,0-12.33A8.78,8.78,0,0,1,286.94,213Zm.06,16.19a7.5,7.5,0,1,0,0-15,7.41,7.41,0,0,0-5.39,2.17,7.52,7.52,0,0,0,0,10.65A7.4,7.4,0,0,0,287,229.18Zm24.65-16H313v9.25a8.18,8.18,0,0,1-2,5.87,6.77,6.77,0,0,1-5.12,2.06,6.84,6.84,0,0,1-5.12-2,7.66,7.66,0,0,1-2-5.59v-9.55h1.32v9.51a6.66,6.66,0,0,0,1.61,4.75,5.91,5.91,0,0,0,8.34,0,6.92,6.92,0,0,0,1.61-4.91v-9.33Zm19,1.22v1.49a12,12,0,0,0-6-1.71,7.58,7.58,0,0,0-5.37,12.84,7.74,7.74,0,0,0,5.75,2.13,9.88,9.88,0,0,0,4.64-1v-4.58h-3.57v-1.09H331V229a13.81,13.81,0,0,1-6,1.44,9.24,9.24,0,0,1-6.6-2.5,8.69,8.69,0,0,1,0-12.43,9.1,9.1,0,0,1,6.52-2.47A13.6,13.6,0,0,1,330.68,214.44Zm17.62-1.22v17H347v-8H335.66v8h-1.32v-17h1.32v7.83H347v-7.83Z" fill="#063"/></svg>