<svg width="400" height="252" fill="none" xmlns="http://www.w3.org/2000/svg"><path d="M58.06 135.35c-.81.25-1.52.42-2.2.68-5.55 2.17-11.09 4.34-16.63 6.56a56.848 56.848 0 01-9.32 3.17 3.93 3.93 0 01-2.7-.16 2.77 2.77 0 01-1.56-3.26 2.659 2.659 0 00-.08-1.53c-.36-1.12-.61-2.28-1-3.4a13.54 13.54 0 00-.85-1.92c-1-1.89-.82-4.06-1.49-6a2.22 2.22 0 01.4-1.6 2 2 0 000-2.11 16.258 16.258 0 01-1.54-4.78 3.86 3.86 0 011.91-4.34c2.26-1.33 4.56-2.6 6.92-3.77 4.48-2.104 9.07-3.967 13.75-5.58 4.393-1.653 8.77-3.32 13.13-5a36.31 36.31 0 003.54-1.73 2 2 0 00.92-2.8 13.61 13.61 0 01-1.65-7.46 3.987 3.987 0 00-.09-.58 2.997 2.997 0 00-1 0c-1.69.57-3.42 1.1-5 1.82a62.708 62.708 0 01-10.08 3.77 5.5 5.5 0 01-3.47-.11 3.65 3.65 0 01-2.32-2.5c-.2-.72-.331-1.456-.39-2.2-.14-1.56-.21-3.13-.29-4.69 0-.5 0-.94-.61-1.19a1 1 0 01-.54-.67c-.18-1.6-.31-3.21-.46-4.83a.52.52 0 01.08-.38c.84-.67.43-1.46.28-2.26-.23-1.16-.33-2.34-.56-3.5a6.529 6.529 0 00-.63-1.57c-.13-.27-.48-.5-.5-.75-.08-1.37-.76-2.67-.47-4.09a4.18 4.18 0 00.06-.79 4.49 4.49 0 013.19-4.49C45 58 53.41 55 61.9 52.35c15.88-5 31.976-9.203 48.29-12.61 10.63-2.24 21.29-4.29 32-6.25 7.32-1.34 14.7-2.42 22.06-3.54 6-.907 11.98-1.757 17.94-2.55 5.35-.71 10.7-1.32 16-1.94 5.3-.62 10.62-1.21 15.94-1.75 4.22-.43 8.46-.77 12.7-1.14 4.76-.42 9.516-.827 14.27-1.22 2.71-.23 5.42-.4 8.14-.57 5.586-.36 11.18-.693 16.78-1 1.89-.1 3.77-.21 5.65-.27 6.17-.23 12.36-.41 18.53-.63 12.54-.47 25.08-.54 37.62-.41 6.79.06 13.59.31 20.38.48 1.18 0 1.51.31 1.89 1.44a3.24 3.24 0 01-.1 2.55 3.94 3.94 0 00-.34 2.8 4.806 4.806 0 01-.52 3.32 19.7 19.7 0 00-1.83 5.46 6.337 6.337 0 01-1.48 2.9c-.61.71-1.24 1.46-.74 2.47.5 1.01 1.41.89 2.3.87.304-.05.615-.05.92 0 1.7.47 2.58 1.34 2.16 3.12a29.885 29.885 0 01-1.05 3.36c-.36.803-.451 1.7-.26 2.56a5.303 5.303 0 01-1 4.6 5.667 5.667 0 00-1 3.34c.493.13.994.227 1.5.29 1.35.12 2.71.25 4.06.29 4.43.13 8.86.21 13.28.36.78.041 1.553.18 2.3.41a1.93 1.93 0 011.49 1.73 16.71 16.71 0 001.45 3.65c.48 1 .6 1.29-.28 2.08a9.117 9.117 0 00-2.76 5.67 11.006 11.006 0 01-2.53 5.27 4.555 4.555 0 00-.88 3.14 6.924 6.924 0 01-1.67 4.5A7.175 7.175 0 00361.8 87a2 2 0 01-1.8 1.41 64.59 64.59 0 01-13.25.45c-1.92-.14-3.86-.16-5.78-.25a1.283 1.283 0 00-1.41.93c-.135.37-.236.751-.3 1.14-.16 1.52.2 2 1.74 2.13 5.579.593 11.192.807 16.8.64a92.223 92.223 0 0117.57 1c.259.031.516.078.77.14.77.27 1 .7.57 1.41a2.694 2.694 0 00-.28 2.15 2.867 2.867 0 01-.47 2.35 11.89 11.89 0 00-.66 1.83 4.893 4.893 0 01-.74 1.65 12.588 12.588 0 00-2.35 4.08c-.21.52-.45 1-.63 1.59-.11.27-.28.66-.17.87.44.85 0 1.54-.32 2.23a15.184 15.184 0 01-2.43 4.33 1.89 1.89 0 00-.31.71c-.06.21-.09.44-.14.65-.8 2.81-1.51 3.33-4.44 3.33-5.35 0-10.68-.31-16-.78a1.217 1.217 0 00-1.46.8c-.41 1.07-.84 2.12-1.17 3.2a1.167 1.167 0 00.25 1 1.176 1.176 0 01.49 1.26 58.67 58.67 0 01-.45 3.24c-.13.73-.41 1.43-.5 2.17a4.003 4.003 0 01-1.54 2.93 2.296 2.296 0 00-.66 1.09c-.51 1.58-1 3.19-1.43 4.78a11.61 11.61 0 00-.42 1.51 2.808 2.808 0 01-1.49 2.32 2.369 2.369 0 00-.86 1.24 14.788 14.788 0 00-.3 1.8c-.12.59-.3 1.17-.47 1.75-.07.21-.27.39-.27.59 0 1.37-.85 2.21-1.69 3.12a9.76 9.76 0 00-1.28 1.83 1.923 1.923 0 01-1.83 1c-2.24.07-4.47.17-6.7.25-3.06.12-6.13.2-9.19.36-5.65.29-11.29.63-16.94 1-3 .17-6 .35-9.05.56-4.54.32-9.09.67-13.63 1-3.54.27-7.08.54-10.61.87-4 .36-7.93.8-11.89 1.22-3.32.35-6.62.71-9.92 1.1-3.7.45-7.4.9-11.08 1.41-4.65.65-9.29 1.29-13.91 2.07-6.95 1.17-13.9 2.38-20.82 3.72-14.37 2.79-28.59 6.19-42.71 10-20.68 5.61-41.11 12-61.45 18.74a4498.84 4498.84 0 00-25.18 8.37 8.421 8.421 0 01-4.5.47 2.53 2.53 0 01-2.17-1.82 1.656 1.656 0 00-1-1.14 3.21 3.21 0 01-1.59-3.4 3.72 3.72 0 00-.27-2.56 5.183 5.183 0 01-.39-1.23c-.24-1.28-.94-1.79-2.12-1.37-1.61.56-3.2 1.2-4.75 1.91-2.08.93-4.11 2-6.16 3a3.452 3.452 0 01-2.79.28 1.712 1.712 0 01-.68-.36c-1-1.26-2-2.54-1.79-4.28a3 3 0 00-1.65-3.35 3.664 3.664 0 01-1.37-1.87c-.35-.74-.76-1.46-1.1-2.21a7.783 7.783 0 01-.46-1.33c-.08-.29 0-.64-.15-.89a1.47 1.47 0 01.15-1.91 1.31 1.31 0 000-1.61c-.17-.3-.39-.58-.58-.88a2.001 2.001 0 01.32-2.92 2.29 2.29 0 00.26-2.57c-.22-.71-.52-1.39-.75-2.09a2.11 2.11 0 01.55-2.17 17.9 17.9 0 015.64-4.25c3-1.38 6-2.64 9-4 1.47-.66 2.95-1.35 4.38-2.1 1.17-.61 1.37-1.14.87-2.36a2.522 2.522 0 010-2.37 2.67 2.67 0 00-.11-2.27c-.64-1.87-1.57-3.69-1.34-5.79-.016-.74-.1-1.476-.25-2.2 0-.41-.17-1 0-1.23.95-1.19.47-2.31-.06-3.44a7.38 7.38 0 00-.59-.87 1.815 1.815 0 01-.248-2.047 1.82 1.82 0 01.458-.563c.93-.92 2-1.72 3-2.58.41-.35 1-.6.69-1.57zm85.37-16.16c-.07-.12-.12-.16-.12-.18.1-.46.21-.94.34-1.4a123.02 123.02 0 004.26-22.16 5.564 5.564 0 00-1.35-4.329 5.559 5.559 0 00-4.12-1.891 11.61 11.61 0 00-7.55 2.6 34.292 34.292 0 00-3.7 3.54 12.538 12.538 0 00-1.88 2.83 4.216 4.216 0 001.12 4.79 2.46 2.46 0 002.08.61 5.093 5.093 0 003.61-1.9 1.406 1.406 0 011.83-.56c.69.37.41 1 .34 1.52a94.049 94.049 0 01-3.28 15.4c-.66 2.27-1.29 4.55-1.95 6.81a3.629 3.629 0 00.81 3.44 5.852 5.852 0 005.89 2.09 7.525 7.525 0 004.3-2.38c2.05-2.16 4-4.4 6-6.61.47-.51.87-1.08 1.39-1.72.33.53.59.93.83 1.33a15.901 15.901 0 003.8 4.49 8.84 8.84 0 006.45 2.13 32.59 32.59 0 004.89-.87 8.929 8.929 0 004.13-2.47c3-3.06 5.38-6.47 6.33-10.73.2-.89.46-1.79.59-2.7a3.105 3.105 0 01.83-1.58 26.58 26.58 0 002.58-3.14 67.761 67.761 0 005.48-9.58c.35-.8.75-1.58 1.17-2.35.247-.383.517-.75.81-1.1 1.09.78 1.16.91 1 1.88-.08.44-.18.86-.28 1.28a144.491 144.491 0 01-6 18.48c-.49 1.22-.86 2.48-1.25 3.73a2.183 2.183 0 00.8 2.46 3.683 3.683 0 003.097.965 3.695 3.695 0 002.663-1.855c.266-.451.487-.926.66-1.42.55-1.53 1-3.1 1.63-4.58 1.92-4.61 3.91-9.19 5.88-13.78a6.85 6.85 0 01.81-1.35c.51-.69 1-1.56 2.07-1.24.74.21 1.12 1.13 1 2.35a34.42 34.42 0 01-2.58 11.22 26.012 26.012 0 00-1.3 4 1.998 1.998 0 001.11 2.54c2.53 1.42 4.78 1.24 6.69-1.06a7.628 7.628 0 001-1.68c.473-.977.893-1.978 1.26-3a81.264 81.264 0 016.84-14 26.18 26.18 0 011.74-2.48c.26-.34.65-.77 1.09-.47a1.6 1.6 0 01.56 1.09 7.07 7.07 0 01-.14 1.83c-.35 2-.81 4-1.1 5.94a27.352 27.352 0 00-.13 8.38 3.913 3.913 0 002.52 3.26c.645.243 1.316.41 2 .5a7.87 7.87 0 005.65-1.72 30.087 30.087 0 005.44-5.13l.82-.92c.14.07.2.09.21.11.13.28.25.56.38.83a8.218 8.218 0 007.92 5.28 12.491 12.491 0 005.79-1.55 41.222 41.222 0 008.48-5.74c.32-.28.67-.54 1.05-.86.33.39.6.73.88 1a8.73 8.73 0 006.82 3.14 14.393 14.393 0 009.69-3.78 37.287 37.287 0 005.52-6.51c.31-.45.65-.89 1.05-1.41 1.49 1.81 2.84 3.56 5.05 4.26 2.21.7 4.29 0 6.32-.74.08.23.13.32.12.39-.57 3.14-1.16 6.29-1.7 9.43a1.15 1.15 0 01-1.16 1.12c-3.91.55-7.8 1.17-11.7 1.76-8.27 1.26-16.55 2.45-24.81 3.79a662.526 662.526 0 00-32 6 623.93 623.93 0 00-48.27 12.19c-19.42 5.72-38.55 12.3-57.43 19.6-2.74 1.07-5.46 2.15-8.2 3.21a1.535 1.535 0 00-1.11 1.16c-.25 1.2-.59 2.37-.89 3.55-.13.419-.23.847-.3 1.28a3.173 3.173 0 002.23 3.32 1.48 1.48 0 001.56-.45c.23-.26.4-.57.63-.84a8.49 8.49 0 013.64-3.08c9.12-3.74 18.32-7.31 27.61-10.61a719.833 719.833 0 0176-22.34c12-2.833 24.046-5.347 36.14-7.54a637.62 637.62 0 0117.5-2.92c5.54-.86 11.1-1.57 16.65-2.32 1.24-.17 2.49-.26 3.83-.41.11.87.15 1.57.28 2.24.141.951.375 1.885.7 2.79a4.05 4.05 0 002.253 2.351 4.056 4.056 0 003.257-.061c.342-.113.676-.25 1-.41 2.94-1.64 3.18-2.55 2.62-5.1a16.344 16.344 0 01-.38-2.07c-.06-.87.13-1.09 1-1.24 1.68-.29 3.37-.59 5.05-.81 4.95-.69 9.88-1.45 14.84-2 3.57-.38 7.17-.44 10.77-.6a5.995 5.995 0 013.16.68c1.34.73 2.42 0 2.52-1.52a3.877 3.877 0 00-.139-1.672 3.856 3.856 0 00-3.861-2.708c-1.361.027-2.72.124-4.07.29-4.14.36-8.28.73-12.43 1.14-4.8.47-9.59 1-14.38 1.46-.73.08-1.46.08-2.26.13 0-.46-.07-.79-.07-1.13a24.353 24.353 0 011-7 233.886 233.886 0 017.5-22.28 69.01 69.01 0 002.4-7.63 2.724 2.724 0 00-.664-3.02 2.723 2.723 0 00-.926-.57 7.495 7.495 0 00-2.62-.78 3.799 3.799 0 00-4.29 2.67c-.84 2.64-1.81 5.22-2.75 7.81A50.643 50.643 0 01293.79 92c-.31.478-.684.912-1.11 1.29a2.501 2.501 0 01-4.2-1.36 11.09 11.09 0 01-.13-3 37.503 37.503 0 012-8.28c.73-2.21 1.41-4.42 2.07-6.65a1.517 1.517 0 00-.001-1.292 1.512 1.512 0 00-.999-.818c-2.13-1.08-3.71-.62-4.76 1.54-1.05 2.16-2 4.29-2.87 6.48-2.87 7.19-6.77 13.66-12.61 18.85a13.144 13.144 0 01-3.77 2.57 3.092 3.092 0 01-1.89.16 14.44 14.44 0 01-2.52-1.33c.46-.47.76-.77 1.05-1.08 2.64-2.68 5.33-5.34 7.92-8.08a34.955 34.955 0 007.07-10.53 18.131 18.131 0 001.72-7.64c-.14-4.63-3.87-7.43-8.39-6.29a13.13 13.13 0 00-6.11 3.73 35.785 35.785 0 00-9.88 17.37 59.878 59.878 0 00-1.28 9.89 1.612 1.612 0 01-.59 1.37c-2.54 1.88-5 3.8-7.61 5.64a8.026 8.026 0 01-2.38 1.07 2.243 2.243 0 01-2.71-1.07 3.792 3.792 0 01-.56-1.44c-.21-1.65-.32-3.31-.48-5a3.75 3.75 0 011-2.87 135.951 135.951 0 0010.87-15 89.848 89.848 0 009.5-19.44 23.375 23.375 0 001.22-8.92 11.918 11.918 0 00-1-4.47 3.667 3.667 0 00-3.316-2.424 3.655 3.655 0 00-1.424.234 11.095 11.095 0 00-4.59 2.71 32.281 32.281 0 00-4.86 5.52c-6 8.36-9.7 17.72-12.29 27.58a113.385 113.385 0 00-2.39 14.65 8.863 8.863 0 01-.78 3.41 31 31 0 01-5.63 6.73 2.682 2.682 0 01-1.92.7c-.94 0-1.42-.38-1.48-1.3a7.77 7.77 0 01.14-2.21c.64-2.82 1.46-5.59 2-8.44.436-2.234.714-4.497.83-6.77a4.295 4.295 0 00-3-4.75 4.453 4.453 0 00-3.79.26 21.997 21.997 0 00-8.2 6.22c-.24.322-.464.656-.67 1-.61-1-1-1.66-1.46-2.28a4.891 4.891 0 00-6-1.66c-.65.24-1.27.58-1.9.87-.27.12-.53.2-.92.33V86.6a5.937 5.937 0 00-3.71-5.27 6.604 6.604 0 00-5.59.39 9.526 9.526 0 00-4.18 3.89 2441.118 2441.118 0 00-7.25 13.26c-.19.37-.39.74-.75 1.4-.09-.84-.14-1.36-.21-1.87a20.249 20.249 0 00-2.55-8.22 5.787 5.787 0 00-3.95-2.81 11.22 11.22 0 00-7.3.91 25.3 25.3 0 00-6.68 4.84A16.092 16.092 0 00154.6 99a58.746 58.746 0 00-3.16 11 4.73 4.73 0 01-.58 1.86 27.072 27.072 0 01-6.87 7 1.24 1.24 0 01-.56.33zM86.14 134a28.375 28.375 0 0010.32 2.8 42.293 42.293 0 0015.74-1.58 26.734 26.734 0 0012.67-7.38 17.117 17.117 0 004.66-14.39c-.74-5.69-4.1-9.42-9.24-11.71-.42-.19-.85-.36-1.4-.6.36-.29.6-.47.84-.65 2-1.64 4.08-3.19 6-4.91a30.403 30.403 0 008.53-11.67 18.385 18.385 0 001.1-10.18 13.923 13.923 0 00-10.68-11.38 18.33 18.33 0 00-5.63-.12 19.685 19.685 0 00-9.49 3.2 37.995 37.995 0 00-10.39 9.94c-1 1.48-2 3-3 4.47-.21.32-.43.62-.76 1.08-.22-.66-.38-1.15-.55-1.62A5.669 5.669 0 0091 75.6a4 4 0 00-4.29.84 3.6 3.6 0 00-.66 4 3.1 3.1 0 01.2.89 61.392 61.392 0 01-.41 11.42c-.5 3.46-1.09 6.93-1.68 10.37-1.12 6.57-2.41 13.1-4.14 19.53-1.06 4-2 8-3 12a3.998 3.998 0 003.26 5 3.635 3.635 0 003.91-2c.7-1.18 1.27-2.39 1.95-3.65z" fill="#fff"/><path d="M143.43 119.19c.22-.093.434-.199.64-.32a27.072 27.072 0 006.87-7 4.529 4.529 0 00.58-1.85 58.103 58.103 0 013.16-11 15.993 15.993 0 013.9-5.85 25.187 25.187 0 016.69-4.84 11.22 11.22 0 017.3-.91 5.78 5.78 0 014 2.8 20.552 20.552 0 012.55 8.23c.05.51.12 1 .21 1.86.36-.65.56-1 .75-1.39 2.42-4.42 4.82-8.86 7.25-13.26a9.589 9.589 0 014.17-3.9 6.654 6.654 0 015.6-.38 5.877 5.877 0 013.86 5.3v1.19l.93-.33c.64-.29 1.26-.63 1.9-.87a4.88 4.88 0 016 1.66c.48.62.85 1.31 1.46 2.27.25-.37.43-.71.67-1a21.996 21.996 0 018.2-6.22 4.43 4.43 0 013.79-.27 4.331 4.331 0 013 4.75 48.603 48.603 0 01-.83 6.78c-.55 2.83-1.37 5.62-2 8.43a8.191 8.191 0 00-.13 2.21c.07.94.56 1.31 1.48 1.31a2.722 2.722 0 001.92-.7 31.318 31.318 0 005.63-6.74 8.789 8.789 0 00.78-3.41A113.25 113.25 0 01236 81.11c2.58-9.87 6.3-19.22 12.29-27.58a32.733 32.733 0 014.88-5.53 11.265 11.265 0 014.59-2.71 3.675 3.675 0 013.993.965c.328.358.582.778.747 1.235a12.48 12.48 0 011 4.46 23.356 23.356 0 01-1.22 8.92 90.572 90.572 0 01-9.5 19.45 135.913 135.913 0 01-10.87 15 3.743 3.743 0 00-1 2.87c.16 1.66.28 3.32.48 5 .086.516.276 1.01.56 1.45a2.24 2.24 0 002.71 1.07 8.026 8.026 0 002.38-1.07c2.57-1.84 5.07-3.76 7.61-5.64a1.623 1.623 0 00.59-1.37c.156-3.33.584-6.64 1.28-9.9a35.878 35.878 0 019.88-17.37 13.225 13.225 0 016.11-3.72c4.52-1.16 8.23 1.66 8.39 6.29a18.118 18.118 0 01-1.72 7.63 35.013 35.013 0 01-7.07 10.54c-2.59 2.74-5.28 5.4-7.92 8.08l-1.05 1.08a15.87 15.87 0 002.52 1.33 3.12 3.12 0 001.88-.16 13.022 13.022 0 003.78-2.58c5.84-5.2 9.74-11.66 12.61-18.84.86-2.2 1.84-4.37 2.86-6.49 1.02-2.12 2.65-2.63 4.77-1.54a1.525 1.525 0 011 2.12c-.66 2.22-1.34 4.45-2.07 6.65a36.776 36.776 0 00-2.06 8.25 10.374 10.374 0 00.13 3 2.508 2.508 0 004.2 1.37 6.773 6.773 0 001.1-1.29A50.535 50.535 0 00300 79.62c.94-2.59 1.91-5.18 2.75-7.8a3.797 3.797 0 014.29-2.67 7.485 7.485 0 012.62.78 2.716 2.716 0 011.793 2.52c.005.367-.064.73-.203 1.07a67.661 67.661 0 01-2.41 7.63 229.28 229.28 0 00-7.5 22.28 24.644 24.644 0 00-1 7c0 .34 0 .67.06 1.13.81 0 1.54 0 2.27-.13 4.8-.49 9.59-1 14.38-1.46 4.14-.41 8.29-.78 12.43-1.15 1.36-.12 2.71-.29 4.07-.29a3.856 3.856 0 014 4.38c-.12 1.54-1.18 2.25-2.53 1.53a5.775 5.775 0 00-3.15-.68c-3.6.15-7.2.23-10.77.6-5 .53-9.91 1.29-14.84 2-1.7.24-3.38.53-5.05.82-.86.14-1.07.37-1 1.24.082.694.209 1.382.38 2.06.55 2.56.33 3.48-2.62 5.11a9.245 9.245 0 01-1 .41 4.078 4.078 0 01-3.255.057 4.067 4.067 0 01-2.255-2.347 13.888 13.888 0 01-.7-2.79c-.13-.67-.17-1.37-.28-2.24-1.34.14-2.59.24-3.83.41-5.55.76-11.11 1.47-16.65 2.31-5.854.9-11.687 1.877-17.5 2.93a672.011 672.011 0 00-36.14 7.53 722.403 722.403 0 00-76 22.35 588.113 588.113 0 00-27.61 10.6 8.685 8.685 0 00-3.64 3.08c-.199.291-.413.571-.64.84a1.429 1.429 0 01-1.55.45 3.158 3.158 0 01-2.23-3.31 7.93 7.93 0 01.3-1.28c.3-1.18.64-2.36.89-3.55a1.504 1.504 0 011.11-1.16c2.73-1 5.46-2.15 8.2-3.21 18.88-7.3 38-13.88 57.43-19.61a660.86 660.86 0 0148.27-12.18c10.633-2.24 21.3-4.24 32-6 8.26-1.35 16.54-2.53 24.81-3.79 3.9-.59 7.79-1.23 11.7-1.77a1.147 1.147 0 001.16-1.11c.54-3.15 1.13-6.29 1.7-9.44 0-.08-.06-.16-.12-.38-2 .75-4.12 1.43-6.32.74s-3.57-2.45-5.05-4.27c-.4.53-.74 1-1 1.41a37.41 37.41 0 01-5.52 6.51 14.348 14.348 0 01-9.7 3.78 8.667 8.667 0 01-6.81-3.13c-.29-.32-.55-.66-.88-1-.4.32-.73.58-1.06.86a40.329 40.329 0 01-8.47 5.73 12.491 12.491 0 01-5.79 1.55 8.227 8.227 0 01-7.92-5.27c-.12-.28-.25-.55-.38-.83 0 0-.08 0-.21-.12-.27.29-.56.61-.82.92a29.447 29.447 0 01-5.45 5.13 7.7 7.7 0 01-5.64 1.73 8.84 8.84 0 01-2-.5 3.899 3.899 0 01-2.52-3.27 27.383 27.383 0 01.13-8.38c.29-2 .75-4 1.1-5.93a6.693 6.693 0 00.13-1.83 1.621 1.621 0 00-.55-1.09c-.45-.31-.83.13-1.09.47a28.13 28.13 0 00-1.75 2.4 80.541 80.541 0 00-6.84 14 30.916 30.916 0 01-1.26 3 7.79 7.79 0 01-1 1.67c-1.92 2.32-4.17 2.49-6.69 1.07a1.998 1.998 0 01-1.11-2.54c.325-1.366.76-2.704 1.3-4a34.735 34.735 0 002.58-11.21c.09-1.22-.28-2.14-1-2.36-1.09-.3-1.56.56-2.08 1.24a6.361 6.361 0 00-.8 1.36c-2 4.58-4 9.17-5.88 13.77-.62 1.49-1.07 3.06-1.63 4.58-.182.49-.402.965-.66 1.42a3.715 3.715 0 01-4.32 1.73 3.704 3.704 0 01-1.44-.83 2.201 2.201 0 01-.81-2.46c.4-1.25.78-2.52 1.26-3.74a144.878 144.878 0 006-18.47c.1-.42.2-.86.27-1.28.19-1 .12-1.12-1-1.88a7.634 7.634 0 00-.81 1.09 24.728 24.728 0 00-1.18 2.36 66.816 66.816 0 01-5.47 9.58 26.58 26.58 0 01-2.58 3.14 2.893 2.893 0 00-.83 1.58c-.14.91-.39 1.79-.59 2.7a22.157 22.157 0 01-6.33 10.72 8.762 8.762 0 01-4.13 2.47c-1.61.409-3.248.7-4.9.87a8.756 8.756 0 01-6.44-2.13 16 16 0 01-3.81-4.49c-.23-.4-.5-.8-.82-1.32-.52.64-.93 1.19-1.39 1.72-2 2.21-4 4.45-6 6.6a7.53 7.53 0 01-4.31 2.39 5.848 5.848 0 01-5.88-2.1 3.624 3.624 0 01-.81-3.43c.65-2.26 1.3-4.55 1.94-6.82a93.935 93.935 0 003.29-15.39c.07-.53.36-1.16-.34-1.53a1.417 1.417 0 00-1.83.57 5.047 5.047 0 01-3.62 1.89 2.392 2.392 0 01-2.07-.6 4.221 4.221 0 01-1.12-4.79 11.431 11.431 0 011.88-2.83A34.379 34.379 0 01135 91.9a11.578 11.578 0 017.55-2.61 5.592 5.592 0 015.45 6.23 123.004 123.004 0 01-4.26 22.16c-.13.46-.24.93-.34 1.39-.09-.07-.04 0 .03.12zm28.57-8.12a6.996 6.996 0 01-2.6-2.92c-1.07-2.84-1-5.57 1-8 .17-.21.31-.42.5-.62a1.369 1.369 0 00.31-1.33 3.773 3.773 0 00-3.75-3.009 3.77 3.77 0 00-1.67.419 9.936 9.936 0 00-2.64 2.11 18.55 18.55 0 00-5 10.5 13.99 13.99 0 00.51 6.75c1.08 2.86 3.2 4 6.15 3.11 3.53-1.08 5.47-3.8 7.19-7.01zm71-27.66h.28c.094-.09.181-.187.26-.29a86.372 86.372 0 0013.42-26.3c.264-.832.474-1.68.63-2.54.05-.539.05-1.081 0-1.62-1.07-.34-1.58.32-2.09.9a44.764 44.764 0 00-7.41 11.56 65.652 65.652 0 00-4.25 13.63c-.36 1.58-.61 3.12-.9 4.66h.06zM270.43 76a2.998 2.998 0 00-1.64 1.44 31.33 31.33 0 00-4.86 10.85c-.15.75-.24 1.5-.37 2.4 2.7-1.83 8.08-9.41 8.76-12.11-.68-.88-1.27-1.71-1.89-2.58z" fill="#00753B"/><path d="M86.14 134c-.66 1.26-1.25 2.49-1.93 3.66a3.607 3.607 0 01-3.9 2A4.129 4.129 0 0177 136.2a4.058 4.058 0 01.09-1.55c1-4 1.95-8 3-12 1.72-6.44 3-13 4.13-19.53.59-3.45 1.18-6.91 1.68-10.37.497-3.785.634-7.61.41-11.42a2.741 2.741 0 00-.2-.89 3.6 3.6 0 01.66-4 4 4 0 014.23-.86 5.66 5.66 0 013.83 3.69c.18.47.33 1 .55 1.62.33-.46.54-.77.77-1.08 1-1.49 2-3 3-4.48a37.93 37.93 0 0110.39-9.93 19.514 19.514 0 019.49-3.2 18 18 0 015.63.12 13.926 13.926 0 0110.73 11.38 18.435 18.435 0 01-1.11 10.17 30.168 30.168 0 01-8.52 11.67c-1.94 1.73-4 3.28-6 4.91l-.84.66 1.41.59c5.13 2.29 8.5 6 9.23 11.71a17.1 17.1 0 01-4.65 14.4 26.657 26.657 0 01-12.67 7.38 42.12 42.12 0 01-15.74 1.58A28.061 28.061 0 0186.14 134zm7.32-29.53c1.93-.58 3.52-1 5.1-1.54 7.63-2.43 14.14-6.87 20.63-11.38a4.22 4.22 0 00.41-.34 17.359 17.359 0 005.92-13.13c0-4.27-4.42-8.6-9.45-7.37a14.865 14.865 0 00-5.47 2.75 37.071 37.071 0 00-5.75 5.54 156.26 156.26 0 00-9.6 13 3.02 3.02 0 00-.44 1.21c-.36 2.69-.69 5.38-1 8.08-.13.98-.21 1.93-.35 3.16v.02zm-5.21 21.77c.46.26.87.51 1.29.73a20.145 20.145 0 008.08 2.03 30.72 30.72 0 0012.38-1.89 11.47 11.47 0 007.69-8.64 7.996 7.996 0 00-5.36-9.83A14.152 14.152 0 00108 108a33.12 33.12 0 00-15.24 4 2.342 2.342 0 00-1.32 1.77c-.69 3.15-1.48 6.3-2.25 9.44-.29.94-.62 1.93-.94 3.01v.02z" fill="#00753B"/><path d="M172 111.07c-1.67 3.22-3.61 6-7.21 7-2.94.86-5.08-.25-6.14-3.11a14.32 14.32 0 01-.52-6.75 18.548 18.548 0 015-10.5 9.627 9.627 0 012.65-2.11 3.757 3.757 0 014.699 1.023c.358.46.605.996.721 1.567a1.344 1.344 0 01-.32 1.33c-.17.2-.33.41-.5.62-2 2.47-2 5.2-1 8a7.243 7.243 0 002.62 2.93zm71-27.66c.28-1.54.54-3.08.86-4.62a63.923 63.923 0 014.25-13.63 44.74 44.74 0 017.41-11.56c.52-.58 1-1.24 2.09-.9.05.539.05 1.081 0 1.62a22.612 22.612 0 01-.63 2.54 86.37 86.37 0 01-13.42 26.3c-.079.103-.166.2-.26.29l-.3-.04zM270.43 76c.62.84 1.21 1.66 1.88 2.58-.68 2.7-6.06 10.26-8.76 12.11.13-.89.22-1.65.37-2.4a31.482 31.482 0 014.85-10.85 3.068 3.068 0 011.66-1.44zm-177 28.42c.14-1.23.22-2.18.33-3.12.33-2.69.66-5.39 1-8.08a2.9 2.9 0 01.49-1.22c2.968-4.5 6.172-8.84 9.6-13a37.003 37.003 0 015.75-5.58 14.94 14.94 0 015.47-2.75c5-1.24 9.46 3.09 9.45 7.37a17.292 17.292 0 01-5.92 13.16c-.13.121-.267.235-.41.34-6.47 4.52-13 8.95-20.63 11.39l-5.13 1.49zm-5.21 21.77c.32-1.08.64-2.08.89-3.1.77-3.14 1.55-6.27 2.25-9.44a2.318 2.318 0 011.32-1.77A33.217 33.217 0 01108 108a14.163 14.163 0 014.38.69 7.998 7.998 0 015.36 9.83 11.411 11.411 0 01-7.69 8.64A30.88 30.88 0 0197.62 129a20.32 20.32 0 01-8.08-2l-1.32-.81zm-12.11 87v1.09h-6.34v15.87h-1.33v-15.84H62.1v-1.09l14.01-.03zm16 0v17h-1.29v-8H79.5v8h-1.31v-17h1.31v7.83h11.32v-7.83h1.29zm13.18 0v1.09h-7.9v6.79h7.73v1.11h-7.73v6.88h8.13v1.09h-9.45v-17l9.22.04zm11.08 0v15.87h8.4v1.09h-9.7v-17l1.3.04zM135 213a8.86 8.86 0 016.38 2.53 8.555 8.555 0 010 12.33 9.28 9.28 0 01-12.74 0 8.583 8.583 0 01-1.93-9.512 8.583 8.583 0 011.93-2.818A8.815 8.815 0 01135 213zm.05 16.19a7.499 7.499 0 005.303-12.803 7.499 7.499 0 00-5.303-2.197 7.385 7.385 0 00-5.38 2.17 7.538 7.538 0 000 10.65 7.336 7.336 0 005.39 2.17l-.01.01zm27.41-16v17h-1.08l-12.9-14.83v14.83h-1.31v-17h1.1l12.87 14.83v-14.8l1.32-.03zm3.88 0h5.93c3 0 5.31.79 6.88 2.37a9.052 9.052 0 010 12.19 8.895 8.895 0 01-6.67 2.4h-6.17v-17l.03.04zm1.31 1.09v14.78h4.79a7.743 7.743 0 005.49-2 6.94 6.94 0 002.2-5.35 7.064 7.064 0 00-2.16-5.33 7.71 7.71 0 00-5.59-2.07l-4.73-.03zM193 213a8.884 8.884 0 016.39 2.53 8.595 8.595 0 011.929 9.512 8.595 8.595 0 01-1.929 2.818 9.28 9.28 0 01-12.74 0 8.583 8.583 0 01-1.93-9.512 8.583 8.583 0 011.93-2.818A8.8 8.8 0 01193 213zm0 16.19a7.312 7.312 0 005.36-2.17 7.59 7.59 0 000-10.65 7.732 7.732 0 00-10.74 0 7.538 7.538 0 000 10.65 7.375 7.375 0 005.38 2.16v.01zm27.41-16v17h-1.08l-12.89-14.83v14.83h-1.32v-17h1.11l12.87 14.83v-14.8l1.31-.03zm10.8 0h3.54a6.48 6.48 0 014.21 1.17c.476.385.855.878 1.106 1.437.25.56.364 1.171.334 1.783a4.137 4.137 0 01-2.44 3.78c2.62.573 3.93 2.007 3.93 4.3a4.004 4.004 0 01-1.54 3.29 6.482 6.482 0 01-4.16 1.23h-5v-17l.02.01zm1.31 1.09v6.76h1.81c3.08 0 4.63-1.13 4.63-3.38s-1.55-3.38-4.67-3.38h-1.77zm0 7.87v6.91h3.51a5.073 5.073 0 003.3-.94 3.091 3.091 0 001.13-2.5c0-2.313-1.667-3.47-5-3.47h-2.94zm20.1-9.19a8.848 8.848 0 016.38 2.53 8.555 8.555 0 010 12.33 9.27 9.27 0 01-12.73 0 8.583 8.583 0 01-1.93-9.512 8.583 8.583 0 011.93-2.818 8.746 8.746 0 016.38-2.49l-.03-.04zm0 16.19a7.312 7.312 0 005.36-2.17 7.59 7.59 0 000-10.65 7.732 7.732 0 00-10.74 0 7.529 7.529 0 00-1.636 8.208 7.521 7.521 0 001.636 2.442 7.355 7.355 0 005.45 2.2l-.07-.03zm12.15-16h4.34a6.42 6.42 0 014.17 1.18 3.944 3.944 0 011.45 3.2c0 2-1.08 3.33-3.23 4.13a7.549 7.549 0 012.27 2.59l3.84 5.87h-1.55l-3-4.64a11.208 11.208 0 00-2.31-2.91 4.227 4.227 0 00-2.42-.58h-2.29v8.13h-1.31v-17l.04.03zm1.31 1.09V221H269a5.352 5.352 0 003.29-.87 2.915 2.915 0 001.13-2.46 2.881 2.881 0 00-1.16-2.44 5.4 5.4 0 00-3.31-.87h-2.77l-.1-.12zm20.86-1.24a8.884 8.884 0 016.39 2.53 8.595 8.595 0 011.929 9.512 8.595 8.595 0 01-1.929 2.818 8.884 8.884 0 01-6.39 2.53 8.781 8.781 0 01-6.35-2.53 8.583 8.583 0 01-1.93-9.512 8.583 8.583 0 011.93-2.818 8.767 8.767 0 016.35-2.53zm.06 16.19a7.499 7.499 0 005.303-12.803A7.499 7.499 0 00287 214.19a7.41 7.41 0 00-5.39 2.17 7.529 7.529 0 00-1.636 8.208 7.521 7.521 0 001.636 2.442 7.39 7.39 0 005.39 2.17v.01zm24.65-16H313v9.25a8.184 8.184 0 01-2 5.87 6.77 6.77 0 01-5.12 2.06 6.84 6.84 0 01-5.12-2 7.651 7.651 0 01-2-5.59v-9.55h1.32v9.51a6.656 6.656 0 001.61 4.75 5.908 5.908 0 008.34 0 6.926 6.926 0 001.61-4.91v-9.33l.01-.06zm19 1.22v1.49a12.004 12.004 0 00-6-1.71 7.582 7.582 0 00-7.363 8.977 7.583 7.583 0 001.993 3.863 7.741 7.741 0 005.75 2.13 9.882 9.882 0 004.64-1v-4.58h-3.57v-1.09h4.9V229a13.811 13.811 0 01-6 1.44 9.236 9.236 0 01-6.6-2.5 8.691 8.691 0 010-12.43 9.096 9.096 0 016.52-2.47c1.999.037 3.966.515 5.76 1.4l-.03-.03zm17.62-1.22v17H347v-8h-11.34v8h-1.32v-17h1.32v7.83H347v-7.83h1.27z" fill="#fff"/></svg>