<?xml version="1.0" encoding="UTF-8"?>
<svg id="Logo" xmlns="http://www.w3.org/2000/svg" viewBox="0 0 513.66 237.64">
  <defs>
    <style>
      .cls-1 {
        fill-rule: evenodd;
      }

      .cls-1, .cls-2 {
        fill: #ffffff;
      }
    </style>
  </defs>
  <path class="cls-1" d="M136.05,88.4c2.25,1.55,4.83,3.24,6.85,5.36,8.08-1.67,16.45-3.26,25.07-4.7,14.8-34.1,48.75-57.97,88.3-57.97s73.5,23.87,88.3,57.97c8.66,1.45,17.08,3.05,25.21,4.73,2-2.07,4.54-3.72,6.75-5.24.82-.56,1.16-1.6.85-2.54-.42-1.26-.87-2.5-1.33-3.74-.35-.93-1.27-1.51-2.26-1.43-6.01.49-13.71,1.57-17.49-5.71-3.77-7.29,1.55-12.96,5.41-17.58.64-.76.69-1.85.13-2.67-.74-1.09-1.5-2.17-2.28-3.24-.58-.8-1.63-1.12-2.57-.77-5.65,2.09-12.78,5.2-18.38-.79-5.6-6-2-12.9.47-18.39.41-.9.17-1.97-.59-2.61-1.01-.85-2.04-1.69-3.08-2.51-.78-.61-1.87-.63-2.68-.05-4.88,3.53-10.89,8.44-17.89,4.19-7.03-4.27-5.4-11.9-4.52-17.86.14-.98-.37-1.93-1.27-2.34-1.2-.55-2.41-1.08-3.63-1.59-.91-.38-1.97-.1-2.59.67-3.75,4.72-8.22,11.1-16.13,8.88-7.9-2.22-8.4-9.98-9.16-15.97-.12-.98-.88-1.77-1.86-1.92-1.31-.2-2.62-.38-3.94-.54-.98-.12-1.92.44-2.31,1.35-2.33,5.56-4.91,12.88-13.11,12.88s-10.78-7.34-13.12-12.9c-.38-.91-1.32-1.46-2.3-1.35-1.32.15-2.64.33-3.94.53-.98.15-1.74.94-1.86,1.92-.75,5.98-1.26,13.74-9.16,15.95-7.91,2.22-12.38-4.19-16.13-8.91-.62-.77-1.67-1.05-2.59-.67-1.22.51-2.44,1.04-3.64,1.59-.9.41-1.41,1.37-1.27,2.35.89,5.96,2.5,13.57-4.52,17.84-7.01,4.26-13.03-.66-17.91-4.19-.8-.58-1.89-.56-2.67.05-1.04.82-2.06,1.65-3.07,2.51-.76.64-.99,1.7-.59,2.6,2.46,5.49,6.05,12.38.45,18.37-5.6,6-12.73,2.88-18.38.79-.93-.34-1.98-.03-2.56.77-.78,1.07-1.55,2.15-2.29,3.24-.56.82-.5,1.91.13,2.67,3.86,4.62,9.17,10.29,5.4,17.57-3.78,7.3-11.5,6.19-17.51,5.71-.99-.08-1.91.5-2.26,1.43-.46,1.23-.91,2.47-1.33,3.72-.32.94.03,1.97.85,2.54Z"/>
  <path class="cls-1" d="M256.26,99.12c71.17,0,136.32,4.36,186.64,11.59-39.62-11.97-108.41-19.89-186.64-19.89s-147.01,7.92-186.64,19.89c50.32-7.23,115.46-11.59,186.64-11.59Z"/>
  <path class="cls-2" d="M392.04,208.35c-5.4-5.25-8.1-12.93-8.1-23.04v-51.76h9.03v51.29c0,8.03,1.83,13.89,5.5,17.6,3.66,3.7,8.7,5.56,15.11,5.56s11.37-1.85,15.11-5.56c3.74-3.71,5.61-9.57,5.61-17.6v-51.29h9.03v51.87c0,10.19-2.72,17.87-8.16,23.04-5.44,5.17-12.64,7.76-21.59,7.76s-16.14-2.62-21.54-7.87Z"/>
  <path class="cls-2" d="M473.71,173.84l-10.19,10.54v30.22h-9.03v-81.05h9.03v38.21l37.05-38.21h11.7l-32.31,33.69,33.69,47.36h-11.11l-28.83-40.76Z"/>
  <path class="cls-2" d="M76.7,149.45l-10.54,10.05c-7.17-7.58-15.24-11.37-24.2-11.37-7.56,0-13.94,2.58-19.12,7.76-5.18,5.17-7.77,11.55-7.77,19.13,0,5.28,1.15,9.97,3.44,14.06,2.29,4.1,5.54,7.31,9.73,9.64,4.2,2.33,8.86,3.5,13.98,3.5,4.37,0,8.37-.82,11.99-2.45,3.62-1.63,7.6-4.6,11.94-8.92l10.22,10.66c-5.85,5.71-11.38,9.67-16.58,11.87-5.2,2.21-11.14,3.31-17.81,3.31-12.31,0-22.38-3.9-30.22-11.71-7.84-7.8-11.76-17.81-11.76-30,0-7.89,1.78-14.91,5.36-21.04,3.57-6.14,8.68-11.07,15.34-14.8,6.66-3.73,13.82-5.6,21.5-5.6,6.53,0,12.82,1.38,18.87,4.14,6.05,2.76,11.26,6.68,15.63,11.77Z"/>
  <path class="cls-2" d="M77.74,156.15h15.02l15.21,36.74,16.78-36.74h15.06l-36.67,79.98h-15.18l12.04-25.79-22.26-54.19Z"/>
  <path class="cls-2" d="M197.56,167.99l-12.23,6.73c-2.3-2.4-4.57-4.07-6.82-5.01-2.24-.93-4.88-1.4-7.89-1.4-5.5,0-9.94,1.64-13.34,4.92-3.4,3.28-5.09,7.48-5.09,12.6s1.63,9.05,4.9,12.2c3.27,3.15,7.56,4.73,12.88,4.73,6.57,0,11.69-2.24,15.36-6.73l11.59,7.93c-6.28,8.17-15.14,12.25-26.59,12.25-10.3,0-18.36-3.05-24.19-9.15-5.83-6.1-8.75-13.24-8.75-21.42,0-5.67,1.42-10.89,4.25-15.66,2.83-4.77,6.79-8.52,11.87-11.25,5.08-2.73,10.75-4.09,17.03-4.09,5.81,0,11.03,1.16,15.66,3.47,4.63,2.31,8.41,5.61,11.36,9.87Z"/>
  <path class="cls-2" d="M203.6,133.55h14.69v81.16h-14.69v-81.16Z"/>
  <path class="cls-2" d="M235.95,132.04c2.58,0,4.79.93,6.63,2.8,1.84,1.87,2.76,4.13,2.76,6.78s-.91,4.85-2.74,6.7c-1.82,1.85-4.01,2.77-6.55,2.77s-4.84-.94-6.68-2.83c-1.84-1.88-2.76-4.17-2.76-6.86s.91-4.79,2.74-6.62c1.82-1.83,4.02-2.75,6.6-2.75ZM228.6,156.15h14.69v58.56h-14.69v-58.56Z"/>
  <path class="cls-2" d="M253.32,156.15h14.69v6c3.33-2.81,6.35-4.76,9.06-5.86,2.7-1.1,5.47-1.65,8.3-1.65,5.81,0,10.73,2.03,14.78,6.08,3.4,3.45,5.11,8.54,5.11,15.28v38.7h-14.53v-25.64c0-6.99-.31-11.63-.94-13.92-.63-2.29-1.72-4.04-3.28-5.24-1.56-1.2-3.48-1.8-5.77-1.8-2.97,0-5.52.99-7.65,2.98-2.13,1.99-3.61,4.74-4.43,8.25-.43,1.83-.64,5.79-.64,11.88v23.49h-14.69v-58.56Z"/>
  <path class="cls-2" d="M358.42,156.15h14.64v50.16c0,9.9-1.99,17.19-5.98,21.85-5.35,6.31-13.4,9.47-24.16,9.47-5.74,0-10.57-.72-14.48-2.15-3.91-1.44-7.21-3.55-9.9-6.33-2.69-2.78-4.68-6.16-5.97-10.15h16.2c1.44,1.65,3.28,2.9,5.54,3.74,2.26.84,4.93,1.27,8.02,1.27,3.95,0,7.12-.61,9.53-1.83,2.4-1.22,4.1-2.8,5.09-4.74.99-1.94,1.48-5.28,1.48-10.01-2.58,2.58-5.29,4.44-8.13,5.57-2.83,1.13-6.05,1.7-9.63,1.7-7.86,0-14.5-2.83-19.91-8.5-5.42-5.67-8.13-12.85-8.13-21.53,0-9.29,2.87-16.76,8.61-22.39,5.2-5.09,11.41-7.64,18.62-7.64,3.37,0,6.56.62,9.55,1.86,3,1.24,6,3.27,9.02,6.11v-6.46ZM343.19,168.37c-4.63,0-8.45,1.55-11.47,4.66-3.01,3.1-4.52,7.01-4.52,11.71s1.54,8.88,4.63,12c3.09,3.12,6.96,4.68,11.63,4.68s8.32-1.53,11.28-4.58c2.96-3.05,4.44-7.05,4.44-12s-1.49-8.84-4.47-11.89c-2.98-3.05-6.82-4.57-11.52-4.57Z"/>
</svg>