<svg id="Layer_1" data-name="Layer 1" xmlns="http://www.w3.org/2000/svg" viewBox="0 0 250.42 91.37"><defs><style>.cls-1{fill:#fbb040;}.cls-2{fill:#ffffff;}</style></defs><path class="cls-1" d="M37.16,10.63c0-1.08-.81-2.34-2.81-2.34h-3a46.39,46.39,0,0,1-2.78,10.59,43.08,43.08,0,0,1-2.45-7,3.86,3.86,0,0,0-3.56-2.78H20a55.94,55.94,0,0,1-3.12,9.81,39.76,39.76,0,0,1-2.34-7.94,3.39,3.39,0,0,0-3.5-2.65H7.65C8.53,14.7,11.21,22,13.79,25.93c.68,1.06,1.49,1.29,3,1.29h1.6a30.44,30.44,0,0,0,4.17-8.95,38.58,38.58,0,0,0,3.33,7.66,3,3,0,0,0,2.88,1.29h1.8c2.1-2.81,4.48-8.72,5.6-12.35a21.7,21.7,0,0,0,1-4.24m20,4.58c0-4.75-3.8-7.5-8.68-7.5-5.77,0-9.61,4.62-9.61,10.28,0,5.16,3.4,9.51,9.84,9.51C54,27.5,56,25.36,56,23V21.49h-.23c-1,.71-2.92,1.19-5.91,1.19-2.68,0-4.2-.88-4.58-2.75H48c6.31,0,9.12-1,9.12-4.72m-6-.71c0,.81-.54,1.29-3.59,1.29H45.07c.17-1.8,1.12-3.26,3.4-3.26,1.86,0,2.71,1,2.71,2m33.29,4.24V15.86c0-5.5-3.36-8.11-8.52-8.11-5.32,0-7.73,2.31-7.73,4.61v2.28h.17c1.32-1.23,2.61-2,6.1-2,2.55,0,3.74.37,3.74,1.9v.78h-.92c-6.79,0-9.77,2.1-9.77,6.24s4.37,5.94,8,5.94c6.79,0,9-1.93,9-8.72m-6.11,1.93A2,2,0,0,1,76.19,23c-1.8,0-2.55-.61-2.55-1.8s1-1.87,3.43-1.87h1.29Zm21.07-7.56V10.73c0-1.73-1.49-3.05-4.71-3.05a6.46,6.46,0,0,0-6.79,6.75v8.11c0,3.12,1.7,4.41,4.48,4.41h1.76V15.79c0-2.27,1.23-3.06,2.79-3.06a5.71,5.71,0,0,1,2.27.38Zm19.65,2.1c0-4.75-3.8-7.5-8.68-7.5-5.77,0-9.61,4.62-9.61,10.28,0,5.16,3.4,9.51,9.84,9.51,5.33,0,7.26-2.14,7.26-4.52V21.49h-.24c-1.05.71-2.91,1.19-5.9,1.19-2.68,0-4.2-.88-4.58-2.75H110c6.31,0,9.13-1,9.13-4.72m-6-.71c0,.81-.54,1.29-3.6,1.29H107c.17-1.8,1.12-3.26,3.4-3.26,1.86,0,2.71,1,2.71,2" transform="translate(-7.65 -7.68)"/><path class="cls-2" d="M40.49,48.51V43.84c0-4.94-5-8.91-11.07-8.91-13.51,0-21.1,9.4-21.1,20.33,0,12,8.29,19.85,19.91,19.85,7,0,12.19-4.11,12.19-9.19V62h-.14A17.85,17.85,0,0,1,31,64.11c-5.85,0-9.47-3.07-9.47-9.61,0-5.36,3.62-8.64,10.1-8.64,3.69,0,7.31,1.4,8.49,2.65Zm41.29-7.66C81.78,37.79,80,36,76.14,36H69.8a83.82,83.82,0,0,1-6.68,23.53,110.34,110.34,0,0,1-6-18.1C56.36,38,53,36,49.68,36h-6.9c1.54,10.23,8.57,27.64,14.07,35.85-1.39,3.14-3,4.53-6.48,4.81l-5.71.42v3.2c0,4.32,3.56,6.61,7.8,6.61,8,0,10.73-2.08,21.45-22.7,4.24-8.14,7.87-19.28,7.87-23.32" transform="translate(-7.65 -7.68)"/><path class="cls-2" d="M117.77,48.51V43.84c0-4.94-5-8.91-11.07-8.91-13.51,0-21.1,9.4-21.1,20.33,0,12,8.29,19.85,19.92,19.85,7,0,12.18-4.11,12.18-9.19V62h-.14a17.86,17.86,0,0,1-9.26,2.15c-5.85,0-9.47-3.06-9.47-9.6,0-5.37,3.62-8.64,10.1-8.64,3.69,0,7.31,1.4,8.49,2.65ZM145.2,68.7V64.1h-2.92c-3.69,0-5.57-1-5.57-4.45V31.87c0-6.48-2.79-9.12-8.57-9.12h-4.66V61.6c0,9.05,6.06,13.23,13.09,13.23,4.18,0,8.63-1.46,8.63-6.13m18-41.43a6.94,6.94,0,0,0-13.86,0,6.94,6.94,0,0,0,13.86,0m7,41.43V64.8h-1.6c-3.69,0-5.3-1-5.3-4.45V46.28c0-7-2.43-9.12-10-9.12h-3.27V62.29c0,9.06,5.5,12.54,12.53,12.54,4.11,0,7.59-1.53,7.59-6.13m42.89,5.57V53.38c0-11.35-5.5-18.52-19.08-18.52-12.19,0-19.5,7.17-19.5,18.17V66.47c0,5.57,3.14,7.8,8.78,7.8h4.45V52.83c0-4.67,2.09-7.25,5.92-7.25,4.46,0,6.2,2.3,6.2,7.45V66.47c0,5.85,1.81,7.8,7.66,7.8Z" transform="translate(-7.65 -7.68)"/><path class="cls-2" d="M257.86,62.16V52.06c0-10.44-5.43-17.2-17.06-17.2-13,0-21.31,8.43-21.31,18.94,0,11.91,7.8,16.78,17.48,16.78,3.83,0,6.89-2.37,7.73-4.8V67.1c0,.7.14,1.6.14,2.23,0,4.11-3,7.17-8.57,7.17-6.2,0-10.65-1.25-13-3.41h-.42V77.2c0,4.87,4.25,9.74,15.18,9.74,12.12,0,20.06-7.45,20.06-16.78,0-1.39,0-2.71-.08-3.9-.06-1.81-.13-3.2-.13-4.1M238.92,45.51c4,0,6.05,2,6.05,7.66,0,4.32-2,7.18-5.7,7.18-4,0-6.62-2.09-6.62-7.8,0-4.46,2.3-7,6.27-7" transform="translate(-7.65 -7.68)"/><path class="cls-2" d="M192.75,90.42V83c0-2.52-1.06-3.52-3-3.52h-2.25V90.56c0,2.86-1,4.16-3.11,4.16-2.46,0-3.6-1-3.6-4.3V83.1c0-2.63-1.33-3.63-3-3.63H175.5V90.59c0,5.16,3.47,8.46,8.37,8.46,5.91,0,8.88-3.8,8.88-8.63m5.46-11h-1.86V95.58a2.9,2.9,0,0,0,3.16,3h2.11V89.51a60.29,60.29,0,0,0,5.91,7.87,4.92,4.92,0,0,0,3.33,1.42c1.74,0,2.6-.7,3.19-2.89-1.39-.3-1.89-.72-3.28-2.19a48.19,48.19,0,0,1-4.13-5.4,82.54,82.54,0,0,1,7.57-8.71v-.14h-3.85A3.77,3.77,0,0,0,207,80.74a47.59,47.59,0,0,0-5.38,6.8V82.46a3.08,3.08,0,0,0-3.41-3" transform="translate(-7.65 -7.68)"/></svg>