<svg data-name="Layer 1" xmlns="http://www.w3.org/2000/svg" viewBox="0 0 226.77 69.48"><g fill="#fff"><path d="M34.74 5.71a29 29 0 11-29 29 29.07 29.07 0 0129-29m0-5.71a34.74 34.74 0 1034.74 34.74A34.74 34.74 0 0034.74 0z"/><path d="M14.1 23.09h19.73v6h-12.9v4.19h11.66v5.67H20.93v8.81H14.1zm21.1 0h11.67c3.77 0 6.37 1 8 2.64a7.69 7.69 0 012.19 5.74v.08A7.82 7.82 0 0152 39.16l5.89 8.59H50l-5-7.47h-3v7.47h-6.8zm11.38 11.84c2.3 0 3.67-1.13 3.67-2.93v-.07c0-2-1.45-3-3.7-3H42v6z"/></g><path d="M82.9 24.16h10.7v1H84v6.23h8.6v1H84v6.88h-1.1zM95.82 33v-8.84H97v8.77c0 3.58 1.93 5.64 5.14 5.64s5.06-1.86 5.06-5.53v-8.88h1.13v8.75c0 4.36-2.54 6.68-6.23 6.68s-6.28-2.3-6.28-6.59zm15.65-8.84h1.07L123 37.38V24.16h1.09v15.19h-.85l-10.7-13.5v13.5h-1.09zm16.07 0h5.06c4.77 0 8.07 3.28 8.07 7.55v.05c0 4.27-3.3 7.59-8.07 7.59h-5.06zm5.06 14.15c4.23 0 6.9-2.89 6.9-6.51 0-3.61-2.67-6.56-6.9-6.56h-3.93v13.07zm10.83-14.15h6.38a6 6 0 014.28 1.5 4 4 0 011.15 2.82c0 2.54-1.89 4-4.45 4.34l5 6.49h-1.43l-4.84-6.29h-5v6.29h-1.13zm6.25 7.84c2.54 0 4.43-1.28 4.43-3.47v-.05c0-2-1.6-3.32-4.36-3.32h-5.19V32zm14.14-7.95h1.08l7.1 15.3h-1.24l-1.93-4.25h-9l-1.93 4.25h-1.17zm4.51 10l-4-8.79-4 8.79zm5.93-9.89h1.13v15.19h-1.13zM178 37.14l.73-.85a7.39 7.39 0 005.45 2.26c2.28 0 3.84-1.28 3.84-3 0-1.61-.84-2.54-4.29-3.23-3.65-.74-5.13-2-5.13-4.28 0-2.26 2.07-4 4.89-4a7.57 7.57 0 015.21 1.85l-.72.89a6.54 6.54 0 00-4.54-1.78c-2.23 0-3.71 1.28-3.71 2.87 0 1.61.83 2.58 4.43 3.32s5 2 5 4.19c0 2.46-2.1 4.15-5 4.15a8.62 8.62 0 01-6.16-2.39zm13.93-12.98h1.13v15.19h-1.13zm4.72 0h1.06l10.48 13.22V24.16h1.09v15.19h-.85l-10.7-13.5v13.5h-1.08zM212 31.8a7.58 7.58 0 017.51-7.86 8 8 0 015.56 2l-.74.84a6.88 6.88 0 00-4.89-1.82c-3.69 0-6.27 3.12-6.27 6.79v.05c0 3.93 2.45 6.86 6.51 6.86a7.81 7.81 0 004.84-1.74v-4.4h-5.08v-1.05h6.17v5.86a9.13 9.13 0 01-6 2.28c-4.73 0-7.61-3.53-7.61-7.81zM82.69 43.17h7.78a6.79 6.79 0 015 1.72 5.35 5.35 0 011.46 3.9v.05a5.29 5.29 0 01-3.65 5.27l4.16 6.09H93l-3.65-5.45h-2.92v5.45h-3.74zm7.54 8.27c1.82 0 2.87-1 2.87-2.41V49c0-1.61-1.12-2.43-2.94-2.43h-3.73v4.89zm8.82-8.27h12.85v3.33h-9.13V50h8v3.34h-8v3.57H112v3.29H99zm14.32 8.56a8.75 8.75 0 018.93-8.81 9.33 9.33 0 016.7 2.29l-2.36 2.85a6.24 6.24 0 00-4.45-1.73 5.12 5.12 0 00-4.89 5.3 5.1 5.1 0 005.16 5.4 6 6 0 003.53-1v-2.4h-3.77v-3.24h7.39v7.4a11.07 11.07 0 01-7.27 2.7c-5.34 0-8.97-3.72-8.97-8.76zm18.34 1.17v-9.73h3.75v9.63c0 2.77 1.38 4.21 3.67 4.21s3.67-1.39 3.67-4.09v-9.75h3.75v9.61c0 5.15-2.89 7.68-7.47 7.68s-7.37-2.55-7.37-7.56zm17.43-9.73h3.75v13.62h8.49v3.41h-12.24zm19.68-.17h3.45l7.3 17.16h-3.91l-1.56-3.82h-7.2l-1.56 3.82h-3.82zm3.94 10l-2.26-5.52-2.26 5.52zm9.99-6.38h-5.18v-3.45h14.11v3.45h-5.18V60.2h-3.75zm9.09 5.11a9.06 9.06 0 0118.11 0 9.06 9.06 0 01-18.11 0zm14.19 0a5.17 5.17 0 00-5.16-5.35 5.09 5.09 0 00-5.11 5.3 5.17 5.17 0 005.16 5.32 5.09 5.09 0 005.08-5.27zm6.02-8.56h7.79a6.78 6.78 0 015 1.72 5.35 5.35 0 011.46 3.9v.05a5.28 5.28 0 01-3.65 5.27l4.16 6.09h-4.38l-3.65-5.45h-2.98v5.45h-3.75zm7.54 8.27c1.83 0 2.87-1 2.87-2.41V49c0-1.61-1.11-2.43-2.94-2.43h-3.72v4.89zM82.87 7.38h4a3.6 3.6 0 012.62.91 2.69 2.69 0 01.76 2A2.73 2.73 0 0188.13 13l2.46 3.44h-1.9l-2.23-3.17h-2v3.17h-1.59zm3.93 4.5c1.14 0 1.87-.6 1.87-1.52 0-1-.7-1.51-1.89-1.51h-2.32v3.05zm4.78 1.18a3.4 3.4 0 013.35-3.56c2.18 0 3.28 1.71 3.28 3.68v.44h-5a1.91 1.91 0 002 1.74 2.45 2.45 0 001.79-.85l.92.82a3.57 3.57 0 01-6.32-2.27zm5.08-.51a1.78 1.78 0 00-1.74-1.8 1.85 1.85 0 00-1.78 1.8zm3.11 5.19l.58-1.18a4.46 4.46 0 002.44.73 1.92 1.92 0 002.17-2.1v-.53a2.88 2.88 0 01-2.42 1.25 3.07 3.07 0 01-3.11-3.2 3.09 3.09 0 013.11-3.21 3 3 0 012.4 1.16v-1h1.57v5.45a3.51 3.51 0 01-.87 2.58 3.85 3.85 0 01-2.81.92 5.81 5.81 0 01-3.06-.87zm5.2-5a1.91 1.91 0 00-2-1.88 1.85 1.85 0 00-1.97 1.81 1.87 1.87 0 002 1.91 1.91 1.91 0 002-1.88zm3.52-5.67h1.69v1.49h-1.69zm.07 2.54h1.57v6.85h-1.57zm3.02 5.95l.7-1.06a3.84 3.84 0 002.24.84c.68 0 1.07-.28 1.07-.74 0-.53-.73-.72-1.54-1-1-.29-2.14-.7-2.14-2a2.19 2.19 0 012.44-2.09 4.76 4.76 0 012.52.78l-.62 1.12a3.92 3.92 0 00-1.94-.65c-.61 0-1 .28-1 .67 0 .5.74.71 1.55 1 1 .31 2.13.77 2.13 2 0 1.44-1.12 2.15-2.55 2.15a4.76 4.76 0 01-2.86-1.02zm7.42-.99V11h-.87V9.61h.87V7.73h1.57v1.88h1.84V11h-1.84v3.36a.75.75 0 00.84.86 2 2 0 001-.24v1.29a2.7 2.7 0 01-1.41.35 1.75 1.75 0 01-2-2.05zm4.38-1.51a3.4 3.4 0 013.35-3.56c2.18 0 3.28 1.71 3.28 3.68v.44h-5a1.91 1.91 0 002 1.74 2.47 2.47 0 001.86-.82l.92.82a3.46 3.46 0 01-2.8 1.29 3.42 3.42 0 01-3.61-3.59zm5.07-.51a1.77 1.77 0 00-1.73-1.8 1.85 1.85 0 00-1.78 1.8zm3.17-2.94h1.57v1.54a2.43 2.43 0 012.42-1.67v1.66h-.09c-1.37 0-2.33.9-2.33 2.71v2.61h-1.57zm4.88 3.45a3.4 3.4 0 013.35-3.56c2.17 0 3.28 1.71 3.28 3.68v.44h-5a1.91 1.91 0 002 1.74 2.44 2.44 0 001.85-.82l.93.82a3.48 3.48 0 01-2.91 1.26 3.42 3.42 0 01-3.5-3.56zm5.07-.51a1.77 1.77 0 00-1.74-1.8 1.86 1.86 0 00-1.78 1.8zm2.8.5a3.27 3.27 0 013.18-3.55 2.81 2.81 0 012.34 1.2V7h1.57v9.47h-1.57v-1.15a2.75 2.75 0 01-2.34 1.28 3.28 3.28 0 01-3.18-3.55zm5.54 0a2.05 2.05 0 00-2-2.19A2 2 0 00146 13a2 2 0 103.95 0zm6.84-3.44h1.61l1.38 4.7 1.51-4.73h1.35l1.52 4.73 1.4-4.7h1.59l-2.25 6.9h-1.41l-1.53-4.68-1.55 4.68H159zm11.64-2.54h1.69v1.49h-1.69zm.06 2.54H170v6.85h-1.57zm3.87 4.96V11h-.87V9.61h.87V7.73h1.57v1.88h1.84V11h-1.84v3.36a.75.75 0 00.84.86 2.12 2.12 0 001-.24v1.29a2.74 2.74 0 01-1.42.35 1.76 1.76 0 01-1.99-2.05zm5-7.57h1.57v3.67a2.46 2.46 0 012.11-1.2 2.35 2.35 0 012.44 2.62v4.37h-1.54v-3.89c0-1.07-.53-1.68-1.47-1.68a1.52 1.52 0 00-1.54 1.7v3.87h-1.57z" fill="#fff"/></svg>