<svg fill="none" height="90" viewBox="0 0 79 90" width="79" xmlns="http://www.w3.org/2000/svg" xmlns:xlink="http://www.w3.org/1999/xlink"><clipPath id="a"><path d="m0 0h79v90h-79z"/></clipPath><g clip-path="url(#a)"><path d="m5.6979 57.3992c-.12097 0-.18145 0-.30242 0s-.18145 0-.30242 0-.18145 0-.30242 0-.18145 0-.24193 0c0-.0605 0-.121 0-.1815 0-.0604 0-.1209 0-.1814h.7258.72581.72581.7258v.1814.1815c-.06048 0-.18145 0-.24193 0-.12097 0-.18145 0-.30242 0s-.18145 0-.30242 0-.18145 0-.30242 0v1.1492.9677.7258c0 .242 0 .4839.06048.7258-.06048 0-.18145 0-.24193 0-.12097 0-.18145 0-.30242 0 0-.2419 0-.4838.06048-.7258 0-.2419 0-.4838 0-.7258v-.9677c-.12097-.3629-.12097-.7258-.18145-1.1492zm5.2016.4234c0-.242 0-.4839-.0605-.7258h.121.121.1209.121c0 .2419 0 .4838-.0605.7258v.7258.9677.7258c0 .242 0 .4839.0605.7258-.0605 0-.1815 0-.3024 0-.121 0-.1815 0-.242 0 0-.2419 0-.4838.0605-.7258 0-.2419 0-.4838 0-.7258v-.4838c-.1814 0-.4234 0-.6048 0-.1815 0-.36291 0-.60485 0-.18145 0-.42338 0-.60484 0-.18145 0-.3629 0-.60484 0v.4838.7258c0 .242 0 .4839.06049.7258-.06049 0-.18145 0-.30242 0s-.18145 0-.30242 0c0-.2419 0-.4838.06048-.7258 0-.2419 0-.4838 0-.7258v-.9677c0-.242 0-.4839 0-.7258 0-.242 0-.4839-.06048-.7258h.12097.12096.12097.12097c0 .2419 0 .4838-.06048.7258v.7258.1814h.60484.60483.60482.6049v-.1814c.2419-.242.2419-.4839.1814-.7258zm1.6936 0c0-.242 0-.4839-.0605-.7258h.4838.4839.4839.4839v.1814.1815c-.121 0-.242 0-.3025 0-.1209 0-.1814 0-.3024 0-.1209 0-.2419 0-.3629 0-.1209 0-.3024 0-.4839 0v.3629.3629.4234.3024h.4234.3629.3025.2419v.1814.1815c-.121 0-.1815 0-.3629 0-.121 0-.2419 0-.3629 0s-.2419 0-.3629 0-.1815 0-.242 0v.121.1209.3629.5444.3024h.363.4233.3629c.121 0 .242 0 .3025-.0605v.0605.0605.121c-.1815 0-.3025 0-.4839 0h-.9073c-.1814 0-.3629 0-.4838 0 0-.242 0-.4839.0604-.7259.0605-.2419 0-.4838 0-.7258v-.9677c-.0604-.1815-.0604-.4234-.0604-.6653zm5.1411 1.0887h.1814c.121 0 .242 0 .3629-.0605.121 0 .242-.0605.3629-.121.121-.0605.1815-.1814.242-.2419.0605-.121.121-.2419.121-.4234 0-.121 0-.2419-.0605-.3629s-.121-.1814-.1815-.2419-.1814-.121-.3024-.121-.1815-.0605-.3024-.0605c-.121 0-.242 0-.3024 0-.0605 0-.1815 0-.242 0v.6049.6048.3024c.0605.121.0605.121.121.121zm-.6048-1.0887c0-.242 0-.4839-.0605-.7258h.3024.3024.3024.3024c.1815 0 .3025 0 .4234.0605.121 0 .242.0604.3629.1209.121.0605.1815.1815.242.242.0605.1209.1209.2419.1209.4233 0 .1815-.0604.3025-.1209.4839-.0605.121-.1815.2419-.3024.3024-.121.0605-.242.121-.363.1815-.1209.0605-.2419.0605-.3629.121.0605.0604.121.1209.1815.2419s.1814.1814.2419.3024c.121.121.1815.2419.3025.3629.1209.121.1814.2419.3024.3629.1209.121.1814.2419.3024.3024.0605.121.1814.1815.1814.242-.0604 0-.1209 0-.1814 0h-.3024c-.0605 0-.121 0-.1815 0-.0605-.0605-.1209-.1815-.2419-.3629-.121-.1815-.242-.3025-.3629-.4839-.121-.1815-.3024-.3629-.4234-.5444-.121-.1814-.3024-.3024-.3629-.4233h-.1815v.4233.7258.7259c-.0604 0-.1814 0-.2419 0-.121 0-.1814 0-.3024 0 0-.242 0-.4839.0605-.7259 0-.2419 0-.4838 0-.7258v-.9677c.0605-.1815.0605-.4234.0605-.6653zm6.7137.4234c-.0605-.242-.1815-.4234-.3025-.5444-.1209-.121-.3024-.2419-.4838-.3024-.1815-.0605-.3629-.121-.6049-.121-.2419 0-.4234.0605-.6048.121-.1815.0605-.3629.1814-.4839.3024-.1209.121-.2419.3024-.3024.5444-.0605.2419-.121.4838-.121.7863 0 .3024.0605.5443.121.7862.0605.242.1815.4234.3024.5444.121.121.3024.2419.4839.3024.1814.0605.3629.121.6048.121.242 0 .4234-.0605.6049-.121.1814-.0605.3629-.1814.4838-.3024.121-.121.242-.3024.3025-.5444.0604-.2419.1209-.4838.1209-.7862 0-.3025-.0605-.5444-.1209-.7863zm-3.3871-.0605c.1209-.242.2419-.4839.4234-.6049.1814-.1814.4233-.3024.6653-.3629.2419-.0604.5443-.1209.8467-.1209.3025 0 .6049.0605.8468.1209.242.0605.4839.242.6653.3629.1815.1815.3025.3629.4234.6049.121.2419.1815.5443.1815.8468 0 .3024-.0605.6048-.1815.8467-.1209.242-.2419.4234-.4234.6049-.1814.1814-.4233.3024-.6653.3629-.2419.0605-.5443.1209-.8468.1209-.3024 0-.6048-.0604-.8467-.1209-.242-.0605-.4839-.1815-.6653-.3629-.1815-.1815-.3025-.3629-.4234-.6049-.121-.2419-.121-.5443-.121-.8467 0-.3025.0605-.6049.121-.8468zm5.2621.9072c-.0605-.1209-.1815-.2419-.242-.4234-.0605-.1209-.1814-.3024-.3024-.4838-.121-.1815-.1814-.3024-.3024-.4839-.0605-.121-.1815-.3024-.2419-.4234-.0605-.1209-.121-.1814-.1815-.2419h.1815.1814.1815.1814c.1815.3024.3629.6653.4839.9677.1814.3024.3629.6049.5443.9678.0605-.121.1815-.3024.242-.4234.1209-.1815.1814-.3024.3024-.4839.121-.1814.1814-.3629.2419-.4839.0605-.1814.1815-.3024.242-.4838h.2419.2419c-.1814.2419-.3629.5443-.4838.7258-.121.2419-.242.4234-.3629.6048-.121.1815-.1815.3629-.3025.4839-.0604.121-.1814.2419-.1814.3629v.4234.4838.4234.3025c-.0605 0-.1815 0-.242 0-.1209 0-.1814 0-.3024 0 0-.1815.0605-.4234.0605-.7259 0-.3024 0-.5443 0-.8467-.0605 0-.121-.121-.1814-.242zm3.0242.121h.3024.3024.3024.3024l-.6048-1.3911zm2.4798 1.754c-.0605 0-.121 0-.121 0h-.3024c-.0605 0-.121 0-.121 0 0-.0604-.0604-.1814-.1209-.3024-.0605-.1209-.121-.2419-.121-.3629-.0605-.121-.121-.2419-.1814-.4234-.0605-.1209-.121-.2419-.1815-.3629-.121 0-.2419 0-.3629 0s-.2419 0-.3629 0-.2419 0-.3629 0-.2419 0-.3629 0c-.121.3024-.2419.5444-.3024.8468-.121.2419-.1815.4839-.242.6653-.0605 0-.1209 0-.1814 0s-.121 0-.1815 0c.3024-.6653.6049-1.2701.8468-1.9355.3024-.6653.5444-1.2701.8468-1.9354h.1209c.0605.2419.1815.4233.3025.7258.1209.2419.1814.4838.3024.7862.121.242.2419.4839.3024.7863.121.242.1815.4839.3024.7258.121.242.1815.4234.242.6049.1209-.0605.1814.0605.2419.1814zm.7258-3.1451c0-.242 0-.4839-.0605-.7258h.121.121.1209.121c0 .2419 0 .4838-.0605.7258v.7258 1.2097.9072h.7258c.2419 0 .4839 0 .7863-.0605v.1815.121c-.1815 0-.3629 0-.4839 0h-.9072c-.1815 0-.3629 0-.4839 0 0-.242 0-.4839.0605-.7259 0-.2419 0-.4838 0-.7258v-.9677c-.0605-.1815-.0605-.4234-.0605-.6653zm5.0202 2.3588v.5444h.2419.3024c.121 0 .242 0 .3629-.0605.121-.0605.1815-.121.3024-.1814.0605-.0605.121-.1815.1815-.3025.0605-.1209.0605-.2419.0605-.4233 0-.1815 0-.3025-.0605-.3629-.0605-.121-.121-.1815-.2419-.242-.121-.0605-.242-.1209-.3629-.1209-.121 0-.3025-.0605-.4839-.0605h-.242v.5443c-.0604.3024-.0604.4839-.0604.6653zm.6653-1.3911c.121 0 .2419-.0605.3629-.121.121-.0604.1814-.1209.2419-.2419s.121-.2419.121-.3629 0-.2419-.0605-.3629c-.0605-.0605-.121-.1814-.1814-.1814-.0605-.0605-.1815-.0605-.3025-.121-.1209 0-.2419 0-.3024 0-.121 0-.1814 0-.2419 0s-.121 0-.1815 0v.5443.5444.4234h.1815c.1209-.0605.2419-.0605.3629-.121zm-1.1492-.9677c0-.242 0-.4839-.0605-.7258h.3024.3024.3025.3024c.1814 0 .3024 0 .4234.0605.1209 0 .2419.0604.3629.1209.1209.0605.1814.121.2419.242.0605.1209.121.2419.121.3629 0 .3024-.0605.4838-.242.6653-.1814.1814-.4233.2419-.6653.3024.3024 0 .6049.121.7863.2419.1815.121.3024.3629.3024.6654 0 .1814-.0605.3629-.1209.5443-.0605.121-.1815.242-.3629.3629-.121.0605-.3025.121-.4234.1815-.1815.0605-.3024.0605-.4839.0605-.0605 0-.1815 0-.2419 0-.0605 0-.1815 0-.242 0h-.2419c-.0605 0-.1815 0-.2419 0 0-.242 0-.4839.0604-.7259 0-.2419 0-.4838 0-.7258v-.9677c-.1209-.1815-.1814-.4234-.1814-.6653zm6.7137.4234c-.0605-.242-.1814-.4234-.3024-.5444s-.3024-.2419-.4839-.3024c-.1814-.0605-.3629-.121-.6048-.121-.242 0-.4234.0605-.6049.121-.1814.0605-.3629.1814-.4838.3024-.121.121-.242.3024-.3025.5444-.0604.2419-.1209.4838-.1209.7863 0 .3024.0605.5443.1209.7862.0605.242.1815.4234.3025.5444.1209.121.3024.2419.4838.3024.1815.0605.3629.121.6049.121.2419 0 .4234-.0605.6048-.121.1815-.0605.3629-.1814.4839-.3024s.2419-.3024.3024-.5444c.0605-.2419.121-.4838.121-.7862 0-.3025-.0605-.5444-.121-.7863zm-3.3266-.0605c.121-.242.2419-.4839.4234-.6049.1814-.1814.4234-.3024.6653-.3629.2419-.0604.5444-.1209.8468-.1209s.6048.0605.8467.1209c.242.0605.4839.242.6654.3629.1814.1815.3024.3629.4234.6049.1209.2419.1814.5443.1814.8468 0 .3024-.0605.6048-.1814.8467-.121.242-.242.4234-.4234.6049-.1815.1814-.4234.3024-.6654.3629-.2419.0605-.5443.1209-.8467.1209s-.6049-.0604-.8468-.1209-.4839-.1815-.6653-.3629c-.1815-.1815-.3024-.3629-.4234-.6049-.121-.2419-.1815-.5443-.1815-.8467 0-.3025.0605-.6049.1815-.8468zm5.504.7258h.1815c.1209 0 .2419 0 .3629-.0605.1209 0 .2419-.0605.3629-.121.1209-.0605.1814-.1814.2419-.2419.0605-.121.121-.2419.121-.4234 0-.121 0-.2419-.0605-.3629s-.121-.1814-.1815-.2419c-.0604-.0605-.1814-.121-.3024-.121-.1209 0-.1814-.0605-.3024-.0605s-.2419 0-.3024 0-.1815 0-.2419 0v.6049.6048.3024c0 .121.0604.121.1209.121zm-.6048-1.0887c0-.242 0-.4839 0-.7258h.3024.3024.3024.3025c.1814 0 .3024 0 .4233.0605.121 0 .242.0604.3629.1209.121.0605.1815.1815.242.242.0605.1209.121.2419.121.4233 0 .1815-.0605.3025-.121.4839-.0605.121-.1815.2419-.3024.3024-.121.0605-.242.121-.3629.1815-.121.0605-.242.0605-.3629.121.0604.0604.1209.1209.1814.2419s.1815.1814.2419.3024c.121.121.1815.2419.3025.3629.1209.121.1814.2419.3024.3629s.1814.2419.3024.3024c.0605.121.1815.1815.1815.242-.0605 0-.121 0-.1815 0h-.3024c-.0605 0-.121 0-.1815 0-.0604-.0605-.1209-.1815-.2419-.3629-.121-.1815-.2419-.3025-.3629-.4839-.121-.1815-.3024-.3629-.4234-.5444-.121-.1814-.3024-.3024-.3629-.4233h-.1814v.4233.7258.7259c-.0605 0-.1815 0-.242 0-.1209 0-.1814 0-.3024 0 0-.242 0-.4839 0-.7259 0-.2419 0-.4838 0-.7258v-.9677c.0605-.1815.0605-.4234.0605-.6653zm6.6532.4234c-.0605-.242-.1814-.4234-.3024-.5444s-.3024-.2419-.4839-.3024c-.1814-.0605-.3629-.121-.6048-.121-.242 0-.4234.0605-.6049.121-.1814.0605-.3629.1814-.4838.3024-.121.121-.242.3024-.3024.5444-.0605.2419-.121.4838-.121.7863 0 .3024.0605.5443.121.7862.0604.242.1814.4234.3024.5444.1209.121.3024.2419.4838.3024.1815.0605.3629.121.6049.121.2419 0 .4234-.0605.6048-.121.1815-.0605.3629-.1814.4839-.3024s.2419-.3024.3024-.5444c.0605-.2419.121-.4838.121-.7862 0-.3025 0-.5444-.121-.7863zm-3.3266-.0605c.121-.242.2419-.4839.4234-.6049.1814-.1814.4234-.3024.6653-.3629.2419-.0604.5444-.1209.8468-.1209s.6048.0605.8468.1209c.2419.0605.4838.242.6653.3629.1814.1815.3024.3629.4234.6049.1209.2419.1814.5443.1814.8468 0 .3024-.0605.6048-.1814.8467-.121.242-.242.4234-.4234.6049-.1815.1814-.4234.3024-.6653.3629-.242.0605-.5444.1209-.8468.1209s-.6049-.0604-.8468-.1209-.4839-.1815-.6653-.3629c-.1815-.1815-.3024-.3629-.4234-.6049-.121-.2419-.1815-.5443-.1815-.8467.0605-.3025.0605-.6049.1815-.8468zm7.8024-.4839c0-.3024 0-.4839 0-.6048h.121.1209.1815c0 .1209 0 .3024-.0605.4838v.6049.6048.6049c0 .2419-.0605.4838-.121.6653-.0604.1814-.1814.3629-.3024.4838-.1209.121-.3024.242-.4838.3025-.1815.0605-.4234.1209-.6654.1209-.5443 0-.9677-.1209-1.2096-.3629-.242-.2419-.3629-.6653-.3629-1.2096 0-.1815 0-.3025 0-.4839 0-.121 0-.3024 0-.4234 0-.3024 0-.6048 0-.8468 0-.2419 0-.4234 0-.6048h.1209.121.121.1209v.3024.4234.5443.6049.3629c0 .121 0 .2419.0605.4234 0 .1209.0605.2419.121.3629.0605.1209.1209.2419.2419.3024s.1815.1814.3629.1814c.121.0605.3024.0605.5444.0605.1814 0 .3629 0 .4838-.0605.121-.0604.242-.1209.3629-.2419.0605-.121.1815-.1814.1815-.3024.0605-.121.0605-.2419.121-.4234 0-.121.0604-.3024.0604-.4234 0-.1209 0-.2419 0-.3629-.2419-.3629-.2419-.7863-.2419-1.0887zm4.4758-.121c-.0605-.0604-.1814-.1209-.3024-.1814s-.2419-.0605-.3629-.121-.2419-.0605-.4234-.0605c-.2419 0-.4234.0605-.6653.121-.1815.0605-.3629.1815-.5444.3024-.1209.121-.2419.3024-.3629.5444-.0605.2419-.1209.4838-.1209.7863 0 .2419.0604.5443.1209.7258.0605.2419.1815.4234.3025.5443.1209.121.3024.242.5443.3629.1815.0605.4234.121.7258.121h.2419c.0605 0 .1815 0 .242-.0605.0605 0 .1814-.0605.2419-.0605s.121-.0605.1815-.0605c0-.1209 0-.2419 0-.3629 0-.1209 0-.2419 0-.3629 0-.1209 0-.2419 0-.3629 0-.1209 0-.2419 0-.3629h.2419.121.1209v.4234.7258.242.2419c-.0604 0-.1814.0605-.3024.121-.1209.0605-.2419.0605-.3629.0605s-.2419.0604-.4234.0604c-.1209 0-.2419 0-.3629 0-.3024 0-.6048-.0604-.9072-.1209-.242-.0605-.4839-.1815-.6654-.3629-.1814-.1815-.3024-.3629-.4233-.6049-.121-.2419-.121-.5443-.121-.8467 0-.3025.0605-.6049.1814-.8468.121-.242.242-.4839.4234-.6049.1815-.1814.4234-.3024.6654-.3629.2419-.0604.5443-.1209.9072-.1209.1815 0 .3629 0 .4839.0605.1209 0 .3024.0604.3629.0604.121.0605.1814.0605.3024.121.0605.0605.1815.0605.2419.121-.0604.0605-.0604.1209-.0604.1814s-.0605.1815-.0605.242h-.0605c.0605-.121 0-.1815-.121-.3025zm4.2339.242c0-.242 0-.4839-.0605-.7258h.121.1209.121.121c0 .2419 0 .4838-.0605.7258v.7258.9677.7258c0 .242 0 .4839.0605.7258-.0605 0-.1815 0-.242 0-.1209 0-.1814 0-.2419 0 0-.2419 0-.4838.0605-.7258 0-.2419 0-.4838 0-.7258v-.4838c-.1815 0-.3629 0-.6048 0-.1815 0-.363 0-.6049 0-.1814 0-.4234 0-.6048 0-.1815 0-.3629 0-.6049 0v.4838.7258c0 .242 0 .4839.0605.7258-.0605 0-.1814 0-.2419 0-.121 0-.1815 0-.3024 0 0-.2419 0-.4838.0605-.7258 0-.2419 0-.4838 0-.7258v-.9677c0-.242 0-.4839 0-.7258 0-.242 0-.4839-.0605-.7258h.1209.121.121.1209c0 .2419 0 .4838-.0604.7258v.7258.1814h.6048.6048.6049.6048v-.1814c.0605-.242.0605-.4839.0605-.7258zm6.5322.4234c-.0604-.242-.1814-.4234-.3024-.5444-.1209-.121-.3024-.2419-.4838-.3024-.1815-.0605-.3629-.121-.6049-.121-.2419 0-.4234.0605-.6048.121-.1815.0605-.3629.1814-.4839.3024s-.2419.3024-.3024.5444c-.0605.2419-.121.4838-.121.7863 0 .3024.0605.5443.121.7862.0605.242.1814.4234.3024.5444s.3024.2419.4839.3024c.1814.0605.3629.121.6048.121.242 0 .4234-.0605.6049-.121.1814-.0605.3629-.1814.4838-.3024.121-.121.242-.3024.3024-.5444.0605-.2419.121-.4838.121-.7862 0-.3025-.0605-.5444-.121-.7863zm-3.387-.0605c.1209-.242.2419-.4839.4233-.6049.1815-.1814.4234-.3024.6654-.3629.2419-.0604.5443-.1209.8467-.1209.3025 0 .6049.0605.8468.1209.2419.0605.4839.242.6653.3629.1815.1815.3025.3629.4234.6049.121.2419.1815.5443.1815.8468 0 .3024-.0605.6048-.1815.8467-.1209.242-.2419.4234-.4234.6049-.1814.1814-.4234.3024-.6653.3629s-.5443.1209-.8468.1209c-.3024 0-.6048-.0604-.8467-.1209-.242-.0605-.4839-.1815-.6654-.3629-.1814-.1815-.3024-.3629-.4233-.6049-.121-.2419-.1815-.5443-.1815-.8467.0605-.3025.121-.6049.1815-.8468zm4.8991-.3629c0-.242 0-.4839-.0604-.7258h.4838.4839.4839.5443v.1814.1815c-.1209 0-.2419 0-.3629 0-.1209 0-.3024 0-.4234 0-.1209 0-.3024 0-.4233 0-.121 0-.242 0-.363 0v.3629.3629.3629.3629h.7259c.2419 0 .4838 0 .7258-.0605v.1815.1814c-.121 0-.1815 0-.3025 0-.1209 0-.2419 0-.3629 0-.1209 0-.2419 0-.3629 0h-.3629v.4839.7258c0 .2419 0 .4839.0605.7258-.0605 0-.1814 0-.3024 0s-.1815 0-.2419 0c0-.2419 0-.4839.0604-.7258 0-.242 0-.4839 0-.7258v-.9678c0-.4234 0-.6653 0-.9072zm-43.4274-3.5081c-12.5806 0-23.83062-.6048-28.427394-3.5081 5.080644 3.2057 19.112894 2.7823 33.689494 2.7218h9.8589c15.4234.0605 28.9113.4234 33.9314-2.9637-5.1411 3.5081-18.4475 3.75-33.9314 3.6895-3.2661 0-6.5927 0-9.8589 0-1.754.0605-3.508.0605-5.2621.0605zm20.625 31.9355c12.5807 0 23.8307.6048 28.4274 3.5081-5.0806-3.2057-19.1129-2.7823-33.6895-2.7218-3.2661 0-6.6532 0-9.8588 0-15.4234-.0605-28.91133-.4234-33.931494 2.9637 5.141134-3.5081 18.447594-3.75 33.931494-3.6895h9.8588c1.8145-.0605 3.5686-.0605 5.2621-.0605zm-44.93949-14.5766c0-.6049.06048-1.2097.06048-1.875v-2.4799c0-.6048 0-1.2701-.06048-1.875 0-.6048-.06048-1.2096-.06048-1.875.12096 0 .24193.0605.3629.0605h.3629.36291c.12096 0 .24193-.0605.3629-.0605 0 .6049-.06049 1.2702-.06049 1.875 0 .6049-.06048 1.2097-.06048 1.875v.7863c0 .0605 0 .121.06048.121.06049 0 .12097-.0605.18146-.121.30242-.3024.66532-.6048 1.02822-.9677.36291-.3629.72581-.7258 1.08871-1.1492.36291-.3629.72581-.7863 1.08871-1.2097.36291-.4234.72585-.7863 1.02825-1.1492.1209 0 .1814.0605.3024.0605h.3024.3629c.121 0 .242-.0605.3629-.0605-.3629.3024-.7258.6049-1.1492 1.0283-.4234.3629-.84675.7862-1.27013 1.2096-.42339.4234-.84678.7863-1.20968 1.2097s-.72581.7258-.96774 1.0282c.78629.8468 1.57258 1.7541 2.35887 2.6613.78628.9073 1.57258 1.8145 2.41938 2.7218-.121 0-.3024 0-.4234 0h-.8468c-.121 0-.2419 0-.3629 0-.3629-.3629-.7258-.8468-1.14918-1.3306-.42339-.4839-.84678-.9678-1.20968-1.4517-.42339-.4838-.72581-.9072-1.08871-1.2701-.30242-.3629-.54436-.6653-.72581-.7863-.06048-.0605-.12097-.121-.18145-.121s-.06048 0-.06048.0605v1.2702c0 .6048 0 1.2701.06048 1.875 0 .6048.06048 1.2096.06048 1.8145-.24193 0-.42338 0-.7258 0-.24194 0-.48387 0-.72581 0 .06049-.6653.12097-1.2702.12097-1.875zm8.70969-6.1089c0-.6048-.0605-1.2097-.0605-1.875.121 0 .2419.0605.3629.0605h.3629.3629c.121 0 .2419-.0605.3629-.0605 0 .6048-.0605 1.2702-.0605 1.875s-.0605 1.2097-.0605 1.875v2.4798c0 .6049 0 1.2702.0605 1.875 0 .6049.0605 1.2097.0605 1.8146-.2419 0-.4234 0-.7258 0-.2419 0-.4839 0-.7258 0 0-.6049.0605-1.2097.0605-1.8146 0-.6048.0605-1.2096.0605-1.875v-2.4798c0-.6653 0-1.2702-.0605-1.875zm8.5887 4.2339c-1.2097-1.3307-2.4798-2.6613-3.6895-3.9315v1.0887 1.8146.7258.9072.9678.9072.7258.4234c-.1815 0-.3024 0-.4839 0-.1814 0-.3629 0-.5443 0 0-.121.0604-.2419.0604-.5443 0-.242.0605-.5444.0605-.9073s.0605-.7258.0605-1.1492.0605-.8468.0605-1.2702c0-.4233 0-.8467.0605-1.2096 0-.4234 0-.7863 0-1.0887 0-.9073 0-1.6936 0-2.3589s0-1.1492-.0605-1.4516h.2419c.6049.6048 1.2097 1.3306 1.875 1.9959.6653.7258 1.3307 1.4517 1.996 2.117.6653.7258 1.2702 1.3306 1.875 1.9959.6048.6049 1.0887 1.1492 1.5121 1.5726v-1.9355c0-1.0282 0-1.9959 0-2.9032 0-.9677-.0605-1.8145-.121-2.6613.1815.0605.3629.0605.4839.0605s.2419 0 .4839-.0605c0 .1815-.0605.5444-.0605.9678s-.0605.8467-.0605 1.3306-.0605.9678-.0605 1.3911v1.0887.8468 1.0282 1.0888 1.0282.7863.4838h-.1814c-1.1492-1.2701-2.2984-2.5403-3.5081-3.8709zm14.2137-4.8992c-.2419-.1815-.4234-.3024-.7258-.4234-.2419-.121-.5444-.2419-.8468-.3024s-.6653-.121-1.0282-.121c-.6048 0-1.1492.0605-1.6331.2419-.4838.1815-.9677.4839-1.3306.8468s-.6653.8468-.9073 1.4516c-.2419.6049-.3024 1.2702-.3024 2.0565 0 .6653.121 1.3306.3024 1.875.1815.5443.4839 1.0282.8468 1.3911s.7863.6653 1.3307.9073c.5443.1814 1.1491.3024 1.8145.3024h.6048c.2419 0 .4234-.0605.6653-.0605.1815-.0605.4234-.0605.5444-.121.1814-.0604.3024-.1209.4234-.1814 0-.3024 0-.5444 0-.8468s0-.6048 0-.8468c0-.3024 0-.6653 0-1.0282s-.0605-.6653-.0605-.9677c.2419.0605.4839.0605.6653.0605h.3024c.121 0 .1815 0 .3024-.0605 0 .2419-.0604.5443-.0604 1.0282v1.875.6048.6049c-.1815.0605-.4234.1814-.7258.2419-.3025.0605-.6049.121-.9678.1815-.3629.0604-.6653.1209-1.0282.1209-.3629.0605-.6653.0605-.9073.0605-.8467 0-1.633-.121-2.2984-.3024-.6653-.1815-1.2701-.5444-1.754-.9677-.4839-.4234-.8468-.9678-1.0887-1.5726-.2419-.6653-.3629-1.3912-.3629-2.2379 0-.7863.121-1.5121.4234-2.1774.2419-.6049.6653-1.1492 1.1492-1.6331.4839-.4234 1.0887-.7863 1.754-1.0282.6653-.242 1.4516-.3629 2.2984-.3629.4839 0 .9073 0 1.2702.0604.3629.0605.7258.121 1.0282.1815s.5443.1814.7863.2419c.2419.121.4234.1815.6048.242-.0605.1209-.121.3024-.1814.5443-.0605.1815-.121.4234-.121.6049h-.1815c-.2419-.121-.4233-.3025-.6048-.4839zm3.4476 7.2581c.121.1814.3024.3629.4839.4838.1814.121.4233.242.6653.3629.2419.0605.5443.121.8468.121.3024 0 .6048-.0605.8467-.1815.242-.1209.4839-.2419.6654-.4233.1814-.1815.3024-.4234.4233-.6654.121-.2419.121-.5443.121-.7863 0-.4233-.121-.7862-.3629-1.0282-.2419-.2419-.4839-.4839-.8468-.6653-.3629-.1815-.6653-.3024-1.0887-.4839-.3629-.1209-.7258-.3024-1.0887-.5443-.3629-.242-.6048-.4839-.8468-.8468-.2419-.3629-.3629-.7863-.3629-1.3307 0-.4233.0605-.7862.242-1.0887.1209-.3024.3629-.6048.6048-.8467.2419-.242.6048-.4234.9678-.5444.3629-.121.7862-.1814 1.2701-.1814s.8468.0604 1.2097.1814c.3024.121.6653.3024.9072.4839-.0604.1814-.1814.3629-.2419.5443-.0605.1815-.121.4234-.1814.6654h-.1815c-.0605-.121-.121-.3025-.1814-.4234-.0605-.1815-.1815-.3025-.3025-.4234-.1209-.121-.3024-.242-.4838-.3629-.1815-.121-.4234-.121-.6654-.121-.2419 0-.4838.0605-.7258.121-.2419.0605-.4234.1814-.6048.3629-.1815.1814-.3024.3629-.3629.5443-.0605.242-.121.4839-.121.7258 0 .4234.121.7863.3629 1.0283.242.2419.4839.4838.8468.6653.3024.1814.6653.3024 1.0887.4839.3629.1209.7258.3024 1.0887.4838.3629.1815.6049.4839.8468.7863s.3629.7258.3629 1.2702c0 .4234-.0605.8468-.2419 1.2701-.1815.3629-.3629.7259-.6654 1.0283-.3024.3024-.6653.4838-1.0887.6653-.4234.1814-.9072.2419-1.4516.2419-.6048 0-1.0887-.0605-1.4516-.2419-.3629-.1815-.6653-.3629-.9073-.5444.0605-.2419.121-.4233.1815-.6048s.0605-.4234.121-.6653h.1814c-.1209.1209 0 .3024.121.4839zm9.0726-7.742c-.242 0-.4839 0-.7863 0-.242 0-.5444 0-.7863 0s-.5444.0605-.7863.0605-.4839.0605-.6653.0605c.0605-.1815.0605-.3024.0605-.4839 0-.121 0-.2419-.0605-.4234.6048 0 1.2701.0605 1.8145.0605h1.8145 1.8145c.6049 0 1.2097-.0605 1.8145-.0605-.0604.1815-.0604.3629-.0604.4839s0 .2419.0604.4234c-.1814 0-.4233-.0605-.6653-.0605-.2419 0-.5443-.0605-.7863-.0605-.2419 0-.5443 0-.7863 0-.2419 0-.5443 0-.7863 0 0 .9678-.0604 1.9355-.0604 2.9637v2.4799c0 .6048 0 1.2701.0604 1.875 0 .6048.0605 1.2096.0605 1.8145-.2419 0-.4234 0-.7258 0-.2419 0-.4838 0-.7258 0 0-.6049.0605-1.2097.0605-1.8145 0-.6049.0605-1.2097.0605-1.875v-2.4799c.121-.9677.0605-1.9355.0605-2.9637zm13.6693 2.1774c-.1814-.6048-.4838-1.0282-.8467-1.4516-.363-.3629-.7863-.6653-1.2702-.8468-.4839-.1814-1.0282-.2419-1.5726-.2419-.5443 0-1.0887.0605-1.5726.2419-.4838.1815-.9072.4839-1.2701.8468s-.6654.8468-.8468 1.4516c-.1815.6049-.3024 1.2702-.3024 2.0565s.1209 1.4516.3024 2.0564c.1814.6049.4839 1.0283.8468 1.4517.3629.3629.7863.6653 1.2701.8467.4839.1815.9678.242 1.5726.242.5444 0 1.0887-.0605 1.5726-.242.4839-.1814.9072-.4838 1.2702-.8467.3629-.363.6653-.8468.8467-1.4517.1815-.6048.3024-1.2701.3024-2.0564 0-.8468-.1209-1.5121-.3024-2.0565zm-8.6492-.1209c.242-.6049.6049-1.1492 1.0887-1.6331.4839-.4234 1.0283-.7863 1.6936-1.0282.6653-.242 1.3911-.3629 2.1774-.3629s1.5121.1209 2.1774.3629c.6654.2419 1.2097.5443 1.6936 1.0282.4838.4234.8468.9677 1.0887 1.6331.2419.6048.3629 1.3306.3629 2.1774 0 .7863-.121 1.5121-.3629 2.1774-.2419.6048-.6049 1.1492-1.0887 1.6331-.4839.4234-1.0282.7863-1.6936.9677-.6653.2419-1.3911.3024-2.1774.3024s-1.5121-.1209-2.1774-.3024c-.6653-.2419-1.2097-.5443-1.6936-.9677-.4838-.4234-.8467-.9678-1.0887-1.6331-.2419-.6048-.3629-1.3306-.3629-2.1774s.121-1.5726.3629-2.1774zm16.875 3.3266c-1.2096-1.3307-2.4798-2.6613-3.6895-3.9315v1.0887 1.8146.7258.9072.9678.9072.7258.4234c-.1814 0-.3024 0-.4839 0-.1814 0-.3629 0-.5443 0 0-.121.0605-.2419.0605-.5443 0-.242.0605-.5444.0605-.9073s.0604-.7258.0604-1.1492.0605-.8468.0605-1.2702c0-.4233 0-.8467.0605-1.2096 0-.4234 0-.7863 0-1.0887 0-.9073 0-1.6936 0-2.3589s0-1.1492-.0605-1.4516h.242c.6048.6048 1.2096 1.3306 1.875 1.9959.6653.7258 1.3306 1.4517 1.9959 2.117.6654.7258 1.2702 1.3306 1.875 1.9959.6049.6049 1.0887 1.1492 1.5121 1.5726v-1.9355c0-1.0282 0-1.9959 0-2.9032 0-.9677-.0605-1.8145-.1209-2.6613.1814.0605.3629.0605.4838.0605.121 0 .242 0 .4839-.0605 0 .1815-.0605.5444-.0605.9678s-.0605.8467-.0605 1.3306-.0605.9678-.0605 1.3911v1.0887.8468 1.0282 1.0888 1.0282.7863.4838h-.1814c-1.1492-1.2701-2.2984-2.5403-3.5081-3.8709zm-60.7258 7.6209c0-.5443 0-.9072-.0605-1.0887.0605 0 .121 0 .242.0605h.1814c.0605 0 .1815 0 .3024-.0605 0 .242-.0604.5444-.0604.8468s-.0605.6653-.0605 1.0282 0 .7863-.0605 1.1492v1.1492c0 .4839-.0605.8468-.1815 1.2097-.1209.3629-.3024.6653-.54431.9073-.24194.2419-.54436.4233-.90726.5443s-.78629.1815-1.20968.1815c-1.02822 0-1.75403-.242-2.2379-.6654-.48387-.4233-.66532-1.2096-.66532-2.1774 0-.3024 0-.6048 0-.8468 0-.2419 0-.4838 0-.7862 0-.5444 0-1.0887 0-1.5121s0-.7863-.06049-1.0887c.06049 0 .18145 0 .24194.0604h.24193.24194c.06048 0 .12097 0 .24193-.0604 0 .1209 0 .3629-.06048.6048 0 .2419 0 .4839-.06048.8468 0 .3024 0 .6048-.06049.9677v1.0887.7258c0 .242.06049.4839.06049.7258.06048.242.12096.4839.18145.6653.12097.242.24193.4234.3629.5444.18145.1815.3629.3024.66532.3629.24194.121.60484.121.96775.121.3629 0 .66532-.0605.96774-.1815.24193-.1209.48387-.2419.60484-.4233.18145-.1815.30242-.363.3629-.6049.12097-.2419.18145-.4839.18145-.7258.06049-.2419.06048-.4839.06048-.7258s0-.4839 0-.6653c.12095-.9678.12095-1.6936.12095-2.1775zm4.1734 2.3589c.1815 0 .4234 0 .6653-.0605.242-.0604.4234-.1209.6049-.2419.1814-.121.3629-.3024.4838-.5444.121-.2419.1815-.4838.1815-.8467 0-.3024-.0605-.5444-.121-.7258-.0605-.1815-.1814-.3025-.3629-.4234-.1209-.121-.3024-.1815-.5443-.1815-.1815-.0605-.4234-.0605-.7258-.0605h-.9073v3.0242c.2419.0605.4839.0605.7258.0605zm-1.5726-2.1774c0-.4234-.0605-.8468-.0605-1.3306.1815 0 .3025 0 .4839.0604h.4839.3024.3629.3629.3024.3629c.121 0 .3025 0 .4839.0605.1815.0605.3024.0605.4839.1815.1814.0605.3024.1814.4234.3024.1209.121.2419.3024.3024.4839.0605.1814.121.4234.121.7258 0 .4234-.121.7863-.3025 1.0887-.1814.3024-.4234.4838-.7258.6653s-.6048.2419-.9072.3024c-.3025.0605-.6049.0605-.8468.0605-.1815 0-.3024 0-.4234 0s-.2419 0-.4234 0v.5444 1.3306c0 .4234.0605.8468.0605 1.2702-.1814 0-.3024 0-.4839 0-.1814 0-.3629 0-.4838 0 0-.4234.0604-.8468.0604-1.2702s0-.8468 0-1.3306v-1.7541c.0605-.4838.0605-.9072.0605-1.3911zm11.492.7863c-.121-.4234-.3629-.7258-.6049-1.0282-.2419-.242-.5443-.4839-.9072-.6049-.3629-.1209-.7258-.1814-1.0887-.1814s-.7863.0605-1.0888.1814c-.3629.121-.6653.3024-.9072.6049-.2419.2419-.4234.6048-.6048 1.0282-.121.4234-.242.9072-.242 1.4516s.0605 1.0282.242 1.4516c.1209.4234.3629.7258.6048 1.0283.2419.2419.5443.4838.9072.6048.363.1209.7259.1814 1.0888.1814.4233 0 .7862-.0605 1.0887-.1814.3629-.121.6653-.3024.9072-.6048.242-.242.4234-.6049.6049-1.0283.1209-.4234.2419-.9072.2419-1.4516-.0605-.6048-.121-1.0887-.2419-1.4516zm-6.1089-.121c.1814-.4234.4234-.8468.7863-1.1492s.7258-.5443 1.2097-.7258c.4838-.1814.9677-.2419 1.5121-.2419.5443 0 1.0887.0605 1.5725.2419.4839.1815.8468.4234 1.2097.7258s.6049.6653.7863 1.1492c.1815.4234.3024.9678.3024 1.5121 0 .6049-.1209 1.0887-.3024 1.5121-.1814.4234-.4234.8468-.7863 1.1492s-.7258.5444-1.2097.7258c-.4838.1815-.9677.2419-1.5725.2419-.5444 0-1.0888-.0604-1.5121-.2419-.4839-.1814-.8468-.3629-1.2097-.7258-.3629-.3024-.6049-.6653-.7863-1.1492-.1815-.4234-.3024-.9677-.3024-1.5121 0-.5443.1209-1.0282.3024-1.5121zm11.9758 2.4194c-.9073-.9678-1.754-1.875-2.6613-2.8428v.7863 1.3307.5443.6653.7258.6654.5443.3024c-.121 0-.2419 0-.3629 0s-.2419 0-.3629 0c0-.0604 0-.1814.0605-.3629 0-.1814.0605-.4233.0605-.6653 0-.2419 0-.5443.0605-.8467 0-.3025.0604-.6049.0604-.9073s0-.6049 0-.8468c0-.3024 0-.5443 0-.7863 0-.6653 0-1.2096 0-1.6935s0-.8468 0-1.0282h.1815c.4234.4233.8468.9072 1.3306 1.4516.4839.4838.9678 1.0282 1.3912 1.5121.4838.4838.9072.9677 1.3306 1.3911s.7863.8468 1.0887 1.1492v-1.3911c0-.7259 0-1.3912 0-2.0565s-.0605-1.3306-.0605-1.9355c.121.0605.242.0605.3629.0605.0605 0 .1815 0 .3025-.0605 0 .121 0 .3629-.0605.6653 0 .3025-.0605.6049-.0605.9678s-.0605.6653-.0605.9677v.7863.6049.7258.7862.7259.6048.3629h-.121c-.7863-1.0887-1.5725-1.996-2.4798-2.9032zm8.1048-3.871c-.1814 0-.3629 0-.5443 0-.1815 0-.3629 0-.6049 0-.1814 0-.3629 0-.5443.0605-.1815 0-.3629 0-.4839.0605.0605-.121.0605-.242.0605-.3024 0-.0605 0-.1815-.0605-.3025.4234 0 .9073 0 1.3307.0605h1.3306 1.3307c.4233 0 .8467 0 1.3306-.0605-.0605.121-.0605.242-.0605.3025 0 .0604 0 .1814.0605.3024-.121 0-.3024-.0605-.4839-.0605-.1814 0-.3629 0-.5443-.0605-.1815 0-.3629 0-.6049 0-.1814 0-.3629 0-.5443 0v2.1169 1.7541 1.3306c0 .4234.0605.8468.0605 1.2702-.1815 0-.3025 0-.4839 0-.1815 0-.3629 0-.4839 0 0-.4234.0605-.8468.0605-1.2702s0-.8468 0-1.3306v-1.7541c-.0605-.6653-.0605-1.3911-.121-2.1169zm9.375.7863c0-.4234-.0604-.8468-.0604-1.3306.0604 0 .1814 0 .2419.0604h.2419.242c.0604 0 .1814 0 .2419-.0604 0 .4233-.0605.9072-.0605 1.3306v1.3306 1.7541 1.3306c0 .4234.0605.8468.0605 1.2702-.1815 0-.3024 0-.4839 0-.1814 0-.3629 0-.4838 0 0-.4234.0604-.8468.0604-1.2702s0-.8468 0-1.3306v-.9073c-.3629 0-.7258 0-1.0887 0s-.7258 0-1.0887 0-.7258 0-1.0887 0-.7258 0-1.0887 0v.9073 1.3306c0 .4234.0605.8468.0605 1.2702-.1815 0-.3024 0-.4839 0-.1814 0-.3629 0-.4839 0 0-.4234.0605-.8468.0605-1.2702s0-.8468 0-1.3306v-1.7541c0-.4233 0-.9072 0-1.3306s-.0605-.8468-.0605-1.3306c.0605 0 .1815 0 .242.0604h.2419.242c.0604 0 .1814 0 .2419-.0604 0 .4233-.0605.9072-.0605 1.3306v1.3306.3629h1.0887 1.0887 1.0887 1.0887v-.3629c0-.4233 0-.8467 0-1.3306zm3.9315 2.5403h.5443.5444.5444.5443l-1.1492-2.6008zm4.5363 3.1452c-.121 0-.1815 0-.242 0h-.5443c-.0605 0-.1815 0-.2419 0-.0605-.1815-.121-.3629-.1815-.5444-.0605-.2419-.1814-.4234-.2419-.6653-.121-.2419-.1815-.4839-.3025-.7258-.1209-.2419-.1814-.4839-.3024-.7258-.2419 0-.4234 0-.6653 0s-.4234 0-.6653 0c-.1815 0-.4234 0-.6049 0-.1814 0-.4233 0-.6048 0-.2419.5443-.4234 1.0282-.6048 1.5121-.1815.4839-.3025.8468-.4234 1.2097-.121 0-.242 0-.3629 0-.121 0-.242 0-.3629 0 .5443-1.2097 1.0887-2.3589 1.633-3.5686.5444-1.1492 1.0283-2.3589 1.5726-3.5685h.1815c.1814.3629.3629.8467.5443 1.2701.1815.4234.3629.9073.6049 1.3912.1814.4838.3629.9072.6048 1.3911.1815.4839.3629.9072.5444 1.2702.1814.4233.3024.7258.4838 1.0887-.0605.3024.0605.5443.1815.6653zm3.2056-4.2944c.4839.9073.9678 1.8145 1.5121 2.7823.0605-.121.1815-.3024.3024-.5444.121-.2419.3025-.5443.4234-.8467.1815-.3025.3629-.6654.5444-1.0283.1814-.3629.3629-.7258.6048-1.0887.1815-.3629.4234-.7258.6049-1.0887.1814-.3629.3629-.6653.5443-1.0282h.121c.0605.6653.121 1.2701.1814 1.875.0605.6048.121 1.2097.1815 1.8145s.121 1.1492.1814 1.754c.0605.5444.121 1.1492.242 1.6936-.0605 0-.1815 0-.242 0h-.4838c-.0605 0-.1815 0-.242 0-.0605-.9073-.1209-1.7541-.2419-2.6008-.0605-.8468-.1815-1.6936-.3024-2.6008-.4839.8467-.9073 1.6935-1.3911 2.5403-.4234.8468-.9073 1.754-1.2702 2.6613h-.121c-.4234-.8468-.8468-1.6936-1.2701-2.5403-.4234-.8468-.9073-1.7541-1.3307-2.6008-.0605.4233-.121.8467-.1814 1.3911-.0605.4839-.121.9677-.1815 1.4516s-.0605.9073-.121 1.3307c-.0604.4233-.0604.7862-.0604 1.0282-.121 0-.242 0-.3629 0-.121 0-.242 0-.3629 0 .0604-.5444.1814-1.1492.3024-1.7541.1209-.6048.1814-1.2096.3024-1.8145.0605-.6048.1814-1.2097.2419-1.8145s.121-1.1492.1815-1.6935h.3024c.4234.8467.9073 1.8145 1.3911 2.7217zm6.9557-1.3911c0-.4234-.0605-.8468-.0605-1.3306.3024 0 .6048 0 .9072.0604h.9073.9073c.3024 0 .6048 0 .9072-.0604v.3024.3024c-.2419 0-.4234 0-.6048-.0605-.1815 0-.3629 0-.5444-.0605-.1814 0-.4234 0-.6653-.0605-.2419 0-.5443 0-.8468 0v.6049.6653.7863.5443h.7863.6653c.1815 0 .3629 0 .5444-.0604.1814 0 .3024 0 .4839-.0605 0 .1209-.0605.1814-.0605.3024s0 .1814.0605.3024c-.1815 0-.3629-.0605-.6049-.0605-.2419 0-.4838 0-.7258 0-.2419 0-.4838 0-.6653 0s-.3629 0-.4839 0v.1815.2419 1.0282.9678.5443h.7258.7863c.242 0 .4839 0 .7258-.0604.242 0 .4234-.0605.5444-.0605v.1814.1815c0 .1209 0 .1814.0605.2419-.3024 0-.6049 0-.9073 0h-1.875c-.3024 0-.6048 0-.9072 0 0-.4234.0604-.8468.0604-1.2702 0-.4233 0-.8467 0-1.3306v-1.754c-.1209-.3024-.1209-.7863-.1209-1.2097zm5.0806 4.7178c.0605.1209.1815.2419.3629.3628.121.121.3024.1815.4839.242.1814.0605.3629.1209.6048.1209.242 0 .4234-.0604.6049-.1209.1814-.0605.3024-.1815.4838-.3024.121-.121.242-.3025.3025-.4839.0604-.1815.1209-.3629.1209-.5444 0-.3024-.0605-.5443-.2419-.7258-.1815-.1814-.3629-.3629-.6048-.4838-.242-.121-.4839-.242-.7863-.3629-.3025-.121-.5444-.242-.7863-.363-.242-.1814-.4234-.3629-.6049-.6048-.1814-.2419-.2419-.5443-.2419-.9677 0-.3024.0605-.5444.1814-.7863.121-.242.242-.4234.4234-.6049.1815-.1814.4234-.3024.7258-.4233.242-.121.6049-.121.9073-.121s.6048.0605.8468.121c.2419.0604.4838.1814.6653.3629-.0605.1209-.121.2419-.1815.3629-.0604.1209-.0604.3024-.1209.4838h-.121c-.0605-.1209-.0605-.1814-.121-.3024-.0604-.121-.1209-.2419-.2419-.3024-.121-.121-.2419-.1815-.3629-.2419-.121-.0605-.3024-.121-.4839-.121-.1814 0-.3629.0605-.5443.121-.1815.0604-.3024.1209-.4234.2419s-.1815.2419-.3024.4234c-.0605.1814-.121.3024-.121.4839 0 .3024.0605.5443.2419.7258.1815.1814.3629.3629.6049.4838.2419.121.4838.242.7863.3629.3024.121.5443.242.7863.3629.2419.121.4233.3025.6048.5444s.2419.5443.2419.9072c0 .3025-.0605.6049-.1814.9073-.121.3024-.3024.5444-.4839.7258-.2419.1815-.4839.3629-.7863.4839-.3024.1209-.6653.1814-1.0282.1814-.4234 0-.7863-.0605-1.0282-.1814-.242-.121-.4839-.242-.6654-.3629.0605-.1815.121-.3024.121-.4234s.0605-.3024.0605-.4839h.121c.0605.0605.1209.1815.1814.3025zm-35.383-64.8388c-.0605 0-.0605 0-.121.0605-.242.0605-.4234.3629-.3024.6049.0604.2419.2419.3629.4838.3629h.1815c.0605 0 .0605 0 .121-.0605.2419-.0605.5443-.1815 1.0282-.3024l-.7258-.8468c-.3024.0605-.4839.121-.6653.1814zm1.512-.4233.7259.8467c.3629-.0605.7862-.1209 1.2096-.1814l-.7863-.9073c-.3629.0605-.7862.121-1.1492.242zm2.5404-.363c-.0605 0-.1815 0-.242 0l.8468 1.0283c.5444 0 1.0282.0605 1.5121.1209l-.9677-1.1492c-.4234 0-.7863 0-1.1492 0zm3.9919 1.6331c.2419.121.5444-.0605.6653-.3024.121-.2419-.0605-.5444-.3024-.6653-.0605 0-.7863-.242-1.875-.4839l1.0887 1.2702c.3024.1209.4234.1814.4234.1814zm16.0282 3.4476c-.0604.0605-.1209.121-.1209.2419-.1815.3024-.1815.242-.3629 0-.121-.2419-.3025-.4234-.4839-.6048-.3024-.3024-.4839-.6653-.4234-1.0887-.1814.3024-.2419.6048-.1814.9677.0604.3024.2419.6049.4233.8468.3025.4839.3025.5444-.1814.7863-.2419.121-.5444.1814-.8468.2419-.121 0-.121 0-.1814-.1209-.0605-.3025-.242-.6049-.4234-.8468-.121-.121-.121-.242 0-.3629.2419-.242.4234-.4839.6048-.7863.121-.242.3024-.3629.4839-.5444.4839-.4838.6048-1.0282.5443-1.6935 0-.121-.0604-.3024 0-.3024.0605 0 .1815.1814.1815.2419.1814.3629.3629.7863.6048 1.0887.121.121.1815.3024.3025.4234.3024.3024.3024 1.0282.0604 1.5121zm-3.1451 1.6331c-.1815 0-.3024.0604-.4839.0604-.4234 0-.9073.121-1.2702.3629-.0604.0605-.1814.121-.2419 0-.0605-.0604 0-.1814 0-.2419.121-.4234.4839-.6653.7863-.8468.3024-.1814.5443-.3024.8468-.4838.0605-.0605.1814-.0605.1814 0 .1815.3024.3024.6048.3024.9072.0605.1815 0 .242-.1209.242zm-1.7541 16.1491c.121 0 .121.0605.1815.1815 0 .2419 0 .4234-.121.6653-.0605.121-.0605.3024.0605.3629.3024.242.4234.6049.5444.9678.3024.7258 1.754 1.875 1.9959 2.1774.121.121.1815.4234.1815.6653 0 .3629-.242 1.2702-.3629 1.3911-.121.121-.242.242-.3629.3629-.121 0-.242-.0604-.3024-.0604-.242-.0605-.3629-.0605-.6049-.1815.0605-.0605.0605-.1814 0-.2419 0 .0605-.0605.1209-.121.1814h-.0604c0-.0605.0605-.1814-.0605-.2419 0 .0605 0 .121-.0605.1814h-.0605c0-.0604 0-.1814-.0605-.2419 0 .0605 0 .121-.0605.1815.0605-.121.0605-.242-.0604-.3025 0 .121-.0605.1815-.121.242 0 .0605-.0605.0605-.0605.0605h-.0605c0-.121 0-.1815-.0605-.3025 0 .121-.0604.1815-.1209.242-.0605 0-.0605.0605-.121.0605.0605-.121.121-.3025.121-.4234-.121.1209-.242.2419-.3629.2419-.0605 0-.1815.0605-.242.0605-.1814-.0605-.3024-.0605-.4234-.121.121-.1209.1815-.1814.242-.3024.1814-.3024.121-.7863-.0605-1.0282.0605.3629-.6048.8467-.6653.7863 0 0 .0605-.242.0605-.3025.0604-.3629-.121-.6653-.3629-.9677-.121.4234-.5444.6653-.6049 1.2097-.1814-.3024-.6048-.4839-.7258-.8468 0-.0605 0-.0605 0-.0605s-.3629.6653 0 1.3307l-.0605.0605c-.0605-.0605-.1209-.121-.1814-.121.0605-.121.0605-.242-.0605-.3024 0 .1209-.0605.1814-.121.2419h-.0605-.0604c.0604-.121.0604-.2419-.0605-.3629 0 .0605 0 .1814-.0605.2419-.0605-.0605-.121-.0605-.1815-.0605h-.0604c0-.0604 0-.1814-.0605-.2419 0 .121-.0605.1815-.121.2419-.0605 0-.121-.0604-.2419-.0604 0-.242 0-.4234.0605-.6654 0-.3024 0-.6653.1209-.9677.0605-.1815.0605-.3629.121-.4839 0-.0605 0-.1209 0-.1814.0605 0 .121 0 .1814-.0605.6049-.4234 1.2702-.4839 1.9355-.4234.242 0 .4234.0605.6049 0 .3024 0 .4838-.1814.4233-.4839-.1814-.7258-.0604-1.4516 0-2.1774 0-.1814.0605-.2419.242-.2419.1814.1209.3629.1209.5443.1209zm3.4476 8.6492c.121.242.0605.4839-.0605.6654-.1814.2419-.4233.3629-.7258.3024-.4234-.0605-.7863-.1815-1.2701-.1815-.4839 0-.9678.121-1.3912.242-.6653.1814-1.3306.4838-2.0564.5443-.8468.121-1.6936 0-2.5403-.3024-.6654-.2419-1.3307-.4234-1.996-.4839-.8468-.0605-1.6935.0605-2.4194.3629-1.4516.6049-2.9637.6049-4.4758.0605-.9072-.3024-1.875-.4839-2.8427-.3629-.4839.0605-.9073.1815-1.3911.3024-1.5121.5444-3.0242.6049-4.5968.0605-1.1492-.3629-2.3589-.5443-3.629-.2419-.5444.121-1.0283.3629-1.5726.4839-.9678.2419-1.875.2419-2.8428-.121-.4838-.1815-.9072-.3629-1.4516-.4839-.5443-.121-1.0282-.121-1.5726 0-.3629.0605-.7258 0-1.0887-.1814-.2419-.121-.3629-.4234-.3024-.6654.0605-.1209.121-.2419.2419-.1814.121 0 .121.121.0605.2419-.0605.121.0605.1815.1815.1815s.2419-.0605.3024-.0605c.9677-.3629 1.9355-.3024 2.9032.121.6049.2419 1.2097.4233 1.8145.5443.6654.121 1.3307 0 1.996-.2419.9678-.3629 1.9355-.5444 2.9637-.4839.6653.0605 1.3912.1815 1.996.4234.7863.3024 1.6331.4839 2.4798.3629.6049-.0605 1.1492-.2419 1.6936-.4234.7863-.3024 1.6935-.4234 2.5403-.3629.9677.0605 1.875.3629 2.8427.6048 1.0888.3025 2.1775.1815 3.2662-.1814 1.2096-.4234 2.4193-.5444 3.6895-.3024.6048.1209 1.2097.3629 1.8145.5443 1.0282.242 1.996.242 3.0242-.1814.5444-.242 1.1492-.3629 1.6935-.4839.3629-.0605.4839 0 .6654 0 .3629.0605.7258.1815 1.1492.2419h.3024c.1209 0 .2419-.0604.1814-.2419 0-.0605 0-.2419.121-.2419.2419-.0605.3024.0605.3024.1209zm-37.6209-3.9919c.1209-.3629.3024-.6048.6048-.8468.3024-.2419.5443-.4838.8468-.6653.3629-.3024.6653-.6048.8467-1.0282.121-.242.242-.4234.4234-.6049.121-.1209.1815-.3024.121-.4838-.0605-.242-.121-.4839-.121-.6653 0-.121 0-.242.1815-.1815.1814.0605.4234.121.6653.1815.0605 0 .121.0604.121.1209 0 .3024.0605.5444.1209.8468.0605.3024-.1209 1.0887-.1209 1.2097-.0605.5443.0605.6048.4838.6048.242 0 1.6331-.0605 1.996 0 .7863 0 .8468.5444 1.1492.4234 0 0 .0605 0 .0605.0605-.0605.7258 0 1.4516-.0605 2.1774 0 .121 0 .2419-.0605.4234h-.0605c-.0605-.0605-.0605-.121 0-.2419-.1209 0-.1209.1209-.1209.1814h-.0605-.0605s0 0 0-.0605-.0605-.121 0-.2419c-.121 0-.121.121-.121.2419v.0605c-.0605 0-.0605 0-.1209 0 0-.0605 0-.121 0-.1814-.121 0-.121.1209-.121.1814h-.0605c-.0605-.0605-.0605-.1815 0-.2419-.1814.0604-.1814.1814-.1814.3024 0 0-.0605 0-.121 0 .121-.242.1814-.4839.1814-.6653-.2419.1209-.4233.2419-.6653.3629-.2419.1209-.4234.3024-.6048.4838.0605-.8467.0605-.9677-.242-1.2701-.0604.3024-.3629.5443-.4838.7258-.121-.3024-.242-.6049-.4234-.9073-.121.3629-.4234.7258-.3629 1.2097-.242-.121-.4234-.2419-.6653-.3629 0 .3629.0604.6048.1209.7863h-.0605c0-.0605 0-.121 0-.1815-.1209 0-.1209.121-.1209.1815-.0605-.0605-.0605-.1815 0-.2419-.121.0604-.1815.1209-.1815.2419h-.0605-.0604c0-.0605 0-.121 0-.1815-.121 0-.121.121-.121.1815h-.0605c-.0605-.0605-.0605-.1815 0-.2419-.121.0604-.1814.1209-.1814.2419-.0605 0-.0605 0-.121 0-.0605-.0605-.0605-.1815 0-.2419-.121.0604-.1815.1209-.1815.2419 0 0 0 0-.0604 0 0-.0605 0-.1815 0-.2419-.121 0-.1815.1209-.1815.2419h-.0605c0-.0605 0-.1815 0-.2419-.121.0604-.1814.1209-.1814.2419 0 0 0 0-.0605 0-.0605-.0605-.0605-.1815-.0605-.2419-.0605 0-.0605.0604-.0605.1814-.3024.0605-.5443.1815-.7258.2419-.0605 0-.0605-.0604-.0605-.0604-.1814-.1815-.4234-.9073-.4838-1.3912-.0605-.2419-.0605-.4234 0-.6653zm4.4153-8.1048c.2419-.242.6048-.4234.9072-.5444.0605 0 .0605 0 .121-.0605.121-.0605.121-.0605.121-.2419 0-.121.3024-.4234.8467-.5444.0605 0 .0605-.0604 0-.0604-.0604-.0605-.1209-.0605-.0604-.1815.0604-.121.1814-.1814.3024-.121.1814.0605.3629.1815.4838.3025.4839.3629 1.0283.6048 1.6331.7862.1815.0605.3629.121.4839.3025l.0605.0604c.3629.1815.4234.5444.4838.9073.0605.4234.1815.8468.3025 1.2097.0604.121 0 .2419.0604.3629.121.5443.3629.7863.4839.8468.0605 0 .2419.0604.2419 0 .0605 0 .0605-.1815.0605-.121 0 0 .0605.121.121.121s.121 0 .121-.0605c.0605-.0605.0605-.0605.0605-.1815 0-.1209-.0605-.4838-.0605-.6048-.0605-.121-.0605-.2419-.0605-.3629 0-.0605 0-.121 0-.242.5443 1.875 1.5726 4.0525 3.2056 5.8065-.0605.2419-.2419.7258-.1814 1.0282-.3024-.3629-.6049-.4234-.9073-.6653.0605.1815.121.6048.3024.9073-.0604 0-.1209 0-.1209 0 0-.0605 0-.121 0-.1815-.121 0-.121.0605-.121.1815h-.0605c0-.0605-.0605-.121 0-.1815-.1209 0-.1209.121-.1209.1815 0 0 0 0-.0605 0 0-.0605 0-.0605 0-.121 0-.3024.0605-.6653.1814-.9678.121-.4838.1815-1.0282-.0605-1.512-.1209.0604-.1209.1814-.2419.1814-.0605 0-.121-.121-.2419-.2419-.0605.2419-.242.3629-.4234.4838-.0605.0605-.121.0605-.1815-.0604-.1209-.242-.1814-.4839-.1209-.7863 0-.0605 0-.121-.0605-.121s-.121.0605-.121.0605c-.1814.2419-.4839.4234-.6048.7258-.1815-.2419-.4839-.3024-.6654-.4839-.1209-.0605-.1814-.1209-.2419.0605-.0605.121-.1814.3024-.3024.3629-.0605.0605-.0605.0605-.121.121-.0605.1209-.1209.1209-.2419.1209-.2419 0-.121.3025 0 .4839l.121.121c0 .0605-.7863.0605-.8468.0605h-.0605c0-.121-.3629-.5444-.4839-.7258-.1209-.121-.4838-.4234-.6653-.4234-.2419-.3025-.6653-.3629-.9677-.3629-.3025 0-.6654.0604-.9678.0604-.1209 0-.3024-.0604-.4234-.1209-.2419-.121-.3024-.3024-.2419-.5444.0605-.4234.2419-.8467.3629-1.2096.2419-.8468.3629-1.6331.2419-2.4799-.0604-.1814-.0604-.3629-.0604-.5443 0-.121-.0605-.1815-.1815-.121-.0605.0605-.1815.0605-.2419 0-.1815-.121-.4234-.1815-.6049-.2419-.3629-.1815-.3629-.3025-.1814-.4234zm3.8105-5.3831s.0604-.0605.0604-.1814c0-.121 0-.5444 0-.7259 0-.1209-.0604-1.9354.0605-2.0564.0605-.0605.0605-.0605.0605-.0605s0 0 .0605-.1814c.0605-.3025.1814-.4234.5443-.6049.3025-.1814.7863-.1814 1.0283-.1209.1209 0 .3024.0604.4838.1209v7.2581c0 .4839.0605 1.2097.242 1.996-.0605-.1815-.1815-.4234-.1815-.4839s-.2419-.5444-.3024-.6049c-.0605-.1209-1.0887-.9677-1.0887-.9677-.0605-.0605-1.0887-1.0282-1.1492-1.0282 0 0-.0605-.0605 0-.121 0-.0605.1815-.1814.0605-.3629-.1815-.121-.1815-.1814-.1815-.3024s0-.3629 0-.4234.1815-.1815.242-.2419c.1209-.121.1814-.3629.1209-.3629-.1814.2419-.7258-.0605-.0604-.5444zm6.6532-6.3508c-.121-.9677-.7258-2.4194-.9678-2.9032.242-.0605.6654-.1815 1.0888-.3024.1814.6048.7258 2.1169.7862 2.7822.121.8468.121 2.4194.0605 2.8428h-.9072c0-.0605.0605-.0605 0-.121.0605-.242-.0605-1.996-.0605-2.2984zm.6048-5.0806c.4234-.1815 2.0565-.6654 4.0524-.6654h.1815v.0605c.1814.1815.3024.4234.3629.6653 0 .0605.0605.1815.0605.242-.4839 0-1.7541.0605-1.9355.1814-.0605.0605-.1815.121-.3629.3024-.0605.0605-.1815.1815-.2419.242-1.1492.0605-2.4799.3024-3.3871.4839.6653-.9073 1.1492-1.4517 1.2701-1.5121zm4.7783 1.3911v.121c0 .1209 0 .3024-.0605.4233v.0605c-.121.3629-.3629.6653-.6654.9073-.1209-.4839-.3024-1.0887-.3629-1.3307-.0604-.1209-.1209-.1814-.2419-.1209-.2419.1209-.4839.3629-.6653.6048-.0605.0605-.121.121-.1815.2419-.2419.4234 0 .6049.242.7258.3629.3025.8467.5444 1.2701.6654h.0605.0605.121c.4233 0 .7258-.3629.9072-.6049l.0605-.0605c.0605-.0604.121-.1209.121-.1814h.0605s.0604 0 .0604.0605.0605.1209.0605.1814.0605.121.0605.1815c.121.2419.2419.4839.4839.7258.0605.0605.3024.2419.4234.2419.0605 0 .0605 0 .0605-.0605 0 0 0-.0604 0-.1209 0-.1815-.0605-.4234-.121-.6654-.0605-.1814-.121-.4233-.242-.6048-.0604-.0605-.0604-.121-.1209-.1814-.0605-.0605-.3629-.7863-.3024-.6654.0604.121.1814.4234.4233.5444.121.0605.242.0605.363.0605h.1209c.121 0 .1815 0 .242-.0605.0604 0 .0604-.0605.0604-.0605 0-.0605 0-.0605-.0604-.0605-.0605 0-.242-.1814-.3025-.3024l-.0604-.0605c-.121-.1209-.3025-.3024-.4234-.5443-.0605-.121-.121-.3025-.1815-.4234-.121-.242-.1814-.5444-.2419-.8468 0 0 0 0 0-.0605 0 0 .1814.1815.2419.1815.3024.2419 1.0887.4234 1.5121.4234.1815.7862 0 1.875-.0605 2.4798-.1209.9073-.2419 2.4798-.1814 4.1129h-.4234c-.2419-.2419-.9678-.7863-2.6613-.9073-.0605 0-.1815 0-.2419 0-.9678 0-2.1775.3629-2.9638.8468 0-.6653 0-1.875-.1209-2.6008-.0605-.7258-.5444-2.1774-.7863-2.8427.7863-.121 1.4516-.1815 2.0564-.121.1815 0 .242-.121.6049-.4234.0605-.0605.1814-.121.1814-.1814.242 0 1.1492-.0605 1.7541-.121.1209.0605.1209.2419.0605.4234zm-2.9638 6.1089c.6654-.3025 1.5121-.4839 2.2379-.4839h.1815c1.0282.0605 1.6331.3024 1.9355.4839zm8.1654 4.2943c-.121.121-.1815.1815-.1815.3629-.2419 0-.4839-.1814-.5443-.3024-.0605-.0605 0-.121.1209-.121.242.1815.4234.121.6049.0605zm.1209-.6048c-.2419.0605-.7258.1814-.7863-.121.242-.0605.3629-.3024.6049-.3629 0 .1814.0605.3629.1814.4839zm-.8467-.8468c.2419-.1815.5443-.3024.7862-.3629.0605 0 .121.0605.0605.121-.1814.1209-.1814.2419-.1814.3629-.3629.0604-.4839.4233-.9073.4838.0605.4234.7258.4234 1.0887.3025.0605.0604 0 .2419-.0605.3024-.3024.0605-.3629.1209-.7862-.0605-.242-.0605-.3025.121-.242.2419.121.1815.3024.4839.7258.4839 0 .1814.0605.2419.1815.3629.0605.0605 0 .121-.0605.121-.2419-.0605-.6048-.1815-.8468-.3629-.4234-.3629-.6653-.5444-1.0887-.5444-.2419 0-.5443 0-.8468.121-.1209.0605-.0604.1814.1815.3629-.1815 0-.4839-.121-.5444-.121-.3024-.121-.1209-.1814 0-.1814-.1814.1209-.3629.1814-.3629.1814-.2419.121.6049.3629 1.0887.4839-.0604.0605-.0604.0605-.1209.1209-.121.0605-.242.121-.3629.0605-.4234-.1209-.7258-.2419-.7863-.3024-.242-.121-.6653-.0605-.8468-.0605-.6653.121-1.5726.121-1.5726.121-.3629 0-.4234.121-.4234.2419-.1209-.0605-.1209-.0605-.2419-.1814-.0605-.0605 0-.121.0605-.1815-.0605 0-.3024.0605-.4839.0605.121.121.4234.3024.6049.4234 0 .0605-.0605.1815-.0605.2419-.242-.1814-.6654-.4838-.9073-.5443-.1814 0-.4234 0-.6048 0h.0605c.4233.0605 1.0282.5443 1.3911.7258-.0605.1814-.242.2419-.3629.121-.3629-.3025-.9073-.6654-1.2702-.7259-1.4516-.1209-2.7218-.3024-3.0847-.3024-.4233 0-1.6935-.0605-1.6935-.0605-.3024 0-.5444-.1209-.6653-.2419-.121-.0605-.3024-.2419-.1815-.3629.0605-.0605.121-.0605.121-.0605h.0605c.0605 0 .8467.121.7863-.1209.1814.0604.7258.3024 1.1492.1814 0 0-.7863-.1814-1.1492-.3629-.3629-.121-.7863-.121-.9073-.121s-.121-.0604-.121-.1209c-.0604-.4839 2.6613-1.1492 4.5968-1.3912.6653-.1209 1.3307-.5443 1.875-.8467.2419-.121.5444-.1815.7863-.0605-.4839.1814-1.3306.6048-1.0887.7863h.4234c-.4234-.121.5443-.5444.9072-.6654.121.0605.242.0605.3629.121-.3629.1815-.7863.3629-.8467.4839-.0605.0605 0 .121.0604.121.242 0 .1815 0 .3025.0604-.3629-.1209.4838-.4838.6653-.5443.1814.0605.3024.121.4839.121-.1815.1209-.3025.1814-.5444.3024-.3024.1814-.0605.2419-.0605.2419.8468.121 1.5726.3024 2.117.4234.0604 0 .3629 0 .6048-.0605.1814-.0605.3629-.121.9073-.1814.1209 0 .1814.1209.1209.1814-.3024 0-.6653.1815-.9072.2419-.121 0-.242 0-.3629 0 .1814.0605.4234.1815.6048.242-.0605-.0605-.1814-.121.0605-.1815.0605 0 .3024-.0605.4839-.1209-.3025.1209-.242.3024-.121.3024.3629.1209.6048.1209.8468.1209.4838 0 .7258-.1209 1.1492-.5443zm2.2379-2.9032c.3629 0 .7863.0605 1.1492.1814.2419.0605.3629.3629.3629.6049.0604.3024 0 .6048 0 .9072-.0605.3629 0 .7258.0604 1.0282.0605.3025.0605.5444 0 .8468 0 .121 0 .1815.0605.242.121.1814.1815.3629.121.5443-.0605.121.0605.1815.1814.1815.1815 0 .1815.0604.1815.1814 0 .0605 0 .121-.0605.2419-.0605.242-.0605.4234 0 .6654.0605.2419.121.4234.121.7258.1209-.0605.1814-.121.2419-.121.0605.121 0 .1815-.0605.2419-.0605.0605-.1814.121-.2419.121-.1815.0605-.3024.121-.4839.2419-.4234.3629-.8468.6049-1.2701.9073 0 0-.4839.3629-.7863 1.0887-.0605.2419-.1815.4839-.242.7258.1815-.7863.242-1.5121.242-2.0564v-7.4395h-.0605c.1814-.0605.3024-.0605.4839-.0605zm-1.2097 11.5524v.0605c-.0605-.0605-.0605-.0605 0-.0605zm-10.2823 6.2903c.121.0605.1815.121.3024.1815-.1209 0-.2419 0-.3629 0 0 0 .0605-.121.0605-.1815zm7.8024-3.6895c-.0604.0605-.1209.121-.1209.2419-.1815 0-.3629-.1209-.3629-.1814s0-.121.0605-.0605c.1209.0605.2419 0 .4233 0zm.0605-.4234c-.1814.0605-.4838.121-.5443-.0605.1814-.0605.2419-.2419.4234-.2419 0 .0605 0 .1814.1209.3024zm1.1492-4.1734c-.1209.0605-.1814.1815-.1814.3024-.1815 0-.4234-.1814-.4839-.2419s0-.121.121-.121c.2419.1815.3629.121.5443.0605zm.121-.5443c-.1815.0604-.6048.1814-.6653-.121.2419-.0605.3024-.3024.5443-.3024-.0605.1814 0 .3024.121.4234zm-11.4919.3024c-.3025-.121-.6654-.0605-.7863-.0605-.121 0-.121-.0605-.121-.121-.0605-.4234 2.2984-.9677 3.9919-1.2096.5444-.0605 1.1492-.4839 1.6331-.7259.1814-.1209.4839-.1209.6653-.0604-.4234.1209-1.1492.5443-.9677.6653h.3629c-.3629-.121.4838-.4839.7863-.6049.1209.0605.2419.0605.3024.121-.3024.121-.6653.3024-.7258.4234-.0605.0605 0 .121.0605.121h.3024c-.3024-.121.4234-.4234.6048-.4839.1815.0605.242.0605.4234.121-.1814.0605-.2419.1209-.4234.2419-.2419.1815-.0605.1815-.0605.1815.7258.1209 1.3307.2419 1.875.3629.0605 0 .3025 0 .4839-.0605.121-.0605.3629-.121.7863-.1815.121 0 .1815.121.121.1815-.3024 0-.5444.1209-.7863.1814-.121 0-.242 0-.3024 0 .1209.0605.3629.1815.5443.1815-.0605-.0605-.121-.121.0605-.1815.0605 0 .3024-.0605.4234-.0605-.2419.121-.242.242-.121.3025.3024.0604.4839.1209.7258.1209.3629 0 .5444-.1209.9073-.4838.1814-.1815.4839-.242.6653-.3025.0605 0 .121.0605.0605.121-.121.121-.1815.2419-.1815.3629-.3024 0-.4233.3629-.7863.4234.0605.3629.6049.3629.9678.2419.0605.0605 0 .242-.0605.242-.2419.0605-.3629.1209-.7258-.0605-.1815-.0605-.2419.121-.1815.1814.121.121.242.4234.6654.4234 0 .121 0 .242.1814.3024.0605.0605 0 .121-.0605.121-.2419-.0605-.5443-.121-.7258-.3024-.3629-.3024-.6048-.4839-.9072-.4839-.1815 0-.4234 0-.7258.121-.0605 0-.0605.1814.1814.3024-.1814 0-.4234-.121-.4234-.121-.2419-.1209-.1209-.1209 0-.1814-.1814.0605-.3024.0605-.3024.0605-.2419.1209.5444.3629.9678.4234-.0605 0-.0605.0604-.0605.0604-.0605.0605-.1815.121-.3024.0605-.363-.1209-.6049-.2419-.6654-.2419-.1814-.0605-.6048-.0605-.7258-.0605-.5443.0605-1.3306.121-1.3306.121-.3024 0-.3629.0605-.3629.1814-.0605-.0605-.121-.0605-.1815-.1209-.0605-.0605 0-.121.0605-.121-.0605 0-.2419.0605-.4234.0605.121.1209.3629.2419.4839.3629 0 .0605 0 .1209-.0605.1814-.2419-.1209-.6048-.4234-.7863-.4838-.1814 0-.3629 0-.5443 0h.0604c.3629.0604.8468.4838 1.2097.6653-.0605.1814-.2419.2419-.3629.1209-.3024-.2419-.7863-.6048-1.0887-.6048-1.2097-.121-2.3589-.2419-2.6613-.3024-.3629 0-1.4516-.0605-1.4516-.0605-.2419 0-.4839-.121-.6048-.1814-.0605-.0605-.242-.242-.1815-.3025.0605-.0604.0605-.0604.121-.0604h.0605c.0604 0 .7258.1209.7258-.0605.1814.0605.6048.3024.9677.1814-.2419.0605-.9072-.121-1.2701-.2419zm.9677 4.5968c-.2419-.121-.5444-.0605-.6048-.0605-.0605 0-.0605-.0605-.121-.121-.0605-.3024 1.875-.7863 3.2056-.9677.4234-.0605.9073-.3629 1.3307-.6049.1814-.1209.3629-.1209.5443-.0605-.3629.121-.9072.4234-.7863.5444h.3025c-.3025-.0605.3629-.3629.6653-.4839.0605.0605.1814.0605.2419.0605-.2419.121-.5443.2419-.6048.3024 0 .0605 0 .0605.0605.121h.2419c-.2419-.0605.3629-.3024.4839-.3629.1209.0605.1814.0605.3024.121-.121.0604-.1815.1209-.3629.1814-.1815.121 0 .121 0 .121.6048.0605 1.0887.1814 1.5121.3024.0605 0 .2419 0 .4234-.0605.1209-.0605.2419-.121.6048-.121.0605 0 .121.0605.0605.121-.2419 0-.4234.121-.6048.121-.0605 0-.1815 0-.242 0 .121.0605.3024.1209.4234.1814-.0605 0-.121-.0604.0605-.1209.0605 0 .2419-.0605.3629-.0605-.1815.121-.1815.1814-.121.2419.242.0605.4234.0605.5444.0605.2419 0 .4234-.121.7258-.3629.1814-.121.3629-.1815.5443-.2419.0605 0 .121.0604.0605.1209-.1209.0605-.1209.1815-.1209.242-.242 0-.3629.3024-.6049.3629.0605.3024.4839.3024.7863.1814.0605.0605 0 .1815-.0605.1815-.2419.0605-.2419.0605-.5443-.0605-.121-.0605-.242.121-.1815.1814.0605.121.242.3629.5444.3629 0 .121 0 .1815.1209.242.0605.0605 0 .1209-.0604.1209-.1815-.0604-.4234-.1209-.6049-.2419-.3024-.2419-.4839-.3629-.7258-.3629-.1814 0-.3629 0-.6048.121-.0605 0-.0605.1209.1209.2419-.1209 0-.3024-.0605-.3629-.0605-.1814-.0605-.0604-.1209 0-.1209-.1209 0-.2419.0604-.2419.0604-.1814.0605.4234.242.7863.3025l-.0605.0604c-.0605.0605-.1814.0605-.2419.0605-.3024-.0605-.4839-.1814-.5444-.1814-.1814-.0605-.4839-.0605-.6048-.0605-.4234.0605-1.0887.0605-1.0887.0605-.242 0-.3024.0605-.3024.1814-.0605-.0605-.121-.0605-.1815-.1209-.0605-.0605 0-.0605.0605-.121-.0605 0-.242.0605-.3024.0605.0604.0605.3024.1814.4234.3024 0 .0605 0 .121-.0605.1814-.1815-.1209-.4839-.3024-.6049-.3629-.1209 0-.3024 0-.4234 0h.0605c.3024 0 .7258.363.9678.5444 0 .121-.1815.1815-.3025.121-.2419-.1815-.6048-.4839-.9072-.4839-.9678-.121-1.875-.1815-2.1774-.2419-.3024 0-1.1492-.0605-1.1492-.0605-.1815 0-.3629-.0605-.4839-.1815-.0605-.0605-.1814-.1814-.121-.2419 0-.0605.0605-.0605.0605 0h.0605c.0605 0 .6048.121.5444-.0605.1209.0605.4838.2419.7863.121-.0605-.0605-.6049-.1815-.9073-.3024zm.7258 3.4475c0-.0604 0-.0604-.0605-.1209.121.1209.242.1814.3629.3024-.0605.0605-.2419.3629-.2419.3629s0-.3024-.0605-.5444zm7.2581.7863c-.0605 0-.121 0-.1815 0 0-.1209 0-.1814-.0605-.2419 0 .121-.0605.1814-.1209.2419-.0605 0-.121 0-.121 0 0-.0605 0-.1814-.0605-.2419 0 .121-.0605.1814-.121.2419-.1209 0-.2419 0-.2419 0-.0605 0-.0605 0-.121 0 .3025-.2419.6049-.4838.9073-.7258 0 .3629.0605.5444.121.7258zm7.8629-10.4032c.1814-.0605.3629-.121.5443-.0605.121 0 .1815.121.3024.1815.121.0605.1815.1209.3025.2419.0604 0 .1209.0605 0 .121-.121.0605-.0605.1209 0 .1209.3629.1815.6048.4839.9072.7258.1815.121.3629.242.5444.363.0605 0 .1209.0604.1209.1209s-.0604.0605-.1209.0605c-.3629.121-.6653.2419-.9678.4839-.0605.0605-.1209.0605-.0604.1209 0 .0605 0 .121-.0605.121-.3025.6653-.3629 1.2702-.0605 1.9355.1814.4234.3629.7863.5443 1.2097.1815.2419.242.5443.3629.8467.0605.1815-.1209.3629-.3024.4234-.3024.121-1.5121.1815-1.754.1815-.0605 0-.121 0-.1815.0605-.2419.1209-.4838.2419-.7258.3024-.3024.121-.4838.3629-.6653.6653-.0605.121-.121.2419-.1814.3024-.0605 0-.0605 0-.121 0-.3024-.0605-.4839-.0605-.6653-.0605-.1815 0-.3629.0605-.3629.0605-.121 0-.121 0-.121-.1209 0-.121-.0605-.242-.0605-.4234-.0605-.3024-.2419-.4839-.5443-.5444-.242-.0605-.3629.0605-.4839.121s-.1815.0605-.242-.0605c-.1814-.4234-.1814-.4234-.4838-.0605-.121.1815-.3024.242-.4234.4234-.0605.121-.1815.1815-.3024 0-.121-.121-.242-.2419-.4234-.4234 0 .1815 0 .3629.0605.4839.2419.6048.2419 1.1492.0605 1.754-.0605.1815-.0605.4234-.121.6653-.121 0-.3024 0-.4234 0-.121-.0604-.121 0-.121 0 .4234-.4233.5444-.7258.3024-1.2096-.1814.1814-.3629.3629-.6048.4838 0-.3024-.3629-.6653-.4839-.9072-.0604.2419-.3024.6048-.3024.8468-.1209-.0605-.1814-.121-.3024-.1815 1.5726-1.5121 2.6008-3.3871 3.2661-5.1411v.9072c0 .121.1815.1815.1815.1815l.1814-.4234v.3024c.0605.1815.1815.121.242.0605.1814-.2419.3629-.4839.4234-.8468 0-.2419 0-.4838 0-.7258 0-.121 0-.2419.0604-.3024.121-.1815.121-.3629.1815-.5444 0-.3629.121-.6653.2419-.9677.242-.5444.6049-.9677 1.2097-1.1492.5444-.2419 1.0887-.4234 1.6331-.7258zm-27.4597-10.7056c-.0605.0604-.121 0-.1815-.0605-.4233-.3024-1.1492-.3629-1.5121-.3629-.3024 0-.3024-.0605-.3629-.3629 0-.0605 0-.121 0-.121 0-.3024.121-.5444.1815-.8468 0-.0605.0605-.1209.121-.0605.4233.242.8467.4234 1.2096.7258.3025.242.4234.5444.6049.8468.0605.121.0605.1815-.0605.242zm38.2258-6.4113c-.0605.1209-.121.3024-.121.4234 0 .3629 0 .7862-.0605 1.1491-.0604.1815-.0604.3025-.2419.4234-.0605-.4838-.2419-.8467-.5443-1.2096-.3025-.3025-.6049-.6049-.9678-.9073.0605.1815.0605.2419.121.3629.1814.3629.4234.7258.5443 1.1492.121.3629.1815.6653.0605 1.0282 0 .0605 0 .1815-.1209.1815-.0605 0-.121-.0605-.121-.121-.121-.1814-.242-.3024-.3629-.4839-.242-.3629-.4234-.7258-.7863-.9072-.3024-.1815-.4234-.3629-.3024-.6653-.242.3629-.242.7862-.3024 1.1491-.121.4234-.242.7259-.5444 1.0283.0605-.9073-.3629-1.6331-.7258-2.4194-.121.5444-.0605 1.0282.0605 1.5121.1209.3024.1814.5444.1814.9073 0 .1209-.0605.1209-.1209.0605-.242-.1815-.4234-.3629-.5444-.6049-.0605-.1814-.1814-.4234-.3024-.6048-.121-.121-.2419-.3024-.4839-.3024.242.1814.3629.4233.3629.6653 0 .5443.242.9677.6049 1.3306.3024.3025.3024.4839 0 .9073-.0605.0605-.121.1814-.1815.121-.0605 0-.121-.121-.1814-.1815 0-.0605 0-.121-.0605-.121s-.0605.0605-.0605.121c.0605.1815.0605.4839.0605.4839s-.3024.2419-.5444.3024c0 0-.2419.121-.2419 0 0-.4234-.121-.8468-.242-1.2702-.0604-.2419 0-.5443-.0604-.7863-.0605 0-.121.0605-.121.121-.121.3024-.1815.5444-.2419.9073 0 .3629.0604.7258.1209 1.0282s-.0605.5443-.3629.6653c-.2419.121-.4234 0-.6048-.2419-.0605-.0605-.121-.1815-.121-.242-.121-.2419-.1814-.4233-.3024-.6653-.121-.1814-.2419-.3629-.4234-.4838.121.2419.1815.4838.2419.7258.121.5443.121 1.0887.6049 1.4516.0605.0605 0 .1814-.0605.2419 0 0-.0605.0605-.121.0605-.4838-.2419-.9072-.4839-1.0282-1.0887 0-.121-.0605-.242-.121-.3024 0 .2419-.0604.4234-.0604.6653 0 .1814.0604.3629.1209.5443.121.1815.242.3025.4234.4234.0605 0 .0605.0605.0605.121s-.0605.0605-.0605.0605c-.5443.0605-1.0887.0605-1.4516-.4234-.121-.1815-.2419-.3024-.4234-.4234-.0605-.0605-.121-.0605-.121 0-.0604.0605 0 .121.0605.121.1815.2419.3629.4838.4839.7258.121.1814.3024.3024.5444.3629.3024.0605.6048.0605.8467 0 .1815 0 .3629 0 .4839.1209-.121.121-.2419.0605-.3629.1815-.1815.2419-.3629.3629-.6653.4839-.4234.1814-.7863.3629-1.2097.4234-.121 0-.2419.0604-.2419.1814-.0605.3024-.1815.6048.0604.9678.1815.1814.3025.3629.5444.3024.1814 0 .3024-.0605.4839-.121.1814-.0605.3629-.121.6048 0 .1815.121.2419.3629.0605.4839-.2419.1209-.4839.1814-.7258.0605-.1815-.0605-.242-.0605-.1815.1209v.1815c.0605.1209 0 .1814-.1209.1814-.242.0605-.4839.1815-.6654.3629-.2419.242-.4838.4839-.7862.6654-.1815.1209-.242.1209-.242-.121-.121-.6049-.2419-1.1492-.3024-1.754-.0605-.1815-.121-.4839-.1815-.5444-.1209-.121-.3629-.1815-.4233-.2419-.121 0-.1815 0-.3025 0-.6653-.121-1.3306-.242-1.9354-.3025-.121 0-.242 0-.363 0-.2419 0-.4838.1815-.7258.242-.1814 0-.3024.0605-.4233.1209 0 0-.242.3025-.4839.6049h-.7863v-.121c-.0605-1.633.0605-3.2056.1814-4.1734.0605-.3024.0605-.6048.121-.9677.0605.0605.0605.1814.121.3024.0605.3024.0605.6048 0 .7863 0 .0605 0 .1815-.0605.2419-.0605.1815-.0605.4234-.0605.6049 0 .2419.0605.4838 0 .6653v.0605h.0605.0605s.4234-.242.6048-.3629c.121-.121.4234-.4839.4839-.9073 0-.1209 0-.2419-.0605-.3629-.0605-.3024-.0605-.3629-.0605-.3629h.0605s.3629.4234 1.0887.4839c0 0-.1814-.5444-.5443-.9678-.1815-.2419-.4234-.4838-.7863-.7258 0 0 0 0-.0605-.0604 0-.0605-.0605-.0605-.0605-.121v-.0605s0-.0605.0605-.0605h.0605.1209c.3629.121.7258.3629 1.0283.5444 0 0 .1209.0605.3024.1814.3629.242 1.0282.6653 1.1492.7258.1209.0605.4839.242.9072.242.3629 0 .7863-.121 1.1492-.3629.3629-.1815.6049-.4234.8468-.6654.5444-.4838.4234-1.2096.4234-1.2096-.0605-.242-.1815-.3629-.4839-.4839-.1209-.0605-.2419-.0605-.3629-.121h-.0605-.0604c-.0605 0-.121.0605-.121.0605-.121.1815-.242.4234-.242.6653v.3025.1814.121c0 .1814.121.3629-.0604.4234-.1815.1209-.4839-.0605-.4839-.0605-.121-.0605-.3629-.121-.6048-.242-.4839-.1814-1.6936-.7258-2.0565-.9072.3629.0605 1.2097.1209 1.5121.1209h.121c.1814 0 .3024-.0604.4234-.1209.0604-.0605.1209-.0605.1209-.121s-.0605-.0605-.1209-.121c-.0605 0-.0605-.0604-.121-.0604 0 0 0 0-.0605 0-.1815-.0605-.6048-.242-.8468-.3025.242-.0604 1.0283-.2419 1.2097-.4838.1815-.242.121-.7258.121-.9073 0-.2419-.0605-.4839-.0605-.6653h.3024c.0605 0 .121.0605.2419.0605.3629.1209 1.0283.4234 1.3307.4234h.0605c.1209 0 .2419-.0605.4234-.0605.1814-.0605.3629-.0605.5443-.0605.0605 0 .121 0 .121-.0605s0-.0605 0-.121c-.0605-.0604-.0605-.1209-.121-.1814s-.0605-.1815-.121-.2419c-.1209-.121-.6653-.7259-1.3306-.7259-.0605 0-.0605 0-.121 0h.0605c.3629-.0604.6049-.3024.7863-.5443.1815-.2419.2419-.4839.1815-.7863l-.0605-.0605h-.0605c-.0605 0-.121 0-.1815 0-.1209 0-.3024.0605-.4233.0605-.3629.0605-.6654.1815-.9678.3629-.121.0605-.3024.2419-.3629.3024-.1814.1815-.4234.3024-.7863.3629-.0605 0-.1209.0605-.1209.121-.1815.1814-.363.3629-.5444.5444l-.2419.2419-.0605.0605s0 0 .0605-.0605c.1209-.121.8467-.9678.9677-1.2097.121-.1814.2419-.3024.3024-.4839.121-.1209.1815-.2419.3024-.4233 0 0 1.3912-1.996 1.5726-2.238 0 0 .0605-.0604.0605-.1209.121-.1815.3629-.4234.7258-.6653.121.0604.2419.1814.3024.3024v.0605c0 .0604.0605.0604.0605.1209v.0605c.1815.2419.4234.6653.1815 1.2097-.0605.121 0 .1814.0605.2419.3024.4234.6653.4839.7862.4839-.0604 0-.1209.0605-.1814.0605-.5444 0-.8468-.6049-.9678-.7863l-.0604-.0605c-.0605-.0605-.0605-.121-.121-.1814-.0605-.0605-.0605-.0605-.0605-.0605s-.0605 0-.0605.0605l-.0605.0604c-.0604.0605-.1209.121-.1814.242-.0605.0605-.0605.0605-.121.1209-.0605.0605-.1814.1815-.1814.3025-.0605.2419 0 .4838.1209.6048.1815.121.3629.1815.6654.1815h.0604c.363 0 .6049-.0605.9073-.1815.1815-.0605.4234-.121.5444-.3024.3629-.3024.4233-.7863.1209-1.3911l-.1814-.3025c.0605 0 .1209.0605.1814.0605s.0605 0 .0605.0605c.0605 0 .1815.0605.2419.0605h.121.0605c.0605 0 .121 0 .121-.0605s-.0605-.0605-.0605-.121c-.121-.1209-.242-.2419-.3629-.4234-.0605-.0604-.0605-.0604-.121-.1209s-.0605-.121-.121-.1815c-.1209-.1209-.1814-.2419-.3024-.3629-.1814-.1209-.3629-.2419-.6048-.2419-.121-.1815-.3629-.1815-.6653-.1815-.6049 0-1.2097.121-1.6936.3629-.7863.4234-1.5726 1.9355-2.1169 2.9033-.1815.3629-.3629.6048-.4234.7258-.121.2419-.3024.4838-.4839.7258 0 .0605-.0605.0605-.1209.1209 0-.1209.0604-.1814.0604-.2419.0605-.2419.121-.4234.121-.6653v-.0605c0-.121 0-.8468 0-.9677-.0605-.242-.121-.4839-.1814-.7258v-.121s0-.0605-.0605-.0605-.0605.0605-.0605.0605c-.0605.0605-.0605.0605-.121.121-.0605.1209-.1814.1814-.2419.3024-.121.1209-.1815.2419-.242.4234-.0604.1814-.0604.3629 0 .4838v.0605c-.0604-.4839-.7258-1.0282-.9072-1.1492-.0605 0-.0605-.0605-.121-.0605-.2419-.1209-.4234-.2419-.6048-.4233l-.0605-.0605c-.0605 0-.0605.0605-.0605.1209 0 .121-.0605.1815-.0605.3025 0 .0604-.0605.1814-.0605.2419-.1209.4234-.0604.8468.1815 1.2097.0605.1209.1815.2419.3024.3629.0605.0605.121.1209.1815.1814h-.0605-.0605c-.0605 0-.121 0-.1815.0605l-.0604.0605h.0604c.363.121.6049.5443.6654.6653.1209.3024.1209.5444.1209.9073-.0604.3629-.1814.6653-.4838 1.0282-.121.1814-.4839.4234-.5444.4234-.121.0605-.2419.1209-.3629.1209-.0605-.1209-.1814-.1814-.2419-.3024-.0605 0-.0605-.0605-.121-.0605h-.0605c-1.0282-.3629-2.2379-.6048-3.3871-.6048-2.1169 0-3.8105.5444-4.2943.7258-.0605 0-.0605.0605-.121.0605-.121 0-.2419 0-.2419 0s-.0605 0-.0605-.0605c-.0605-.0605-.121-.0605-.1815-.0605s-.1209 0-.1209.0605c-.121.0605-.242.0605-.3629.0605-.3025 0-.5444-.0605-.6654-.121-.3629-.1209-.7863-.3629-.9677-1.0282 0 0 0 0 0-.0605-.1815-.6653.4839-1.875.6048-1.875 0 0-.1814 0-.4234 0-.0604 0-.1814 0-.2419 0s-.121 0-.1814 0c.2419-.1814.3024-.3629.4233-.6048.363-.7863.0605-1.4516.0605-1.4516s0 0-.0605 0c0 0-.0604 0-.0604.0605-.0605 0-.0605.0604-.121.0604-.0605.0605-.121.121-.1815.121-.2419.1815-.4838.3629-.6653.6048-.0605.0605-.0605.121-.1209.4234 0 .121-.0605.121-.0605.121s0-.0605 0-.1815c0-.5443-.5444-1.2701-.6049-1.3306-.0605 0-.0605.0605-.0605.0605v.0605c-.1209.2419-.1814.4838-.2419.7258-.0605.1209-.121.4234.0605.6653.0605.1814.0605.9073 0 1.0887v.0605c0 .0605 0 .0605-.0605.0605 0 0-.0605 0-.0605-.0605-.1209-.121-.1209-.2419-.1814-.4234v-.0605c-.0605-.2419-.1815-.4234-.242-.6653l-.0604-.121c-.0605-.1209-.0605-.1814-.121-.3024 0-.121-.0605-.2419-.0605-.3024-.0605-.0605-.0605-.1815-.121-.3024-.1814-.5444-.4838-1.3307-.6048-1.5726-.121-.1815-.2419-.3024-.4234-.3629-.121-.0605-.6048-.3024-.7863-.3629-.6048-.1815-1.0887-.1815-1.5121-.2419-.0605 0-.0605 0-.1209 0-.4234 0-1.2097.1209-1.6936.4233-.1814.121-.3629.242-.6048.3629l-.0605.0605c-.121.0605-.4234.1815-.4839.1815-.1814.0605-.121.1209-.0605.1814.242.3024.7258.121.7258.1815 0 0-.2419.4234-.2419.7863 0 0 0 .3629.0605.4838.3629.7863 1.1492.9678 1.3911 1.0283h.0605c.1815 0 .3629.0605.5444 0 .1209 0 .1814-.0605.2419-.121s.121-.1815.121-.3024c0-.121 0-.3024 0-.4839 0-.0605 0-.0605 0-.121 0-.1209-.0605-.2419-.0605-.3629 0-.0604 0-.0604 0-.0604s0 0-.0605 0h-.0605c-.0605 0-.0605 0-.121.0604-.1209.0605-.2419.0605-.3629.121-.0604 0-.0604 0-.1209.0605-.0605 0-.121.0605-.1815.121 0-.7863.4234-1.3307.8468-1.6936.0605-.0605.3024-.1814.7863-.3024.0605.0605.1814.3024.2419.4839.0605.0604.0605.1209.0605.1209.0605.121.7863 1.6331 1.0887 2.2984.0605.121.121.242.121.3024.0605.121.1209.3025.2419.4234.0605.0605.121.121.1815.242.1814.1814.4234.5443.4234.6048l-.0605.0605s-.242-.1815-.3629-.3024c-.0605-.0605-.121-.121-.121-.121-.2419-.1815-.8468-.6048-.9677-.6653-.242-.121-1.0283-.242-1.2097-.242h-.0605v.121c.3024.7863 1.0282 1.0887 1.3911 1.2097.0605 0 .0605.0605.121.0605-.0605 0-.121 0-.1815 0-.0604 0-.1209 0-.1814 0-.121 0-.3024 0-.3629 0s-.1815 0-.1815 0c-.2419 0-.4838.0604-.6653.2419-.1814.121-.3024.3024-.4234.4839-.0605.0605-.1209.1209-.1209.2419-.121.1815-.1815.3024-.3025.4839l-.0604.0605.0604.0604c.1815.0605.3025.0605.4839.0605h.121.0605c.1209 0 .2419-.0605.4233-.0605.3025-.0604 1.0283-.3024 1.3307-.4233.0605 0 .121-.0605.121-.0605.1209-.0605.2419-.0605.3629-.0605h.1209c.242 0 .4234.0605.6654.121l.0604.0604c.121.121.3629.3629.4234.5444.121.2419.242.4234.3629.5443-.3629.0605-.6653.3025-.8467.363h-.0605s-.0605.0604-.0605.1209.0605.0605.121.121h.0604l.0605.0605s.0605 0 .0605.0605c.2419.1209.7258.3629 1.0282.3629.121 0 .3629-.0605.6049-.0605h.1209c-.0604 0-.0604.0605-.1209.0605-.0605.0604-.1815.0604-.242.1209-.1209.0605-.2419.121-.3629.1815-.1814.1209-.3629.2419-.5443.3024-.121.0605-.1815.121-.3024.1815 0 0 0 0-.0605 0-.3024.1814-.6049.3629-.9073.4233.121-.4234.0605-.9072-.2419-1.3306 0-.0605-.0605-.0605-.0605-.0605h-.0605c-.121.0605-.2419.121-.3629.2419h-.0605c-.2419.121-.3024.3025-.3629.5444s0 .4234.121.6653l.121.121c.0604.0605.1209.121.1209.121.3024.3024.6049.5443.9678.6653.0604.0605.1814.0605.2419.0605h.2419.3025c.5443-.0605 1.0887-.4234 1.0887-.4234l.1209-.121c.1815-.121.3629-.2419.5444-.3629.121-.121.3024-.1814.4234-.2419.1209-.0605.2419-.121.3024-.121 0 0 0 .0605-.0605.0605-.1814.3629-.3024.7258-.3024 1.2097 0 .1814-.0605.3024-.121.4838 0 .0605-.0605.1815-.0605.242v.0605h.0605c.121 0 .3629-.121.5444-.242.0605 0 .0605-.0605.1209-.0605 0 0 0 0 .0605-.0605.242.6049.9678 1.1492 1.0887 1.1492h.0605v-.0604c0-.0605 0-.121 0-.1815 0-.121.0605-.2419.0605-.3629.0605-.121.121-.3024.121-.5444 0 0-.0605-.1814-.121-.3629.2419.6049.5444 1.4517.6048 1.996 0 .1815.121 1.5121.121 1.996-.0605.0605-.121.0605-.1814.1209-.0605.0605-.0605.121-.121.1815h-1.3307c-.0604-.0605-.1209-.1815-.3629-.3024-.2419-.121-.4838-.3629-.7258-.4839-.1814-.0605-.2419 0-.4233 0-.121-.0605-.1815-.1814-.3025-.1814-.0605 0-.1814 0-.2419 0-.121 0-1.3911.2419-1.5121.2419-.3024 0-.9073.0605-.9677.121-.7258.3024-.9678 2.5403-.9678 2.5403s0 0-.0605 0c-.1814-.242-.4234-.3629-.7258-.4234-.0605 0-.1209-.0605-.1814-.121-.1815-.2419-.4234-.3629-.6653-.4838-.121-.0605-.1815-.121-.0605-.242l.0605-.0605c-.0605 0-.121 0-.1815 0-.2419 0-.4839 0-.6653-.1814-.0605-.0605-.121-.1815-.0605-.2419.0605-.1815.8468 0 1.1492-.0605.121 0 .4839-.242.5443-.3629.121-.1815.0605-.4234.121-.6654.0605-.3024 0-.3629-.3024-.3629-.0605 0-.0605 0-.121-.0604-.4838-.121-1.5121-.4839-1.633-.6654-.121-.1814-.3025-.2419-.4839-.2419-.0605 0-.121 0-.1815-.0605 1.2097.0605 1.6331-.5443 1.6331-.9072-.1815.4233-1.3306.6048-1.4516.5443-.1815-.0605-.0605-.121 0-.121.1814-.1209.3629-.3024.4839-.4838.1209-.3024.1814-.6049.1209-.7258 0-.0605-.0605-.121-.0605-.121-.0604 0-.0604.0605-.0604.121-.121.6048-.6049.7863-1.0888.9072-.1814.0605-.2419-.0605-.3024-.1814-.0605-.1815 0-.3024.0605-.3629.0605-.121.1815-.242.2419-.4234.3025-.4234.363-.7863.0605-1.2702-.1209-.1814-.2419-.4234-.3629-.6653.242.7863.1815 1.4516-.4234 2.0564-.1209-.1209-.2419-.3024-.3629-.4233-.0604-.0605-.0604-.121-.0604-.1815.1209-.3629.1814-.7863 0-1.1492-.121-.3629-.4839-1.1492-.5444-1.3306-.2419.5443.121 1.633.0605 2.0564 0 .0605 0 .1815-.1815.121-.4234-.1815-.7863-.4234-1.0282-.7863-.1814-.3024-.1814-.4234 0-.6653.121-.121.7863-.9073.7258-2.0565-.2419.5444-.4839 1.0283-.9072 1.4516-.0605.0605-.0605.121-.1815.0605-.0605 0-.0605-.1209-.0605-.1814s-.0605-.5444.121-1.996c0-.121-.0605-.0605-.121 0-.2419.4839-.4234.9677-.4839 1.4516-.0604.242 0 .4839 0 .7258-.5443-.1209-.8467-.6653-1.1491-.9677-.0605 0-.121.9072.5443 1.2097.4234.2419.7258.6048.9678.9677.1814.3024.1814.5444.0604.8468 0 0-.4234.7258-.2419 1.2097.0605.1209-.0605.1209-.121.1209-.5443 0-1.0282-.1209-1.3911-.5443-.0605-.121-.121-.1815-.121-.3025.0605-.3629.242-.6653.4234-.9677.121-.2419.242-.4234.3629-.8468 0-.0605.0605-.1209-.0605-.1814-.0604 0-.1209.1209-.1814.1814-.3629.3629-.7258.6654-.9073 1.1492 0 .0605 0 .121-.0605.121-.0604 0-.0604-.0605-.1209-.121-.242-.3629-.1815-.7863.0605-1.1492.1814-.3024.3629-.6048.4234-.9677.0604-.4234 0-.8468-.1815-1.2702-.0605-.0605-.0605-.1814-.1815-.1209-.0604 0-.0604.1209-.0604.1814v.5444c0 .5443-.0605 1.0282-.4839 1.3911-.121.121-.1815.121-.2419-.0605-.121-.4234-.121-.8468-.1815-1.2702 0-.4838-.121-1.3306-.3024-1.4516 0 .3025-.0605.5444-.0605.7863-.0605.4839-.121.9073-.121 1.4516 0 .0605 0 .121-.1209.121-.0605 0-.121-.0605-.121-.121-.2419-.3629-.3629-.7863-.4839-1.2096-.0605-.242-.1209-.4234-.3024-.6654.0605.6049-.1814 1.8146.6653 2.6008.242.242.5444.4234.7258.7259.0605.1814.1815.3629.242.5443.2419.4839.5443.8468.7863 1.3307.1209.2419.4234.5443.7863.5443h.1209c.6049.2419 1.2702.2419 1.9355.1815.3024 0 .6048 0 .9073.0604.1814.0605.3024.121.3629.3025.0605.1209.0605.3024-.0605.3629-.1815.1814-.7258-.3025-1.3307-.3025-.3629 0-.6653.121-1.2096.121-.121 0-.121.121 0 .1815.1209.0604.4838.2419.4838.3629-.0605.1209 0 .1209.121.1814s.9677.8468 1.6331.8468c.1209 0 .1814.0605.1209.1814-.0605.3025-.0605.6654.0605.9678s.1815.6048.121.9072c0 .121.0605.121.121.0605.2419-.1814.2419 0 .3024.1815.1209.3024.1814.6048.4234.7863.0604.0605.0604.0605.1209.1209.0605.0605.0605.3025.0605.4234 0 .0605-.121.4234-.2419.5444.0605 0 .2419-.121.2419-.0605.121.7258-.121 2.2984-.6048 3.0242-.242.3629-.6049 1.2702-1.6331 2.5403-.2419.3024-.3629.6653-.4839 1.0887-.1814.5444-.5443.9073-1.0887 1.1492-.1209.0605-.2419.0605-.3024-.0605-.121-.2419-.1814-.0605-.2419.0605s-.1815.2419-.121.3629c0 .121-.0605.1815-.121.242-.1814.1209-.2419.2419-.3629.4233-.0605.121-.1209.242-.0605.3629.0605.1815.1815.3629.0605.6049.1815-.0605.3629-.121.4839-.242.0605-.0604.121-.0604.1815 0 .1814.1815.3629.1815.6048.0605-.3024-.1209-.3024-.2419-.121-.4838.121-.1815.3024-.242.4839-.3025.0605 0 .0605-.0604.121-.0604.0604.0604 0 .0604 0 .1209-.0605.4234 0 .7863.0604 1.1492.0605.3024.121.6049.1815.9073.121.8467-.2419 1.4516-.9073 1.9355-.3024.1814-.3629.3629-.3024.6653 0 .121.0605.1814.0605.3024.2419.4839.3629 1.0282.4839 1.5726.0605.3024.1209 1.0282.3629 1.2701-.0605 0-.1815-.0604-.1815-.1209-.0605.1209 0 .1814.0605.2419l-.0605.0605c-.1209 0-.1814-.0605-.2419-.121-.0605.121 0 .1815.0605.242l-.0605.0604c-.121 0-.1815-.0604-.2419-.1209-.0605.1209 0 .2419.1209.3024-.1209 0-.1814-.0605-.2419-.121-.0605.121 0 .242.121.3025l-.0605.0604c-.0605.0605-.0605.1815 0 .242.0605.1814.1209.3629.3024.4838-.0605.3629.121.7863.4839.9678.1209.0605.2419.1209.4234.1814-.1815.1815-.1815.4234-.121.6654.121.3024.3629.4233.6653.4233.0605 0 .2419 0 .3629-.1814.121-.1815.2419-.2419.4839-.3024.5443 0 1.0282.1814 1.5121.3629l.1209.0605c.3629.1814.7863.3024 1.2097.4233.3629.0605.7863.121 1.1492.121.7863 0 1.5726-.1814 2.2984-.4839.6048-.2419 1.2097-.3629 1.875-.3629.4839 0 .9677.0605 1.4516.242.7863.2419 1.754.5443 2.8428.5443 1.0887.0605 2.1169-.2419 2.8427-.4838.5444-.1815 1.0887-.242 1.6331-.242.4838 0 .9677.0605 1.4516.1815.1209.0605.2419.0605.3629.1209.7258.242 1.4516.4234 2.2379.4839h.6048c.8468 0 1.5726-.121 2.1774-.4234.6654-.3024 1.3307-.4234 1.996-.4234.4839 0 1.0282.0605 1.5121.242h.0605c.4839.1814.9677.3629 1.5121.4234.4234.0604.8468.1209 1.2702.1209.8467 0 1.633-.1814 2.4193-.4838.4234-.1815.8468-.3025 1.2097-.3629h.0605c.1209 0 .2419-.0605.4234-.0605.2419 0 .3629.0605.4838.1209.0605.1815.242.242.3024.242.3025 0 .5444-.242.6049-.4839.0605-.1814.0605-.3024 0-.4234.3629 0 .6653-.1814.9072-.4839.1815-.2419.242-.4838.242-.6653.0605-.0605.1209-.1814.1814-.3024.0605-.2419 0-.4234 0-.6048.121-.0605.1815-.1815.121-.3025-.0605.0605-.121.121-.2419.121.0604-.0605.1814-.1814.1209-.3024-.0605.0605-.1209.121-.1814.121l-.0605-.0605c.0605-.0605.121-.121.0605-.242-.0605.0605-.121.121-.1815.121s-.0605-.0605-.1209-.0605c.0604-.0605.1209-.1209.0604-.2419-.0604.0605-.1209.121-.2419.121l-.0605-.0605c.0605-.0605.0605-.0605.0605-.121.0605 0 .121-.0605.121-.1814-.0605-.9678.1209-1.875.4838-2.7218.121-.242.0605-.3629-.1209-.4839-.3629-.1814-.5444-.5443-.7258-.8468-.3024-.5443-.3629-1.1492-.1815-1.754.1815-.5443.3024-1.0887.1815-1.6935 0-.121-.0605-.1815 0-.3025.1814.0605.3024.121.4838.242.121.0605.242.1209.242.2419 0 .1815-.1815.1815-.3024.2419v.0605c.1209.1815.3024.1815.4838.121.121-.0605.242-.0605.4234.0605.121.1209.3024.0605.4839-.0605-.1815-.121-.2419-.3024-.2419-.5444 0-.1209 0-.2419 0-.4233 0-.3629-.0605-.4839-.363-.6049-.0604-.0605-.1209-.0605-.1209-.121 0-.1814-.0605-.3024-.1815-.4838-.0605-.0605-.1209-.0605-.1814-.0605s-.0605.0605-.0605.121c-.0605.1814-.1815.2419-.3629.2419-.2419-.0605-.5444-.3629-.6048-.4234l-.0605-.0605c-.1815-.3024-.3629-.6048-.5444-.9677-.4234-.8468-.9072-1.6331-1.4516-2.4194-.6653-.9072-.9677-1.9355-.9073-3.0242 0-.4234.121-.8467.4839-1.0887.0605-.0605.121-.0605 0-.1814-.121-.121-.121-.242-.121-.4234.0605-.4234.242-.7863.3629-1.1492.0605-.121.0605-.2419.121-.3024s.1815 0 .2419.0605h.121c0-.0605 0-.0605 0-.0605-.1814-.242-.1814-.4839-.121-.7258 0-.0605.0605-.121.0605-.121 0-.0605.1815-.4234.121-.5444 0-.1209 0-.2419 0-.4233.4839.0604.7863-.242 1.0887-.4839s.4234-.6653.7258-1.0282c-.3629.1814-.6653.1209-.9677.1209-.1815 0-.3629 0-.5444.0605-.1814.0605-.3629.121-.5443.1815-.1815.0604-.3025-.121-.3025-.242 0-.1814.1815-.2419.3025-.3024.2419-.0605.5443-.0605.7863 0 .2419.0605.4233-.0605.4838-.2419.0605-.121.1815-.1815.3024-.1815.3629-.0605.7259-.0605 1.0888-.1209.3629-.0605.7258-.1815.7862-.6049 0-.0605.0605-.0605.0605-.121.6049-.4838 1.0283-1.0887 1.2097-1.8749 0-.0605.0605-.1815.121-.242.1814-.1814.3629-.4234.4838-.6653.242-.4234.4234-.9073.363-1.3911.1209-.3025-.1815-.6654-.1815-1.1492zm-25.8266 13.3669c.121-.3629 0-.7863-.3629-.9073-.0605 0-.1815-.0604-.242 0-.0604 0-.0604.0605 0 .0605h.121c.3024.121.4839.4839.3024.8468-.1209.3024-.3629.4839-.6653.4234h-.0605v.0605c.3629.0605.7863-.121.9073-.4839zm1.0282 0c-.3024.0605-1.2702.3024-1.2702.6048 0 .121.1815.121.3025.0605.1209 0 .9072-.1209 1.0282-.1209s.1814-.1815 0-.1815c-.7863.121-1.0282.1815-1.0282.1815s.2419-.1815 1.0282-.3025c.4234-.1209.121-.3024-.0605-.2419zm0 .6048c-.3024 0-.6048.0605-.7863.121 0 0 .7258.0605.7863.0605.121 0 .121-.1815 0-.1815zm-2.5403-1.2096c-.121-.0605-.2419-.0605-.3024.0604 0 0 0 .0605-.0605.0605v.0605c0 .0605.0605.121.121.1815.1209.0605.2419.0605.3024-.0605s.0605-.242-.0605-.3024zm1.2097 6.2298c.3024.0605.6048-.121.7258-.4234.1209-.3024 0-.6653-.3024-.7863-.0605 0-.1815 0-.242 0s-.0605.0605 0 .0605h.121c.2419.121.4234.4234.3024.7258-.121.242-.3629.4234-.6048.4234zm.6048.121c0 .0605.1815.0605.2419.0605.0605 0 .7863-.121.9073-.121.0605 0 .121-.1815 0-.121-.6653.0605-.9073.121-.9073.121s.1815-.121.9073-.2419c.3629-.0605.121-.242-.0605-.1815-.3024.0605-1.1492.2419-1.0887.4839zm1.0282.0605c-.2419 0-.5443.0604-.6653.1209 0 0 .6048.0605.7258.0605.0605-.0605.0605-.1814-.0605-.1814zm-2.1774-1.0888c-.121-.0604-.2419 0-.3024.0605v.0605.0605c0 .0605.0605.121.121.121.1209.0604.2419 0 .3024-.0605 0-.0605 0-.1815-.121-.242zm1.2702 5.5041c.2419.0605.4838-.0605.6048-.3629.121-.242 0-.5444-.2419-.6653-.0605 0-.121 0-.1815 0s-.0605.0604 0 .0604h.0605c.2419.0605.3024.3025.2419.5444-.1209.2419-.3024.3629-.4838.4234 0-.0605 0-.0605 0 0 0 0-.0605-.0605 0 0zm.4234.0605c0 .0604.1209.0604.1814.0604s.6653-.0604.7258-.1209c.0605 0 .121-.121 0-.121-.5443.0605-.7258.121-.7258.121s.1815-.121.7258-.1815c.3024-.0605.121-.1814-.0605-.1814-.1814.0605-.8467.2419-.8467.4234zm.8467 0c-.1814 0-.4234.0604-.5443.0604h.5443c.121.0605.121-.0604 0-.0604zm-1.754-.8468c-.0605-.0605-.1815 0-.2419.0605v.0605.0604c0 .0605.0604.0605.0604.121.0605.0605.1815 0 .242-.0605s.0605-.1814-.0605-.2419zm-7.8629 5.1411c0 .0605 0 .0605 0 0zm30.9073 1.4516c.0604 0 .0604 0 0 0zm-17.2984-36.3508v1.8145c0 .3025 0 .6049-.121.8468l-1.8145-2.2379-1.875 2.2379c-.0605-.2419-.121-.5443-.121-.8468v-1.8145zm-1.996 4.5968c-.1815 0-.7258-.2419-1.2097-.7258l1.2097-1.5121 1.2097 1.4516c-.4234.4839-1.0282.7258-1.2097.7863zm-2.5403-4.1129c0 .1814-.242.4234-.9073.7863-.0605.0605-.1814.121-.3024.1814 0 0 .1815-.2419.3024-.4838.121-.3025.1815-.7863 0-1.1492-.1209-.24196-.2419-.4839-.5443-.66535-.121-.06048-.242-.12097-.4234-.18145-.1815-.06048-.1815-.06048-.0605-.24194.0605 0 .121.06049.1814.06049.121.06048.1815.06048.1815-.12097 0-.06048.0605-.12097.121-.18145.0604-.06049.1209-.06049.1814-.06049h.3024c.1815-.06048.242 0 .3629.12097.0605.12097.121.30242.121.42339 0 .30242.121.54435.1815.7863 0 .0605.0604.121.1209.1814.1815.1815.1815.3629.1815.5444zm8.1048-10.342745c-.1209-.060484-.2419-.120968-.3629-.181452 0 0-.0605-.060484-.0605 0s.1815.241936.1815.30242c.121.241935.1814.483867.0605.725807-.0605.12097-.0605.30242-.1815.42339-.0605 0-.3024-.42339-.4234-.60484-.1209-.241938-.2419-1.088712-.3024-1.1491961 0 0 0-.0604839-.0605-.0604839 0 0 0 0-.0605.0604839 0 0-.1209.4233871-.1814.6653221-.0605.241936 0 .423384.0605.604844.2419.06048.2419.18145.2419.3629 0 0 .0605.12097 0 .12097s-.121-.06049-.121-.06049c-.1814-.18145-.3024-.3629-.4233-.60484 0-.06048-.0605-.12096-.121-.181448 0 .120968.121.483868.121.604838v.06048h-.0605s0 0-.0605-.06048c-.1815-.18145-.3024-.42339-.4234-.665322 0-.060484 0-.120968-.0605-.181452 0 0 0-.060483-.0605-.060483s0 .060483 0 .060483v.241936c0 .181448.0605.423388.1815.604838.0605.06048.121.18145.121.24194.0604.12096.1209.18145.1209.30242 0 .12096 0 .18145-.1209.18145-.121 0-.242-.06049-.363-.12097-.3024-.12097-.5443-.3629-.7258-.72581 0 0 0-.06048-.0604-.06048v.06048c0 .12097.0604.18145.0604.30242.0605.36291.242.60484.6049.78629.0605.06049.1814.06049.2419.12097.121.06048.1815.12097.1815.24194 0 .18145-.0605.3629-.1815.48387-.0605.06048-.121.06048-.121 0-.0604-.06049-.0604-.12097-.1209-.24194 0 0 0-.06048-.0605-.06048s-.0605.06048-.0605.06048v.42339c0 .12097-.0605.18145-.1814.18145-.0605 0-.121-.06048-.1815-.06048-.1814-.12097-.3024-.30242-.4234-.42339-.1814-.18145-.2419-.42339-.2419-.66532 0-.06049 0-.06049 0-.12097 0 0 0-.06049-.0605-.06049-.0605.12097-.0605.24194-.121.36291-.1209.30242-.0605.60484.121.90726.0605.06048.121.18145.1815.24193.0604.06049.0604.06049 0 .18145-.0605.06049-.121.12097-.242.18145-.121.06049-.1814.06049-.2419 0-.0605-.12096-.1815-.24193-.242-.30241-.0604-.06049-.0604-.12097-.1209-.18146-.0605-.18145-.0605-.42338 0-.60483 0-.06049 0-.06049 0-.12097-.0605.18145-.1815.3629-.242.54435 0 .12097-.0604.24194-.0604.30242.0604.30242.1814.60484.4233.84678.121-.06049.121 0 .121.12096 0 .06049 0 .12097-.0605.12097 0 .06049-.0605.06048-.0605.06048-.2419-.06048-.5443-.12096-.7258-.3629-.0604-.06048-.1814-.18145-.3024-.24193-.1814-.12097-.3629-.24194-.4839-.36291 0 0-.0604-.06048-.0604 0 .0604.18145.1209.30242.1814.42339s.121.30242.242.42339c.0604.12096.2419.18145.3024.3629-.5444-.12097-.9073-.3629-1.2702-.72581.0605.30242.1815.54436.3629.72581.1815.24194.4234.3629.7258.42339-.0605.06048-.1209 0-.1814 0-.121 0-.1815 0-.3025.06048-.1209.06049-.3024.06049-.4233 0-.0605 0-.242.06049-.242 0-.0605 0-.1209 0-.1814.06048 0 .12097-.121.18146-.1815.30242-.1814.18146-.1814.18146-.1209.48388 0 .06048 0 .12096.0604.18145.0605.06048.0605.06048.0605.12096.0605.18146.121.30242.3024.36291.121.06048.3025.06048.4234.12097.121 0 .242.06048.3629.12096.121.06049.1815.12097.1815.24194s-.0605.18145-.1815.24193c-.1209.06049-.3024.06049-.4234.12097h-.0604c-.0605-.06048-.121-.06048-.242-.06048h-.0605v-.06049s0-.06048.0605-.06048c.0605-.12097 0-.18145-.1209-.12097-.0605 0-.0605 0-.121-.06048 0-.06049-.0605-.12097-.121-.12097-.1209-.06048-.1814-.06048-.1814.12097v.30242c0 .30242 0 .60484-.0605.84677 0 .06049-.0605.12097-.121.18145 0-.06048-.0605.06049 0 .18146 0 .06048 0 .18145-.1209.18145-.0605.06048-.121 0-.1815-.06049-.121-.12096-.1815-.30242-.2419-.48387-.121-.30242-.1815-.60484-.4234-.84677-.121-.18145-.3024-.18145-.5444-.12097-.0605 0-.1209.06048-.1814.06048-.1815 0-.3024.06049-.4839.06049s-.3024 0-.4839.06048c-.1209 0-.1814.06049-.3024 0-.0605 0-.121.06049-.1814.06049 0 .06048-.0605.06048-.0605.12096-.0605.18145-.1815.30242-.3024.42339-.121.12097-.1815.24194-.242.42339 0 .12097-.0605.18145-.1814.24193-.6654.36291-.9073 1.02822-.6654 1.69352.1815.6049.6049.9073 1.2097.9678.121 0 .1815-.0605.242.0605 0 .0604-.0605.1209-.0605.1814-.121.1815-.121.3629-.121.5444.0605.3024.0605.6653 0 .9677 0 .121.0605.2419.1815.2419.0604 0 .1209.0605.1209.1815 0 .1814.0605.3629.1815.4839.1814.1209.3629.2419.5443.4234.0605.0604.121.0604.121-.0605 0-.0605 0-.1815 0-.242.0605.0605.1815.0605.2419.0605.0605 0 .0605-.0605.0605-.0605-.1209-.1209-.1209-.2419-.1814-.4234-.0605-.1814-.121-.3024-.3025-.4233-.0604-.0605-.1209-.0605-.0604-.1815 0-.0605 0-.0605 0-.121-.121-.2419-.1815-.4838-.1815-.7863 0-.1814.121-.3024.3024-.3629h.121c.2419-.0604.5444-.0604.7863-.1209.121 0 .2419-.0605.3024 0 .0605 0 .121.0605.1815.1209.0604.121.0604.1815.1209.3025.0605.1209.121.2419.1815.3024.3629 1.0887 1.1492 1.633 1.633 1.875v.0605.2419c-1.4516.121-2.6612.5444-3.1451.7258l-.121.0605c-.2419.0605-.4234.3629-.3024.6048.0605.242.2419.3629.4839.3629h.1814l.121-.0604c.5443-.1815 2.0564-.6654 3.6895-.7259 2.1774 0 3.9919.6049 4.0524.6049.242.1209.5444-.0605.6653-.3024.121-.242-.0604-.5444-.3024-.6654-.0605 0-1.0282-.3629-2.4193-.5443-.121-.3024-.242-.5444-.3024-.8468-.0605-.2419-.121-.5443-.1815-.7863.2419-.4234.4234-1.0282.4234-1.6935v-2.11696h-.6048c0-.06049.0604-.06049.0604-.12097.1815-.24194.3629-.48387.5444-.66532.121-.12097.1814-.18145.3024-.30242.0605-.06049.0605-.12097-.0605-.12097-.0605 0-.1209 0-.1209 0h-.0605v-.06048c.1814-.42339.3024-.90726.3024-1.33065 0-.12097 0-.18145.0605-.30242 0-.06048.0605-.12097.1209-.12097.1815-.06048.3629-.18145.5444-.24193.2419-.18145.4234-.42339.5444-.72581 0-.06048 0-.12096-.0605-.06048-.1815 0-.3025 0-.4839 0-.1815 0-.4234 0-.6048.06048-.1815.06049-.242-.06048-.4234-.06048.1814-.12097.3629-.18145.6048-.24194.3024-.06048.6653-.06048.9678-.12096.3629-.12097.7258-.24194 1.0282-.48388.3629-.30241.5443-.66532.6653-1.0887.0605-.24194.121-.48388.121-.72581 0-.24194.0605-.48387 0-.66532-.0605-.12097 0-.24194.0605-.36291 0-.06048.0604-.06048.0604-.12096.121-.24194.1815-.48388.242-.72581-.0605-.423388-.3024-.786291-.5444-.846775z" fill="#f7f6f5"/></g></svg>