<svg fill="none" height="100" viewBox="0 0 86 100" width="86" xmlns="http://www.w3.org/2000/svg" xmlns:xlink="http://www.w3.org/1999/xlink"><clipPath id="a"><path d="m.046997 0h85.906v100h-85.906z"/></clipPath><g clip-path="url(#a)"><path d="m5.28195 63.6913c-.13423 0-.20135 0-.33558 0-.13422 0-.20134 0-.33557 0-.13422 0-.20134 0-.33557 0-.13422 0-.20134 0-.26845 0 0-.0671 0-.1343 0-.2014s0-.1342 0-.2013h.80537.80537.80536.80537v.2013.2014c-.06711 0-.20134 0-.26845 0-.13423 0-.20134 0-.33557 0s-.20135 0-.33557 0c-.13423 0-.20135 0-.33557 0v1.2751 1.0739.8053c0 .2685 0 .537.06711.8054-.06711 0-.20134 0-.26846 0-.13422 0-.20134 0-.33557 0 0-.2684 0-.5369.06712-.8054 0-.2684 0-.5369 0-.8053v-1.0739c-.13423-.4026-.13423-.8053-.20134-1.2751zm5.77185.4698c0-.2685 0-.5369-.0672-.8054h.1343.1342.1342.1343c0 .2685 0 .5369-.0672.8054v.8053 1.0739.8053c0 .2685 0 .537.0672.8054-.0672 0-.2014 0-.3356 0s-.2014 0-.2685 0c0-.2684 0-.5369.0671-.8054 0-.2684 0-.5369 0-.8053v-.5369c-.2013 0-.4698 0-.6711 0s-.40268 0-.67114 0c-.20134 0-.4698 0-.67114 0s-.40268 0-.67114 0v.5369.8053c0 .2685 0 .537.06711.8054-.06711 0-.20134 0-.33557 0s-.20134 0-.33557 0c0-.2684 0-.5369.06712-.8054 0-.2684 0-.5369 0-.8053v-1.0739c0-.2684 0-.5369 0-.8053 0-.2685 0-.5369-.06712-.8054h.13423.13423.13423.13423c0 .2685 0 .5369-.06712.8054v.8053.2014h.67114.67114.67117.6711v-.2014c.2685-.2684.2685-.5369.2014-.8053zm1.8792 0c0-.2685 0-.5369-.0672-.8054h.537.5369.5369.5369v.2013.2014c-.1342 0-.2685 0-.3356 0-.1342 0-.2013 0-.3356 0-.1342 0-.2684 0-.4026 0-.1343 0-.3356 0-.5369 0v.4027.4027.4698.3355h.4697.4027.3356.2685v.2014.2013c-.1343 0-.2014 0-.4027 0-.1343 0-.2685 0-.4027 0s-.2685 0-.4027 0-.2013 0-.2684 0v.1342.1343.4027.604.3356h.4026.4698.4027c.1342 0 .2685 0 .3356-.0672v.0672.0671.1342c-.2014 0-.3356 0-.5369 0h-1.0067c-.2014 0-.4027 0-.5369 0 0-.2685 0-.5369.0671-.8054.0671-.2684 0-.5369 0-.8053v-1.0739c-.0671-.2013-.0671-.4698-.0671-.7382zm5.7046 1.208h.2014c.1342 0 .2684 0 .4027-.0671.1342 0 .2684-.0671.4027-.1342.1342-.0671.2013-.2014.2684-.2685.0671-.1342.1342-.2684.1342-.4698 0-.1342 0-.2684-.0671-.4027-.0671-.1342-.1342-.2013-.2013-.2684s-.2014-.1342-.3356-.1342-.2013-.0672-.3356-.0672c-.1342 0-.2684 0-.3355 0s-.2014 0-.2685 0v.6712.6711.3356c.0671.1342.0671.1342.1342.1342zm-.6711-1.208c0-.2685 0-.5369-.0671-.8054h.3356.3355.3356.3356c.2013 0 .3355 0 .4698.0671.1342 0 .2684.0671.4027.1342.1342.0672.2013.2014.2684.2685.0671.1342.1342.2685.1342.4698s-.0671.3356-.1342.5369c-.0671.1342-.2013.2685-.3356.3356-.1342.0671-.2684.1342-.4026.2013-.1343.0671-.2685.0671-.4027.1343.0671.0671.1342.1342.2013.2684s.2014.2014.2685.3356c.1342.1342.2013.2684.3355.4027.1343.1342.2014.2684.3356.4027.1342.1342.2014.2684.3356.3355.0671.1342.2013.2014.2013.2685-.0671 0-.1342 0-.2013 0h-.3356c-.0671 0-.1342 0-.2013 0-.0671-.0671-.1343-.2014-.2685-.4027s-.2684-.3356-.4027-.5369c-.1342-.2014-.3355-.4027-.4698-.604-.1342-.2014-.3355-.3356-.4027-.4698h-.2013v.4698.8053.8054c-.0671 0-.2013 0-.2684 0-.1343 0-.2014 0-.3356 0 0-.2685 0-.5369.0671-.8054 0-.2684 0-.5369 0-.8053v-1.0739c.0671-.2013.0671-.4698.0671-.7382zm7.4497.4698c-.0671-.2685-.2014-.4698-.3356-.6041-.1342-.1342-.3356-.2684-.5369-.3355-.2014-.0671-.4027-.1343-.6712-.1343-.2684 0-.4697.0672-.6711.1343-.2013.0671-.4027.2013-.5369.3355-.1342.1343-.2685.3356-.3356.6041-.0671.2684-.1342.5369-.1342.8725 0 .3355.0671.604.1342.8724.0671.2685.2014.4698.3356.6041.1342.1342.3356.2684.5369.3355.2014.0672.4027.1343.6711.1343.2685 0 .4698-.0671.6712-.1343.2013-.0671.4027-.2013.5369-.3355.1342-.1343.2685-.3356.3356-.6041.0671-.2684.1342-.5369.1342-.8724 0-.3356-.0671-.6041-.1342-.8725zm-3.7584-.0671c.1342-.2685.2684-.537.4698-.6712.2013-.2013.4698-.3356.7382-.4027.2685-.0671.6041-.1342.9396-.1342.3356 0 .6712.0671.9396.1342.2685.0671.5369.2685.7383.4027.2013.2014.3356.4027.4698.6712.1342.2684.2013.604.2013.9396 0 .3355-.0671.6711-.2013.9396-.1342.2684-.2685.4698-.4698.6711-.2014.2013-.4698.3356-.7383.4027-.2684.0671-.604.1342-.9396.1342-.3355 0-.6711-.0671-.9396-.1342-.2684-.0671-.5369-.2014-.7382-.4027-.2014-.2013-.3356-.4027-.4698-.6711-.1342-.2685-.1342-.6041-.1342-.9396 0-.3356.0671-.6712.1342-.9396zm5.8389 1.0067c-.0671-.1343-.2013-.2685-.2684-.4698-.0672-.1343-.2014-.3356-.3356-.5369-.1342-.2014-.2014-.3356-.3356-.537-.0671-.1342-.2013-.3355-.2684-.4698-.0672-.1342-.1343-.2013-.2014-.2684h.2014.2013.2013.2014c.2013.3356.4027.7382.5369 1.0738.2013.3356.4027.6712.604 1.0738.0671-.1342.2014-.3355.2685-.4698.1342-.2013.2013-.3355.3355-.5369.1343-.2013.2014-.4027.2685-.5369.0671-.2013.2014-.3355.2685-.5369h.2684.2685c-.2014.2685-.4027.604-.5369.8054-.1343.2684-.2685.4698-.4027.6711-.1343.2014-.2014.4027-.3356.5369-.0671.1343-.2013.2685-.2013.4027v.4698.5369.4698.3356c-.0671 0-.2014 0-.2685 0-.1342 0-.2013 0-.3356 0 0-.2013.0672-.4698.0672-.8054 0-.3355 0-.604 0-.9396-.0672 0-.1343-.1342-.2014-.2684zm3.3557.1342h.3356.3356.3355.3356l-.6711-1.5436zm2.7517 1.9463c-.0671 0-.1342 0-.1342 0h-.3356c-.0671 0-.1342 0-.1342 0 0-.0671-.0671-.2013-.1343-.3356-.0671-.1342-.1342-.2684-.1342-.4026-.0671-.1343-.1342-.2685-.2013-.4698-.0671-.1343-.1343-.2685-.2014-.4027-.1342 0-.2684 0-.4027 0-.1342 0-.2684 0-.4026 0-.1343 0-.2685 0-.4027 0-.1343 0-.2685 0-.4027 0-.1342.3355-.2685.604-.3356.9396-.1342.2684-.2013.5369-.2684.7382-.0672 0-.1343 0-.2014 0s-.1342 0-.2013 0c.3355-.7382.6711-1.4094.9396-2.1476.3355-.7383.604-1.4094.9396-2.1477h.1342c.0671.2685.2013.4698.3356.8054.1342.2684.2013.5369.3355.8725.1343.2684.2685.5369.3356.8725.1342.2684.2014.5369.3356.8053.1342.2685.2013.4698.2684.6712.1343-.0671.2014.0671.2685.2013zm.8054-3.4899c0-.2685 0-.5369-.0672-.8054h.1343.1342.1342.1343c0 .2685 0 .5369-.0672.8054v.8053 1.3423 1.0067h.8054c.2685 0 .5369 0 .8725-.0671v.2014.1342c-.2013 0-.4027 0-.5369 0h-1.0067c-.2014 0-.4027 0-.5369 0 0-.2685 0-.5369.0671-.8054 0-.2684 0-.5369 0-.8053v-1.0739c-.0671-.2013-.0671-.4698-.0671-.7382zm5.5704 2.6174v.6041h.2685.3356c.1342 0 .2684 0 .4026-.0672.1343-.0671.2014-.1342.3356-.2013.0671-.0671.1342-.2013.2014-.3356.0671-.1342.0671-.2684.0671-.4698 0-.2013 0-.3355-.0671-.4027-.0672-.1342-.1343-.2013-.2685-.2684s-.2685-.1342-.4027-.1342-.3356-.0672-.5369-.0672h-.2685v.6041c-.0671.3355-.0671.5369-.0671.7382zm.7383-1.5436c.1342 0 .2684-.0671.4027-.1342.1342-.0671.2013-.1343.2684-.2685s.1343-.2684.1343-.4027c0-.1342 0-.2684-.0672-.4027-.0671-.0671-.1342-.2013-.2013-.2013-.0671-.0671-.2013-.0671-.3356-.1342-.1342 0-.2684 0-.3355 0-.1343 0-.2014 0-.2685 0s-.1342 0-.2013 0v.604.604.4698h.2013c.1342-.0671.2685-.0671.4027-.1342zm-1.2752-1.0738c0-.2685 0-.5369-.0671-.8054h.3356.3355.3356.3356c.2013 0 .3356 0 .4698.0671.1342 0 .2684.0671.4027.1342.1342.0672.2013.1343.2684.2685s.1343.2685.1343.4027c0 .3356-.0672.5369-.2685.7382-.2013.2014-.4698.2685-.7383.3356.3356 0 .6712.1342.8725.2685.2014.1342.3356.4027.3356.7382 0 .2014-.0671.4027-.1342.6041-.0671.1342-.2014.2684-.4027.4026-.1342.0672-.3356.1343-.4698.2014-.2014.0671-.3356.0671-.5369.0671-.0671 0-.2014 0-.2685 0s-.2013 0-.2684 0h-.2685c-.0671 0-.2013 0-.2685 0 0-.2685 0-.5369.0672-.8054 0-.2684 0-.5369 0-.8053v-1.0739c-.1343-.2013-.2014-.4698-.2014-.7382zm7.4497.4698c-.0671-.2685-.2014-.4698-.3356-.6041-.1342-.1342-.3356-.2684-.5369-.3355s-.4027-.1343-.6711-.1343c-.2685 0-.4698.0672-.6712.1343-.2013.0671-.4027.2013-.5369.3355-.1342.1343-.2685.3356-.3356.6041-.0671.2684-.1342.5369-.1342.8725 0 .3355.0671.604.1342.8724.0671.2685.2014.4698.3356.6041.1342.1342.3356.2684.5369.3355.2014.0672.4027.1343.6712.1343.2684 0 .4698-.0671.6711-.1343.2013-.0671.4027-.2013.5369-.3355.1342-.1343.2685-.3356.3356-.6041.0671-.2684.1342-.5369.1342-.8724 0-.3356-.0671-.6041-.1342-.8725zm-3.6913-.0671c.1342-.2685.2685-.537.4698-.6712.2014-.2013.4698-.3356.7383-.4027.2684-.0671.604-.1342.9396-.1342.3355 0 .6711.0671.9396.1342.2684.0671.5369.2685.7382.4027.2014.2014.3356.4027.4698.6712.1342.2684.2014.604.2014.9396 0 .3355-.0672.6711-.2014.9396-.1342.2684-.2684.4698-.4698.6711-.2013.2013-.4698.3356-.7382.4027-.2685.0671-.6041.1342-.9396.1342-.3356 0-.6712-.0671-.9396-.1342-.2685-.0671-.5369-.2014-.7383-.4027-.2013-.2013-.3356-.4027-.4698-.6711-.1342-.2685-.2013-.6041-.2013-.9396 0-.3356.0671-.6712.2013-.9396zm6.1074.8053h.2013c.1343 0 .2685 0 .4027-.0671.1343 0 .2685-.0671.4027-.1342s.2014-.2014.2685-.2685c.0671-.1342.1342-.2684.1342-.4698 0-.1342 0-.2684-.0671-.4027-.0671-.1342-.1343-.2013-.2014-.2684s-.2013-.1342-.3355-.1342c-.1343 0-.2014-.0672-.3356-.0672s-.2685 0-.3356 0-.2013 0-.2684 0v.6712.6711.3356c0 .1342.0671.1342.1342.1342zm-.6711-1.208c0-.2685 0-.5369 0-.8054h.3355.3356.3356.3355c.2014 0 .3356 0 .4698.0671.1343 0 .2685.0671.4027.1342.1342.0672.2014.2014.2685.2685.0671.1342.1342.2685.1342.4698s-.0671.3356-.1342.5369c-.0671.1342-.2014.2685-.3356.3356s-.2685.1342-.4027.2013-.2684.0671-.4027.1343c.0671.0671.1343.1342.2014.2684s.2013.2014.2684.3356c.1343.1342.2014.2684.3356.4027.1342.1342.2013.2684.3356.4027.1342.1342.2013.2684.3355.3355.0672.1342.2014.2014.2014.2685-.0671 0-.1342 0-.2014 0h-.3355c-.0671 0-.1342 0-.2014 0-.0671-.0671-.1342-.2014-.2684-.4027-.1343-.2013-.2685-.3356-.4027-.5369-.1342-.2014-.3356-.4027-.4698-.604-.1342-.2014-.3356-.3356-.4027-.4698h-.2013v.4698.8053.8054c-.0671 0-.2014 0-.2685 0-.1342 0-.2013 0-.3356 0 0-.2685 0-.5369 0-.8054 0-.2684 0-.5369 0-.8053v-1.0739c.0672-.2013.0672-.4698.0672-.7382zm7.3825.4698c-.0671-.2685-.2013-.4698-.3356-.6041-.1342-.1342-.3355-.2684-.5369-.3355-.2013-.0671-.4027-.1343-.6711-.1343-.2685 0-.4698.0672-.6712.1343-.2013.0671-.4026.2013-.5369.3355-.1342.1343-.2684.3356-.3355.6041-.0672.2684-.1343.5369-.1343.8725 0 .3355.0671.604.1343.8724.0671.2685.2013.4698.3355.6041.1343.1342.3356.2684.5369.3355.2014.0672.4027.1343.6712.1343.2684 0 .4698-.0671.6711-.1343.2014-.0671.4027-.2013.5369-.3355.1343-.1343.2685-.3356.3356-.6041.0671-.2684.1342-.5369.1342-.8724 0-.3356 0-.6041-.1342-.8725zm-3.6913-.0671c.1343-.2685.2685-.537.4698-.6712.2014-.2013.4698-.3356.7383-.4027.2684-.0671.604-.1342.9396-.1342.3355 0 .6711.0671.9396.1342.2684.0671.5369.2685.7382.4027.2014.2014.3356.4027.4698.6712.1343.2684.2014.604.2014.9396 0 .3355-.0671.6711-.2014.9396-.1342.2684-.2684.4698-.4698.6711-.2013.2013-.4698.3356-.7382.4027-.2685.0671-.6041.1342-.9396.1342-.3356 0-.6712-.0671-.9396-.1342-.2685-.0671-.5369-.2014-.7383-.4027-.2013-.2013-.3355-.4027-.4698-.6711-.1342-.2685-.2013-.6041-.2013-.9396.0671-.3356.0671-.6712.2013-.9396zm8.6577-.537c0-.3355 0-.5369 0-.6711h.1343.1342.2013c0 .1342 0 .3356-.0671.5369v.6712.6711.6711c0 .2685-.0671.537-.1342.7383s-.2013.4027-.3356.5369c-.1342.1342-.3355.2685-.5369.3356-.2013.0671-.4698.1342-.7382.1342-.6041 0-1.0739-.1342-1.3423-.4027-.2685-.2684-.4027-.7382-.4027-1.3423 0-.2013 0-.3355 0-.5369 0-.1342 0-.3355 0-.4698 0-.3355 0-.6711 0-.9396 0-.2684 0-.4698 0-.6711h.1342.1343.1342.1342v.3356.4698.604.6711.4027c0 .1342 0 .2685.0671.4698 0 .1342.0671.2685.1343.4027.0671.1342.1342.2685.2684.3356s.2014.2013.4027.2013c.1342.0671.3356.0671.604.0671.2014 0 .4027 0 .5369-.0671.1343-.0671.2685-.1342.4027-.2684.0671-.1343.2014-.2014.2014-.3356.0671-.1342.0671-.2685.1342-.4698 0-.1342.0671-.3356.0671-.4698s0-.2685 0-.4027c-.2685-.4027-.2685-.8725-.2685-1.2081zm4.9665-.1342c-.0671-.0671-.2014-.1342-.3356-.2013s-.2684-.0671-.4027-.1343c-.1342-.0671-.2684-.0671-.4698-.0671-.2684 0-.4698.0672-.7382.1343-.2014.0671-.4027.2013-.604.3355-.1343.1343-.2685.3356-.4027.6041-.0671.2684-.1343.5369-.1343.8724 0 .2685.0672.6041.1343.8054.0671.2685.2013.4698.3355.604.1343.1343.3356.2685.6041.4027.2013.0671.4698.1343.8053.1343h.2685c.0671 0 .2013 0 .2684-.0672.0672 0 .2014-.0671.2685-.0671s.1342-.0671.2013-.0671c0-.1342 0-.2684 0-.4027 0-.1342 0-.2684 0-.4027 0-.1342 0-.2684 0-.4026 0-.1343 0-.2685 0-.4027h.2685.1342.1343v.4698.8053.2685.2685c-.0672 0-.2014.0671-.3356.1342s-.2685.0671-.4027.0671-.2685.0671-.4698.0671c-.1342 0-.2684 0-.4027 0-.3355 0-.6711-.0671-1.0067-.1342-.2684-.0671-.5369-.2014-.7382-.4027-.2014-.2013-.3356-.4027-.4698-.6711-.1343-.2685-.1343-.6041-.1343-.9396 0-.3356.0671-.6712.2014-.9396.1342-.2685.2684-.537.4698-.6712.2013-.2013.4698-.3356.7382-.4027.2685-.0671.6041-.1342 1.0067-.1342.2014 0 .4027 0 .5369.0671.1343 0 .3356.0671.4027.0671.1343.0671.2014.0672.3356.1343.0671.0671.2013.0671.2685.1342-.0672.0671-.0672.1342-.0672.2013s-.0671.2014-.0671.2685h-.0671c.0671-.1342 0-.2014-.1342-.3356zm4.698.2685c0-.2685 0-.5369-.0671-.8054h.1342.1342.1342.1343c0 .2685 0 .5369-.0671.8054v.8053 1.0739.8053c0 .2685 0 .537.0671.8054-.0671 0-.2014 0-.2685 0-.1342 0-.2013 0-.2684 0 0-.2684 0-.5369.0671-.8054 0-.2684 0-.5369 0-.8053v-.5369c-.2014 0-.4027 0-.6712 0-.2013 0-.4027 0-.6711 0-.2014 0-.4698 0-.6712 0-.2013 0-.4026 0-.6711 0v.5369.8053c0 .2685 0 .537.0671.8054-.0671 0-.2013 0-.2684 0-.1343 0-.2014 0-.3356 0 0-.2684 0-.5369.0671-.8054 0-.2684 0-.5369 0-.8053v-1.0739c0-.2684 0-.5369 0-.8053 0-.2685 0-.5369-.0671-.8054h.1342.1343.1342.1342c0 .2685 0 .5369-.0671.8054v.8053.2014h.6711.6712.6711.6712v-.2014c.0671-.2684.0671-.5369.0671-.8053zm7.2483.4698c-.0671-.2685-.2013-.4698-.3356-.6041-.1342-.1342-.3355-.2684-.5369-.3355-.2013-.0671-.4027-.1343-.6711-.1343-.2685 0-.4698.0672-.6712.1343-.2013.0671-.4027.2013-.5369.3355-.1342.1343-.2684.3356-.3356.6041-.0671.2684-.1342.5369-.1342.8725 0 .3355.0671.604.1342.8724.0672.2685.2014.4698.3356.6041.1342.1342.3356.2684.5369.3355.2014.0672.4027.1343.6712.1343.2684 0 .4698-.0671.6711-.1343.2014-.0671.4027-.2013.5369-.3355.1343-.1343.2685-.3356.3356-.6041.0671-.2684.1342-.5369.1342-.8724 0-.3356-.0671-.6041-.1342-.8725zm-3.7584-.0671c.1342-.2685.2685-.537.4698-.6712.2014-.2013.4698-.3356.7383-.4027.2684-.0671.604-.1342.9396-.1342.3355 0 .6711.0671.9396.1342.2684.0671.5369.2685.7382.4027.2014.2014.3356.4027.4698.6712.1342.2684.2014.604.2014.9396 0 .3355-.0672.6711-.2014.9396-.1342.2684-.2684.4698-.4698.6711-.2013.2013-.4698.3356-.7382.4027-.2685.0671-.6041.1342-.9396.1342-.3356 0-.6712-.0671-.9396-.1342-.2685-.0671-.5369-.2014-.7383-.4027-.2013-.2013-.3356-.4027-.4698-.6711-.1342-.2685-.2013-.6041-.2013-.9396.0671-.3356.1342-.6712.2013-.9396zm5.4363-.4027c0-.2685 0-.5369-.0672-.8054h.537.5369.5369.604v.2013.2014c-.1342 0-.2685 0-.4027 0s-.3355 0-.4698 0c-.1342 0-.3356 0-.4698 0s-.2684 0-.4027 0v.4027.4027.4026.4027h.8054c.2685 0 .5369 0 .8054-.0671v.2014.2013c-.1343 0-.2014 0-.3356 0s-.2684 0-.4027 0c-.1342 0-.2684 0-.4027 0h-.4026v.5369.8054c0 .2684 0 .5369.0671.8053-.0671 0-.2014 0-.3356 0s-.2013 0-.2685 0c0-.2684 0-.5369.0672-.8053 0-.2685 0-.5369 0-.8054v-1.0738c0-.4698 0-.7383 0-1.0067zm-48.188-3.8926c-13.9597 0-26.44293-.6712-31.543597-3.8927 5.637587 3.5571 21.208097 3.0873 37.382597 3.0202h10.9396c17.114.0671 32.0805.4698 37.651-3.2886-5.7047 3.8926-20.4698 4.1611-37.651 4.0939-3.6242 0-7.3155 0-10.9396 0-1.9464.0672-3.8927.0672-5.839.0672zm22.8859 35.4362c13.9598 0 26.443.6711 31.5437 3.8926-5.6376-3.557-21.2081-3.0872-37.3826-3.0201-3.6242 0-7.3825 0-10.9396 0-17.1141-.0671-32.08053-.4698-37.650997 3.2886 5.704697-3.8926 20.469797-4.1611 37.650997-4.094h10.9396c2.0134-.0671 3.9597-.0671 5.8389-.0671zm-49.86574-16.1745c0-.6711.06712-1.3423.06712-2.0805v-2.7517c0-.6712 0-1.4094-.06712-2.0805 0-.6712-.06711-1.3423-.06711-2.0806.13423 0 .26845.0671.40268.0671h.40269.40268c.13423 0 .26846-.0671.40269-.0671 0 .6712-.06712 1.4094-.06712 2.0806 0 .6711-.06711 1.3422-.06711 2.0805v.8725c0 .0671 0 .1342.06711.1342.06712 0 .13423-.0671.20134-.1342.33557-.3356.73826-.6712 1.14094-1.0738.40269-.4027.80537-.8054 1.20806-1.2752.40268-.4027.80537-.8725 1.20805-1.3423.40264-.4698.80534-.8725 1.14094-1.2752.1342 0 .2013.0671.3356.0671h.3355.4027c.1343 0 .2685-.0671.4027-.0671-.4027.3356-.8054.6712-1.2752 1.141-.4698.4027-.9396.8725-1.40935 1.3422-.4698.4698-.9396.8725-1.34228 1.3423-.40269.4698-.80537.8054-1.07383 1.141.87248.9396 1.74497 1.9463 2.61745 2.953.87251 1.0067 1.74501 2.0134 2.68461 3.0201-.1343 0-.3356 0-.4698 0h-.9396c-.1343 0-.2685 0-.4027 0-.4027-.4027-.8054-.9396-1.27519-1.4765-.4698-.5369-.9396-1.0738-1.34229-1.6107-.4698-.5369-.80537-1.0067-1.20805-1.4094-.33557-.4027-.60403-.7383-.80537-.8725-.06711-.0671-.13423-.1342-.20134-.1342-.06712 0-.06712 0-.06712.0671v1.4094c0 .6711 0 1.4094.06712 2.0805 0 .6712.06711 1.3423.06711 2.0134-.26845 0-.4698 0-.80537 0-.26845 0-.53691 0-.80537 0 .06712-.7382.13423-1.4094.13423-2.0805zm9.66444-6.7785c0-.6712-.0671-1.3423-.0671-2.0806.1342 0 .2684.0672.4027.0672h.4026.4027c.1343 0 .2685-.0672.4027-.0672 0 .6712-.0671 1.4094-.0671 2.0806 0 .6711-.0671 1.3423-.0671 2.0805v2.7517c0 .6711 0 1.4094.0671 2.0805 0 .6712.0671 1.3423.0671 2.0135-.2684 0-.4698 0-.8054 0-.2684 0-.5369 0-.8053 0 0-.6712.0671-1.3423.0671-2.0135 0-.6711.0671-1.3423.0671-2.0805v-2.7517c0-.7382 0-1.4094-.0671-2.0805zm9.5302 4.698c-1.3423-1.4765-2.7517-2.9531-4.094-4.3625v1.2081 2.0134.8054 1.0067 1.0738 1.0067.8054.4698c-.2013 0-.3355 0-.5369 0-.2013 0-.4027 0-.604 0 0-.1342.0671-.2684.0671-.604 0-.2685.0671-.604.0671-1.0067s.0671-.8054.0671-1.2752.0671-.9396.0671-1.4094 0-.9396.0672-1.3423c0-.4698 0-.8725 0-1.208 0-1.0067 0-1.8792 0-2.6175 0-.7382 0-1.2751-.0672-1.6107h.2685c.6711.6711 1.3423 1.4765 2.0805 2.2148.7383.8053 1.4766 1.6107 2.2148 2.3489.7383.8054 1.4094 1.4766 2.0805 2.2148.6712.6712 1.2081 1.2752 1.6779 1.745v-2.1477c0-1.1409 0-2.2147 0-3.2214 0-1.0739-.0671-2.0135-.1342-2.9531.2013.0671.4027.0671.5369.0671s.2684 0 .5369-.0671c0 .2014-.0671.6041-.0671 1.0739s-.0671.9396-.0671 1.4765-.0671 1.0738-.0671 1.5436v1.208.9396 1.141 1.208 1.141.8725.5369h-.2014c-1.2752-1.4094-2.5503-2.8188-3.8926-4.2953zm15.7718-5.4363c-.2685-.2013-.4698-.3355-.8054-.4698-.2684-.1342-.604-.2684-.9396-.3355-.3355-.0672-.7382-.1343-1.1409-.1343-.6711 0-1.2752.0671-1.8121.2685-.5369.2013-1.0738.5369-1.4765.9396s-.7382.9396-1.0067 1.6107c-.2685.6712-.3356 1.4094-.3356 2.2819 0 .7383.1343 1.4765.3356 2.0805.2013.6041.5369 1.141.9396 1.5437.4027.4026.8725.7382 1.4765 1.0067.604.2013 1.2752.3355 2.0134.3355h.6712c.2684 0 .4698-.0671.7382-.0671.2014-.0671.4698-.0671.604-.1342.2014-.0671.3356-.1342.4698-.2013 0-.3356 0-.6041 0-.9396 0-.3356 0-.6712 0-.9396 0-.3356 0-.7383 0-1.141s-.0671-.7382-.0671-1.0738c.2685.0671.5369.0671.7383.0671h.3356c.1342 0 .2013 0 .3355-.0671 0 .2685-.0671.604-.0671 1.1409v2.0806.6711.6712c-.2013.0671-.4698.2013-.8054.2684-.3355.0671-.6711.1342-1.0738.2014-.4027.0671-.7382.1342-1.1409.1342-.4027.0671-.7383.0671-1.0067.0671-.9396 0-1.8121-.1342-2.5504-.3356-.7382-.2013-1.4094-.604-1.9463-1.0738s-.9396-1.0738-1.208-1.745c-.2685-.7382-.4027-1.5436-.4027-2.4832 0-.8725.1342-1.6778.4698-2.4161.2684-.6711.7382-1.2752 1.2752-1.8121.5369-.4698 1.208-.8725 1.9463-1.1409.7382-.2685 1.6107-.4027 2.5503-.4027.5369 0 1.0067 0 1.4094.0671s.8054.1342 1.1409.2014c.3356.0671.6041.2013.8725.2684.2685.1342.4698.2014.6712.2685-.0672.1342-.1343.3355-.2014.604-.0671.2013-.1342.4698-.1342.6711h-.2014c-.2684-.1342-.4698-.3355-.6711-.5369zm3.8255 8.0537c.1342.2014.3356.4027.5369.5369.2014.1343.4698.2685.7383.4027.2684.0671.604.1342.9396.1342.3355 0 .6711-.0671.9396-.2013.2684-.1342.5369-.2685.7382-.4698.2014-.2013.3356-.4698.4698-.7382.1343-.2685.1343-.6041.1343-.8725 0-.4698-.1343-.8725-.4027-1.141-.2685-.2684-.5369-.5369-.9396-.7382-.4027-.2014-.7383-.3356-1.2081-.5369-.4027-.1343-.8053-.3356-1.208-.6041-.4027-.2684-.6712-.5369-.9396-.9396-.2685-.4027-.4027-.8725-.4027-1.4765 0-.4698.0671-.8725.2684-1.208.1343-.3356.4027-.6712.6712-.9396.2684-.2685.6711-.4698 1.0738-.6041.4027-.1342.8725-.2013 1.4094-.2013s.9396.0671 1.3423.2013c.3356.1343.7382.3356 1.0067.537-.0671.2013-.2013.4026-.2685.604-.0671.2013-.1342.4698-.2013.7382h-.2013c-.0672-.1342-.1343-.3355-.2014-.4698-.0671-.2013-.2013-.3355-.3356-.4698-.1342-.1342-.3355-.2684-.5369-.4026-.2013-.1343-.4698-.1343-.7382-.1343-.2685 0-.5369.0671-.8054.1343-.2685.0671-.4698.2013-.6711.4026-.2014.2014-.3356.4027-.4027.6041-.0671.2684-.1342.5369-.1342.8053 0 .4698.1342.8725.4026 1.141.2685.2684.537.5369.9396.7382.3356.2014.7383.3356 1.2081.5369.4027.1343.8054.3356 1.208.537.4027.2013.6712.5369.9396.8724.2685.3356.4027.8054.4027 1.4094 0 .4698-.0671.9396-.2684 1.4094-.2014.4027-.4027.8054-.7383 1.141-.3356.3355-.7382.5369-1.208.7382-.4698.2014-1.0068.2685-1.6108.2685-.6711 0-1.208-.0671-1.6107-.2685-.4027-.2013-.7383-.4027-1.0067-.604.0671-.2685.1342-.4698.2013-.6711.0671-.2014.0671-.4698.1342-.7383h.2014c-.1342.1342 0 .3356.1342.5369zm10.0671-8.5906c-.2684 0-.5369 0-.8725 0-.2684 0-.604 0-.8724 0-.2685 0-.6041.0671-.8725.0671-.2685 0-.5369.0671-.7383.0671.0671-.2013.0671-.3355.0671-.5369 0-.1342 0-.2684-.0671-.4698.6712 0 1.4094.0671 2.0134.0671h2.0135 2.0134c.6711 0 1.3423-.0671 2.0134-.0671-.0671.2014-.0671.4027-.0671.5369 0 .1343 0 .2685.0671.4698-.2013 0-.4698-.0671-.7382-.0671-.2685 0-.6041-.0671-.8725-.0671-.2685 0-.6041 0-.8725 0-.2685 0-.604 0-.8725 0 0 1.0738-.0671 2.1477-.0671 3.2886v2.7517c0 .6711 0 1.4094.0671 2.0805 0 .6712.0671 1.3423.0671 2.0134-.2684 0-.4698 0-.8053 0-.2685 0-.537 0-.8054 0 0-.6711.0671-1.3422.0671-2.0134 0-.6711.0671-1.3423.0671-2.0805v-2.7517c.1342-1.0738.0671-2.1476.0671-3.2886zm15.1678 2.4161c-.2013-.6711-.5369-1.1409-.9396-1.6107-.4027-.4027-.8725-.7383-1.4094-.9396-.5369-.2014-1.1409-.2685-1.7449-.2685-.6041 0-1.2081.0671-1.745.2685-.5369.2013-1.0067.5369-1.4094.9396s-.7383.9396-.9396 1.6107c-.2014.6712-.3356 1.4094-.3356 2.2819s.1342 1.6107.3356 2.2819c.2013.6711.5369 1.1409.9396 1.6107.4027.4027.8725.7383 1.4094.9396.5369.2014 1.0738.2685 1.745.2685.604 0 1.208-.0671 1.7449-.2685.5369-.2013 1.0067-.5369 1.4094-.9396s.7383-.9396.9396-1.6107c.2014-.6712.3356-1.4094.3356-2.2819 0-.9396-.1342-1.6779-.3356-2.2819zm-9.5973-.1342c.2685-.6711.6711-1.2752 1.2081-1.8121.5369-.4698 1.1409-.8725 1.8791-1.1409.7383-.2685 1.5437-.4027 2.4162-.4027.8724 0 1.6778.1342 2.4161.4027.7382.2684 1.3422.604 1.8791 1.1409.537.4698.9397 1.0738 1.2081 1.8121.2685.6711.4027 1.4765.4027 2.4161 0 .8725-.1342 1.6779-.4027 2.4161-.2684.6711-.6711 1.2752-1.2081 1.8121-.5369.4698-1.1409.8725-1.8791 1.0738-.7383.2685-1.5437.3356-2.4161.3356-.8725 0-1.6779-.1342-2.4162-.3356-.7382-.2684-1.3422-.604-1.8791-1.0738-.537-.4698-.9396-1.0738-1.2081-1.8121-.2685-.6711-.4027-1.4765-.4027-2.4161s.1342-1.745.4027-2.4161zm18.7248 3.6913c-1.3423-1.4765-2.7516-2.9531-4.0939-4.3625v1.2081 2.0134.8054 1.0067 1.0738 1.0067.8054.4698c-.2014 0-.3356 0-.5369 0-.2014 0-.4027 0-.6041 0 0-.1342.0671-.2684.0671-.604 0-.2685.0672-.604.0672-1.0067s.0671-.8054.0671-1.2752.0671-.9396.0671-1.4094 0-.9396.0671-1.3423c0-.4698 0-.8725 0-1.208 0-1.0067 0-1.8792 0-2.6175 0-.7382 0-1.2751-.0671-1.6107h.2684c.6712.6711 1.3423 1.4765 2.0806 2.2148.7382.8053 1.4765 1.6107 2.2147 2.3489.7383.8054 1.4094 1.4766 2.0806 2.2148.6711.6712 1.208 1.2752 1.6778 1.745v-2.1477c0-1.1409 0-2.2147 0-3.2214 0-1.0739-.0671-2.0135-.1342-2.9531.2014.0671.4027.0671.5369.0671s.2685 0 .5369-.0671c0 .2014-.0671.6041-.0671 1.0739s-.0671.9396-.0671 1.4765-.0671 1.0738-.0671 1.5436v1.208.9396 1.141 1.208 1.141.8725.5369h-.2013c-1.2752-1.4094-2.5504-2.8188-3.8927-4.2953zm-67.3825 8.4563c0-.604 0-1.0067-.0671-1.208.0671 0 .1342 0 .2684.0671h.2014c.0671 0 .2013 0 .3355-.0671 0 .2684-.0671.604-.0671.9396s-.0671.7382-.0671 1.1409 0 .8725-.0671 1.2752v1.2752c0 .5369-.0671.9396-.2014 1.3423-.1342.4026-.3355.7382-.60398 1.0067-.26846.2684-.60403.4698-1.00671.604-.40269.1342-.87249.2013-1.34229.2013-1.14094 0-1.9463-.2684-2.48322-.7382-.53691-.4698-.73825-1.3423-.73825-2.4161 0-.3356 0-.6712 0-.9396 0-.2685 0-.537 0-.8725 0-.604 0-1.2081 0-1.6779s0-.8725-.06712-1.208c.06712 0 .20135 0 .26846.0671h.26846.26845c.06712 0 .13423 0 .26846-.0671 0 .1342 0 .4027-.06711.6711 0 .2685-.00001.5369-.06712.9396 0 .3356 0 .6712-.06711 1.0738v1.2081.8054c0 .2684.06711.5369.06711.8053.06711.2685.13423.5369.20134.7383.13423.2684.26846.4698.40269.604.20134.2014.40268.3356.73825.4027.26846.1342.67114.1342 1.07383.1342.40268 0 .73825-.0671 1.07382-.2013.26846-.1342.53692-.2685.67115-.4698.20134-.2013.33557-.4027.40268-.6711.13423-.2685.20134-.537.20134-.8054.06707-.2685.06707-.5369.06707-.8054s0-.5369 0-.7382c.1343-1.0739.1343-1.8792.1343-2.4162zm4.6308 2.6175c.2014 0 .4698 0 .7383-.0671s.4698-.1343.6711-.2685c.2014-.1342.4027-.3356.537-.604.1342-.2685.2013-.5369.2013-.9396 0-.3356-.0671-.604-.1342-.8054-.0671-.2013-.2014-.3355-.4027-.4698-.1342-.1342-.3356-.2013-.604-.2013-.2014-.0671-.4698-.0671-.8054-.0671h-1.0067v3.3557c.2684.0671.5369.0671.8053.0671zm-1.7449-2.4161c0-.4698-.0671-.9396-.0671-1.4765.2013 0 .3355 0 .5369.0671h.5369.3356.4026.4027.3356.4027c.1342 0 .3356 0 .5369.0671s.3356.0671.5369.2013c.2014.0672.3356.2014.4698.3356s.2685.3356.3356.5369c.0671.2014.1342.4698.1342.8054 0 .4698-.1342.8725-.3356 1.208-.2013.3356-.4698.537-.8053.7383-.3356.2013-.6712.2685-1.0067.3356-.3356.0671-.6712.0671-.9396.0671-.2014 0-.3356 0-.4698 0-.1343 0-.2685 0-.4698 0v.604 1.4765c0 .4698.0671.9396.0671 1.4094-.2014 0-.3356 0-.5369 0-.2014 0-.4027 0-.5369 0 0-.4698.0671-.9396.0671-1.4094s0-.9396 0-1.4765v-1.9463c.0671-.5369.0671-1.0067.0671-1.5436zm12.7517.8725c-.1343-.4698-.4027-.8054-.6712-1.141-.2684-.2684-.604-.5369-1.0067-.6711s-.8054-.2014-1.208-.2014c-.4027 0-.8725.0672-1.2081.2014-.4027.1342-.7383.3356-1.0067.6711-.2685.2685-.4698.6712-.6712 1.141-.1342.4698-.2684 1.0067-.2684 1.6107s.0671 1.1409.2684 1.6107c.1343.4698.4027.8054.6712 1.141.2684.2684.604.5369 1.0067.6711.4027.1343.8054.2014 1.2081.2014.4697 0 .8724-.0671 1.208-.2014.4027-.1342.7383-.3355 1.0067-.6711.2685-.2685.4698-.6712.6712-1.141.1342-.4698.2684-1.0067.2684-1.6107-.0671-.6711-.1342-1.208-.2684-1.6107zm-6.7786-.1343c.2014-.4698.4698-.9396.8725-1.2751.4027-.3356.8054-.6041 1.3423-.8054s1.0738-.2684 1.6779-.2684c.604 0 1.208.0671 1.7449.2684s.9396.4698 1.3423.8054c.4027.3355.6711.7382.8725 1.2751.2013.4698.3356 1.0739.3356 1.6779 0 .6711-.1343 1.208-.3356 1.6778-.2014.4698-.4698.9396-.8725 1.2752s-.8054.604-1.3423.8054c-.5369.2013-1.0738.2684-1.7449.2684-.6041 0-1.2081-.0671-1.6779-.2684-.5369-.2014-.9396-.4027-1.3423-.8054-.4027-.3356-.6711-.7382-.8725-1.2752-.2013-.4698-.3355-1.0738-.3355-1.6778s.1342-1.141.3355-1.6779zm13.2886 2.6846c-1.0067-1.0738-1.9463-2.0805-2.953-3.1544v.8725 1.4765.6041.7382.8054.7382.6041.3355c-.1342 0-.2685 0-.4027 0s-.2684 0-.4027 0c0-.0671 0-.2013.0671-.4026 0-.2014.0672-.4698.0672-.7383s0-.604.0671-.9396c0-.3356.0671-.6711.0671-1.0067s0-.6712 0-.9396c0-.3356 0-.604 0-.8725 0-.7382 0-1.3423 0-1.8792s0-.9396 0-1.1409h.2013c.4698.4698.9396 1.0067 1.4765 1.6107.537.5369 1.0739 1.141 1.5437 1.6779.5369.5369 1.0067 1.0738 1.4765 1.5436s.8725.9396 1.208 1.2752v-1.5437c0-.8053 0-1.5436 0-2.2818 0-.7383-.0671-1.4766-.0671-2.1477.1342.0671.2685.0671.4027.0671.0671 0 .2013 0 .3356-.0671 0 .1342 0 .4027-.0671.7383 0 .3355-.0672.6711-.0672 1.0738s-.0671.7382-.0671 1.0738v.8725.6711.8054.8725.8054.6711.4027h-.1342c-.8725-1.2081-1.745-2.2148-2.7517-3.2215zm8.9933-4.2953c-.2013 0-.4027 0-.604 0-.2014 0-.4027 0-.6712 0-.2013 0-.4026 0-.604.0671-.2013 0-.4027 0-.5369.0671.0671-.1342.0671-.2684.0671-.3355 0-.0672 0-.2014-.0671-.3356.4698 0 1.0067 0 1.4765.0671h1.4765 1.4765c.4698 0 .9396 0 1.4765-.0671-.0671.1342-.0671.2684-.0671.3356 0 .0671 0 .2013.0671.3355-.1342 0-.3355-.0671-.5369-.0671-.2013 0-.4026 0-.604-.0671-.2013 0-.4027 0-.6711 0-.2014 0-.4027 0-.6041 0v2.349 1.9463 1.4765c0 .4698.0672.9396.0672 1.4094-.2014 0-.3356 0-.537 0-.2013 0-.4026 0-.5369 0 0-.4698.0671-.9396.0671-1.4094s0-.9396 0-1.4765v-1.9463c-.0671-.7383-.0671-1.5436-.1342-2.349zm10.4027.8725c0-.4698-.0671-.9396-.0671-1.4765.0671 0 .2013 0 .2684.0671h.2685.2685c.0671 0 .2013 0 .2684-.0671 0 .4698-.0671 1.0067-.0671 1.4765v1.4765 1.9463 1.4765c0 .4698.0671.9396.0671 1.4094-.2013 0-.3356 0-.5369 0s-.4027 0-.5369 0c0-.4698.0671-.9396.0671-1.4094s0-.9396 0-1.4765v-1.0067c-.4027 0-.8054 0-1.2081 0-.4026 0-.8053 0-1.208 0s-.8054 0-1.2081 0c-.4026 0-.8053 0-1.208 0v1.0067 1.4765c0 .4698.0671.9396.0671 1.4094-.2013 0-.3356 0-.5369 0-.2014 0-.4027 0-.5369 0 0-.4698.0671-.9396.0671-1.4094s0-.9396 0-1.4765v-1.9463c0-.4698 0-1.0067 0-1.4765s-.0671-.9396-.0671-1.4765c.0671 0 .2013 0 .2684.0671h.2685.2684c.0672 0 .2014 0 .2685-.0671 0 .4698-.0671 1.0067-.0671 1.4765v1.4765.4027h1.208 1.2081 1.208 1.2081v-.4027c0-.4698 0-.9396 0-1.4765zm4.3624 2.8188h.604.6041.604.604l-1.2751-2.8859zm5.0336 3.4899c-.1343 0-.2014 0-.2685 0h-.604c-.0671 0-.2013 0-.2685 0-.0671-.2013-.1342-.4027-.2013-.604-.0671-.2685-.2014-.4698-.2685-.7383-.1342-.2684-.2013-.5369-.3355-.8053-.1343-.2685-.2014-.5369-.3356-.8054-.2685 0-.4698 0-.7383 0-.2684 0-.4698 0-.7382 0-.2014 0-.4698 0-.6712 0-.2013 0-.4698 0-.6711 0-.2684.604-.4698 1.1409-.6711 1.6778-.2014.537-.3356.9396-.4698 1.3423-.1343 0-.2685 0-.4027 0-.1343 0-.2685 0-.4027 0 .604-1.3423 1.208-2.6174 1.8121-3.9597.604-1.2752 1.1409-2.6175 1.7449-3.9597h.2014c.2013.4026.4027.9396.604 1.4094.2014.4698.4027 1.0067.6712 1.5436.2013.5369.4026 1.0067.6711 1.5436.2013.5369.4027 1.0067.604 1.4094.2014.4698.3356.8054.5369 1.2081-.0671.3355.0671.604.2014.7382zm3.557-4.7651c.5369 1.0067 1.0738 2.0134 1.6779 3.0873.0671-.1343.2013-.3356.3355-.6041.1343-.2684.3356-.604.4698-.9396.2014-.3355.4027-.7382.6041-1.1409.2013-.4027.4027-.8054.6711-1.2081.2014-.4027.4698-.8053.6712-1.208.2013-.4027.4026-.7383.604-1.1409h.1342c.0671.7382.1342 1.4093.2014 2.0805.0671.6711.1342 1.3423.2013 2.0134s.1342 1.2752.2013 1.9463c.0672.604.1343 1.2752.2685 1.8792-.0671 0-.2013 0-.2685 0h-.5369c-.0671 0-.2013 0-.2684 0-.0672-1.0067-.1343-1.9463-.2685-2.8859-.0671-.9396-.2013-1.8792-.3356-2.8859-.5369.9396-1.0067 1.8792-1.5436 2.8188-.4698.9396-1.0067 1.9463-1.4094 2.953h-.1342c-.4698-.9396-.9396-1.8792-1.4094-2.8188s-1.0067-1.9463-1.4765-2.8859c-.0671.4698-.1342.9396-.2014 1.5436-.0671.5369-.1342 1.0739-.2013 1.6108s-.0671 1.0067-.1342 1.4765-.0671.8725-.0671 1.1409c-.1343 0-.2685 0-.4027 0-.1343 0-.2685 0-.4027 0 .0671-.604.2013-1.2751.3356-1.9463.1342-.6711.2013-1.3423.3355-2.0134.0671-.6712.2014-1.3423.2685-2.0134.0671-.6712.1342-1.2752.2013-1.8792h.3356c.4698.9396 1.0067 2.0134 1.5436 3.0201zm7.7181-1.5436c0-.4698-.0671-.9396-.0671-1.4765.3356 0 .6712 0 1.0067.0671h1.0068 1.0067c.3355 0 .6711 0 1.0067-.0671v.3355.3356c-.2685 0-.4698 0-.6712-.0671-.2013 0-.4026 0-.604-.0671-.2013 0-.4698 0-.7382-.0671-.2685 0-.6041 0-.9396 0v.6711.7383.8725.604h.8724.7383c.2013 0 .4027 0 .604-.0671.2014 0 .3356 0 .5369-.0672 0 .1343-.0671.2014-.0671.3356s0 .2014.0671.3356c-.2013 0-.4027-.0671-.6711-.0671-.2685 0-.5369 0-.8054 0-.2684 0-.5369 0-.7382 0-.2014 0-.4027 0-.5369 0v.2013.2685 1.1409 1.0738.6041h.8053.8725c.2685 0 .5369 0 .8054-.0671.2684 0 .4698-.0672.604-.0672v.2014.2013c0 .1343 0 .2014.0671.2685-.3355 0-.6711 0-1.0067 0h-2.0805c-.3356 0-.6712 0-1.0067 0 0-.4698.0671-.9396.0671-1.4094s0-.9396 0-1.4765v-1.9463c-.1343-.3356-.1343-.8725-.1343-1.3423zm5.6376 5.2349c.0671.1342.2014.2684.4027.4027.1342.1342.3356.2013.5369.2684.2014.0671.4027.1343.6712.1343.2684 0 .4698-.0672.6711-.1343s.3356-.2013.5369-.3355c.1343-.1343.2685-.3356.3356-.537.0671-.2013.1342-.4026.1342-.604 0-.3356-.0671-.604-.2684-.8054-.2014-.2013-.4027-.4026-.6712-.5369-.2684-.1342-.5369-.2684-.8725-.4026-.3355-.1343-.604-.2685-.8724-.4027-.2685-.2014-.4698-.4027-.6712-.6712-.2013-.2684-.2684-.604-.2684-1.0738 0-.3356.0671-.604.2013-.8725.1342-.2684.2685-.4698.4698-.6711.2013-.2014.4698-.3356.8054-.4698.2684-.1343.6711-.1342 1.0067-.1342s.6711.0671.9396.1342c.2684.0671.5369.2013.7382.4027-.0671.1342-.1342.2684-.2013.4026-.0671.1343-.0671.3356-.1342.537h-.1343c-.0671-.1343-.0671-.2014-.1342-.3356s-.1342-.2685-.2685-.3356c-.1342-.1342-.2684-.2013-.4026-.2684-.1343-.0672-.3356-.1343-.5369-.1343-.2014 0-.4027.0671-.6041.1343-.2013.0671-.3356.1342-.4698.2684s-.2013.2685-.3355.4698c-.0672.2014-.1343.3356-.1343.5369 0 .3356.0671.6041.2685.8054.2013.2013.4027.4027.6711.5369.2685.1342.5369.2685.8725.4027s.604.2685.8725.4027c.2684.1342.4698.3355.6711.604.2014.2685.2685.604.2685 1.0067 0 .3356-.0671.6712-.2014 1.0067-.1342.3356-.3355.6041-.5369.8054-.2684.2013-.5369.4027-.8724.5369-.3356.1342-.7383.2014-1.141.2014-.4698 0-.8725-.0672-1.1409-.2014-.2685-.1342-.5369-.2684-.7383-.4027.0671-.2013.1342-.3355.1342-.4698 0-.1342.0672-.3355.0672-.5369h.1342c.0671.0671.1342.2014.2013.3356zm-39.2617-71.9463c-.0671 0-.0671 0-.1343.0671-.2684.0671-.4697.4027-.3355.6711.0671.2685.2684.4027.5369.4027h.2013c.0671 0 .0672 0 .1343-.0671.2684-.0671.604-.2013 1.1409-.3356l-.8054-.9396c-.3355.0671-.5369.1343-.7382.2014zm1.6778-.4698.8054.9396c.4027-.0671.8725-.1343 1.3423-.2014l-.8725-1.0067c-.4027.0671-.8725.1342-1.2752.2685zm2.8188-.4027c-.0671 0-.2013 0-.2684 0l.9396 1.1409c.604 0 1.1409.0671 1.6778.1343l-1.0738-1.2752c-.4698 0-.8725 0-1.2752 0zm4.4296 1.8121c.2684.1342.604-.0671.7382-.3356s-.0671-.604-.3356-.7383c-.0671 0-.8724-.2684-2.0805-.5369l1.2081 1.4094c.3355.1343.4698.2014.4698.2014zm17.7852 3.8255c-.0671.0671-.1342.1342-.1342.2684-.2014.3356-.2014.2685-.4027 0-.1342-.2684-.3356-.4698-.5369-.6711-.3356-.3356-.5369-.7383-.4698-1.2081-.2014.3356-.2685.6712-.2014 1.0739.0671.3355.2685.6711.4698.9396.3356.5369.3356.604-.2013.8724-.2685.1343-.604.2014-.9396.2685-.1342 0-.1342 0-.2014-.1342-.0671-.3356-.2684-.6712-.4698-.9396-.1342-.1343-.1342-.2685 0-.4027.2685-.2685.4698-.5369.6712-.8725.1342-.2685.3356-.4027.5369-.604.5369-.5369.6711-1.141.604-1.8792 0-.1342-.0671-.3356 0-.3356s.2014.2014.2014.2685c.2013.4027.4026.8725.6711 1.208.1342.1343.2013.3356.3356.4698.3355.3356.3355 1.141.0671 1.6779zm-3.4899 1.8121c-.2014 0-.3356.0671-.537.0671-.4698 0-1.0067.1342-1.4093.4027-.0672.0671-.2014.1342-.2685 0-.0671-.0672 0-.2014 0-.2685.1342-.4698.5369-.7383.8725-.9396.3355-.2013.604-.3356.9396-.5369.0671-.0671.2013-.0671.2013 0 .2014.3356.3356.6711.3356 1.0067.0671.2013 0 .2685-.1342.2685zm-1.9463 17.9194c.1342 0 .1342.0671.2013.2014 0 .2684 0 .4698-.1342.7382-.0672.1342-.0671.3356.0671.4027.3355.2685.4698.6711.604 1.0738.3356.8054 1.9463 2.0806 2.2148 2.4161.1342.1343.2013.4698.2013.7383 0 .4027-.2684 1.4094-.4027 1.5436-.1342.1342-.2684.2685-.4027.4027-.1342 0-.2684-.0671-.3355-.0671-.2685-.0671-.4027-.0671-.6712-.2014.0671-.0671.0671-.2013 0-.2684 0 .0671-.0671.1342-.1342.2013h-.0671c0-.0671.0671-.2013-.0671-.2684 0 .0671 0 .1342-.0671.2013h-.0672c0-.0671 0-.2013-.0671-.2684 0 .0671 0 .1342-.0671.2013.0671-.1342.0671-.2685-.0671-.3356 0 .1343-.0671.2014-.1342.2685 0 .0671-.0671.0671-.0671.0671h-.0672c0-.1342 0-.2013-.0671-.3356 0 .1343-.0671.2014-.1342.2685-.0671 0-.0671.0671-.1342.0671.0671-.1342.1342-.3356.1342-.4698-.1342.1342-.2685.2685-.4027.2685-.0671 0-.2013.0671-.2684.0671-.2014-.0671-.3356-.0671-.4698-.1343.1342-.1342.2013-.2013.2684-.3355.2014-.3356.1343-.8725-.0671-1.141.0671.4027-.6711.9396-.7382.8725 0 0 .0671-.2684.0671-.3356.0671-.4026-.1343-.7382-.4027-1.0738-.1342.4698-.604.7383-.6712 1.3423-.2013-.3356-.6711-.5369-.8053-.9396 0-.0671 0-.0671 0-.0671s-.4027.7382 0 1.4765l-.0671.0671c-.0672-.0671-.1343-.1342-.2014-.1342.0671-.1342.0671-.2685-.0671-.3356 0 .1342-.0671.2014-.1342.2685h-.0671-.0672c.0672-.1343.0672-.2685-.0671-.4027 0 .0671 0 .2013-.0671.2684-.0671-.0671-.1342-.0671-.2013-.0671h-.0671c0-.0671 0-.2013-.0672-.2684 0 .1342-.0671.2013-.1342.2684-.0671 0-.1342-.0671-.2684-.0671 0-.2684 0-.4698.0671-.7382 0-.3356 0-.7383.1342-1.0739.0671-.2013.0671-.4027.1342-.5369 0-.0671 0-.1342 0-.2013.0671 0 .1343 0 .2014-.0671.6711-.4698 1.4094-.5369 2.1476-.4698.2685 0 .4698.0671.6712 0 .3355 0 .5369-.2014.4698-.5369-.2014-.8054-.0671-1.6108 0-2.4162 0-.2013.0671-.2684.2684-.2684.2014.1342.4027.1342.6041.1342zm3.8255 9.5973c.1342.2685.0671.5369-.0672.7383-.2013.2684-.4698.4027-.8053.3356-.4698-.0672-.8725-.2014-1.4094-.2014s-1.0739.1342-1.5436.2685c-.7383.2013-1.4766.5369-2.2819.604-.9396.1342-1.8792 0-2.8188-.3356-.7383-.2684-1.4765-.4698-2.2148-.5369-.9396-.0671-1.8792.0671-2.6845.4027-1.6108.6711-3.2886.6711-4.9665.0671-1.0067-.3356-2.0805-.5369-3.1544-.4027-.5369.0671-1.0067.2014-1.5436.3356-1.6778.604-3.3557.6711-5.1007.0671-1.2751-.4027-2.6174-.604-4.0268-.2684-.604.1342-1.1409.4026-1.745.5369-1.0738.2684-2.0805.2684-3.1543-.1343-.5369-.2013-1.0067-.4026-1.6108-.5369-.604-.1342-1.1409-.1342-1.7449 0-.4027.0671-.8054 0-1.2081-.2013-.2684-.1342-.4027-.4698-.3356-.7383.0672-.1342.1343-.2684.2685-.2013.1342 0 .1342.1342.0671.2685-.0671.1342.0671.2013.2014.2013.1342 0 .2684-.0671.3355-.0671 1.0739-.4027 2.1477-.3356 3.2215.1342.6711.2685 1.3423.4698 2.0134.604.7383.1343 1.4765 0 2.2148-.2684 1.0738-.4027 2.1476-.604 3.2886-.5369.7382.0671 1.5436.2013 2.2147.4698.8725.3355 1.8121.5369 2.7517.4026.6712-.0671 1.2752-.2684 1.8792-.4698.8725-.3355 1.8792-.4697 2.8188-.4026 1.0738.0671 2.0806.4027 3.1544.6711 1.208.3356 2.4161.2013 3.6241-.2013 1.3423-.4698 2.6846-.6041 4.094-.3356.6711.1342 1.3423.4027 2.0134.604 1.141.2685 2.2148.2685 3.3557-.2013.6041-.2685 1.2752-.4027 1.8792-.5369.4027-.0671.5369 0 .7383 0 .4027.0671.8053.2013 1.2751.2684h.3356c.1342 0 .2685-.0671.2014-.2684 0-.0671 0-.2685.1342-.2685.2684-.0671.3356.0671.3356.1342zm-41.745-4.4295c.1342-.4027.3356-.6711.6711-.9396.3356-.2685.6041-.5369.9396-.7382.4027-.3356.7383-.6712.9396-1.141.1342-.2684.2685-.4698.4698-.6711.1342-.1343.2014-.3356.1342-.5369-.0671-.2685-.1342-.537-.1342-.7383 0-.1342 0-.2685.2014-.2013.2013.0671.4698.1342.7382.2013.0671 0 .1342.0671.1342.1342 0 .3356.0672.6041.1343.9396.0671.3356-.1343 1.2081-.1343 1.3423-.0671.604.0672.6712.537.6712.2684 0 1.812-.0672 2.2147 0 .8725 0 .9396.604 1.2752.4698 0 0 .0671 0 .0671.0671-.0671.8053 0 1.6107-.0671 2.4161 0 .1342 0 .2684-.0671.4698h-.0671c-.0672-.0671-.0672-.1343 0-.2685-.1343 0-.1343.1342-.1343.2014h-.0671-.0671s0 0 0-.0672c0-.0671-.0671-.1342 0-.2684-.1342 0-.1342.1342-.1342.2684v.0672c-.0671 0-.0671 0-.1343 0 0-.0672 0-.1343 0-.2014-.1342 0-.1342.1342-.1342.2014h-.0671c-.0671-.0672-.0671-.2014 0-.2685-.2013.0671-.2013.2013-.2013.3356 0 0-.0672 0-.1343 0 .1343-.2685.2014-.5369.2014-.7383-.2685.1342-.4698.2685-.7383.4027-.2684.1342-.4698.3356-.6711.5369.0671-.9396.0671-1.0738-.2685-1.4094-.0671.3356-.4027.604-.5369.8054-.1342-.3356-.2684-.6712-.4698-1.0067-.1342.4027-.4698.8053-.4027 1.3423-.2684-.1343-.4698-.2685-.7382-.4027 0 .4027.0671.6711.1342.8725h-.0671c0-.0672 0-.1343 0-.2014-.1342 0-.1342.1342-.1342.2014-.0672-.0672-.0672-.2014 0-.2685-.1343.0671-.2014.1342-.2014.2685h-.0671-.0671c0-.0672 0-.1343 0-.2014-.1342 0-.1342.1342-.1342.2014h-.0672c-.0671-.0672-.0671-.2014 0-.2685-.1342.0671-.2013.1342-.2013.2685-.0671 0-.0671 0-.1342 0-.0671-.0672-.0671-.2014 0-.2685-.1343.0671-.2014.1342-.2014.2685 0 0 0 0-.0671 0 0-.0672 0-.2014 0-.2685-.1342 0-.2013.1342-.2013.2685h-.0671c0-.0672 0-.2014 0-.2685-.1343.0671-.2014.1342-.2014.2685 0 0 0 0-.0671 0-.0671-.0672-.0671-.2014-.0671-.2685-.0671 0-.0671.0671-.0671.2013-.3356.0672-.604.2014-.8054.2685-.0671 0-.0671-.0671-.0671-.0671-.2013-.2014-.4698-1.0067-.5369-1.5436-.0671-.2685-.0671-.4698 0-.7383zm4.8993-8.9933c.2685-.2684.6712-.4698 1.0067-.604.0671 0 .0671 0 .1343-.0671.1342-.0671.1342-.0671.1342-.2685 0-.1342.3355-.4698.9396-.604.0671 0 .0671-.0671 0-.0671-.0671-.0671-.1342-.0671-.0671-.2014.0671-.1342.2013-.2013.3355-.1342.2014.0671.4027.2013.5369.3356.537.4027 1.141.6711 1.8121.8725.2014.0671.4027.1342.5369.3355l.0672.0671c.4026.2014.4698.6041.5369 1.0068.0671.4698.2013.9396.3355 1.3422.0672.1343 0 .2685.0672.4027.1342.604.4026.8725.5369.9396.0671 0 .2684.0671.2684 0 .0671 0 .0671-.2013.0671-.1342 0 0 .0671.1342.1343.1342.0671 0 .1342 0 .1342-.0671.0671-.0671.0671-.0671.0671-.2013 0-.1343-.0671-.5369-.0671-.6712-.0671-.1342-.0671-.2684-.0671-.4027 0-.0671 0-.1342 0-.2684.604 2.0805 1.7449 4.4966 3.557 6.4429-.0671.2685-.2684.8054-.2013 1.141-.3356-.4027-.6712-.4698-1.0067-.7383.0671.2014.1342.6712.3355 1.0067-.0671 0-.1342 0-.1342 0 0-.0671 0-.1342 0-.2013-.1342 0-.1342.0671-.1342.2013h-.0671c0-.0671-.0671-.1342 0-.2013-.1343 0-.1343.1342-.1343.2013 0 0 0 0-.0671 0 0-.0671 0-.0671 0-.1342 0-.3356.0671-.7383.2014-1.0738.1342-.5369.2013-1.141-.0671-1.6779-.1343.0671-.1343.2014-.2685.2014-.0671 0-.1342-.1343-.2685-.2685-.0671.2685-.2684.4027-.4698.5369-.0671.0671-.1342.0671-.2013-.0671-.1342-.2684-.2013-.5369-.1342-.8725 0-.0671 0-.1342-.0671-.1342-.0672 0-.1343.0671-.1343.0671-.2013.2685-.5369.4698-.6711.8054-.2013-.2685-.5369-.3356-.7383-.5369-.1342-.0671-.2013-.1343-.2684.0671-.0671.1342-.2014.3356-.3356.4027-.0671.0671-.0671.0671-.1342.1342-.0671.1342-.1342.1342-.2685.1342-.2684 0-.1342.3356 0 .5369l.1343.1343c0 .0671-.8725.0671-.9396.0671h-.0672c0-.1342-.4026-.604-.5369-.8054-.1342-.1342-.5369-.4698-.7382-.4698-.2685-.3356-.7383-.4027-1.0739-.4027-.3355 0-.7382.0671-1.0738.0671-.1342 0-.3355-.0671-.4698-.1342-.2684-.1342-.3355-.3356-.2684-.604.0671-.4698.2684-.9396.4027-1.3423.2684-.9396.4026-1.8121.2684-2.7517-.0671-.2013-.0671-.4027-.0671-.604 0-.1342-.0671-.2013-.2013-.1342-.0672.0671-.2014.0671-.2685 0-.2013-.1343-.4698-.2014-.6711-.2685-.4027-.2013-.4027-.3356-.2014-.4698zm4.2282-5.9731s.0671-.0672.0671-.2014 0-.604 0-.8054c0-.1342-.0671-2.1476.0671-2.2818.0671-.0671.0671-.0671.0671-.0671s0 0 .0672-.2014c.0671-.3356.2013-.4698.604-.6711.3356-.2014.8725-.2014 1.1409-.1343.1343 0 .3356.0672.5369.1343v8.0537c0 .5369.0671 1.3422.2685 2.2147-.0671-.2013-.2013-.4698-.2013-.5369s-.2685-.604-.3356-.6711c-.0671-.1343-1.2081-1.0738-1.2081-1.0738-.0671-.0672-1.208-1.141-1.2751-1.141 0 0-.0672-.0671 0-.1342 0-.0671.2013-.2014.0671-.4027-.2014-.1342-.2014-.2013-.2014-.3356 0-.1342 0-.4027 0-.4698s.2014-.2013.2685-.2684c.1342-.1343.2013-.4027.1342-.4027-.2013.2684-.8054-.0671-.0671-.604zm7.3825-7.047c-.1342-1.0738-.8053-2.6846-1.0738-3.2215.2685-.0671.7383-.2013 1.2081-.3356.2013.6712.8053 2.349.8725 3.0873.1342.9396.1342 2.6845.0671 3.1543h-1.0067c0-.0671.0671-.0671 0-.1342.0671-.2684-.0672-2.2147-.0672-2.5503zm.6712-5.6376c.4698-.2013 2.2819-.7383 4.4966-.7383h.2014v.0672c.2013.2013.3356.4698.4027.7382 0 .0671.0671.2014.0671.2685-.5369 0-1.9463.0671-2.1477.2013-.0671.0671-.2013.1342-.4027.3356-.0671.0671-.2013.2013-.2684.2684-1.2752.0671-2.7517.3356-3.7584.5369.7383-1.0067 1.2752-1.6107 1.4094-1.6778zm5.302 1.5436v.1342c0 .1343 0 .3356-.0671.4698v.0672c-.1342.4026-.4027.7382-.7383 1.0067-.1342-.5369-.3355-1.2081-.4026-1.4765-.0672-.1343-.1343-.2014-.2685-.1343-.2685.1343-.5369.4027-.7383.6712-.0671.0671-.1342.1342-.2013.2684-.2685.4698 0 .6712.2685.8054.4026.3356.9396.604 1.4094.7383h.0671.0671.1342c.4698 0 .8054-.4027 1.0067-.6712l.0671-.0671c.0672-.0671.1343-.1342.1343-.2013h.0671s.0671 0 .0671.0671.0671.1342.0671.2013.0671.1342.0671.2014c.1342.2684.2685.5369.5369.8053.0671.0671.3356.2685.4698.2685.0671 0 .0671 0 .0671-.0671 0 0 0-.0671 0-.1343 0-.2013-.0671-.4698-.1342-.7382-.0671-.2014-.1342-.4698-.2684-.6712-.0672-.0671-.0672-.1342-.1343-.2013s-.4027-.8725-.3355-.7383c.0671.1343.2013.4698.4698.6041.1342.0671.2684.0671.4026.0671h.1343c.1342 0 .2013 0 .2684-.0671.0671 0 .0671-.0671.0671-.0671 0-.0672 0-.0672-.0671-.0672s-.2684-.2013-.3355-.3355l-.0672-.0671c-.1342-.1343-.3355-.3356-.4698-.6041-.0671-.1342-.1342-.3355-.2013-.4698-.1342-.2684-.2013-.604-.2685-.9396 0 0 0 0 0-.0671 0 0 .2014.2014.2685.2014.3356.2684 1.2081.4698 1.6779.4698.2013.8724 0 2.0805-.0672 2.7516-.1342 1.0068-.2684 2.7517-.2013 4.5638h-.4698c-.2685-.2685-1.0738-.8725-2.953-1.0067-.0671 0-.2014 0-.2685 0-1.0738 0-2.4161.4027-3.2886.9396 0-.7383 0-2.0805-.1342-2.8859-.0671-.8054-.604-2.4161-.8725-3.1544.8725-.1342 1.6108-.2013 2.2819-.1342.2013 0 .2685-.1342.6711-.4698.0672-.0671.2014-.1342.2014-.2013.2684 0 1.2752-.0672 1.9463-.1343.1342.0671.1342.2685.0671.4698zm-3.2886 6.7785c.7383-.3355 1.6779-.5369 2.4832-.5369h.2014c1.1409.0671 1.8121.3356 2.1476.5369zm9.0604 4.7651c-.1342.1343-.2013.2014-.2013.4027-.2685 0-.5369-.2013-.604-.3355-.0672-.0672 0-.1343.1342-.1343.2684.2014.4698.1343.6711.0671zm.1342-.6711c-.2684.0671-.8053.2013-.8724-.1342.2684-.0671.4026-.3356.6711-.4027 0 .2013.0671.4027.2013.5369zm-.9395-.9396c.2684-.2013.604-.3356.8724-.4027.0671 0 .1343.0671.0671.1343-.2013.1342-.2013.2684-.2013.4026-.4027.0672-.5369.4698-1.0067.5369.0671.4698.8054.4698 1.208.3356.0672.0671 0 .2685-.0671.3356-.3355.0671-.4026.1342-.8724-.0671-.2685-.0671-.3356.1342-.2685.2684.1342.2014.3356.5369.8054.5369 0 .2014.0671.2685.2013.4027.0671.0671 0 .1343-.0671.1343-.2685-.0672-.6711-.2014-.9396-.4027-.4698-.4027-.7383-.6041-1.2081-.6041-.2684 0-.604 0-.9396.1343-.1342.0671-.0671.2013.2014.4027-.2014 0-.5369-.1343-.604-.1343-.3356-.1342-.1343-.2013 0-.2013-.2014.1342-.4027.2013-.4027.2013-.2685.1343.6711.4027 1.208.5369-.0671.0672-.0671.0672-.1342.1343-.1342.0671-.2685.1342-.4027.0671-.4698-.1342-.8054-.2685-.8725-.3356-.2684-.1342-.7382-.0671-.9396-.0671-.7382.1342-1.7449.1342-1.7449.1342-.4027 0-.4698.1343-.4698.2685-.1343-.0671-.1343-.0671-.2685-.2014-.0671-.0671 0-.1342.0671-.2013-.0671 0-.3355.0671-.5369.0671.1342.1342.4698.3356.6712.4698 0 .0671-.0672.2014-.0672.2685-.2684-.2014-.7382-.5369-1.0067-.6041-.2013 0-.4698 0-.6711 0h.0671c.4698.0672 1.1409.6041 1.5436.8054-.0671.2014-.2684.2685-.4027.1342-.4026-.3355-1.0067-.7382-1.4094-.8053-1.6107-.1343-3.0201-.3356-3.4228-.3356-.4698 0-1.8792-.0671-1.8792-.0671-.3355 0-.604-.1342-.7382-.2685-.1343-.0671-.3356-.2684-.2014-.4027.0671-.0671.1343-.0671.1343-.0671h.0671c.0671 0 .9396.1343.8725-.1342.2013.0671.8053.3356 1.2751.2013 0 0-.8725-.2013-1.2751-.4026-.4027-.1343-.8725-.1343-1.0068-.1343-.1342 0-.1342-.0671-.1342-.1342-.0671-.5369 2.953-1.2752 5.1007-1.5436.7382-.1342 1.4765-.604 2.0805-.9396.2685-.1342.6041-.2014.8725-.0671-.5369.2013-1.4765.6711-1.208.8725h.4698c-.4698-.1343.604-.6041 1.0067-.7383.1342.0671.2684.0671.4027.1342-.4027.2014-.8725.4027-.9396.5369-.0672.0672 0 .1343.0671.1343.2684 0 .2013 0 .3355.0671-.4026-.1342.537-.5369.7383-.604.2013.0671.3356.1342.5369.1342-.2013.1342-.3356.2013-.604.3356-.3356.2013-.0671.2684-.0671.2684.9396.1342 1.7449.3356 2.349.4698.0671 0 .4026 0 .6711-.0671.2013-.0671.4027-.1342 1.0067-.2013.1342 0 .2014.1342.1342.2013-.3355 0-.7382.2013-1.0067.2684-.1342 0-.2684 0-.4027 0 .2014.0672.4698.2014.6712.2685-.0671-.0671-.2014-.1342.0671-.2013.0671 0 .3356-.0671.5369-.1343-.3356.1343-.2684.3356-.1342.3356.4027.1342.6711.1342.9396.1342.5369 0 .8054-.1342 1.2752-.604zm2.4832-3.2215c.4027 0 .8725.0671 1.2751.2014.2685.0671.4027.4027.4027.6711.0671.3356 0 .6712 0 1.0067-.0671.4027 0 .8054.0671 1.141.0672.3355.0672.604 0 .9396 0 .1342 0 .2013.0672.2684.1342.2014.2013.4027.1342.604-.0671.1343.0671.2014.2013.2014.2014 0 .2014.0671.2014.2013 0 .0671 0 .1343-.0671.2685-.0672.2684-.0672.4698 0 .7382.0671.2685.1342.4698.1342.8054.1342-.0671.2013-.1342.2684-.1342.0672.1342 0 .2013-.0671.2684-.0671.0672-.2013.1343-.2684.1343-.2014.0671-.3356.1342-.5369.2684-.4698.4027-.9396.6712-1.4094 1.0067 0 0-.537.4027-.8725 1.2081-.0671.2684-.2014.5369-.2685.8054.2014-.8725.2685-1.6779.2685-2.2819v-8.2551h-.0671c.2013-.0671.3355-.0671.5369-.0671zm-1.3423 12.8188v.0671c-.0671-.0671-.0671-.0671 0-.0671zm-11.4094 6.9799c.1342.0671.2013.1342.3356.2013-.1343 0-.2685 0-.4027 0 0 0 .0671-.1342.0671-.2013zm8.6577-4.094c-.0671.0671-.1342.1343-.1342.2685-.2014 0-.4027-.1342-.4027-.2014 0-.0671 0-.1342.0671-.0671.1342.0671.2685 0 .4698 0zm.0671-.4698c-.2013.0671-.5369.1343-.604-.0671.2013-.0671.2685-.2684.4698-.2684 0 .0671 0 .2013.1342.3355zm1.2752-4.6308c-.1342.0671-.2013.2013-.2013.3355-.2014 0-.4698-.2013-.537-.2684-.0671-.0671 0-.1343.1343-.1343.2684.2014.4027.1343.604.0672zm.1342-.6041c-.2013.0671-.6711.2014-.7382-.1342.2684-.0671.3355-.3356.604-.3356-.0671.2014 0 .3356.1342.4698zm-12.7517.3356c-.3355-.1342-.7382-.0671-.8724-.0671-.1343 0-.1343-.0671-.1343-.1342-.0671-.4698 2.5504-1.0739 4.4296-1.3423.604-.0671 1.2751-.5369 1.812-.8054.2014-.1342.537-.1342.7383-.0671-.4698.1342-1.2752.604-1.0738.7382h.4027c-.4027-.1342.5369-.5369.8724-.6711.1343.0671.2685.0671.3356.1342-.3356.1343-.7382.3356-.8054.4698-.0671.0671 0 .1343.0672.1343h.3355c-.3355-.1343.4698-.4698.6712-.5369.2013.0671.2684.0671.4698.1342-.2014.0671-.2685.1342-.4698.2684-.2685.2014-.0671.2014-.0671.2014.8053.1342 1.4765.2684 2.0805.4027.0671 0 .3356 0 .5369-.0672.1342-.0671.4027-.1342.8725-.2013.1342 0 .2013.1342.1342.2013-.3356 0-.604.1343-.8725.2014-.1342 0-.2684 0-.3355 0 .1342.0671.4026.2013.604.2013-.0671-.0671-.1342-.1342.0671-.2013.0671 0 .3356-.0671.4698-.0671-.2685.1342-.2685.2684-.1342.3355.3355.0672.5369.1343.8053.1343.4027 0 .6041-.1343 1.0068-.5369.2013-.2014.5369-.2685.7382-.3356.0671 0 .1342.0671.0671.1342-.1342.1342-.2013.2685-.2013.4027-.3356 0-.4698.4027-.8725.4698.0671.4027.6711.4027 1.0738.2685.0671.0671 0 .2684-.0671.2684-.2684.0671-.4027.1342-.8054-.0671-.2013-.0671-.2684.1342-.2013.2013.1342.1343.2685.4698.7383.4698 0 .1343 0 .2685.2013.3356.0671.0671 0 .1342-.0671.1342-.2685-.0671-.604-.1342-.8054-.3355-.4027-.3356-.6711-.5369-1.0067-.5369-.2013 0-.4698 0-.8054.1342-.0671 0-.0671.2013.2014.3356-.2014 0-.4698-.1343-.4698-.1343-.2685-.1342-.1343-.1342 0-.2013-.2014.0671-.3356.0671-.3356.0671-.2685.1342.604.4027 1.0738.4698-.0671 0-.0671.0671-.0671.0671-.0671.0671-.2013.1342-.3356.0671-.4026-.1342-.6711-.2684-.7382-.2684-.2014-.0671-.6712-.0671-.8054-.0671-.604.0671-1.4765.1342-1.4765.1342-.3356 0-.4027.0671-.4027.2013-.0671-.0671-.1342-.0671-.2013-.1342s0-.1342.0671-.1342c-.0671 0-.2685.0671-.4698.0671.1342.1342.4027.2684.5369.4027 0 .0671 0 .1342-.0671.2013-.2685-.1342-.6711-.4698-.8725-.5369-.2013 0-.4027 0-.604 0h.0671c.4027.0671.9396.5369 1.3423.7383-.0671.2013-.2685.2684-.4027.1342-.3356-.2685-.8725-.6712-1.2081-.6712-1.3422-.1342-2.6174-.2684-2.953-.3355-.4027 0-1.6107-.0671-1.6107-.0671-.2685 0-.5369-.1343-.6712-.2014-.0671-.0671-.2684-.2684-.2013-.3356.0671-.0671.0671-.0671.1342-.0671h.0671c.0672 0 .8054.1343.8054-.0671.2014.0671.6712.3356 1.0738.2014-.2684.0671-1.0067-.1343-1.4094-.2685zm1.0739 5.1007c-.2685-.1343-.6041-.0671-.6712-.0671s-.0671-.0672-.1342-.1343c-.0671-.3355 2.0805-.8724 3.557-1.0738.4698-.0671 1.0068-.4027 1.4766-.6711.2013-.1343.4026-.1343.604-.0672-.4027.1343-1.0067.4698-.8725.6041h.3356c-.3356-.0671.4027-.4027.7382-.5369.0671.0671.2014.0671.2685.0671-.2685.1342-.604.2684-.6712.3355 0 .0672 0 .0672.0672.1343h.2684c-.2684-.0671.4027-.3356.5369-.4027.1343.0671.2014.0671.3356.1342-.1342.0671-.2013.1343-.4027.2014-.2013.1342 0 .1342 0 .1342.6712.0671 1.2081.2013 1.6779.3356.0671 0 .2684 0 .4698-.0672.1342-.0671.2684-.1342.6711-.1342.0671 0 .1342.0671.0671.1342-.2684 0-.4698.1343-.6711.1343-.0671 0-.2014 0-.2685 0 .1342.0671.3356.1342.4698.2013-.0671 0-.1342-.0671.0671-.1342.0671 0 .2685-.0671.4027-.0671-.2013.1342-.2013.2013-.1342.2684.2684.0671.4698.0671.604.0671.2685 0 .4698-.1342.8054-.4026.2013-.1343.4027-.2014.604-.2685.0671 0 .1342.0671.0671.1342-.1342.0671-.1342.2014-.1342.2685-.2685 0-.4027.3356-.6711.4027.0671.3355.5369.3355.8724.2013.0672.0671 0 .2014-.0671.2014-.2684.0671-.2684.0671-.604-.0672-.1342-.0671-.2685.1343-.2013.2014.0671.1342.2684.4027.604.4027 0 .1342 0 .2013.1342.2684.0671.0671 0 .1343-.0671.1343-.2013-.0672-.4698-.1343-.6711-.2685-.3356-.2685-.537-.4027-.8054-.4027-.2014 0-.4027 0-.6712.1342-.0671 0-.0671.1343.1343.2685-.1342 0-.3356-.0671-.4027-.0671-.2014-.0671-.0671-.1342 0-.1342-.1342 0-.2685.0671-.2685.0671-.2013.0671.4698.2684.8725.3355l-.0671.0672c-.0671.0671-.2013.0671-.2685.0671-.3355-.0671-.5369-.2014-.604-.2014-.2013-.0671-.5369-.0671-.6711-.0671-.4698.0671-1.2081.0671-1.2081.0671-.2684 0-.3355.0671-.3355.2014-.0672-.0671-.1343-.0671-.2014-.1343-.0671-.0671 0-.0671.0671-.1342-.0671 0-.2684.0671-.3355.0671.0671.0671.3355.2014.4698.3356 0 .0671 0 .1342-.0672.2013-.2013-.1342-.5369-.3355-.6711-.4026-.1342 0-.3356 0-.4698 0h.0671c.3356 0 .8054.4026 1.0738.604 0 .1342-.2013.2013-.3355.1342-.2685-.2013-.6712-.5369-1.0067-.5369-1.0739-.1342-2.0806-.2013-2.4162-.2685-.3355 0-1.2751-.0671-1.2751-.0671-.2014 0-.4027-.0671-.5369-.2013-.0671-.0671-.2014-.2014-.1343-.2685 0-.0671.0672-.0671.0672 0h.0671c.0671 0 .6711.1343.604-.0671.1342.0671.5369.2685.8725.1342-.0671-.0671-.6712-.2013-1.0067-.3355zm.8053 3.8255c0-.0671 0-.0671-.0671-.1343.1342.1343.2685.2014.4027.3356-.0671.0671-.2685.4027-.2685.4027s.0001-.3356-.0671-.604zm8.0537.8725c-.0671 0-.1342 0-.2013 0 0-.1343 0-.2014-.0671-.2685 0 .1342-.0671.2013-.1343.2685-.0671 0-.1342 0-.1342 0 0-.0672 0-.2014-.0671-.2685 0 .1342-.0671.2013-.1342.2685-.1342 0-.2685 0-.2685 0-.0671 0-.0671 0-.1342 0 .3356-.2685.6711-.537 1.0067-.8054 0 .4027.0671.604.1342.8054zm8.7249-11.5437c.2013-.0671.4026-.1342.604-.0671.1342 0 .2013.1342.3356.2014.1342.0671.2013.1342.3355.2684.0671 0 .1343.0671 0 .1342-.1342.0672-.0671.1343 0 .1343.4027.2013.6712.5369 1.0067.8053.2014.1343.4027.2685.6041.4027.0671 0 .1342.0671.1342.1343 0 .0671-.0671.0671-.1342.0671-.4027.1342-.7383.2684-1.0739.5369-.0671.0671-.1342.0671-.0671.1342 0 .0671 0 .1342-.0671.1342-.3356.7383-.4027 1.4094-.0671 2.1477.2013.4698.4027.8725.604 1.3423.2014.2684.2685.604.4027.9396.0671.2013-.1342.4027-.3356.4698-.3355.1342-1.6778.2013-1.9463.2013-.0671 0-.1342 0-.2013.0671-.2685.1343-.5369.2685-.8054.3356-.3355.1342-.5369.4027-.7382.7383-.0671.1342-.1343.2684-.2014.3355-.0671 0-.0671 0-.1342 0-.3356-.0671-.5369-.0671-.7383-.0671-.2013 0-.4026.0671-.4026.0671-.1343 0-.1343 0-.1343-.1342s-.0671-.2685-.0671-.4698c-.0671-.3356-.2684-.5369-.604-.604-.2685-.0671-.4027.0671-.5369.1342-.1343.0671-.2014.0671-.2685-.0671-.2013-.4698-.2013-.4698-.5369-.0671-.1342.2013-.3356.2684-.4698.4698-.0671.1342-.2013.2013-.3356 0-.1342-.1343-.2684-.2685-.4698-.4698 0 .2013 0 .4027.0672.5369.2684.6711.2684 1.2751.0671 1.9463-.0671.2013-.0671.4698-.1343.7382-.1342 0-.3355 0-.4698 0-.1342-.0671-.1342 0-.1342 0 .4698-.4698.604-.8053.3356-1.3422-.2014.2013-.4027.4026-.6712.5369 0-.3356-.4026-.7383-.5369-1.0067-.0671.2684-.3355.6711-.3355.9396-.1343-.0671-.2014-.1343-.3356-.2014 1.745-1.6778 2.8859-3.7584 3.6241-5.7047v1.0067c0 .1343.2014.2014.2014.2014l.2013-.4698v.3355c.0672.2014.2014.1343.2685.0672.2013-.2685.4027-.5369.4698-.9396 0-.2685 0-.5369 0-.8054 0-.1342 0-.2685.0671-.3356.1342-.2013.1342-.4027.2013-.604 0-.4027.1343-.7383.2685-1.0738.2685-.6041.6711-1.0739 1.3423-1.2752.604-.2685 1.208-.4698 1.8121-.8054zm-30.4698-11.8792c-.0672.0672-.1343 0-.2014-.0671-.4698-.3355-1.2751-.4027-1.6778-.4027-.3356 0-.3356-.0671-.4027-.4026 0-.0672 0-.1343 0-.1343 0-.3355.1342-.604.2013-.9396 0-.0671.0671-.1342.1343-.0671.4697.2685.9395.4698 1.3422.8054.3356.2684.4698.604.6712.9396.0671.1342.0671.2013-.0671.2684zm42.4161-7.1141c-.0671.1343-.1343.3356-.1343.4698 0 .4027 0 .8725-.0671 1.2752-.0671.2014-.0671.3356-.2684.4698-.0671-.5369-.2685-.9396-.6041-1.3423-.3355-.3355-.6711-.6711-1.0738-1.0067.0671.2014.0671.2685.1342.4027.2014.4027.4699.8054.6041 1.2752.1342.4027.2013.7382.0671 1.1409 0 .0671 0 .2014-.1342.2014-.0672 0-.1343-.0672-.1343-.1343-.1342-.2013-.2684-.3355-.4027-.5369-.2684-.4027-.4697-.8054-.8724-1.0067-.3356-.2013-.4698-.4027-.3356-.7383-.2685.4027-.2685.8725-.3356 1.2752-.1342.4698-.2684.8054-.604 1.141.0671-1.0068-.4027-1.8121-.8054-2.6846-.1342.604-.0671 1.1409.0671 1.6778.1343.3356.2014.6041.2014 1.0068 0 .1342-.0671.1342-.1342.0671-.2685-.2014-.4698-.4027-.6041-.6712-.0671-.2013-.2013-.4698-.3355-.6711-.1343-.1342-.2685-.3356-.537-.3356.2685.2014.4027.4698.4027.7383 0 .604.2685 1.0738.6712 1.4765.3355.3356.3355.5369 0 1.0067-.0671.0671-.1343.2013-.2014.1342-.0671 0-.1342-.1342-.2013-.2013 0-.0671 0-.1343-.0671-.1343s-.0671.0672-.0671.1343c.0671.2013.0671.5369.0671.5369s-.3356.2684-.6041.3356c0 0-.2684.1342-.2684 0 0-.4698-.1342-.9396-.2685-1.4094-.0671-.2685 0-.6041-.0671-.8725-.0671 0-.1342.0671-.1342.1342-.1342.3356-.2013.604-.2685 1.0067 0 .4027.0671.8054.1343 1.141.0671.3355-.0672.604-.4027.7382-.2685.1342-.4698 0-.6712-.2684-.0671-.0672-.1342-.2014-.1342-.2685-.1342-.2685-.2013-.4698-.3356-.7383-.1342-.2013-.2684-.4026-.4698-.5369.1343.2685.2014.5369.2685.8054.1342.604.1342 1.2081.6711 1.6107.0672.0672 0 .2014-.0671.2685 0 0-.0671.0671-.1342.0671-.5369-.2684-1.0067-.5369-1.1409-1.208 0-.1343-.0672-.2685-.1343-.3356 0 .2684-.0671.4698-.0671.7382 0 .2014.0671.4027.1342.6041.1343.2013.2685.3355.4698.4698.0672 0 .0672.0671.0672.1342s-.0672.0671-.0672.0671c-.604.0671-1.208.0671-1.6107-.4698-.1342-.2013-.2685-.3356-.4698-.4698-.0671-.0671-.1342-.0671-.1342 0-.0671.0671 0 .1342.0671.1342.2013.2685.4027.537.5369.8054.1342.2014.3356.3356.604.4027.3356.0671.6712.0671.9396 0 .2014 0 .4027 0 .5369.1342-.1342.1342-.2684.0671-.4026.2014-.2014.2684-.4027.4026-.7383.5369-.4698.2013-.8725.4027-1.3423.4698-.1342 0-.2684.0671-.2684.2013-.0672.3356-.2014.6712.0671 1.0738.2013.2014.3355.4027.604.3356.2013 0 .3356-.0671.5369-.1342.2014-.0671.4027-.1342.6712 0 .2013.1342.2684.4027.0671.5369-.2685.1342-.5369.2013-.8054.0671-.2013-.0671-.2685-.0671-.2013.1342v.2014c.0671.1342 0 .2013-.1343.2013-.2684.0671-.5369.2014-.7382.4027-.2685.2685-.5369.5369-.8725.7383-.2013.1342-.2685.1342-.2685-.1343-.1342-.6711-.2684-1.2751-.3355-1.9463-.0671-.2013-.1343-.5369-.2014-.604-.1342-.1342-.4027-.2013-.4698-.2685-.1342 0-.2013 0-.3355 0-.7383-.1342-1.4766-.2684-2.1477-.3355-.1342 0-.2685 0-.4027 0-.2684 0-.5369.2013-.8053.2684-.2014 0-.3356.0671-.4698.1343 0 0-.2685.3355-.537.6711h-.8724v-.1342c-.0672-1.8121.0671-3.5571.2013-4.6309.0671-.3356.0671-.6711.1342-1.0738.0671.0671.0671.2013.1343.3355.0671.3356.0671.6712 0 .8725 0 .0671 0 .2014-.0672.2685-.0671.2013-.0671.4698-.0671.6711 0 .2685.0671.5369 0 .7383v.0671h.0671.0672s.4698-.2685.6711-.4027c.1342-.1342.4698-.5369.5369-1.0067 0-.1342 0-.2685-.0671-.4027-.0671-.3356-.0671-.4027-.0671-.4027h.0671s.4027.4698 1.208.5369c0 0-.2013-.604-.604-1.0738-.2013-.2684-.4698-.5369-.8725-.8054 0 0 0 0-.0671-.0671 0-.0671-.0671-.0671-.0671-.1342v-.0671s0-.0671.0671-.0671h.0671.1343c.4027.1342.8053.4027 1.1409.604 0 0 .1342.0671.3356.2013.4027.2685 1.1409.7383 1.2751.8054.1343.0671.537.2685 1.0068.2685.4026 0 .8724-.1343 1.2751-.4027.4027-.2014.6712-.4698.9396-.7383.6041-.5369.4698-1.3422.4698-1.3422-.0671-.2685-.2013-.4027-.5369-.537-.1342-.0671-.2685-.0671-.4027-.1342h-.0671-.0671c-.0671 0-.1342.0671-.1342.0671-.1343.2014-.2685.4698-.2685.7383v.3355.2014.1342c0 .2014.1342.4027-.0671.4698-.2013.1342-.5369-.0671-.5369-.0671-.1342-.0671-.4027-.1342-.6712-.2685-.5369-.2013-1.8792-.8053-2.2818-1.0067.4026.0671 1.3422.1343 1.6778.1343h.1342c.2014 0 .3356-.0672.4698-.1343.0672-.0671.1343-.0671.1343-.1342s-.0671-.0671-.1343-.1342c-.0671 0-.0671-.0671-.1342-.0671 0 0 0 0-.0671 0-.2013-.0671-.6711-.2685-.9396-.3356.2685-.0671 1.1409-.2685 1.3423-.5369.2013-.2685.1342-.8054.1342-1.0067 0-.2685-.0671-.5369-.0671-.7383h.3356c.0671 0 .1342.0671.2684.0671.4027.1343 1.141.4698 1.4765.4698h.0671c.1343 0 .2685-.0671.4698-.0671.2014-.0671.4027-.0671.6041-.0671.0671 0 .1342 0 .1342-.0671s0-.0671 0-.1342c-.0671-.0672-.0671-.1343-.1342-.2014s-.0671-.2013-.1343-.2684c-.1342-.1343-.7382-.8054-1.4765-.8054-.0671 0-.0671 0-.1342 0h.0671c.4027-.0671.6712-.3356.8725-.604.2013-.2685.2685-.5369.2013-.8725l-.0671-.0671h-.0671c-.0671 0-.1342 0-.2013 0-.1343 0-.3356.0671-.4698.0671-.4027.0671-.7383.2013-1.0738.4027-.1343.0671-.3356.2684-.4027.3355-.2014.2014-.4698.3356-.8725.4027-.0671 0-.1342.0671-.1342.1342-.2014.2014-.4027.4027-.6041.6041l-.2684.2684-.0671.0671s0 0 .0671-.0671c.1342-.1342.9396-1.0738 1.0738-1.3422.1342-.2014.2685-.3356.3356-.537.1342-.1342.2013-.2684.3355-.4698 0 0 1.5437-2.2147 1.745-2.4832 0 0 .0671-.0671.0671-.1342.1343-.2014.4027-.4698.8054-.7383.1342.0671.2684.2014.3356.3356v.0671c0 .0671.0671.0671.0671.1342v.0672c.2013.2684.4698.7382.2013 1.3422-.0671.1343 0 .2014.0671.2685.3356.4698.7383.5369.8725.5369-.0671 0-.1342.0671-.2013.0671-.6041 0-.9396-.6711-1.0739-.8725l-.0671-.0671c-.0671-.0671-.0671-.1342-.1342-.2013s-.0671-.0671-.0671-.0671-.0671 0-.0671.0671l-.0671.0671c-.0672.0671-.1343.1342-.2014.2685-.0671.0671-.0671.0671-.1342.1342s-.2014.2013-.2014.3356c-.0671.2684 0 .5369.1343.6711.2013.1342.4027.2013.7382.2013h.0671c.4027 0 .6712-.0671 1.0068-.2013.2013-.0671.4698-.1342.604-.3356.4027-.3355.4698-.8725.1342-1.5436l-.2013-.3356c.0671 0 .1342.0671.2013.0671s.0671 0 .0671.0672c.0671 0 .2014.0671.2685.0671h.1342.0671c.0671 0 .1343 0 .1343-.0671 0-.0672-.0672-.0672-.0672-.1343-.1342-.1342-.2684-.2684-.4026-.4698-.0672-.0671-.0672-.0671-.1343-.1342s-.0671-.1342-.1342-.2013c-.1342-.1343-.2013-.2685-.3356-.4027-.2013-.1343-.4027-.2685-.6711-.2685-.1342-.2013-.4027-.2013-.7383-.2013-.6711 0-1.3423.1342-1.8792.4027-.8724.4698-1.7449 2.1476-2.349 3.2214-.2013.4027-.4026.6712-.4698.8054-.1342.2685-.3355.5369-.5369.8054 0 .0671-.0671.0671-.1342.1342 0-.1342.0671-.2013.0671-.2684.0671-.2685.1342-.4698.1342-.7383v-.0671c0-.1342 0-.9396 0-1.0738-.0671-.2685-.1342-.537-.2013-.8054v-.1342s0-.0672-.0671-.0672-.0671.0672-.0671.0672c-.0671.0671-.0671.0671-.1343.1342-.0671.1342-.2013.2013-.2684.3356-.1342.1342-.2014.2684-.2685.4698-.0671.2013-.0671.4026 0 .5369v.0671c-.0671-.5369-.8053-1.141-1.0067-1.2752-.0671 0-.0671-.0671-.1342-.0671-.2685-.1342-.4698-.2685-.6711-.4698l-.0672-.0671c-.0671 0-.0671.0671-.0671.1342 0 .1342-.0671.2014-.0671.3356 0 .0671-.0671.2013-.0671.2684-.1342.4698-.0671.9396.2013 1.3423.0672.1343.2014.2685.3356.4027.0671.0671.1342.1342.2014.2014h-.0672-.0671c-.0671 0-.1342 0-.2013.0671l-.0671.0671h.0671c.4027.1342.6711.604.7382.7382.1343.3356.1343.6041.1343 1.0067-.0671.4027-.2014.7383-.5369 1.141-.1343.2013-.537.4698-.6041.4698-.1342.0671-.2684.1342-.4027.1342-.0671-.1342-.2013-.2013-.2684-.3356-.0671 0-.0671-.0671-.1342-.0671h-.0672c-1.1409-.4027-2.4832-.6711-3.7583-.6711-2.349 0-4.2282.604-4.7652.8054-.0671 0-.0671.0671-.1342.0671-.1342 0-.2684 0-.2684 0s-.0672 0-.0672-.0671c-.0671-.0672-.1342-.0672-.2013-.0672s-.1342 0-.1342.0672c-.1342.0671-.2685.0671-.4027.0671-.3356 0-.604-.0671-.7383-.1343-.4026-.1342-.8724-.4026-1.0738-1.1409 0 0 0 0 0-.0671-.2013-.7383.5369-2.0805.6712-2.0805 0 0-.2014 0-.4698 0-.0672 0-.2014 0-.2685 0s-.1342 0-.2013 0c.2684-.2014.3355-.4027.4698-.6712.4026-.8725.0671-1.6107.0671-1.6107s0 0-.0671 0c0 0-.0672 0-.0672.0671-.0671 0-.0671.0671-.1342.0671-.0671.0671-.1342.1342-.2013.1342-.2685.2014-.5369.4027-.7383.6712-.0671.0671-.0671.1342-.1342.4698 0 .1342-.0671.1342-.0671.1342s0-.0671 0-.2013c0-.6041-.6041-1.4094-.6712-1.4766-.0671 0-.0671.0672-.0671.0672v.0671c-.1342.2684-.2013.5369-.2684.8053-.0672.1343-.1343.4698.0671.7383.0671.2013.0671 1.0067 0 1.2081v.0671c0 .0671 0 .0671-.0671.0671 0 0-.0671 0-.0671-.0671-.1343-.1343-.1343-.2685-.2014-.4698v-.0671c-.0671-.2685-.2013-.4698-.2684-.7383l-.0672-.1342c-.0671-.1343-.0671-.2014-.1342-.3356 0-.1342-.0671-.2685-.0671-.3356-.0671-.0671-.0671-.2013-.1342-.3355-.2014-.6041-.5369-1.4766-.6712-1.745-.1342-.2014-.2684-.3356-.4698-.4027-.1342-.0671-.6711-.3356-.8725-.4027-.6711-.2013-1.208-.2013-1.6778-.2684-.0671 0-.0671 0-.1342 0-.4698 0-1.3423.1342-1.8792.4698-.2014.1342-.4027.2684-.6712.4026l-.0671.0672c-.1342.0671-.4698.2013-.5369.2013-.2013.0671-.1342.1342-.0671.2013.2684.3356.8054.1343.8054.2014 0 0-.2685.4698-.2685.8725 0 0 0 .4027.0671.5369.4027.8725 1.2752 1.0738 1.5436 1.1409h.0672c.2013 0 .4026.0671.604 0 .1342 0 .2013-.0671.2684-.1342s.1343-.2013.1343-.3356c0-.1342 0-.3355 0-.5369 0-.0671 0-.0671 0-.1342 0-.1342-.0672-.2685-.0672-.4027 0-.0671 0-.0671 0-.0671s0 0-.0671 0h-.0671c-.0671 0-.0671 0-.1342.0671-.1342.0671-.2685.0671-.4027.1342-.0671 0-.0671 0-.1342.0671-.0671 0-.1342.0672-.2014.1343 0-.8725.4698-1.4765.9396-1.8792.0671-.0671.3356-.2014.8725-.3356.0671.0671.2014.3356.2685.5369.0671.0671.0671.1342.0671.1342.0671.1343.8725 1.8121 1.208 2.5504.0672.1342.1343.2684.1343.3356.0671.1342.1342.3355.2684.4698.0671.0671.1343.1342.2014.2684.2013.2013.4698.604.4698.6711l-.0671.0672s-.2685-.2014-.4027-.3356c-.0671-.0671-.1343-.1342-.1343-.1342-.2684-.2014-.9396-.6712-1.0738-.7383-.2684-.1342-1.1409-.2684-1.3423-.2684h-.0671v.1342c.3356.8725 1.141 1.208 1.5436 1.3423.0672 0 .0672.0671.1343.0671-.0671 0-.1343 0-.2014 0s-.1342 0-.2013 0c-.1342 0-.3356 0-.4027 0s-.2013 0-.2013 0c-.2685 0-.537.0671-.7383.2684-.2013.1343-.3356.3356-.4698.5369-.0671.0672-.1342.1343-.1342.2685-.1343.2013-.2014.3356-.3356.5369l-.0671.0671.0671.0671c.2014.0672.3356.0672.5369.0672h.1342.0672c.1342 0 .2684-.0672.4698-.0672.3355-.0671 1.1409-.3355 1.4765-.4698.0671 0 .1342-.0671.1342-.0671.1342-.0671.2685-.0671.4027-.0671h.1342c.2685 0 .4698.0671.7383.1342l.0671.0672c.1342.1342.4027.4026.4698.604.1342.2684.2684.4698.4027.604-.4027.0671-.7383.3356-.9396.4027h-.0671s-.0672.0671-.0672.1342.0672.0671.1343.1343h.0671l.0671.0671s.0671 0 .0671.0671c.2685.1342.8054.4027 1.141.4027.1342 0 .4026-.0671.6711-.0671h.1342c-.0671 0-.0671.0671-.1342.0671-.0671.0671-.2014.0671-.2685.1342-.1342.0671-.2684.1342-.4026.2013-.2014.1343-.4027.2685-.6041.3356-.1342.0671-.2013.1342-.3355.2013 0 0 0 0-.0672 0-.3355.2014-.6711.4027-1.0067.4698.1343-.4698.0671-1.0067-.2684-1.4765 0-.0671-.0671-.0671-.0671-.0671h-.0672c-.1342.0671-.2684.1343-.4026.2685h-.0672c-.2684.1342-.3355.3355-.4026.604-.0672.2685 0 .4698.1342.7383.0671.0671.0671.0671.1342.1342s.1342.1342.1342.1342c.3356.3356.6712.604 1.0739.7383.0671.0671.2013.0671.2684.0671h.2685.3356c.604-.0671 1.208-.4698 1.208-.4698l.1342-.1342c.2014-.1343.4027-.2685.6041-.4027.1342-.1343.3355-.2014.4698-.2685.1342-.0671.2684-.1342.3355-.1342 0 0 0 .0671-.0671.0671-.2013.4027-.3356.8054-.3356 1.3423 0 .2013-.0671.3356-.1342.5369 0 .0671-.0671.2013-.0671.2685v.0671h.0671c.1342 0 .4027-.1343.604-.2685.0672 0 .0672-.0671.1343-.0671 0 0 0 0 .0671-.0671.2684.6711 1.0738 1.2752 1.208 1.2752h.0672v-.0672c0-.0671 0-.1342 0-.2013 0-.1342.0671-.2685.0671-.4027.0671-.1342.1342-.3356.1342-.604 0 0-.0671-.2014-.1342-.4027.2684.6711.604 1.6107.6711 2.2148 0 .2013.1342 1.6778.1342 2.2147-.0671.0671-.1342.0671-.2013.1343-.0671.0671-.0671.1342-.1342.2013h-1.4765c-.0672-.0671-.1343-.2013-.4027-.3356-.2685-.1342-.5369-.4027-.8054-.5369-.2013-.0671-.2685 0-.4698 0-.1342-.0671-.2013-.2013-.3356-.2013-.0671 0-.2013 0-.2684 0-.1342 0-1.5436.2684-1.6779.2684-.3355 0-1.0067.0671-1.0738.1343-.8054.3355-1.0738 2.8188-1.0738 2.8188s0 0-.0671 0c-.2014-.2685-.4698-.4027-.8054-.4698-.0671 0-.1342-.0672-.2014-.1343-.2013-.2684-.4697-.4027-.7382-.5369-.1342-.0671-.2013-.1342-.0671-.2684l.0671-.0672c-.0671 0-.1342 0-.2013 0-.2685 0-.537 0-.7383-.2013-.0671-.0671-.1342-.2013-.0671-.2685.0671-.2013.9396 0 1.2751-.0671.1343 0 .537-.2684.6041-.4027.1342-.2013.0671-.4698.1342-.7382.0671-.3356 0-.4027-.3356-.4027-.0671 0-.0671 0-.1342-.0671-.5369-.1342-1.6778-.5369-1.8121-.7383-.1342-.2013-.3355-.2684-.5369-.2684-.0671 0-.1342 0-.2013-.0671 1.3423.0671 1.8121-.6041 1.8121-1.0067-.2014.4698-1.4766.6711-1.6108.604-.2013-.0671-.0671-.1342 0-.1342.2014-.1343.4027-.3356.5369-.537.1343-.3355.2014-.6711.1343-.8053 0-.0671-.0672-.1343-.0672-.1343-.0671 0-.0671.0672-.0671.1343-.1342.6711-.6711.8725-1.208 1.0067-.2014.0671-.2685-.0671-.3356-.2014-.0671-.2013 0-.3355.0671-.4026.0671-.1343.2014-.2685.2685-.4698.3355-.4698.4027-.8725.0671-1.4094-.1342-.2014-.2685-.4698-.4027-.7383.2685.8725.2013 1.6107-.4698 2.2819-.1342-.1342-.2685-.3356-.4027-.4698-.0671-.0671-.0671-.1342-.0671-.2014.1342-.4026.2013-.8724 0-1.2751-.1342-.4027-.5369-1.2752-.604-1.4765-.2685.604.1342 1.812.0671 2.2818 0 .0672 0 .2014-.2014.1343-.4697-.2014-.8724-.4698-1.1409-.8725-.2013-.3356-.2013-.4698 0-.7383.1342-.1342.8725-1.0067.8054-2.2818-.2685.604-.5369 1.1409-1.0067 1.6107-.0671.0671-.0671.1342-.2014.0671-.0671 0-.0671-.1342-.0671-.2013s-.0671-.6041.1342-2.2148c0-.1342-.0671-.0671-.1342 0-.2684.5369-.4698 1.0738-.5369 1.6107-.0671.2685 0 .537 0 .8054-.604-.1342-.9396-.7382-1.2752-1.0738-.0671 0-.1342 1.0067.6041 1.3423.4698.2684.8053.6711 1.0738 1.0738.2013.3356.2013.604.0671.9396 0 0-.4698.8054-.2685 1.3423.0672.1342-.0671.1342-.1342.1342-.604 0-1.1409-.1342-1.5436-.604-.0671-.1343-.1342-.2014-.1342-.3356.0671-.4027.2684-.7383.4698-1.0738.1342-.2685.2684-.4698.4026-.9396 0-.0671.0672-.1343-.0671-.2014-.0671 0-.1342.1343-.2013.2014-.4027.4027-.8054.7382-1.0067 1.2751 0 .0672 0 .1343-.0671.1343-.0672 0-.0672-.0671-.1343-.1343-.2684-.4026-.2013-.8724.0671-1.2751.2014-.3356.4027-.6712.4698-1.0738.0672-.4698 0-.9396-.2013-1.4094-.0671-.0672-.0671-.2014-.2013-.1343-.0672 0-.0672.1343-.0672.2014v.604c0 .604-.0671 1.1409-.5369 1.5436-.1342.1343-.2013.1343-.2684-.0671-.1343-.4698-.1343-.9396-.2014-1.4094 0-.5369-.1342-1.4765-.3355-1.6107 0 .3355-.0671.604-.0671.8725-.0672.5369-.1343 1.0067-.1343 1.6107 0 .0671 0 .1342-.1342.1342-.0671 0-.1342-.0671-.1342-.1342-.2685-.4027-.4027-.8725-.5369-1.3423-.0672-.2684-.1343-.4698-.3356-.7382.0671.6711-.2014 2.0134.7382 2.8859.2685.2684.6041.4698.8054.8053.0671.2014.2013.4027.2685.6041.2684.5369.604.9396.8724 1.4765.1343.2684.4698.604.8725.604h.1343c.6711.2685 1.4094.2685 2.1476.2013.3356 0 .6712 0 1.0067.0672.2014.0671.3356.1342.4027.3355.0671.1343.0671.3356-.0671.4027-.2014.2014-.8054-.3356-1.4765-.3356-.4027 0-.7383.1343-1.3423.1343-.1342 0-.1342.1342 0 .2013s.5369.2685.5369.4027c-.0671.1342 0 .1342.1342.2013.1343.0672 1.0739.9396 1.8121.9396.1342 0 .2014.0671.1342.2014-.0671.3355-.0671.7382.0672 1.0738.1342.3356.2013.6711.1342 1.0067 0 .1342.0671.1342.1342.0671.2685-.2013.2685 0 .3356.2014.1342.3355.2013.6711.4698.8725l.1342.1342c.0671.0671.0671.3356.0671.4698 0 .0671-.1342.4698-.2684.604.0671 0 .2684-.1342.2684-.0671.1343.8054-.1342 2.5503-.6711 3.3557-.2685.4027-.6712 1.4094-1.8121 2.8188-.2684.3356-.4027.7382-.5369 1.208-.2013.6041-.604 1.0068-1.2081 1.2752-.1342.0671-.2684.0671-.3355-.0671-.1343-.2685-.2014-.0671-.2685.0671s-.2013.2685-.1342.4027c0 .1342-.0671.2013-.1342.2685-.2014.1342-.2685.2684-.4027.4697-.0671.1343-.1343.2685-.0671.4027.0671.2014.2013.4027.0671.6712.2013-.0671.4027-.1343.5369-.2685.0671-.0671.1342-.0671.2013 0 .2014.2014.4027.2014.6712.0671-.3356-.1342-.3356-.2684-.1343-.5369.1343-.2013.3356-.2684.537-.3356.0671 0 .0671-.0671.1342-.0671.0671.0671 0 .0672 0 .1343-.0671.4698 0 .8724.0671 1.2751.0671.3356.1342.6712.2013 1.0067.1343.9396-.2684 1.6108-1.0067 2.1477-.3355.2013-.4027.4027-.3355.7383 0 .1342.0671.2013.0671.3355.2684.5369.4027 1.141.5369 1.745.0671.3356.1342 1.1409.4027 1.4094-.0671 0-.2014-.0671-.2014-.1342-.0671.1342 0 .2013.0671.2684l-.0671.0671c-.1342 0-.2013-.0671-.2684-.1342-.0671.1342 0 .2013.0671.2685l-.0671.0671c-.1343 0-.2014-.0671-.2685-.1343-.0671.1343 0 .2685.1342.3356-.1342 0-.2013-.0671-.2684-.1342-.0671.1342 0 .2684.1342.3356l-.0671.0671c-.0671.0671-.0671.2013 0 .2684.0671.2014.1342.4027.3356.5369-.0671.4027.1342.8725.5369 1.0739.1342.0671.2684.1342.4698.2013-.2014.2013-.2014.4698-.1342.7383.1342.3355.4026.4698.7382.4698.0671 0 .2685 0 .4027-.2014.1342-.2013.2685-.2684.5369-.3356.604 0 1.1409.2014 1.6779.4027l.1342.0671c.4027.2014.8725.3356 1.3423.4698.4027.0672.8725.1343 1.2751.1343.8725 0 1.745-.2014 2.5504-.5369.6711-.2685 1.3423-.4027 2.0805-.4027.5369 0 1.0738.0671 1.6107.2684.8725.2685 1.9464.6041 3.1544.6041 1.2081.0671 2.349-.2685 3.1544-.537.604-.2013 1.208-.2684 1.8121-.2684.5369 0 1.0738.0671 1.6107.2013.1342.0671.2684.0671.4027.1343.8053.2684 1.6107.4698 2.4832.5369h.6711c.9396 0 1.745-.1343 2.4162-.4698.7382-.3356 1.4765-.4698 2.2147-.4698.5369 0 1.141.0671 1.6779.2684h.0671c.5369.2014 1.0738.4027 1.6778.4698.4698.0671.9396.1343 1.4094.1343.9396 0 1.8121-.2014 2.6846-.537.4698-.2013.9396-.3355 1.3423-.4026h.0671c.1342 0 .2684-.0672.4698-.0672.2684 0 .4027.0672.5369.1343.0671.2013.2685.2684.3356.2684.3355 0 .604-.2684.6711-.5369.0671-.2013.0671-.3356 0-.4698.4027 0 .7383-.2013 1.0067-.5369.2014-.2684.2685-.5369.2685-.7382.0671-.0672.1342-.2014.2013-.3356.0671-.2685 0-.4698 0-.6712.1343-.0671.2014-.2013.1342-.3355-.0671.0671-.1342.1342-.2684.1342.0671-.0671.2013-.2013.1342-.3356-.0671.0671-.1342.1343-.2013.1343l-.0671-.0672c.0671-.0671.1342-.1342.0671-.2684-.0671.0671-.1342.1342-.2014.1342-.0671 0-.0671-.0671-.1342-.0671.0671-.0671.1342-.1342.0671-.2685-.0671.0672-.1342.1343-.2684.1343l-.0671-.0671c.0671-.0672.0671-.0672.0671-.1343.0671 0 .1342-.0671.1342-.2013-.0671-1.0738.1342-2.0806.5369-3.0201.1342-.2685.0671-.4027-.1342-.537-.4027-.2013-.604-.604-.8054-.9396-.3356-.604-.4027-1.2751-.2013-1.9463.2013-.604.3355-1.208.2013-1.8792 0-.1342-.0671-.2013 0-.3355.2014.0671.3356.1342.5369.2684.1343.0671.2685.1342.2685.2685 0 .2013-.2014.2013-.3356.2684v.0671c.1342.2014.3356.2014.5369.1343.1343-.0671.2685-.0671.4698.0671.1342.1342.3356.0671.5369-.0671-.2013-.1343-.2684-.3356-.2684-.6041 0-.1342 0-.2684 0-.4697 0-.4027-.0671-.537-.4027-.6712-.0671-.0671-.1342-.0671-.1342-.1342 0-.2014-.0671-.3356-.2014-.5369-.0671-.0671-.1342-.0671-.2013-.0671s-.0671.0671-.0671.1342c-.0671.2013-.2014.2684-.4027.2684-.2685-.0671-.604-.4026-.6712-.4698l-.0671-.0671c-.2013-.3355-.4027-.6711-.604-1.0738-.4698-.9396-1.0067-1.8121-1.6107-2.6846-.7383-1.0067-1.0739-2.1476-1.0067-3.3557 0-.4698.1342-.9396.5369-1.208.0671-.0671.1342-.0671 0-.2014-.1343-.1342-.1343-.2684-.1343-.4698.0671-.4698.2685-.8724.4027-1.2751.0671-.1343.0671-.2685.1342-.3356.0672-.0671.2014 0 .2685.0671h.1342c0-.0671 0-.0671 0-.0671-.2013-.2685-.2013-.5369-.1342-.8054 0-.0671.0671-.1342.0671-.1342 0-.0671.2014-.4698.1342-.604 0-.1343 0-.2685 0-.4698.537.0671.8725-.2685 1.2081-.5369.3356-.2685.4698-.7383.8054-1.141-.4027.2014-.7383.1343-1.0739.1343-.2013 0-.4026 0-.604.0671-.2013.0671-.4027.1342-.604.2013-.2014.0671-.3356-.1342-.3356-.2684 0-.2014.2014-.2685.3356-.3356.2684-.0671.604-.0671.8725 0 .2684.0671.4698-.0671.5369-.2685.0671-.1342.2013-.2013.3356-.2013.4026-.0671.8053-.0671 1.208-.1342.4027-.0672.8054-.2014.8725-.6712 0-.0671.0671-.0671.0671-.1342.6711-.5369 1.1409-1.2081 1.3423-2.0806 0-.0671.0671-.2013.1342-.2684.2014-.2013.4027-.4698.5369-.7383.2685-.4698.4698-1.0067.4027-1.5436.1342-.3356-.2013-.7382-.2013-1.2752zm-28.6578 14.8323c.1343-.4027.0001-.8725-.4026-1.0068-.0671 0-.2014-.0671-.2685 0-.0671 0-.0671.0672 0 .0672h.1342c.3356.1342.537.5369.3356.9396-.1342.3355-.4027.5369-.7382.4698h-.0672v.0671c.4027.0671.8725-.1343 1.0067-.5369zm1.141 0c-.3356.0671-1.4094.3355-1.4094.6711 0 .1342.2013.1342.3356.0671.1342 0 1.0067-.1342 1.1409-.1342s.2013-.2014 0-.2014c-.8725.1343-1.1409.2014-1.1409.2014s.2684-.2014 1.1409-.3356c.4698-.1342.1342-.3356-.0671-.2684zm0 .6711c-.3356 0-.6711.0671-.8725.1342 0 0 .8054.0671.8725.0671.1342 0 .1342-.2013 0-.2013zm-2.8188-1.3423c-.1342-.0671-.2685-.0671-.3356.0671 0 0 0 .0671-.0671.0671v.0672c0 .0671.0671.1342.1342.2013.1343.0671.2685.0671.3356-.0671s.0671-.2685-.0671-.3356zm1.3423 6.9128c.3355.0671.6711-.1343.8053-.4698.1343-.3356.0001-.7383-.3355-.8725-.0671 0-.2014 0-.2685 0s-.0671.0671 0 .0671h.1342c.2685.1342.4698.4698.3356.8054-.1342.2684-.4027.4698-.6711.4698zm.6711.1342c0 .0671.2014.0671.2685.0671s.8725-.1342 1.0067-.1342c.0671 0 .1342-.2014 0-.1342-.7383.0671-1.0067.1342-1.0067.1342s.2013-.1342 1.0067-.2685c.4027-.0671.1342-.2684-.0671-.2013-.3356.0671-1.2752.2684-1.2081.5369zm1.141.0671c-.2685 0-.6041.0671-.7383.1342 0 0 .6711.0672.8054.0672.0671-.0672.0671-.2014-.0671-.2014zm-2.4161-1.208c-.1343-.0672-.2685 0-.3356.0671v.0671.0671c0 .0671.0671.1342.1342.1342.1342.0671.2685 0 .3356-.0671 0-.0671 0-.2013-.1342-.2684zm1.4093 6.1073c.2685.0672.537-.0671.6712-.4026.1342-.2685 0-.6041-.2685-.7383-.0671 0-.1342 0-.2013 0s-.0671.0671 0 .0671h.0671c.2685.0671.3356.3356.2685.604-.1343.2685-.3356.4027-.537.4698 0-.0671 0-.0671 0 0zm.4698.0672c0 .0671.1343.0671.2014.0671s.7382-.0671.8054-.1343c.0671 0 .1342-.1342 0-.1342-.6041.0671-.8054.1342-.8054.1342s.2013-.1342.8054-.2013c.3355-.0671.1342-.2013-.0672-.2013-.2013.0671-.9396.2684-.9396.4698zm.9396 0c-.2013 0-.4698.0671-.604.0671h.604c.1343.0671.1343-.0671 0-.0671zm-1.9463-.9396c-.0671-.0672-.2013 0-.2684.0671v.0671.0671c0 .0671.0671.0671.0671.1342.0671.0671.2013 0 .2684-.0671.0672-.0671.0672-.2013-.0671-.2684zm-8.7248 5.7047c0 .0671 0 .0671 0 0zm34.2953 1.6107c.0671 0 .0671 0 0 0zm-19.1946-40.3356v2.0134c0 .3356 0 .6712-.1343.9396l-2.0134-2.4832-2.0805 2.4832c-.0671-.2684-.1342-.604-.1342-.9396v-2.0134zm-2.2148 5.1007c-.2013 0-.8054-.2685-1.3423-.8054l1.3423-1.6778 1.3423 1.6107c-.4698.5369-1.1409.8054-1.3423.8725zm-2.8188-4.5638c0 .2014-.2684.4698-1.0067.8725-.0671.0671-.2013.1342-.3356.2014 0 0 .2014-.2685.3356-.537.1342-.3355.2014-.8724 0-1.2751-.1342-.2685-.2685-.5369-.604-.7383-.1342-.0671-.2685-.1342-.4698-.2013-.2014-.0671-.2014-.0671-.0671-.2685.0671 0 .1342.0671.2013.0671.1342.0672.2014.0672.2014-.1342 0-.0671.0671-.13421.1342-.20133.0671-.06711.1342-.06711.2013-.06711h.3356c.2013-.06712.2685 0 .4027.13423.0671.13421.1342.33561.1342.46981 0 .3356.1342.604.2013.8725 0 .0671.0672.1342.1343.2013.2013.2014.2013.4027.2013.604zm8.9933-11.476473c-.1342-.067114-.2685-.134228-.4027-.201342 0 0-.0671-.067115-.0671 0 0 .067114.2014.268456.2014.33557.1342.268455.2013.536915.0671.805365-.0671.13423-.0672.33557-.2014.4698-.0671 0-.3355-.4698-.4698-.67114-.1342-.26845-.2684-1.208052-.3355-1.2751659 0 0 0-.0671141-.0672-.0671141 0 0 0 0-.0671.0671141 0 0-.1342.4697989-.2013.7382549-.0671.268461 0 .469801.0671.671141.2685.06711.2685.20134.2685.40268 0 0 .0671.13423 0 .13423-.0672 0-.1343-.06711-.1343-.06711-.2013-.20134-.3355-.40269-.4698-.67114 0-.06712-.0671-.13423-.1342-.20134 0 .13422.1342.53691.1342.67114v.06711h-.0671s0 0-.0671-.06711c-.2013-.20135-.3356-.4698-.4698-.73826 0-.067113 0-.134227-.0671-.201341 0 0 0-.067114-.0671-.067114s0 .067114 0 .067114v.268461c0 .20134.0671.46979.2013.67114.0671.06711.1342.20134.1342.26845.0672.13423.1343.20135.1343.33557 0 .13423 0 .20135-.1343.20135-.1342 0-.2684-.06712-.4026-.13423-.3356-.13423-.6041-.40269-.8054-.80537 0 0 0-.06712-.0671-.06712v.06712c0 .13423.0671.20134.0671.33557.0671.40268.2684.67114.6711.87248.0671.06712.2014.06712.2685.13423.1342.06711.2013.13423.2013.26846 0 .20134-.0671.40268-.2013.53691-.0671.06711-.1342.06711-.1342 0-.0672-.06711-.0672-.13423-.1343-.26846 0 0 0-.06711-.0671-.06711s-.0671.06711-.0671.06711v.4698c0 .13423-.0671.20134-.2013.20134-.0672 0-.1343-.06711-.2014-.06711-.2013-.13423-.3356-.33557-.4698-.4698-.2013-.20134-.2684-.4698-.2684-.73825 0-.06712 0-.06712 0-.13423 0 0 0-.06712-.0672-.06712-.0671.13423-.0671.26846-.1342.40269-.1342.33557-.0671.67114.1342 1.00671.0672.06711.1343.20134.2014.26846.0671.06711.0671.06711 0 .20134-.0671.06711-.1342.13423-.2685.20134-.1342.06712-.2013.06712-.2684 0-.0671-.13423-.2014-.26846-.2685-.33557s-.0671-.13423-.1342-.20134c-.0671-.20134-.0671-.4698 0-.67114 0-.06712 0-.06712 0-.13423-.0671.20134-.2014.40268-.2685.60403 0 .13422-.0671.26845-.0671.33557.0671.33557.2014.67114.4698.93959.1343-.06711.1343 0 .1343.13423 0 .06712 0 .13423-.0672.13423 0 .06711-.0671.06711-.0671.06711-.2684-.06711-.604-.13422-.8053-.40268-.0672-.06711-.2014-.20134-.3356-.26846-.2014-.13423-.4027-.26845-.5369-.40268 0 0-.0671-.06712-.0671 0 .0671.20134.1342.33557.2013.4698s.1342.33557.2685.4698c.0671.13422.2684.20134.3355.40268-.604-.13423-1.0067-.40268-1.4094-.80537.0671.33557.2014.60403.4027.80537.2014.26846.4698.40269.8054.4698-.0671.06711-.1342 0-.2014 0-.1342 0-.2013 0-.3355.06711-.1343.06712-.3356.06712-.4698 0-.0671 0-.2685.06712-.2685 0-.0671 0-.1342 0-.2013.06712 0 .13423-.1343.20134-.2014.33557-.2013.20134-.2013.20134-.1342.53691 0 .06711 0 .13423.0671.20134.0671.06712.0671.06712.0671.13423.0671.20134.1343.33557.3356.40269.1342.06711.3356.06711.4698.13422.1342 0 .2685.06712.4027.13423.1342.06712.2013.13423.2013.26846s-.0671.20134-.2013.26846c-.1342.06711-.3356.06711-.4698.13422h-.0671c-.0671-.06711-.1343-.06711-.2685-.06711h-.0671v-.06711s0-.06712.0671-.06712c.0671-.13423 0-.20134-.1342-.13423-.0671 0-.0671 0-.1342-.06711 0-.06712-.0672-.13423-.1343-.13423-.1342-.06711-.2013-.06711-.2013.13423v.33557c0 .33557 0 .67114-.0671.9396 0 .06711-.0671.13421-.1343.20131 0-.0671-.0671.0671 0 .2014 0 .0671 0 .2013-.1342.2013-.0671.0671-.1342 0-.2013-.0671-.1343-.1342-.2014-.3356-.2685-.53691-.1342-.33557-.2013-.67114-.4698-.9396-.1342-.20134-.3356-.20134-.604-.13423-.0671 0-.1342.06712-.2014.06712-.2013 0-.3355.06711-.5369.06711-.2013 0-.3355 0-.5369.06711-.1342 0-.2013.06712-.3355 0-.0672 0-.1343.06712-.2014.06712 0 .06711-.0671.06711-.0671.13423-.0671.20134-.2013.33557-.3356.46979-.1342.13423-.2013.26846-.2684.46976 0 .1343-.0671.2014-.2014.2685-.7382.4027-1.0067 1.1409-.7382 1.8792.2013.6711.6711 1.0067 1.3423 1.0738.1342 0 .2013-.0671.2684.0671 0 .0671-.0671.1343-.0671.2014-.1342.2013-.1342.4027-.1342.604.0671.3356.0671.7383 0 1.0738 0 .1343.0671.2685.2013.2685.0671 0 .1342.0671.1342.2013 0 .2014.0672.4027.2014.5369.2013.1343.4027.2685.604.4698.0671.0672.1342.0672.1342-.0671 0-.0671 0-.2013 0-.2684.0672.0671.2014.0671.2685.0671s.0671-.0671.0671-.0671c-.1342-.1343-.1342-.2685-.2013-.4698-.0671-.2014-.1343-.3356-.3356-.4698-.0671-.0671-.1342-.0671-.0671-.2014 0-.0671 0-.0671 0-.1342-.1342-.2685-.2014-.5369-.2014-.8725 0-.2013.1343-.3356.3356-.4027h.1342c.2685-.0671.6041-.0671.8725-.1342.1342 0 .2685-.0671.3356 0 .0671 0 .1342.0671.2013.1342.0671.1343.0671.2014.1343.3356.0671.1342.1342.2685.2013.3356.4027 1.208 1.2752 1.8121 1.8121 2.0805v.0671.2685c-1.6108.1342-2.953.604-3.49.8054l-.1342.0671c-.2684.0671-.4698.4026-.3355.6711.0671.2685.2684.4027.5369.4027h.2013l.1342-.0671c.6041-.2014 2.2819-.7383 4.094-.8054 2.4161 0 4.4295.6711 4.4966.6711.2685.1343.6041-.0671.7383-.3355.1342-.2685-.0671-.6041-.3356-.7383-.0671 0-1.1409-.4027-2.6845-.604-.1343-.3356-.2685-.604-.3356-.9396-.0671-.2685-.1342-.604-.2014-.8725.2685-.4698.4698-1.1409.4698-1.8792v-2.349h-.6711c0-.0671.0671-.0671.0671-.1342.2014-.2685.4027-.5369.604-.7383.1343-.1342.2014-.2013.3356-.33553.0671-.06711.0671-.13423-.0671-.13423-.0671 0-.1342 0-.1342 0h-.0671v-.06711c.2013-.4698.3355-1.00671.3355-1.47651 0-.13423 0-.20134.0671-.33557 0-.06711.0672-.13423.1343-.13423.2013-.06711.4027-.20134.604-.26845.2685-.20135.4698-.4698.604-.80537 0-.06712 0-.13423-.0671-.06712-.2013 0-.3356 0-.5369 0s-.4698 0-.6711.06712c-.2014.06711-.2685-.06712-.4698-.06712.2013-.13423.4026-.20134.6711-.26846.3356-.06711.7383-.06711 1.0738-.13422.4027-.13423.8054-.26846 1.141-.53692.4027-.33557.604-.73825.7382-1.20805.0671-.26846.1343-.53691.1343-.80537s.0671-.53691 0-.73825c-.0672-.13423 0-.26846.0671-.40269 0-.06711.0671-.06711.0671-.13423.1342-.26845.2013-.53691.2684-.80537-.0671-.46979-.3355-.872479-.604-.939593z" fill="#162655"/></g></svg>