<?xml version="1.0" encoding="UTF-8"?>
<svg width="162px" height="20px" viewBox="0 0 162 20" version="1.1" xmlns="http://www.w3.org/2000/svg" xmlns:xlink="http://www.w3.org/1999/xlink">
    <title>SuttonSceneLogo</title>
    <defs>
        <polygon id="path-1" points="0 0 13.2765574 0 13.2765574 19.934418 0 19.934418"></polygon>
        <polygon id="path-3" points="0 0 9.85771168 0 9.85771168 18.3774987 0 18.3774987"></polygon>
        <polygon id="path-5" points="0 0 13.2918693 0 13.2918693 14.6278426 0 14.6278426"></polygon>
    </defs>
    <g id="Wireframes---Homepage" stroke="none" stroke-width="1" fill="none" fill-rule="evenodd">
        <g id="Home" transform="translate(-139.000000, -2648.000000)">
            <g id="SuttonScene" transform="translate(114.000000, 2600.000000)">
                <g id="SuttonSceneLogo" transform="translate(25.000000, 48.000000)">
                    <g id="Group-15">
                        <g id="Group-3">
                            <mask id="mask-2" fill="white">
                                <use xlink:href="#path-1"></use>
                            </mask>
                            <g id="Clip-2"></g>
                            <path d="M12.2973485,4.32201856 C8.5760315,2.88127027 6.74377279,2.9355812 4.9694422,4.54491967 C4.77007921,5.08350305 4.80393331,5.6345327 4.96605679,6.20592894 C5.07890377,6.34019763 5.1782091,6.51105077 5.32265323,6.62193558 C6.26793472,7.34872143 7.30612688,7.91785472 8.42218346,8.32669533 C9.54952473,8.73930754 10.5700375,9.30844082 11.4566386,10.1257449 C13.4566631,11.9692992 13.8260489,14.7580146 12.4763991,17.1348721 C11.9046411,18.141133 11.0248108,18.6929169 10.0580884,19.102889 C7.47426887,20.1985366 2.93932514,20.3859848 0.0135792526,18.5914611 C0.0135792526,17.9887607 -0.00673320279,17.3057253 0.0195977579,16.6245757 C0.0429194658,16.0098061 -0.113185515,15.3780644 0.191125159,14.6799427 C1.39520237,15.5123331 2.64893226,16.1791506 4.07080413,16.4574942 C5.19400768,16.677378 6.28561408,16.7113223 7.36292652,16.194237 C8.10094574,15.8397073 8.5846831,15.3546805 8.64373968,14.6471298 C8.64035427,13.9735234 8.3134742,13.5782605 8.02797136,13.0939881 C7.28957599,12.6217847 6.54478596,12.0594403 5.66457956,11.7147168 C4.50526498,11.260617 3.35610663,10.7786075 2.35252087,10.0190088 C-1.17620401,7.34721279 -0.450597968,2.53466093 3.25717745,0.819717885 C4.27957103,0.346760202 5.33544256,0.0280606472 6.48911479,0.0216489402 C8.41390801,0.0110884816 10.3466005,-0.146564079 12.1179219,0.576073018 C12.6456695,1.20781474 12.4180948,1.86369465 12.428251,2.46828091 C12.4384073,3.08305046 12.5783375,3.72158105 12.2973485,4.32201856" id="Fill-1" fill="#CF1643" mask="url(#mask-2)"></path>
                        </g>
                        <path d="M71.5694318,5.71305725 L75.7334852,5.71305725 C76.2247457,6.24522894 75.7902848,6.93731613 76.1434958,7.58829298 C77.2219367,6.23957155 78.6355332,5.5433356 80.4933705,5.30685675 C81.8922969,5.45922909 83.341252,5.91596892 84.2056598,7.43705212 C84.7100858,8.32450781 84.9158434,9.34472354 84.945936,10.3102512 C85.0414797,13.362978 84.9812947,16.4209851 84.9812947,19.5378291 L80.508793,19.5378291 C80.508793,17.2126424 80.5091691,14.9696764 80.508793,12.7263333 C80.508793,12.2247115 80.5272246,11.7219582 80.5031506,11.2210907 C80.41513,9.39564004 79.7128456,8.7529607 77.7816577,8.72618239 C76.3966492,9.41977823 75.9196827,10.572754 75.9610599,12.105152 C76.0272634,14.5404692 75.9787392,16.9788037 75.9787392,19.518594 L71.5694318,19.518594 L71.5694318,5.71305725 Z" id="Fill-4" fill="#CF1643"></path>
                        <path d="M20.3077534,5.65595534 C20.3077534,8.47635212 20.3273135,11.1032662 20.2987256,13.7298031 C20.2863125,14.8725956 20.5552644,15.8335973 21.5945851,16.4502527 C23.9312697,16.6991778 24.8321647,15.9293958 24.849468,13.6121294 C24.8690281,11.0440522 24.8539818,8.47522064 24.8539818,5.7645772 C26.3209925,5.56091122 27.7289466,5.71290639 29.2347014,5.6582183 L29.2347014,19.5195746 L25.0292708,19.5195746 C24.6463434,19.0036207 25.029647,18.3843253 24.7005099,17.77031 C23.7480815,18.6385306 22.8377826,19.4961907 21.5073167,19.7964094 C19.4192716,20.2678585 16.9945662,19.1503357 16.3547239,17.1434714 C16.0549271,16.2035906 15.8544356,15.1939353 15.8296093,14.210304 C15.7600203,11.4513842 15.8055353,8.68906993 15.8055353,5.83661462 C17.2349303,5.4722788 18.6560499,5.75024515 20.3077534,5.65595534" id="Fill-6" fill="#CF1643"></path>
                        <path d="M63.5301381,9.29350532 C63.3706477,9.21467904 63.1562385,9.09097081 62.9290399,8.99894395 C60.9154737,8.18692012 59.376241,8.82469639 58.5975969,10.8153428 C58.1006941,12.085238 58.2357343,13.3370295 58.6141478,14.6370974 C58.9914328,15.9315079 59.9085026,16.3810817 61.0572848,16.5753187 C61.5391414,16.6564079 62.0465766,16.5888964 62.4159623,16.5888964 C64.971194,14.8490609 65.3563783,12.1817908 63.5301381,9.29350532 M68.8659192,12.5540469 C68.9625915,17.3262427 65.7867015,19.9784265 61.324356,19.9237384 C56.3929432,19.8626386 53.8614094,17.0546881 53.9189613,12.6023233 C53.9810272,7.81617259 56.7198232,5.46005884 61.432689,5.36840914 C66.0842413,5.27826808 69.0160057,8.03643358 68.8659192,12.5540469" id="Fill-8" fill="#CF1643"></path>
                        <g id="Group-12" transform="translate(31.581687, 1.622501)">
                            <mask id="mask-4" fill="white">
                                <use xlink:href="#path-3"></use>
                            </mask>
                            <g id="Clip-11"></g>
                            <path d="M2.39315168,1.18880591 C3.78004099,0.720751301 5.15564561,0.236101682 6.72459471,0 L6.72459471,3.832315 C7.73156587,4.2709512 8.76298722,3.86437354 9.76506835,4.14007694 L9.76506835,6.86920118 C8.92736764,7.37082296 7.88165235,6.8477031 6.78252282,7.20525006 C6.78252282,9.17213548 6.71707157,11.1646677 6.80358759,13.1504111 C6.8701673,14.6835634 7.82635733,15.1535038 9.68156159,14.6726258 C9.99452386,15.584974 9.78500465,16.5090141 9.83277653,17.4394659 C7.98735235,18.6893717 6.13064346,18.6278947 4.32998191,17.6238968 C2.73394954,16.7345553 2.44694207,15.0644942 2.34312285,13.4291318 C2.24757908,11.928038 2.32205809,10.4160066 2.32205809,8.90887833 C2.32205809,8.35671721 2.32205809,7.80455608 2.32205809,7.25314928 C1.58102962,6.9088029 0.868589058,7.18639209 0.11815668,6.9680169 C-0.0988856672,6.08018405 0.0553385308,5.16519575 0.0259983175,4.26981972 C0.713988703,3.82967489 1.43959475,4.20230821 2.20394492,3.91415856 C2.49847552,3.10364336 2.194541,2.15056197 2.39315168,1.18880591" id="Fill-10" fill="#CF1643" mask="url(#mask-4)"></path>
                        </g>
                        <path d="M44.7858796,8.67073999 L42.6109422,8.67073999 C42.3938999,7.69842347 42.5338301,6.78569812 42.5093799,5.88994493 C43.1928565,5.45281738 43.9147009,5.82281059 44.6275177,5.55917628 C45.0322621,4.73470619 44.5767365,3.76352116 44.9013596,2.81836011 C46.2367155,2.30919514 47.6363941,1.89205703 49.2493536,1.57939202 L49.2493536,5.64743155 L52.2157244,5.64743155 L52.2157244,8.64132157 L49.2783176,8.64132157 C49.2783176,10.8224334 49.2580052,12.8673908 49.2903546,14.9115939 C49.300887,15.563325 49.661245,16.0871992 50.1528817,16.4360715 C50.8713407,16.8154937 51.5002745,16.4145734 52.2273852,16.2757788 L52.2273852,18.9845365 C50.5027073,20.2793241 47.8188301,20.3072339 46.2735788,18.9468205 C45.05107,17.8704081 44.8498262,16.3534736 44.8016781,14.8501169 C44.7377315,12.8598476 44.7858796,10.8658067 44.7858796,8.67073999" id="Fill-13" fill="#CF1643"></path>
                    </g>
                    <g id="Group-12" transform="translate(89.000000, 0.000000)">
                        <path d="M8.53982267,14.4347408 C8.08849609,12.8347038 6.76099917,12.2709563 5.4383512,11.7582538 C3.49839292,11.0064654 1.73821927,10.0328562 0.458838982,8.08901572 C0.218628804,6.88382714 -0.284917375,5.59081105 0.210049869,4.08460682 C0.700541148,2.59266518 1.64869995,1.53160379 2.91689033,0.969357603 C5.89751072,-0.35180833 8.9971172,-0.189665239 12.1045566,0.662336656 C12.4141443,1.95798006 12.2101148,3.13239149 12.2783733,4.51511174 C9.77332431,3.47994821 7.34809671,2.81335994 5.03290328,4.1660537 C4.59686959,4.93923603 4.805748,5.56341187 4.76844828,6.15756121 C5.68229135,7.43181074 7.08513371,7.82102922 8.37048195,8.38928071 C9.21606654,8.76311061 10.0243514,9.16921901 10.7912336,9.71082197 C12.9120955,11.2080183 13.3906509,13.329015 12.9251504,15.6579453 C12.5126155,17.7218918 10.9430434,18.9360883 9.01688605,19.4803186 C6.22239125,20.2703908 3.4081276,20.0384361 0.648321544,19.169169 C0.427507219,19.0997327 0.249587569,18.8917992 0.0175833294,18.7232755 L0.0175833294,14.6783308 C1.24884699,15.3246512 2.28466013,16.081319 3.54725555,16.3800826 C4.78224918,16.6720903 5.96800718,16.7734297 7.15600317,16.2265721 C7.86880076,15.8985326 8.40591669,15.4440065 8.53982267,14.4347408" id="Fill-1" fill="#008D71"></path>
                        <path d="M44.0549347,5.79881962 L48.1552926,5.79881962 C48.6002782,6.34455123 48.1795374,6.97698435 48.5182188,7.4859335 C50.1538114,5.80520025 51.9800056,4.82746239 54.4018762,5.71174277 C55.4682751,6.10096126 56.2403793,6.75141028 56.6033055,7.79745842 C56.9248291,8.72490189 57.2795494,9.69738511 57.3097621,10.6597344 C57.4015194,13.5820634 57.3429589,16.5092716 57.3429589,19.528436 L53.1031001,19.528436 C52.7427848,19.2600742 52.9292834,18.7841542 52.9255534,18.3739172 C52.9065306,16.3103461 52.9233154,14.2460243 52.9147365,12.1824532 C52.9072765,10.3474588 52.7774735,10.0914829 51.2552721,8.79246152 C49.8479538,8.53310764 48.9773784,9.25599559 48.3779719,10.6619864 L48.3779719,19.4331019 C46.9579717,19.8260737 45.5551293,19.531814 44.0549347,19.6316521 L44.0549347,5.79881962 Z" id="Fill-3" fill="#008D71"></path>
                        <path d="M37.2312499,11.0126208 C37.4356523,9.74024794 37.1849982,8.91789721 36.2133406,8.42996661 C33.7470833,8.28621475 33.0749424,8.76100876 32.8104874,10.9127827 C34.2592084,11.1192149 35.7015885,10.986723 37.2312499,11.0126208 M41.3118389,13.6395641 C39.8030654,13.6395641 38.3935091,13.6395641 36.9843258,13.6395641 C35.6296,13.6395641 34.2748743,13.6395641 32.9369335,13.6395641 C32.732904,15.4993303 33.4703194,16.4879528 35.0857702,16.6598545 C36.7131568,16.8328822 38.2581111,16.6196941 39.9455503,15.9883869 C40.0171657,16.0829704 40.1480878,16.1764279 40.1499527,16.2721374 C40.1663646,17.0768475 40.1592777,17.881933 40.1592777,18.8596709 C37.9459125,19.6929062 35.7985678,20.2607823 33.3752051,19.7394473 C31.0353939,19.2361281 29.3751835,18.0196796 28.6907337,15.7759495 C27.5456324,12.0203852 28.4337386,7.74160914 32.1898201,6.05637191 C34.9966238,4.7967603 38.1066742,5.61010307 39.4483451,6.97105412 C40.5483137,8.08691387 41.0727477,9.44073362 41.2898321,10.9236673 C41.4125482,11.7625326 41.3118389,12.6344271 41.3118389,13.6395641" id="Fill-5" fill="#008D71"></path>
                        <g id="Group-9" transform="translate(59.708131, 5.372157)">
                            <mask id="mask-6" fill="white">
                                <use xlink:href="#path-5"></use>
                            </mask>
                            <g id="Clip-8"></g>
                            <path d="M6.10551936,3.04703725 C4.90707946,4.10959997 4.90707946,4.10959997 4.51132946,5.56400849 L9.11224955,5.56400849 C9.41102028,4.7349018 9.19878489,4.02252312 8.657939,3.48730079 C7.97610017,2.8120799 7.06374909,2.94569782 6.10551936,3.04703725 M13.2021635,8.25588408 L4.46060184,8.25588408 C4.42031815,9.70616395 5.15586857,10.4849763 6.20436361,11.236014 C7.98990107,11.2934397 9.90412254,11.6331145 11.7142778,10.4587031 C11.9820898,11.5051265 11.823939,12.4276907 11.8690716,13.4666076 C9.91941543,14.4514767 7.90261973,14.8759763 5.78884477,14.4815032 C4.84180495,14.3047222 3.86417937,14.1042953 3.00703187,13.5367945 C2.15846331,12.9745483 1.42515087,12.3240993 0.985014213,11.4052884 C-0.263407315,8.80086502 -0.394702319,6.15965915 0.993593148,3.57738028 C3.05402952,-0.254376255 7.71015319,-0.947237708 10.8780182,1.20753889 C11.4983124,1.62941119 12.0171515,2.17214015 12.3189062,2.88564482 C13.0208869,4.54648552 13.4998153,6.24373335 13.2021635,8.25588408" id="Fill-7" fill="#008D71" mask="url(#mask-6)"></path>
                        </g>
                        <path d="M19.7178765,14.4450249 C21.6951345,16.9218357 22.1136373,17.0175452 25.9901969,15.911444 C26.2016863,16.9038198 26.0547254,17.8965709 26.0879221,18.8645502 C22.6086045,21.1784672 17.2102165,19.7394473 15.698832,15.9429719 C14.4914401,12.9099202 14.9666385,7.93152674 19.2106003,6.10291298 C20.8536528,5.39503828 22.6410553,5.08989399 24.4564325,5.54366945 C24.9301389,5.66227412 25.4030993,5.78275544 25.9935538,5.93176194 C26.2188441,7.07239355 26.0386865,8.22578642 26.109556,9.59274277 C23.5466924,8.37254093 21.3840548,8.32487387 19.7335423,10.9578225 C19.5880734,11.9978653 19.6164212,13.178282 19.7178765,14.4450249" id="Fill-10" fill="#008D71"></path>
                    </g>
                </g>
            </g>
        </g>
    </g>
</svg>