<svg height="60" width="240" viewBox="0 0 240 60" xmlns="http://www.w3.org/2000/svg"><g fill="none"><path d="M50.689 38.896V28.64l.043-.048-.043-.043-5.047-23.466L21.662 0 0 21.077v10.39l5.047 23.466L29.015 60l21.679-21.077-.043-.043zm-33.394-6.864l6.716-6.528 9.437 2 .15.71-6.7 6.527-9.436-2z" fill="#ffd877"/><path d="M24.019 15.317l-8.54 8.408 1.988 9.384 9.44 2.023 8.54-8.408-1.989-9.385zM21.669 0L45.64 5.124l5.049 23.73.043.043L29.04 50.244 5.065 45.12.016 21.39l.027-.027L0 21.32zM76.08 15.093c-.113.197-.265.37-.447.508a.976.976 0 01-.6.169 1.47 1.47 0 01-.7-.203l-.853-.462a7.022 7.022 0 00-1.09-.458 4.363 4.363 0 00-1.387-.202 3.002 3.002 0 00-2 .586c-.444.39-.686.959-.66 1.548-.007.385.142.757.415 1.031.301.297.655.537 1.044.706.478.216.97.398 1.474.545.551.165 1.119.346 1.694.548.579.205 1.144.443 1.694.714a5.745 5.745 0 011.454 1.028c.443.445.796.97 1.04 1.548.287.695.428 1.443.414 2.195a7.12 7.12 0 01-.497 2.67 6.151 6.151 0 01-1.437 2.166 6.7 6.7 0 01-2.324 1.457 8.784 8.784 0 01-3.14.528 10.03 10.03 0 01-1.963-.198c-.66-.13-1.309-.316-1.938-.557a11.146 11.146 0 01-1.752-.854 7.547 7.547 0 01-1.433-1.102l1.42-2.232c.107-.175.259-.318.44-.413.186-.103.395-.157.608-.157.306.008.604.102.858.272.29.178.613.376.977.59.396.235.812.434 1.243.595a4.758 4.758 0 001.657.268 3.169 3.169 0 002.025-.574 2.163 2.163 0 00.725-1.811 1.705 1.705 0 00-.415-1.172 3.081 3.081 0 00-1.043-.751 9.134 9.134 0 00-1.466-.52 44.203 44.203 0 01-1.686-.504 12.074 12.074 0 01-1.686-.676 5.317 5.317 0 01-1.47-1.061 4.99 4.99 0 01-1.04-1.65 6.462 6.462 0 01-.414-2.423 5.76 5.76 0 01.468-2.262 5.84 5.84 0 011.375-1.96c.644-.6 1.4-1.068 2.224-1.378a8.282 8.282 0 013.02-.516c.62-.001 1.239.049 1.851.149a9.65 9.65 0 013.218 1.13c.448.256.865.562 1.243.912zm10.285 1.59a8.814 8.814 0 013.093.517 6.61 6.61 0 013.95 3.847c.382.995.57 2.052.554 3.115a8.46 8.46 0 01-.554 3.144 6.76 6.76 0 01-1.555 2.38 6.848 6.848 0 01-2.395 1.504 8.72 8.72 0 01-3.093.526 8.852 8.852 0 01-3.114-.526 7.056 7.056 0 01-2.416-1.504 6.734 6.734 0 01-1.567-2.38 8.46 8.46 0 01-.55-3.144 8.332 8.332 0 01.55-3.115 6.67 6.67 0 011.567-2.355 7.028 7.028 0 012.416-1.492 8.947 8.947 0 013.114-.518zm0 11.799a2.542 2.542 0 002.278-1.053c.487-.71.727-1.783.727-3.23s-.24-2.515-.727-3.222a2.542 2.542 0 00-2.278-1.06 2.624 2.624 0 00-2.315 1.052c-.488.707-.731 1.78-.731 3.222 0 1.447.243 2.52.73 3.23a2.62 2.62 0 002.316 1.06zm20.783-8.124a2.4 2.4 0 01-.384.382.847.847 0 01-.531.14 1.16 1.16 0 01-.594-.157l-.593-.345a4.676 4.676 0 00-.774-.341 3.253 3.253 0 00-1.1-.156 3.117 3.117 0 00-1.408.296c-.392.189-.73.471-.982.822a3.897 3.897 0 00-.573 1.343 8.05 8.05 0 00-.184 1.792c0 1.398.272 2.466.836 3.222a2.648 2.648 0 002.266 1.126c.417.017.833-.047 1.225-.189a3.66 3.66 0 00.765-.41l.58-.412c.194-.137.428-.206.665-.197a.921.921 0 01.799.378l1.287 1.562a6.745 6.745 0 01-1.442 1.257 7.156 7.156 0 01-1.555.76c-.516.18-1.05.309-1.593.383-.517.068-1.037.102-1.559.103a6.79 6.79 0 01-2.596-.506 6.329 6.329 0 01-2.178-1.471 7.042 7.042 0 01-1.488-2.367 8.73 8.73 0 01-.547-3.21 8.934 8.934 0 01.476-2.947 6.732 6.732 0 011.417-2.375 6.528 6.528 0 012.32-1.582 8.199 8.199 0 013.194-.575 7.919 7.919 0 013.064.546c.891.375 1.698.92 2.374 1.603zm7.78-7.51c.003.336-.07.668-.212.973a2.573 2.573 0 01-.584.818 2.925 2.925 0 01-.863.548c-.333.135-.69.203-1.05.2a2.543 2.543 0 01-1.014-.2 2.847 2.847 0 01-.834-.548 2.534 2.534 0 01-.57-.818 2.322 2.322 0 01-.21-.973c-.001-.342.07-.68.21-.994.134-.306.328-.584.57-.818.24-.232.524-.418.834-.548.32-.132.665-.199 1.013-.196a2.76 2.76 0 011.914.744c.246.234.444.512.584.818.142.313.214.652.212.994zm-.513 3.975v14.518h-4.423V16.823zm9.605-.14a7.503 7.503 0 012.657.447 5.78 5.78 0 012.05 1.306 5.97 5.97 0 011.345 2.102c.335.9.5 1.855.483 2.816.005.274-.008.549-.04.821a1.27 1.27 0 01-.152.493.607.607 0 01-.304.254c-.156.05-.32.074-.484.07h-8.389c.14 1.231.509 2.102 1.112 2.648a3.278 3.278 0 002.312.82c.443.01.884-.052 1.308-.18.334-.112.659-.25.972-.41l.787-.41c.232-.12.49-.182.75-.181a.902.902 0 01.788.377l1.263 1.56c-.419.49-.908.913-1.452 1.256a7.405 7.405 0 01-1.603.76 8.7 8.7 0 01-1.64.382c-.52.067-1.043.101-1.567.102a8.191 8.191 0 01-2.87-.496 6.654 6.654 0 01-2.34-1.482 7.017 7.017 0 01-1.588-2.464 9.107 9.107 0 01-.582-3.399 7.702 7.702 0 01.5-2.767 6.72 6.72 0 013.69-3.85 7.401 7.401 0 012.994-.575zm.086 3.005a2.626 2.626 0 00-1.94.71 3.697 3.697 0 00-.926 2.053h5.437c0-.343-.045-.684-.136-1.014a2.399 2.399 0 00-.434-.875 2.206 2.206 0 00-.792-.628 2.7 2.7 0 00-1.21-.246zm14.076 12.028a5.463 5.463 0 01-1.88-.296 3.58 3.58 0 01-2.214-2.173 5.02 5.02 0 01-.286-1.735v-7.435h-1.263a.86.86 0 01-.589-.215.795.795 0 01-.248-.632V17.55l2.377-.445.88-3.511a.886.886 0 01.98-.665h2.331v4.204h3.632v2.943h-3.632v7.143c-.008.29.08.573.253.81.17.22.444.342.728.325.142.007.284-.01.42-.049.101-.026.199-.063.29-.11l.232-.109a.6.6 0 01.249-.048.523.523 0 01.324.089c.101.079.187.175.252.284l1.355 2.027a6.197 6.197 0 01-1.944.964 7.894 7.894 0 01-2.247.313zm12.689 4.026a1.248 1.248 0 01-1.396.844h-3.299l2.842-5.89-5.883-13.26h3.897a1.202 1.202 0 011.209.758l2.418 6.265c.222.567.408 1.147.556 1.737.092-.3.196-.59.312-.88.116-.292.22-.587.328-.886l2.19-6.237c.083-.223.24-.413.444-.54.213-.14.463-.216.719-.217h3.556z" fill="#3b3f44"/><path d="M159.96 10.686h2.325a.986.986 0 01.62.19c.16.118.277.284.334.474l4.275 14.42c.076.263.148.542.211.846.064.305.123.614.182.94a36.9 36.9 0 01.198-.948 8.34 8.34 0 01.232-.846l4.87-14.42c.07-.18.186-.337.338-.453a.927.927 0 01.612-.212h.81a.965.965 0 01.617.19c.155.123.273.287.337.474l4.841 14.43c.19.565.343 1.141.46 1.725.06-.321.11-.626.16-.913.045-.275.107-.546.186-.813l4.292-14.42a.888.888 0 01.325-.461.944.944 0 01.612-.203h2.182l-6.457 20.749h-2.511l-5.246-15.825a8.476 8.476 0 01-.287-1.045c-.05.194-.093.38-.14.558-.046.178-.088.339-.134.487l-5.271 15.825H166.4zm34.451 5.757a7.55 7.55 0 012.89.53 6.12 6.12 0 012.19 1.512 6.717 6.717 0 011.386 2.365 10.176 10.176 0 010 6.204 6.691 6.691 0 01-1.386 2.356 6.049 6.049 0 01-2.19 1.504 8.277 8.277 0 01-5.78 0 6.083 6.083 0 01-2.198-1.504 6.654 6.654 0 01-1.399-2.356 10.009 10.009 0 010-6.204 6.658 6.658 0 011.399-2.365 6.154 6.154 0 012.199-1.512 7.55 7.55 0 012.889-.53zm0 12.997c1.44 0 2.517-.482 3.23-1.445.714-.964 1.07-2.308 1.066-4.033 0-1.733-.355-3.084-1.065-4.053-.71-.97-1.788-1.454-3.231-1.454a4.513 4.513 0 00-1.904.374 3.549 3.549 0 00-1.348 1.08 4.85 4.85 0 00-.808 1.714c-.352 1.52-.352 3.1 0 4.62a4.82 4.82 0 00.796 1.752c.357.459.819.826 1.348 1.07.603.264 1.257.391 1.916.375zm9.658 1.995V16.686h1.41a.778.778 0 01.553.162c.12.158.193.35.206.553l.165 2.3a6.667 6.667 0 011.777-2.407 3.78 3.78 0 012.48-.85c.354-.004.707.042 1.05.136.305.088.598.218.872.387l-.32 1.935a.41.41 0 01-.427.366 2.022 2.022 0 01-.594-.14 3.668 3.668 0 00-1.119-.137 3.064 3.064 0 00-2.152.787 5.951 5.951 0 00-1.441 2.284v9.373zm13.788-21.143v12.441h.663c.161.005.322-.02.474-.075.159-.08.3-.19.42-.323l4.613-4.923a2.45 2.45 0 01.42-.373c.172-.105.372-.156.574-.147h2.323l-5.385 5.699a3.888 3.888 0 01-.394.419 2.328 2.328 0 01-.44.331c.17.112.327.244.465.394.146.157.278.327.394.508l5.688 7.191h-2.299a1.07 1.07 0 01-.537-.126 1.397 1.397 0 01-.42-.377l-4.78-5.959a1.111 1.111 0 00-.42-.394 1.712 1.712 0 00-.646-.092h-.713v6.948h-2.567V10.292zm20.238 9.158a.568.568 0 01-.533.314 1.019 1.019 0 01-.495-.155c-.18-.103-.405-.22-.673-.352a6.607 6.607 0 00-.948-.36 4.63 4.63 0 00-1.304-.163 3.902 3.902 0 00-1.172.163 2.83 2.83 0 00-.893.452 1.999 1.999 0 00-.563.666 1.773 1.773 0 00-.199.838c-.01.34.105.673.326.934.24.264.527.482.846.645.392.194.8.354 1.22.477.452.139.918.29 1.396.444.478.155.944.335 1.397.524.437.183.847.424 1.218.716.353.29.64.65.847 1.055.23.467.342.981.326 1.5a4.71 4.71 0 01-.36 1.855 4.022 4.022 0 01-1.075 1.475 5.092 5.092 0 01-1.735.984 7.222 7.222 0 01-2.379.356 7.48 7.48 0 01-2.78-.494 7.109 7.109 0 01-2.117-1.257l.606-.972a.913.913 0 01.275-.289.798.798 0 01.423-.1c.2.01.392.08.55.2.19.135.423.282.703.445.316.182.651.33.999.444.475.146.97.214 1.468.2.448.01.895-.055 1.32-.192.346-.11.665-.289.94-.523.242-.208.433-.467.559-.758.12-.292.182-.603.182-.918a1.522 1.522 0 00-.326-.996 2.763 2.763 0 00-.846-.675c-.391-.2-.8-.363-1.224-.486-.457-.138-.926-.284-1.405-.418-.477-.151-.946-.326-1.405-.524-.44-.199-.849-.463-1.21-.783a3.309 3.309 0 01-.847-1.097 3.537 3.537 0 01-.326-1.584 3.823 3.823 0 01.347-1.6 3.915 3.915 0 011.016-1.344 4.982 4.982 0 011.638-.926 6.56 6.56 0 012.214-.343c.887-.014 1.769.14 2.598.452a6.03 6.03 0 011.994 1.257z" fill="#9e9a98"/><path d="M165.924 49.108c.558 0 1.057-.084 1.496-.253s.807-.4 1.107-.695.527-.64.685-1.036.236-.822.236-1.276c0-.41-.063-.76-.189-1.05s-.291-.537-.496-.739-.439-.369-.702-.5-.532-.244-.807-.34-.543-.185-.806-.264-.498-.165-.702-.26-.37-.206-.496-.337-.19-.295-.19-.493c0-.31.105-.557.314-.739s.528-.273.956-.273c.247 0 .468.032.661.098s.366.138.516.219l.405.22c.12.065.231.097.335.097.117 0 .212-.027.286-.08s.146-.136.213-.244l.567-1.06c-.175-.162-.375-.307-.597-.435s-.463-.238-.72-.33-.527-.163-.813-.21-.579-.07-.88-.07c-.54 0-1.02.081-1.438.246s-.772.383-1.06.658-.506.587-.655.938-.222.711-.222 1.08c0 .459.063.845.189 1.158s.29.573.496.783.437.378.698.506.529.236.804.324.542.167.803.24.494.155.698.25.37.213.496.357.19.33.19.56c0 .396-.115.685-.345.868s-.551.273-.965.273c-.306 0-.571-.043-.796-.128s-.425-.18-.598-.284-.328-.198-.466-.283-.273-.128-.408-.128a.593.593 0 00-.5.27l-.674 1.066c.193.194.42.369.681.526s.54.294.837.409.604.203.922.266.628.095.934.095zm6.953-.108v-4.158h3.996V49h2.295v-9.835h-2.295v4.111h-3.996v-4.11h-2.295V49zm12.514.108c.765 0 1.462-.128 2.09-.385s1.164-.61 1.61-1.063.79-.984 1.036-1.596.367-1.274.367-1.985c0-.706-.122-1.365-.367-1.977s-.591-1.143-1.037-1.593-.982-.805-1.61-1.064-1.324-.388-2.089-.388-1.462.128-2.092.385-1.169.61-1.617 1.06-.794.98-1.04 1.593-.367 1.273-.367 1.984.123 1.373.368 1.985.592 1.144 1.04 1.596.986.807 1.616 1.063 1.327.385 2.092.385zm0-1.89c-.44 0-.833-.07-1.177-.213s-.635-.347-.871-.617-.417-.6-.543-.99-.19-.828-.19-1.319c0-.486.063-.923.19-1.313s.307-.719.543-.989.526-.477.87-.62.737-.217 1.178-.217c.437 0 .826.072 1.168.216s.631.351.868.621.417.6.543.99.189.826.189 1.312c0 .49-.063.93-.189 1.32s-.307.719-.543.989-.526.476-.868.617-.731.213-1.168.213zM195.948 49l1.877-6.095a10.801 10.801 0 00.196-.669 7.995 7.995 0 00.195.669l1.85 6.095h2.065l3.038-9.835h-1.796c-.189 0-.35.05-.486.149s-.22.213-.256.344l-1.35 5.13c-.04.158-.08.326-.118.506s-.076.37-.112.567c-.04-.202-.087-.392-.141-.57l-.156-.503-1.579-5.13c-.05-.153-.138-.273-.267-.361s-.291-.132-.489-.132h-.675c-.189 0-.35.05-.483.152s-.219.215-.26.341l-1.593 5.13-.155.53a8.086 8.086 0 00-.148.597c-.023-.207-.057-.405-.102-.594s-.09-.367-.135-.533l-1.35-5.13c-.04-.149-.127-.268-.26-.358s-.298-.135-.496-.135h-1.917L193.883 49zm14.324.108c.814 0 1.52-.132 2.116-.395s1.092-.654 1.488-1.171l-.904-.952a.44.44 0 00-.513-.09.798.798 0 00-.176.11c-.135.118-.268.215-.401.294a2.193 2.193 0 01-.895.297c-.17.02-.36.03-.567.03-.36 0-.697-.07-1.012-.209s-.59-.343-.827-.61-.423-.598-.56-.99-.206-.839-.206-1.343c0-.481.069-.915.206-1.302s.328-.717.574-.99.538-.48.88-.627.72-.22 1.134-.22c.239 0 .447.019.625.055s.333.08.466.131.247.108.344.169l.266.169c.081.052.158.095.23.131s.148.054.23.054c.121 0 .215-.026.283-.077s.126-.11.175-.172l.77-1.033c-.185-.194-.396-.37-.635-.53s-.499-.297-.783-.412-.588-.205-.914-.27-.674-.098-1.043-.098c-.76 0-1.456.124-2.086.372s-1.17.594-1.623 1.039-.805.975-1.057 1.59-.378 1.288-.378 2.021c0 .72.11 1.387.331 2.002s.537 1.145.949 1.593.913.798 1.505 1.053 1.261.381 2.008.381zm5.63-.108c.188 0 .348-.05.479-.152s.218-.215.263-.34l.58-1.715h3.74l.58 1.714c.05.144.139.262.267.355s.291.138.49.138h1.768l-3.807-9.835h-2.336L214.12 49zm4.535-3.76h-2.686l.904-2.68c.068-.17.14-.373.216-.607s.151-.488.223-.763c.077.27.154.521.233.753l.206.604zm7.088 3.868c.558 0 1.056-.084 1.495-.253s.808-.4 1.107-.695.528-.64.685-1.036.236-.822.236-1.276c0-.41-.063-.76-.189-1.05s-.29-.536-.496-.739-.438-.369-.702-.5-.532-.244-.806-.34-.544-.185-.807-.264-.497-.165-.702-.26-.37-.206-.496-.337-.189-.295-.189-.493c0-.31.105-.557.314-.739s.528-.273.955-.273c.247 0 .468.032.661.098s.366.138.517.219l.405.22c.119.065.23.097.334.097.117 0 .213-.027.287-.08s.145-.136.213-.244l.567-1.06c-.176-.161-.375-.307-.598-.435a4.498 4.498 0 00-1.532-.54 5.391 5.391 0 00-.881-.07c-.54 0-1.02.081-1.438.246s-.771.383-1.06.658-.506.587-.654.938-.223.711-.223 1.08c0 .459.063.845.189 1.158s.291.573.496.783.438.378.699.506.529.236.803.324.542.168.803.24.494.155.699.25.37.213.496.357.189.33.189.56c0 .396-.115.685-.344.868s-.551.273-.965.273c-.306 0-.572-.043-.797-.128s-.424-.18-.597-.284-.329-.198-.466-.283-.274-.128-.409-.128a.593.593 0 00-.499.27l-.675 1.066c.193.194.42.369.682.527s.54.293.837.408.604.204.921.267.629.094.935.094zM238.514 49v-1.755h-4.037v-2.342h3.092v-1.688h-3.091V40.92h4.036v-1.755h-6.332V49z" fill="#e65376"/></g></svg>