<svg width="180" height="48" viewBox="0 0 180 48" xmlns="http://www.w3.org/2000/svg"><title>site-logo</title><g fill="none" fill-rule="evenodd"><path d="M70.255 6.64c0 .475-.05.944-.15 1.41-.1.464-.26.902-.48 1.313-.218.41-.505.77-.86 1.08-.357.31-.78.548-1.273.712v.164c.438.108.853.272 1.245.49.392.22.734.517 1.026.89.292.374.524.83.697 1.37.174.537.26 1.17.26 1.9 0 .985-.168 1.838-.506 2.558-.337.72-.793 1.31-1.368 1.765-.574.456-1.245.793-2.01 1.012-.767.22-1.58.33-2.436.33h-.985c-.4 0-.834-.015-1.3-.042-.465-.028-.943-.07-1.436-.124-.493-.055-.95-.137-1.37-.247V2.345c.603-.11 1.346-.205 2.23-.287.886-.083 1.766-.124 2.64-.124.804 0 1.574.064 2.313.192.74.128 1.386.365 1.943.71.556.348.998.827 1.327 1.438.328.61.492 1.4.492 2.366zm-5.773 12.01c.766 0 1.396-.245 1.888-.737.493-.493.74-1.213.74-2.162 0-.6-.083-1.08-.247-1.435-.165-.356-.383-.63-.657-.82-.274-.193-.588-.316-.944-.37-.356-.055-.725-.082-1.108-.082H62.76v5.444c.144.055.395.096.75.123.357.028.68.04.972.04zm-.93-8.316c.2 0 .433-.014.698-.04.264-.028.478-.06.643-.097.53-.2.98-.53 1.354-.985.374-.456.56-1.05.56-1.778 0-.474-.063-.876-.19-1.204-.128-.328-.302-.588-.52-.78-.22-.19-.48-.328-.78-.41-.3-.082-.625-.123-.972-.123-.747 0-1.276.036-1.586.11v5.307h.792zm8.618 4.186c0-2.426.475-4.232 1.423-5.417.95-1.186 2.27-1.78 3.967-1.78 1.824 0 3.183.603 4.077 1.807.894 1.204 1.34 3 1.34 5.39 0 2.444-.474 4.254-1.422 5.43-.95 1.177-2.28 1.766-3.995 1.766-3.593 0-5.39-2.4-5.39-7.196zm3.366 0c0 1.368.155 2.426.465 3.174.31.748.83 1.122 1.56 1.122.693 0 1.21-.324 1.546-.972.338-.647.506-1.755.506-3.324 0-1.404-.155-2.472-.465-3.2-.31-.73-.84-1.096-1.587-1.096-.638 0-1.135.324-1.49.972-.356.647-.534 1.755-.534 3.324zm15.76-3.612c-.44-.164-.84-.246-1.205-.246-.49 0-.915.137-1.27.41-.357.274-.598.657-.726 1.15v9.138h-3.256V7.68h2.49l.383 1.642h.11c.237-.602.58-1.072 1.026-1.41.447-.337.962-.506 1.546-.506.438 0 .867.092 1.286.274l-.383 3.228zm6.155 6.813c0-.382-.122-.706-.368-.97-.247-.265-.56-.51-.944-.74-.383-.227-.79-.46-1.218-.697-.428-.237-.834-.53-1.217-.875-.383-.347-.698-.766-.944-1.26-.247-.49-.37-1.11-.37-1.86 0-1.276.346-2.26 1.04-2.954.692-.693 1.714-1.04 3.063-1.04.803 0 1.56.087 2.27.26.713.174 1.278.388 1.698.643l-.765 2.517c-.347-.146-.767-.287-1.26-.424-.49-.137-.975-.205-1.45-.205-.893 0-1.34.374-1.34 1.122 0 .346.123.634.37.862.246.227.56.45.944.67.382.218.787.446 1.216.683.43.237.835.533 1.218.89.383.355.697.788.944 1.3.246.51.37 1.14.37 1.887 0 1.258-.384 2.27-1.15 3.037-.766.766-1.906 1.15-3.42 1.15-.748 0-1.482-.093-2.203-.275-.72-.182-1.3-.42-1.737-.71l.903-2.628c.384.22.826.41 1.328.575.5.163 1.026.245 1.573.245.42 0 .767-.096 1.04-.287.274-.192.41-.497.41-.917zm14.228 2.628c-.456.4-1.076.73-1.86.985-.785.255-1.605.383-2.463.383-.948 0-1.764-.164-2.448-.493-.684-.328-1.245-.802-1.683-1.423-.438-.62-.762-1.372-.97-2.257-.21-.884-.316-1.892-.316-3.023 0-2.462.488-4.282 1.464-5.458.976-1.177 2.33-1.765 4.063-1.765.583 0 1.15.087 1.696.26.548.173 1.036.465 1.465.875.43.41.775.958 1.04 1.642.264.684.396 1.546.396 2.586 0 .4-.022.83-.067 1.285-.046.456-.114.95-.205 1.478h-6.65c.038 1.13.275 1.997.713 2.6.438.6 1.14.902 2.107.902.584 0 1.117-.09 1.6-.274.484-.18.854-.373 1.11-.573l1.01 2.27zm-4.268-10.26c-.693 0-1.213.278-1.56.834-.346.556-.547 1.336-.6 2.34h3.774c.055-1.04-.054-1.83-.328-2.367-.274-.538-.702-.807-1.286-.807zm5.664-2.408h1.504V5.108l3.256-1.012V7.68h2.654v2.9h-2.654v5.965c0 .784.078 1.34.233 1.67.155.327.433.49.834.49.275 0 .52-.026.74-.08.22-.056.456-.138.71-.247l.412 2.6c-.402.2-.867.368-1.396.505-.53.137-1.085.205-1.67.205-1.038 0-1.818-.3-2.338-.903-.52-.6-.78-1.614-.78-3.037V10.58h-1.504v-2.9zM126.7 17.72c0-.382-.124-.706-.37-.97-.247-.265-.56-.51-.944-.74-.383-.227-.79-.46-1.218-.697-.43-.237-.834-.53-1.217-.875-.382-.347-.697-.766-.943-1.26-.247-.49-.37-1.11-.37-1.86 0-1.276.347-2.26 1.04-2.954.693-.693 1.715-1.04 3.064-1.04.804 0 1.56.087 2.272.26.712.174 1.277.388 1.696.643l-.766 2.517c-.346-.146-.766-.287-1.258-.424-.493-.137-.976-.205-1.45-.205-.894 0-1.34.374-1.34 1.122 0 .346.122.634.368.862.247.227.56.45.944.67.383.218.79.446 1.218.683.43.237.834.533 1.217.89.384.355.7.788.945 1.3.247.51.37 1.14.37 1.887 0 1.258-.383 2.27-1.15 3.037-.765.766-1.905 1.15-3.42 1.15-.747 0-1.48-.093-2.202-.275-.72-.182-1.3-.42-1.737-.71l.903-2.628c.382.22.824.41 1.326.575.5.163 1.026.245 1.573.245.418 0 .765-.096 1.038-.287.274-.192.41-.497.41-.917zm11.764 3.64v-8.263c0-.985-.114-1.696-.342-2.134-.228-.438-.643-.656-1.245-.656-.438 0-.84.155-1.204.465-.365.31-.61.702-.74 1.176v9.412h-3.255V2.208h3.256V8.91h.082c.365-.473.807-.856 1.327-1.148.52-.292 1.172-.438 1.957-.438.565 0 1.057.082 1.477.247.42.165.775.438 1.067.82.292.384.51.9.657 1.547.147.648.22 1.464.22 2.45v8.973h-3.256zm5.773-13.68h3.255v13.68h-3.255V7.68zm-.383-3.858c0-.547.173-.998.52-1.354.346-.356.838-.534 1.477-.534.64 0 1.15.174 1.533.52.383.347.575.803.575 1.368 0 .566-.192 1.013-.575 1.34-.383.33-.894.493-1.532.493s-1.13-.168-1.477-.506c-.346-.338-.52-.78-.52-1.328zm12.722 7.086c-.438-.164-.84-.246-1.204-.246-.492 0-.916.137-1.272.41-.356.274-.597.657-.725 1.15v9.138h-3.256V7.68h2.49l.382 1.642h.11c.236-.602.578-1.072 1.025-1.41.447-.337.962-.506 1.546-.506.438 0 .867.092 1.286.274l-.384 3.228zm10.807 9.44c-.456.4-1.076.73-1.86.985-.785.255-1.605.383-2.463.383-.948 0-1.764-.164-2.448-.493-.684-.328-1.245-.802-1.683-1.423-.44-.62-.763-1.372-.972-2.257-.21-.884-.315-1.892-.315-3.023 0-2.462.488-4.282 1.464-5.458.976-1.177 2.33-1.765 4.063-1.765.583 0 1.15.087 1.696.26.547.173 1.035.465 1.464.875.428.41.775.958 1.04 1.642.264.684.396 1.546.396 2.586 0 .4-.023.83-.068 1.285-.046.456-.114.95-.205 1.478h-6.65c.038 1.13.275 1.997.713 2.6.437.6 1.14.902 2.106.902.584 0 1.117-.09 1.6-.274.484-.18.854-.373 1.11-.573l1.01 2.27zm-4.268-10.26c-.693 0-1.213.278-1.56.834-.346.556-.547 1.336-.6 2.34h3.774c.054-1.04-.055-1.83-.33-2.367-.273-.538-.7-.807-1.285-.807zM65.176 43.46c-1.872 0-3.41-.617-4.61-1.85-1.202-1.23-1.802-2.858-1.802-4.878s.6-3.647 1.802-4.88c1.2-1.23 2.738-1.847 4.61-1.847 1.38 0 2.594.253 3.64.758l-.24 2.05c-1.367-.504-2.5-.756-3.4-.756-1.293 0-2.288.43-2.984 1.293-.696.863-1.044 1.99-1.044 3.382 0 1.392.348 2.52 1.044 3.382.696.862 1.69 1.293 2.984 1.293.96 0 2.095-.252 3.4-.757l.24 2.05c-1.034.506-2.248.76-3.64.76zm9.185-.075c-1.416 0-2.54-.456-3.372-1.368-.83-.91-1.247-2.045-1.247-3.4 0-1.343.417-2.473 1.248-3.39.832-.92 1.956-1.378 3.373-1.378 1.418 0 2.542.458 3.373 1.376.832.918 1.248 2.048 1.248 3.39 0 1.356-.415 2.49-1.247 3.4-.83.913-1.955 1.37-3.372 1.37zm0-7.762c-.775 0-1.382.27-1.82.813-.437.542-.655 1.27-.655 2.18 0 .925.218 1.658.656 2.2.438.542 1.045.813 1.82.813.777 0 1.384-.272 1.82-.814.44-.542.657-1.275.657-2.2 0-.91-.218-1.638-.656-2.18-.436-.542-1.043-.813-1.82-.813zm14.1 7.577h-1.92l-.093-.684c-.604.58-1.337.87-2.2.87-2.488 0-3.732-1.436-3.732-4.307v-5.065h2.088v4.916c0 .913.154 1.584.462 2.015.308.432.795.647 1.46.647.813 0 1.43-.283 1.848-.85v-6.727h2.088V43.2zm10.368 0H96.74v-4.97c0-.9-.157-1.56-.47-1.978-.315-.42-.823-.63-1.526-.63-.862 0-1.52.303-1.977.907v6.67H90.68v-9.185h1.884l.074.684c.714-.568 1.49-.85 2.328-.85 2.575 0 3.862 1.46 3.862 4.38v4.97zm6.8-1.534l-.184 1.72h-1.59c-.812 0-1.422-.23-1.83-.685-.405-.455-.608-1.01-.608-1.662v-5.322h-1.386l.184-1.7h1.202v-2.09l2.088-.22v2.31h2.144v1.7h-2.144v4.36c0 .752.077 1.205.23 1.36.155.153.595.23 1.322.23h.573zm10.128-7.65l-5.71 13.656h-2.162l2.07-5.026-3.826-8.63h2.328l2.514 6.19 2.458-6.19h2.328zm11.347 9.443c-1.873 0-3.41-.617-4.61-1.85-1.202-1.23-1.803-2.858-1.803-4.878s.6-3.647 1.802-4.88c1.2-1.23 2.738-1.847 4.61-1.847 1.38 0 2.594.253 3.64.758l-.24 2.05c-1.366-.504-2.5-.756-3.4-.756-1.293 0-2.288.43-2.984 1.293-.696.863-1.044 1.99-1.044 3.382 0 1.392.348 2.52 1.044 3.382.696.862 1.69 1.293 2.985 1.293.96 0 2.094-.252 3.4-.757l.24 2.05c-1.035.506-2.248.76-3.64.76zm9.184-.075c-1.416 0-2.54-.456-3.372-1.368-.832-.91-1.248-2.045-1.248-3.4 0-1.343.416-2.473 1.248-3.39.83-.92 1.956-1.378 3.372-1.378 1.417 0 2.54.458 3.373 1.376.832.918 1.247 2.048 1.247 3.39 0 1.356-.415 2.49-1.247 3.4-.832.913-1.956 1.37-3.373 1.37zm0-7.762c-.776 0-1.383.27-1.82.813-.437.542-.656 1.27-.656 2.18 0 .925.22 1.658.657 2.2.437.542 1.044.813 1.82.813.777 0 1.383-.272 1.82-.814.438-.542.657-1.275.657-2.2 0-.91-.22-1.638-.656-2.18-.438-.542-1.044-.813-1.82-.813zm14.1 7.577h-1.92l-.094-.684c-.603.58-1.336.87-2.2.87-2.487 0-3.732-1.436-3.732-4.307v-5.065h2.09v4.916c0 .913.153 1.584.46 2.015.31.432.796.647 1.46.647.814 0 1.43-.283 1.85-.85v-6.727h2.088V43.2zm10.368 0h-2.088v-4.97c0-.9-.157-1.56-.472-1.978-.314-.42-.822-.63-1.524-.63-.862 0-1.52.303-1.977.907v6.67h-2.088v-9.185h1.885l.074.684c.715-.568 1.49-.85 2.33-.85 2.573 0 3.86 1.46 3.86 4.38v4.97zm6.043.185c-1.43 0-2.535-.456-3.317-1.368-.782-.91-1.173-2.045-1.173-3.4 0-1.368.39-2.504 1.174-3.41.783-.905 1.89-1.358 3.318-1.358 1.146 0 2.07.215 2.772.646l-.222 1.81c-.764-.455-1.552-.683-2.365-.683-.813 0-1.44.268-1.876.804-.437.536-.656 1.266-.656 2.19 0 .912.223 1.642.666 2.19.444.548 1.066.822 1.867.822.813 0 1.607-.23 2.384-.685l.203 1.756c-.702.457-1.626.685-2.772.685zm6.486-10.96h-2.106v-2.16h2.106v2.16zm0 10.775h-2.106v-9.185h2.106V43.2zm5.507-1.534l-.202 1.72h-.74c-.788 0-1.38-.223-1.773-.666-.394-.444-.592-1.005-.592-1.682V29.34h2.107v10.755c0 .727.068 1.17.203 1.33.136.16.47.24.998.24z" fill="#FFF"/><path d="M25.24 29.95C13.51 31.014 3.222 32.576 0 33.6V48h48V28.8c-2.127 0-4.33.04-6.573.117.82 1.37 1.293 2.97 1.293 4.683 0 5.037-4.083 9.12-9.12 9.12-5.037 0-9.12-4.083-9.12-9.12 0-1.297.27-2.532.76-3.65zM33.6 40.8c3.976 0 7.2-3.224 7.2-7.2s-3.224-7.2-7.2-7.2-7.2 3.224-7.2 7.2 3.224 7.2 7.2 7.2z" fill="#F4D659"/><path d="M26.462 27.923C14.23 28.983 3.334 30.62 0 31.68V48h48V26.88c-2.593 0-5.3.06-8.052.172-1.642-1.592-3.88-2.572-6.348-2.572-2.89 0-5.467 1.345-7.138 3.443zM0 14.4c12.24 0 35.04 4.8 48 4.8V48H0V14.4z" fill="#A6C257"/><path d="M0 0h48v48H0V0zm0 12.48c12.24 0 35.04 4.8 48 4.8V48H0V12.48z" fill="#95D4FF"/></g></svg>