<svg width="120" height="32" viewBox="0 0 120 32" xmlns="http://www.w3.org/2000/svg"><title>site-logo-mobile</title><g fill="none" fill-rule="evenodd"><path d="M46.837 4.427c0 .316-.034.63-.1.94-.067.31-.174.6-.32.875-.146.273-.337.514-.574.72-.237.207-.52.365-.848.474v.11c.29.073.568.182.83.328.26.146.49.344.683.593.195.25.35.553.466.912.115.358.173.78.173 1.267 0 .656-.113 1.225-.338 1.705-.226.48-.53.873-.913 1.177-.383.303-.83.528-1.34.674-.51.145-1.052.218-1.624.218h-.656c-.268 0-.557-.01-.867-.027-.31-.018-.63-.046-.957-.082-.33-.037-.633-.09-.912-.164V1.562c.402-.073.898-.137 1.487-.19.59-.056 1.177-.083 1.76-.083.536 0 1.05.042 1.542.127.49.085.923.243 1.294.475.37.23.666.55.884.957.22.406.33.932.33 1.577zm-3.85 8.007c.512 0 .93-.164 1.26-.492.328-.33.492-.81.492-1.44 0-.402-.056-.722-.165-.96-.11-.236-.255-.418-.438-.546-.182-.128-.392-.21-.63-.246-.236-.037-.482-.055-.738-.055h-.93v3.63c.096.036.264.064.5.082.238.018.454.027.648.027zm-.62-5.545c.135 0 .29-.01.466-.028.176-.018.32-.04.43-.064.35-.134.652-.353.902-.657.25-.303.374-.698.374-1.184 0-.316-.044-.584-.13-.803-.084-.22-.2-.392-.346-.52-.146-.127-.32-.218-.52-.273-.2-.055-.416-.082-.647-.082-.5 0-.85.024-1.058.073v3.54h.528zm5.747 2.79c0-1.617.316-2.82.948-3.612.632-.79 1.514-1.185 2.645-1.185 1.216 0 2.122.4 2.718 1.204.595.802.893 2 .893 3.593 0 1.63-.316 2.836-.948 3.62-.632.785-1.52 1.177-2.663 1.177-2.396 0-3.593-1.6-3.593-4.797zm2.243 0c0 .912.103 1.617.31 2.116.207.498.553.748 1.04.748.462 0 .805-.216 1.03-.648.225-.432.338-1.17.338-2.216 0-.936-.103-1.648-.31-2.134-.207-.486-.56-.73-1.058-.73-.426 0-.757.216-.994.648-.237.432-.356 1.17-.356 2.216zm10.506-2.408c-.29-.11-.56-.164-.802-.164-.328 0-.61.09-.847.274-.237.182-.4.438-.484.766v6.092h-2.17V5.12h1.66l.254 1.094h.073c.158-.4.386-.714.684-.94.3-.224.642-.336 1.03-.336.293 0 .58.06.86.182l-.257 2.152zm4.104 4.542c0-.255-.082-.47-.246-.647-.163-.177-.373-.34-.628-.493-.256-.152-.526-.307-.812-.465-.286-.16-.556-.354-.812-.585-.255-.23-.465-.51-.63-.84-.163-.327-.245-.74-.245-1.24 0-.85.23-1.507.693-1.97.462-.46 1.143-.692 2.043-.692.534 0 1.04.058 1.513.173.474.116.85.26 1.13.43l-.51 1.677c-.23-.097-.51-.192-.84-.283-.327-.09-.65-.137-.966-.137-.596 0-.893.25-.893.748 0 .232.082.424.246.576.164.152.374.3.63.447.254.146.525.298.81.456.286.157.557.354.812.59.256.24.466.527.63.868.164.34.246.76.246 1.258 0 .84-.255 1.514-.766 2.025-.51.512-1.27.767-2.28.767-.5 0-.988-.06-1.468-.182s-.867-.28-1.16-.475l.603-1.75c.256.145.55.273.885.382.334.11.684.165 1.05.165.278 0 .51-.064.692-.192.182-.128.273-.33.273-.61zm9.485 1.75c-.304.27-.717.488-1.24.658-.523.17-1.07.255-1.642.255-.632 0-1.176-.11-1.632-.328-.456-.22-.83-.536-1.122-.95-.292-.413-.508-.915-.648-1.504-.14-.59-.21-1.262-.21-2.016 0-1.642.326-2.855.977-3.64.65-.783 1.553-1.175 2.708-1.175.39 0 .766.057 1.13.173.366.115.69.31.977.584.286.273.517.638.693 1.094.176.456.265 1.03.265 1.724 0 .267-.016.553-.046.857-.03.304-.076.632-.137.985h-4.432c.024.754.182 1.33.474 1.733.292.4.76.602 1.405.602.39 0 .744-.06 1.067-.183.32-.12.567-.25.737-.383l.675 1.515zm-2.845-6.84c-.462 0-.81.187-1.04.557-.23.372-.365.892-.4 1.56h2.516c.036-.692-.037-1.218-.22-1.577-.18-.36-.467-.538-.856-.538zm3.775-1.604h1.004V3.405l2.17-.674v2.39h1.77v1.933h-1.77v3.977c0 .523.052.894.155 1.112.105.22.29.33.558.33.182 0 .346-.02.492-.056.146-.036.304-.09.474-.164l.274 1.733c-.268.133-.578.246-.93.337-.353.09-.724.137-1.113.137-.693 0-1.213-.202-1.56-.603-.346-.4-.52-1.076-.52-2.025v-4.78h-1.003V5.12zm9.084 6.694c0-.255-.082-.47-.246-.647-.164-.177-.374-.34-.63-.493-.255-.152-.526-.307-.81-.465-.287-.16-.558-.354-.813-.585-.255-.23-.465-.51-.63-.84-.163-.327-.245-.74-.245-1.24 0-.85.23-1.507.693-1.97.462-.46 1.143-.692 2.043-.692.535 0 1.04.058 1.513.173.476.116.853.26 1.132.43l-.51 1.677c-.23-.097-.51-.192-.84-.283-.328-.09-.65-.137-.966-.137-.596 0-.894.25-.894.748 0 .232.082.424.246.576.164.152.374.3.63.447.255.146.526.298.81.456.287.157.558.354.813.59.256.24.466.527.63.868.164.34.246.76.246 1.258 0 .84-.255 1.514-.766 2.025-.51.512-1.27.767-2.28.767-.498 0-.988-.06-1.468-.182s-.866-.28-1.158-.475l.602-1.75c.255.145.55.273.884.382.335.11.684.165 1.05.165.28 0 .51-.064.692-.192.183-.128.274-.33.274-.61zm7.843 2.426V8.732c0-.657-.077-1.13-.23-1.423-.15-.293-.428-.44-.83-.44-.29 0-.558.104-.8.31-.245.208-.41.47-.494.785v6.275h-2.17V1.472h2.17v4.47h.055c.244-.317.54-.573.886-.767.346-.195.78-.292 1.304-.292.377 0 .705.055.985.164.28.11.516.292.71.547.196.256.34.6.44 1.03.096.432.145.977.145 1.633v5.983h-2.17zm3.848-9.12h2.17v9.12h-2.17V5.12zm-.256-2.572c0-.365.116-.666.347-.903.23-.237.558-.355.984-.355.426 0 .766.115 1.02.346.257.23.384.535.384.912s-.127.675-.383.894c-.255.22-.595.328-1.02.328-.427 0-.755-.112-.986-.337-.232-.225-.348-.52-.348-.885zm8.482 4.724c-.292-.11-.56-.164-.803-.164-.327 0-.61.09-.847.274-.237.182-.398.438-.483.766v6.092h-2.17V5.12h1.66l.255 1.094h.073c.158-.4.386-.714.684-.94.297-.224.64-.336 1.03-.336.292 0 .578.06.857.182l-.256 2.152zm7.205 6.293c-.305.268-.72.487-1.242.657-.522.17-1.07.255-1.64.255-.633 0-1.178-.11-1.634-.328-.456-.22-.83-.536-1.12-.95-.293-.413-.51-.915-.65-1.504-.14-.59-.21-1.262-.21-2.016 0-1.642.327-2.855.977-3.64.652-.783 1.555-1.175 2.71-1.175.39 0 .766.057 1.13.173.366.115.69.31.977.584.285.273.516.638.693 1.094.176.456.264 1.03.264 1.724 0 .267-.015.553-.045.857-.032.304-.077.632-.138.985h-4.433c.024.754.182 1.33.474 1.733.292.4.76.602 1.404.602.39 0 .745-.06 1.067-.183.322-.12.57-.25.74-.383l.674 1.515zm-2.847-6.84c-.462 0-.808.186-1.04.556-.23.372-.364.892-.4 1.56h2.517c.036-.692-.037-1.218-.22-1.577-.182-.36-.468-.538-.857-.538zM43.45 28.972c-1.248 0-2.272-.41-3.073-1.232-.8-.82-1.2-1.905-1.2-3.252 0-1.347.4-2.43 1.2-3.252.8-.822 1.825-1.232 3.074-1.232.92 0 1.73.168 2.428.505l-.16 1.366c-.912-.337-1.668-.505-2.267-.505-.862 0-1.525.29-1.99.863-.463.575-.695 1.327-.695 2.255 0 .928.232 1.68.696 2.255.465.574 1.128.862 1.99.862.642 0 1.397-.168 2.268-.505l.16 1.367c-.69.337-1.5.505-2.427.505zm6.124-.05c-.945 0-1.694-.303-2.248-.91-.555-.608-.832-1.364-.832-2.267 0-.896.277-1.65.832-2.26.554-.613 1.303-.92 2.248-.92.944 0 1.694.307 2.248.92.555.61.832 1.364.832 2.26 0 .903-.277 1.66-.832 2.267-.554.607-1.304.91-2.248.91zm0-5.173c-.518 0-.922.18-1.214.54-.29.362-.437.847-.437 1.455 0 .616.146 1.104.437 1.466.292.362.696.543 1.214.543.517 0 .922-.18 1.213-.542.292-.36.438-.85.438-1.465 0-.608-.146-1.093-.438-1.454-.29-.36-.696-.54-1.213-.54zm9.4 5.05h-1.28l-.063-.456c-.4.386-.89.58-1.465.58-1.66 0-2.49-.958-2.49-2.87v-3.377h1.394v3.277c0 .608.1 1.055.307 1.343.205.287.53.43.973.43.542 0 .953-.188 1.232-.566v-4.483h1.392V28.8zm6.912 0h-1.393v-3.314c0-.6-.104-1.04-.314-1.318-.21-.28-.55-.42-1.017-.42-.575 0-1.014.202-1.318.604V28.8h-1.393v-6.123h1.257l.048.456c.477-.378.994-.567 1.553-.567 1.717 0 2.576.973 2.576 2.92V28.8zm4.533-1.023l-.124 1.146h-1.06c-.54 0-.948-.152-1.22-.456-.27-.304-.406-.673-.406-1.108v-3.55h-.924l.124-1.133h.8v-1.392l1.393-.148v1.54h1.43v1.133h-1.43v2.908c0 .5.05.803.154.905.102.103.396.154.88.154h.382zm6.75-5.1l-3.806 9.104h-1.442l1.38-3.35-2.55-5.753h1.552l1.676 4.127 1.638-4.127h1.553zm7.565 6.295c-1.248 0-2.273-.41-3.074-1.232-.8-.82-1.2-1.905-1.2-3.252 0-1.347.4-2.43 1.2-3.252.802-.822 1.827-1.232 3.075-1.232.92 0 1.73.168 2.427.505l-.16 1.366c-.912-.337-1.667-.505-2.267-.505-.862 0-1.525.29-1.99.863-.464.575-.696 1.327-.696 2.255 0 .928.23 1.68.696 2.255.464.574 1.127.862 1.99.862.64 0 1.395-.168 2.266-.505l.16 1.367c-.69.337-1.5.505-2.427.505zm6.123-.05c-.944 0-1.694-.303-2.248-.91-.555-.608-.832-1.364-.832-2.267 0-.896.277-1.65.832-2.26.554-.613 1.304-.92 2.248-.92.945 0 1.694.307 2.25.92.553.61.83 1.364.83 2.26 0 .903-.277 1.66-.83 2.267-.556.607-1.305.91-2.25.91zm0-5.173c-.517 0-.922.18-1.213.54-.292.362-.438.847-.438 1.455 0 .616.146 1.104.438 1.466.29.362.696.543 1.213.543.518 0 .922-.18 1.214-.542.29-.36.437-.85.437-1.465 0-.608-.147-1.093-.438-1.454-.292-.36-.696-.54-1.214-.54zm9.4 5.05h-1.28l-.062-.456c-.403.386-.892.58-1.467.58-1.66 0-2.49-.958-2.49-2.87v-3.377h1.393v3.277c0 .608.103 1.055.308 1.343.206.287.53.43.974.43.542 0 .953-.188 1.232-.566v-4.483h1.392V28.8zm6.912 0h-1.392v-3.314c0-.6-.105-1.04-.314-1.318-.21-.28-.55-.42-1.017-.42-.575 0-1.014.202-1.318.604V28.8h-1.393v-6.123h1.256l.05.456c.476-.378.994-.567 1.552-.567 1.717 0 2.575.973 2.575 2.92V28.8zm4.03.123c-.954 0-1.69-.304-2.213-.91-.52-.61-.782-1.365-.782-2.268 0-.912.26-1.67.782-2.273.522-.604 1.26-.906 2.212-.906.762 0 1.378.144 1.847.43l-.148 1.21c-.51-.305-1.036-.457-1.578-.457s-.96.177-1.25.535c-.292.357-.438.844-.438 1.46 0 .607.148 1.094.443 1.46.296.365.71.548 1.245.548.542 0 1.072-.152 1.59-.456l.135 1.17c-.47.304-1.085.456-1.848.456zm4.323-7.306h-1.405v-1.44h1.405v1.44zm0 7.183h-1.405v-6.123h1.405V28.8zm3.67-1.023l-.134 1.146h-.494c-.526 0-.92-.148-1.183-.443-.263-.296-.394-.67-.394-1.12v-7.8h1.403v7.17c0 .485.046.78.136.887.09.107.31.16.664.16z" fill="#FFF"/><path d="M16.826 19.967C9.006 20.675 2.15 21.717 0 22.4V32h32V19.2c-1.418 0-2.887.028-4.382.078.547.913.862 1.98.862 3.122 0 3.358-2.722 6.08-6.08 6.08s-6.08-2.722-6.08-6.08c0-.865.18-1.688.506-2.433zM22.4 27.2c2.65 0 4.8-2.15 4.8-4.8s-2.15-4.8-4.8-4.8-4.8 2.15-4.8 4.8 2.15 4.8 4.8 4.8z" fill="#F4D659"/><path d="M17.64 18.615C9.488 19.323 2.224 20.413 0 21.12V32h32V17.92c-1.73 0-3.533.04-5.368.114-1.095-1.06-2.587-1.714-4.232-1.714-1.927 0-3.645.896-4.76 2.295zM0 9.6c8.16 0 23.36 3.2 32 3.2V32H0V9.6z" fill="#A6C257"/><path d="M0 0h32v32H0V0zm0 8.32c8.16 0 23.36 3.2 32 3.2V32H0V8.32z" fill="#95D4FF"/></g></svg>