<svg width="313" height="51" viewBox="0 0 313 51" xmlns="http://www.w3.org/2000/svg"><path d="M8.1 20v-4.2l2-2v-3H9v1.3h-.9V7.8l-1-1H5.5v9.3h-.7v-1.3H3.5V17l1.3 1.4V24h-.5v1.3h-1V24H2.2v2.4L4.8 29v6.8h-.5v1.5h-1v-1.5H1.7V39l1.9 1.8v6.6l1 1h4l1-1V36l2-2v-3H9.6v1.5h-.9v-1.5h-.5v-9l-1.1-1v-1.5h1v.6h-.4v.6l2.2 2.1h1.4l1.3 1.3h5.6l4-4h1v.8h-.7l-4 4h-.6V27l.6.6V31l1.3 1.3V34l1.4-1.4v-.6h.8v.9l-4.1 4.1v7.4l-2.7 2.3V48l.4.4h5.6l.4-.4v-7l3.2-3.2h.6v.5l-.7.7v6.2l-1.3 1.3v.1h-.7v-1l1-.8v-4.2l-1 .9v8l-.2-.2-.7.7h-7L13.4 49v-3l2.7-2.1V36l2-2v-1.3L17 31.4v-3l-.5-.5v-2.3h-4.8l-1.2-1.3h-.7v5H13v5.5l-2 2v11.5L9.4 50H3.5L2 48.3v-6.6L0 40v-5.6h3.2v-4.4L.6 27.3v-4.9h2.6v-3L2 18v-4.8h2V5H8L9.9 7v2h1.8v5.7l-1.9 2v1.7h5l2.2-2.2v-1l1.5-1.5-.8-.9V12l-.7-.7h-1.4L13.2 9V6.2l1.6-1.5h1.1l1-1h.2l1.3-1.2h1.2l.6-.6V0h2.3L25 2.6v.7l1 1v.6l.7.7v.9l.8.7v2.5l2 2v2.6l.8.8v.7l.4.5v12.4l.7.7v7l-.6.6v2l-.4.4v9.2L29 50h-5.9l-.4-.4v-3h.6v1.5l.3.4h4.9l.3-.4v-9.5l.4-.4v-2l.7-.6v-5.4l-.7-.6V17l-.6-.6v-.7l-.7-.6v-2.7l-1.7-1.7H24l-3.8 3.8v-1l3.5-3.5H26V8l-.6-.6v-.9l-.7-.6v-.7l-1-1v-.7l-2-2v1.1l-1.5 1.6H19l-.8.8H18l-1.2 1.2h-1.1l-.8.8v1.1l1.5 1.5h1.3l1.6 1.6v.7l1.1 1.1v1.5l-1.7 1.7v.9l-3 3-7.5-.1zM42.6 0h-1v50h1V0zM58 33.5l2.2-9.1 2.2 9h2l4-13.7h-2.5l-2.5 9.6-2.3-9.6h-1.8l-2.4 9.6-2.4-9.6h-2.6l4 13.8h2zM77 23v1.4l-.2-.2a4 4 0 0 0-3.2-1.4 5 5 0 0 0-3.5 1.3 5.3 5.3 0 0 0-1.7 4.1c0 1.4.4 2.7 1.3 3.7a5 5 0 0 0 3.9 1.7h.5c1.2-.1 2.2-.7 2.9-1.6v1.4h2.3V23H77zm-1.3 2.6a3 3 0 0 1 1.2 2.7c0 .7-.3 1.5-.7 2-.6.7-1.4 1-2.3 1-.6 0-1.2-.1-1.7-.5a2.8 2.8 0 0 1-1.3-2.5c0-.7.2-1.4.5-2 .5-.8 1.5-1.3 2.5-1.2a3 3 0 0 1 1.8.5zm7.9 7.8v-5.8c0-1.6.7-2.4 2.2-2.4v-2.4h-1c-.6.3-1.1.7-1.4 1.3v-1H81v10.3h2.5zm8 0l2-6.7 2 6.7h1.6l3.7-10.4h-2.7l-1.8 6.3-1.7-6.3h-2L91 29.4l-1.8-6.3h-2.7l3.7 10.4h1.5zm13-11.5v-2.3h-2.4V22h2.5zm0 11.5V23h-2.4v10.4h2.5zM114 30c-.5.8-1.4 1.3-2.3 1.3a3 3 0 0 1-1.8-.5 3 3 0 0 1-1.2-2.6c0-.7.2-1.3.5-1.8.5-.9 1.5-1.4 2.4-1.3 1 0 2 .5 2.4 1.4h2.8v-.3c-.4-.8-.8-1.4-1.4-2-1-.9-2.4-1.4-3.8-1.4s-2.7.5-3.7 1.5a5.4 5.4 0 0 0-.2 7.6 5.7 5.7 0 0 0 5.9 1.3 5.2 5.2 0 0 0 3.3-3.2H114zm6.9 3.4v-4.9l3.5 4.9h3.3l-4.2-5.3 3.7-5h-3l-3.3 4.8v-8.3h-2.5v13.8h2.5zm7.8-1.2l.2.3c.8.7 1.8 1.1 2.8 1 1 .1 1.7-.2 2.4-.7.9-.6 1.4-1.7 1.3-2.7 0-.9-.3-1.7-1-2.2-.5-.4-1.2-.7-1.9-.8l-1.2-.5a.7.7 0 0 1-.5-.6v-.4a1 1 0 0 1 1.9.3h2.4a3 3 0 0 0-.7-2 3.4 3.4 0 0 0-2.7-1.1c-.7 0-1.5.2-2.1.7-.8.5-1.3 1.4-1.3 2.4 0 .4 0 .8.2 1.1a4 4 0 0 0 2.7 2c.4 0 .9.3 1.3.5a1 1 0 0 1 .3 1.2 1 1 0 0 1-1 .6h-.2c-.5 0-1-.5-1.1-1.2H128c0 .7.3 1.4.7 2zm10.6 1.2v-5.3c0-.7 0-1.4.3-2 .4-.7 1.1-1 1.9-1h.5l.5.2c.6.3 1 1.2 1 2.8v5.2h2.4v-6c0-1-.2-2-.7-2.9-.7-1-2-1.7-3.3-1.6-1 0-2 .3-2.6 1v-4.2h-2.5v13.8h2.5zM150.4 22v-2.3H148V22h2.4zm0 11.4V23.1H148v10.4h2.4zm4.5 0v-5.7c0-1.6.7-2.4 2.2-2.4v-2.4h-1c-.6.3-1 .7-1.4 1.3v-1h-2.3v10.3h2.5zm13.4-5c0-1.4-.4-2.7-1.4-3.8a5 5 0 0 0-4-1.7 5.4 5.4 0 0 0-5.4 5.4A5 5 0 0 0 159 32c1 1.1 2.6 1.7 4 1.7a5.2 5.2 0 0 0 5-3.3h-2.7l-.2.2c-.6.6-1.3.9-2 .8-.5 0-.8 0-1.2-.2-.9-.2-1.5-1-1.7-1.8h8v-1zm-8-1.4c.3-1.2 1.5-2 2.7-1.8h.5c1.1 0 2.1.8 2.3 2h-5.7l.1-.2zm24.5 3a4.4 4.4 0 0 1-6 0c-1-1-1.6-2.2-1.6-3.5 0-1.1.5-2.2 1.2-3 .8-1 2-1.7 3.4-1.6h.5c1.2 0 2.4.7 3 1.7h3l-.3-.5c-.4-.8-1-1.5-1.7-2a7 7 0 0 0-4.6-1.7h-.6a7.1 7.1 0 0 0-6.4 7v.6c0 1.8.9 3.4 2.2 4.6 2.2 2 5.3 2.6 8 1.3a6.5 6.5 0 0 0 3.3-3.4h-3l-.4.6zm6-5.6a5.3 5.3 0 0 0-.1 7.6c1 1.1 2.4 1.7 3.9 1.7 1.4 0 2.8-.6 3.8-1.6a5 5 0 0 0 1.7-3.8 5.5 5.5 0 0 0-9.3-3.9zm5.7 1.4a3 3 0 0 1 1.1 2.5c0 .7-.2 1.4-.7 2-.5.7-1.4 1.1-2.3 1.1-.6 0-1.3-.2-1.8-.6a3.3 3.3 0 0 1-.5-4.5c.5-.7 1.4-1.2 2.3-1.1.7 0 1.4.2 1.9.6zm11.7-2.7V28c0 .8 0 1.7-.4 2.5a2 2 0 0 1-1.9 1c-.6 0-1.1-.2-1.4-.7-.5-.8-.6-1.7-.5-2.6v-5h-2.5V29.4c0 1 .2 2 .8 2.9.7 1 1.9 1.6 3 1.5h.7c.9-.1 1.7-.5 2.3-1.2v1h2.3V23h-2.4zm7 10.3v-5c-.1-.8 0-1.6.3-2.3.4-.6 1.1-1 1.8-1 .6 0 1.2.3 1.5.7.4.8.6 1.7.5 2.6v5h2.5v-5.5-.8c0-1-.2-1.9-.7-2.7-.8-1-2-1.6-3.2-1.5h-.4c-1 .1-1.8.5-2.5 1.2v-1h-2.3v10.3h2.4zm11.5 0v-8h1.4v-2.3h-1.4v-3.4h-2.5v3.4H223v2.3h1.2v8h2.5zM233 37l6-13.8h-2.8l-2.5 6.7-2.3-6.7h-2.8l3.7 9.4-2 4.4h2.7zm22-6.8a4.4 4.4 0 0 1-6-.1c-1-.9-1.5-2.1-1.5-3.4 0-1.2.5-2.2 1.1-3.1.9-1 2.2-1.6 3.5-1.6h.5c1.2.1 2.3.8 3 1.8h3l-.3-.5a7 7 0 0 0-6.3-3.7h-.6c-1.8.1-3.4 1-4.6 2.2-1.2 1.3-1.9 3-1.9 4.8v.6a7.3 7.3 0 0 0 10.3 6 6.5 6.5 0 0 0 3.3-3.5h-3l-.4.5zm6-5.6a5.3 5.3 0 0 0 0 7.6 5.5 5.5 0 0 0 7.7 0 5 5 0 0 0 1.7-3.7 5.5 5.5 0 0 0-9.3-4zm5.8 1.3a3 3 0 0 1 1 2.5c0 .7-.1 1.4-.6 2-.5.7-1.3 1.1-2.2 1.1-.7 0-1.3-.2-1.8-.6a3 3 0 0 1-1.2-2.5c0-.8.2-1.5.7-2 .5-.8 1.4-1.2 2.3-1.1.7 0 1.3.2 1.8.6zm11.7-2.7V28c0 .8 0 1.7-.4 2.5a2 2 0 0 1-1.9 1c-.6 0-1.1-.2-1.4-.7-.5-.8-.6-1.7-.6-2.6v-5h-2.4V29.4c0 1 .2 2 .7 2.9.7 1 2 1.5 3.2 1.5h.6c.9-.1 1.7-.6 2.3-1.2v1h2.4V23h-2.5zm7 10.4v-5.1c-.1-.8 0-1.6.3-2.3.4-.6 1.1-1 1.8-1 .6 0 1.2.3 1.5.7.4.8.6 1.7.5 2.6v5h2.5V28v-.8c0-1-.2-1.9-.7-2.7-.8-1-2-1.6-3.3-1.5h-.3c-1 .1-1.9.5-2.6 1.2v-1H283v10.3h2.4zm16-3.4c-.6.8-1.5 1.3-2.4 1.3a3 3 0 0 1-1.8-.5 3 3 0 0 1-1.2-2.6c0-.7.2-1.3.5-1.8.5-.9 1.5-1.4 2.4-1.3 1 0 2 .5 2.4 1.4h2.8v-.3c-.3-.8-.8-1.4-1.3-2-1-.9-2.4-1.4-3.8-1.4s-2.8.5-3.8 1.5a5.4 5.4 0 0 0 3.9 9.3l1.8-.3a5.2 5.2 0 0 0 3.3-3.3h-2.8zm7-8v-2.4h-2.6V22h2.5zm0 11.4V23h-2.6v10.4h2.5zm4.4 0V19.7h-2.5v13.8h2.5z" fill="#FFF" fill-rule="nonzero"/></svg>