<svg version="1" xmlns="http://www.w3.org/2000/svg" width="346.667" height="346.667" viewBox="0 0 260.000000 260.000000"><path d="M152.9 1.7c0 .5-.2 2.7-.2 5-.2 5.1-1.5 6.5-6 6.8-2.3.2-4.6 1.4-7 3.6-6.1 5.8-9.4 7.9-12.4 7.9-2 0-3.9 1.2-6.5 4-3.6 3.7-3.8 4.4-4 11l-.2 7 6.3 6.4c5.2 5.2 6.8 6.3 9.2 6.1 3.6-.3 7.9 2.8 7.9 5.8 0 1.1.9 3.1 2.1 4.3l2 2.1-4 3.9c-3 2.8-4 4.4-3.7 6.1.4 1.8-.9 3.7-5.7 8.3l-6.2 6-12.5-.2-12.4-.3-.1-4c-.1-3.5.5-4.7 4.8-9.2l4.9-5.2V64.3c0-19 .5-17.1-4.9-17.5l-4.7-.3.2-4.5c.3-4.2 0-4.9-4.7-9.8L90.2 27H68.5v41.5l-5.2.3-5.2.3v12.6L58 94.2l3.5 3.2c3.4 3.2 3.5 3.4 3.5 10.9 0 5.4-.4 7.7-1.2 7.8-.7.1-3.8.2-6.8.3l-5.5.1-.1 12.5-.1 12.5 6.9 6.9 6.8 7v22.2l-7.5-.2c-4.2 0-7.9.4-8.2.9-.3.6-.6 7.3-.6 14.9l.1 13.9 4.6 4.7c3.9 3.9 4.6 5.3 4.7 8.7 0 2.2 0 9.9.1 17.2v13.2l4.5 4 4.4 4.1h30.2l4.3-4.5 4.3-4.4v-25.3-29.5c.1-3.7.7-4.9 5.1-9.4l5-5.2V152H99v-12.5c0-14.1.5-14.9 6.2-9.5 3.3 3.2 3.8 3.3 20.1 3l7.7-.1v5.8c0 3.7.6 6.7 1.5 7.9.9 1.3 1.4 4.4 1.5 9.5 0 7.3.1 7.6 3.5 10.9 5.2 5.1 4.8 8.2-1.8 14.8l-5.3 5.2.1 19.7v19.6l-7 5.9-7.1 5.8.1 7.5c.1 6.8.4 7.8 3 10.5l2.9 3h18.5c15.8 0 18.7-.2 20.3-1.7 1.7-1.5 1.9-1.5 3.6 0 1.6 1.4 4.3 1.7 17.1 1.7h15.3l3.4-3.4 3.4-3.4v-23.5c0-17.5.3-24.1 1.3-26 .8-1.4 1.2-4.3 1-6.3-.1-2.5.3-4.4 1.4-5.6 2.5-2.7 2.3-36.3-.2-40.1-1.5-2.3-1.7-6.3-1.7-34.6-.1-25.1-.4-32.3-1.4-33.2-.7-.6-1.1-1.6-.8-2.3.3-.7-.5-2.5-1.8-4.1-1.8-2.3-2.3-4.2-2.3-9.2-.1-6.3-.2-6.4-5.3-11.5-5.1-5-5.2-5.2-5.2-11.2 0-4.5-.6-6.8-2-8.6-1.1-1.4-2-3.5-2-4.6 0-1.2-.7-2.7-1.5-3.4-.8-.7-1.5-2-1.5-2.9 0-1-1.3-3-2.9-4.5-1.6-1.6-2.7-3.5-2.4-4.2.3-.9-2.3-4.2-6.4-8.4l-7-7h-6.1c-3.4 0-6.2.3-6.3.7zm13.9 13.4c2.3 2.2 4.2 4.9 4.2 5.9 0 1.1 1.1 3 2.5 4.4 1.4 1.4 2.5 3.3 2.5 4.2 0 1 .7 2.5 1.6 3.5.8.9 1.7 2.9 1.8 4.3.2 1.5 1.1 3.5 2 4.5.9 1 1.6 3.5 1.6 5.8v4.1l-6 .4-6 .4-8.1 8.2c-4.5 4.5-8.6 8.2-9.1 8.2s-.7-.4-.4-.9c.3-.4-.8-2-2.4-3.5-1.7-1.4-3-3.4-3-4.3 0-1-1.9-3.7-4.2-6-3.2-3.3-5-4.3-7.4-4.3-4.4 0-11.4-6.2-11.2-9.9.2-3.9 3.6-7.1 7.4-7.1 2 0 3.8-.7 4.6-1.8 3-3.9 9.7-8.2 13-8.2 2.7 0 4.2-.9 7.6-4.5 2.6-2.8 3.9-5 3.6-6-1.1-2.7 1.2-1.6 5.4 2.6zM88.3 38.8c1.9 1.9 2.1 3.4 2.3 12.4.2 13.7.1 13 2.7 12.6 1.7-.2 2.2-1 2.2-3.3.1-2.5.5-3.1 2.8-3.3l2.8-.3-.3 7.7-.2 7.8-5.1 5.2-5 5.2V100.5l-2.7.3c-2.5.3-2.8.7-2.8 4.1 0 2.8.7 4.4 2.9 6.5l2.9 2.8v21.1c.1 26.7 0 25.9 1.1 25.3 1.1-.7 2.1 2.9 1.6 5.5-.3 1.7.1 2 2.3 1.7 2.3-.3 2.7-.7 2.6-3.6 0-1.7.2-3.2.5-3.3.8-.2 6.4-.2 7.8 0 .8.1 1.2 2.4 1.1 7.3l-.1 7.3-5.2 5.5-5.2 5.5.2 29.5.1 29.5-2.7 2.7c-2.6 2.5-3.3 2.7-12.1 2.7-7.9-.1-9.8-.4-12.5-2.2l-3.3-2.2v-34.6l-4.7-5-4.7-5-.1-8-.1-7.9h4.3c4.3 0 4.3 0 4.3 3.7 0 3.3.3 3.8 2.5 3.9 2.3.2 2.5-.2 2.5-3.7 0-2.7.4-3.9 1.4-3.9 1.2 0 1.4-3.2 1.5-17.6v-17.6l-6.9-7.1-7-7.2v-5.7c0-5.7 0-5.8 2.9-5.8 2.6 0 3 .4 3.3 3.2.2 2.5.8 3.4 2.6 3.6 1.9.3 2.2-.1 2.2-3.1 0-1.9.6-3.7 1.3-4 .9-.3 1.3-4 1.2-14.5V96.1l-3.3-3.4c-2.9-3-3.2-3.9-3.2-9.5V77l3 .2c2.7.2 3 .6 3 3.4 0 3 2 5.1 3.4 3.7.3-.4.6-11.1.6-23.9 0-16.6.3-23.3 1.1-23.6 3-1 8.2 0 10.2 2zM188.6 61c4.3 4.3 4.4 4.5 4.4 11.1 0 4.8.5 7.2 1.6 8.3.8.9 1.7 2.4 1.9 3.5.2 1.1 1 3 1.8 4.3 1.2 1.9 1.5 8 1.4 34.1 0 28.6.2 31.9 1.7 33 1.4 1 1.7 3.2 1.7 15.1 0 11.1-.3 14.2-1.6 15.6-1 1.1-1.5 3.6-1.5 7.2 0 3.3-.5 5.8-1.1 6-.9.3-1.2 7.4-1.2 24.8 0 13.5-.3 25-.8 25.6-.6.7-5.5 1.1-13.5 1.2-11.9 0-12.6-.1-13.4-2.2-1.4-3.7-.3-7.7 3.3-11.5l3.4-3.6-.1-15.4c-.2-12.5.1-15.7 1.3-16.9.8-.8 1.6-2.3 1.8-3.3.6-3.9-3.4-1.7-11.4 6.5l-8.3 8.3v18c0 13.2-.3 18.3-1.3 19.1-1.6 1.3-28.8 1.3-30.4 0-1.9-1.6-1.6-8.1.5-9.8.9-.8 4.1-3.5 7-5.8l5.2-4.4v-38.3l10.1-10c10.9-10.9 12.2-12.6 11.3-14.9-.9-2.3-3.3-1.9-4.3.6-.5 1.3-2.2 3.5-3.8 5.1l-2.9 2.7-.1-3.9c-.1-3.1-.8-4.7-3.5-7.3-3.3-3.4-3.4-3.6-3.3-11.6.1-6.7-.2-8.6-1.7-10.2-2.6-2.7-2.6-13 0-13 .9 0 6.2-4.5 11.7-10 5.5-5.5 10.8-10 11.8-10 1.8 0 3.5-2.6 2.4-3.7-.4-.3-1.7-.7-3-.8-1.9-.2-4.7 2-12.8 10.1L142.5 125h-28.6l-3.2-3.3c-2.5-2.4-4.3-3.3-7.3-3.5-3.3-.2-4.8-1.1-9.8-6.3-3.2-3.3-5.6-6.3-5.2-6.6.4-.4 9.8-.7 21.1-.8l20.3-.1 7.6-7.5c4.8-4.8 7.6-8.4 7.6-9.8 0-1.4 4.7-6.8 14.3-16.4l14.3-14.3 5.3.1c4.9.1 5.6.4 9.7 4.5zm-18.1 161.4c-.1 8.5-.3 9.9-2.3 11.8l-2.2 2.2v-10.3c0-8.3.3-10.8 1.6-12.2.9-1 2-1.7 2.3-1.4.4.2.7 4.7.6 9.9z"/></svg>