<svg fill="none" height="25" viewBox="0 0 25 25" width="25" xmlns="http://www.w3.org/2000/svg"><path d="m24 2.25h-5.25v-2c0-.1375-.1125-.25-.25-.25h-1.75c-.1375 0-.25.1125-.25.25v2h-8v-2c0-.1375-.1125-.25-.25-.25h-1.75c-.1375 0-.25.1125-.25.25v2h-5.25c-.553125 0-1 .44687-1 1v20.75c0 .5531.446875 1 1 1h23c.5531 0 1-.4469 1-1v-20.75c0-.55313-.4469-1-1-1zm-1.25 20.5h-20.5v-11.875h20.5zm-20.5-14v-4.25h4v1.5c0 .1375.1125.25.25.25h1.75c.1375 0 .25-.1125.25-.25v-1.5h8v1.5c0 .1375.1125.25.25.25h1.75c.1375 0 .25-.1125.25-.25v-1.5h4v4.25z" fill="#2d2c2c"/></svg>