<?xml version="1.0" encoding="utf-8"?>
<!-- Generator: Adobe Illustrator 23.0.4, SVG Export Plug-In . SVG Version: 6.00 Build 0)  -->
<svg version="1.1" id="Layer_1" xmlns="http://www.w3.org/2000/svg" xmlns:xlink="http://www.w3.org/1999/xlink" x="0px" y="0px"
	 viewBox="0 0 162 56" style="enable-background:new 0 0 162 56;" xml:space="preserve">
<style type="text/css">
	.st0{fill:#007361;}
	.st1{fill:none;}
	.st2{fill:#63BB46;}
</style>
<g>
	<path class="st0" d="M2.7,36.5c-1-2.1,1.1-3.3,2.1-3.9c10.1-6.3,15.7-8.9,23.9-11c10.7-2.8,21.8-1.6,27.6,1
		c3.6,1.6,2.4,2.9,2.1,3.3c-1.4,2.1-3.3,3.5-5.1,5.8c-2.8,3.5-4.1,5.5-6.3,9.4c0.7-3.6,1.5-5.6,3.1-8.9c1.1-2.1,1.7-3.3,3.1-5.2
		c-8.7-0.1-13.8,0.7-22,3.6c-10,3.5-15.7,7.3-23.2,14c-0.5,0.5-1.8,0.4-2.1-0.2C4.1,40.8,4.2,39.7,2.7,36.5"/>
	<path class="st1" d="M2.7,36.5c-1-2.1,1.1-3.3,2.1-3.9c10.1-6.3,15.7-8.9,23.9-11c10.7-2.8,21.8-1.6,27.6,1
		c3.6,1.6,2.4,2.9,2.1,3.3c-1.4,2.1-3.3,3.5-5.1,5.8c-2.8,3.5-4.1,5.5-6.3,9.4c0.7-3.6,1.5-5.6,3.1-8.9c1.1-2.1,1.7-3.3,3.1-5.2
		c-8.7-0.1-13.8,0.7-22,3.6c-10,3.5-15.7,7.3-23.2,14c-0.5,0.5-1.8,0.4-2.1-0.2C4.1,40.8,4.2,39.7,2.7,36.5z"/>
	<path class="st2" d="M60.5,27.3c-3.6,3.2-9.3,10.1-11,13.1c-2.1,3.8-3.1,7.6-0.4,9c1.8,1,5-0.5,8.2-2.3c6.6-3.6,25.9-13.1,44-15.4
		c21.2-2.9,41.5,2.4,54.5,5.9c0.6,0.2,5-3.1,3.6-3.7c-11.3-5.6-35.5-12.4-58.6-10.2c-16.6,1.6-26.6,5.8-42,13.2
		c-2.7,1.3-3.9,2.3-4.9,2.1c-0.7-0.2-0.1-1.9,1-3.6C56,33.4,58.1,30.8,60.5,27.3"/>
	<path class="st1" d="M60.5,27.3c-3.6,3.2-9.3,10.1-11,13.1c-2.1,3.8-3.1,7.6-0.4,9c1.8,1,5-0.5,8.2-2.3c6.6-3.6,25.9-13.1,44-15.4
		c21.2-2.9,41.5,2.4,54.5,5.9c0.6,0.2,5-3.1,3.6-3.7c-11.3-5.6-35.5-12.4-58.6-10.2c-16.6,1.6-26.6,5.8-42,13.2
		c-2.7,1.3-3.9,2.3-4.9,2.1c-0.7-0.2-0.1-1.9,1-3.6C56,33.4,58.1,30.8,60.5,27.3z"/>
	<path class="st0" d="M2.4,13.2h5v-0.4c-1.1-0.1-1.3-0.2-1.3-1.4V8.6c1.9,0,2.8,0,3.7-0.5c1.2-0.6,1.4-1.7,1.4-2.2
		c0-2.6-2.7-2.8-3.9-2.8H2.4v0.4c0.7,0.1,1.3,0.1,1.3,1.4v6.6c0,0.8-0.2,1.1-0.4,1.2c-0.1,0.1-0.1,0.1-0.9,0.2L2.4,13.2 M6.1,4.2
		c0-0.3,0.2-0.5,0.7-0.5c1.2,0,1.7,0.5,1.7,2.2c0,1.8-0.6,2.2-2.4,2.2C6.1,8.1,6.1,4.2,6.1,4.2z"/>
	<path class="st0" d="M14.3,3.6c0.6,0,1.3,0.1,1.3,1.1v7.2c0,1-0.4,1-1.3,1.1v0.4H23l0.6-3.1h-0.4c-1,2.2-2.4,2.7-3.9,2.7
		c-1,0-1.3-0.2-1.3-0.9V8.5c1.5,0,2.2,0.4,2.4,2.3h0.4v-5h-0.4C20.2,7.6,19.4,8,18,8V4.6c0-0.6,0.3-0.7,1.1-0.7c2,0,3.1,0.4,3.4,2.4
		h0.3v-3h-8.6v0.2"/>
	<path class="st0" d="M34.4,12.9c-1.1-0.1-1.5-0.1-1.5-1.4V3.6c1.1,0.1,2.5,0.1,2.9,2.6h0.4v-3h-8.9v3h0.4c0.3-2.3,1.8-2.4,2.9-2.6
		v7.9c0,1.3-0.3,1.3-1.5,1.4v0.3h5.3L34.4,12.9"/>
	<path class="st0" d="M39.6,3.6c0.6,0,1.3,0.1,1.3,1.1v7.2c0,1-0.4,1-1.3,1.1v0.4h8.7l0.6-3.1h-0.4c-1,2.2-2.4,2.7-3.9,2.7
		c-1,0-1.3-0.2-1.3-0.9V8.5c1.5,0,2.2,0.4,2.4,2.3h0.4v-5h-0.4c-0.2,1.8-1,2.2-2.4,2.2V4.6c0-0.6,0.3-0.7,1.1-0.7
		c2,0,3.1,0.4,3.4,2.4h0.3v-3h-8.5L39.6,3.6"/>
	<path class="st0" d="M56.2,4.3c0.1-0.4,0.1-0.6,1-0.6c1.2,0,1.8,0.6,1.8,2.1C59,7.7,58.3,8,56.2,8V4.3 M62.8,12.9
		c-0.2,0-0.4,0-0.6-0.3l-3-4.3c0.8-0.2,2.3-0.7,2.3-2.5c0-2.5-3.2-2.7-4.1-2.7h-4.8v0.4c0.9,0.1,1.3,0.1,1.3,1.4v6.6
		c0,1.2-0.3,1.3-1.3,1.4v0.3h5v-0.3c-1-0.1-1.3-0.2-1.3-1.4V8.6h0.3l3.1,4.7h3.1V12.9z"/>
	<path class="st0" d="M69.5,8.1H70c1,0,2.2,0.3,2.2,2.4c0,1-0.2,2.2-1.8,2.2c-0.6,0-0.9-0.2-0.9-1L69.5,8.1 M69.5,4.4
		c0-0.3,0-0.7,0.7-0.7c1.2,0,1.5,0.9,1.5,1.9c0,1.5-0.3,2.1-2.3,2.1V4.4C69.4,4.4,69.5,4.4,69.5,4.4z M65.8,13.2h4.8
		c3.2-0.1,4.1-1.5,4.1-2.8c0-1.7-1.6-2.4-2.8-2.7l0,0c0.6-0.2,2.3-0.5,2.3-2.2c0-2.3-3.1-2.3-3.8-2.3h-4.6v0.4
		c0.6,0,1.3,0.1,1.3,1.1V12C67.1,13,66.7,13,65.8,13.2L65.8,13.2L65.8,13.2L65.8,13.2z"/>
	<path class="st0" d="M84,3.5c2.1,0,2.7,2.7,2.7,4.8c0,1.3-0.1,4.8-2.7,4.8c-2.5,0-2.7-3.5-2.7-4.8C81.4,6.1,82,3.5,84,3.5 M84,2.9
		c-2.9,0-5.2,2-5.2,5.3c0,3.1,2.2,5.3,5.2,5.3c3.1,0,5.3-2.1,5.3-5.3C89.3,5.1,86.9,2.9,84,2.9"/>
	<path class="st0" d="M96.7,4.3c0.1-0.4,0.1-0.6,1-0.6c1.2,0,1.8,0.6,1.8,2.1c0,1.9-0.7,2.2-2.8,2.2V4.3 M103.2,12.9
		c-0.2,0-0.4,0-0.6-0.3l-3-4.3c0.9-0.2,2.3-0.7,2.3-2.5c0-2.5-3.2-2.7-4.1-2.7H93v0.4c0.8,0.1,1.3,0.1,1.3,1.4v6.6
		c0,1.2-0.3,1.3-1.3,1.4v0.3h5v-0.3c-1-0.1-1.3-0.2-1.3-1.4V8.6h0.4l3.1,4.7h3.1L103.2,12.9L103.2,12.9L103.2,12.9z"/>
	<path class="st0" d="M111.4,3.5c2.1,0,2.7,2.7,2.7,4.8c0,1.3-0.1,4.8-2.7,4.8c-2.6,0-2.7-3.5-2.7-4.8
		C108.9,6.1,109.4,3.5,111.4,3.5 M111.4,2.9c-2.9,0-5.2,2-5.2,5.3c0,3.1,2.2,5.3,5.2,5.3c3.1,0,5.2-2.1,5.2-5.3
		C116.7,5.1,114.3,2.9,111.4,2.9"/>
	<path class="st0" d="M130.4,3.3h-3.3v0.4c1.3,0.1,1.5,0.5,1.5,1.5v4.6c0,1,0,3.2-2.7,3.2c-2.1,0-2.1-2-2.1-2.9v-5
		c0-1.3,0.4-1.3,1.5-1.4V3.3h-5v0.4c0.9,0.1,1.2,0.1,1.2,1.4v5c0,1.6,0.4,2.1,1.1,2.7c1,0.8,2.3,1,3,1c0.8,0,2.2-0.3,3-1.1
		c0.6-0.6,0.9-2,0.9-2.9V5c0-1,0.3-1.2,1.2-1.3V3.3"/>
	<path class="st0" d="M144.8,9h-5.1v0.3c1.1,0.1,1.5,0.1,1.5,1.1V12c0,0.6-0.2,1.1-1.6,1.1c-2.8,0-2.9-3.7-2.9-4.8
		c0-2.5,0.6-4.8,2.8-4.8c1.7,0,3,1.7,3.5,3.1h0.4V3H143c-0.1,0.4-0.3,0.6-0.6,0.6c-0.4,0-1.5-0.7-2.9-0.7c-3.2,0-5.3,2.4-5.3,5.3
		c0,2.6,1.7,5.2,5.4,5.2c1.3,0,3.3-0.4,4-1v-1.9C143.6,9.3,143.9,9.2,144.8,9L144.8,9"/>
	<path class="st0" d="M159.1,12.9c-0.7-0.1-1.3-0.2-1.3-1.1V4.6c0-1,0.6-1.1,1.3-1.1V3.1H154v0.4c0.6,0,1.4,0.1,1.4,1.1v3.1h-3.6
		V4.6c0-1,0.6-1.1,1.4-1.1V3.1h-5v0.4c0.6,0.1,1.3,0.1,1.3,1.1v7.2c0,0.9-0.4,1-1.3,1.1v0.3h5v-0.3c-0.7-0.1-1.4-0.1-1.4-1.1V8.4
		h3.6v3.4c0,1-0.5,1-1.4,1.1v0.3h5.1V12.9"/>
	<path class="st0" d="M77.1,49.2c-0.7,0.9-1.5,1.2-2.2,1.2c-0.3,0-1.1-0.1-1.4-0.9c-0.3-0.6-0.4-1.5-0.4-2c0-1.6,0.3-3,1.7-3
		c1.1,0,1.8,1.1,2.1,1.9h0.2v-2.1h-0.2c-0.1,0.2-0.2,0.4-0.4,0.4s-1-0.4-1.8-0.4c-1.9,0-3.3,1.5-3.3,3.3c0,1.7,1.2,3.3,3.3,3.3
		c1.2,0,1.9-0.5,2.5-1.4L77.1,49.2"/>
	<path class="st0" d="M82.8,50.4c-0.5,0-0.9-0.1-0.9-0.6v-4.5c0-0.6,0.4-0.6,0.9-0.6v-0.3h-3.3v0.2c0.4,0,0.9,0,0.9,0.6v4.5
		c0,0.5-0.3,0.6-0.9,0.6v0.2L82.8,50.4L82.8,50.4"/>
	<path class="st0" d="M89.5,50.4c-0.6,0-1-0.1-1-0.9v-4.9c0.6,0,1.6,0.1,1.8,1.6h0.3v-1.9h-5.5v1.9h0.3c0.2-1.5,1.2-1.5,1.8-1.6v4.9
		c0,0.7-0.2,0.9-0.8,0.9v0.2h3.3v-0.2"/>
	<path class="st0" d="M99.1,44.4h-2v0.2c0.4,0,0.7,0,0.7,0.4c0,0.2-0.3,0.7-0.3,0.8l-1.1,1.7l-1.1-2.1c-0.1-0.1-0.2-0.4-0.2-0.5
		c0-0.2,0.1-0.3,0.7-0.3v-0.2h-3.1v0.2c0.4,0,0.7,0.4,0.7,0.5l1.7,3.1v1.4c0,0.7-0.2,0.7-0.8,0.9v0.2h3.2v-0.2
		c-0.6-0.1-0.8-0.1-0.8-0.9v-1.7l1.8-2.9c0.2-0.3,0.4-0.3,0.6-0.3L99.1,44.4"/>
	<path class="st0" d="M111.2,49.2c-0.7,0.9-1.5,1.2-2.2,1.2c-0.3,0-1.1-0.1-1.4-0.9c-0.3-0.6-0.4-1.5-0.4-2c0-1.6,0.3-3,1.7-3
		c1.1,0,1.8,1.1,2.1,1.9h0.2v-2.1H111c-0.1,0.2-0.2,0.4-0.4,0.4s-1-0.4-1.8-0.4c-1.9,0-3.3,1.5-3.3,3.3c0,1.7,1.2,3.3,3.3,3.3
		c1.2,0,1.9-0.5,2.6-1.4L111.2,49.2"/>
	<path class="st0" d="M117.1,44.5c1.3,0,1.6,1.6,1.6,3c0,0.9-0.1,3-1.6,3s-1.6-2.2-1.6-3C115.5,46.2,115.9,44.5,117.1,44.5
		 M117.1,44.2c-1.8,0-3.3,1.3-3.3,3.3c0,1.9,1.4,3.3,3.3,3.3c1.9,0,3.3-1.4,3.3-3.3C120.4,45.4,118.9,44.2,117.1,44.2"/>
	<path class="st0" d="M129,44.4h-2v0.2c0.9,0,1,0.3,1,1v2.9c0,0.6,0,2-1.7,2c-1.4,0-1.4-1.3-1.4-1.8v-3.2c0-0.9,0.3-0.9,0.8-0.9
		v-0.2h-3.2v0.2c0.5,0.1,0.7,0.1,0.7,0.9v3.1c0,1,0.2,1.3,0.6,1.7c0.6,0.5,1.5,0.5,1.9,0.5c0.5,0,1.4-0.2,1.8-0.6s0.5-1.3,0.5-1.8
		v-3c0-0.6,0.2-0.7,0.7-0.7L129,44.4"/>
	<path class="st0" d="M131.1,50.6h2.1v-0.2c-0.6-0.1-0.9-0.2-0.9-1v-3.7l0,0l4.1,5h0.2v-5.4c0-0.4,0-0.6,0.7-0.7v-0.2h-2v0.2
		c0.7,0.1,0.9,0.3,0.9,1v2.8l0,0l-3.2-3.9h-1.9v0.2c0.1,0,0.3,0,0.7,0.6v4.5c0,0.6-0.2,0.6-0.9,0.7L131.1,50.6"/>
	<path class="st0" d="M145.5,49.2c-0.7,0.9-1.5,1.2-2.2,1.2c-0.3,0-1.1-0.1-1.4-0.9c-0.3-0.6-0.4-1.5-0.4-2c0-1.6,0.3-3,1.7-3
		c1.1,0,1.8,1.1,2.1,1.9h0.2v-2.1h-0.2c-0.1,0.2-0.2,0.4-0.4,0.4s-1-0.4-1.8-0.4c-1.9,0-3.3,1.5-3.3,3.3c0,1.7,1.2,3.3,3.3,3.3
		c1.2,0,1.9-0.5,2.6-1.4L145.5,49.2"/>
	<path class="st0" d="M151.2,50.4c-0.5,0-0.9-0.1-0.9-0.6v-4.5c0-0.6,0.4-0.6,0.9-0.6v-0.3h-3.3v0.2c0.4,0,0.9,0,0.9,0.6v4.5
		c0,0.5-0.3,0.6-0.9,0.6v0.2L151.2,50.4L151.2,50.4"/>
	<path class="st0" d="M159.1,48.5h-0.3c-0.4,1.1-1,1.8-2.3,1.8c-0.6,0-0.9-0.1-0.9-0.5v-4.4c0-0.9,0.3-0.9,1-0.9v-0.2h-3.2v0.2
		c0.4,0,0.9,0,0.9,0.6v4.5c0,0.5-0.3,0.6-0.9,0.6v0.2h5.4L159.1,48.5"/>
</g>
</svg>
