<svg xmlns="http://www.w3.org/2000/svg" width="974" height="327" fill="none" viewBox="0 0 974 327"><g clip-path="url(#lsbyhhec8duuntiec1v)"><path fill="#3C3C3B" d="M64.23 117.143c3.531 0 7.038.121 10.545.291v-10.351c2.176-6.142 6.311-10.906 11.366-12.986 5.054 2.104 9.165 6.868 11.366 12.986v12.696c20.338 3.217 39.515 9.311 57.024 17.799V66.77h-.121c-.266-1.112-.944-2.2-1.959-3.192v4.087l-2.539-1.887v-4.11c-4.571-2.758-12.116-4.596-20.701-4.668v5.683h-3.555v-5.61c-7.303.362-13.688 1.983-17.823 4.352v4.934l-1.886 1.886v-5.562c-1.621 1.233-2.661 2.636-3.023 4.111h-.121v3.773h-2.854v5.949h-4.933v-5.95h-17.34v5.95h-4.933v-5.95h-3.24v-3.772h-.121c-.363-1.475-1.403-2.853-3.023-4.111v5.562l-1.886-1.886v-4.933c-4.16-2.37-10.52-4.015-17.823-4.353v5.61h-3.555V57c-8.585.072-16.13 1.91-20.701 4.667v4.111l-2.54 1.887v-4.087c-1.015.991-1.692 2.08-1.958 3.192h-.121v55.524a211.858 211.858 0 0146.456-5.151z"></path><path fill="#3CAA36" d="M263.5 161.157c16.427 0 29.745-13.318 29.745-29.746 0-16.427-13.318-29.745-29.745-29.745-16.428 0-29.746 13.318-29.746 29.745 0 16.428 13.318 29.746 29.746 29.746z"></path><path fill="#3CAA36" d="M311.164 161.665c11.446 0 20.725-9.279 20.725-20.725 0-11.446-9.279-20.725-20.725-20.725-11.446 0-20.725 9.279-20.725 20.725 0 11.446 9.279 20.725 20.725 20.725z"></path><path fill="#E30613" d="M209.766 73.88c1.475-1.62 2.95-3.216 4.425-4.837.121.073.266.145.387.242-.58.895-1.161 1.814-1.765 2.709.048.024.072.072.121.096l-.073-.145c.726-.508 1.475-.991 2.201-1.5.87-.604 1.717-1.232 2.587-1.861l-.048-.049a224.687 224.687 0 00-1.935 3.628 803.125 803.125 0 003.821-2.781c.121.12.242.266.363.387-.846 1.064-1.693 2.128-2.757 3.482 1.306-.605 2.37-1.088 3.41-1.572-2.95 3.265-3.579 7.497-5.03 11.342-.798 2.104-1.209 4.377-1.862 6.554-1.04 3.385-2.128 6.771-3.362 10.689h13.712c.194.266.387.556.556.822-6.868 1.185-6.19 6.36-6.456 11.342-.653-.387-1.089-.581-1.451-.847-2.564-1.958-5.103-3.941-7.642-5.924-1.064-.823-1.717-.847-2.685.459-1.644 2.249-3.748 4.184-5.586 6.312-2.878 3.313-5.731 6.674-8.585 10.012-.701.822-1.427 1.668-2.031 2.539-1.04 1.475-1.983 3.023-3.217 4.885-.169-1.161-.314-2.104-.483-3.337-.605 1.136-1.137 2.079-1.669 3.047-.169-.049-.363-.097-.532-.145.121-1.282.242-2.54.387-4.087-.822 1.015-1.499 1.886-2.177 2.732-.145-.072-.314-.145-.459-.217.459-1.427.895-2.878 1.475-4.692-.871.677-1.451 1.137-2.031 1.596-.121-.072-.218-.145-.339-.193.75-1.451 1.499-2.926 2.37-4.643-.653.241-1.016.362-1.378.507l-.049-.048c3.241-4.982 5.369-10.713 10.23-14.582 1.451-1.137 2.563-2.685 4.208-4.402-1.524-.822-2.685-1.45-3.87-2.08.581-1.668 1.911-2.563 3.87-2.514 2.176.072 3.289-1.113 3.821-3.072.362-1.306.943-2.563 1.136-3.87.919-6.843 5.659-11.776 8.537-17.629.193.073.363.145.556.242-.242.508-.484 1.04-.701 1.548.024.024.072.024.096.048l-.096-.193zM167.009 134.459c-.048.121-.121.217-.169.338a1.58 1.58 0 01-.194-.217c.121-.049.218-.121.339-.17-.024 0 .024.049.024.049zM202.631 82.634c.048-.072.072-.145.121-.218 0 .049.024.121 0 .121-.049.025-.097.049-.169.073l.048.024z"></path><path fill="#07873A" d="M.411 242.993v22.683h341.78v-22.683c-113.902-17.146-227.829 17.17-341.78 0z"></path><path fill="#3CAA36" d="M132.862 195.594c16.082-12.237 35.985-22.418 58.62-29.794-33.494-27.182-78.16-43.82-127.252-43.82-22.563 0-44.182 3.507-64.23 9.939v60.942c44.303 6.674 88.583 5.586 132.862 2.733z"></path><path fill="#07873A" d="M280.524 157.819c-53.783 0-101.98 14.293-135.063 36.952 65.585-4.595 131.17-11.753 196.754-1.886v-28.512c-19.249-4.232-40.023-6.554-61.691-6.554z"></path><path fill="#1A9DD9" d="M342.215 236.608c-114.072-17.17-228.12 17.17-342.192 0v-37.339c114.072 17.17 228.12-17.17 342.192 0v37.339z"></path><path fill="#000" d="M411.839 122.367l-21.063-36.59v36.59h-9.335v-50.35h10.64l20.846 36.662V72.018h9.335v50.349h-10.423zM450 123.262c-11.052 0-20.048-8.851-20.048-19.758 0-10.834 8.996-19.758 19.975-19.758 11.391 0 20.169 8.779 20.169 20.024 0 10.616-9.117 19.492-20.096 19.492zm0-31.22c-5.925 0-10.907 5.102-10.907 11.317 0 6.481 4.837 11.584 10.98 11.584 5.997 0 10.906-5.103 10.906-11.439 0-6.288-4.909-11.463-10.979-11.463zM484.969 101.376v20.991H475.9v-37.75h8.319v3.676c2.395-3.483 4.305-4.57 8.174-4.57h.677v8.73c-5.465.144-8.101 3.07-8.101 8.923zM509.83 92.864v29.503h-9.069V92.864h-4.426v-8.247h4.426v-12.6h9.069v12.6h5.441v8.247h-5.441zM545.596 122.367v-19.274c0-7.908-2.055-11.052-7.352-11.052-5.175 0-7.98 2.854-7.98 11.173v19.153h-9.069v-50.35h9.069v15.188c2.733-2.443 5.731-3.555 9.601-3.555 9.068 0 14.8 4.981 14.8 17.387v21.33h-9.069zM411.839 195.376l-21.063-36.589v36.589h-9.335v-50.35h10.64l20.846 36.662v-36.662h9.335v50.35h-10.423zM450 196.271c-11.052 0-20.048-8.851-20.048-19.758 0-10.834 8.996-19.758 19.975-19.758 11.391 0 20.169 8.779 20.169 20.024 0 10.641-9.117 19.492-20.096 19.492zm0-31.221c-5.925 0-10.907 5.103-10.907 11.318 0 6.481 4.837 11.584 10.98 11.584 5.997 0 10.906-5.103 10.906-11.439 0-6.287-4.909-11.463-10.979-11.463zM484.969 174.385v20.991H475.9v-37.75h8.319v3.676c2.395-3.482 4.305-4.571 8.174-4.571h.677v8.73c-5.465.146-8.101 3.072-8.101 8.924zM509.83 165.872v29.504h-9.069v-29.504h-4.426v-8.246h4.426v-12.6h9.069v12.6h5.441v8.246h-5.441zM545.596 195.376v-19.274c0-7.908-2.055-11.052-7.352-11.052-5.175 0-7.98 2.854-7.98 11.173v19.153h-9.069v-50.35h9.069v15.187c2.733-2.442 5.731-3.554 9.601-3.554 9.068 0 14.8 4.981 14.8 17.387v21.33h-9.069zM592.705 195.376v-4.909c-3.603 4.087-7.231 5.804-12.527 5.804-11.051 0-19.008-8.247-19.008-19.637 0-11.511 8.029-19.903 19.226-19.903 5.441 0 9.19 1.766 12.333 5.925v-5.054h8.319v37.75h-8.343v.024zm-11.39-30.326c-6.481 0-11.052 4.909-11.052 11.778 0 6.601 4.571 11.1 11.173 11.1 6.892 0 10.979-4.91 10.979-11.173 0-6.868-4.619-11.705-11.1-11.705zM655.993 195.376v-20.725c0-7.569-2.854-9.601-7.086-9.601-5.03 0-7.642 2.733-7.642 11.729v18.597h-9.069v-20.725c0-7.424-2.587-9.601-7.351-9.601-5.248 0-7.352 2.806-7.352 11.729v18.597h-9.069v-37.75h8.319v3.531c2.66-3.192 5.393-4.426 9.819-4.426 5.175 0 8.512 1.766 11.1 5.853 3.071-4.087 6.819-5.853 12.14-5.853 9.939 0 15.259 5.514 15.259 16.832v21.813h-9.068zM694.517 196.271c-4.643 0-8.174-1.355-11.584-4.426V208h-9.069v-50.374h8.319v4.426c2.926-3.41 7.304-5.321 12.406-5.321 10.907 0 18.815 8.247 18.815 19.637-.024 11.463-8.005 19.903-18.887 19.903zm-1.113-31.221c-6.263 0-11.051 4.909-11.051 11.391 0 6.602 4.764 11.511 11.172 11.511 5.998 0 10.689-4.982 10.689-11.391.049-6.529-4.667-11.511-10.81-11.511zM729.944 165.872v29.504h-9.068v-29.504h-4.426v-8.246h4.426v-12.6h9.068v12.6h5.442v8.246h-5.442zM758.36 196.271c-11.052 0-20.048-8.851-20.048-19.758 0-10.834 8.996-19.758 19.975-19.758 11.39 0 20.169 8.779 20.169 20.024 0 10.641-9.117 19.492-20.096 19.492zm0-31.221c-5.925 0-10.907 5.103-10.907 11.318 0 6.481 4.837 11.584 10.979 11.584 5.998 0 10.907-5.103 10.907-11.439 0-6.287-4.909-11.463-10.979-11.463zM808.709 195.376V176.9c0-10.084-2.733-11.85-7.231-11.85-2.854 0-5.248 1.234-6.675 3.483-1.16 1.838-1.499 4.014-1.499 9.068v17.775h-9.069v-37.75h8.392v3.603c3.337-3.192 6.336-4.498 10.64-4.498 5.248 0 9.335 1.911 11.778 5.442 2.055 2.926 2.732 6.19 2.732 12.938v20.241h-9.068v.024zM837.269 196.271c-7.497 0-12.89-4.087-13.833-12.89h9.141c.895 3.192 2.394 4.571 5.055 4.571 2.321 0 4.086-1.572 4.086-3.676 0-2.177-.338-2.805-6.408-4.837-7.497-2.515-10.496-5.659-10.496-11.172 0-6.481 5.514-11.512 12.552-11.512 6.408 0 12.067 4.233 12.406 11.318h-8.852c-.411-1.983-1.644-2.999-3.554-2.999-1.983 0-3.483 1.355-3.483 3.193 0 1.983.194 2.104 6.409 4.087 7.908 2.442 10.495 5.441 10.495 11.051-.024 7.207-5.949 12.866-13.518 12.866zM880.895 195.376v-19.274c0-7.908-2.056-11.052-7.352-11.052-5.175 0-7.98 2.854-7.98 11.173v19.153h-9.069v-50.35h9.069v15.187c2.733-2.442 5.731-3.554 9.601-3.554 9.068 0 14.8 4.981 14.8 17.387v21.33h-9.069zM898.066 195.376v-37.75h9.069v37.75h-9.069zm.048-43.191v-9.069h9.069v9.069h-9.069zM924.159 174.385v20.991h-9.068v-37.75h8.319v3.676c2.394-3.482 4.304-4.571 8.174-4.571h.677v8.73c-5.441.146-8.102 3.072-8.102 8.924zM973.638 180.528H944.4c1.088 4.57 5.054 7.424 10.423 7.424 3.748 0 5.998-1.016 8.319-3.749h9.891c-2.515 7.763-10.35 12.068-17.992 12.068-11.511 0-20.435-8.585-20.435-19.637 0-11.1 8.803-19.903 19.903-19.903 11.245 0 19.491 8.585 19.491 20.314-.024 1.379-.096 2.177-.362 3.483zm-19.033-15.478c-5.392 0-9.068 2.66-10.495 7.497h20.918c-1.136-4.837-4.812-7.497-10.423-7.497zM405.358 269.28c-14.727 0-26.504-11.729-26.504-26.239 0-14.244 11.656-25.9 25.9-25.9 10.35 0 19.419 5.586 23.844 15.332h-10.423c-3.41-4.426-7.351-6.336-13.228-6.336-9.601 0-16.686 7.497-16.686 16.976 0 9.408 7.642 17.17 16.904 17.17 4.836 0 8.391-1.644 12.478-5.924h10.979c-3.966 9.189-12.962 14.921-23.264 14.921zM452.732 269.28c-11.051 0-20.047-8.852-20.047-19.758 0-10.834 8.996-19.758 19.975-19.758 11.39 0 20.169 8.779 20.169 20.048 0 10.617-9.142 19.468-20.097 19.468zm0-31.197c-5.924 0-10.906 5.103-10.906 11.318 0 6.481 4.836 11.584 10.979 11.584 5.997 0 10.907-5.103 10.907-11.439-.025-6.288-4.934-11.463-10.98-11.463zM503.832 268.409v-3.603c-3.41 3.337-6.264 4.498-10.834 4.498-8.803 0-14.389-5.103-14.389-18.404v-20.241h9.069v18.476c0 10.012 2.781 11.85 7.158 11.85 3.071 0 5.514-1.306 6.892-3.483 1.016-1.692 1.427-4.014 1.427-9.068v-17.775h9.068v37.75h-8.391zM544.653 268.409v-18.476c0-10.084-2.733-11.85-7.231-11.85-2.853 0-5.247 1.234-6.674 3.483-1.161 1.837-1.5 4.014-1.5 9.068v17.775h-9.068v-37.774h8.391v3.603c3.338-3.192 6.336-4.498 10.641-4.498 5.248 0 9.335 1.91 11.777 5.441 2.056 2.926 2.733 6.191 2.733 12.938v20.241h-9.069v.049zM580.299 269.28c-11.173 0-20.169-8.803-20.169-19.758 0-11.1 8.73-19.758 19.903-19.758 8.585 0 16.082 4.837 19.008 13.494h-10.229c-1.838-3.482-4.692-5.175-8.803-5.175-6.264 0-10.762 4.764-10.762 11.391 0 6.602 4.692 11.511 10.98 11.511 3.748 0 6.336-1.5 8.585-4.982h10.229c-3.144 8.44-9.963 13.277-18.742 13.277zM606.055 268.409v-37.774h9.068v37.75h-9.068v.024zm.072-43.215v-9.069h9.069v9.069h-9.069zM623.08 268.409v-50.373h9.068v50.349h-9.068v.024z"></path></g><defs><clipPath id="lsbyhhec8duuntiec1v"><path fill="#fff" d="M0 0H974V327H0z"></path></clipPath></defs></svg>