<svg xmlns="http://www.w3.org/2000/svg" width="974" height="327" fill="none" viewBox="0 0 974 327"><path fill="#fff" d="M64.23 117.143c3.531 0 7.038.121 10.544.291v-10.351c2.177-6.142 6.312-10.906 11.367-12.986 5.054 2.104 9.165 6.868 11.366 12.986v12.696c20.338 3.217 39.515 9.311 57.023 17.799V66.77h-.12c-.266-1.112-.944-2.2-1.959-3.192v4.087l-2.54-1.887v-4.11c-4.57-2.758-12.115-4.596-20.7-4.668v5.683h-3.555v-5.61c-7.303.362-13.688 1.983-17.823 4.352v4.934l-1.886 1.886v-5.562c-1.621 1.233-2.661 2.636-3.023 4.111h-.121v3.773h-2.854v5.949h-4.933v-5.95h-17.34v5.95h-4.933v-5.95h-3.24v-3.772h-.121c-.363-1.475-1.403-2.853-3.023-4.111v5.562l-1.886-1.886v-4.933c-4.16-2.37-10.52-4.015-17.823-4.353v5.61h-3.555V57c-8.585.072-16.13 1.91-20.701 4.667v4.111l-2.54 1.887v-4.087c-1.015.991-1.692 2.08-1.958 3.192h-.121v55.524a211.858 211.858 0 0146.456-5.151zM263.5 161.157c16.427 0 29.745-13.318 29.745-29.746 0-16.427-13.318-29.745-29.745-29.745-16.428 0-29.746 13.318-29.746 29.745 0 16.428 13.318 29.746 29.746 29.746z"></path><path fill="#fff" d="M311.164 161.665c11.446 0 20.725-9.279 20.725-20.725 0-11.446-9.279-20.725-20.725-20.725-11.446 0-20.725 9.279-20.725 20.725 0 11.446 9.279 20.725 20.725 20.725zM209.765 73.88c1.475-1.62 2.951-3.216 4.426-4.837.121.073.266.145.387.242-.581.895-1.161 1.814-1.766 2.709.049.024.073.072.121.096l-.072-.145c.725-.508 1.475-.991 2.2-1.5.871-.604 1.717-1.232 2.588-1.861l-.048-.049c-.629 1.161-1.258 2.322-1.935 3.628 1.306-.943 2.563-1.862 3.821-2.781.121.12.242.266.363.387a659.476 659.476 0 00-2.757 3.482c1.306-.605 2.37-1.088 3.409-1.572-2.95 3.265-3.579 7.497-5.03 11.342-.798 2.104-1.209 4.377-1.862 6.554-1.04 3.385-2.128 6.771-3.361 10.689h13.712c.193.266.387.556.556.822-6.868 1.185-6.191 6.36-6.457 11.342-.653-.387-1.088-.581-1.451-.847-2.563-1.958-5.103-3.942-7.642-5.925-1.064-.822-1.717-.846-2.684.46-1.645 2.249-3.749 4.184-5.586 6.312-2.878 3.313-5.732 6.674-8.585 10.012-.702.822-1.427 1.668-2.032 2.539-1.04 1.475-1.983 3.023-3.216 4.885-.169-1.161-.315-2.104-.484-3.337-.604 1.136-1.137 2.079-1.669 3.047-.169-.049-.362-.097-.532-.146.121-1.281.242-2.539.387-4.086-.822 1.015-1.499 1.886-2.176 2.732-.145-.072-.314-.145-.46-.217.46-1.427.895-2.878 1.476-4.692-.871.677-1.451 1.137-2.032 1.596-.121-.072-.217-.145-.338-.193a736.794 736.794 0 002.37-4.643c-.653.241-1.016.362-1.379.507l-.048-.048c3.24-4.982 5.368-10.713 10.229-14.582 1.451-1.137 2.564-2.685 4.208-4.402-1.523-.822-2.684-1.45-3.869-2.08.58-1.668 1.91-2.563 3.869-2.514 2.177.072 3.289-1.113 3.821-3.072.363-1.306.943-2.563 1.137-3.87.919-6.843 5.659-11.776 8.536-17.629.194.073.363.145.556.242-.241.508-.483 1.04-.701 1.548.024.024.073.024.097.048l-.097-.193zM167.009 134.459c-.048.121-.121.217-.169.338a1.58 1.58 0 01-.194-.217c.121-.049.218-.121.339-.17-.024 0 .024.049.024.049zM202.631 82.634c.048-.072.072-.145.121-.218 0 .049.024.121 0 .121-.049.025-.097.049-.169.073l.048.024zM.41 242.992v22.684h341.781v-22.684c-113.903-17.145-227.83 17.17-341.78 0zM132.862 195.594c16.082-12.237 35.985-22.418 58.62-29.794-33.494-27.182-78.16-43.82-127.252-43.82-22.563 0-44.182 3.507-64.23 9.939v60.942c44.303 6.674 88.583 5.586 132.862 2.733z"></path><path fill="#fff" d="M280.524 157.819c-53.783 0-101.98 14.292-135.063 36.952 65.585-4.595 131.17-11.753 196.754-1.886v-28.512c-19.249-4.232-40.023-6.554-61.691-6.554z"></path><path fill="#fff" d="M342.215 236.608c-114.072-17.17-228.119 17.17-342.191 0v-37.339c114.072 17.17 228.119-17.17 342.191 0v37.339zM411.838 122.367l-21.063-36.59v36.59h-9.335v-50.35h10.64l20.846 36.662V72.018h9.335v50.349h-10.423zM449.999 123.262c-11.051 0-20.047-8.851-20.047-19.758 0-10.834 8.996-19.758 19.975-19.758 11.39 0 20.169 8.779 20.169 20.024 0 10.616-9.117 19.492-20.097 19.492zm0-31.22c-5.924 0-10.906 5.102-10.906 11.317 0 6.481 4.837 11.584 10.979 11.584 5.997 0 10.907-5.103 10.907-11.439 0-6.288-4.91-11.463-10.98-11.463zM484.968 101.376v20.991h-9.069v-37.75h8.319v3.676c2.395-3.483 4.305-4.57 8.174-4.57h.677v8.73c-5.465.144-8.101 3.07-8.101 8.923zM509.829 92.863v29.504h-9.069V92.863h-4.425v-8.246h4.425v-12.6h9.069v12.6h5.441v8.246h-5.441zM545.595 122.367v-19.274c0-7.908-2.055-11.052-7.352-11.052-5.175 0-7.98 2.854-7.98 11.173v19.153h-9.069v-50.35h9.069v15.188c2.733-2.443 5.731-3.555 9.601-3.555 9.068 0 14.8 4.981 14.8 17.387v21.33h-9.069zM411.838 195.376l-21.063-36.59v36.59h-9.335v-50.35h10.64l20.846 36.662v-36.662h9.335v50.35h-10.423zM449.999 196.271c-11.051 0-20.047-8.851-20.047-19.758 0-10.834 8.996-19.758 19.975-19.758 11.39 0 20.169 8.779 20.169 20.024 0 10.641-9.117 19.492-20.097 19.492zm0-31.221c-5.924 0-10.906 5.103-10.906 11.318 0 6.481 4.837 11.584 10.979 11.584 5.997 0 10.907-5.103 10.907-11.439 0-6.288-4.91-11.463-10.98-11.463zM484.968 174.385v20.991h-9.069v-37.75h8.319v3.676c2.395-3.483 4.305-4.571 8.174-4.571h.677v8.73c-5.465.145-8.101 3.071-8.101 8.924zM509.829 165.872v29.504h-9.069v-29.504h-4.425v-8.246h4.425v-12.6h9.069v12.6h5.441v8.246h-5.441zM545.595 195.376v-19.274c0-7.908-2.055-11.052-7.352-11.052-5.175 0-7.98 2.853-7.98 11.172v19.154h-9.069v-50.35h9.069v15.187c2.733-2.442 5.731-3.555 9.601-3.555 9.068 0 14.8 4.982 14.8 17.388v21.33h-9.069zM592.705 195.376v-4.909c-3.604 4.086-7.231 5.803-12.527 5.803-11.052 0-19.008-8.246-19.008-19.636 0-11.511 8.029-19.903 19.226-19.903 5.441 0 9.189 1.765 12.333 5.925v-5.054h8.319v37.75h-8.343v.024zm-11.391-30.326c-6.481 0-11.051 4.909-11.051 11.777 0 6.602 4.57 11.1 11.172 11.1 6.893 0 10.98-4.909 10.98-11.172 0-6.868-4.619-11.705-11.101-11.705zM655.992 195.376v-20.725c0-7.57-2.854-9.601-7.086-9.601-5.03 0-7.641 2.733-7.641 11.729v18.597h-9.069v-20.725c0-7.424-2.588-9.601-7.352-9.601-5.248 0-7.352 2.805-7.352 11.729v18.597h-9.068v-37.75h8.319v3.531c2.66-3.193 5.393-4.426 9.818-4.426 5.175 0 8.513 1.765 11.1 5.852 3.072-4.087 6.82-5.852 12.14-5.852 9.939 0 15.26 5.514 15.26 16.832v21.813h-9.069zM694.516 196.27c-4.643 0-8.174-1.354-11.584-4.425v16.154h-9.069v-50.373h8.319v4.425c2.926-3.409 7.304-5.32 12.406-5.32 10.907 0 18.815 8.247 18.815 19.637-.024 11.463-8.005 19.902-18.887 19.902zm-1.113-31.22c-6.263 0-11.051 4.909-11.051 11.39 0 6.602 4.764 11.511 11.172 11.511 5.998 0 10.689-4.981 10.689-11.39.049-6.529-4.667-11.511-10.81-11.511zM729.944 165.872v29.504h-9.069v-29.504h-4.425v-8.246h4.425v-12.6h9.069v12.6h5.441v8.246h-5.441zM758.359 196.271c-11.051 0-20.047-8.851-20.047-19.758 0-10.834 8.996-19.758 19.975-19.758 11.39 0 20.168 8.779 20.168 20.024 0 10.641-9.117 19.492-20.096 19.492zm0-31.221c-5.925 0-10.906 5.103-10.906 11.318 0 6.481 4.836 11.584 10.979 11.584 5.997 0 10.906-5.103 10.906-11.439 0-6.288-4.909-11.463-10.979-11.463zM808.708 195.376V176.9c0-10.085-2.733-11.85-7.231-11.85-2.854 0-5.248 1.233-6.675 3.482-1.16 1.838-1.499 4.015-1.499 9.069v17.775h-9.069v-37.75h8.392v3.603c3.337-3.192 6.336-4.498 10.64-4.498 5.248 0 9.335 1.911 11.778 5.441 2.055 2.926 2.732 6.191 2.732 12.938v20.242h-9.068v.024zM837.268 196.271c-7.497 0-12.89-4.087-13.833-12.89h9.141c.895 3.192 2.394 4.571 5.055 4.571 2.321 0 4.086-1.572 4.086-3.676 0-2.177-.338-2.805-6.408-4.837-7.497-2.515-10.495-5.659-10.495-11.172 0-6.482 5.513-11.512 12.551-11.512 6.408 0 12.067 4.232 12.406 11.318h-8.852c-.411-1.983-1.644-2.999-3.554-2.999-1.983 0-3.483 1.355-3.483 3.193 0 1.983.194 2.103 6.409 4.086 7.908 2.443 10.495 5.442 10.495 11.052-.024 7.207-5.949 12.866-13.518 12.866zM880.894 195.376v-19.274c0-7.908-2.056-11.052-7.352-11.052-5.175 0-7.98 2.853-7.98 11.172v19.154h-9.069v-50.35h9.069v15.187c2.733-2.442 5.731-3.555 9.601-3.555 9.068 0 14.8 4.982 14.8 17.388v21.33h-9.069zM898.065 195.376v-37.75h9.069v37.75h-9.069zm.049-43.191v-9.069h9.068v9.069h-9.068zM924.159 174.385v20.991h-9.069v-37.75h8.319v3.676c2.394-3.483 4.305-4.571 8.174-4.571h.677v8.73c-5.441.145-8.101 3.071-8.101 8.924zM973.637 180.527H944.4c1.088 4.571 5.054 7.424 10.423 7.424 3.748 0 5.997-1.015 8.319-3.748h9.89c-2.515 7.763-10.35 12.067-17.992 12.067-11.511 0-20.435-8.585-20.435-19.636 0-11.1 8.803-19.903 19.903-19.903 11.245 0 19.492 8.585 19.492 20.314-.024 1.378-.097 2.176-.363 3.482zm-19.032-15.477c-5.393 0-9.069 2.66-10.496 7.497h20.919c-1.137-4.837-4.813-7.497-10.423-7.497zM405.358 269.279c-14.728 0-26.505-11.729-26.505-26.238 0-14.244 11.656-25.9 25.9-25.9 10.351 0 19.419 5.586 23.845 15.332h-10.423c-3.41-4.426-7.352-6.336-13.228-6.336-9.601 0-16.687 7.496-16.687 16.976 0 9.407 7.642 17.17 16.904 17.17 4.837 0 8.392-1.644 12.479-5.925h10.979c-3.966 9.19-12.962 14.921-23.264 14.921zM452.732 269.279c-11.052 0-20.048-8.851-20.048-19.757 0-10.834 8.996-19.758 19.975-19.758 11.391 0 20.169 8.779 20.169 20.048 0 10.616-9.141 19.467-20.096 19.467zm0-31.196c-5.925 0-10.907 5.103-10.907 11.318 0 6.481 4.837 11.584 10.979 11.584 5.998 0 10.907-5.103 10.907-11.439-.024-6.288-4.933-11.463-10.979-11.463zM503.831 268.409v-3.603c-3.409 3.337-6.263 4.498-10.834 4.498-8.802 0-14.389-5.103-14.389-18.404v-20.241h9.069v18.476c0 10.012 2.781 11.85 7.158 11.85 3.072 0 5.514-1.306 6.892-3.483 1.016-1.693 1.427-4.014 1.427-9.068v-17.775h9.069v37.75h-8.392zM544.653 268.409v-18.476c0-10.085-2.733-11.85-7.231-11.85-2.854 0-5.248 1.233-6.675 3.482-1.161 1.838-1.499 4.015-1.499 9.069v17.775h-9.069v-37.774h8.392v3.603c3.337-3.192 6.336-4.498 10.64-4.498 5.248 0 9.335 1.91 11.778 5.441 2.055 2.926 2.732 6.191 2.732 12.938v20.241h-9.068v.049zM580.299 269.279c-11.173 0-20.169-8.802-20.169-19.757 0-11.1 8.73-19.758 19.903-19.758 8.585 0 16.081 4.837 19.008 13.494h-10.23c-1.838-3.482-4.691-5.175-8.803-5.175-6.263 0-10.761 4.764-10.761 11.39 0 6.602 4.691 11.512 10.979 11.512 3.748 0 6.336-1.5 8.585-4.982h10.23c-3.144 8.44-9.964 13.276-18.742 13.276zM606.054 268.409v-37.774h9.068v37.749h-9.068v.025zm.072-43.216v-9.068h9.069v9.068h-9.069zM623.079 268.409v-50.374h9.068v50.35h-9.068v.024z"></path></svg>