<svg width="71" height="83" viewBox="0 0 71 83" fill="none" xmlns="http://www.w3.org/2000/svg">
  <path
    d="M9.87263 28.8532C10.772 28.6315 11.6539 28.3441 12.5111 27.993C12.6219 30.0721 1.86233 30.4626 14.5163 29.7925C14.8735 29.7731 15.2178 29.6527 15.5093 29.4453C15.8007 29.238 16.0273 28.9521 16.1627 28.621C15.9282 28.8123 15.6543 28.9493 15.3606 29.022C14.511 29.2542 13.6931 28.964 13.5401 28.3888C13.5083 28.1852 13.5369 27.9768 13.6222 27.7893C13.7076 27.6017 13.8459 27.4433 14.0203 27.3334C14.2894 27.2015 14.5479 27.0749 14.8223 26.9377C15.243 26.8194 15.6913 26.8473 16.0941 27.0168C15.9858 26.8172 15.8429 26.6385 15.6719 26.4891C18.1098 25.1752 19.8934 23.819 19.3182 23.6343C18.59 23.3969 18.5478 22.4154 18.4106 22.0935C17.4555 23.0855 10.6905 27.1751 6.56403 28.4996C5.19828 28.868 3.79739 29.0909 2.38474 29.1645C3.54565 30.4151 7.51914 29.4336 9.87263 28.869M23.9091 22.0882C26.2362 22.5737 28.7428 19.3706 30.8852 16.5897L34.6898 11.6558C34.6898 11.6558 33.74 16.7691 38.1409 15.5185C39.3598 15.1755 41.5128 12.7851 43.6658 11.0015C46.758 8.03061 48.7474 7.30768 48.7474 7.30768C48.7474 7.30768 46.109 12.5846 53.8238 11.2601C57.8342 10.5899 68.9367 7.43432 71 6.47921C66.7363 6.47921 52.9953 11.7561 50.626 9.334C49.7553 7.54514 51.4755 5.96735 53.1325 4.58481C55.0955 2.91731 59.4331 0.532166 59.4331 0.532166C59.4331 0.532166 55.2116 1.05985 47.0324 6.17315C42.4468 9.04377 39.6448 13.1281 37.6607 13.4236C34.3679 13.9196 39.2437 3.61386 39.2437 3.61386C39.2437 3.61386 35.2069 8.057 31.7822 12.3788C29.091 15.7771 26.4104 20.141 24.6215 19.9036C20.9277 19.4234 23.2073 12.3313 23.4659 10.5846C23.4659 10.5846 17.6033 20.7637 23.888 22.0724M24.9909 49.7285C22.991 45.0374 20.1731 40.895 17.6033 38.874C15.4397 37.1379 10.6114 34.7211 4.21582 34.7474C1.76734 34.7474 0.184281 31.5233 0.184281 31.5233C0.184281 31.6024 -1.098 35.0482 3.10239 36.3569C5.09178 36.9796 9.51908 36.6207 13.5612 39.3542C17.4766 41.9926 19.8934 45.6864 21.6137 49.7285M59.7919 13.0067C58.8579 12.3629 23.83 15.0436 28.5844 34.3833C30.4419 41.9451 34.9695 52.425 46.1353 55.4486L47.1538 52.2034C36.6 49.6441 31.7611 39.3067 31.1543 31.9243C29.7981 15.5132 59.7919 13.0067 59.7919 13.0067Z"
    fill="white"/>
  <path
    d="M9.00195 73.4956V53.5385H13.0282V61.3905H20.9277V53.5385H24.954V73.4956H20.9277V64.7677H13.0282V73.4956H9.00195Z"
    fill="white"/>
  <path
    d="M30.8167 63.4485L27.3445 62.7994C27.629 61.5596 28.3431 60.4605 29.3603 59.6966C30.3101 59.0265 31.7296 58.6887 33.6081 58.6887C34.9069 58.6165 36.206 58.8234 37.418 59.2956C38.1514 59.611 38.7676 60.1479 39.1805 60.8312C39.5235 61.4538 39.7082 62.5989 39.7082 64.2558L39.666 68.7254C39.6426 69.6648 39.7045 70.6044 39.8507 71.5327C39.9976 72.206 40.2281 72.8583 40.5367 73.4746H36.7373C36.6371 73.2213 36.5157 72.8466 36.3679 72.3453C36.3046 72.1184 36.2624 71.9706 36.236 71.8968C35.6267 72.4996 34.9111 72.9845 34.1253 73.3268C33.3725 73.6453 32.5627 73.8069 31.7454 73.8017C30.4586 73.8729 29.1951 73.4372 28.2257 72.588C27.805 72.1994 27.4724 71.7252 27.2503 71.1973C27.0282 70.6693 26.9218 70.1 26.9382 69.5274C26.9247 68.7587 27.1277 68.0017 27.5239 67.3428C27.9136 66.7009 28.4847 66.1886 29.165 65.8706C30.1375 65.4492 31.1584 65.1496 32.2045 64.9788C33.4621 64.7803 34.6986 64.4658 35.8983 64.0395V63.6596C35.9299 63.3732 35.899 63.0835 35.808 62.8102C35.7169 62.5369 35.5677 62.2866 35.3706 62.0765C35.0065 61.7652 34.3152 61.6069 33.3126 61.6069C32.7564 61.5758 32.2039 61.7157 31.7296 62.0079C31.2837 62.371 30.9612 62.8631 30.8061 63.4168M35.9247 66.5196C35.1593 66.7537 34.3826 66.9491 33.5976 67.1054C32.8623 67.213 32.1495 67.4393 31.4868 67.7755C31.263 67.9228 31.0803 68.1245 30.9557 68.3617C30.8311 68.5989 30.7687 68.8638 30.7745 69.1317C30.7727 69.3916 30.8248 69.6491 30.9274 69.888C31.03 70.1268 31.181 70.3418 31.3707 70.5195C31.5733 70.7136 31.8124 70.8653 32.0743 70.9659C32.3361 71.0665 32.6154 71.1138 32.8958 71.1052C33.6114 71.0973 34.3055 70.8585 34.8746 70.4245C35.3107 70.1162 35.6303 69.6701 35.7822 69.1581C35.9109 68.546 35.9623 67.9202 35.9352 67.2953L35.9247 66.5196Z"
    fill="white"/>
  <path
    d="M46.3411 73.4956H42.5154V59.037H46.0667V61.095C46.4747 60.3479 47.0336 59.6938 47.7078 59.1742C48.203 58.861 48.779 58.6996 49.3648 58.7098C50.2541 58.7159 51.1248 58.966 51.8818 59.4327L50.6945 62.7677C50.1695 62.3899 49.5465 62.1718 48.9004 62.1398C48.4088 62.1244 47.9273 62.2812 47.539 62.583C47.0909 63.0087 46.7834 63.561 46.6577 64.1661C46.4467 64.94 46.3411 66.5565 46.3411 69.0155V73.4956Z"
    fill="white"/>
  <path
    d="M61.9396 59.0369V62.087H59.3012V67.8916C59.2757 68.5803 59.3022 69.27 59.3804 69.9548C59.4303 70.1523 59.5503 70.3248 59.7181 70.4403C59.9087 70.571 60.1361 70.6376 60.3671 70.6303C60.8957 70.5917 61.4144 70.4669 61.9027 70.2609L62.2299 73.2318C61.2711 73.6251 60.2423 73.819 59.2062 73.8017C58.5683 73.811 57.9349 73.6926 57.3435 73.4534C56.8603 73.2761 56.4375 72.9649 56.1245 72.5563C55.8389 72.1044 55.6586 71.594 55.5968 71.063C55.4925 70.1699 55.4519 69.2706 55.4755 68.3717V62.087H53.7183V59.0369H55.4755V56.1663L59.3118 53.9342V59.0369H61.9396Z"
    fill="white"/>
  <path
    d="M8.91246 78.2078H10.4269C10.6896 78.199 10.9523 78.2256 11.2079 78.287C11.4437 78.3567 11.6568 78.4878 11.8253 78.6669C12.0053 78.8562 12.1405 79.0834 12.2211 79.3318C12.3173 79.6462 12.3618 79.9741 12.353 80.3028C12.3598 80.598 12.317 80.8923 12.2263 81.1734C12.1412 81.4479 11.9909 81.6977 11.7884 81.9016C11.622 82.053 11.4236 82.1649 11.2079 82.2288C10.9689 82.2929 10.7217 82.3213 10.4744 82.3132H8.89136L8.91246 78.2078ZM9.74093 78.9044V81.622H10.3583C10.5263 81.6284 10.6944 81.616 10.8596 81.585C10.9851 81.5563 11.1012 81.4964 11.1974 81.4109C11.3032 81.3004 11.3778 81.1639 11.4137 81.0151C11.4756 80.7703 11.504 80.5183 11.4981 80.2658C11.5049 80.0186 11.4765 79.7716 11.4137 79.5323C11.3677 79.3832 11.2862 79.2474 11.1762 79.1366C11.0691 79.039 10.938 78.9716 10.7963 78.9413C10.571 78.9087 10.3431 78.8963 10.1156 78.9044H9.74093Z"
    fill="white"/>
  <path d="M13.8619 78.2079H13.0334V82.3133H13.8619V78.2079Z" fill="white"/>
  <path
    d="M14.4373 80.9782L15.2446 80.8991C15.2698 81.1264 15.3745 81.3376 15.5401 81.4954C15.7189 81.6125 15.928 81.6749 16.1417 81.6749C16.3554 81.6749 16.5645 81.6125 16.7433 81.4954C16.8061 81.45 16.8574 81.3906 16.8932 81.3219C16.9289 81.2532 16.948 81.177 16.9491 81.0996C16.9517 81.0095 16.9217 80.9214 16.8646 80.8516C16.7816 80.7679 16.6778 80.7078 16.5638 80.6774C16.4689 80.6405 16.2472 80.5825 15.899 80.498C15.5611 80.4344 15.2418 80.2955 14.9649 80.0917C14.7673 79.9193 14.6383 79.6816 14.6015 79.4219C14.5647 79.1623 14.6225 78.898 14.7644 78.6775C14.8934 78.4877 15.0776 78.3422 15.2921 78.2606C15.5493 78.1608 15.8236 78.1124 16.0995 78.1182C16.5162 78.0862 16.9305 78.2062 17.2657 78.4559C17.3943 78.5696 17.4975 78.7093 17.5685 78.8657C17.6394 79.0221 17.6765 79.1918 17.6773 79.3635L16.8488 79.4004C16.8294 79.2244 16.7469 79.0613 16.6166 78.9414C16.4607 78.8385 16.2751 78.7903 16.0889 78.8042C15.8898 78.7918 15.6919 78.8436 15.5243 78.9519C15.4827 78.9795 15.4488 79.0173 15.4257 79.0616C15.4026 79.1059 15.3912 79.1553 15.3924 79.2052C15.3925 79.2538 15.4035 79.3017 15.4245 79.3455C15.4455 79.3893 15.476 79.4279 15.5137 79.4585C15.7485 79.5949 16.0059 79.6878 16.2736 79.7329C16.5837 79.794 16.885 79.8933 17.1707 80.0284C17.358 80.1221 17.5152 80.2666 17.6245 80.4453C17.7372 80.6471 17.7937 80.8755 17.7881 81.1066C17.7825 81.3377 17.7151 81.563 17.5928 81.7592C17.467 81.9617 17.2831 82.1217 17.0651 82.2183C16.7803 82.3251 16.4774 82.3753 16.1733 82.366C15.744 82.394 15.3188 82.2666 14.9755 82.0072C14.6799 81.7322 14.5006 81.3547 14.4742 80.9518"
    fill="white"/>
  <path d="M19.3972 82.3133V78.9044H18.1782V78.2079H21.4446V78.9044H20.2257V82.3133H19.3972Z" fill="white"/>
  <path
    d="M21.9829 82.3239V78.2079H23.7401C24.0624 78.1926 24.385 78.23 24.6952 78.3187C24.8952 78.393 25.0643 78.5324 25.1754 78.7145C25.297 78.9069 25.3594 79.1307 25.3548 79.3583C25.3619 79.4976 25.3414 79.637 25.2943 79.7683C25.2472 79.8997 25.1745 80.0204 25.0804 80.1234C24.8633 80.3426 24.5752 80.4773 24.2678 80.5034C24.4313 80.5982 24.582 80.7135 24.7163 80.8464C24.8908 81.0566 25.0479 81.2807 25.186 81.5165L25.6873 82.3133H24.6794L24.0831 81.4215C23.9499 81.212 23.8036 81.0111 23.6451 80.82C23.5768 80.7437 23.492 80.6842 23.3971 80.6458C23.2594 80.6102 23.117 80.596 22.975 80.6036H22.8114V82.3239H21.9829ZM22.8114 79.9546H23.4235C23.6725 79.9663 23.922 79.9504 24.1675 79.9071C24.2609 79.8741 24.3419 79.8133 24.3997 79.7329C24.4586 79.642 24.4881 79.5351 24.4842 79.4269C24.4907 79.3044 24.4512 79.1839 24.3733 79.0892C24.2905 79.0026 24.1807 78.9468 24.062 78.9309C23.9934 78.9309 23.7929 78.9309 23.4552 78.9309H22.8114V79.9546Z"
    fill="white"/>
  <path d="M26.9222 78.2079H26.0938V82.3133H26.9222V78.2079Z" fill="white"/>
  <path
    d="M30.3416 80.8041L31.1437 81.0627C31.054 81.4543 30.8368 81.805 30.5263 82.06C30.2103 82.2867 29.8279 82.4018 29.4393 82.3872C29.1882 82.3946 28.9383 82.3485 28.7064 82.2521C28.4744 82.1557 28.2655 82.011 28.0937 81.8278C27.9094 81.62 27.7679 81.3779 27.6773 81.1153C27.5868 80.8527 27.5489 80.5748 27.566 80.2975C27.5328 79.7217 27.7217 79.1552 28.0937 78.7144C28.2716 78.5253 28.4881 78.3766 28.7284 78.2783C28.9687 78.18 29.2273 78.1344 29.4868 78.1445C29.9374 78.125 30.3774 78.2844 30.711 78.5878C30.9164 78.7993 31.0621 79.0615 31.1332 79.3477L30.31 79.5429C30.2743 79.3422 30.1668 79.1614 30.0075 79.0342C29.8483 78.907 29.6482 78.8421 29.4446 78.8516C29.3049 78.8481 29.1662 78.8757 29.0384 78.9323C28.9107 78.9888 28.7971 79.073 28.7058 79.1788C28.4914 79.487 28.3907 79.86 28.4209 80.2342C28.3863 80.6245 28.4849 81.0151 28.7005 81.3423C28.7892 81.4485 28.9008 81.5331 29.027 81.5897C29.1531 81.6464 29.2905 81.6737 29.4287 81.6695C29.6388 81.6749 29.8428 81.5994 29.9986 81.4584C30.1777 81.2788 30.2975 81.0486 30.3416 80.7988"
    fill="white"/>
  <path d="M32.7793 82.3133V78.9044H31.5603V78.2079H34.8214V78.9044H33.6077V82.3133H32.7793Z" fill="white"/>
  <path
    d="M39.571 80.8041L40.3783 81.0627C40.2864 81.4534 40.0696 81.8035 39.7609 82.06C39.3912 82.3087 38.9466 82.4214 38.5031 82.3791C38.0595 82.3368 37.6443 82.1419 37.3283 81.8278C37.144 81.62 37.0025 81.3779 36.9119 81.1153C36.8214 80.8527 36.7835 80.5748 36.8006 80.2975C36.7652 79.7215 36.9543 79.1541 37.3283 78.7145C37.5062 78.5254 37.7226 78.3766 37.963 78.2783C38.2033 78.18 38.4619 78.1344 38.7214 78.1446C39.1718 78.1262 39.6114 78.2854 39.9456 78.5878C40.1512 78.7984 40.2954 79.0611 40.3625 79.3477L39.5446 79.5429C39.5068 79.3432 39.3988 79.1637 39.24 79.0369C39.0812 78.9101 38.8822 78.8443 38.6792 78.8517C38.5394 78.8474 38.4004 78.8746 38.2726 78.9312C38.1447 78.9878 38.0312 79.0725 37.9404 79.1788C37.726 79.487 37.6253 79.86 37.6554 80.2342C37.6184 80.6248 37.7171 81.0162 37.9351 81.3423C38.0238 81.4485 38.1354 81.5331 38.2616 81.5897C38.3877 81.6464 38.5251 81.6737 38.6633 81.6695C38.8717 81.6747 39.0741 81.599 39.228 81.4584C39.4109 81.2816 39.5313 81.0501 39.571 80.7988"
    fill="white"/>
  <path
    d="M40.9272 80.287C40.9138 79.9261 40.9767 79.5665 41.1119 79.2316C41.2048 79.0228 41.3334 78.8317 41.4918 78.667C41.6406 78.509 41.8202 78.3833 42.0195 78.2976C42.3005 78.1823 42.6024 78.1266 42.9061 78.134C43.1738 78.1226 43.4411 78.1669 43.6909 78.2641C43.9407 78.3613 44.1676 78.5092 44.3572 78.6987C44.7077 79.1428 44.8984 79.6921 44.8984 80.258C44.8984 80.8238 44.7077 81.3731 44.3572 81.8173C43.9606 82.1792 43.443 82.3798 42.9061 82.3798C42.3691 82.3798 41.8516 82.1792 41.4549 81.8173C41.2693 81.6082 41.127 81.3643 41.0365 81.0998C40.9459 80.8353 40.9087 80.5554 40.9272 80.2764M41.7768 80.2764C41.7506 80.6558 41.8652 81.0316 42.0987 81.3318C42.2005 81.4478 42.3265 81.54 42.4678 81.602C42.6091 81.664 42.7623 81.6943 42.9166 81.6906C43.0696 81.6942 43.2215 81.6643 43.3618 81.6033C43.5022 81.5422 43.6275 81.4514 43.7292 81.3371C43.9328 81.0227 44.0411 80.6562 44.0411 80.2817C44.0411 79.9072 43.9328 79.5407 43.7292 79.2263C43.6259 79.1116 43.4986 79.0209 43.3563 78.9608C43.2141 78.9006 43.0604 78.8723 42.9061 78.8781C42.7513 78.873 42.5973 78.9021 42.4551 78.9632C42.3128 79.0243 42.1857 79.1159 42.0829 79.2316C41.8504 79.5321 41.7376 79.9081 41.7662 80.287"
    fill="white"/>
  <path
    d="M45.5497 78.2079H46.3782V80.4347C46.3712 80.6639 46.3818 80.8932 46.4099 81.1207C46.4235 81.201 46.453 81.2777 46.4964 81.3465C46.5399 81.4154 46.5966 81.4749 46.6631 81.5218C46.8171 81.6302 47.0028 81.684 47.1908 81.6748C47.3777 81.688 47.5636 81.6378 47.7185 81.5323C47.8321 81.4455 47.9092 81.3194 47.9349 81.1788C47.9657 80.9479 47.9781 80.715 47.9718 80.4822V78.2079H48.8003V80.3661C48.8125 80.7193 48.7895 81.0729 48.7317 81.4215C48.6955 81.6157 48.6101 81.7974 48.4837 81.9492C48.3509 82.095 48.1867 82.2087 48.0035 82.2816C47.7504 82.3751 47.4815 82.4181 47.2119 82.4083C46.9085 82.4223 46.6053 82.3756 46.3201 82.2711C46.1347 82.1923 45.9703 82.0712 45.8399 81.9175C45.729 81.7859 45.6496 81.6307 45.6078 81.4637C45.5453 81.1156 45.5188 80.7619 45.5286 80.4083L45.5497 78.2079Z"
    fill="white"/>
  <path
    d="M49.7026 82.3133V78.2079H50.51L52.1881 80.9519V78.2079H52.9585V82.3133H52.13L50.4731 79.6379V82.3133H49.7026Z"
    fill="white"/>
  <path
    d="M56.4569 80.8041L57.259 81.0627C57.171 81.4537 56.9557 81.8045 56.6469 82.06C56.2772 82.3087 55.8326 82.4214 55.389 82.3791C54.9455 82.3368 54.5303 82.1419 54.2143 81.8278C54.0299 81.62 53.8884 81.3779 53.7979 81.1153C53.7073 80.8527 53.6695 80.5748 53.6866 80.2975C53.6512 79.7215 53.8403 79.1541 54.2143 78.7145C54.3922 78.5254 54.6086 78.3766 54.849 78.2783C55.0893 78.18 55.3479 78.1344 55.6074 78.1446C56.0578 78.1262 56.4974 78.2854 56.8316 78.5878C57.0372 78.7984 57.1814 79.0611 57.2485 79.3477L56.4306 79.5429C56.3933 79.3367 56.285 79.15 56.1245 79.0152C55.9652 78.8906 55.7674 78.8253 55.5651 78.8306C55.4253 78.8259 55.2862 78.8529 55.1583 78.9096C55.0304 78.9662 54.9169 79.0511 54.8264 79.1577C54.612 79.4659 54.5113 79.8389 54.5414 80.2131C54.5043 80.6037 54.6031 80.9951 54.8211 81.3212C54.9098 81.4274 55.0214 81.512 55.1475 81.5686C55.2737 81.6253 55.4111 81.6526 55.5493 81.6484C55.7575 81.6525 55.9595 81.577 56.1139 81.4373C56.295 81.2592 56.4151 81.0283 56.4569 80.7777"
    fill="white"/>
  <path d="M58.7787 78.2079H57.9502V82.3133H58.7787V78.2079Z" fill="white"/>
  <path d="M59.5913 82.3133V78.2448H60.4251V81.622H62.483V82.3133H59.5913Z" fill="white"/>
</svg>
