<svg width="25" height="23" viewBox="0 0 25 23" fill="none" xmlns="http://www.w3.org/2000/svg">
<path d="M21.6358 6.23357C21.6504 6.46325 21.6504 6.69298 21.6504 6.92265C21.6504 13.9281 16.9074 22 8.2386 22C5.5679 22 3.08694 21.1304 1 19.6211C1.37946 19.6703 1.74427 19.6867 2.13832 19.6867C4.34198 19.6867 6.37057 18.85 7.9905 17.4227C5.91816 17.3734 4.18147 15.8477 3.58311 13.7477C3.87501 13.7968 4.16687 13.8297 4.47337 13.8297C4.89658 13.8297 5.31984 13.764 5.71385 13.6492C3.55395 13.157 1.93397 11.0242 1.93397 8.44843V8.38283C2.56149 8.77658 3.29125 9.02267 4.06467 9.05544C2.795 8.10386 1.96317 6.47966 1.96317 4.64215C1.96317 3.65779 2.19663 2.75545 2.60529 1.96794C4.92574 5.18357 8.41371 7.28353 12.3248 7.51326C12.2519 7.11951 12.2081 6.70939 12.2081 6.29923C12.2081 3.37888 14.3096 1 16.9219 1C18.2792 1 19.5051 1.63984 20.3661 2.67344C21.4314 2.44376 22.453 2.00077 23.3579 1.39375C23.0076 2.62425 22.2633 3.65784 21.2855 4.31405C22.2342 4.19926 23.1536 3.90388 24 3.49377C23.358 4.54372 22.5553 5.47884 21.6358 6.23357V6.23357Z" stroke="white" stroke-width="1.5" stroke-linejoin="round"/>
</svg>
