<svg width="29" height="22" viewBox="0 0 29 22" fill="none" xmlns="http://www.w3.org/2000/svg">
<path d="M27.4358 4.12932C27.1253 2.89755 26.2104 1.92745 25.0487 1.59823C22.9431 1 14.5 1 14.5 1C14.5 1 6.05691 1 3.95128 1.59823C2.78962 1.9275 1.87471 2.89755 1.56419 4.12932C1 6.36198 1 11.0202 1 11.0202C1 11.0202 1 15.6784 1.56419 17.9111C1.87471 19.1429 2.78962 20.0726 3.95128 20.4018C6.05691 21 14.5 21 14.5 21C14.5 21 22.9431 21 25.0487 20.4018C26.2104 20.0726 27.1253 19.1429 27.4358 17.9111C28 15.6784 28 11.0202 28 11.0202C28 11.0202 28 6.36198 27.4358 4.12932ZM11.7386 15.2495V6.79089L18.7954 11.0203L11.7386 15.2495Z" stroke="white" stroke-width="1.5" stroke-linejoin="round"/>
</svg>
