<svg xmlns="http://www.w3.org/2000/svg" width="193" height="40" viewBox="0 0 193 40"><g fill="none"><path fill="#3B3F44" d="M53.036 10.658c-.097.17-.227.32-.382.439a.824.824 0 01-.512.146 1.241 1.241 0 01-.597-.175l-.728-.4a5.945 5.945 0 00-.93-.396 3.675 3.675 0 00-1.183-.175 2.536 2.536 0 00-1.707.507c-.378.338-.585.83-.562 1.34-.007.333.12.655.353.892.258.257.56.464.89.61.409.187.829.345 1.259.472.47.142.954.3 1.445.474.494.177.976.384 1.445.618.457.23.875.53 1.24.89.378.384.68.839.888 1.338.245.602.365 1.249.353 1.9a6.238 6.238 0 01-.424 2.31 5.328 5.328 0 01-1.226 1.874 5.706 5.706 0 01-1.983 1.26 7.4 7.4 0 01-2.678.458 8.441 8.441 0 01-1.675-.172 10.009 10.009 0 01-1.654-.482 9.454 9.454 0 01-1.494-.739 6.45 6.45 0 01-1.223-.953l1.212-1.932a.972.972 0 01.375-.357c.158-.09.337-.136.519-.135.261.006.515.088.731.235.248.154.523.325.834.51.338.204.693.376 1.06.515.454.162.933.24 1.414.232a2.676 2.676 0 001.728-.496c.44-.394.67-.976.618-1.568a1.488 1.488 0 00-.353-1.014 2.63 2.63 0 00-.89-.65 7.721 7.721 0 00-1.252-.45 37.316 37.316 0 01-1.438-.435 10.218 10.218 0 01-1.438-.586 4.54 4.54 0 01-1.254-.917 4.327 4.327 0 01-.887-1.428 5.662 5.662 0 01-.354-2.096 5.053 5.053 0 011.572-3.653 5.758 5.758 0 011.898-1.192 6.977 6.977 0 012.576-.447 9.553 9.553 0 011.58.129 8.14 8.14 0 012.745.978c.382.222.738.486 1.06.79l-.971 1.93zm8.774 1.375c.9-.012 1.794.14 2.639.448a5.677 5.677 0 013.37 3.328 7.3 7.3 0 01.473 2.696 7.413 7.413 0 01-.474 2.72 5.858 5.858 0 01-1.326 2.058 5.831 5.831 0 01-2.043 1.302 7.346 7.346 0 01-2.639.455 7.458 7.458 0 01-2.656-.455 6.008 6.008 0 01-2.062-1.302 5.833 5.833 0 01-1.337-2.058 7.412 7.412 0 01-.47-2.72 7.3 7.3 0 01.47-2.696c.295-.765.75-1.46 1.337-2.037a5.983 5.983 0 012.062-1.29c.85-.308 1.75-.46 2.656-.449zm0 10.209a2.158 2.158 0 001.943-.91c.416-.616.62-1.544.62-2.795 0-1.252-.204-2.177-.62-2.788a2.157 2.157 0 00-1.943-.918 2.226 2.226 0 00-1.975.91c-.416.612-.624 1.542-.624 2.788 0 1.252.208 2.18.624 2.795.45.629 1.2.977 1.975.918zm17.731-7.03a2.062 2.062 0 01-.328.331.715.715 0 01-.453.121.98.98 0 01-.506-.135l-.507-.298a3.96 3.96 0 00-.66-.296 2.74 2.74 0 00-.938-.135 2.628 2.628 0 00-1.201.256 2.23 2.23 0 00-.838.711c-.235.354-.4.749-.489 1.163-.11.51-.162 1.03-.157 1.55 0 1.21.232 2.134.713 2.788a2.249 2.249 0 001.933.974 2.71 2.71 0 001.045-.163 3.11 3.11 0 00.653-.356l.496-.355a.911.911 0 01.567-.171.782.782 0 01.68.327l1.1 1.351c-.357.42-.771.786-1.231 1.088a6.07 6.07 0 01-1.327.658c-.44.156-.896.267-1.359.33-.44.06-.885.09-1.33.09a5.722 5.722 0 01-2.215-.438 5.396 5.396 0 01-1.858-1.273 6.106 6.106 0 01-1.27-2.048 7.649 7.649 0 01-.466-2.777 7.83 7.83 0 01.406-2.55c.257-.76.669-1.46 1.21-2.054a5.567 5.567 0 011.978-1.37 6.908 6.908 0 012.725-.497 6.672 6.672 0 012.614.473c.76.324 1.449.796 2.026 1.387l-1.013 1.319zm6.638-6.497c.002.291-.06.578-.182.843a2.226 2.226 0 01-.498.707c-.215.2-.464.36-.736.474a2.312 2.312 0 01-.896.174 2.144 2.144 0 01-.865-.174 2.427 2.427 0 01-.711-.474 2.193 2.193 0 01-.487-.707 2.033 2.033 0 01-.178-.843c-.002-.295.059-.588.178-.86a2.24 2.24 0 01.487-.707c.205-.201.446-.362.711-.474a2.19 2.19 0 01.865-.17 2.336 2.336 0 011.632.644c.21.202.38.442.498.708.121.27.183.563.182.86zm-.438 3.44v12.56h-3.774v-12.56h3.774zm8.194-.122c.772-.01 1.54.12 2.267.388a4.924 4.924 0 011.749 1.13 5.174 5.174 0 011.147 1.818c.287.779.427 1.605.413 2.436.004.238-.007.475-.035.71a1.11 1.11 0 01-.13.427.52.52 0 01-.258.22 1.224 1.224 0 01-.413.06h-7.157c.119 1.066.434 1.819.948 2.291.542.487 1.25.742 1.973.71.378.008.754-.045 1.116-.156a5.93 5.93 0 00.829-.355l.671-.355c.198-.103.418-.157.64-.156a.765.765 0 01.672.327l1.078 1.35a5.51 5.51 0 01-1.239 1.086 6.279 6.279 0 01-1.367.657 7.336 7.336 0 01-1.4.33c-.443.059-.89.089-1.336.09a6.901 6.901 0 01-2.449-.43 5.667 5.667 0 01-1.997-1.283 6.081 6.081 0 01-1.354-2.13 7.98 7.98 0 01-.497-2.942c-.003-.818.141-1.629.427-2.394a5.78 5.78 0 013.148-3.331 6.238 6.238 0 012.554-.498zm.074 2.6a2.223 2.223 0 00-1.655.615 3.22 3.22 0 00-.79 1.776h4.638c0-.297-.038-.592-.116-.877a2.087 2.087 0 00-.37-.757 1.887 1.887 0 00-.676-.543 2.275 2.275 0 00-1.031-.214zm12.009 10.407a4.602 4.602 0 01-1.605-.256 3.076 3.076 0 01-1.888-1.88 4.399 4.399 0 01-.244-1.501V14.97h-1.077a.728.728 0 01-.503-.186.693.693 0 01-.212-.547v-1.452l2.029-.386.75-3.037a.756.756 0 01.836-.575h1.99v3.637h3.097v2.546h-3.098v6.18c-.007.25.069.496.216.702.145.19.378.295.62.28a1.245 1.245 0 00.607-.137l.198-.094a.505.505 0 01.212-.042.442.442 0 01.276.077.9.9 0 01.215.245l1.156 1.754a5.258 5.258 0 01-1.658.835 6.647 6.647 0 01-1.917.27zm10.825 3.483a1.063 1.063 0 01-1.19.73h-2.815l2.424-5.095-5.018-11.473h3.324c.241-.014.48.055.677.194.16.117.283.277.355.461l2.062 5.421c.19.49.349.993.475 1.503.078-.259.167-.51.266-.762.1-.252.188-.507.28-.765l1.868-5.397a.939.939 0 01.379-.468c.182-.121.395-.186.613-.187h3.034l-6.734 15.838z"/><path fill="#9E9A98" d="M125.203 7.163h1.954c.187-.007.371.05.522.161.134.1.232.24.28.4l3.593 12.2c.064.222.125.458.178.716.053.258.103.519.152.795.054-.276.11-.544.167-.802.053-.242.118-.48.195-.716l4.094-12.2a.876.876 0 01.283-.382.776.776 0 01.515-.18h.68a.807.807 0 01.519.162c.13.103.229.242.283.4l4.069 12.207c.159.479.288.966.387 1.46.05-.271.092-.53.134-.772.037-.233.09-.462.156-.688l3.608-12.2a.751.751 0 01.273-.39.79.79 0 01.514-.17h1.834l-5.427 17.552h-2.11l-4.41-13.387a7.207 7.207 0 01-.24-.884c-.043.164-.079.322-.118.472-.039.15-.074.286-.113.412l-4.43 13.387h-2.129l-5.413-17.553zm28.956 4.87a6.309 6.309 0 012.428.449c.7.285 1.328.722 1.841 1.279.52.58.917 1.26 1.165 2a8.662 8.662 0 010 5.249 5.669 5.669 0 01-1.165 1.994c-.512.555-1.14.99-1.84 1.272a6.914 6.914 0 01-4.858 0 5.111 5.111 0 01-1.848-1.272 5.637 5.637 0 01-1.175-1.994 8.52 8.52 0 010-5.248 5.64 5.64 0 011.175-2.001 5.172 5.172 0 011.848-1.28 6.309 6.309 0 012.429-.447zm0 10.995c1.21 0 2.115-.407 2.715-1.222.6-.815.898-1.952.896-3.411 0-1.467-.3-2.61-.896-3.43-.597-.82-1.502-1.229-2.715-1.229a3.772 3.772 0 00-1.6.316c-.447.206-.837.52-1.133.914-.32.433-.55.926-.68 1.45a8.738 8.738 0 000 3.908 4.09 4.09 0 00.669 1.482c.3.388.689.7 1.133.906.507.223 1.057.33 1.61.316zm8.117 1.688V12.24h1.185a.651.651 0 01.465.137.864.864 0 01.173.468l.139 1.946a5.638 5.638 0 011.493-2.036 3.163 3.163 0 012.084-.72 3.18 3.18 0 01.883.115c.256.075.503.185.733.328l-.268 1.637a.345.345 0 01-.36.31 1.69 1.69 0 01-.5-.12 3.064 3.064 0 00-.94-.115 2.565 2.565 0 00-1.808.666 5.039 5.039 0 00-1.212 1.932v7.93h-2.067zM173.865 6.83v10.525h.556c.136.004.271-.018.399-.064.133-.068.253-.16.352-.273l3.878-4.165c.105-.118.224-.224.353-.315a.849.849 0 01.483-.124h1.953l-4.527 4.82a3.28 3.28 0 01-.331.355 1.958 1.958 0 01-.37.28c.143.095.275.207.391.334.123.132.234.276.331.429l4.78 6.084h-1.931a.894.894 0 01-.451-.107 1.176 1.176 0 01-.353-.319l-4.019-5.04a.937.937 0 00-.352-.334 1.43 1.43 0 00-.543-.078h-.6v5.878h-2.157V6.83h2.158zm17.01 7.747a.477.477 0 01-.449.266.853.853 0 01-.416-.131c-.152-.087-.34-.187-.566-.298a5.53 5.53 0 00-.796-.304 3.867 3.867 0 00-1.096-.139 3.26 3.26 0 00-.985.139 2.373 2.373 0 00-.751.382c-.197.151-.359.344-.473.564-.113.219-.17.462-.167.708-.01.288.088.57.274.79.202.224.443.409.711.546.329.164.672.3 1.025.404.38.117.771.244 1.173.376.402.13.794.283 1.174.442.368.156.712.36 1.025.606.296.246.538.55.711.893.194.394.288.83.274 1.269a4.008 4.008 0 01-.302 1.57c-.202.478-.51.905-.904 1.247a4.273 4.273 0 01-1.458.832 6.034 6.034 0 01-2 .301 6.25 6.25 0 01-2.336-.418 5.967 5.967 0 01-1.779-1.063l.509-.822a.77.77 0 01.23-.244.667.667 0 01.357-.085.82.82 0 01.462.17c.16.113.356.237.59.375.267.154.548.28.84.376.4.124.816.181 1.234.17.377.008.752-.047 1.11-.163.29-.094.559-.244.79-.443.203-.175.364-.395.47-.641a2.04 2.04 0 00.152-.776 1.293 1.293 0 00-.273-.843 2.325 2.325 0 00-.712-.57 5.744 5.744 0 00-1.028-.412c-.384-.117-.779-.24-1.18-.354a12.417 12.417 0 01-1.182-.443 4.035 4.035 0 01-1.017-.663 2.797 2.797 0 01-.712-.928 3.009 3.009 0 01-.274-1.34 3.252 3.252 0 01.292-1.353 3.31 3.31 0 01.854-1.137 4.18 4.18 0 011.376-.783 5.48 5.48 0 011.86-.29 5.894 5.894 0 012.185.382c.623.24 1.193.602 1.675 1.063l-.498.772z"/><path fill="#FFD877" d="M33.792 25.93V19.094l.03-.032-.03-.028-3.364-15.645L14.442 0 0 14.052V20.978l3.365 15.644L19.343 40l14.453-14.052-.029-.028.025.01zM11.53 21.356l4.477-4.352 6.291 1.333.101.473-4.467 4.352-6.29-1.333-.112-.473z"/><path fill="#3B3F44" d="M16.013 10.211l-5.694 5.606 1.326 6.256 6.293 1.348 5.693-5.605-1.325-6.256-6.293-1.349zM14.447 0l15.98 3.416 3.365 15.82.03.029-14.462 14.23L3.376 30.08.011 14.26l.018-.018L0 14.213 14.447 0z"/></g></svg>