<svg xmlns="http://www.w3.org/2000/svg" width="115" height="24" viewBox="0 0 115 24"><g fill="none"><path fill="#FFF" d="M28.49 16.09c.597 0 1.131-.091 1.601-.272.47-.18.866-.43 1.186-.745a3.2 3.2 0 00.734-1.11c.169-.424.253-.88.253-1.367 0-.439-.067-.813-.202-1.124a2.498 2.498 0 00-.532-.792 2.882 2.882 0 00-.752-.535 7.729 7.729 0 00-.864-.366 18.874 18.874 0 00-.864-.282 5.698 5.698 0 01-.752-.278 1.746 1.746 0 01-.532-.362.73.73 0 01-.202-.528c0-.332.112-.596.336-.791.224-.196.565-.293 1.023-.293.265 0 .502.035.709.105a3.6 3.6 0 01.553.235c.162.086.306.165.434.235.128.07.247.104.358.104a.51.51 0 00.307-.086.918.918 0 00.228-.26l.608-1.136a3.551 3.551 0 00-.64-.467 4.786 4.786 0 00-.77-.354 4.961 4.961 0 00-.872-.224 5.776 5.776 0 00-.944-.076c-.578 0-1.092.088-1.54.264a3.45 3.45 0 00-1.135.705 2.987 2.987 0 00-.94 2.162c0 .492.067.906.202 1.24a2.538 2.538 0 001.28 1.382c.28.137.566.253.86.347.295.094.581.18.861.257.28.077.53.166.749.267.219.102.396.23.531.384s.203.354.203.6c0 .424-.123.734-.37.93-.245.194-.59.292-1.033.292a2.4 2.4 0 01-.854-.137 4.06 4.06 0 01-.64-.304c-.185-.111-.352-.212-.499-.304a.823.823 0 00-.437-.137.635.635 0 00-.535.29l-.724 1.142c.208.207.451.395.73.564a5.948 5.948 0 001.884.723c.34.067.675.101 1.002.101zm8.33 0a4.28 4.28 0 001.555-.272c.468-.18.87-.439 1.204-.774.335-.335.596-.742.781-1.222a4.45 4.45 0 00.279-1.616 4.37 4.37 0 00-.279-1.602 3.453 3.453 0 00-.78-1.211 3.41 3.41 0 00-1.205-.767 4.331 4.331 0 00-1.555-.268c-.573 0-1.095.09-1.565.268-.47.178-.875.434-1.215.767-.34.332-.603.736-.788 1.21a4.37 4.37 0 00-.279 1.603c0 .598.093 1.136.279 1.616.185.48.448.887.788 1.222.34.335.745.593 1.215.774.47.18.992.271 1.565.271zm0-1.664c-.53 0-.918-.182-1.164-.546-.246-.364-.369-.917-.369-1.66 0-.742.123-1.294.37-1.656.245-.362.633-.542 1.163-.542.516 0 .896.18 1.14.542.243.362.365.914.365 1.656 0 .743-.122 1.296-.366 1.66-.243.364-.623.546-1.139.546zm7.999 1.663c.255 0 .518-.018.788-.054a4.05 4.05 0 00.806-.195 3.541 3.541 0 001.515-1.038l-.65-.803a.463.463 0 00-.405-.195.541.541 0 00-.337.101c-.089.068-.186.141-.293.22-.106.08-.235.153-.386.218-.152.065-.358.097-.619.097-.487 0-.869-.193-1.146-.578-.277-.386-.416-.938-.416-1.656 0-.343.032-.65.094-.922.063-.273.16-.503.29-.691a1.32 1.32 0 01.495-.434c.2-.101.437-.152.712-.152.222 0 .408.027.557.08.15.053.28.112.39.177l.3.177c.09.053.19.08.3.08a.431.431 0 00.268-.073 1.24 1.24 0 00.196-.195l.593-.788a3.713 3.713 0 00-1.2-.825c-.444-.188-.96-.282-1.548-.282-.613 0-1.152.1-1.617.297a3.329 3.329 0 00-1.171.813 3.44 3.44 0 00-.716 1.223c-.162.47-.243.975-.243 1.515 0 .617.093 1.166.279 1.649.185.482.436.888.752 1.218.316.33.682.582 1.1.756.416.173.854.26 1.312.26zm5.279-8.367c.188 0 .365-.035.532-.105.166-.07.312-.164.437-.282.125-.118.224-.255.297-.412.072-.157.108-.324.108-.503 0-.183-.036-.354-.108-.513a1.354 1.354 0 00-.734-.702 1.4 1.4 0 00-1.045 0 1.355 1.355 0 00-.713.702c-.07.159-.105.33-.105.513 0 .179.035.346.105.503.07.157.167.294.29.412.122.118.263.212.423.282.159.07.33.105.513.105zm1.114 8.251V8.474H48.97v7.5h2.242zm5.12.116c.255 0 .524-.018.806-.054.282-.036.564-.101.846-.195a3.89 3.89 0 00.825-.39c.267-.167.517-.383.748-.648l-.65-.803a.463.463 0 00-.406-.195.84.84 0 00-.386.094l-.405.21a3.393 3.393 0 01-.503.21 2.136 2.136 0 01-.673.093c-.487 0-.884-.14-1.193-.423-.308-.282-.499-.736-.571-1.363h4.324a.728.728 0 00.25-.036.303.303 0 00.155-.13.652.652 0 00.08-.253c.014-.106.022-.244.022-.413 0-.54-.084-1.023-.25-1.45a3.07 3.07 0 00-.694-1.08 2.963 2.963 0 00-1.063-.673 3.861 3.861 0 00-1.363-.232c-.574 0-1.089.1-1.544.297a3.512 3.512 0 00-1.165.803c-.32.337-.566.73-.737 1.178a3.96 3.96 0 00-.257 1.425c0 .665.1 1.249.3 1.75.2.502.473.921.817 1.259.345.337.748.591 1.208.762.46.172.953.257 1.479.257zm1.258-4.766h-2.799c.078-.458.237-.808.478-1.052.24-.243.576-.365 1.005-.365.241 0 .446.041.615.123.168.082.305.19.408.322.104.132.179.283.224.452.046.168.07.342.07.52zm5.93 4.766c.386 0 .76-.054 1.121-.163.362-.108.687-.27.977-.488l-.68-1.063a.582.582 0 00-.127-.148.26.26 0 00-.163-.047.296.296 0 00-.126.025 2.584 2.584 0 00-.116.058.718.718 0 01-.35.083.428.428 0 01-.366-.17.7.7 0 01-.126-.43v-3.724h1.822V8.489h-1.822V6.297h-1.172c-.27 0-.434.116-.492.347l-.44 1.83-1.194.232v.875c0 .144.041.254.123.329.082.074.18.112.296.112h.637v3.876c0 .333.048.634.144.904.097.27.238.5.424.69.185.191.414.338.687.442.272.103.587.155.943.155zm5.51 2.264c.213 0 .367-.035.464-.105a.802.802 0 00.246-.33l4.006-9.444h-1.808a.651.651 0 00-.365.112.549.549 0 00-.228.279l-1.114 3.218c-.053.154-.108.306-.166.455-.058.15-.11.302-.159.456a7.124 7.124 0 00-.282-.897l-1.23-3.232a.621.621 0 00-.202-.275c-.096-.077-.231-.116-.405-.116h-1.981l2.994 6.841-1.447 3.038h1.678z"/><path fill="#FFF" d="M78.396 15.973l2.64-7.904c.024-.072.047-.153.068-.242l.07-.279c.043.198.09.372.144.521l2.625 7.904H85.2L88.434 5.61h-1.092a.477.477 0 00-.307.102.452.452 0 00-.163.23l-2.148 7.204c-.039.125-.07.26-.094.405-.024.144-.05.296-.08.455a7.064 7.064 0 00-.231-.86l-2.423-7.203a.514.514 0 00-.17-.239.482.482 0 00-.307-.094h-.405a.466.466 0 00-.307.105.53.53 0 00-.17.228L78.1 13.146a3.784 3.784 0 00-.116.416c-.034.152-.068.31-.101.473-.03-.164-.06-.32-.09-.47a5.326 5.326 0 00-.106-.42l-2.14-7.202a.46.46 0 00-.167-.239.497.497 0 00-.31-.094h-1.165l3.233 10.363h1.258zm13.536.102c.535 0 1.018-.088 1.45-.264a3.02 3.02 0 001.099-.756c.301-.328.533-.723.694-1.186.162-.463.242-.984.242-1.562a4.73 4.73 0 00-.242-1.559 3.362 3.362 0 00-.694-1.19 3.057 3.057 0 00-1.1-.758 3.763 3.763 0 00-1.45-.268c-.534 0-1.018.09-1.45.268-.43.178-.798.431-1.102.759a3.376 3.376 0 00-.702 1.19 4.667 4.667 0 00-.246 1.558c0 .578.082 1.1.246 1.562.164.463.398.858.702 1.186.304.328.671.58 1.103.756.431.176.915.264 1.45.264zm0-1.005c-.367 0-.685-.063-.955-.189a1.8 1.8 0 01-.676-.538 2.373 2.373 0 01-.405-.864 4.628 4.628 0 01-.134-1.165c0-.434.045-.823.134-1.168a2.41 2.41 0 01.405-.871c.18-.236.406-.417.676-.543.27-.125.588-.188.955-.188.723 0 1.263.244 1.62.73.356.488.535 1.168.535 2.04 0 .868-.179 1.544-.535 2.029-.357.484-.897.727-1.62.727zm6.364.903V11.31c.202-.497.454-.875.755-1.135.302-.26.677-.391 1.125-.391.25 0 .446.023.586.069.14.046.243.068.31.068.116 0 .191-.06.225-.18l.166-.962a1.916 1.916 0 00-1.005-.26c-.497 0-.93.143-1.298.43-.369.287-.679.686-.93 1.197l-.086-1.143c-.02-.13-.056-.222-.109-.275-.053-.053-.15-.08-.289-.08h-.738v7.326h1.288zm5.88 0v-3.5h.36a.86.86 0 01.326.047.562.562 0 01.217.2l2.408 3c.068.087.139.151.214.192a.557.557 0 00.27.061h1.158l-2.864-3.615a1.852 1.852 0 00-.199-.257 1.333 1.333 0 00-.235-.199c.082-.048.156-.104.22-.166.066-.063.132-.135.2-.217l2.697-2.871h-1.171a.514.514 0 00-.29.072c-.072.048-.144.11-.217.188l-2.314 2.48a.668.668 0 01-.21.163.617.617 0 01-.238.04h-.333v-6.27h-1.294v10.652h1.294zm8.077.116c.448 0 .844-.06 1.186-.18a2.58 2.58 0 00.868-.496c.236-.21.415-.458.535-.745.12-.287.18-.599.18-.936 0-.294-.053-.546-.162-.756a1.654 1.654 0 00-.43-.532 2.532 2.532 0 00-.608-.361 9.26 9.26 0 00-.697-.264c-.24-.08-.472-.154-.698-.224-.227-.07-.43-.151-.608-.243a1.414 1.414 0 01-.43-.325.693.693 0 01-.163-.47c0-.15.033-.288.098-.416s.159-.24.282-.336c.123-.097.271-.173.445-.228a1.92 1.92 0 01.585-.083c.251 0 .468.027.651.083.183.055.341.116.474.18.133.066.245.125.336.178.092.053.174.08.246.08.12 0 .21-.054.268-.16l.289-.47a3.072 3.072 0 00-.994-.625 3.5 3.5 0 00-1.299-.228 3.27 3.27 0 00-1.106.174 2.493 2.493 0 00-.817.466 1.977 1.977 0 00-.68 1.486c0 .313.054.58.163.8.108.219.252.403.43.552.178.15.382.274.611.373.23.099.463.187.702.264.238.077.472.15.701.22.23.07.433.152.611.246.179.094.322.208.43.34.109.133.163.3.163.503 0 .164-.03.318-.09.463-.06.144-.153.272-.279.383-.125.11-.282.199-.47.264a2.012 2.012 0 01-.658.098c-.294 0-.539-.034-.734-.102a2.699 2.699 0 01-.499-.224 5.812 5.812 0 01-.35-.224.485.485 0 00-.275-.101.386.386 0 00-.21.05.441.441 0 00-.138.145l-.303.492c.289.26.641.473 1.056.64a3.7 3.7 0 001.388.25z" opacity=".6"/><path fill="#FED876" d="M8.505 4.316l9.402 2.008 1.049 4.925.931.137.008 4.265L11.39 24l-9.402-2.008-1.98-9.299.01-.01L0 12.665l.008-4.208 3.72.548 4.777-4.69zm.916 4.48L6.072 12.09l.005.004-.005.005.78 3.668 3.702.791 3.348-3.292-.005-.006.005-.004-.78-3.667-3.701-.792z"/><path fill="#FFF" d="M8.505 0l9.402 2.008 1.98 9.299-.011.009.019.019-8.505 8.35-9.402-2.009-1.98-9.298.01-.011L0 8.349 8.505 0zm.916 6.001L6.072 9.294l.005.004-.005.006.78 3.667 3.702.792 3.348-3.293-.005-.006.005-.004-.78-3.667-3.701-.792z"/></g></svg>