<svg xmlns="http://www.w3.org/2000/svg" width="146" height="20" viewBox="0 0 146 20"><g fill="none" fill-rule="evenodd"><path fill="#FED876" d="M10 0C4.487 0 0 4.447 0 9.912c0 5.466 4.486 9.913 10 9.913s10-4.447 10-9.913C20 4.447 15.514 0 10 0m0 17.75a7.925 7.925 0 01-3.866-1.002l3.566-3.64c.017-.016.028-.038.044-.055.29.073.588.122.9.122 2.089.005 3.786-1.668 3.792-3.739a3.646 3.646 0 00-.134-.953l-1.992 1.963-2.202-.472-.464-2.187 1.996-1.965a3.654 3.654 0 00-.974-.147C8.578 5.67 6.88 7.34 6.873 9.412c-.002.44.088.856.227 1.248l-3.615 3.688a7.747 7.747 0 01-1.392-4.436C2.093 5.59 5.64 2.074 10 2.074c4.36 0 7.907 3.516 7.907 7.838 0 4.323-3.547 7.838-7.907 7.838"/><path fill="#FFF" opacity=".6" d="M32.982 4.386v1.209h-5.194v3.833h4.439v1.209h-4.439v4.714h-1.472V4.386zM34.91 15.35h1.291V7.617h-1.29v7.735zm1.581-10.162a.903.903 0 01-.076.37c-.05.115-.118.217-.203.306a.941.941 0 01-.294.21.843.843 0 01-.355.076.818.818 0 01-.352-.076 1.009 1.009 0 01-.49-.515 1 1 0 01.49-1.271.845.845 0 01.707 0c.111.05.21.12.294.209.085.089.152.193.203.313a.96.96 0 01.076.378zm4.004 6.163l-2.582-3.807h1.295c.11 0 .192.018.242.054a.51.51 0 01.136.154l1.878 2.929c.046-.144.111-.288.197-.432l1.65-2.466c.051-.072.101-.13.152-.173a.28.28 0 01.19-.066h1.241l-2.582 3.73L45 15.351h-1.295a.367.367 0 01-.26-.089.81.81 0 01-.156-.196l-1.93-3.06c-.036.15-.09.283-.16.4l-1.787 2.66c-.05.072-.105.137-.163.196a.319.319 0 01-.238.089h-1.204l2.688-4zm11.708.423c.053.135.105.271.156.409.05-.143.103-.28.16-.41.055-.13.118-.26.189-.393l3.68-6.741c.066-.118.135-.19.206-.215a.939.939 0 01.303-.038h1.085v10.965h-1.29V7.294a8.39 8.39 0 01.03-.72l-3.726 6.856c-.126.23-.303.345-.531.345h-.213c-.227 0-.404-.115-.53-.345l-3.81-6.879a7.109 7.109 0 01.045.743v8.057h-1.29V4.386h1.085a.94.94 0 01.304.038c.07.026.139.097.204.215l3.757 6.748c.071.123.133.252.186.387m10.477 5.873a.71.71 0 01-.173.244c-.07.06-.175.091-.319.091h-1.013l1.42-3.068-3.209-7.282h1.182c.118 0 .21.029.277.087a.55.55 0 01.146.195l2.08 4.87c.046.112.086.224.12.336.032.112.062.226.088.343.035-.117.071-.231.107-.343a5.63 5.63 0 01.123-.344l2.02-4.862a.434.434 0 01.157-.202.406.406 0 01.241-.08h1.09L62.68 17.647z"/><path fill="#FFF" d="M74.13 6.346a.568.568 0 01-.192.238.478.478 0 01-.26.069c-.1 0-.214-.04-.34-.119a11.51 11.51 0 00-.444-.264 3.627 3.627 0 00-.6-.264c-.229-.08-.499-.119-.81-.119-.282 0-.527.035-.736.104a1.545 1.545 0 00-.528.287c-.143.122-.25.269-.32.44-.07.171-.106.359-.106.563 0 .26.072.477.215.65.143.174.333.322.57.444.236.123.505.233.806.33.302.097.61.2.924.31.314.11.623.237.924.383.302.145.57.329.807.55a2.5 2.5 0 01.57.816c.143.322.215.712.215 1.172 0 .5-.085.968-.253 1.405a3.246 3.246 0 01-.74 1.14c-.324.324-.72.58-1.187.766-.468.186-1.003.28-1.607.28-.346 0-.688-.035-1.025-.104a5.345 5.345 0 01-.97-.295 5.022 5.022 0 01-.867-.46 4.284 4.284 0 01-.72-.596l.588-.988a.756.756 0 01.2-.18.483.483 0 01.26-.073c.126 0 .262.053.408.157.146.105.318.221.516.349.199.127.433.243.702.348.269.105.592.157.969.157.578 0 1.026-.139 1.342-.417.317-.278.475-.678.475-1.198 0-.291-.071-.529-.214-.713a1.744 1.744 0 00-.57-.463 4.223 4.223 0 00-.807-.317 26.21 26.21 0 01-.92-.284 7.865 7.865 0 01-.92-.367 2.978 2.978 0 01-.807-.56 2.546 2.546 0 01-.57-.86c-.143-.345-.214-.77-.214-1.275a3.058 3.058 0 01.931-2.198 3.42 3.42 0 011.12-.712c.442-.178.948-.267 1.516-.267a5.02 5.02 0 011.78.306c.543.204 1.005.49 1.388.857l-.498.972zm4.688 9.18c-.679 0-1.202-.192-1.57-.576-.367-.384-.55-.915-.55-1.592V8.985H75.9a.382.382 0 01-.264-.1c-.074-.066-.11-.165-.11-.297V7.84l1.262-.207.398-2.137a.378.378 0 01.142-.237.45.45 0 01.28-.084h.98v2.466h2.066v1.344h-2.067v4.244c0 .244.062.435.184.572a.624.624 0 00.49.206.89.89 0 00.295-.042c.079-.028.148-.057.206-.087.059-.031.111-.06.157-.088a.264.264 0 01.138-.042c.056 0 .102.014.138.042.036.028.074.07.115.126l.566.916a2.865 2.865 0 01-.949.519 3.547 3.547 0 01-1.11.175m3.375-.175V7.514h1.109c.193 0 .328.035.405.107.076.07.127.193.153.366l.114.947c.28-.483.61-.865.987-1.145s.8-.42 1.269-.42c.387 0 .708.089.963.267l-.245 1.413c-.015.092-.048.157-.099.195a.337.337 0 01-.206.057 1.29 1.29 0 01-.314-.053 2.107 2.107 0 00-.527-.054c-.393 0-.73.108-1.01.325-.28.216-.517.533-.71.95v4.882h-1.889zm9.437-6.617c-.553 0-.985.158-1.297.471-.313.314-.512.76-.599 1.336h3.562c0-.248-.034-.48-.1-.699a1.617 1.617 0 00-.307-.575 1.457 1.457 0 00-.522-.39 1.77 1.77 0 00-.737-.143m-.038-1.366c.496 0 .953.08 1.37.24.417.16.776.392 1.078.698.302.306.538.682.707 1.127.169.445.253.953.253 1.524 0 .144-.006.264-.02.36a.578.578 0 01-.068.223.28.28 0 01-.135.116.57.57 0 01-.215.034h-4.866c.056.813.273 1.41.652 1.791.379.38.88.571 1.505.571.307 0 .571-.036.794-.108.223-.072.417-.152.583-.24.167-.087.313-.166.438-.238a.73.73 0 01.365-.108c.077 0 .143.015.2.046.056.03.104.074.145.131l.553.695c-.21.247-.445.454-.706.621a3.945 3.945 0 01-.818.401c-.284.1-.573.171-.867.213-.295.04-.58.061-.856.061a4.186 4.186 0 01-1.528-.274 3.412 3.412 0 01-1.228-.81 3.802 3.802 0 01-.822-1.328c-.2-.527-.299-1.138-.299-1.833 0-.54.087-1.048.261-1.524.174-.476.423-.89.748-1.242a3.522 3.522 0 011.19-.838 3.901 3.901 0 011.586-.309m8.196 1.366c-.553 0-.985.158-1.298.471-.312.314-.511.76-.598 1.336h3.562c0-.248-.034-.48-.1-.699a1.617 1.617 0 00-.307-.575 1.457 1.457 0 00-.522-.39 1.77 1.77 0 00-.737-.143m-.039-1.366c.497 0 .954.08 1.37.24.418.16.777.392 1.08.698.301.306.537.682.706 1.127.168.445.253.953.253 1.524 0 .144-.007.264-.02.36a.578.578 0 01-.068.223.28.28 0 01-.135.116.57.57 0 01-.215.034h-4.867c.057.813.274 1.41.653 1.791.379.38.88.571 1.505.571.307 0 .571-.036.794-.108.223-.072.417-.152.583-.24.167-.087.313-.166.438-.238a.73.73 0 01.365-.108c.076 0 .143.015.2.046.055.03.104.074.145.131l.553.695c-.21.247-.446.454-.706.621a3.945 3.945 0 01-.818.401c-.284.1-.573.171-.867.213-.295.04-.58.061-.856.061a4.186 4.186 0 01-1.528-.274 3.412 3.412 0 01-1.228-.81 3.801 3.801 0 01-.822-1.328c-.2-.527-.3-1.138-.3-1.833 0-.54.088-1.048.262-1.524.174-.476.423-.89.748-1.242a3.522 3.522 0 011.19-.838 3.901 3.901 0 011.585-.309m7.402 8.158c-.679 0-1.201-.192-1.569-.576-.367-.384-.551-.915-.551-1.592V8.985h-.796a.383.383 0 01-.264-.1c-.074-.066-.111-.165-.111-.297V7.84l1.263-.207.398-2.137a.377.377 0 01.141-.237.45.45 0 01.28-.084h.98v2.466h2.067v1.344h-2.067v4.244c0 .244.06.435.183.572a.624.624 0 00.49.206.892.892 0 00.295-.042c.08-.028.148-.057.207-.087.058-.031.11-.06.157-.088a.263.263 0 01.137-.042c.057 0 .102.014.138.042.036.028.074.07.115.126l.567.916a2.864 2.864 0 01-.95.519 3.546 3.546 0 01-1.11.175m17.252-5.715h1.529c.373 0 .698-.047.975-.142.278-.095.507-.231.689-.408.181-.178.318-.393.408-.647a2.52 2.52 0 00.137-.852c0-.298-.046-.567-.137-.809a1.6 1.6 0 00-.408-.616c-.182-.17-.411-.3-.689-.39a3.18 3.18 0 00-.975-.134h-1.529V9.81zm0 1.618v3.922h-2.035V4.21h3.564c.73 0 1.364.087 1.898.262.535.174.976.418 1.324.731.348.314.605.689.772 1.125.166.437.25.914.25 1.433 0 .54-.089 1.034-.265 1.483a3.08 3.08 0 01-.795 1.16c-.353.323-.794.575-1.324.755-.53.18-1.15.27-1.86.27h-1.529zm7.264 3.922V7.514h1.108c.194 0 .329.035.405.107.077.07.128.193.153.366l.115.947c.28-.483.609-.865.986-1.145s.8-.42 1.27-.42c.387 0 .708.089.963.267l-.245 1.413c-.015.092-.048.157-.1.195a.336.336 0 01-.206.057c-.076 0-.18-.018-.313-.053a2.108 2.108 0 00-.528-.054c-.392 0-.729.108-1.009.325-.28.216-.517.533-.71.95v4.882h-1.89zm9.617-1.291c.656 0 1.142-.221 1.457-.664.315-.442.473-1.09.473-1.945 0-.854-.158-1.505-.473-1.952-.315-.448-.801-.672-1.457-.672-.667 0-1.16.225-1.477.675-.318.45-.477 1.1-.477 1.95 0 .848.159 1.495.477 1.94.318.445.81.668 1.477.668m0-6.692c.59 0 1.124.096 1.603.286.48.19.889.46 1.227.81.339.35.6.777.785 1.281.184.505.276 1.068.276 1.69 0 .629-.092 1.195-.276 1.699a3.669 3.669 0 01-.785 1.289 3.406 3.406 0 01-1.227.818c-.48.19-1.014.285-1.603.285-.59 0-1.126-.095-1.608-.285a3.436 3.436 0 01-1.235-.818 3.678 3.678 0 01-.792-1.29 4.847 4.847 0 01-.28-1.697c0-.623.093-1.186.28-1.69.187-.505.451-.932.792-1.282s.753-.62 1.235-.81a4.345 4.345 0 011.608-.286"/><path fill="#FED876" d="M115 20h2.018V0H115z"/></g></svg>