<svg width="121" height="22" viewBox="0 0 121 22" fill="none" xmlns="http://www.w3.org/2000/svg">
<path d="M25.4325 6.07927V9.52049H29.1693V10.6057H25.4325V14.8369H24.2017V4.99402H29.8037V6.07927H25.4325Z" fill="#B2B3B4"/>
<path d="M32.2778 7.87887V14.8369H31.1485V7.87887H32.2778ZM32.5188 5.69462C32.5188 5.81368 32.4956 5.92587 32.4491 6.03119C32.4068 6.13193 32.3475 6.22351 32.2714 6.30594C32.1995 6.38378 32.1128 6.4456 32.0113 6.49139C31.914 6.53718 31.8104 6.56008 31.7004 6.56008C31.5904 6.56008 31.4868 6.53718 31.3895 6.49139C31.2965 6.4456 31.214 6.38378 31.1421 6.30594C31.0702 6.22351 31.0131 6.13193 30.9708 6.03119C30.9285 5.92587 30.9074 5.81368 30.9074 5.69462C30.9074 5.57557 30.9285 5.46338 30.9708 5.35806C31.0131 5.24816 31.0702 5.15429 31.1421 5.07644C31.214 4.99402 31.2965 4.92991 31.3895 4.88412C31.4868 4.83833 31.5904 4.81543 31.7004 4.81543C31.8104 4.81543 31.914 4.83833 32.0113 4.88412C32.1128 4.92991 32.1995 4.99402 32.2714 5.07644C32.3475 5.15429 32.4068 5.24816 32.4491 5.35806C32.4956 5.46338 32.5188 5.57557 32.5188 5.69462Z" fill="#B2B3B4"/>
<path d="M39.4118 14.8369H38.3269C38.2339 14.8369 38.1598 14.8117 38.1049 14.7613C38.0541 14.7063 38.0118 14.6468 37.978 14.5827L36.3602 11.8558C36.3432 11.9199 36.3242 11.9841 36.3031 12.0482C36.2861 12.1077 36.2608 12.1626 36.2269 12.213L34.7297 14.5827C34.6874 14.6468 34.6408 14.7063 34.5901 14.7613C34.5436 14.8117 34.478 14.8369 34.3934 14.8369H33.3846L35.6369 11.2651L33.4735 7.87887H34.5584C34.6514 7.87887 34.7191 7.89489 34.7614 7.92695C34.8037 7.959 34.8417 8.00479 34.8756 8.06432L36.4553 10.6744C36.4892 10.5416 36.542 10.4134 36.6139 10.2898L37.997 8.0918C38.0351 8.02769 38.0753 7.97732 38.1176 7.94069C38.1641 7.89947 38.2191 7.87887 38.2825 7.87887H39.323L37.1596 11.2033L39.4118 14.8369Z" fill="#B2B3B4"/>
<path d="M50.1292 4.99402V14.8369H49.0507V7.60412C49.0507 7.50796 49.0528 7.40493 49.057 7.29503C49.0655 7.18513 49.074 7.07294 49.0824 6.95846L45.961 13.1128C45.8637 13.3189 45.7157 13.4219 45.5169 13.4219H45.3392C45.1404 13.4219 44.9924 13.3189 44.8951 13.1128L41.7103 6.93099C41.7356 7.17368 41.7483 7.39806 41.7483 7.60412V14.8369H40.6698V4.99402H41.577C41.687 4.99402 41.7716 5.00546 41.8308 5.02836C41.89 5.05125 41.9471 5.11536 42.0021 5.22068L45.1426 11.2789C45.1933 11.3888 45.242 11.5032 45.2885 11.6223C45.3392 11.7414 45.3858 11.8627 45.4281 11.9863C45.4704 11.8627 45.5148 11.7414 45.5613 11.6223C45.6078 11.4987 45.6586 11.3819 45.7136 11.272L48.7969 5.22068C48.8477 5.11536 48.9027 5.05125 48.9619 5.02836C49.0253 5.00546 49.112 4.99402 49.222 4.99402H50.1292Z" fill="#B2B3B4"/>
<path d="M57.5838 7.87887L53.9992 16.8906C53.9611 16.9822 53.9125 17.0554 53.8533 17.1104C53.7983 17.1653 53.7116 17.1928 53.5932 17.1928H52.7557L53.9294 14.4316L51.2775 7.87887H52.2545C52.3518 7.87887 52.4279 7.90634 52.4829 7.96129C52.5421 8.01166 52.5823 8.0689 52.6035 8.13301L54.3228 12.5152C54.3905 12.7076 54.4476 12.909 54.4941 13.1197C54.5533 12.9045 54.6167 12.7007 54.6844 12.5084L56.353 8.13301C56.3784 8.05974 56.4207 8.00021 56.4799 7.95442C56.5433 7.90405 56.6131 7.87887 56.6892 7.87887H57.5838Z" fill="#B2B3B4"/>
<path d="M105.597 9.77561C106.193 9.77561 106.629 9.61992 106.904 9.30854C107.183 8.99716 107.322 8.5713 107.322 8.03096C107.322 7.78369 107.286 7.55931 107.215 7.35783C107.147 7.15177 107.041 6.97776 106.897 6.83581C106.758 6.68927 106.58 6.57708 106.364 6.49924C106.149 6.42139 105.893 6.38247 105.597 6.38247H104.391V9.77561H105.597ZM105.597 4.81641C106.227 4.81641 106.77 4.89654 107.227 5.05681C107.688 5.21708 108.067 5.44146 108.363 5.72994C108.659 6.01385 108.877 6.35271 109.016 6.74651C109.16 7.14032 109.232 7.56847 109.232 8.03096C109.232 8.52093 109.158 8.96968 109.01 9.37723C108.862 9.78477 108.638 10.1351 108.338 10.4281C108.037 10.7212 107.659 10.9502 107.202 11.115C106.745 11.2753 106.21 11.3554 105.597 11.3554H104.391V14.7829H102.488V4.81641H105.597Z" fill="#F7F6F5"/>
<path d="M111.759 8.86894C111.966 8.46598 112.205 8.14773 112.476 7.91419C112.746 7.68066 113.063 7.56389 113.427 7.56389C113.723 7.56389 113.964 7.63944 114.15 7.79056L114.036 9.19177C114.015 9.28335 113.981 9.34746 113.935 9.38409C113.892 9.41615 113.833 9.43218 113.757 9.43218C113.689 9.43218 113.592 9.42302 113.465 9.4047C113.338 9.3818 113.22 9.37036 113.11 9.37036C112.949 9.37036 112.805 9.39554 112.679 9.44591C112.556 9.49628 112.446 9.56726 112.349 9.65884C112.251 9.75042 112.163 9.86261 112.082 9.99541C112.006 10.1282 111.934 10.2793 111.867 10.4487V14.7829H110.115V7.70126H111.15C111.327 7.70126 111.45 7.73561 111.518 7.80429C111.585 7.87298 111.634 7.99204 111.663 8.16147L111.759 8.86894Z" fill="#F7F6F5"/>
<path d="M117.7 7.59136C118.191 7.59136 118.637 7.67608 119.039 7.8455C119.44 8.01493 119.785 8.25763 120.073 8.57359C120.36 8.88497 120.582 9.26504 120.739 9.71379C120.895 10.1625 120.974 10.6685 120.974 11.2318C120.974 11.795 120.895 12.3033 120.739 12.7566C120.582 13.2054 120.36 13.5877 120.073 13.9037C119.785 14.2197 119.44 14.4624 119.039 14.6318C118.637 14.8012 118.191 14.8859 117.7 14.8859C117.205 14.8859 116.755 14.8012 116.349 14.6318C115.947 14.4624 115.602 14.2197 115.314 13.9037C115.027 13.5877 114.803 13.2054 114.642 12.7566C114.485 12.3033 114.407 11.795 114.407 11.2318C114.407 10.6685 114.485 10.1625 114.642 9.71379C114.803 9.26504 115.027 8.88497 115.314 8.57359C115.602 8.25763 115.947 8.01493 116.349 7.8455C116.755 7.67608 117.205 7.59136 117.7 7.59136ZM117.7 13.4641C118.199 13.4641 118.569 13.2786 118.81 12.9077C119.051 12.5322 119.172 11.9759 119.172 11.2386C119.172 10.506 119.051 9.9542 118.81 9.58329C118.569 9.2078 118.199 9.02005 117.7 9.02005C117.188 9.02005 116.812 9.2078 116.571 9.58329C116.33 9.9542 116.209 10.506 116.209 11.2386C116.209 11.9759 116.33 12.5322 116.571 12.9077C116.812 13.2786 117.188 13.4641 117.7 13.4641Z" fill="#F7F6F5"/>
<rect x="96.8064" y="2.55762" width="1.57408" height="15.7409" fill="#ED6C40"/>
<path d="M63.8119 6.66842C63.7485 6.77831 63.6808 6.86074 63.6089 6.91569C63.5412 6.97064 63.4524 6.99811 63.3424 6.99811C63.2452 6.99811 63.1394 6.96606 63.0252 6.90195C62.9152 6.83326 62.7884 6.75771 62.6446 6.67528C62.505 6.59286 62.3443 6.51959 62.1624 6.45549C61.9805 6.3868 61.7733 6.35246 61.5406 6.35246C61.1388 6.35246 60.8385 6.44633 60.6397 6.63407C60.4452 6.81724 60.3479 7.0668 60.3479 7.38276C60.3479 7.58424 60.4071 7.75138 60.5255 7.88417C60.644 8.01697 60.7983 8.13144 60.9887 8.2276C61.1832 8.32377 61.4032 8.41306 61.6485 8.49548C61.898 8.57333 62.1518 8.66262 62.4098 8.76336C62.6678 8.85952 62.9195 8.974 63.1648 9.10679C63.4143 9.23959 63.6343 9.40902 63.8246 9.61508C64.0192 9.82114 64.1757 10.073 64.2941 10.3706C64.4125 10.6637 64.4717 11.0186 64.4717 11.4353C64.4717 11.8978 64.3977 12.3305 64.2497 12.7335C64.1016 13.1364 63.8859 13.489 63.6026 13.7912C63.3234 14.0889 62.9766 14.3247 62.5621 14.4987C62.1518 14.6681 61.6844 14.7528 61.16 14.7528C60.8724 14.7528 60.5784 14.7208 60.2781 14.6567C59.982 14.5926 59.6944 14.5033 59.4153 14.3888C59.1361 14.2697 58.8739 14.1301 58.6286 13.9698C58.3833 13.8095 58.1697 13.631 57.9878 13.4341L58.6222 12.3488C58.673 12.271 58.7385 12.2069 58.8189 12.1565C58.9035 12.1015 58.9944 12.0741 59.0917 12.0741C59.2186 12.0741 59.3455 12.1176 59.4724 12.2046C59.6035 12.2916 59.7494 12.3877 59.9101 12.493C60.0751 12.5984 60.2633 12.6945 60.4748 12.7815C60.6863 12.8685 60.9358 12.912 61.2234 12.912C61.6125 12.912 61.915 12.8205 62.1307 12.6373C62.3464 12.4495 62.4542 12.1542 62.4542 11.7512C62.4542 11.5177 62.395 11.3277 62.2766 11.1811C62.1582 11.0346 62.0017 10.9133 61.8071 10.8171C61.6168 10.7209 61.3989 10.6362 61.1536 10.563C60.9083 10.4897 60.6567 10.4096 60.3987 10.3225C60.1406 10.231 59.889 10.1211 59.6437 9.99285C59.3984 9.86006 59.1784 9.68834 58.9839 9.4777C58.7935 9.26248 58.6391 8.9969 58.5207 8.68094C58.4023 8.3604 58.3431 7.96659 58.3431 7.49952C58.3431 7.12404 58.4129 6.75771 58.5524 6.40054C58.692 6.04337 58.8972 5.72512 59.1678 5.44579C59.4385 5.16647 59.7706 4.94438 60.1639 4.77953C60.5573 4.6101 61.0077 4.52539 61.5153 4.52539C61.7986 4.52539 62.0736 4.55058 62.34 4.60095C62.6107 4.64674 62.8666 4.71771 63.1077 4.81387C63.3488 4.90546 63.5729 5.01765 63.7802 5.15044C63.9917 5.27865 64.1799 5.42519 64.3448 5.59003L63.8119 6.66842Z" fill="#F7F6F5"/>
<path d="M67.571 14.7528C67.258 14.7528 66.9809 14.7048 66.7398 14.6086C66.503 14.5079 66.3021 14.3682 66.1371 14.1896C65.9764 14.0064 65.8537 13.7866 65.7692 13.5302C65.6846 13.2738 65.6423 12.9876 65.6423 12.6716V8.99003H65.084C64.9825 8.99003 64.8957 8.95568 64.8238 8.887C64.7519 8.81373 64.716 8.70841 64.716 8.57104V7.73993L65.7628 7.52013L66.1498 5.78236C66.2006 5.56256 66.3444 5.45266 66.5812 5.45266H67.609V7.53387H69.2395V8.99003H67.609V12.5274C67.609 12.6922 67.645 12.8296 67.7169 12.9395C67.793 13.0448 67.9009 13.0975 68.0404 13.0975C68.1123 13.0975 68.1716 13.0906 68.2181 13.0769C68.2688 13.0586 68.3111 13.0403 68.345 13.0219C68.383 12.999 68.4169 12.9807 68.4465 12.967C68.4803 12.9487 68.5184 12.9395 68.5607 12.9395C68.6199 12.9395 68.6664 12.9555 68.7002 12.9876C68.7383 13.0151 68.7764 13.0609 68.8144 13.125L69.4108 14.1347C69.157 14.3407 68.8715 14.4964 68.5543 14.6017C68.2371 14.7025 67.9093 14.7528 67.571 14.7528Z" fill="#F7F6F5"/>
<path d="M71.9269 8.61912C72.1299 8.23447 72.3625 7.93225 72.6247 7.71245C72.8912 7.49266 73.1957 7.38276 73.5383 7.38276C73.8344 7.38276 74.0755 7.45831 74.2616 7.60942L74.1347 9.17548C74.1135 9.27622 74.0776 9.34491 74.0268 9.38154C73.9803 9.41817 73.9148 9.43649 73.8302 9.43649C73.7963 9.43649 73.7519 9.4342 73.6969 9.42962C73.6419 9.42504 73.5848 9.42046 73.5256 9.41588C73.4664 9.40673 73.4051 9.39986 73.3416 9.39528C73.2824 9.38612 73.2274 9.38154 73.1767 9.38154C72.8891 9.38154 72.6586 9.46397 72.4852 9.62881C72.316 9.79366 72.1722 10.0226 72.0537 10.3157V14.6429H70.087V7.52013H71.2543C71.3516 7.52013 71.432 7.52929 71.4954 7.54761C71.5631 7.56592 71.6181 7.59569 71.6604 7.6369C71.7069 7.67353 71.7408 7.7239 71.7619 7.78801C71.7873 7.85212 71.8084 7.92996 71.8253 8.02154L71.9269 8.61912Z" fill="#F7F6F5"/>
<path d="M78.9126 10.2264C78.9126 10.057 78.8914 9.89211 78.8491 9.73184C78.8111 9.57157 78.7455 9.42962 78.6525 9.30599C78.5636 9.17777 78.4452 9.07474 78.2972 8.9969C78.1492 8.91905 77.9694 8.88013 77.7579 8.88013C77.3857 8.88013 77.0939 8.9969 76.8824 9.23043C76.6709 9.45939 76.5313 9.79137 76.4637 10.2264H78.9126ZM76.4383 11.4627C76.5017 12.058 76.6688 12.4908 76.9395 12.7609C77.2102 13.0265 77.5591 13.1593 77.9863 13.1593C78.2147 13.1593 78.4114 13.1295 78.5763 13.07C78.7413 13.0105 78.8872 12.9441 79.0141 12.8708C79.1452 12.7976 79.2636 12.7312 79.3694 12.6716C79.4794 12.6121 79.5936 12.5823 79.712 12.5823C79.8685 12.5823 79.9869 12.6442 80.0673 12.7678L80.6383 13.5302C80.4352 13.7821 80.2153 13.9881 79.9784 14.1484C79.7458 14.3041 79.5047 14.4277 79.2552 14.5193C79.0099 14.6063 78.7624 14.6658 78.5129 14.6979C78.2676 14.7345 78.0328 14.7528 77.8087 14.7528C77.3476 14.7528 76.9141 14.6727 76.5081 14.5124C76.1063 14.3476 75.7531 14.1049 75.4486 13.7844C75.1483 13.4638 74.9093 13.0654 74.7317 12.5892C74.5582 12.113 74.4715 11.5589 74.4715 10.927C74.4715 10.4508 74.5456 9.99972 74.6936 9.57386C74.8459 9.14801 75.0616 8.77481 75.3407 8.45427C75.6241 8.13373 75.9646 7.87959 76.3622 7.69185C76.764 7.5041 77.2165 7.41023 77.7198 7.41023C78.1555 7.41023 78.5531 7.4835 78.9126 7.63003C79.2763 7.77656 79.5872 7.98949 79.8452 8.26882C80.1074 8.54814 80.3105 8.89158 80.4543 9.29912C80.6023 9.70208 80.6763 10.16 80.6763 10.6729C80.6763 10.8331 80.67 10.9636 80.6573 11.0644C80.6446 11.1651 80.6213 11.2452 80.5875 11.3048C80.5537 11.3643 80.5071 11.4055 80.4479 11.4284C80.3929 11.4513 80.321 11.4627 80.2322 11.4627H76.4383Z" fill="#F7F6F5"/>
<path d="M85.7526 10.2264C85.7526 10.057 85.7315 9.89211 85.6892 9.73184C85.6511 9.57157 85.5855 9.42962 85.4925 9.30599C85.4037 9.17777 85.2852 9.07474 85.1372 8.9969C84.9892 8.91905 84.8094 8.88013 84.5979 8.88013C84.2257 8.88013 83.9339 8.9969 83.7224 9.23043C83.5109 9.45939 83.3714 9.79137 83.3037 10.2264H85.7526ZM83.2783 11.4627C83.3417 12.058 83.5088 12.4908 83.7795 12.7609C84.0502 13.0265 84.3991 13.1593 84.8263 13.1593C85.0547 13.1593 85.2514 13.1295 85.4164 13.07C85.5813 13.0105 85.7272 12.9441 85.8541 12.8708C85.9852 12.7976 86.1037 12.7312 86.2094 12.6716C86.3194 12.6121 86.4336 12.5823 86.552 12.5823C86.7085 12.5823 86.8269 12.6442 86.9073 12.7678L87.4783 13.5302C87.2753 13.7821 87.0553 13.9881 86.8185 14.1484C86.5858 14.3041 86.3447 14.4277 86.0952 14.5193C85.8499 14.6063 85.6025 14.6658 85.3529 14.6979C85.1076 14.7345 84.8729 14.7528 84.6487 14.7528C84.1877 14.7528 83.7541 14.6727 83.3481 14.5124C82.9463 14.3476 82.5931 14.1049 82.2886 13.7844C81.9883 13.4638 81.7493 13.0654 81.5717 12.5892C81.3983 12.113 81.3116 11.5589 81.3116 10.927C81.3116 10.4508 81.3856 9.99972 81.5336 9.57386C81.6859 9.14801 81.9016 8.77481 82.1807 8.45427C82.4641 8.13373 82.8046 7.87959 83.2022 7.69185C83.604 7.5041 84.0565 7.41023 84.5599 7.41023C84.9955 7.41023 85.3931 7.4835 85.7526 7.63003C86.1163 7.77656 86.4272 7.98949 86.6852 8.26882C86.9475 8.54814 87.1505 8.89158 87.2943 9.29912C87.4423 9.70208 87.5163 10.16 87.5163 10.6729C87.5163 10.8331 87.51 10.9636 87.4973 11.0644C87.4846 11.1651 87.4614 11.2452 87.4275 11.3048C87.3937 11.3643 87.3472 11.4055 87.2879 11.4284C87.233 11.4513 87.1611 11.4627 87.0722 11.4627H83.2783Z" fill="#F7F6F5"/>
<path d="M90.7675 14.7528C90.4545 14.7528 90.1775 14.7048 89.9364 14.6086C89.6996 14.5079 89.4987 14.3682 89.3337 14.1896C89.173 14.0064 89.0503 13.7866 88.9657 13.5302C88.8811 13.2738 88.8388 12.9876 88.8388 12.6716V8.99003H88.2805C88.179 8.99003 88.0923 8.95568 88.0204 8.887C87.9485 8.81373 87.9126 8.70841 87.9126 8.57104V7.73993L88.9594 7.52013L89.3464 5.78236C89.3971 5.56256 89.5409 5.45266 89.7778 5.45266H90.8056V7.53387H92.4361V8.99003H90.8056V12.5274C90.8056 12.6922 90.8415 12.8296 90.9134 12.9395C90.9896 13.0448 91.0974 13.0975 91.237 13.0975C91.3089 13.0975 91.3681 13.0906 91.4146 13.0769C91.4654 13.0586 91.5077 13.0403 91.5415 13.0219C91.5796 12.999 91.6134 12.9807 91.643 12.967C91.6769 12.9487 91.7149 12.9395 91.7572 12.9395C91.8165 12.9395 91.863 12.9555 91.8968 12.9876C91.9349 13.0151 91.973 13.0609 92.011 13.125L92.6074 14.1347C92.3536 14.3407 92.0681 14.4964 91.7509 14.6017C91.4337 14.7025 91.1059 14.7528 90.7675 14.7528Z" fill="#F7F6F5"/>
<path d="M18.4038 14.2619V14.2169V10.5013L18.4194 10.4837L18.4038 10.4681L16.5714 1.86364L7.86525 0L0 7.72835V11.5182V11.5378L1.83236 20.1422L10.5346 22L18.4057 14.2716L18.3901 14.256L18.4038 14.2619ZM6.2793 11.7451L8.71788 9.35147L12.144 10.0848L12.1988 10.3449L9.76606 12.7385L6.33992 12.0052L6.2793 11.7451Z" fill="#ED6C40"/>
<path d="M8.71786 5.5538L5.61831 8.60252L6.33991 12.0052L9.76604 12.7385L12.8656 9.68981L12.144 6.28713L8.71786 5.5538ZM7.86524 0L16.5655 1.85778L18.3979 10.4623L18.4135 10.4779L10.5404 18.218L1.83822 16.3602L0.00586643 7.75576L0.0156444 7.74598L0 7.73034L7.86524 0Z" fill="#F7F6F5"/>
</svg>
