<?xml version="1.0" encoding="utf-8"?>
<!-- Generator: Adobe Illustrator 17.1.0, SVG Export Plug-In . SVG Version: 6.00 Build 0)  -->
<!DOCTYPE svg PUBLIC "-//W3C//DTD SVG 1.1 Tiny//EN" "http://www.w3.org/Graphics/SVG/1.1/DTD/svg11-tiny.dtd">
<svg version="1.1" baseProfile="tiny" xmlns="http://www.w3.org/2000/svg" xmlns:xlink="http://www.w3.org/1999/xlink" x="0px"
	 y="0px" viewBox="0 0 113.5 113.5" xml:space="preserve">
<g id="Background">
</g>
<g id="Working">
	<g id="Alert">
	</g>
	<g id="mySociety_Logo">
		<g id="Earth">
			<g id="Paintbrush">
				<g id="Refresh_F">
				</g>
			</g>
		</g>
		<g id="Duplicate_files">
		</g>
		<g id="Upload_-_Circle_1_">
		</g>
		<g id="Upload_-_Circle">
		</g>
		<g>
			<g>
				<path fill="#37373A" d="M56.7,113.5C25.5,113.5,0,88,0,56.7S25.5,0,56.7,0s56.7,25.5,56.7,56.7S88,113.5,56.7,113.5z M56.7,6
					C28.8,6,6,28.8,6,56.7s22.8,50.7,50.7,50.7s50.7-22.8,50.7-50.7S84.7,6,56.7,6z"/>
				<path fill="#37373A" d="M56.7,22.1c-19.1,0-34.7,15.6-34.7,34.7c0,19.1,15.6,34.7,34.7,34.7s34.7-15.6,34.7-34.7
					C91.4,37.6,75.9,22.1,56.7,22.1z M84.7,44l-14.6,5.5c-1.4-2.6-3.5-4.7-6.1-6.1l5.5-14.7C76.2,31.8,81.7,37.3,84.7,44z M56.7,68
					c-6.2,0-11.3-5.1-11.3-11.3c0-6.2,5.1-11.3,11.3-11.3C63,45.5,68,50.5,68,56.7C68,63,63,68,56.7,68z M44,28.7l5.5,14.7
					c-2.6,1.4-4.7,3.5-6.1,6.1L28.7,44C31.8,37.3,37.3,31.8,44,28.7z M28.7,69.4L43.4,64c1.4,2.6,3.5,4.7,6.1,6.1L44,84.7
					C37.3,81.7,31.8,76.2,28.7,69.4z M69.4,84.7L64,70.1c2.6-1.4,4.7-3.5,6.1-6.1l14.6,5.5C81.7,76.2,76.2,81.7,69.4,84.7z"/>
			</g>
			<g>
				<path fill="#333333" d="M56.7,113.5C25.5,113.5,0,88,0,56.7S25.5,0,56.7,0s56.7,25.5,56.7,56.7S88,113.5,56.7,113.5z M56.7,6
					C28.8,6,6,28.8,6,56.7s22.8,50.7,50.7,50.7s50.7-22.8,50.7-50.7S84.7,6,56.7,6z"/>
				<path fill="#333333" d="M56.7,22.1c-19.1,0-34.7,15.6-34.7,34.7c0,19.1,15.6,34.7,34.7,34.7s34.7-15.6,34.7-34.7
					C91.4,37.6,75.9,22.1,56.7,22.1z M84.7,44l-14.6,5.5c-1.4-2.6-3.5-4.7-6.1-6.1l5.5-14.7C76.2,31.8,81.7,37.3,84.7,44z M56.7,68
					c-6.2,0-11.3-5.1-11.3-11.3c0-6.2,5.1-11.3,11.3-11.3C63,45.5,68,50.5,68,56.7C68,63,63,68,56.7,68z M44,28.7l5.5,14.7
					c-2.6,1.4-4.7,3.5-6.1,6.1L28.7,44C31.8,37.3,37.3,31.8,44,28.7z M28.7,69.4L43.4,64c1.4,2.6,3.5,4.7,6.1,6.1L44,84.7
					C37.3,81.7,31.8,76.2,28.7,69.4z M69.4,84.7L64,70.1c2.6-1.4,4.7-3.5,6.1-6.1l14.6,5.5C81.7,76.2,76.2,81.7,69.4,84.7z"/>
			</g>
		</g>
		<g id="Mail">
		</g>
	</g>
</g>
</svg>
