<svg baseProfile="tiny" xmlns="http://www.w3.org/2000/svg" viewBox="0 0 23.4 18"><g><g><path fill="#fff" d="M.3 9.5c1-.3 2.4-.6 4.9-.7l-.2-.4c-1 0-3.9.1-4.9.4 0 0-.1 0-.1-.1 0 0 0-.1.1-.1 1-.2 3.9-.4 4.9-.4-.3-.6-.4-1.4-.4-2.3 0-1.5.5-2.1 1.1-2.9-.4-1.8.2-3 .2-3s1-.2 3 1.2c1.1-.5 3.9-.5 5.2-.1.8-.5 2.3-1.3 2.9-1.1.2.3.5 1 .2 2.7.2.4 1.3 1.2 1.3 3.4 0 .8-.1 1.5-.3 2.1 2.5 0 4 .2 5.1.4 0 0 .1 0 .1.1 0 0 0 .1-.1.1-1-.2-2.5-.4-5.1-.4l-.1.4c.9 0 3.3.1 5.2.7l.1.1s0 .1-.1.1c-2-.6-4.5-.7-5.3-.7-.7 1.6-2.2 2.1-4.5 2.4.8.5 1 1.1 1 2.7v2.2c0 .6.9.9.9 1.1 0 .2-.8.2-1.1 0-1-.3-.9-1.1-.9-1.1v-2.2s.1-1.2-.4-1.2v3.6c0 .8.5 1 .5 1.3 0 .5-1 0-1.3-.4-.5-.5-.4-1.5-.4-2.2v-2.4h-.3s.1 3.6-.2 4.3c-.4.8-1.5 1.1-1.5.7 0-.3.3-.2.4-.8.1-.5.1-4.2.1-4.2s-.3.3-.3 1v2.7c0 .7-1 1.1-1.4 1.1-.2 0-.5 0-.5-.1 0-.3.9-.5.9-1.1v-2s-.4.1-1.1.1c-1.6 0-2.1-1-2.3-1.6-.3-.7-.7-1.1-1.1-1.4-.3-.2-.3-.4 0-.4 1.4-.3 1.8 1.6 2.7 1.9.7.2 1.5.1 2-.2.1-.6.5-1.1.8-1.3-2.6-.4-4-1.2-4.7-2.5-2.5 0-3.9.4-5 .6-.1 0-.1 0-.2.1 0 0-.1 0-.1-.1 0 0 0-.1.1-.1h.2z"/></g></g></svg>