<?xml version="1.0" encoding="utf-8"?>
<!-- Generator: Adobe Illustrator 17.1.0, SVG Export Plug-In . SVG Version: 6.00 Build 0)  -->
<!DOCTYPE svg PUBLIC "-//W3C//DTD SVG 1.1 Tiny//EN" "http://www.w3.org/Graphics/SVG/1.1/DTD/svg11-tiny.dtd">
<svg version="1.1" baseProfile="tiny" xmlns="http://www.w3.org/2000/svg" xmlns:xlink="http://www.w3.org/1999/xlink" x="0px"
	 y="0px" viewBox="0 0 22.5 21" xml:space="preserve">
<g id="Background">
</g>
<g id="Working">
	<g id="Alert">
	</g>
	<g id="mySociety_Logo">
		<g id="Earth">
			<g id="Paintbrush">
				<g id="Refresh_F">
				</g>
			</g>
		</g>
		<g id="Duplicate_files">
		</g>
		<g id="Upload_-_Circle_1_">
		</g>
		<g id="Upload_-_Circle">
		</g>
		<g>
			<path fill="#FFFFFF" d="M21.3,11.4c-0.7,0-1.2,0.6-1.2,1.2v5.9H2.5v-5.9c0-0.7-0.6-1.2-1.2-1.2S0,11.9,0,12.6v7.1
				C0,20.4,0.6,21,1.2,21h20c0.7,0,1.2-0.6,1.2-1.2v-7.1C22.5,11.9,22,11.4,21.3,11.4z"/>
			<path fill="#FFFFFF" d="M10.8,15.5c0.1,0.2,0.3,0.3,0.5,0.3c0.2,0,0.4-0.1,0.5-0.3l4.1-5.6c0.1-0.2,0.2-0.4,0-0.6
				c-0.1-0.2-0.3-0.3-0.5-0.3h-2.7V1.4C12.7,0.6,12,0,11.3,0S9.8,0.6,9.8,1.4v7.5H7.2C6.9,8.9,6.7,9,6.6,9.2c-0.1,0.2-0.1,0.4,0,0.6
				L10.8,15.5z"/>
		</g>
		<g id="Mail">
		</g>
	</g>
</g>
</svg>
