<svg baseProfile="tiny" xmlns="http://www.w3.org/2000/svg" viewBox="0 0 113.5 113.5"><g><g><g fill="#37373A"><path d="M57.7 31.8c0 .5 1.9.5 2.2.5-.5-.1.2-.1 0 0 1.8-1.1-3.6-2.1-3.7-2.2l.3-.3c-1 .4-.3-.7-1.2.4.2.8-.8 1.3-.4 2.2.9.8 1.9-.4 2.8-.6zM66.8 30.3c-.5-.1-1-1.2-1.6-1.4l-.1.4c0-.1.2.4 0 0 .2.3 1.1 1.6 1.7 1zM44.2 32c-.1.2-.3.2-.4.3v.1c.1.1.3-.4.4-.4zM56.7 15.7c-22.7 0-41.1 18.4-41.1 41.1 0 22.7 18.4 41.1 41.1 41.1s41.1-18.4 41.1-41.1c0-22.7-18.4-41.1-41.1-41.1zm11.3 62.4c.3 0 .3 0 .5-.3 0 .5.1 1 .3 1.4-.6-2.3 1.7-2.3 2.8-3.7.4-.5 1-1.9 1.5-2.2.3.4.3.8.2 1.3v.1c0 .5-.1.9-.3 1.3-.1-.1-.1-.2-.1-.3-1.8 1.5-1.8 5.7-4.3 6.7-1.3.6-1.2-1.2-.7-1.9.7-.8-.3-1.4.1-2.4-.4-.1-.9-1.2-.9-1.9.5-.1.8-.4.8-.2.1-.2.8-1.3.8-1.4.1 1-1.2 2.8-.7 3.5zm18.4-26.2c-.7-1.3-1.3-2.8-1.8-3.6-.9-1.4-1.4-3.6-2.7-4.7.3.4.3.8.1 1.2-.7-.2-1.2-.6-1.6-1.2-.1-.3.7.4.3-.4-1.1.1-1.8-.9-2.7-1.6-1.5-.2-3.2 1.1-4.7.2-.4-.2-.7-1.5-1.3-.7-.3.4-.6.4-1 .2-1.7-.5-2.5-2-4-2 0 .7 1.1 1.6 1.7 1.9.7.4 1.2 2.1 1.3.6 1 .6.3 1.8 1.7 1.4 1.1.4.8-1.3 1-1.8.3.2.5 1 .8 1.3.6.5 1.4.3 1.9.9.7.7 1 1.7.9 2.5-.6 0-.1.7-.5 1.3-.4.6-.4.8-.6 1.5-.7.2-1.6.5-1.5 1.5-.5.6-5 3.9-5.6 3-.7-1.1-.9-2.7-1.5-3.8-.9-.3-2.7-2.6-3.1-3.4.3-1.5-3.8-4.6-4.4-4.6.5 2.1 2.3 3.2 3.1 4.8.7 1.4 2 4.6 3.1 5.1 1.8-.2 2.9 3.1 3.9 3.8 1.2.9 3.8-2 4.9-1.7.1 1.5.1 1.9-.4 3.6-.9 3.3-2.4 4.8-4.4 7.5-1.1 1.6-1.9 2.7-2.7 4.4-.7 1.4 1.3 4.2.8 4.9.3 2.2-.3 3.5-2.2 4.6-1.4.8-2.6 1.6-2.1 3.1s-1.4 1.8-1.7 2.6c-.6 1.4-1.4 2.2-2.4 2.7l-2 .1c-1.2 0-2.4-.1-3.5-.2-1.5-1.9-3.2-4-4.8-5.9-1-1.2-2.4-3.3-.9-4.8.2-1-1-3.2-1.5-4-.9-1.4-4.8-4.6-3.3-6.2.2-1.1-.8-2.2-.8-3.1-.8-.7-1.7.9-2.5-.5-.9-1.5-2.5-1.1-3.8-.2-.3.2-4 .7-4.3.5-2.8-2.5-3.7-6.4-2.7-9.8.4-1.4.4-3.9 1.6-4.8.4-1.4 2-2.9 2.9-4.1.5-.6 1.2-.7 1.8-1.4.8-1 1.2-2.1 2.3-3 1.1-.9 3.4-2.3 1.4-2.6.8-1.1 2-2.4 2.5-3.8.7-.5 1.9-.3 2.7-.7.7-1.3.9-1.3.7-2.1.1-.5 1.9-1 2.2-1.1.7-.3 1.3-.9 1.9-1.4 2.6-.7 5.3-1.1 8.1-1.1 14.7-.2 27.1 10.8 29.4 25.1zM50.6 33.9c-1-.5-.3.2-.8.9-.8 1-.8 1.3-2 .8-.1-1.1 2.4-.1 1.3-2.1-.6-1-1.1-2.1-2.2-1.4-1 .7-2.8 1.1-3.6 2.5-.5.5-3.7 3-3.7 3.2 1.3 1 6.2-3 7.4-1.8l-1.1 2.3c.4.2.5.5.9.6 1.6-.4 1.2.8 2.4 1.1 2 .5.5.1 1.7-1.1.4-.4 2.6-.4 2.7.3-.1-.4.9-.2 0 0 1-.2 1.9.8 2.7.1.5-.5 1-.4 1.3-.1 1.8 1.3 1.2-3.8 1.2-4-.6.4-4.2.8-4.2.4.1-.4-.5-.5-.7-1 .7-.8-.6-.4.1-1.3-.4-.2-.7-.2-1.1 0-.1.6.3.4-.5.2-.3.7.6 1.1.5 1.7-.1-.1-.2-.1-.4-.1-.1.4 0 .3 0 1-1.2-.2-.6-1.1-1.6-2.5.9-.8-2-2.2-1.6-2.7-1.8.4 1.9 2.5 1.3 3zm-3.8.8c-.2.1-.4.1-.6.1.2-.5.9-2.4 1.4-2.4l-.8 2.3zM46.8 34.7c.1-.5-.3-.1 0 0zM64.3 32.4c-.5.2.1 1.7.9 1.6.5.5 1.2.5 1.8.3-.2-1.2-3.3-3.7-4.3-4.2.1-.1.2-.6.5-.5-.3-1.3-1.7-.3-1.7.6.6.6 2.7 1.6 2.8 2.2zM65.2 34c-.6.1.4.4 0 0zM56.7 113.5c-31.2 0-56.7-25.5-56.7-56.8s25.5-56.7 56.7-56.7 56.7 25.5 56.7 56.7-25.4 56.8-56.7 56.8zm0-107.5c-27.9 0-50.7 22.8-50.7 50.7s22.8 50.7 50.7 50.7 50.7-22.8 50.7-50.7-22.7-50.7-50.7-50.7z"/></g><g fill="#333"><path d="M57.7 31.8c0 .5 1.9.5 2.2.5-.5-.1.2-.1 0 0 1.8-1.1-3.6-2.1-3.7-2.2l.3-.3c-1 .4-.3-.7-1.2.4.2.8-.8 1.3-.4 2.2.9.8 1.9-.4 2.8-.6zM66.8 30.3c-.5-.1-1-1.2-1.6-1.4l-.1.4c0-.1.2.4 0 0 .2.3 1.1 1.6 1.7 1zM44.2 32c-.1.2-.3.2-.4.3v.1c.1.1.3-.4.4-.4zM56.7 15.7c-22.7 0-41.1 18.4-41.1 41.1 0 22.7 18.4 41.1 41.1 41.1s41.1-18.4 41.1-41.1c0-22.7-18.4-41.1-41.1-41.1zm11.3 62.4c.3 0 .3 0 .5-.3 0 .5.1 1 .3 1.4-.6-2.3 1.7-2.3 2.8-3.7.4-.5 1-1.9 1.5-2.2.3.4.3.8.2 1.3v.1c0 .5-.1.9-.3 1.3-.1-.1-.1-.2-.1-.3-1.8 1.5-1.8 5.7-4.3 6.7-1.3.6-1.2-1.2-.7-1.9.7-.8-.3-1.4.1-2.4-.4-.1-.9-1.2-.9-1.9.5-.1.8-.4.8-.2.1-.2.8-1.3.8-1.4.1 1-1.2 2.8-.7 3.5zm18.4-26.2c-.7-1.3-1.3-2.8-1.8-3.6-.9-1.4-1.4-3.6-2.7-4.7.3.4.3.8.1 1.2-.7-.2-1.2-.6-1.6-1.2-.1-.3.7.4.3-.4-1.1.1-1.8-.9-2.7-1.6-1.5-.2-3.2 1.1-4.7.2-.4-.2-.7-1.5-1.3-.7-.3.4-.6.4-1 .2-1.7-.5-2.5-2-4-2 0 .7 1.1 1.6 1.7 1.9.7.4 1.2 2.1 1.3.6 1 .6.3 1.8 1.7 1.4 1.1.4.8-1.3 1-1.8.3.2.5 1 .8 1.3.6.5 1.4.3 1.9.9.7.7 1 1.7.9 2.5-.6 0-.1.7-.5 1.3-.4.6-.4.8-.6 1.5-.7.2-1.6.5-1.5 1.5-.5.6-5 3.9-5.6 3-.7-1.1-.9-2.7-1.5-3.8-.9-.3-2.7-2.6-3.1-3.4.3-1.5-3.8-4.6-4.4-4.6.5 2.1 2.3 3.2 3.1 4.8.7 1.4 2 4.6 3.1 5.1 1.8-.2 2.9 3.1 3.9 3.8 1.2.9 3.8-2 4.9-1.7.1 1.5.1 1.9-.4 3.6-.9 3.3-2.4 4.8-4.4 7.5-1.1 1.6-1.9 2.7-2.7 4.4-.7 1.4 1.3 4.2.8 4.9.3 2.2-.3 3.5-2.2 4.6-1.4.8-2.6 1.6-2.1 3.1s-1.4 1.8-1.7 2.6c-.6 1.4-1.4 2.2-2.4 2.7l-2 .1c-1.2 0-2.4-.1-3.5-.2-1.5-1.9-3.2-4-4.8-5.9-1-1.2-2.4-3.3-.9-4.8.2-1-1-3.2-1.5-4-.9-1.4-4.8-4.6-3.3-6.2.2-1.1-.8-2.2-.8-3.1-.8-.7-1.7.9-2.5-.5-.9-1.5-2.5-1.1-3.8-.2-.3.2-4 .7-4.3.5-2.8-2.5-3.7-6.4-2.7-9.8.4-1.4.4-3.9 1.6-4.8.4-1.4 2-2.9 2.9-4.1.5-.6 1.2-.7 1.8-1.4.8-1 1.2-2.1 2.3-3 1.1-.9 3.4-2.3 1.4-2.6.8-1.1 2-2.4 2.5-3.8.7-.5 1.9-.3 2.7-.7.7-1.3.9-1.3.7-2.1.1-.5 1.9-1 2.2-1.1.7-.3 1.3-.9 1.9-1.4 2.6-.7 5.3-1.1 8.1-1.1 14.7-.2 27.1 10.8 29.4 25.1zM50.6 33.9c-1-.5-.3.2-.8.9-.8 1-.8 1.3-2 .8-.1-1.1 2.4-.1 1.3-2.1-.6-1-1.1-2.1-2.2-1.4-1 .7-2.8 1.1-3.6 2.5-.5.5-3.7 3-3.7 3.2 1.3 1 6.2-3 7.4-1.8l-1.1 2.3c.4.2.5.5.9.6 1.6-.4 1.2.8 2.4 1.1 2 .5.5.1 1.7-1.1.4-.4 2.6-.4 2.7.3-.1-.4.9-.2 0 0 1-.2 1.9.8 2.7.1.5-.5 1-.4 1.3-.1 1.8 1.3 1.2-3.8 1.2-4-.6.4-4.2.8-4.2.4.1-.4-.5-.5-.7-1 .7-.8-.6-.4.1-1.3-.4-.2-.7-.2-1.1 0-.1.6.3.4-.5.2-.3.7.6 1.1.5 1.7-.1-.1-.2-.1-.4-.1-.1.4 0 .3 0 1-1.2-.2-.6-1.1-1.6-2.5.9-.8-2-2.2-1.6-2.7-1.8.4 1.9 2.5 1.3 3zm-3.8.8c-.2.1-.4.1-.6.1.2-.5.9-2.4 1.4-2.4l-.8 2.3zM46.8 34.7c.1-.5-.3-.1 0 0zM64.3 32.4c-.5.2.1 1.7.9 1.6.5.5 1.2.5 1.8.3-.2-1.2-3.3-3.7-4.3-4.2.1-.1.2-.6.5-.5-.3-1.3-1.7-.3-1.7.6.6.6 2.7 1.6 2.8 2.2zM65.2 34c-.6.1.4.4 0 0zM56.7 113.5c-31.2 0-56.7-25.5-56.7-56.8s25.5-56.7 56.7-56.7 56.7 25.5 56.7 56.7-25.4 56.8-56.7 56.8zm0-107.5c-27.9 0-50.7 22.8-50.7 50.7s22.8 50.7 50.7 50.7 50.7-22.8 50.7-50.7-22.7-50.7-50.7-50.7z"/></g></g></g></svg>