<?xml version="1.0" encoding="utf-8"?>
<!-- Generator: Adobe Illustrator 17.1.0, SVG Export Plug-In . SVG Version: 6.00 Build 0)  -->
<!DOCTYPE svg PUBLIC "-//W3C//DTD SVG 1.1 Tiny//EN" "http://www.w3.org/Graphics/SVG/1.1/DTD/svg11-tiny.dtd">
<svg version="1.1" baseProfile="tiny" xmlns="http://www.w3.org/2000/svg" xmlns:xlink="http://www.w3.org/1999/xlink" x="0px"
	 y="0px" viewBox="0 0 23 16" xml:space="preserve">
<g id="Background">
</g>
<g id="Working">
	<g id="Alert">
	</g>
	<g id="mySociety_Logo">
		<g id="Earth">
			<g id="Paintbrush">
				<g id="Refresh_F">
				</g>
			</g>
		</g>
		<g id="Duplicate_files">
		</g>
		<g id="Upload_-_Circle_1_">
		</g>
		<g id="Upload_-_Circle">
		</g>
		<g id="Mail">
			<path fill="#FFFFFF" d="M11.5,9.3L18.7,3c0,0-0.1,0-0.1,0h-14c0,0-0.1,0-0.1,0L11.5,9.3z"/>
			<path fill="#FFFFFF" d="M19.5,4c0-0.1,0-0.2-0.1-0.3l-5,4.5l5,4.4c0.1-0.1,0.1-0.3,0.1-0.5V4z"/>
			<path fill="#FFFFFF" d="M3.6,3.6c0,0.1-0.1,0.2-0.1,0.4v8c0,0.1,0,0.3,0.1,0.4l5-4.3L3.6,3.6z"/>
			<path fill="#FFFFFF" d="M13.6,8.8l-2.1,1.9L9.4,8.8L4.5,13c0,0,0,0,0.1,0h14L13.6,8.8z"/>
		</g>
	</g>
</g>
</svg>
