<svg width="50" height="50" viewBox="0 0 50 50" fill="none" xmlns="http://www.w3.org/2000/svg">
<path fill-rule="evenodd" clip-rule="evenodd" d="M25 50C38.8071 50 50 38.8071 50 25C50 11.1929 38.8071 0 25 0C11.1929 0 0 11.1929 0 25C0 38.8071 11.1929 50 25 50ZM15.5582 14.5431C19.3799 17.2398 23.4899 22.7114 24.9999 25.6464C26.5082 22.7131 30.6199 17.2414 34.4415 14.5398C38.1032 11.9564 39.4982 12.4048 40.4132 12.8181C41.4732 13.2981 41.6665 14.9231 41.6665 15.8814C41.6665 16.8381 41.1415 23.7298 40.7999 24.8798C39.6682 28.6798 35.6432 29.9631 31.9349 29.5514C37.3682 30.3564 41.6665 33.3981 35.7399 39.3814C28.476 45.725 26.6067 39.0848 25.3234 34.5265C25.2122 34.1315 25.1054 33.7521 24.9999 33.3981L24.9869 33.4415C23.6597 37.8931 21.0739 46.5663 14.1332 39.3814C7.80487 32.3348 12.6332 30.3564 18.0665 29.5514C14.3565 29.9631 10.3332 28.6798 9.19987 24.8798C8.85821 23.7281 8.33321 16.8381 8.33321 15.8798C8.33321 14.9248 8.52654 13.2964 9.58654 12.8214C10.5015 12.4048 11.8965 11.9598 15.5582 14.5431Z" fill="white"/>
</svg>
