<svg baseProfile="tiny" xmlns="http://www.w3.org/2000/svg" viewBox="0 0 19.3 20"><g><g><path fill="#fff" d="M0 11c0-1.7.3-3.2.9-4.5.5-1.4 1.3-2.5 2.3-3.5 1-1 2.1-1.7 3.4-2.2 1.4-.5 2.8-.8 4.2-.8 1.3 0 2.5.2 3.5.6 1.1.4 1.9 1 2.7 1.8.7.8 1.3 1.7 1.7 2.7.4 1.1.6 2.2.6 3.4 0 1.1-.2 2-.5 2.9-.3.8-.8 1.5-1.3 2s-1.1.9-1.8 1.2c-.7.3-1.3.4-2 .4s-1.3-.2-1.8-.5-.8-.7-1-1.3c-.2.2-.3.4-.6.6-.2.2-.5.4-.7.5l-.8.3c-.3.1-.5.1-.7.1-1 0-1.7-.3-2.3-1-.6-.5-.8-1.4-.8-2.5 0-.7.1-1.5.3-2.2.2-.7.6-1.3 1-1.9.4-.5.9-1 1.5-1.3.6-.3 1.2-.5 1.9-.5.4 0 .7.1 1 .3.3.2.5.5.7.9l.4-1h2.4l-1.1 5.3c-.3 1.2 0 1.7 1 1.7.3 0 .7-.1 1-.3.3-.2.6-.5.9-.8.2-.3.4-.8.6-1.3.1-.5.2-1 .2-1.6 0-.8-.1-1.6-.3-2.3-.2-.7-.6-1.4-1.1-2-.5-.6-1.2-1.1-2-1.4-.8-.4-1.8-.5-3-.5-1 0-1.9.2-2.9.6-.8.5-1.7 1.1-2.4 1.8-.7.8-1.3 1.7-1.8 2.7-.5 1.1-.7 2.2-.7 3.5 0 1.2.2 2.1.6 3 .4.8.9 1.5 1.5 2.1.6.5 1.4.9 2.2 1.2.8.3 1.7.4 2.5.4.6 0 1.2-.1 1.8-.2.6-.2 1.2-.4 1.7-.6l.8 2.2c-.7.4-1.5.6-2.2.8-.7.1-1.5.2-2.4.2-1.2 0-2.3-.2-3.4-.5-1.1-.4-2.1-.9-2.9-1.6-.8-.7-1.5-1.7-2-2.8-.5-1.2-.8-2.5-.8-4.1zm7.9 0c0 .9.4 1.4 1.1 1.4.2 0 .4-.1.6-.2.2-.1.4-.4.7-.7l.5-2.9c-.1-.2-.2-.3-.4-.4-.2-.1-.4-.2-.6-.2-.2-.1-.5 0-.7.2-.3.2-.5.5-.6.8-.2.3-.3.6-.4 1-.1.3-.2.7-.2 1z"/></g></g></svg>