<svg fill="none" height="24" viewBox="0 0 28 24" width="28" xmlns="http://www.w3.org/2000/svg" xmlns:xlink="http://www.w3.org/1999/xlink"><clipPath id="a"><path d="m0 0h28v24h-28z"/></clipPath><mask id="b" height="24" maskUnits="userSpaceOnUse" width="28" x="0" y="0"><path d="m28 0h-28v24h28z" fill="#fff"/></mask><g clip-path="url(#a)"><g mask="url(#b)"><path d="m22 14.5v5c0 1.2396-.4401 2.2995-1.3203 3.1797s-1.9401 1.3203-3.1797 1.3203h-13c-1.23958 0-2.29948-.4401-3.17969-1.3203-.880206-.8802-1.32031-1.9401-1.32031-3.1797v-13c0-1.23958.440104-2.29948 1.32031-3.17969.88021-.88021 1.94011-1.32031 3.17969-1.32031h11c.1458 0 .2656.04688.3594.14062.0937.09376.1406.21355.1406.35938v1c0 .14583-.0469.26562-.1406.35938-.0938.09374-.2136.14062-.3594.14062h-11c-.6875 0-1.27604.24479-1.76562.73438-.48959.48958-.73438 1.07812-.73438 1.76562v13c0 .6875.24479 1.276.73438 1.7656.48958.4896 1.07812.7344 1.76562.7344h13c.6875 0 1.276-.2448 1.7656-.7344s.7344-1.0781.7344-1.7656v-5c0-.1458.0469-.2656.1406-.3594.0938-.0937.2136-.1406.3594-.1406h1c.1458 0 .2656.0469.3594.1406.0937.0938.1406.2136.1406.3594zm6-13.5v8c0 .27083-.099.50521-.2969.70312-.1979.19792-.4323.29688-.7031.29688s-.5052-.09896-.7031-.29688l-2.75-2.75-10.1875 10.18748c-.1042.1042-.224.1563-.3594.1563s-.2552-.0521-.3594-.1563l-1.7812-1.7812c-.1042-.1042-.1563-.224-.1563-.3594s.0521-.2552.1563-.3594l10.1875-10.18748-2.75-2.75c-.1979-.19791-.2969-.43229-.2969-.70312 0-.270833.099-.505208.2969-.703125.1979-.1979167.4323-.296875.7031-.296875h8c.2708 0 .5052.0989583.7031.296875.1979.197917.2969.432292.2969.703125z" fill="#fff"/></g></g></svg>