<svg fill="none" height="512" viewBox="0 0 513 512" width="513" xmlns="http://www.w3.org/2000/svg"><path d="m32 64c0-17.7 14.3-32 32-32 229.8 0 416 186.2 416 416 0 17.7-14.3 32-32 32s-32-14.3-32-32c0-194.4-157.6-352-352-352-17.7 0-32-14.3-32-32zm0 352c0-16.974 6.7428-33.252 18.7452-45.255 12.0023-12.002 28.2809-18.745 45.2548-18.745 16.974 0 33.253 6.743 45.255 18.745 12.002 12.003 18.745 28.281 18.745 45.255s-6.743 33.252-18.745 45.255c-12.002 12.002-28.281 18.745-45.255 18.745-16.9739 0-33.2525-6.743-45.2548-18.745-12.0024-12.003-18.7452-28.281-18.7452-45.255zm32-256c159.1 0 288 128.9 288 288 0 17.7-14.3 32-32 32s-32-14.3-32-32c0-123.7-100.3-224-224-224-17.7 0-32-14.3-32-32s14.3-32 32-32z" fill="#fff"/></svg>