<svg fill="none" height="512" viewBox="0 0 512 512" width="512" xmlns="http://www.w3.org/2000/svg"><path d="m495.552 119.076c-5.75-21.6791-22.693-38.7529-44.205-44.5472-38.993-10.5288-195.347-10.5288-195.347-10.5288s-156.3536 0-195.3468 10.5288c-21.5121 5.7952-38.4548 22.8681-44.2052 44.5472-10.448 39.295-10.448 121.28-10.448 121.28s0 81.985 10.448 121.279c5.7504 21.679 22.6931 38.042 44.2052 43.836 38.9932 10.529 195.3468 10.529 195.3468 10.529s156.354 0 195.347-10.529c21.512-5.794 38.455-22.157 44.205-43.836 10.448-39.294 10.448-121.279 10.448-121.279s0-81.985-10.448-121.28zm-290.689 195.716v-148.872l130.682 74.438z" fill="#fff"/></svg>