<svg width="592" height="199" viewBox="0 0 592 199" fill="none" xmlns="http://www.w3.org/2000/svg">
<g clip-path="url(#clip0_1_29)">
<path d="M72.4444 136.017C72.7217 136.571 73.0149 137.12 73.3137 137.664C81.0797 137.264 88.095 133.276 92.3749 126.889C92.2522 126.66 92.1302 126.425 92.0123 126.19C87.6631 117.527 88.1692 107.668 92.4976 99.7399C90.1848 96.2139 86.994 93.3511 83.2391 91.4332C80.1737 89.86 76.9059 88.9697 73.5106 88.7776C71.9496 91.5789 70.6556 94.5209 69.646 97.5648C65.4195 110.339 66.4107 123.994 72.4444 136.017Z" fill="url(#paint0_linear_1_29)"/>
<path d="M162.459 90.8196C156.425 78.7971 146.068 69.84 133.301 65.6062C122.172 61.9167 110.365 62.1996 99.56 66.3315C107.417 70.9272 113.889 77.3146 118.525 84.9765C128.552 85.371 138.083 91.0595 142.896 100.646C149.938 114.679 144.255 131.821 130.226 138.864C126.506 140.737 122.418 141.766 118.254 141.876C113.483 149.597 106.948 155.904 99.1711 160.356C99.9704 160.665 100.781 160.958 101.607 161.23C114.373 165.464 128.03 164.472 140.05 158.437C152.07 152.401 161.025 142.042 165.257 129.272C169.489 116.498 168.498 102.843 162.459 90.8196Z" fill="url(#paint1_linear_1_29)"/>
<path d="M115.338 87.413C110.557 79.3511 103.595 72.7827 95.0562 68.3998C88.1373 64.849 80.659 62.9832 73.1058 62.8341C69.7257 69.5252 69.4699 77.6509 72.999 84.7684C77.2013 84.9006 81.3216 85.9659 85.0615 87.8873C89.7081 90.2646 93.6063 93.8816 96.3248 98.3379C100.097 98.1277 103.768 97.0434 107.049 95.1705C110.389 93.2801 113.231 90.6208 115.338 87.413Z" fill="url(#paint2_linear_1_29)"/>
<path d="M96.2395 128.259C88.5102 140.708 72.3377 145.358 59.0766 138.555C45.1105 131.389 39.5774 114.194 46.7417 100.225C46.8429 100.022 46.9496 99.8252 47.0557 99.6276C42.7384 91.6038 40.5478 82.7958 40.5638 73.8921C35.0895 78.2743 30.5532 83.8033 27.259 90.2337C21.1186 102.208 20.0095 115.852 24.1299 128.659C28.2503 141.465 37.1151 151.905 49.0812 158.042C61.053 164.184 74.6939 165.293 87.4975 161.172C100.301 157.051 110.732 148.184 116.874 136.214C119.308 131.48 120.98 126.392 121.825 121.136C113.979 125.604 105.163 128.051 96.2395 128.259Z" fill="url(#paint3_linear_1_29)"/>
<path d="M109.026 98.636C104.941 100.971 100.336 102.248 95.6316 102.352C92.2681 109.012 91.9694 117.11 95.5193 124.287C103.978 124.202 112.316 121.968 119.869 117.665C127.422 113.356 133.594 107.316 137.981 100.081C133.791 93.6083 126.825 89.5084 119.059 88.996C116.568 92.9937 113.12 96.3071 109.026 98.636Z" fill="url(#paint4_linear_1_29)"/>
<path d="M65.8666 96.3111C66.9043 93.1818 68.2209 90.1521 69.8005 87.2584C62.605 73.7319 67.4499 56.7926 80.8399 49.1578C94.2299 41.5279 111.26 45.9912 119.229 59.0642C124.443 59.244 129.603 60.1705 134.554 61.8155C138.1 62.9904 141.517 64.525 144.751 66.3953C143.839 60.3386 141.808 54.4365 138.685 48.9554C132.027 37.2629 121.212 28.8709 108.238 25.3146C95.2635 21.7582 81.6821 23.4702 69.9974 30.1294C58.3085 36.7935 49.9179 47.6068 46.3632 60.584C42.807 73.5613 44.5185 87.146 51.1761 98.8385C54.243 104.234 58.28 109.017 63.0841 112.946C63.1422 107.29 64.0809 101.678 65.8666 96.3111Z" fill="url(#paint5_linear_1_29)"/>
<path d="M255.933 39.1399L248.384 68.7625H240.176L235.389 50.4434L230.741 68.7625H222.532L214.984 39.1399H222.756L226.86 59.0108L231.866 39.1399H239.296L244.04 59.0108L248.368 39.1399H255.933ZM270.73 69.3595C266.487 69.3595 263.23 68.352 260.965 66.3363C258.704 64.3214 257.569 61.4473 257.569 57.7204C257.569 54.0732 258.624 51.1624 260.735 48.9873C262.846 46.8121 265.793 45.7242 269.589 45.7242C273.033 45.7242 275.623 46.6464 277.36 48.4908C279.098 50.3366 279.962 52.9756 279.962 56.4092V58.9151H264.6C264.669 59.9496 264.887 60.8129 265.26 61.5118C265.61 62.1797 266.119 62.7511 266.742 63.1752C267.345 63.5857 268.043 63.879 268.843 64.06C269.642 64.2409 270.516 64.3269 271.465 64.3269C272.281 64.3269 273.08 64.2361 273.869 64.06C274.658 63.8838 275.378 63.6439 276.034 63.3562C276.609 63.1059 277.136 62.8334 277.627 62.5408C278.112 62.2475 278.512 61.9916 278.821 61.7621H279.562V67.5095C278.987 67.7335 278.464 67.947 277.99 68.1384C277.515 68.3305 276.865 68.5281 276.038 68.725C275.277 68.9226 274.493 69.0821 273.688 69.1944C272.878 69.3012 271.892 69.3595 270.73 69.3595ZM273.053 54.7187C273.011 53.2474 272.67 52.1276 272.02 51.3545C271.374 50.5869 270.383 50.2035 269.045 50.2035C267.686 50.2035 266.62 50.6084 265.852 51.4183C265.085 52.2295 264.664 53.3271 264.578 54.7187H273.053ZM290.414 69.381C288.757 69.381 287.195 69.2 285.718 68.8422C284.242 68.4851 283.027 68.0642 282.062 67.5893V61.7032H282.643C282.979 61.9542 283.357 62.2308 283.784 62.5401C284.21 62.8445 284.807 63.1641 285.564 63.4949C286.22 63.7986 286.955 64.06 287.776 64.2784C288.597 64.4968 289.487 64.6091 290.452 64.6091C291.438 64.6091 292.312 64.4545 293.064 64.1508C293.815 63.8464 294.194 63.3617 294.194 62.7002C294.194 62.183 294.017 61.794 293.672 61.527C293.325 61.2608 292.648 61.0105 291.651 60.7706C290.982 60.6076 290.308 60.4651 289.631 60.3434C288.9 60.2095 288.177 60.0333 287.467 59.8158C285.702 59.2722 284.38 58.4672 283.49 57.4007C282.6 56.3343 282.157 54.9323 282.157 53.194C282.157 52.1969 282.387 51.2636 282.851 50.3789C283.309 49.499 283.986 48.7099 284.882 48.0221C285.777 47.3453 286.88 46.8066 288.197 46.4121C289.514 46.012 290.996 45.8151 292.653 45.8151C294.231 45.8151 295.676 45.9697 296.998 46.2838C298.319 46.593 299.433 46.9716 300.34 47.4091V53.0602H299.78C299.54 52.8737 299.162 52.6289 298.639 52.3141C298.146 52.018 297.637 51.7493 297.115 51.5091C296.528 51.2421 295.868 51.0237 295.143 50.8532C294.411 50.6803 293.661 50.5926 292.909 50.5917C291.896 50.5917 291.038 50.7623 290.334 51.109C289.631 51.4557 289.284 51.914 289.284 52.4798C289.284 52.986 289.46 53.3805 289.807 53.6738C290.153 53.9671 290.91 54.2493 292.072 54.5267C292.675 54.6709 293.362 54.8151 294.146 54.9531C294.924 55.0918 295.676 55.2838 296.401 55.5182C298.016 56.0355 299.241 56.7926 300.073 57.7953C300.904 58.7972 301.326 60.125 301.326 61.7836C301.328 62.8279 301.073 63.8567 300.585 64.7797C300.089 65.7289 299.391 66.5284 298.484 67.1788C297.525 67.8826 296.39 68.4269 295.089 68.8103C293.789 69.1889 292.232 69.381 290.414 69.381ZM313.287 69.2C310.43 69.2 308.351 68.6182 307.05 67.4506C305.75 66.2829 305.1 64.3748 305.1 61.7191V51.2747H302.418V46.4218H305.1V40.0357H312.109V46.4232H318.857V51.2754H312.109V59.1931C312.109 59.9766 312.114 60.6589 312.13 61.24C312.146 61.821 312.253 62.3494 312.45 62.8133C312.636 63.2771 312.967 63.6446 313.442 63.9164C313.916 64.1889 314.609 64.3221 315.515 64.3221C315.888 64.3221 316.378 64.2416 316.986 64.0821C317.594 63.922 318.015 63.7778 318.26 63.6446H318.863V68.5607C318.1 68.7576 317.295 68.9178 316.437 69.0301C315.573 69.1417 314.529 69.2 313.287 69.2ZM243.012 117.649H235.8L224.302 96.999V117.649H217.453V88.0259H226.642L236.157 104.996V88.0259H243.006V117.649H243.012ZM270.25 106.49C270.25 110.163 269.237 113.058 267.217 115.175C265.192 117.291 262.334 118.347 258.635 118.347C254.963 118.347 252.111 117.291 250.074 115.175C248.038 113.058 247.02 110.163 247.02 106.49C247.02 102.779 248.038 99.8675 250.074 97.7672C252.111 95.6663 254.963 94.6158 258.635 94.6158C262.318 94.6158 265.175 95.6718 267.206 97.788C269.237 99.9049 270.25 102.805 270.25 106.49ZM263.059 106.532C263.059 105.204 262.947 104.101 262.729 103.221C262.51 102.341 262.206 101.632 261.817 101.104C261.401 100.55 260.938 100.161 260.416 99.9424C259.893 99.7239 259.302 99.6116 258.635 99.6116C258.006 99.6116 257.441 99.708 256.935 99.8994C256.428 100.091 255.959 100.46 255.533 101.003C255.133 101.52 254.813 102.23 254.573 103.131C254.333 104.032 254.211 105.168 254.211 106.532C254.211 107.898 254.323 109.001 254.552 109.843C254.781 110.686 255.074 111.357 255.431 111.864C255.785 112.365 256.27 112.758 256.834 112.999C257.393 113.239 258.017 113.357 258.694 113.357C259.254 113.357 259.824 113.239 260.404 112.999C260.986 112.759 261.45 112.402 261.796 111.928C262.212 111.357 262.526 110.67 262.739 109.87C262.953 109.06 263.059 107.95 263.059 106.532ZM289.071 101.894H288.49C288.224 101.803 287.835 101.734 287.329 101.686C286.822 101.638 286.263 101.616 285.644 101.616C284.909 101.616 284.141 101.723 283.331 101.937C282.534 102.144 281.749 102.397 280.98 102.694V117.654H273.971V95.314H280.98V98.5189C281.41 98.1333 281.854 97.7651 282.313 97.415C282.878 96.9726 283.395 96.6155 283.864 96.3486C284.37 96.0449 284.962 95.7835 285.639 95.5651C286.31 95.3466 286.95 95.2343 287.553 95.2343C287.781 95.2343 288.032 95.2399 288.314 95.2558C288.597 95.2662 288.847 95.2877 289.077 95.314V101.894H289.071ZM300.367 118.092C297.509 118.092 295.43 117.511 294.13 116.343C292.829 115.175 292.179 113.266 292.179 110.611V100.166H289.498V95.314H292.179V88.9266H299.189V95.314H305.936V100.166H299.189V108.084C299.189 108.868 299.194 109.55 299.21 110.131C299.226 110.712 299.332 111.24 299.53 111.704C299.716 112.168 300.047 112.536 300.521 112.807C300.995 113.08 301.688 113.213 302.595 113.213C302.967 113.213 303.458 113.133 304.065 112.973C304.673 112.813 305.094 112.669 305.34 112.536H305.942V117.452C305.179 117.649 304.375 117.809 303.516 117.921C302.658 118.033 301.608 118.092 300.367 118.092ZM329.865 117.649H322.818V106.57C322.818 105.668 322.781 104.768 322.707 103.872C322.632 102.976 322.499 102.315 322.296 101.894C322.056 101.387 321.71 101.03 321.256 100.811C320.803 100.593 320.196 100.481 319.433 100.481C318.838 100.484 318.248 100.593 317.691 100.801C317.104 101.014 316.475 101.35 315.808 101.814V117.649H308.799V86.6933H315.808V97.7721C316.955 96.802 318.074 96.0504 319.161 95.5061C320.249 94.9625 321.454 94.6907 322.776 94.6907C325.073 94.6907 326.827 95.4104 328.042 96.8499C329.257 98.2893 329.865 100.374 329.865 103.104V117.649ZM347.45 115.281C346.97 115.681 346.538 116.038 346.16 116.353C345.781 116.673 345.27 116.988 344.63 117.307C344.001 117.612 343.393 117.846 342.796 118.006C342.2 118.166 341.373 118.246 340.302 118.246C338.313 118.246 336.661 117.585 335.344 116.257C334.028 114.93 333.372 113.261 333.372 111.245C333.372 109.587 333.708 108.249 334.375 107.226C335.041 106.202 336.006 105.396 337.258 104.799C338.527 104.191 340.041 103.765 341.805 103.525C343.694 103.272 345.591 103.087 347.492 102.97V102.853C347.492 101.622 347.034 100.769 346.122 100.299C345.206 99.83 343.836 99.5957 342.008 99.5957C341.181 99.5957 340.211 99.7447 339.102 100.044C337.994 100.342 336.912 100.72 335.856 101.19H335.254V95.7994C335.947 95.6025 337.072 95.3674 338.617 95.0956C340.164 94.8251 341.732 94.6896 343.303 94.6907C347.173 94.6907 349.993 95.33 351.762 96.61C353.532 97.8893 354.417 99.8411 354.417 102.47V117.67H347.45V115.281ZM347.45 111.821V107.167C346.488 107.261 345.527 107.364 344.566 107.476C343.828 107.563 343.102 107.733 342.402 107.982C341.789 108.196 341.31 108.515 340.968 108.947C340.627 109.379 340.456 109.95 340.456 110.67C340.456 111.72 340.739 112.434 341.31 112.829C341.874 113.219 342.717 113.415 343.82 113.415C344.433 113.415 345.062 113.277 345.702 112.999C346.351 112.715 346.943 112.316 347.45 111.821ZM386.479 117.649V106.489C386.479 105.391 386.457 104.458 386.42 103.707C386.378 102.95 386.261 102.336 386.057 101.856C385.855 101.376 385.546 101.03 385.125 100.811C384.704 100.593 384.112 100.48 383.35 100.48C382.817 100.48 382.289 100.598 381.767 100.827C381.245 101.062 380.68 101.387 380.066 101.814V117.649H373.02V106.489C373.025 105.565 373.002 104.64 372.95 103.717C372.902 102.954 372.78 102.336 372.577 101.856C372.375 101.376 372.066 101.03 371.644 100.811C371.224 100.593 370.643 100.48 369.89 100.48C369.315 100.48 368.755 100.614 368.206 100.881C367.657 101.147 367.124 101.457 366.602 101.814V117.649H359.592V95.3092H366.602V97.7776C367.748 96.8069 368.83 96.0553 369.848 95.5117C370.861 94.9681 372.001 94.6956 373.27 94.6956C374.645 94.6956 375.856 95.0208 376.895 95.6718C377.934 96.3222 378.728 97.2923 379.277 98.5771C380.626 97.3297 381.895 96.3701 383.094 95.7037C384.288 95.0318 385.504 94.7011 386.729 94.7011C387.769 94.7011 388.707 94.8661 389.533 95.1969C390.345 95.5149 391.066 96.0276 391.633 96.6897C392.262 97.4046 392.731 98.2575 393.046 99.2434C393.36 100.23 393.515 101.52 393.515 103.115V117.654H386.479V117.649ZM420.764 106.175C420.764 109.742 419.853 112.621 418.03 114.807C416.207 116.993 413.963 118.092 411.292 118.092C410.173 118.092 409.197 117.963 408.366 117.713C407.539 117.462 406.655 117.067 405.722 116.54V125.849H398.712V95.314H405.722V97.6445C406.75 96.7701 407.795 96.0608 408.867 95.5172C409.933 94.9729 411.17 94.7011 412.571 94.7011C415.172 94.7011 417.193 95.7301 418.621 97.7832C420.05 99.8356 420.764 102.629 420.764 106.175ZM413.595 106.314C413.595 104.138 413.259 102.56 412.582 101.579C411.905 100.598 410.855 100.107 409.426 100.107C408.797 100.107 408.174 100.209 407.555 100.406C406.905 100.618 406.288 100.92 405.722 101.302V112.541C406.095 112.701 406.505 112.813 406.953 112.877C407.401 112.941 407.934 112.978 408.547 112.978C410.258 112.978 411.527 112.424 412.353 111.314C413.184 110.206 413.595 108.542 413.595 106.314ZM433.141 118.092C430.284 118.092 428.205 117.511 426.904 116.343C425.604 115.175 424.953 113.266 424.953 110.611V100.166H422.272V95.314H424.953V88.9266H431.963V95.314H438.711V100.166H431.963V108.084C431.963 108.868 431.968 109.55 431.984 110.131C432 110.712 432.107 111.24 432.304 111.704C432.491 112.168 432.821 112.536 433.296 112.807C433.77 113.08 434.463 113.213 435.369 113.213C435.742 113.213 436.233 113.133 436.84 112.973C437.448 112.813 437.869 112.669 438.114 112.536H438.716V117.452C437.918 117.658 437.108 117.814 436.291 117.921C435.433 118.033 434.383 118.092 433.141 118.092ZM463.162 106.49C463.162 110.163 462.149 113.058 460.129 115.175C458.103 117.291 455.246 118.347 451.547 118.347C447.874 118.347 445.022 117.291 442.986 115.175C440.95 113.058 439.932 110.163 439.932 106.49C439.932 102.779 440.95 99.8675 442.986 97.7672C445.022 95.6663 447.874 94.6158 451.547 94.6158C455.23 94.6158 458.087 95.6718 460.118 97.788C462.149 99.9049 463.162 102.805 463.162 106.49ZM455.971 106.532C455.971 105.204 455.859 104.101 455.64 103.221C455.422 102.341 455.118 101.632 454.729 101.104C454.313 100.55 453.849 100.161 453.327 99.9424C452.804 99.7239 452.213 99.6116 451.547 99.6116C450.918 99.6116 450.353 99.708 449.847 99.8994C449.34 100.091 448.871 100.46 448.444 101.003C448.045 101.52 447.725 102.23 447.485 103.131C447.245 104.032 447.122 105.168 447.122 106.532C447.122 107.898 447.235 109.001 447.464 109.843C447.693 110.686 447.986 111.357 448.343 111.864C448.697 112.364 449.182 112.757 449.745 112.999C450.305 113.239 450.929 113.357 451.605 113.357C452.165 113.357 452.735 113.239 453.317 112.999C453.898 112.759 454.361 112.402 454.707 111.928C455.123 111.357 455.438 110.67 455.651 109.87C455.864 109.06 455.971 107.95 455.971 106.532ZM487.954 117.649H480.906V106.57C480.906 105.668 480.869 104.768 480.795 103.872C480.72 102.976 480.587 102.315 480.384 101.894C480.145 101.387 479.798 101.03 479.345 100.811C478.892 100.593 478.284 100.48 477.522 100.48C476.946 100.48 476.365 100.587 475.779 100.801C475.192 101.014 474.564 101.35 473.897 101.814V117.649H466.888V95.3092H473.897V97.7776C475.043 96.8069 476.163 96.0553 477.25 95.5117C478.337 94.9681 479.542 94.6956 480.864 94.6956C483.161 94.6956 484.915 95.4153 486.13 96.8554C487.346 98.2949 487.954 100.379 487.954 103.109V117.649ZM499.989 118.267C498.331 118.267 496.769 118.086 495.293 117.729C493.816 117.372 492.601 116.95 491.636 116.476V110.59H492.217C492.553 110.84 492.932 111.118 493.358 111.427C493.784 111.731 494.381 112.051 495.138 112.381C495.794 112.685 496.529 112.946 497.35 113.165C498.171 113.384 499.062 113.495 500.026 113.495C501.012 113.495 501.886 113.341 502.638 113.037C503.389 112.733 503.768 112.248 503.768 111.587C503.768 111.07 503.592 110.68 503.246 110.414C502.899 110.147 502.222 109.897 501.226 109.657C500.693 109.523 500.015 109.379 499.205 109.23C498.474 109.096 497.752 108.92 497.041 108.703C495.277 108.158 493.955 107.353 493.065 106.287C492.175 105.22 491.732 103.818 491.732 102.08C491.732 101.083 491.961 100.15 492.425 99.2649C492.884 98.385 493.56 97.596 494.456 96.9088C495.352 96.2314 496.455 95.6926 497.771 95.2981C499.088 94.8987 500.57 94.7011 502.227 94.7011C503.805 94.7011 505.25 94.8557 506.572 95.1705C507.894 95.4798 509.008 95.8584 509.914 96.2952V101.947H509.354C509.114 101.76 508.736 101.515 508.213 101.201C507.72 100.905 507.211 100.636 506.689 100.395C506.054 100.113 505.394 99.8939 504.717 99.7399C503.985 99.567 503.235 99.4793 502.483 99.4785C501.47 99.4785 500.612 99.6491 499.909 99.9958C499.205 100.342 498.858 100.801 498.858 101.366C498.858 101.872 499.035 102.267 499.381 102.56C499.728 102.853 500.485 103.136 501.647 103.413C502.249 103.557 502.937 103.701 503.72 103.84C504.498 103.979 505.25 104.171 505.975 104.405C507.59 104.922 508.816 105.679 509.648 106.681C510.479 107.684 510.9 109.012 510.9 110.67C510.902 111.714 510.648 112.743 510.159 113.666C509.664 114.615 508.965 115.415 508.059 116.066C507.099 116.769 505.964 117.313 504.663 117.697C503.363 118.076 501.807 118.267 499.989 118.267ZM535.314 117.649H528.266V106.57C528.266 105.668 528.229 104.768 528.155 103.872C528.08 102.976 527.947 102.315 527.744 101.894C527.505 101.387 527.158 101.03 526.705 100.811C526.252 100.593 525.644 100.481 524.882 100.481C524.286 100.484 523.696 100.593 523.139 100.801C522.552 101.014 521.924 101.35 521.257 101.814V117.649H514.248V86.6933H521.257V97.7721C522.403 96.802 523.523 96.0504 524.61 95.5061C525.697 94.9625 526.902 94.6907 528.224 94.6907C530.521 94.6907 532.275 95.4104 533.49 96.8499C534.706 98.2893 535.314 100.374 535.314 103.104V117.649ZM547.712 92.1259H540.303V86.6933H547.712V92.1259ZM547.509 117.649H540.5V95.3092H547.509V117.649ZM567.978 101.894H567.397C567.131 101.803 566.742 101.734 566.236 101.686C565.729 101.638 565.169 101.616 564.551 101.616C563.816 101.616 563.047 101.723 562.238 101.937C561.441 102.144 560.656 102.397 559.887 102.694V117.654H552.877V95.314H559.887V98.5189C560.316 98.1333 560.761 97.7651 561.22 97.415C561.784 96.9726 562.302 96.6155 562.771 96.3486C563.277 96.0449 563.869 95.7835 564.546 95.5651C565.217 95.3466 565.857 95.2343 566.459 95.2343C566.688 95.2343 566.939 95.2399 567.221 95.2558C567.504 95.2662 567.754 95.2877 567.984 95.314V101.894H567.978ZM582.178 118.246C577.936 118.246 574.678 117.238 572.413 115.223C570.153 113.207 569.017 110.334 569.017 106.607C569.017 102.96 570.073 100.049 572.184 97.8733C574.295 95.6982 577.242 94.6103 581.038 94.6103C584.481 94.6103 587.071 95.5332 588.809 97.3775C590.547 99.2226 591.411 101.862 591.411 105.295V107.801H576.049C576.118 108.836 576.336 109.699 576.709 110.398C577.059 111.066 577.568 111.638 578.191 112.061C578.794 112.472 579.492 112.765 580.291 112.946C581.091 113.128 581.965 113.213 582.914 113.213C583.729 113.213 584.529 113.122 585.318 112.946C586.061 112.783 586.785 112.547 587.482 112.242C588.03 112.005 588.563 111.733 589.076 111.427C589.561 111.134 589.961 110.878 590.27 110.648H591.011V116.396C590.435 116.62 589.913 116.833 589.438 117.025C588.964 117.217 588.314 117.414 587.487 117.612C586.725 117.809 585.941 117.969 585.137 118.08C584.321 118.193 583.335 118.246 582.178 118.246ZM584.497 103.605C584.454 102.133 584.113 101.014 583.463 100.241C582.818 99.4729 581.827 99.0888 580.489 99.0888C579.129 99.0888 578.063 99.4944 577.296 100.305C576.528 101.115 576.107 102.214 576.022 103.605H584.497ZM230.32 167.116C225.848 167.116 222.298 165.773 219.665 163.086C217.037 160.398 215.72 156.623 215.72 151.756C215.72 147.058 217.037 143.315 219.675 140.527C222.314 137.734 225.864 136.342 230.341 136.342C231.53 136.342 232.596 136.406 233.545 136.539C234.494 136.672 235.4 136.859 236.269 137.094C236.951 137.291 237.692 137.563 238.491 137.909C239.291 138.256 239.942 138.555 240.432 138.805V145.87H239.67C239.223 145.48 238.77 145.098 238.311 144.723C237.72 144.249 237.098 143.814 236.45 143.422C235.724 142.986 234.956 142.623 234.158 142.34C233.32 142.041 232.436 141.889 231.546 141.892C230.464 141.892 229.473 142.062 228.572 142.399C227.671 142.734 226.813 143.321 225.997 144.158C225.251 144.915 224.638 145.934 224.164 147.224C223.689 148.509 223.454 150.028 223.454 151.777C223.454 153.622 223.7 155.168 224.195 156.421C224.691 157.674 225.336 158.687 226.136 159.454C226.909 160.196 227.772 160.734 228.732 161.065C229.648 161.389 230.612 161.557 231.584 161.561C232.569 161.561 233.513 161.401 234.408 161.076C235.304 160.75 236.056 160.388 236.674 159.993C237.291 159.618 237.88 159.199 238.438 158.74C238.885 158.369 239.326 157.99 239.76 157.605H240.443V164.568C239.894 164.818 239.259 165.106 238.539 165.431C237.818 165.758 237.076 166.034 236.317 166.258C235.384 166.535 234.51 166.749 233.694 166.892C232.879 167.037 231.749 167.116 230.32 167.116ZM266.023 155.381C266.023 159.055 265.01 161.95 262.99 164.067C260.965 166.183 258.107 167.239 254.408 167.239C250.736 167.239 247.884 166.183 245.848 164.067C243.811 161.95 242.794 159.055 242.794 155.381C242.794 151.671 243.811 148.759 245.848 146.659C247.884 144.558 250.736 143.507 254.408 143.507C258.091 143.507 260.949 144.563 262.979 146.68C265.01 148.791 266.023 151.691 266.023 155.381ZM258.832 155.418C258.832 154.091 258.721 152.987 258.502 152.107C258.283 151.228 257.98 150.519 257.59 149.991C257.175 149.436 256.711 149.047 256.188 148.828C255.666 148.61 255.074 148.498 254.408 148.498C253.779 148.498 253.214 148.594 252.708 148.786C252.201 148.977 251.732 149.346 251.306 149.889C250.906 150.407 250.587 151.116 250.347 152.017C250.107 152.918 249.984 154.054 249.984 155.418C249.984 156.784 250.096 157.887 250.325 158.729C250.554 159.572 250.847 160.244 251.205 160.75C251.558 161.251 252.043 161.644 252.607 161.886C253.166 162.126 253.79 162.243 254.466 162.243C255.027 162.243 255.597 162.126 256.178 161.886C256.759 161.646 257.223 161.288 257.569 160.814C257.984 160.244 258.299 159.556 258.513 158.756C258.726 157.951 258.832 156.842 258.832 155.418ZM290.639 166.541H283.629V164.072C282.414 165.08 281.3 165.847 280.287 166.37C279.274 166.892 278.064 167.154 276.662 167.154C274.434 167.154 272.691 166.456 271.444 165.053C270.197 163.656 269.573 161.55 269.573 158.735V144.195H276.619V155.275C276.619 156.426 276.652 157.37 276.71 158.1C276.769 158.831 276.913 159.444 277.142 159.95C277.345 160.403 277.694 160.775 278.133 161.006C278.581 161.246 279.205 161.363 280.004 161.363C280.5 161.363 281.081 161.246 281.758 161.006C282.424 160.77 283.054 160.442 283.629 160.031V144.195H290.639V166.541ZM317.071 166.54H310.025V155.461C310.025 154.56 309.988 153.659 309.913 152.763C309.839 151.867 309.705 151.207 309.502 150.785C309.262 150.279 308.917 149.922 308.463 149.703C308.01 149.484 307.403 149.373 306.64 149.373C306.045 149.376 305.455 149.484 304.897 149.692C304.311 149.905 303.682 150.242 303.015 150.705V166.54H296.006V144.201H303.015V146.669C304.162 145.699 305.281 144.947 306.368 144.403C307.456 143.86 308.661 143.587 309.983 143.587C312.28 143.587 314.033 144.308 315.249 145.747C316.464 147.186 317.071 149.271 317.071 152.001V166.54ZM333.292 167.138C331.437 167.138 329.736 166.903 328.196 166.439C326.656 165.975 325.318 165.261 324.182 164.291C323.063 163.32 322.189 162.105 321.56 160.638C320.931 159.172 320.617 157.444 320.617 155.456C320.617 153.323 320.958 151.505 321.64 150.007C322.322 148.509 323.244 147.277 324.401 146.307C325.52 145.379 326.842 144.691 328.356 144.249C329.894 143.802 331.488 143.578 333.089 143.582C334.332 143.582 335.573 143.726 336.815 144.009C338.058 144.296 339.305 144.75 340.563 145.373V151.34H339.662C339.38 151.073 339.038 150.785 338.628 150.465C338.208 150.139 337.762 149.846 337.295 149.591C336.788 149.314 336.213 149.079 335.573 148.887C334.934 148.695 334.219 148.6 333.431 148.6C331.639 148.6 330.254 149.218 329.273 150.46C328.292 151.702 327.802 153.366 327.802 155.461C327.802 157.7 328.324 159.375 329.374 160.473C330.424 161.571 331.815 162.126 333.548 162.126C334.427 162.126 335.206 162.025 335.872 161.827C336.538 161.63 337.114 161.39 337.594 161.113C338.021 160.866 338.423 160.576 338.793 160.249C339.129 159.95 339.411 159.684 339.656 159.444H340.557V165.41C340.157 165.58 339.694 165.784 339.166 166.008C338.639 166.232 338.1 166.418 337.556 166.562C336.874 166.748 336.239 166.892 335.643 166.988C335.051 167.09 334.267 167.138 333.292 167.138ZM351.096 141.017H343.687V135.585H351.096V141.017ZM350.893 166.541H343.884V144.201H350.893V166.541ZM363.27 166.541H356.261V135.585H363.27V166.541ZM181.973 130.839C180.867 132.414 180.124 134.215 179.798 136.113C177.283 150.594 175.566 161.843 164.431 167.868C157.502 171.616 149.826 172.054 142.827 169.734C142.038 176.378 139.447 182.914 135.002 188.395C125.301 200.354 111.021 200.088 98.1105 196.206C96.3875 195.685 94.5597 195.613 92.8012 195.998C79.5235 198.909 69.2994 201.41 59.9771 192.458C53.671 186.401 50.3768 177.982 50.1474 169.313C43.3304 171.43 35.7238 171.062 28.5865 167.681C15.1431 161.315 10.9797 146.451 10.3988 131.89C10.3237 129.953 9.82918 128.056 8.94932 126.329C2.31809 113.479 -3.01754 103.664 1.94514 91.2571C5.47357 82.4387 12.3072 76.2482 20.3242 73.5343C16.6516 67.2162 14.8229 59.4531 15.591 51.3011C17.0883 35.4345 28.8423 26.6098 41.422 21.5932C43.1065 20.9206 44.6253 19.8279 45.8516 18.3995C55.0886 7.62439 62.072 -0.879911 74.4381 0.500608C82.5778 1.4124 89.5979 5.94433 94.4108 12.5502C98.7926 6.92546 104.944 2.73468 112.204 1.04976C126.538 -2.28262 137.875 7.17092 146.132 18.6498C147.24 20.1857 148.663 21.4275 150.29 22.254C162.555 28.5083 172.139 33.1151 174.74 46.3483C176.605 55.8441 174.292 65.2969 169.117 72.6066C177.459 75.0646 184.947 81.4042 189.202 90.7079C195.736 104.986 190.139 119.286 181.973 130.839ZM180.726 91.5074C176.856 83.0461 170.054 77.2883 162.469 75.0542C167.171 68.4054 169.276 59.8158 167.581 51.1839C165.22 39.1558 156.505 34.9706 145.359 29.287C143.882 28.5346 142.587 27.41 141.58 26.0073C134.074 15.5733 123.771 6.97885 110.738 10.0124C104.139 11.5482 98.5472 15.3549 94.5654 20.4686C90.1892 14.459 83.8034 10.3431 76.4103 9.51662C65.1685 8.25814 58.8201 15.9949 50.4198 25.7833C49.3051 27.0799 47.9243 28.0763 46.3895 28.6844C34.9557 33.2427 24.2692 41.2672 22.9092 55.6895C22.2111 63.1003 23.8741 70.1596 27.2112 75.9015C19.9242 78.3699 13.7089 83.9953 10.5056 92.0143C5.99625 103.291 10.8411 112.216 16.8699 123.892C17.6699 125.439 18.1177 127.177 18.1919 128.946C18.7194 142.185 22.5036 155.696 34.7214 161.481C41.2085 164.552 48.1218 164.888 54.3212 162.963C54.5292 170.843 57.5252 178.5 63.2553 184.002C71.7304 192.143 81.0215 189.867 93.0944 187.222C94.694 186.873 96.3562 186.937 97.924 187.409C109.661 190.939 122.641 191.179 131.463 180.307C135.503 175.327 137.859 169.382 138.573 163.347C144.938 165.453 151.915 165.058 158.21 161.646C168.332 156.165 169.894 145.939 172.181 132.78C172.477 131.056 173.153 129.418 174.159 127.987C181.573 117.489 186.664 104.49 180.726 91.5074Z" fill="black"/>
</g>
<defs>
<linearGradient id="paint0_linear_1_29" x1="67.0679" y1="113.196" x2="92.4407" y2="113.307" gradientUnits="userSpaceOnUse">
<stop offset="0.001" stop-color="#234E7B"/>
<stop offset="1" stop-color="#386092"/>
</linearGradient>
<linearGradient id="paint1_linear_1_29" x1="99.3541" y1="113.341" x2="167.841" y2="113.639" gradientUnits="userSpaceOnUse">
<stop offset="0.001" stop-color="#234E7B"/>
<stop offset="1" stop-color="#386092"/>
</linearGradient>
<linearGradient id="paint2_linear_1_29" x1="70.4314" y1="80.5243" x2="115.368" y2="80.7197" gradientUnits="userSpaceOnUse">
<stop offset="0.001" stop-color="#9D1920"/>
<stop offset="1" stop-color="#7F1724"/>
</linearGradient>
<linearGradient id="paint3_linear_1_29" x1="21.6586" y1="118.605" x2="121.839" y2="119.041" gradientUnits="userSpaceOnUse">
<stop offset="0.001" stop-color="#9D1920"/>
<stop offset="1" stop-color="#7F1724"/>
</linearGradient>
<linearGradient id="paint4_linear_1_29" x1="93.0085" y1="106.579" x2="137.951" y2="106.773" gradientUnits="userSpaceOnUse">
<stop stop-color="#6C9A36"/>
<stop offset="1" stop-color="#008C49"/>
</linearGradient>
<linearGradient id="paint5_linear_1_29" x1="44.5747" y1="68.0739" x2="144.745" y2="68.5099" gradientUnits="userSpaceOnUse">
<stop stop-color="#6C9A36"/>
<stop offset="1" stop-color="#008C49"/>
</linearGradient>
<clipPath id="clip0_1_29">
<rect width="592" height="199" fill="white"/>
</clipPath>
</defs>
</svg>
