<svg xmlns="http://www.w3.org/2000/svg" width="974" height="327" fill="none" viewBox="0 0 974 327"><path fill="#fff" d="M104.502 216.15c.403.805.823 1.593 1.253 2.373 11.208-.578 21.322-6.331 27.495-15.543-.175-.333-.35-.666-.525-1.007-6.279-12.496-5.543-26.707.7-38.143a35.12 35.12 0 00-13.354-11.979c-4.422-2.268-9.133-3.556-14.036-3.827a72.937 72.937 0 00-5.569 12.671c-6.095 18.415-4.668 38.108 4.036 55.455zM234.361 150.958c-8.704-17.347-23.642-30.254-42.066-36.366-16.059-5.324-33.082-4.913-48.677 1.042 11.339 6.628 20.665 15.84 27.355 26.891 14.466.569 28.213 8.774 35.157 22.601 10.158 20.236 1.962 44.964-18.275 55.122a40.89 40.89 0 01-17.267 4.343c-6.883 11.13-16.305 20.228-27.531 26.655 1.156.446 2.329.867 3.511 1.261 18.424 6.103 38.118 4.676 55.456-4.028 17.346-8.704 30.253-23.643 36.365-42.066 6.112-18.415 4.676-38.109-4.028-55.455z"></path><path fill="#fff" d="M166.385 146.054c-6.9-11.62-16.935-21.103-29.264-27.417-9.982-5.122-20.77-7.811-31.664-8.021-4.868 9.65-5.245 21.366-.148 31.629a40.795 40.795 0 0117.399 4.501 40.85 40.85 0 0116.252 15.07 35.4 35.4 0 0015.473-4.563c4.868-2.793 8.923-6.602 11.952-11.199zM138.828 204.959c-11.147 17.96-34.474 24.658-53.607 14.851-20.149-10.333-28.126-35.131-17.793-55.28.149-.289.297-.578.455-.867-6.226-11.576-9.396-24.273-9.37-37.119-7.898 6.323-14.439 14.3-19.194 23.564-8.853 17.268-10.464 36.953-4.51 55.42 5.946 18.468 18.73 33.52 35.999 42.382 17.268 8.853 36.952 10.464 55.42 4.509 18.467-5.945 33.52-18.73 42.381-35.998 3.555-6.935 5.946-14.264 7.146-21.742-11.331 6.453-24.046 9.982-36.927 10.28z"></path><path fill="#fff" d="M157.278 162.236a40.768 40.768 0 01-19.325 5.359c-4.852 9.597-5.281 21.287-.158 31.628 12.198-.122 24.229-3.345 35.122-9.553s19.808-14.921 26.13-25.359c-6.042-9.334-16.095-15.245-27.294-15.989a40.828 40.828 0 01-14.475 13.914zM95.02 158.882a79.279 79.279 0 015.674-13.056c-10.377-19.509-3.398-43.94 15.928-54.947 19.317-11.007 43.879-4.57 55.385 14.291a78.519 78.519 0 0122.11 3.975 78.955 78.955 0 0114.711 6.603c-1.313-8.739-4.247-17.25-8.748-25.158-9.606-16.856-25.21-28.967-43.922-34.098-18.713-5.131-38.31-2.662-55.167 6.944-16.873 9.606-28.984 25.21-34.115 43.923-5.131 18.712-2.662 38.31 6.944 55.166 4.5 7.907 10.333 14.763 17.18 20.341a78.503 78.503 0 014.02-23.984zM369.195 76.43l-10.894 42.724h-11.838l-6.901-26.427-6.698 26.427h-11.848l-10.893-42.723h11.208l5.92 28.66 7.224-28.66h10.718l6.848 28.66 6.243-28.66h10.911zM390.543 120.012c-6.121 0-10.814-1.454-14.08-4.361s-4.895-7.049-4.895-12.425c0-5.263 1.523-9.457 4.562-12.592 3.047-3.135 7.303-4.703 12.767-4.703 4.965 0 8.704 1.332 11.208 3.985 2.505 2.662 3.757 6.462 3.757 11.418v3.617h-22.154c.096 1.488.411 2.74.954 3.747.543 1.007 1.253 1.804 2.137 2.4.867.595 1.874 1.016 3.03 1.278 1.156.254 2.417.385 3.783.385 1.173 0 2.329-.131 3.467-.385a16.208 16.208 0 003.117-1.016 19.443 19.443 0 002.295-1.173c.7-.42 1.278-.797 1.716-1.121h1.068v8.293c-.832.324-1.585.63-2.268.902-.683.28-1.62.56-2.819.849a29.815 29.815 0 01-3.398.674c-1.147.149-2.565.228-4.247.228zm3.354-21.112c-.061-2.12-.552-3.74-1.489-4.851-.937-1.112-2.364-1.664-4.29-1.664-1.962 0-3.503.587-4.606 1.751-1.104 1.165-1.716 2.759-1.83 4.764h12.215zM418.94 120.038c-2.39 0-4.65-.254-6.777-.77-2.128-.517-3.888-1.121-5.272-1.804v-8.494h.841c.481.368 1.033.762 1.646 1.208.613.438 1.471.902 2.574 1.375.946.438 2.006.815 3.197 1.13 1.182.315 2.469.473 3.852.473 1.428 0 2.68-.219 3.774-.657 1.086-.438 1.629-1.138 1.629-2.093 0-.744-.254-1.313-.753-1.69-.499-.385-1.471-.744-2.916-1.094a49.963 49.963 0 00-2.916-.613 25.87 25.87 0 01-3.117-.762c-2.539-.788-4.457-1.944-5.736-3.485-1.278-1.542-1.917-3.564-1.917-6.069 0-1.436.332-2.784.998-4.063.665-1.27 1.637-2.408 2.933-3.397 1.288-.972 2.881-1.752 4.781-2.32 1.901-.579 4.037-.859 6.428-.859 2.276 0 4.361.228 6.269.674 1.909.447 3.512.99 4.825 1.62v8.153h-.805c-.351-.272-.894-.63-1.647-1.077a22.4 22.4 0 00-2.197-1.165c-.85-.385-1.796-.7-2.846-.946a14.162 14.162 0 00-3.223-.376c-1.462 0-2.705.245-3.712.744-1.016.5-1.515 1.156-1.515 1.98 0 .726.254 1.304.753 1.724.499.42 1.585.832 3.266 1.235.867.21 1.865.42 2.995.613a23.84 23.84 0 013.248.814c2.33.744 4.098 1.839 5.298 3.284 1.2 1.445 1.804 3.362 1.804 5.753a9.24 9.24 0 01-1.068 4.317c-.71 1.366-1.725 2.522-3.03 3.459-1.384 1.015-3.021 1.795-4.895 2.355-1.9.552-4.151.823-6.769.823zM451.935 119.784c-4.124 0-7.119-.84-9.002-2.522-1.883-1.681-2.819-4.439-2.819-8.266V93.935h-3.871v-6.996h3.871v-9.212h10.113v9.212h9.738v6.996h-9.738v11.419c0 1.129.009 2.11.027 2.95.017.841.175 1.594.464 2.268.271.666.744 1.2 1.427 1.594.683.394 1.681.587 2.995.587.543 0 1.243-.114 2.128-.342.875-.227 1.488-.438 1.83-.63h.867v7.084c-1.095.289-2.26.508-3.494.674-1.235.166-2.741.245-4.536.245zM350.561 189.661h-10.403l-16.585-29.781v29.781h-9.877v-42.723h13.257l13.722 24.475v-24.475h9.877v42.723h.009zM389.851 173.567c0 5.298-1.462 9.474-4.378 12.522-2.916 3.047-7.04 4.579-12.382 4.579-5.298 0-9.413-1.523-12.347-4.579-2.933-3.048-4.404-7.224-4.404-12.522 0-5.359 1.471-9.554 4.404-12.583 2.934-3.03 7.049-4.545 12.347-4.545 5.315 0 9.44 1.524 12.364 4.58 2.934 3.047 4.396 7.233 4.396 12.548zm-10.368.052c0-1.909-.157-3.502-.473-4.781-.315-1.269-.753-2.294-1.313-3.056-.595-.805-1.27-1.366-2.023-1.681-.753-.315-1.611-.473-2.574-.473-.902 0-1.725.14-2.452.421-.736.28-1.41.805-2.023 1.593-.578.744-1.042 1.769-1.383 3.074-.351 1.304-.517 2.933-.517 4.903 0 1.971.166 3.564.49 4.781.324 1.218.753 2.19 1.27 2.916a4.868 4.868 0 002.023 1.638c.805.35 1.707.516 2.688.516.806 0 1.629-.175 2.469-.516.841-.342 1.507-.858 2.006-1.55.595-.823 1.051-1.813 1.357-2.969.298-1.164.455-2.767.455-4.816zM417.005 166.938h-.84c-.385-.131-.946-.236-1.673-.298a25.849 25.849 0 00-2.425-.096c-1.06 0-2.172.158-3.336.455a31.463 31.463 0 00-3.398 1.095v21.576h-10.114v-32.215h10.114v4.623c.464-.42 1.103-.954 1.918-1.593.814-.64 1.567-1.156 2.241-1.533.736-.438 1.585-.814 2.557-1.129.972-.316 1.892-.473 2.759-.473.324 0 .691.009 1.094.026.403.018.771.044 1.095.088v9.474h.008zM433.301 190.292c-4.124 0-7.119-.841-9.002-2.522-1.882-1.681-2.819-4.44-2.819-8.266v-15.061h-3.871v-6.997h3.871v-9.212h10.114v9.212h9.737v6.997h-9.737v11.418c0 1.13.008 2.11.026 2.951.017.841.175 1.594.464 2.268.271.665.744 1.2 1.427 1.594.683.394 1.681.586 2.995.586.543 0 1.243-.113 2.128-.341.875-.228 1.488-.438 1.83-.631h.867v7.084a28.856 28.856 0 01-3.494.675c-1.235.166-2.741.245-4.536.245zM475.858 189.661h-10.167v-15.98c0-1.305-.052-2.601-.157-3.888-.105-1.288-.307-2.242-.596-2.855-.35-.727-.849-1.252-1.506-1.567-.656-.316-1.532-.473-2.627-.473-.832 0-1.663.157-2.513.455-.849.307-1.751.797-2.714 1.462v22.837h-10.114v-44.64h10.114v15.98c1.655-1.392 3.266-2.486 4.842-3.275 1.567-.788 3.31-1.173 5.219-1.173 3.31 0 5.849 1.033 7.601 3.109 1.751 2.075 2.626 5.078 2.626 9.019v20.989h-.008zM501.217 186.246a382.24 382.24 0 01-1.865 1.55c-.552.455-1.287.92-2.207 1.375-.902.438-1.786.77-2.644 1.007-.858.228-2.058.341-3.599.341-2.872 0-5.254-.954-7.145-2.872-1.901-1.909-2.846-4.325-2.846-7.233 0-2.39.481-4.325 1.444-5.796.964-1.472 2.347-2.636 4.16-3.503 1.83-.876 4.019-1.489 6.558-1.839 2.54-.35 5.281-.613 8.205-.806v-.175c0-1.777-.656-3.003-1.979-3.686-1.322-.674-3.301-1.016-5.937-1.016-1.19 0-2.592.219-4.185.648a32.575 32.575 0 00-4.676 1.646h-.867v-7.776c.998-.288 2.618-.63 4.851-1.015a38.798 38.798 0 016.76-.587c5.587 0 9.65.919 12.207 2.767 2.548 1.848 3.826 4.659 3.826 8.45v21.918h-10.052v-3.398h-.009zm0-4.991v-6.716c-1.716.175-3.1.324-4.159.446a13.81 13.81 0 00-3.118.736c-.884.306-1.576.77-2.066 1.392-.491.622-.736 1.445-.736 2.478 0 1.515.412 2.548 1.226 3.109.815.56 2.023.849 3.625.849.885 0 1.795-.201 2.715-.604a8.409 8.409 0 002.513-1.69zM557.521 189.661v-16.094c0-1.585-.026-2.925-.087-4.019-.061-1.095-.228-1.979-.517-2.671-.289-.692-.735-1.191-1.339-1.506-.605-.316-1.463-.473-2.557-.473-.771 0-1.533.166-2.286.499-.753.333-1.567.806-2.452 1.418v22.837h-10.166v-16.094c0-1.567-.035-2.898-.105-4.002-.07-1.103-.245-1.996-.534-2.679-.289-.683-.736-1.191-1.34-1.506-.604-.316-1.445-.473-2.531-.473-.831 0-1.637.192-2.425.578-.788.385-1.559.832-2.312 1.348v22.837h-10.114v-32.215h10.114v3.555c1.655-1.392 3.214-2.487 4.676-3.275 1.462-.788 3.109-1.173 4.939-1.173 1.987 0 3.73.473 5.227 1.41 1.507.937 2.645 2.338 3.442 4.185 1.944-1.795 3.783-3.178 5.499-4.142 1.725-.963 3.467-1.444 5.245-1.444 1.506 0 2.855.236 4.046.718a7.8 7.8 0 013.029 2.154c.902 1.033 1.585 2.259 2.041 3.686.455 1.428.674 3.284.674 5.578v20.972h-10.167v-.009zM606.978 173.103c0 5.149-1.313 9.299-3.94 12.451-2.627 3.153-5.867 4.738-9.72 4.738-1.62 0-3.021-.184-4.221-.543-1.191-.359-2.469-.928-3.809-1.69v13.424h-10.114v-44.037h10.114v3.354c1.48-1.261 2.995-2.286 4.536-3.074 1.541-.788 3.319-1.173 5.341-1.173 3.757 0 6.664 1.48 8.722 4.448 2.066 2.96 3.091 6.997 3.091 12.102zm-10.341.201c0-3.135-.491-5.411-1.463-6.83-.972-1.419-2.487-2.119-4.553-2.119-.902 0-1.804.14-2.706.429-.893.289-1.778.718-2.644 1.287v16.209a7.356 7.356 0 001.777.49c.648.096 1.41.14 2.294.14 2.47 0 4.291-.797 5.491-2.399 1.208-1.585 1.804-3.993 1.804-7.207zM624.832 190.292c-4.124 0-7.119-.841-9.001-2.522-1.883-1.681-2.82-4.44-2.82-8.266v-15.061h-3.87v-6.997h3.87v-9.212h10.114v9.212h9.737v6.997h-9.737v11.418c0 1.13.009 2.11.026 2.951.018.841.175 1.594.464 2.268.272.665.744 1.2 1.427 1.594.684.394 1.682.586 2.995.586.543 0 1.244-.113 2.128-.341.876-.228 1.489-.438 1.83-.631h.867v7.084a28.856 28.856 0 01-3.494.675c-1.226.166-2.741.245-4.536.245zM668.142 173.567c0 5.298-1.462 9.474-4.378 12.522-2.916 3.047-7.04 4.579-12.382 4.579-5.298 0-9.413-1.523-12.347-4.579-2.933-3.048-4.404-7.224-4.404-12.522 0-5.359 1.471-9.554 4.404-12.583 2.934-3.03 7.049-4.545 12.347-4.545 5.315 0 9.44 1.524 12.364 4.58 2.934 3.047 4.396 7.233 4.396 12.548zm-10.376.052c0-1.909-.158-3.502-.473-4.781-.315-1.269-.753-2.294-1.314-3.056-.595-.805-1.269-1.366-2.022-1.681-.754-.315-1.612-.473-2.575-.473-.902 0-1.725.14-2.452.421-.735.28-1.41.805-2.022 1.593-.578.744-1.043 1.769-1.384 3.074-.35 1.304-.517 2.933-.517 4.903 0 1.971.167 3.564.491 4.781.324 1.218.753 2.19 1.269 2.916a4.874 4.874 0 002.023 1.638c.806.35 1.708.516 2.688.516.806 0 1.629-.175 2.47-.516.84-.342 1.506-.858 2.005-1.55.595-.823 1.051-1.813 1.357-2.969.307-1.164.456-2.767.456-4.816zM703.904 189.661h-10.167v-15.98c0-1.305-.052-2.601-.157-3.888-.105-1.287-.307-2.242-.596-2.855-.35-.727-.849-1.252-1.506-1.567-.657-.315-1.532-.473-2.627-.473-.832 0-1.664.158-2.513.455-.849.307-1.751.797-2.714 1.463v22.837H673.51v-32.216h10.114v3.556c1.655-1.393 3.266-2.487 4.842-3.275 1.567-.789 3.31-1.174 5.219-1.174 3.31 0 5.849 1.033 7.6 3.109 1.752 2.075 2.627 5.079 2.627 9.019v20.989h-.008zM721.268 190.546c-2.39 0-4.649-.254-6.777-.771-2.128-.516-3.888-1.121-5.272-1.804v-8.494h.841c.481.368 1.033.762 1.646 1.209.613.438 1.471.902 2.575 1.375.945.437 2.005.814 3.196 1.129 1.182.315 2.469.473 3.853.473 1.427 0 2.679-.219 3.774-.657 1.085-.437 1.628-1.138 1.628-2.092 0-.745-.254-1.314-.753-1.69-.499-.386-1.471-.745-2.916-1.095a50.81 50.81 0 00-2.916-.613 25.87 25.87 0 01-3.117-.762c-2.539-.788-4.457-1.944-5.735-3.485-1.279-1.541-1.918-3.564-1.918-6.068 0-1.436.333-2.785.998-4.063.666-1.27 1.638-2.408 2.934-3.398 1.287-.972 2.88-1.751 4.781-2.32 1.9-.578 4.036-.858 6.427-.858 2.277 0 4.361.227 6.27.674 1.908.446 3.511.989 4.824 1.62v8.152h-.805c-.35-.271-.893-.63-1.646-1.077a22.337 22.337 0 00-2.198-1.164 15.22 15.22 0 00-2.846-.946 14.174 14.174 0 00-3.223-.377c-1.462 0-2.705.245-3.712.745-1.016.499-1.515 1.155-1.515 1.979 0 .726.254 1.304.753 1.725.499.42 1.585.831 3.266 1.234.867.21 1.865.421 2.995.613a23.84 23.84 0 013.248.815c2.33.744 4.098 1.838 5.298 3.283 1.2 1.445 1.804 3.363 1.804 5.753a9.24 9.24 0 01-1.068 4.317c-.71 1.366-1.725 2.522-3.03 3.459-1.384 1.016-3.021 1.795-4.895 2.356-1.9.551-4.151.823-6.769.823zM772.231 189.661h-10.166v-15.98c0-1.305-.053-2.601-.158-3.888-.105-1.288-.306-2.242-.595-2.855-.35-.727-.849-1.252-1.506-1.567-.657-.316-1.533-.473-2.627-.473-.832 0-1.664.157-2.513.455-.85.307-1.752.797-2.715 1.462v22.837h-10.114v-44.64h10.114v15.98c1.655-1.392 3.266-2.486 4.843-3.275 1.567-.788 3.31-1.173 5.218-1.173 3.31 0 5.85 1.033 7.601 3.109 1.751 2.075 2.627 5.078 2.627 9.019v20.989h-.009zM790.112 152.849H779.42v-7.828h10.692v7.828zm-.289 36.812h-10.114v-32.215h10.114v32.215zM819.35 166.938h-.84c-.386-.131-.946-.236-1.673-.298a25.849 25.849 0 00-2.425-.096c-1.06 0-2.172.158-3.337.455a31.517 31.517 0 00-3.397 1.095v21.576h-10.114v-32.215h10.114v4.623a36.92 36.92 0 011.917-1.593c.815-.64 1.568-1.156 2.242-1.533.736-.438 1.585-.814 2.557-1.129.972-.316 1.891-.473 2.758-.473.324 0 .692.009 1.095.026.403.018.77.044 1.094.088v9.474h.009zM839.832 190.519c-6.121 0-10.815-1.453-14.081-4.36s-4.895-7.049-4.895-12.426c0-5.262 1.524-9.457 4.563-12.592 3.047-3.135 7.303-4.702 12.767-4.702 4.965 0 8.704 1.331 11.208 3.984 2.504 2.662 3.756 6.463 3.756 11.419v3.616h-22.154c.097 1.489.412 2.741.955 3.748.543 1.007 1.252 1.804 2.137 2.399.866.596 1.873 1.016 3.029 1.279 1.156.254 2.417.385 3.783.385 1.173 0 2.329-.131 3.468-.385a16.3 16.3 0 003.117-1.016 19.35 19.35 0 002.294-1.173 22.193 22.193 0 001.717-1.121h1.068v8.292c-.832.324-1.585.631-2.268.902-.683.28-1.62.561-2.82.85a30.017 30.017 0 01-3.397.674c-1.156.149-2.575.227-4.247.227zm3.345-21.112c-.061-2.119-.552-3.739-1.489-4.851s-2.364-1.663-4.291-1.663c-1.961 0-3.502.586-4.605 1.751-1.104 1.165-1.717 2.758-1.831 4.763h12.216zM332.251 261.001c-6.453 0-11.576-1.935-15.367-5.806-3.792-3.87-5.692-9.317-5.692-16.34 0-6.768 1.9-12.171 5.709-16.199 3.8-4.028 8.932-6.042 15.385-6.042 1.717 0 3.258.096 4.624.289 1.366.193 2.679.455 3.931.805.981.289 2.049.683 3.205 1.174 1.156.499 2.093.928 2.802 1.287v10.184h-1.094a65.233 65.233 0 00-1.962-1.646 24.291 24.291 0 00-2.688-1.883 18.247 18.247 0 00-3.31-1.567 11.12 11.12 0 00-3.765-.648c-1.559 0-2.995.245-4.291.735-1.305.491-2.539 1.331-3.713 2.54-1.077 1.094-1.961 2.565-2.644 4.422-.683 1.856-1.025 4.045-1.025 6.567 0 2.662.359 4.895 1.069 6.699.709 1.804 1.646 3.266 2.802 4.378 1.121 1.068 2.364 1.848 3.739 2.32 1.375.482 2.749.718 4.115.718 1.428 0 2.785-.236 4.072-.7 1.287-.464 2.382-.99 3.266-1.567.964-.596 1.813-1.2 2.54-1.804a79.34 79.34 0 001.909-1.638h.98v10.044c-.788.368-1.707.779-2.74 1.252a24.727 24.727 0 01-3.205 1.191 34.57 34.57 0 01-3.783.919c-1.173.211-2.811.316-4.869.316zM383.757 244.074c0 5.298-1.463 9.475-4.378 12.522-2.916 3.047-7.041 4.58-12.382 4.58-5.298 0-9.413-1.524-12.347-4.58-2.933-3.047-4.404-7.224-4.404-12.522 0-5.359 1.471-9.544 4.404-12.583 2.934-3.03 7.049-4.544 12.347-4.544 5.315 0 9.439 1.523 12.364 4.579 2.933 3.047 4.396 7.233 4.396 12.548zm-10.368.062c0-1.909-.158-3.503-.473-4.773-.315-1.269-.753-2.294-1.313-3.056-.596-.805-1.27-1.366-2.023-1.681-.753-.315-1.611-.473-2.574-.473-.902 0-1.725.14-2.452.412-.736.28-1.41.805-2.023 1.593-.578.745-1.042 1.769-1.384 3.074-.35 1.305-.516 2.933-.516 4.904 0 1.97.166 3.563.49 4.772.324 1.217.753 2.189 1.27 2.916a4.873 4.873 0 002.023 1.637c.805.342 1.707.517 2.688.517.806 0 1.629-.175 2.469-.517.841-.341 1.506-.858 2.006-1.55.595-.823 1.05-1.812 1.357-2.968.297-1.165.455-2.767.455-4.807zM419.264 260.169h-10.113v-3.555c-1.752 1.453-3.363 2.557-4.825 3.31-1.462.753-3.205 1.129-5.228 1.129-3.213 0-5.727-1.007-7.522-3.03-1.803-2.014-2.705-5.052-2.705-9.106v-20.972h10.166v15.98c0 1.664.044 3.021.131 4.072.088 1.051.298 1.944.622 2.671a3.26 3.26 0 001.427 1.524c.648.341 1.541.516 2.697.516.71 0 1.559-.175 2.531-.516a10.79 10.79 0 002.706-1.41v-22.837h10.113v32.224zM457.399 260.169h-10.166v-15.981a47.96 47.96 0 00-.158-3.888c-.105-1.287-.306-2.241-.595-2.854-.35-.727-.849-1.244-1.506-1.568-.657-.315-1.533-.473-2.627-.473-.832 0-1.664.149-2.513.456-.85.306-1.752.797-2.715 1.462v22.837h-10.114v-32.215h10.114v3.555c1.655-1.392 3.266-2.487 4.843-3.275 1.576-.788 3.309-1.173 5.218-1.173 3.31 0 5.85 1.042 7.601 3.117 1.751 2.075 2.627 5.079 2.627 9.019v20.981h-.009zM480.797 261.027c-2.68 0-5.132-.333-7.356-1.007-2.224-.666-4.159-1.699-5.796-3.1-1.62-1.392-2.881-3.152-3.783-5.263-.902-2.11-1.358-4.605-1.358-7.469 0-3.082.491-5.7 1.472-7.863.98-2.163 2.311-3.941 3.984-5.333 1.62-1.34 3.52-2.329 5.709-2.968a24.217 24.217 0 016.83-.964c1.795 0 3.581.211 5.377.613 1.795.412 3.59 1.069 5.402 1.962v8.608h-1.296a19.037 19.037 0 00-1.488-1.261 15.028 15.028 0 00-1.918-1.261 12.346 12.346 0 00-2.487-1.016c-.928-.28-1.952-.42-3.091-.42-2.583 0-4.579.893-5.998 2.679-1.419 1.786-2.128 4.194-2.128 7.215 0 3.232.753 5.64 2.268 7.233 1.515 1.594 3.52 2.382 6.025 2.382 1.269 0 2.39-.14 3.353-.429.964-.289 1.795-.63 2.487-1.033.674-.403 1.252-.815 1.734-1.252.482-.43.893-.815 1.243-1.165h1.296v8.608c-.578.245-1.243.534-2.005.858-.762.324-1.532.595-2.329.805-.981.272-1.9.473-2.758.613-.85.158-1.988.228-3.389.228zM506.479 223.356h-10.691v-7.828h10.691v7.828zm-.289 36.813h-10.113v-32.215h10.113v32.215zM524.045 260.169h-10.114v-44.641h10.114v44.641z"></path><path fill="#fff" d="M262.505 208.68a18.812 18.812 0 00-3.135 7.61c-3.634 20.884-6.112 37.11-22.171 45.805-9.991 5.412-21.068 6.033-31.165 2.697-1.138 9.58-4.868 19.011-11.287 26.909-13.993 17.242-34.597 16.865-53.222 11.27a15.164 15.164 0 00-7.662-.298c-19.15 4.203-33.905 7.811-47.346-5.105-9.098-8.73-13.853-20.884-14.177-33.38-9.834 3.047-20.814 2.522-31.103-2.355-19.387-9.177-25.394-30.613-26.235-51.62-.114-2.811-.823-5.569-2.093-8.021-9.57-18.529-17.259-32.688-10.105-50.578 5.088-12.723 14.948-21.646 26.515-25.56-5.298-9.116-7.942-20.306-6.83-32.066 2.163-22.881 19.116-35.613 37.268-42.846 2.434-.972 4.623-2.548 6.392-4.606 13.336-15.534 23.397-27.802 41.243-25.814 11.743 1.313 21.874 7.846 28.818 17.381 6.322-8.108 15.192-14.15 25.665-16.584 20.674-4.808 37.032 8.826 48.94 25.376 1.594 2.215 3.652 4.002 5.999 5.201 17.688 9.02 31.523 15.666 35.271 34.746 2.688 13.695-.648 27.329-8.109 37.872 12.041 3.547 22.837 12.688 28.976 26.112 9.404 20.569 1.331 41.191-10.447 57.854zm-1.795-56.724c-5.578-12.198-15.394-20.508-26.339-23.73 6.786-9.589 9.816-21.971 7.373-34.422-3.407-17.347-15.981-23.389-32.058-31.585-2.128-1.086-4.002-2.706-5.447-4.729-10.831-15.043-25.691-27.443-44.492-23.073-9.518 2.215-17.583 7.706-23.327 15.079-6.313-8.66-15.525-14.606-26.191-15.797-16.217-1.813-25.376 9.343-37.495 23.459a14.95 14.95 0 01-5.814 4.185c-16.498 6.576-31.91 18.144-33.87 38.949-1.008 10.692 1.392 20.867 6.208 29.151-10.508 3.555-19.475 11.672-24.098 23.24-6.506 16.269.49 29.132 9.185 45.98 1.156 2.233 1.804 4.737 1.91 7.294.761 19.089 6.216 38.581 23.843 46.926 9.352 4.431 19.335 4.913 28.275 2.137.298 11.366 4.624 22.408 12.89 30.341 12.224 11.743 25.63 8.459 43.038 4.641a13.8 13.8 0 016.961.272c16.936 5.087 35.657 5.429 48.38-10.245 5.832-7.181 9.23-15.753 10.263-24.457 9.177 3.038 19.247 2.469 28.327-2.452 14.597-7.907 16.857-22.653 20.149-41.637a17.075 17.075 0 012.855-6.918c10.691-15.14 18.038-33.888 9.474-52.609z"></path></svg>