<svg xmlns="http://www.w3.org/2000/svg" width="90" height="24" viewBox="0 0 90 24">
  <g fill="none" fill-rule="evenodd">
    <path fill="#FFF" fill-rule="nonzero" d="M30.08413,0.000907045404 C30.4951262,0.00183316677 31.0290666,0.00356964432 31.6859511,0.00611647807 C34.1358387,0.275776564 36.3940166,1.45827997 38.0106562,3.31850628 C38.4948592,3.87664015 38.4948592,4.70578089 37.9982778,5.27791659 C37.7168347,5.59034015 37.3173614,5.77054212 36.8950172,5.77488858 C36.4592669,5.77855084 36.0437793,5.59093126 35.7596654,5.26290374 C34.7015856,4.04580376 33.2485276,3.24503367 31.6607414,2.99693571 L31.2237701,2.93231843 C31.0360593,2.91784407 30.9091111,2.9104181 30.8429257,2.91004051 L30.8435844,7.229 L31.0342,7.22955207 C33.9299436,7.22423858 36.6088342,8.69954252 38.1564976,11.1075014 C38.1587437,11.0985624 38.1981235,11.160706 38.2713838,11.2940515 C38.3560728,11.4310518 38.4352202,11.5702784 38.5106482,11.7122453 C38.5370889,11.7620106 38.5569194,11.7993347 38.5701397,11.8242173 C38.6155807,11.9097441 38.6685784,12.0266759 38.7291329,12.1750127 L38.7392914,12.1956642 C38.889294,12.5315426 39.0177178,12.8766346 39.1237814,13.2288412 L39.1660285,13.3691314 L39.2109719,13.5183754 C39.2906377,13.850604 39.3438716,14.1039755 39.3706737,14.2784901 C39.3977105,14.4545329 39.4252349,14.7269974 39.4532469,15.0958835 C39.5476447,16.639034 39.2089084,18.2111993 38.4698517,19.5804508 L38.4258721,19.6567609 C38.3555628,19.7839417 38.1983614,20.0366269 37.9357758,20.4320895 C37.9219544,20.452905 37.89025,20.4946535 37.8406625,20.5573351 C37.375357,21.1819142 36.8258654,21.7386829 36.2081064,22.2119727 C36.1428014,22.2623913 36.089667,22.30352 36.0464478,22.3352573 C35.9449022,22.4098254 35.789025,22.5158493 35.5788161,22.6533289 C35.1634267,22.9167901 34.7256868,23.1431505 34.2706842,23.3298211 C34.2047422,23.3568747 34.1384536,23.383088 34.0718344,23.4084545 C34.0054911,23.433716 33.9388239,23.458136 33.8718486,23.4817084 C33.3717113,23.6491854 32.9961901,23.7590903 32.745285,23.811423 C32.5626363,23.8495192 32.3114363,23.9045131 31.998764,23.938132 L31.9643764,23.9436351 C31.8736578,23.9590519 31.6189329,23.9997709 31.0055695,23.9997709 L29.4593137,23.9997754 C26.5743154,23.9997754 23.8285606,22.7647899 21.7480038,20.5532334 C21.5322724,20.3335213 21.3932995,20.059377 21.3405379,19.7648833 C21.328484,19.6976035 21.3209298,19.6292615 21.317988,19.5602638 C19.1192644,22.269183 15.7617724,24.0001132 12,24.0001132 C5.372583,24.0001132 0,18.6275302 0,12.0001132 C0,5.37269623 5.372583,0.000113227092 12,0.000113227092 C16.1738626,0.000113227092 19.850018,2.13105135 21.9998781,5.36433966 L22.0166545,5.32903255 C22.0842642,5.18985555 22.1856788,4.98109006 22.3208982,4.70273606 C22.858636,3.59578393 23.6334917,2.62060608 24.6161847,1.82624603 L25.0176962,1.52314339 C26.2873242,0.624722866 27.7839434,0.100692654 29.3370553,0.0107274827 C29.3735975,0.00870642671 29.4644655,-0.000239170116 29.5,4.90014601e-06 L30.08413,0.000907045404 Z M59.0280204,2.14855073 C59.6254246,2.14855073 60.1142318,2.62673137 60.1253264,3.24374728 L60.1250356,4.66712805 C60.1775533,4.65939693 60.2312748,4.65539329 60.2859201,4.65539329 L61.146778,4.65540245 C61.3388098,4.65458057 61.520426,4.70345421 61.6786608,4.7901453 C62.1268077,4.58723865 62.6166036,4.48500967 63.1095597,4.49849526 C64.3325804,4.49849526 65.2208888,5.01074086 65.7360307,5.92455633 C66.4360373,5.04529669 67.4812454,4.50206484 68.606482,4.50212088 C69.1068315,4.49505079 69.5962324,4.59866847 70.042352,4.79885252 C70.2034696,4.70660926 70.3895468,4.65454847 70.5861895,4.65539329 L71.4513273,4.65539329 C71.6844569,4.65539329 71.9007711,4.72826256 72.078543,4.85255602 C72.2541191,4.73072068 72.4689655,4.65891909 72.7003809,4.65891909 L73.5665463,4.65892825 C73.7593118,4.65810323 73.9415819,4.70735415 74.1002416,4.79466629 C74.5484606,4.5929889 75.0411523,4.49053616 75.5442709,4.50204083 C76.7722356,4.50573007 77.6606284,5.02556229 78.1699666,5.94886897 C78.8615472,5.04849411 79.9380227,4.49144367 81.2031454,4.49144367 C82.1486663,4.49144367 83.0540046,4.72670089 83.7119662,5.40232278 L83.8171783,5.51732774 C84.4769259,4.88077289 85.3687734,4.50202106 86.3886641,4.50202106 C88.6685526,4.50202106 90,6.09075311 90,8.61882672 C90,9.01613874 89.7885835,9.363479 89.4725488,9.55543337 L89.7283068,10.2415604 C89.9122224,10.6895448 89.7777355,11.2066649 89.3991137,11.5084635 C88.5594762,12.2167863 87.5101283,12.4958781 86.3886641,12.4958781 C85.3920015,12.4958781 84.5322666,12.1608065 83.8866586,11.5819485 L83.8205298,11.6453602 C83.1279734,12.2159654 82.2322662,12.4958781 81.1925302,12.4958781 C80.1791408,12.4958781 79.292613,12.1418643 78.626502,11.5412713 C78.4966474,11.9967931 78.0749335,12.3301655 77.57629,12.3301655 L76.6315383,12.3301655 C76.0272871,12.3301655 75.5360017,11.8406295 75.5360017,11.234969 L75.5360017,8.49894958 C75.5360017,8.31274416 75.5355395,8.22984005 75.5333352,8.13028262 C75.5260268,7.80020394 75.4979627,7.58484285 75.4541974,7.47196191 C75.4371685,7.47444808 75.4144114,7.47866718 75.3701003,7.47866718 C75.1073117,7.47866718 74.7406692,7.74150147 74.7406692,7.79378993 L74.7406692,11.234969 C74.7406692,11.5261855 74.6246616,11.8052545 74.4185322,12.0106493 C74.2130889,12.2153614 73.934937,12.3301655 73.6451325,12.3301655 L72.7003809,12.3301655 C72.4715369,12.3301655 72.2588956,12.2599507 72.0830078,12.1398051 C71.9055407,12.2662574 71.6870282,12.340743 71.4513273,12.340743 L70.5065756,12.340743 C70.3211372,12.340743 70.1463382,12.2946379 69.993113,12.2132206 C69.5639959,12.3992867 69.0965977,12.4975162 68.6186283,12.4958969 C67.6715771,12.4954385 66.8343702,12.1664813 66.1912228,11.6077551 C66.0385446,12.0299865 65.6333882,12.3301655 65.16006,12.3301655 L64.2170775,12.3301655 C63.6128263,12.3301655 63.1215409,11.8406295 63.1215409,11.234969 L63.1212338,8.31750636 C63.1208854,8.24389868 63.1201826,8.19020815 63.1188459,8.13054292 C63.1114766,7.8015837 63.0832296,7.58733937 63.0366728,7.46863129 C63.022191,7.47435127 62.9997285,7.47866718 62.9556395,7.47866718 C62.6917836,7.47866718 62.3262083,7.74091456 62.3262083,7.79378993 L62.3260419,11.2532153 C62.3151147,11.8519843 61.826307,12.3301655 61.2289025,12.3301655 L60.2859201,12.3301655 C60.0602867,12.3301655 59.8417166,12.2605744 59.6590262,12.1331424 C59.4806796,12.2581582 59.2627243,12.3319672 59.0280204,12.3319285 L58.0850381,12.3319285 C57.90167,12.3319285 57.7287051,12.2868471 57.5767156,12.2071198 C57.146426,12.3958968 56.6772547,12.4962392 56.197304,12.4958788 C54.1847958,12.4958788 52.6696698,11.0177299 52.4547238,8.9977718 L52.437,8.79 L52.4073663,8.98718551 C52.3625989,9.30445681 52.3408562,9.55747888 52.3408562,9.74620072 L52.3408561,11.2347975 C52.3409067,11.5295668 52.2221085,11.8117504 52.0115689,12.0177255 C51.8019647,12.2227864 51.5190821,12.3350918 51.2435502,12.3301971 L50.3005679,12.3301971 C49.6962205,12.3301971 49.2050311,11.8405326 49.2050311,11.234969 L49.2056805,10.7501517 C48.8092161,11.2181165 48.3330729,11.6110691 47.7992293,11.9049361 C47.9278993,11.9672375 48.0550014,12.0390018 48.1798996,12.1168341 C48.4201548,12.2783428 48.587248,12.52809 48.6427498,12.8029518 C48.7077924,13.1099641 48.6372906,13.4299956 48.465416,13.6593012 L47.97507,14.3535836 C47.6567239,14.7925404 47.0660052,14.9334763 46.5282315,14.6556227 C46.2363611,14.4817887 45.907682,14.3781466 45.6422701,14.3557366 C45.3434788,14.3557366 45.2463731,14.4257229 45.2461107,14.5368681 C45.2460417,14.5398801 45.40791,14.6520777 45.9368052,14.8029381 C46.7753468,15.0247945 47.4720548,15.3508062 48.0069,15.7751147 L48.0056816,14.9646463 C48.0166077,14.3659273 48.5053668,13.8876796 49.1028209,13.8876796 L50.0475726,13.8876796 C50.337477,13.8876796 50.6156,14.0025708 50.8209723,14.2072122 C51.0271025,14.4126088 51.1431092,14.6916771 51.1431092,14.9828926 L51.1431606,17.8278182 C51.1439396,18.3477169 51.1673816,18.6038772 51.2244053,18.7516532 L51.225,18.7561132 C51.2417426,18.7486545 51.264617,18.7444831 51.3090106,18.7444831 C51.5726124,18.7444831 51.9384417,18.4823013 51.9384417,18.4311232 L51.9384417,14.9828926 C51.9384417,14.6916766 52.0544488,14.4126084 52.2605787,14.2072122 C52.465951,14.0025708 52.744074,13.8876796 53.0339784,13.8876796 L53.9728716,13.8876796 C54.2008905,13.8864697 54.4222998,13.9563831 54.6070755,14.0857167 C54.7890529,13.9577988 55.0083991,13.887696 55.2348605,13.887696 L56.0957181,13.8877051 C56.2471769,13.8870569 56.3921563,13.9173229 56.5242975,13.972701 C56.8743839,13.812994 57.2623547,13.7265069 57.6668335,13.7257996 C57.9469691,13.7325514 58.2253887,13.7715484 58.4965588,13.8420173 C58.54876,13.8555185 58.5992789,13.8726398 58.6478717,13.8930778 L58.7679484,13.887674 L59.7306291,13.8878944 C60.1989888,13.8780598 60.622311,14.1676141 60.7733391,14.5856247 L61.544006,16.559018 C61.7174798,16.1299911 61.9376462,15.5855134 62.3409725,14.5880763 C62.5050925,14.1621532 62.9162265,13.8835041 63.362555,13.887674 L64.3136397,13.88772 C64.6382056,13.8846073 64.9455317,14.025161 65.1551431,14.2681514 C65.7143464,13.9245516 66.3784829,13.730798 67.1079467,13.730798 C67.8315083,13.730798 68.4594506,13.8909512 68.9796112,14.1899224 C69.1782815,13.9994825 69.4457472,13.8903635 69.7334362,13.8876576 L70.6982939,13.8878695 C71.1664645,13.8782299 71.5896044,14.1677145 71.7408595,14.5862998 L72.5246013,16.5974729 L73.3275513,14.5884381 C73.494216,14.1554109 73.915692,13.8752995 74.3510424,13.8876576 L75.3011016,13.8876576 L75.3743114,13.890341 C75.9031062,13.9291581 76.325976,14.340341 76.3831435,14.8628305 C76.3965735,14.9727674 76.3937553,15.0841891 76.3746887,15.1935029 L76.3126491,15.4062659 L73.8450211,21.3288339 C73.2373497,22.7372499 72.2055972,23.6782143 70.9245331,23.8995732 L70.7542633,23.9141757 L70.736456,23.9141757 C70.418536,23.9089476 70.1181986,23.7664387 69.9048518,23.5129141 L69.390692,22.8857499 C69.1534352,22.5953286 69.0809315,22.2037581 69.1987439,21.8475318 C69.2948594,21.5569117 69.5066538,21.3229947 69.7825783,21.1958334 L69.6041303,21.1047649 C68.8663189,21.5439085 68.0095214,21.724655 67.1079467,21.724655 C65.4588131,21.724655 64.1844495,20.8094004 63.6341412,19.3891174 L62.9918317,20.8943486 C62.8194046,21.3013912 62.4194186,21.5644554 61.9825807,21.5624723 L61.0692373,21.5624441 C60.6367777,21.5591945 60.2460524,21.3022207 60.0666316,20.8922912 L58.3647457,16.8502723 C58.1326896,16.8762951 57.8817664,16.8252814 57.6251002,16.6850654 C57.6432362,16.6973088 57.6670873,16.7032322 57.5932011,16.7056812 C57.4006892,16.7056812 57.2751488,16.9854586 57.2751488,17.4897352 L57.2751488,20.4672717 C57.2751488,20.7584878 57.1591416,21.0375559 56.9530118,21.2429521 C56.7475685,21.4476642 56.4694165,21.5624683 56.179612,21.5624683 L55.2348605,21.5624683 C55.0008737,21.5624683 54.7838263,21.4890622 54.6056856,21.3639326 C54.4192766,21.4964685 54.1954242,21.5666355 53.9769608,21.5624683 L53.1352171,21.5622344 C52.9361694,21.5665398 52.7477347,21.5172313 52.5843816,21.4283106 C52.1360625,21.6313342 51.6461037,21.7333903 51.1533211,21.7193664 C49.9693089,21.7193664 49.0991389,21.2398525 48.5774566,20.3804989 C47.9347526,21.2127512 46.8796129,21.7193432 45.6314733,21.7193081 C44.2333406,21.7042119 42.9402892,21.226608 42.108295,20.3313948 C41.7809364,19.9289071 41.7809364,19.3520371 42.0648557,19.0070756 L42.5611635,18.2980756 C42.7428649,18.0410763 43.0260814,17.8746461 43.2794249,17.8489162 C43.6347186,17.7886366 43.9969531,17.9089517 44.2041215,18.1292012 C44.6051243,18.5042942 45.1294061,18.7219672 45.6785935,18.7415544 C45.7769151,18.7449539 45.8720206,18.7075774 45.9409964,18.6387602 C46.0092308,18.5706826 46.0457988,18.4779522 46.0417489,18.3371949 C46.0436386,18.1342028 45.9326587,18.053291 45.1192665,17.8322462 C43.2553148,17.3242816 42.110548,16.1343661 42.110548,14.5104356 C42.110548,13.4087313 42.6291445,12.5511722 43.4258329,12.0139146 C41.7317846,11.1879329 40.5625,9.38601045 40.5625,7.31780716 C40.5625,4.47877187 42.7665769,2.14855073 45.5060419,2.14855073 C47.3585279,2.14855073 48.9666254,3.21279343 49.8145603,4.77917517 C49.9598666,4.7053122 50.1254746,4.66420778 50.3005679,4.66420778 L51.1614257,4.66421694 C51.3125306,4.66357023 51.4571864,4.69369352 51.5890786,4.74882516 C51.9376259,4.58931912 52.3229384,4.50291371 52.7228664,4.50212504 C53.0077662,4.50623382 53.2910844,4.54525896 53.5314221,4.60970536 C53.8248304,4.67633457 54.0682614,4.85721721 54.2189348,5.09785128 C54.7966031,4.71807241 55.4740752,4.50208683 56.1830356,4.50212286 C56.4568338,4.49821581 56.7274281,4.52743993 56.9895013,4.58751841 L56.9895013,3.24374728 C56.9895013,2.63808689 57.4807867,2.14855073 58.0850381,2.14855073 L59.0280204,2.14855073 Z M23.8533079,14.0339642 L23.832318,14.0106056 C23.585922,15.4713118 23.075602,16.8423616 22.3521007,18.0730122 C22.4990673,18.0245947 22.6564279,17.999692 22.8188296,17.9997754 C23.2477514,18.0064174 23.6544291,18.1919535 23.924611,18.4942756 C25.4141541,20.0819466 27.3133682,20.9644101 29.3003522,21.0091335 L30.0271003,21.0091335 L30.0255844,16.603 L29.8399677,16.6021696 C27.5784651,16.5928209 25.417733,15.6659223 23.8533079,14.0339642 L23.832318,14.0106056 Z M68.6984555,7.47866718 C68.2678156,7.47866718 67.9876412,7.86206712 67.9876412,8.49894958 C67.9876412,9.18028642 68.2240967,9.51547146 68.6984555,9.51746903 C69.076929,9.51746903 69.411039,9.08492275 69.411039,8.49894958 C69.411039,7.75264879 69.1787026,7.47866718 68.6984555,7.47866718 Z M56.276918,7.47866718 C55.8445917,7.47866718 55.5643345,7.86187811 55.5643345,8.49894958 C55.5643345,9.18370674 55.7979882,9.51546359 56.276918,9.51746903 C56.6553914,9.51746903 56.9895013,9.08492279 56.9895013,8.49894958 C56.9895013,7.75264876 56.757165,7.47866718 56.276918,7.47866718 Z M45.5060419,5.12343394 C44.5373171,5.12343394 43.6930174,6.0823555 43.6930174,7.31780716 C43.6930174,8.55248362 44.5383665,9.51218035 45.5060419,9.51218035 C46.4737937,9.51218035 47.3172972,8.55411213 47.3172972,7.31780716 C47.3172972,6.08180894 46.4742115,5.12343394 45.5060419,5.12343394 Z M81.199607,7.46632688 C80.7367295,7.46632688 80.4887928,7.82334017 80.4887928,8.48660929 C80.4887928,9.25014644 80.7047386,9.50512875 81.2424277,9.50604597 C81.5893045,9.5209131 81.9297057,9.41006693 82.1650101,9.22387133 C82.3041562,9.10204798 82.469138,9.01987002 82.6435181,8.98057564 C82.6275956,8.82481589 82.6198696,8.66352117 82.6198696,8.49894958 C82.6198696,8.33954928 82.6277026,8.18285065 82.6430204,8.02925858 L82.5958895,8.02733576 C82.3404955,8.00200737 82.1011606,7.89071545 81.9172032,7.71152631 L81.8360091,7.62227513 C81.7288237,7.48912954 81.6534908,7.46632688 81.199607,7.46632688 Z" opacity=".7"/>
    <g transform="translate(1 1)">
      <path fill="#453C90" fill-rule="nonzero" d="M56.9895013 9.70774896C56.5301136 10.2101681 55.8794102 10.4962776 55.197304 10.4957656 53.5926416 10.4957656 52.4285095 9.23352908 52.4285095 7.49883635 52.4285095 5.64602937 53.8668673 4.50190783 55.197304 4.50190783 55.8776393 4.49219958 56.5297425 4.77251009 56.9895013 5.27229475L56.9895013 2.24363405C56.9895013 2.19105845 57.0322746 2.1484375 57.0850381 2.1484375L58.0280204 2.1484375C58.0810776 2.1484375 58.1243616 2.19077453 58.1253264 2.24363405L58.1253264 10.2366186C58.1243616 10.2894782 58.0810776 10.331824 58.0280204 10.3318152L57.0850381 10.3318152C57.0322746 10.3318152 56.9895013 10.2891943 56.9895013 10.2366186L56.9895013 9.70774896zM53.5643345 7.49883635C53.5643345 8.46843087 54.0084031 9.51206713 55.276918 9.51735581 56.3490518 9.51735581 56.9895013 8.48958566 56.9895013 7.49883635 56.9895013 6.23307478 56.3490518 5.47855395 55.276918 5.47855395 54.0950938 5.47855395 53.5643345 6.52571603 53.5643345 7.49883635zM59.2859201 10.3300523C59.2605821 10.3300523 59.236282 10.3200227 59.2183654 10.3021699 59.2004488 10.2843171 59.1903834 10.2601035 59.1903834 10.2348558L59.1903834 4.75047661C59.1903834 4.697901 59.2331566 4.65528006 59.2859201 4.65528006L60.1510578 4.65528006C60.2005512 4.65506823 60.2420122 4.69255622 60.2465945 4.74166211L60.3014396 5.28463505C60.7569783 4.76788553 61.4195538 4.47976754 62.1095597 4.49838203 63.5337639 4.49838203 64.2573658 5.42742987 64.2573658 7.25731917L64.2573658 10.2348558C64.2564012 10.2877153 64.2131171 10.3300523 64.16006 10.3300523L63.2170775 10.3300523C63.1643141 10.3300523 63.1215409 10.2874314 63.1215409 10.2348558L63.1215409 7.49883635C63.1215409 7.02285359 63.1215409 6.49574674 62.9693898 6.10790894 62.8030853 5.67776156 62.4863988 5.47855395 61.9556395 5.47855395 61.2992671 5.47855395 60.3262083 6.03034138 60.3262083 6.7936767L60.3262083 10.2348558C60.3252437 10.2877153 60.2819596 10.3300523 60.2289025 10.3300523L59.2859201 10.3300523zM74.3011016 13.8875443C74.3491077 13.8910683 74.3870147 13.9295958 74.3895615 13.9774907 74.3921048 13.9920722 74.3921048 14.0069816 74.3895615 14.0215631L71.9268382 19.9325639C71.4438472 21.0520048 70.672477 21.7554016 69.7542633 21.9140625L69.7524941 21.9140625C69.7237664 21.9136017 69.6966543 21.9007371 69.6781878 21.8788045L69.1651205 21.2529753C69.1441719 21.2273326 69.1377816 21.1928203 69.1481674 21.1614171 69.1585533 21.1300137 69.1842833 21.1060488 69.2164272 21.0978402 70.1063337 20.8774778 70.6229394 20.3891548 70.9396258 19.4671585L68.6520531 14.0198002C68.6369557 13.9917188 68.6369557 13.9579738 68.6520531 13.9298924 68.6707934 13.9035909 68.7010658 13.8878529 68.7334362 13.8875443L69.7188794 13.8875443C69.7591304 13.8867156 69.7954446 13.9115482 69.8091084 13.9492843L71.5128459 18.321274 73.2608133 13.9475213C73.2750696 13.9104808 73.3112458 13.8864492 73.3510424 13.8875443L74.3011016 13.8875443zM44.5060419 2.1484375C46.6821551 2.1484375 48.4531221 4.01887348 48.4531221 6.31769394 48.4531221 8.61651441 46.6803859 10.4957649 44.5060419 10.4957649 42.3316978 10.4957649 40.5625 8.61651441 40.5625 6.31769394 40.5625 4.01887348 42.3316978 2.1484375 44.5060419 2.1484375zM47.3172972 6.31769394C47.3172972 4.55655771 46.0576283 3.12332072 44.5060419 3.12332072 42.9544554 3.12332072 41.6930174 4.55655771 41.6930174 6.31769394 41.6930174 8.07883016 42.9562246 9.51206713 44.5060419 9.51206713 46.0558591 9.51206713 47.3172972 8.08059306 47.3172972 6.31769394zM52.9769608 13.8875664C53.0026038 13.8871095 53.027361 13.8969298 53.0456621 13.9148341 53.0639631 13.9327385 53.0742667 13.9572232 53.0742667 13.9827793L53.0742667 19.4671585C53.0742667 19.4927147 53.0639631 19.5171993 53.0456621 19.5351037 53.027361 19.5530081 53.0026038 19.5628283 52.9769608 19.5623551L52.1135923 19.5623551C52.0637698 19.5634327 52.0218049 19.5254891 52.0180556 19.475973L51.9614413 18.9330001C51.5063508 19.450361 50.843472 19.7386109 50.1533211 19.7192531 48.7291169 19.7192531 48.0055151 18.7919682 48.0055151 16.960316L48.0055151 13.9827793C48.0064797 13.9299198 48.0497638 13.8875664 48.1028209 13.8875664L49.0475726 13.8875664C49.0729105 13.8875664 49.0972106 13.8976124 49.1151272 13.9154652 49.1330438 13.933318 49.1431092 13.9575317 49.1431092 13.9827793L49.1431092 16.7240874C49.1431092 17.2212251 49.1431092 17.7271771 49.2934911 18.1167778 49.4615648 18.5451623 49.7782512 18.7443699 50.3090106 18.7443699 50.965383 18.7443699 51.9384417 18.1925825 51.9384417 17.43101L51.9384417 13.9827793C51.9384417 13.9575317 51.9485072 13.933318 51.9664238 13.9154652 51.9843404 13.8976124 52.0086405 13.8875664 52.0339784 13.8875664L52.9769608 13.8875664zM63.4046125 13.9298924C63.4228659 13.9570151 63.4261909 13.9914717 63.4134585 14.0215631L61.0710406 19.5041794C61.0560421 19.5395858 61.0211491 19.5625333 60.9825807 19.5623561L60.0767515 19.5623561C60.038323 19.5620703 60.0036624 19.5392757 59.9882916 19.5041794L57.6794885 14.0198002C57.6670047 13.9903321 57.6702072 13.9565867 57.6880132 13.9299727 57.7058193 13.9033588 57.7358484 13.8874342 57.7679484 13.8875608L58.7516224 13.8875608C58.7918733 13.8867156 58.8281875 13.9115482 58.8418514 13.9492843L60.5278969 18.2666242 62.2740951 13.9475213C62.2881302 13.9110977 62.3234013 13.8871987 62.362555 13.8875608L63.3232294 13.8875608C63.3557481 13.8872489 63.3862846 13.9031242 63.4046125 13.9298924zM66.1079467 13.7306848C67.792223 13.7306848 68.719299 14.8377854 68.719299 16.854542 68.7197576 16.8800937 68.7099022 16.9047627 68.6919338 16.9229986 68.6739655 16.9412346 68.6493934 16.9515058 68.623746 16.9515014L64.4802848 16.9515014C64.5492835 17.8382397 65.0075057 18.7496586 66.1079467 18.7496586 66.9164701 18.7496586 67.6383028 18.5046156 68.0823714 18.077994 68.1064092 18.0552424 68.1402744 18.0459792 68.1726005 18.0533134 68.2039779 18.0602222 68.2294636 18.0829441 68.2398301 18.113252L68.5158249 18.8536697C68.5298878 18.8915496 68.5193761 18.9341449 68.4892869 18.9612064 67.7497623 19.5923244 66.7855494 19.7245418 66.1079467 19.7245418 64.4519776 19.7245418 63.337383 18.5204817 63.337383 16.7276133 63.337383 14.9893948 64.5032843 13.7306848 66.1079467 13.7306848zM64.4908999 16.137042L67.5675349 16.137042C67.4012303 15.1674475 66.9341621 14.7143825 66.1079467 14.7143825 65.2817314 14.7143825 64.6572046 15.2679328 64.4908999 16.137042zM49.3005679 10.3300687C49.2478044 10.3300687 49.2050311 10.2874314 49.2050311 10.2348558L49.2050311 4.75929111C49.2050311 4.7067155 49.2478044 4.66409456 49.3005679 4.66409456L50.1657056 4.66409456C50.215199 4.66388273 50.2566599 4.70137072 50.2612422 4.75047661L50.3107798 5.24761416C50.6230121 4.78267476 51.147016 4.50309941 51.708446 4.50190783 51.9116067 4.50483779 52.1136337 4.53266562 52.3099732 4.5847641 52.3536693 4.59468692 52.38457 4.63354175 52.3842816 4.67819774L52.3842816 5.53496672C52.3844283 5.56905103 52.366278 5.60061371 52.3366915 5.61772003 52.307105 5.63482636 52.2705979 5.63486562 52.2409745 5.61782299 52.070256 5.50395637 51.8650874 5.4528468 51.6606777 5.47326526 50.4346236 5.47326526 50.3408562 6.83951208 50.3408562 7.25731917L50.3408562 10.2348558C50.3408605 10.2604119 50.3305526 10.2848966 50.3122515 10.3028009 50.2939504 10.3207053 50.2691933 10.3305256 50.2435502 10.3300687L49.3005679 10.3300687zM85.3886641 4.50190783C87.0729406 4.50190783 88 5.60724558 88 7.61871349 88 7.67128909 87.9572272 7.71391004 87.9044633 7.71391004L83.7610021 7.71391004C83.8300008 8.60241121 84.2899923 9.51206713 85.3886641 9.51206713 86.2078027 9.51206713 86.9154816 9.26173549 87.3666269 8.83863965 87.3893986 8.81620128 87.4220875 8.80689477 87.453318 8.81395909 87.4855721 8.82070759 87.5122059 8.84326558 87.5240859 8.87389766L87.800081 9.61431531C87.8205144 9.65515246 87.8076942 9.70474751 87.7700046 9.7306666 87.0304798 10.3635474 86.0680356 10.4957649 85.3886641 10.4957649 83.732695 10.4957649 82.6198696 9.28817897 82.6198696 7.49883635 82.6198696 5.76061781 83.7840017 4.50190783 85.3886641 4.50190783zM83.7716173 6.89945065L86.8482519 6.89945065C86.6819473 5.92985613 86.2148796 5.47679105 85.3886641 5.47679105 84.5624487 5.47679105 83.9379219 6.03210427 83.7716173 6.89945065zM44.6723465 14.7672694C46.386699 15.2185716 47.2553751 16.0876809 47.2536087 17.3516796 47.2465292 18.7461328 46.1726262 19.7192531 44.6422701 19.7192531 43.4993683 19.7069128 42.467926 19.3261266 41.8840907 18.7002974 41.8556712 18.6653556 41.8556712 18.6153621 41.8840907 18.5804203L42.3776969 17.8752606C42.393788 17.8525012 42.4189208 17.8377321 42.4466957 17.834714 42.4740455 17.8300738 42.5019161 17.839331 42.521002 17.8593945 43.0983657 18.3994533 43.8526494 18.7126192 44.6440393 18.740844 45.0188695 18.7538038 45.3822524 18.6109943 45.6472891 18.3465669 45.9123258 18.0821395 46.0551857 17.7198699 46.0417055 17.3463909 46.0505515 16.3961883 45.2968733 16.1158873 44.382198 15.8673185 42.9137638 15.4671404 42.110548 14.6280004 42.110548 13.5103224 42.110548 12.0524048 43.4232928 11.3772144 44.6422701 11.3772144 45.3424819 11.3798791 46.0280734 11.5770709 46.6220024 11.9466309 46.6439767 11.9614028 46.6592304 11.984202 46.6644631 12.0100952 46.6698133 12.0353487 46.6640136 12.0616753 46.6485404 12.082374L46.1655494 12.766379C46.1368658 12.8059297 46.0834862 12.8186652 46.0399363 12.7963482 45.6147837 12.543133 45.1362158 12.3922267 44.6422701 12.3556234 43.9540521 12.3556234 43.2463731 12.713492 43.2463731 13.5138481 43.228681 14.2859979 44.0513581 14.5909796 44.6723465 14.7672694zM57.246035 13.8100152C57.2896375 13.8212328 57.3201629 13.8603402 57.3203414 13.9052118L57.3203414 14.7655065C57.3200289 14.800463 57.3011871 14.8326482 57.2708038 14.8501257 57.2409784 14.8661103 57.2050925 14.8661103 57.1752671 14.8501257 57.0037626 14.7365374 56.7981442 14.6854715 56.5932011 14.7055679 55.3706854 14.7055679 55.2751488 16.0718148 55.2751488 16.4896219L55.2751488 19.4671585C55.2751488 19.4924062 55.2650832 19.5166198 55.2471666 19.5344726 55.2292501 19.5523255 55.2049499 19.5623551 55.179612 19.5623551L54.2348605 19.5623551C54.182097 19.5623551 54.1393237 19.5197341 54.1393237 19.4671585L54.1393237 13.9827793C54.1393237 13.9575317 54.1493892 13.933318 54.1673058 13.9154652 54.1852224 13.8976124 54.2095226 13.8875828 54.2348605 13.8875828L55.0999982 13.8875828C55.1494916 13.8873709 55.1909525 13.9248589 55.1955348 13.9739648L55.2450724 14.4711024C55.5573047 14.006163 56.0813086 13.7265876 56.6427386 13.7253961 56.846441 13.7303057 57.0488879 13.7587012 57.246035 13.8100152zM81.9121904 8.95851679C81.9428643 8.96998652 81.9651021 8.99684552 81.970574 9.02903281L82.2147233 9.76945045C82.2268599 9.80698924 82.2149684 9.84811283 82.1846469 9.87346147 81.683964 10.2859799 81.013438 10.4957649 80.1925302 10.4957649 78.5153307 10.4957649 77.3423526 9.22647748 77.3423526 7.48825896 77.3423526 5.75004042 78.5454071 4.49133044 80.2031454 4.49133044 80.6153685 4.49133044 81.6361956 4.5706609 82.1669549 5.30402694 82.1908731 5.33721205 82.1908731 5.38190446 82.1669549 5.41508958L81.7688854 5.9897947C81.7528315 6.01545011 81.7249116 6.03134749 81.6945791 6.03210427 81.6645922 6.02913035 81.6365144 6.016074 81.6149652 5.99508339 81.2204341 5.50499744 80.7604427 5.46621366 80.199607 5.46621366 78.9363998 5.46621366 78.4887928 6.55392242 78.4887928 7.48649606 78.4887928 8.76812372 79.1115504 9.50501552 80.199607 9.50501552 80.7873492 9.53020613 81.3643416 9.34231779 81.8237306 8.97614584 81.8479414 8.95494909 81.8816603 8.94822938 81.9121904 8.95851679zM67.6206108 10.4957843C66.0159485 10.4957843 64.8518163 9.2282404 64.8518163 7.49883635 64.8518163 5.64602937 66.2884049 4.50190783 67.6206108 4.50190783 68.3122383 4.49213494 68.9740037 4.78227509 69.4340385 5.29697534L69.4906529 4.74166211C69.4952351 4.69255622 69.5366961 4.65506823 69.5861895 4.65528006L70.4513273 4.65528006C70.5040907 4.65528006 70.5468639 4.697901 70.5468639 4.75047661L70.5468639 10.2454332C70.5468639 10.2980088 70.5040907 10.3406298 70.4513273 10.3406298L69.5065756 10.3406298C69.4538121 10.3406298 69.411039 10.2980088 69.411039 10.2454332L69.411039 9.71656349C68.9507577 10.2156324 68.3008344 10.4984816 67.6206108 10.4957843zM65.9876412 7.49883635C65.9876412 8.46843087 66.4370175 9.51206713 67.6984555 9.51735581 68.7705893 9.51735581 69.411039 8.48958566 69.411039 7.49883635 69.411039 6.23307478 68.7705893 5.47855395 67.6984555 5.47855395 66.5184006 5.47855395 65.9876412 6.52571603 65.9876412 7.49883635zM74.5310974 4.50190783C75.9570707 4.50190783 76.6789034 5.42742987 76.6718266 7.25731917L76.6718266 10.2348558C76.6718266 10.2874314 76.6290534 10.3300523 76.57629 10.3300523L75.6315383 10.3300523C75.5787749 10.3300523 75.5360017 10.2874314 75.5360017 10.2348558L75.5360017 7.49883635C75.5360017 7.02285359 75.5360017 6.49574674 75.3856199 6.10790894 75.2175461 5.67776156 74.9008597 5.47855395 74.3701003 5.47855395 73.7154971 5.47855395 72.7406692 6.03034138 72.7406692 6.7936767L72.7406692 10.2348558C72.7406692 10.2601035 72.7306037 10.2843171 72.7126871 10.3021699 72.6947705 10.3200227 72.6704704 10.3300523 72.6451325 10.3300523L71.7003809 10.3300523C71.6476174 10.3300523 71.6048442 10.2874314 71.6048442 10.2348558L71.6048442 4.75400241C71.6048442 4.7014268 71.6476174 4.65880586 71.7003809 4.65880586L72.5708262 4.65880586C72.6203197 4.65859403 72.6617806 4.69608202 72.6663628 4.74518792L72.721208 5.28816085C73.1774441 4.77133648 73.8405753 4.48325873 74.5310974 4.50190783zM9.21569713 21.8481719C9.17351952 21.8424182 9.10228782 21.8308026 9.00200194 21.8133249 8.95905828 21.8058408 8.87908983 21.7906487 8.76209649 21.7677486 7.72215131 21.5530556 6.71862934 21.187165 5.78294823 20.6815318L5.81482973 20.490372C6.05039852 19.0039701 6.29482328 17.4693317 6.90765639 16.0811896 7.05188202 15.9315001 7.15556358 15.7469474 7.20875936 15.5452274L9.55027777 15.6202621C9.75234245 15.6232498 9.90466512 15.6259312 10.007246 15.6283064 10.0072459 15.6280071 10.0072458 15.6277076 10.0072458 15.6274082 10.1969355 15.6164262 10.3803196 15.5547685 10.538604 15.4487542 10.7088845 15.5567033 10.9060384 15.6136981 11.1071573 15.613116 11.3864188 15.6151719 11.6544337 15.5022627 11.8492875 15.3004713 12.2743741 15.5094966 12.6817487 15.6881507 13.1971661 15.6881507L13.3052089 15.6881507C13.8764241 15.6409131 14.4420774 15.5404382 14.9949279 15.3880118 15.5386845 15.2558078 16.1320344 15.0968057 16.7360116 14.9181516 16.2808296 15.4278865 15.7862978 15.9004182 15.2570646 16.3313053 14.5105513 16.8710578 13.713921 17.3365444 12.8783511 17.7212339 12.4294901 17.9440434 12.0192059 18.2384363 11.6633121 18.5930658 11.4280215 18.8531842 11.2284524 19.1440153 11.0699621 19.4577515 11.0309959 19.5256401 10.9938008 19.5953151 10.9530633 19.6649902 10.876902 19.7936211 10.7918847 19.9168924 10.6997826 20.0473099 10.5146201 20.2871693 10.3632256 20.5517 10.2498993 20.8333878 10.1294582 21.1764036 10.0249578 21.5319253 9.92399968 21.8731544L9.90274536 21.941043C9.67077865 21.917824 9.44235248 21.8856768 9.21569713 21.8481719zM13.6931004 17.8248533C14.5237904 18.9593066 15.744143 19.6292594 16.9981483 20.2134582 15.211973 21.3804772 13.1290436 22.0009665 11.0008856 22 10.7865711 22 10.5740278 21.9928528 10.365027 21.980347 10.4606715 21.6534099 10.5616295 21.3157538 10.6749859 20.9923899 10.7750555 20.750326 10.9073392 20.5231347 11.068191 20.3170775 11.1656066 20.1848736 11.2577087 20.0473099 11.3427261 19.9008135 11.3834635 19.8311385 11.4224297 19.7596768 11.4631672 19.6882153 11.6017806 19.4107096 11.7762904 19.1529847 11.982127 18.9217893 12.3030294 18.6029564 12.6725979 18.3381565 13.0767249 18.1374979L13.6931004 17.8248533zM6.19917881 5.40482254C6.14859817 4.03966977 5.99524359 2.68036754 5.74043958 1.33865597 9.6199724-.771159329 14.3703725-.360754806 17.8376942 2.38378226 17.7674383 2.45500668 17.7012092 2.53016004 17.6393205 2.60888639 17.4749895 2.83966533 17.3454666 3.09373094 17.2549714 3.36280655 17.2195476 3.45034705 17.1858949 3.54146062 17.1486998 3.62900111L17.0034619 3.96129768C16.7610401 4.55941793 16.4652142 5.13407118 16.1196361 5.67816327 15.8377898 6.06898194 15.515376 6.42832711 15.1578778 6.75008767 14.9258514 6.97340525 14.6885114 7.203869 14.4706545 7.4539847 14.4139763 7.5290194 14.355527 7.6076272 14.2935352 7.68444844L13.8666774 7.29498258C13.8383383 7.23959981 13.8046856 7.17885744 13.7692618 7.11632851 13.6835954 7.00270878 13.6336265 6.86581498 13.625795 6.72328956 13.6399646 6.58215285 13.8401095 6.42493727 13.9942034 6.29809288 14.0384833 6.26057553 14.0827631 6.22484472 14.1199581 6.19090044 14.1660112 6.1512231 14.1940986 6.09436975 14.1977727 6.03339138 14.2014467 5.97241303 14.1803918 5.91254725 14.1394413 5.86753658 14.0995698 5.82195554 14.0433469 5.79426237 13.9831932 5.79057494 13.9230395 5.78688752 13.8639057 5.80750931 13.8188552 5.84788463 13.7852025 5.87825582 13.7462362 5.91041356 13.7054987 5.94257129 13.4894131 6.11050611 13.2272764 6.33561024 13.1741405 6.64646831 13.1560459 6.89540464 13.2256725 7.14279131 13.3707431 7.34500571L13.3955398 7.39324231C13.3494888 7.45755778 13.3034377 7.52723287 13.2556155 7.60048103 13.0342163 7.94528338 12.8712664 8.16681443 12.6516383 8.13644324 12.0901699 8.05068928 11.9714999 8.36869352 11.8581434 8.67240541 11.7447871 8.97611739 11.6615409 9.40667363 12.2389502 9.6442836L12.3983576 9.71217208C12.6082055 9.8078078 12.8256458 9.88549762 13.0483858 9.94442238 13.1724112 9.97476305 13.2985206 9.99566477 13.4256501 10.0069513L13.9428388 10.0283899C14.2970775 10.0462552 14.6513163 10.0641206 15.0055551 10.0891322 15.4899542 10.1118994 15.9698667 10.1934775 16.4349086 10.3321017 16.7182996 10.4214288 16.8936479 10.7037022 17.0282586 10.957391 17.2478866 11.3718684 17.4586588 11.8256497 17.7119394 12.431287 17.8941495 12.8444027 18.1054622 13.2438234 18.3442557 13.6264827 18.374366 13.6747194 18.4027051 13.7247425 18.4328154 13.7747656 18.3176878 13.8408676 18.1990178 13.8980369 18.0679495 13.9534196 17.0239063 14.3696398 15.9490179 14.7023674 14.8532325 14.9485228 14.3356071 15.0905502 13.8061684 15.1844384 13.2715562 15.2290097 12.8252154 15.2558078 12.465663 15.091446 12.0582883 14.8984997 12.0814324 14.8110729 12.093338 14.7210077 12.0937123 14.6305185 12.1084773 14.1753778 11.7969916 13.7753009 11.3551243 13.6818655 11.3675227 13.4942787 11.3834635 13.2977592 11.4029466 13.1191051 11.4480346 12.7696159 11.4699281 12.4174791 11.4684808 12.0650462 11.4631672 11.8738863 11.4507688 11.6827265 11.4383705 11.4915666 11.4259722 11.2718221 11.4100314 11.0520776 11.4100314 10.8305465L11.4100314 10.7215676C11.406489 10.0659072 11.3994042 9.0922425 10.6714435 8.75637288 10.1720126 8.54830861 9.62856443 8.47087838 9.0915385 8.53126873 8.95290859 8.54237753 8.81508624 8.56206657 8.6788503 8.59022457 8.3954593 8.64024769 8.06601723 8.69920356 7.88889784 8.60451685 7.77199903 8.54377451 7.72949038 8.3544012 7.70292247 8.15788172 7.67746239 7.93913032 7.66740043 7.71883423 7.67281218 7.49864821L7.67281218 7.34679226C7.67104098 7.03772072 7.65155785 6.72864919 7.63030352 6.43029689L7.60904919 6.07298875C7.60196442 5.95686361 7.59133725 5.83716538 7.58248129 5.71568062 7.53410469 5.36003843 7.53410469 4.99939841 7.58248129 4.64375622 7.68166814 4.1381652 7.76491426 3.63793382 7.83399082 3.21452368 7.8545331 3.08970876 7.77087259 2.97172919 7.64712986 2.95100893 7.52338713 2.93028867 7.40642103 3.01467405 7.38587876 3.13948897 7.3132598 3.55932602 7.23355608 4.05598433 7.1361404 4.55442918 7.07684966 4.9497386 7.07327186 5.35151847 7.12551324 5.74783835 7.13436921 5.87468274 7.14322519 5.99259443 7.15030996 6.10514649 7.15739473 6.21769855 7.17333548 6.33918331 7.17333548 6.46245463 7.19281862 6.75902037 7.21407294 7.06094575 7.21407294 7.35572496L7.21407294 7.50579438C7.20909806 7.74449546 7.22034195 7.98325991 7.24772562 8.22041065 7.27606473 8.41693012 7.36108204 8.84391338 7.68343934 9.00648856 8.00579663 9.16906375 8.40254408 9.09760208 8.75678289 9.03507318 8.87384988 9.01095946 8.99209257 8.99306934 9.11102165 8.98147697 9.57637029 8.929393 10.0472292 8.99636366 10.4801546 9.17620988 10.9583769 9.3870217 10.9583769 10.1856054 10.9583769 10.7215676L10.9583769 10.8359062C10.9601481 11.0645834 10.9743177 11.291474 10.9884872 11.5201512 11.0008856 11.7059515 11.0168263 11.8988979 11.0168263 12.0775519 11.016695 12.4096367 10.9959908 12.7413887 10.9548345 13.0708686 10.9353515 13.263815 10.9158683 13.4639075 10.9034699 13.6640001 10.4300833 13.7327384 10.0828344 14.1482853 10.0958055 14.6305185 10.0956138 14.7958408 10.1364076 14.9585875 10.2144755 15.1039518 10.1118707 15.1608952 9.99437398 15.1845982 9.87794861 15.1718404L7.23709846 15.0771538C7.22089924 14.8868876 7.16019873 14.7032083 7.05997907 14.5411916 6.4081797 13.1155321 6.2310603 11.5147917 6.0539409 9.96407431L6.02205942 9.70323939C6.15558226 8.27454394 6.21470332 6.83976651 6.19917881 5.40482254zM8.72490137 5.62635359L8.72135902 5.62635359C8.7105547 5.8108582 8.72005905 5.99600234 8.74969812 6.17839466 8.76209649 6.28916018 8.840029 6.70899724 8.93921583 6.75723384 9.03840274 6.80547044 9.29168341 6.75723384 9.3926415 6.75723384 9.77699061 6.75723384 10.1631109 6.75723384 10.5474599 6.75723384L10.5474599 5.87825582 10.2870945 5.87825582 10.2870945 4.76524098 9.1251912 4.76524098C8.99412284 4.76524098 8.94275826 4.73844287 8.87545287 4.82419682 8.74084209 4.99391819 8.73552857 5.42268795 8.72490137 5.62635359zM5.06384349 14.208895C5.03550438 14.8556227 5.01247887 15.5220024 4.99653812 16.2026744 4.36067949 16.1329993 3.75670236 15.8364335 3.75670236 15.2093578 3.75670236 14.582282 4.39964576 14.2642778 5.06384349 14.208895zM5.70324451 14.2410527C5.93357194 14.2766096 6.15525424 14.3553858 6.35681507 14.473303 6.62600768 14.6188054 6.79459706 14.9013081 6.79607117 15.2093578 6.79607117 15.7864104 6.24877224 16.1008415 5.64302391 16.1901686 5.65365108 15.5255755 5.67490541 14.8734881 5.70324451 14.2410527zM19.5061589 13.6425616L21.8033974 13.0637224C21.5812571 14.231245 21.1714326 15.3542987 20.5901297 16.3884746 20.3078923 15.9756743 19.9971637 15.5834503 19.6602528 15.2147174 19.5144188 15.0760488 19.3460737 14.963652 19.1625473 14.8824208 19.0600471 14.8317748 18.962242 14.7719853 18.8703003 14.7037668 18.7333781 14.5719407 18.6342508 14.4052971 18.5833669 14.2214008 18.9024061 14.0683746 19.2001488 13.8737656 19.4689639 13.6425616 19.4813009 13.6443211 19.493822 13.6443211 19.5061589 13.6425616zM20.0481443 12.2258348C19.8133425 12.6005019 19.5376798 12.9474666 19.2263103 13.2602419 19.1040926 13.3689531 18.9738266 13.4680964 18.8366476 13.5568076 18.8047661 13.5049979 18.7746558 13.4531883 18.7445455 13.4013786 18.5138421 13.033721 18.3096289 12.6498172 18.1334836 12.252633 17.8678045 11.6344899 17.6517188 11.1682027 17.4250061 10.7412195 17.3401499 10.5710374 17.2348586 10.412032 17.1115047 10.2677863L16.7413251 5.55131888C16.9900786 5.09487481 17.213591 4.62489112 17.4108365 4.14352483L17.552532 3.8130148C17.5932695 3.72190123 17.6304645 3.62542803 17.6676596 3.53074138 17.7432699 3.30335379 17.8506208 3.08799498 17.9864745 2.89115981 18.0471511 2.81586882 18.1122096 2.74428103 18.1813058 2.67677493 20.2086301 4.41556641 21.5322579 6.84480616 21.9008132 9.50314681L21.7591176 9.71395863C21.2614121 10.4589461 20.7459947 11.2289451 20.2252637 11.9757192 20.1615006 12.0579 20.1048225 12.1418675 20.0481443 12.2258348zM15.0392078 9.63177781C14.6796555 9.60676621 14.3183318 9.58890084 13.9587795 9.56746235L13.5832864 9.54959689 13.6736173 9.40667363C14.0131553 8.8277817 14.3968944 8.27645425 14.8213509 7.75769662 15.0250383 7.52187325 15.2570646 7.29855566 15.4802351 7.08417078 15.7873691 6.79976426 16.0738585 6.4934781 16.337493 6.16767541L16.6315112 9.91941079 16.5836889 9.89797231C16.0817399 9.74522957 15.5629598 9.65581676 15.0392078 9.63177781zM20.4218662 12.4848832L20.5919008 12.2401272C21.059496 11.5701744 21.5182352 10.8841428 21.9681185 10.2124035 21.9858305 10.4660923 22 10.7358599 22 11.0020545 21.9991517 11.5263725 21.9612704 12.0499633 21.8866436 12.5688507L20.0304323 13.0369243C20.1685854 12.8564837 20.2961114 12.6635373 20.4218662 12.4848832zM14.0172288 8.0560489C13.7568634 8.41871666 13.5177522 8.79567674 13.2839546 9.1672772L13.0855808 9.48349488C12.9118288 9.43036248 12.7414739 9.36652252 12.575477 9.29233508L12.419612 9.22087341C12.2212382 9.13869258 12.1858144 9.11189443 12.2903148 8.83319413 12.3948152 8.55449375 12.3948152 8.55449375 12.593189 8.5830784 13.1121488 8.65811315 13.4221077 8.19003946 13.6435069 7.84702365L13.698414 7.76305624 14.0172288 8.0560489zM5.72449884 13.7765521C5.75815151 13.0708686 5.81305853 12.3580389 5.86973674 11.6505687 5.97922586 12.444484 6.16246495 13.2262594 6.41703567 13.9855774 6.1975521 13.8821544 5.9642278 13.8117312 5.72449884 13.7765521zM3.66637147 16.1097742C4.21593302 17.4530111 4.67223033 18.8331669 5.031962 20.2402563 2.93447241 18.8872181 1.35743342 16.8528319.561468481 14.473303L.572095644 14.4590107.708477578 14.3661106C.937504227 14.2298428 1.14522345 14.0600601 1.32485307 13.8623061 1.54093873 14.0248813 1.7570244 14.1874565 1.96425408 14.3661106 2.11834796 14.4911684 2.27067063 14.6162263 2.4265357 14.7377111 2.58869931 14.8583384 2.7585054 14.968147 2.93486837 15.0664345 3.06947911 15.1450423 3.19346269 15.220077 3.31213268 15.3040444 3.3331167 15.6014384 3.45874659 15.8814861 3.66637147 16.0936954 3.66637147 16.099055 3.66637147 16.1097742 3.66637147 16.1097742zM.439256098 8.81354212C.379035504 8.75637288.317043716 8.70099012.262136704 8.65632659.640693651 6.92394125 1.43087451 5.31026715 2.56468884 3.95415152L2.60719748 4.73308325C2.67450286 6.04083103 2.74357942 7.39502886 2.87464777 8.72064205L2.88704613 8.82247489C2.92247001 9.1422656 2.91361404 9.25303113 2.78431688 9.3209197 2.63527273 9.3790412 2.47649493 9.40755338 2.31672168 9.40488708 2.2511875 9.40846019 2.18742452 9.41917943 2.12720392 9.41917943 2.03155946 9.42811212 1.92705901 9.4495506 1.81724499 9.47098909 1.58167619 9.51386606 1.31422591 9.56746235 1.18847114 9.47098909.931648016 9.26911004.681909669 9.03685974.439256098 8.81354212zM.154093873 9.17085031C.396747444 9.39595439.64648579 9.62641814.912164885 9.82829727L.956444732 9.85866845 1.04146204 12.6420988C1.04323324 12.7296393 1.05208921 12.8243259 1.06271637 12.9190126 1.08522129 13.0790001 1.08522129 13.2413911 1.06271637 13.4013786 1.01666532 13.6121904.696079221 13.8283619.46228162 13.9855774L.421544159 14.0123755C.142091716 13.0337701.00019292594 12.0204459 0 11.0020545.000764760636 10.3883918.0523083048 9.77586423.154093873 9.17085031zM20.3067385 16.776154L20.3368489 16.8261771C19.5782122 18.0393167 18.5935577 19.0925671 17.4374044 19.9276117 16.1745431 19.3326936 14.9169954 18.6913256 14.1022462 17.6051088 14.602356 17.3406043 15.0808958 17.0365358 15.5333709 16.6957596 16.092941 16.2422232 16.6148194 15.743308 17.0937928 15.2039981 17.2850817 15.0003325 17.4763707 14.7984534 17.671202 14.6001474 17.8376942 14.539405 18.0041865 14.476876 18.1671363 14.4089876 18.2455084 14.6670677 18.3947316 14.8974874 18.5975365 15.0735807 18.7088385 15.1553522 18.827427 15.2265237 18.9517752 15.286179 19.0909591 15.344194 19.2196404 15.4250904 19.3325819 15.5255755 19.6855672 15.9192229 20.0110667 16.3370844 20.3067385 16.776154zM10.5580871 14.6305185C10.5552127 14.4852844 10.6131264 14.3455477 10.7176215 14.2455873 10.8221166 14.1456268 10.9635248 14.0946913 11.1071573 14.1052756 11.2455874 14.1026048 11.3804876 14.1494379 11.487964 14.2374796 11.5982608 14.3368742 11.657601 14.4815769 11.6491426 14.6305185 11.6491426 14.9344157 11.4049015 15.1807731 11.1036148 15.1807731 10.8023282 15.1807731 10.5580871 14.9344157 10.5580871 14.6305185zM5.63771033 16.6528826C5.86932619 16.6258352 6.09629449 16.5675499 6.31253522 16.4795882 6.03898255 17.247963 5.82925885 18.0379546 5.68553257 18.8413949 5.67313421 18.5501889 5.65896465 18.2589827 5.65010869 17.9713497 5.63771033 17.5282876 5.63771033 17.0905851 5.63771033 16.6528826zM4.95934305 12.365185C5.00008051 12.213329 5.04081797 12.0614731 5.08509781 11.9185498L5.25336124 11.3325645C5.18782706 12.1347212 5.12406409 12.9458107 5.08509781 13.7533272 4.85953852 13.7669044 4.63647778 13.8083032 4.42090009 13.8765984 4.51792685 13.7050739 4.60085991 13.5258204 4.66886724 13.3406362 4.78222365 13.0208454 4.87255454 12.6867623 4.95934305 12.365185zM5.01070768 17.9910016C5.01956364 18.2661289 5.031962 18.5430426 5.04436035 18.8163834 4.81233395 18.032092 4.55728202 17.2460142 4.25440786 16.4795882 4.49166619 16.5758245 4.74176448 16.636031 4.99653812 16.6582422 4.99476692 17.0977312 4.99653812 17.5425799 5.01070768 17.9910016zM3.06062314 4.69735244C3.03936881 4.28763911 3.01693369 3.87613924 2.99331777 3.46285284 3.62989218 2.779506 4.34935904 2.17985746 5.13469125 1.6780987 5.36098355 2.91093172 5.49655459 4.15896024 5.54029466 5.41196871 5.57571854 6.70542416 5.49778601 8.02031809 5.39859915 9.31556012L4.69012157 11.7899189C4.64584172 11.9417749 4.60510426 12.0972039 4.56259561 12.2508464 4.47757829 12.5652776 4.3890186 12.8904279 4.28097576 13.1977129 4.19219772 13.4283448 4.08250904 13.650221 3.95330488 13.8605196 3.89662668 13.9730716 3.83463489 14.0856237 3.77618549 14.1999623 3.58628525 14.3514536 3.44363313 14.5548817 3.3652685 14.7859476L3.15449642 14.6608898C2.99546148 14.5726765 2.84223057 14.4742125 2.69575719 14.3661106 2.54343451 14.2535585 2.39111183 14.1320737 2.24056034 14.0088024 2.00499154 13.8176426 1.76233797 13.6139769 1.51082844 13.4353229 1.53479973 13.2485152 1.53479973 13.0593702 1.51082844 12.8725626 1.50197247 12.7885952 1.4913453 12.7064143 1.4913453 12.629593L1.41695516 9.97658011C1.5767971 9.96862556 1.73563573 9.94650628 1.89163514 9.9104781 1.97842364 9.89082617 2.0758393 9.86402811 2.15554304 9.86402811L2.33266242 9.85152231C2.55685304 9.85358937 2.77895452 9.80793189 2.98446179 9.71753174 3.4219467 9.49242757 3.37235327 9.05115209 3.33870059 8.75815935L3.32807343 8.66347273C3.19700508 7.35036534 3.1279285 6.00152713 3.06062314 4.69735244z"/>
      <path fill="#D40058" fill-rule="nonzero" d="M28.4593137,21.0108085 L28.4593137,21.0090203 C28.7331088,21.0090203 28.9550636,21.230782 28.9550636,21.504339 C28.9550636,21.7778959 28.7331088,21.9996576 28.4593137,21.9996576 C25.8552846,21.9996576 23.3711662,20.8820614 21.4615449,18.8525068 C21.3163565,18.7046393 21.2727752,18.4848153 21.3505829,18.2928145 C21.4303856,18.1143649 21.6077571,17.999489 21.8033797,17.9995573 C21.9532858,18.0018736 22.0953949,18.0667071 22.1953263,18.1783727 C23.9098692,20.005866 26.1326899,21.0108085 28.4593137,21.0108085 Z M30.4637896,0.962026803 L30.4637896,0.965603118 C30.2104194,0.934870003 30.0242415,0.713200332 30.0379286,0.458558691 C30.0516157,0.20391705 30.2604839,0.00344437088 30.5156913,7.52406137e-10 L30.5765414,7.52406137e-10 C32.7764809,0.242148192 34.8042112,1.30397689 36.2552934,2.97369996 C36.4133135,3.1558474 36.4133135,3.42634717 36.2552934,3.6084946 C36.1611133,3.71304179 36.0273859,3.77336134 35.886613,3.77481067 C35.7438615,3.77601043 35.6077697,3.71456092 35.5143532,3.60670644 C34.2235907,2.12195351 32.4202711,1.17766236 30.4637896,0.962026803 Z M30.5085324,12.4240934 C30.3474585,12.3829659 30.1845948,12.3418384 30.0271003,12.3078634 L30.0271003,10.1084341 C30.4548411,10.2157233 30.6928726,10.398115 30.7930965,10.6931604 C30.8723161,10.9568633 30.9262504,11.2274974 30.9541704,11.501406 C30.9865002,11.8327014 31.0549141,12.1594832 31.1581974,12.4759498 C31.1707254,12.5099248 31.1850431,12.5438997 31.1993608,12.5778746 C30.9702778,12.5385353 30.7376154,12.4813143 30.5085324,12.4240934 Z M31.3729627,10.4893109 C31.1456694,9.8312702 30.5568546,9.59523391 30.0360488,9.48079206 L30.0360488,7.22948048 C32.7964624,7.22437709 35.3332594,8.74526899 36.6275533,11.1813264 L36.2016021,11.5174994 C36.1568593,11.5532624 36.1103268,11.5961782 36.0620047,11.6390938 C35.9985787,11.6999142 35.9303487,11.7555271 35.8579776,11.8053922 L35.8365012,11.8053922 C35.7488053,11.7696291 34.7089834,11.1562923 34.5532785,11.0543675 C34.4848626,11.0093289 34.3975948,11.0041792 34.3243483,11.0408584 C34.2511017,11.0775375 34.2030042,11.150473 34.1981736,11.2321908 C34.1933431,11.3139086 34.2325133,11.3919938 34.3009294,11.4370324 L34.370728,11.4710074 L33.98773,11.606907 L33.8785576,11.6426701 C33.6595223,11.6857039 33.4770705,11.8363815 33.3935461,12.0432166 C33.3720695,12.0897086 33.3452238,12.163023 33.3183782,12.2434898 C33.2765085,12.3717996 33.2262896,12.4972378 33.1680425,12.6190022 C32.9711743,12.6297311 32.3340373,12.6190022 31.8973479,12.6190022 C31.838184,12.5028347 31.7856028,12.3834361 31.7398534,12.2613714 C31.6510202,11.9857871 31.5910422,11.7017383 31.5608823,11.4137864 C31.5288139,11.1002047 31.4658694,10.7905474 31.3729627,10.4893109 Z M31.940301,21.7046122 C31.9336872,21.7092103 31.9276748,21.7146167 31.9224039,21.7207056 C31.5646282,21.8162533 31.200349,21.8855795 30.8324701,21.9281315 C30.5640135,21.9567419 30.4315749,22.0175392 30.2311273,21.8834276 C30.10757,21.8057785 30.0310127,21.6715842 30.0271003,21.5257968 C30.0271003,21.4185076 30.0271003,21.039419 30.0271003,21.039419 L30.0271003,16.6638063 L32.1389588,21.3130065 C32.0655808,21.4417536 32.0011511,21.574077 31.940301,21.7046122 Z M34.4799005,17.717029 C34.8718471,18.3106961 35.503615,18.6915729 36.0387384,18.9597959 C35.5859857,19.5675254 35.0427799,20.1024191 34.4279989,20.5458885 L33.9841506,19.9182465 C33.9465112,19.8655308 33.8884281,19.8310496 33.8240916,19.8232271 C33.7597549,19.8154046 33.6950901,19.8349612 33.6458953,19.8771189 L32.5022701,20.8695444 L32.4664759,20.9053074 L30.0342591,15.5533628 L30.0342591,12.779936 C30.1559595,12.8085465 30.2794495,12.8371569 30.4029395,12.8693437 C30.7421387,12.9631755 31.0879366,13.0313185 31.4373923,13.0731933 C31.6928503,13.5502123 32.0466417,13.9676887 32.4754244,14.2980787 C32.7331428,14.4840467 33.3273267,14.8094907 33.8069692,14.707566 C34.0134413,14.6654863 34.1908707,14.534656 34.2919809,14.3499352 C34.4007187,14.1265245 34.4616711,13.8829269 34.4709519,13.6346736 C34.5300123,12.8979542 34.7519365,12.8389451 34.896903,12.9355054 C35.181467,13.1250497 35.0168136,13.6078513 34.7966792,14.0995936 L34.7519365,14.2015184 C34.4774465,14.7483321 34.2770286,15.329219 34.1559628,15.9288751 C34.0321693,16.5443945 34.1480231,17.1839142 34.4799005,17.717029 Z M36.999813,12.9408699 C37.1018266,12.9927263 37.2056298,13.0302776 37.3076433,13.0767696 C37.7015148,14.9224096 37.3668252,16.8487241 36.3734143,18.4537484 L36.362676,18.4537484 C35.886613,18.2105595 35.3192747,17.8761747 34.9917577,17.380856 C34.7446026,16.9776417 34.6619503,16.4949625 34.760885,16.032588 C34.8717555,15.4880358 35.0547215,14.9606623 35.304957,14.464377 L35.3496999,14.3624522 C35.5411989,13.9368716 35.9331455,12.9319291 35.1510419,12.4741617 C33.8033898,11.6855858 34.1452245,13.8385232 33.7496985,14.0656187 C33.7228528,14.0799239 33.7174837,14.1085344 33.6709512,14.1192633 C33.4722933,14.1586027 33.0696084,13.9958807 32.8315769,13.8170653 C32.5693256,13.6167919 32.3414406,13.3752144 32.1568559,13.1018038 L32.5845969,13.1018038 C32.8482252,13.1174382 33.1127754,13.1000171 33.3720695,13.0499473 C33.5385126,12.9551751 33.6297879,12.7227151 33.7407499,12.408 C33.7640162,12.3418384 33.783703,12.2828293 33.8016001,12.245278 C33.8463428,12.1433532 33.8535017,12.141565 34.0074168,12.0914967 L34.1309068,12.0521574 L34.7197217,11.8429434 L34.7984689,11.8107566 C34.8217352,11.8000277 34.8646882,11.7785699 34.85395,11.7785699 C34.896903,11.7875106 35.627105,12.2148794 35.627105,12.2148794 L36.1640182,12.5099248 C36.1986995,12.5303289 36.2383158,12.5408428 36.2785596,12.5403234 C36.3610756,12.5408136 36.4372701,12.4962339 36.4772176,12.4240934 C36.5075113,12.3712491 36.5154784,12.3085213 36.4993557,12.2497919 C36.483233,12.1910624 36.44435,12.1411739 36.3913114,12.1111665 L36.2839288,12.0521574 C36.3107744,12.0289114 36.319723,12.0199706 36.3608864,11.9842076 C36.4020497,11.9484445 36.4414233,11.9108932 36.4807969,11.8804946 L36.8262111,11.6033308 C36.958875,11.9003851 37.0724536,12.2055861 37.1662562,12.5170774 C37.0491272,12.4711554 36.9169159,12.5287974 36.8709539,12.6458245 C36.8249919,12.7628516 36.8826841,12.8949478 36.999813,12.9408699 Z M34.043211,20.8087471 C33.5713552,21.1080221 33.0670036,21.3527799 32.539854,21.5383139 C32.6078198,21.4188606 32.694187,21.3108447 32.7957827,21.2182344 L33.7479087,20.3903191 L34.043211,20.8087471 Z M25.2986846,10.9166796 L23.5626653,9.39853699 C23.3539452,7.73666393 22.8128685,6.13369696 21.9716125,4.68496326 L23.3282132,5.83653438 C23.4236474,5.91590028 23.4871991,6.02701915 23.5071843,6.14946131 C23.5827414,6.43103484 23.6365903,6.7179796 23.6682582,7.00777519 C23.6990456,7.26134891 23.7426509,7.51320436 23.7989071,7.76237615 C23.9179724,8.39844406 24.2145294,8.98794274 24.6543889,9.46291053 C25.2167958,10.0501486 25.9975578,10.378366 26.8109902,10.3695046 C26.9527974,10.3693674 27.0944586,10.3604093 27.2351516,10.3426823 C27.7756443,10.2747324 28.3143472,10.1745958 28.8369427,10.0655184 L28.8369427,12.0324877 L26.0217278,11.258217 C25.9716125,11.2421237 25.9071863,11.2278184 25.8427567,11.2135132 C25.7385019,11.1961124 25.6364738,11.1673296 25.5385059,11.1276818 C25.4830034,11.0921797 25.4324519,11.0494887 25.3881702,11.0007229 L25.2986846,10.9166796 Z M25.9071863,11.6998911 L28.8441015,12.5081366 L28.8441015,14.6020649 C26.8536711,14.5938368 24.9519833,13.7780615 23.5751933,12.3418384 C23.6289139,11.8794378 23.6564,11.4143703 23.65752,10.9488664 C23.65752,10.6520329 23.644992,10.3587756 23.6253052,10.0673066 L24.9962236,11.2635815 C25.0194898,11.2832512 25.0427561,11.3064972 25.067812,11.3297432 C25.1446441,11.4123649 25.234034,11.4823663 25.3326892,11.537169 C25.4642465,11.5972506 25.6033045,11.6393527 25.7461123,11.6623398 C25.803383,11.6748569 25.8570744,11.6855858 25.9071863,11.6998911 Z M28.3948841,0.00894077033 C28.8798957,-0.0178815384 28.8441015,0.52929356 28.8441015,0.52929356 L28.8441015,9.45396977 C28.29645,9.56841162 27.7291118,9.67748899 27.1671426,9.74722702 C26.4072147,9.86208678 25.6385715,9.60298685 25.1036062,9.05163514 C24.7392215,8.65546361 24.4958002,8.16346053 24.4020396,7.63362906 C24.350138,7.41905059 24.3197129,7.19553136 24.2874981,6.96128319 L24.3215026,6.98274104 C24.5439625,7.15584385 24.8106157,7.26303189 25.0910782,7.29209167 C25.2760169,7.29213471 25.457413,7.24141272 25.6154634,7.14546304 C25.7496918,7.07036058 25.8123316,7.0542672 25.8713921,7.07036058 C26.0938893,7.14580584 26.3020363,7.25825256 26.4870525,7.4029572 C26.5872764,7.47805967 26.5998043,7.48700044 26.4333612,7.79456292 L26.3904082,7.87502984 C26.3127863,8.02473238 26.37026,8.20896706 26.5192673,8.2880934 C26.5635568,8.31098526 26.6125833,8.3232312 26.6624442,8.32385648 C26.7763428,8.32423368 26.8807962,8.26064859 26.9326905,8.15934631 L26.9738538,8.08424385 C27.1188204,7.80707999 27.3908565,7.31354951 26.8539433,6.91300303 C26.6122783,6.72142208 26.3391743,6.57319084 26.0467837,6.47490533 C25.8090404,6.42030923 25.5593305,6.46210568 25.352376,6.59113533 C25.2792977,6.64094899 25.1937727,6.66943251 25.1053959,6.67339041 C24.7223978,6.63583918 24.2248583,6.22992824 24.1711669,6.22992824 C24.1496904,6.13694423 24.1282139,6.07257069 24.0995785,5.97958669 C24.0459768,5.74289613 23.9157655,5.53046554 23.7291084,5.37519067 L22.3474518,4.20037355 C22.3103342,4.17062069 22.2668521,4.14981639 22.2203823,4.13957632 C22.6940104,3.16459635 23.3765079,2.30565385 24.2194892,1.62364375 L24.2320171,1.65046607 C24.2693345,1.73243263 24.3512873,1.78492076 24.4414132,1.78457761 C24.4741011,1.7851398 24.5065038,1.77842055 24.5362679,1.76490792 C24.6514835,1.71216439 24.7026068,1.57648605 24.6508094,1.46092175 L24.5953284,1.33932728 C25.7121309,0.549049935 27.0286485,0.0880809951 28.3948841,0.00894077033 Z M33.0481319,10.1316801 C33.0074664,10.1769329 32.9864983,10.2364952 32.9898561,10.2972189 C32.9932139,10.3579425 33.0206216,10.4148345 33.066029,10.4553359 C33.2181544,10.5930238 33.3738592,10.7307117 33.5313538,10.8648231 C33.5732423,10.8992036 33.6256908,10.9181444 33.6798998,10.9184678 C33.7762526,10.9178086 33.8620631,10.8574317 33.8951517,10.7670148 C33.9282404,10.6765981 33.9016479,10.575158 33.8284458,10.5125568 C33.6745307,10.3838098 33.5224052,10.2479101 33.3738592,10.1137986 C33.2789302,10.0289808 33.1331889,10.0369815 33.0481319,10.1316801 Z M32.3322476,9.07130477 L32.3322476,9.07488115 C32.2615749,8.96970491 32.1189469,8.94168447 32.0136792,9.0122957 C31.9084113,9.08290702 31.8803665,9.22541091 31.9510392,9.33058715 C31.995619,9.39411859 32.0452982,9.45392095 32.0995852,9.50940255 L32.2785563,9.68821795 L32.3895184,9.80623609 C32.4325515,9.85227831 32.492912,9.87821716 32.5559615,9.8777681 C32.6150194,9.87752631 32.6718471,9.85519777 32.7152457,9.81517685 C32.8064551,9.72724079 32.8104338,9.58253966 32.7241943,9.48973283 L32.6132322,9.37350279 C32.5505923,9.31807001 32.4933216,9.25548465 32.4342611,9.19468739 C32.3972931,9.15609836 32.3631977,9.11486091 32.3322476,9.07130477 Z M31.2745286,7.68012107 L31.278108,7.68369737 C31.1800031,7.76135779 31.1632013,7.90364982 31.2405241,8.00198877 C31.3543608,8.15002165 31.4504658,8.31085748 31.5268779,8.48121402 C31.56553,8.55962271 31.6452166,8.60947003 31.7326946,8.60996486 C31.7674638,8.61016389 31.8017943,8.60220118 31.8329183,8.5867151 C31.8881312,8.56081832 31.9306099,8.51383668 31.9508043,8.45633278 C31.9709986,8.39882889 31.967214,8.33562856 31.940301,8.28094078 C31.8483751,8.0786409 31.7330478,7.88779613 31.5966765,7.71230783 C31.5584845,7.66497583 31.5028918,7.63492112 31.4423428,7.62887148 C31.3817937,7.62282184 31.3213452,7.64128252 31.2745286,7.68012107 Z M25.0874988,3.20079551 C25.1152594,3.20300258 25.1431878,3.19996952 25.1698255,3.19185474 C25.2263348,3.16821703 25.2710139,3.12294996 25.2938819,3.06616569 C25.3167498,3.00938142 25.3159014,2.94581149 25.2915258,2.88965673 C25.2539419,2.80024903 25.2145682,2.70905318 25.173405,2.62143364 L25.0427561,2.30850671 C24.989875,2.19345479 24.8536573,2.14301802 24.7385053,2.19585302 C24.6233531,2.24868801 24.5728724,2.38478726 24.6257535,2.49983917 L24.7617715,2.80203719 C24.8011451,2.88250411 24.838729,2.97369996 24.8763129,3.0613195 C24.9122692,3.1459808 24.9954506,3.20091734 25.0874988,3.20079551 Z M25.9304525,4.53654648 C25.9807569,4.50186807 26.0151066,4.44854385 26.0258619,4.38843357 C26.0366172,4.3283233 26.0228864,4.26641116 25.9877233,4.21646693 C25.9018171,4.09308431 25.8123316,3.95897276 25.7371638,3.82486123 C25.7156873,3.78909815 25.6942107,3.75154692 25.6745239,3.71220753 C25.6361597,3.63969852 25.5619931,3.59314665 25.4799617,3.59008755 C25.3979303,3.58702846 25.3204968,3.62792688 25.2768295,3.69737679 C25.2331623,3.7668267 25.2298955,3.85427699 25.2682596,3.926786 C25.2897361,3.96970169 25.3130023,4.01082923 25.3362685,4.05195677 C25.4221747,4.2021617 25.518819,4.34521401 25.6100943,4.4775374 C25.6530239,4.54003022 25.7239415,4.57746354 25.7998036,4.57767402 C25.846429,4.57694709 25.8918309,4.56265481 25.9304525,4.53654648 Z M27.1599837,5.5057259 C27.1788166,5.44668203 27.1728823,5.38253177 27.1435373,5.32793686 C27.1141923,5.27334195 27.0639448,5.23296886 27.0042789,5.21604497 L26.7769856,5.14451881 C26.6895074,5.12029377 26.6062277,5.08291077 26.5300056,5.03365327 C26.5121544,5.01873644 26.4959545,5.00195117 26.4816834,4.98358496 C26.4026091,4.88482796 26.2583785,4.86881628 26.1595355,4.94782189 C26.0606925,5.0268275 26.0446669,5.17093258 26.1237413,5.26968959 C26.1611426,5.31834389 26.2044243,5.36218857 26.2526004,5.40022483 C26.3736687,5.48121873 26.5073156,5.54163986 26.6481265,5.57904022 L26.7232944,5.60228622 L26.7787754,5.62016776 L26.8736301,5.65056637 C26.9245829,5.66856523 26.9801718,5.66856523 27.0311246,5.65056637 C27.0932771,5.62352867 27.140396,5.57056595 27.1599837,5.5057259 Z M28.5094257,6.05647731 C28.5559445,5.9384692 28.4983829,5.80507419 28.3805664,5.75785561 L27.8024899,5.5289719 C27.7260814,5.49894614 27.6394444,5.51192921 27.5752145,5.56303052 C27.5109844,5.61413182 27.4789195,5.69558786 27.4910981,5.77671492 C27.5032766,5.85784198 27.5578486,5.92631494 27.6342571,5.95634069 L28.210544,6.18522439 C28.2379728,6.19572388 28.2670774,6.20117623 28.29645,6.20131778 C28.3903098,6.20078123 28.474502,6.14352371 28.5094257,6.05647731 Z"/>
    </g>
  </g>
</svg>
