<svg xmlns:dc="http://purl.org/dc/elements/1.1/" xmlns:cc="http://creativecommons.org/ns#" xmlns:rdf="http://www.w3.org/1999/02/22-rdf-syntax-ns#" xmlns:svg="http://www.w3.org/2000/svg" xmlns="http://www.w3.org/2000/svg" xmlns:sodipodi="http://sodipodi.sourceforge.net/DTD/sodipodi-0.dtd" xmlns:inkscape="http://www.inkscape.org/namespaces/inkscape" viewBox="0 0 319.96689 320.83426" version="1.1" id="svg4" sodipodi:docname="xmark-white.svg" inkscape:version="0.92.5 (2060ec1f9f, 2020-04-08)" width="319.96689" height="320.83426">
  <defs id="defs8"/>
  <!--! Font Awesome Pro 6.1.1 by @fontawesome - https://fontawesome.com License - https://fontawesome.com/license (Commercial License) Copyright 2022 Fonticons, Inc. -->
  <path d="m 312.09975,279.86713 c 9.369,9.369 9.369,24.57 0,33.94 -9.369,9.37 -24.57,9.369 -33.94,0 l -118.16,-119.04 -119,119 c -9.369,9.369 -24.57,9.369 -33.94,0 -9.37,-9.369 -9.369,-24.57 0,-33.94 l 119.04,-118.96 L 7.02675,40.967125 c -9.369,-9.369 -9.369,-24.57 0,-33.94 9.369,-9.37 24.57,-9.369 33.94,0 l 119.033,119.940005 119,-119.000005 c 9.369,-9.369 24.57,-9.369 33.94,0 9.37,9.369 9.369,24.57 0,33.94 l -119.04,118.960005 z" id="path2" style="fill:#ffffff" inkscape:connector-curvature="0"/>
</svg>