<svg width="159" height="46" viewBox="0 0 159 46" fill="none" xmlns="http://www.w3.org/2000/svg">
  <style>
    .registered {
      font-family: Avenir, Montserrat, Corbel, 'URW Gothic', source-sans-pro, sans-serif;
      font-size: 9px;
      font-weight: 600;
    }
  </style>
  <circle cx="18.75" cy="22.7273" r="17.0455" stroke="#8D1D82" stroke-width="3.40909"/>
  <mask id="path-2-outside-1_39_270" maskUnits="userSpaceOnUse" x="7.81818" y="15.8409" width="23" height="14" fill="black">
  <rect fill="white" x="7.81818" y="15.8409" width="23" height="14"/>
  <path d="M17.3352 19.2955H10.875V21.8352H16.5682V24.2216H10.875V28.8409H8.24999V16.9091H17.3352V19.2955ZM29.7486 28.8409H26.6804L24.1236 25.0227H22.0611V28.8409H19.4361V16.9091H24.8906C27.7031 16.9091 29.3906 18.392 29.3906 20.8466V20.8807C29.3906 22.8068 28.3508 24.017 26.8338 24.5795L29.7486 28.8409ZM26.7315 21.017V20.983C26.7315 19.858 25.9474 19.2784 24.669 19.2784H22.0611V22.7045H24.7202C25.9986 22.7045 26.7315 22.0227 26.7315 21.017Z"/>
  </mask>
  <path d="M17.3352 19.2955H10.875V21.8352H16.5682V24.2216H10.875V28.8409H8.24999V16.9091H17.3352V19.2955ZM29.7486 28.8409H26.6804L24.1236 25.0227H22.0611V28.8409H19.4361V16.9091H24.8906C27.7031 16.9091 29.3906 18.392 29.3906 20.8466V20.8807C29.3906 22.8068 28.3508 24.017 26.8338 24.5795L29.7486 28.8409ZM26.7315 21.017V20.983C26.7315 19.858 25.9474 19.2784 24.669 19.2784H22.0611V22.7045H24.7202C25.9986 22.7045 26.7315 22.0227 26.7315 21.017Z" fill="#8D1D82"/>
  <path d="M17.3352 19.2955V19.6364H17.6761V19.2955H17.3352ZM10.875 19.2955V18.9545H10.5341V19.2955H10.875ZM10.875 21.8352H10.5341V22.1761H10.875V21.8352ZM16.5682 21.8352H16.9091V21.4943H16.5682V21.8352ZM16.5682 24.2216V24.5625H16.9091V24.2216H16.5682ZM10.875 24.2216V23.8807H10.5341V24.2216H10.875ZM10.875 28.8409V29.1818H11.2159V28.8409H10.875ZM8.24999 28.8409H7.90909V29.1818H8.24999V28.8409ZM8.24999 16.9091V16.5682H7.90909V16.9091H8.24999ZM17.3352 16.9091H17.6761V16.5682H17.3352V16.9091ZM17.3352 18.9545H10.875V19.6364H17.3352V18.9545ZM10.5341 19.2955V21.8352H11.2159V19.2955H10.5341ZM10.875 22.1761H16.5682V21.4943H10.875V22.1761ZM16.2273 21.8352V24.2216H16.9091V21.8352H16.2273ZM16.5682 23.8807H10.875V24.5625H16.5682V23.8807ZM10.5341 24.2216V28.8409H11.2159V24.2216H10.5341ZM10.875 28.5H8.24999V29.1818H10.875V28.5ZM8.5909 28.8409V16.9091H7.90909V28.8409H8.5909ZM8.24999 17.25H17.3352V16.5682H8.24999V17.25ZM16.9943 16.9091V19.2955H17.6761V16.9091H16.9943ZM29.7486 28.8409V29.1818H30.3948L30.03 28.6484L29.7486 28.8409ZM26.6804 28.8409L26.3971 29.0306L26.4984 29.1818H26.6804V28.8409ZM24.1236 25.0227L24.4068 24.833L24.3056 24.6818H24.1236V25.0227ZM22.0611 25.0227V24.6818H21.7202V25.0227H22.0611ZM22.0611 28.8409V29.1818H22.402V28.8409H22.0611ZM19.4361 28.8409H19.0952V29.1818H19.4361V28.8409ZM19.4361 16.9091V16.5682H19.0952V16.9091H19.4361ZM26.8338 24.5795L26.7153 24.2599L26.306 24.4117L26.5524 24.772L26.8338 24.5795ZM22.0611 19.2784V18.9375H21.7202V19.2784H22.0611ZM22.0611 22.7045H21.7202V23.0455H22.0611V22.7045ZM29.7486 28.5H26.6804V29.1818H29.7486V28.5ZM26.9637 28.6512L24.4068 24.833L23.8403 25.2124L26.3971 29.0306L26.9637 28.6512ZM24.1236 24.6818H22.0611V25.3636H24.1236V24.6818ZM21.7202 25.0227V28.8409H22.402V25.0227H21.7202ZM22.0611 28.5H19.4361V29.1818H22.0611V28.5ZM19.777 28.8409V16.9091H19.0952V28.8409H19.777ZM19.4361 17.25H24.8906V16.5682H19.4361V17.25ZM24.8906 17.25C26.2399 17.25 27.2763 17.6056 27.9707 18.2138C28.6593 18.817 29.0497 19.702 29.0497 20.8466H29.7315C29.7315 19.5367 29.2782 18.4528 28.4199 17.701C27.5674 16.9541 26.3538 16.5682 24.8906 16.5682V17.25ZM29.0497 20.8466V20.8807H29.7315V20.8466H29.0497ZM29.0497 20.8807C29.0497 21.7797 28.8081 22.4912 28.4061 23.04C28.0028 23.5905 27.4229 23.9975 26.7153 24.2599L26.9523 24.8992C27.7618 24.5991 28.4603 24.1197 28.9561 23.443C29.4532 22.7644 29.7315 21.9078 29.7315 20.8807H29.0497ZM26.5524 24.772L29.4672 29.0334L30.03 28.6484L27.1152 24.3871L26.5524 24.772ZM27.0724 21.017V20.983H26.3906V21.017H27.0724ZM27.0724 20.983C27.0724 20.3342 26.842 19.8032 26.393 19.4429C25.9556 19.0919 25.3536 18.9375 24.669 18.9375V19.6193C25.2628 19.6193 25.6921 19.7546 25.9663 19.9747C26.229 20.1855 26.3906 20.5067 26.3906 20.983H27.0724ZM24.669 18.9375H22.0611V19.6193H24.669V18.9375ZM21.7202 19.2784V22.7045H22.402V19.2784H21.7202ZM22.0611 23.0455H24.7202V22.3636H22.0611V23.0455ZM24.7202 23.0455C25.4175 23.0455 26.0073 22.8593 26.428 22.496C26.8541 22.1282 27.0724 21.6079 27.0724 21.017H26.3906C26.3906 21.4318 26.2425 21.7554 25.9825 21.9799C25.7172 22.2089 25.3012 22.3636 24.7202 22.3636V23.0455Z" fill="#8D1D82" mask="url(#path-2-outside-1_39_270)"/>
  <text x="44.5" y="8" class="registered" fill="#575756">Registered 2024/25</text>
  <path d="M135.136 0C132.511 0 130.364 2.14773 130.364 4.77273C130.364 7.39773 132.511 9.54545 135.136 9.54545C137.761 9.54545 139.909 7.39773 139.909 4.77273C139.909 2.14773 137.761 0 135.136 0ZM134.182 7.15909L131.795 4.77273L132.468 4.09977L134.182 5.80841L137.804 2.18591L138.477 2.86364L134.182 7.15909Z" fill="#8D1D82"/>
  <path d="M45.4091 25.5455V13.6136H53.8125V14.4318H46.2954V19.3239H53.0454V20.142H46.2954V25.5455H45.4091ZM60.4474 25.733C57.5838 25.733 55.5554 23.9261 55.5554 20.5852V13.6136H56.4417V20.5C56.4417 23.3466 57.9417 24.9318 60.4815 24.9318C62.8849 24.9318 64.4531 23.4659 64.4531 20.5852V13.6136H65.3395V20.483C65.3395 23.892 63.3452 25.733 60.4474 25.733ZM67.8412 25.5455V13.6136H68.6764L76.9093 23.9943V13.6136H77.7616V25.5455H77.0968L68.6934 14.9432V25.5455H67.8412ZM80.4555 25.5455V13.6136H84.4271C88.1771 13.6136 90.768 16.1875 90.768 19.5455V19.5795C90.768 22.9375 88.1771 25.5455 84.4271 25.5455H80.4555ZM84.4271 14.4318H81.3418V24.7273H84.4271C87.7509 24.7273 89.8475 22.4602 89.8475 19.6136V19.5795C89.8475 16.767 87.7509 14.4318 84.4271 14.4318ZM92.9366 25.5455V13.6136H97.948C99.4309 13.6136 100.573 14.0568 101.306 14.7898C101.868 15.3523 102.209 16.1364 102.209 17.0057V17.0398C102.209 19.0341 100.709 20.1761 98.715 20.4489L102.653 25.5455H101.528L97.7264 20.6023H93.823V25.5455H92.9366ZM93.823 19.8011H97.8457C99.84 19.8011 101.323 18.7784 101.323 17.0739V17.0398C101.323 15.4205 100.079 14.4318 97.8968 14.4318H93.823V19.8011ZM103.38 25.5455L108.936 13.5284H109.789L115.346 25.5455H114.374L112.857 22.2045H105.817L104.3 25.5455H103.38ZM106.192 21.4034H112.482L109.346 14.5L106.192 21.4034ZM117.136 25.5455V13.6136H118.022V25.5455H117.136ZM124.882 25.7159C122.973 25.7159 121.507 25.0852 120.075 23.8068L120.654 23.142C121.967 24.3693 123.177 24.9148 124.933 24.9148C126.723 24.9148 127.95 23.9091 127.95 22.5455V22.5114C127.95 21.25 127.285 20.517 124.575 19.9716C121.694 19.375 120.552 18.4375 120.552 16.6136V16.5795C120.552 14.8068 122.171 13.4432 124.387 13.4432C126.109 13.4432 127.268 13.9205 128.478 14.892L127.916 15.5909C126.774 14.6193 125.666 14.2443 124.353 14.2443C122.581 14.2443 121.438 15.267 121.438 16.4943V16.5284C121.438 17.8068 122.086 18.5398 124.916 19.1364C127.694 19.6989 128.836 20.6705 128.836 22.4261V22.4602C128.836 24.3864 127.183 25.7159 124.882 25.7159ZM131.012 25.5455V13.6136H131.898V25.5455H131.012ZM134.718 25.5455V13.6136H135.553L143.786 23.9943V13.6136H144.638V25.5455H143.974L135.57 14.9432V25.5455H134.718ZM152.804 25.75C149.037 25.75 146.804 22.9716 146.804 19.6136V19.5795C146.804 16.358 149.139 13.4091 152.702 13.4091C154.645 13.4091 155.872 13.9716 157.065 14.9773L156.486 15.642C155.548 14.8239 154.44 14.2102 152.65 14.2102C149.736 14.2102 147.724 16.6648 147.724 19.5455V19.5795C147.724 22.6648 149.65 24.9659 152.838 24.9659C154.338 24.9659 155.77 24.3352 156.639 23.6023V20.1761H152.65V19.358H157.491V23.9602C156.4 24.9148 154.764 25.75 152.804 25.75Z" fill="#8D1D82"/>
  <path d="M55.8504 42.4546H52.6595L50.0004 38.4837H47.8554V42.4546H45.1254V30.0455H50.7982C53.7232 30.0455 55.4782 31.5877 55.4782 34.1405V34.1759C55.4782 36.1791 54.3968 37.4377 52.8191 38.0227L55.8504 42.4546ZM52.7127 34.3177V34.2823C52.7127 33.1123 51.8973 32.5096 50.5677 32.5096H47.8554V36.0727H50.6209C51.9504 36.0727 52.7127 35.3637 52.7127 34.3177ZM67.3848 42.4546H57.9362V30.0455H67.2962V32.4741H60.6484V34.9914H66.4984V37.42H60.6484V40.0259H67.3848V42.4546ZM81.0866 40.6996C79.8102 41.7809 78.0552 42.6673 75.7861 42.6673C71.9216 42.6673 69.2625 39.955 69.2625 36.2855V36.25C69.2625 32.7223 72.0102 29.8327 75.7684 29.8327C78.0021 29.8327 79.3493 30.4355 80.6434 31.5346L78.9239 33.6087C77.9666 32.8109 77.1157 32.35 75.6798 32.35C73.6943 32.35 72.1166 34.105 72.1166 36.2146V36.25C72.1166 38.5191 73.6766 40.1855 75.8748 40.1855C76.8675 40.1855 77.7539 39.9373 78.4452 39.4409V37.6682H75.6975V35.3105H81.0866V40.6996ZM94.3321 37.0477C94.3321 40.8059 92.2225 42.6496 88.8898 42.6496C85.5571 42.6496 83.5184 40.7882 83.5184 37.1364V30.0455H86.2484V37.0655C86.2484 39.0864 87.2589 40.1323 88.9252 40.1323C90.5916 40.1323 91.6021 39.1218 91.6021 37.1541V30.0455H94.3321V37.0477ZM106.03 42.4546H97.1127V30.0455H99.8427V39.9727H106.03V42.4546ZM120.178 42.4546H117.324L116.19 39.6714H110.943L109.808 42.4546H107.025L112.343 29.9568H114.86L120.178 42.4546ZM115.215 37.2605L113.566 33.2364L111.918 37.2605H115.215ZM129.896 32.5627H126.121V42.4546H123.391V32.5627H119.615V30.0455H129.896V32.5627ZM144.099 36.25C144.099 39.7777 141.316 42.6673 137.487 42.6673C133.658 42.6673 130.91 39.8132 130.91 36.2855V36.25C130.91 32.7223 133.693 29.8327 137.522 29.8327C141.351 29.8327 144.099 32.6868 144.099 36.2146V36.25ZM141.245 36.2855V36.25C141.245 34.1227 139.685 32.35 137.487 32.35C135.288 32.35 133.764 34.0873 133.764 36.2146V36.25C133.764 38.3773 135.324 40.15 137.522 40.15C139.72 40.15 141.245 38.4127 141.245 36.2855ZM157.246 42.4546H154.055L151.396 38.4837H149.251V42.4546H146.521V30.0455H152.193C155.118 30.0455 156.873 31.5877 156.873 34.1405V34.1759C156.873 36.1791 155.792 37.4377 154.214 38.0227L157.246 42.4546ZM154.108 34.3177V34.2823C154.108 33.1123 153.292 32.5096 151.963 32.5096H149.251V36.0727H152.016C153.346 36.0727 154.108 35.3637 154.108 34.3177Z" fill="#575756"/>
</svg>
