<svg xmlns:dc="http://purl.org/dc/elements/1.1/" xmlns:cc="http://creativecommons.org/ns#" xmlns:rdf="http://www.w3.org/1999/02/22-rdf-syntax-ns#" xmlns:svg="http://www.w3.org/2000/svg" xmlns="http://www.w3.org/2000/svg" xmlns:sodipodi="http://sodipodi.sourceforge.net/DTD/sodipodi-0.dtd" xmlns:inkscape="http://www.inkscape.org/namespaces/inkscape" viewBox="0 0 448 368" version="1.1" id="svg4" sodipodi:docname="bars-water.svg" width="448" height="368" inkscape:version="0.92.5 (2060ec1f9f, 2020-04-08)">
  <defs id="defs8"/>
  <!--! Font Awesome Pro 6.1.1 by @fontawesome - https://fontawesome.com License - https://fontawesome.com/license (Commercial License) Copyright 2022 Fonticons, Inc. -->
  <path d="M 0,24 C 0,10.75 10.75,0 24,0 h 400 c 13.3,0 24,10.75 24,24 0,13.3 -10.7,24 -24,24 H 24 C 10.75,48 0,37.3 0,24 Z m 0,160 c 0,-13.3 10.75,-24 24,-24 h 400 c 13.3,0 24,10.7 24,24 0,13.3 -10.7,24 -24,24 H 24 C 10.75,208 0,197.3 0,184 Z M 424,368 H 24 C 10.75,368 0,357.3 0,344 0,330.7 10.75,320 24,320 h 400 c 13.3,0 24,10.7 24,24 0,13.3 -10.7,24 -24,24 z" id="path2" inkscape:connector-curvature="0" style="fill:#1e29f5"/>
</svg>