<svg xmlns:dc="http://purl.org/dc/elements/1.1/" xmlns:cc="http://creativecommons.org/ns#" xmlns:rdf="http://www.w3.org/1999/02/22-rdf-syntax-ns#" xmlns:svg="http://www.w3.org/2000/svg" xmlns="http://www.w3.org/2000/svg" xmlns:sodipodi="http://sodipodi.sourceforge.net/DTD/sodipodi-0.dtd" xmlns:inkscape="http://www.inkscape.org/namespaces/inkscape" id="RGB_Black" data-name="RGB Black" viewBox="111 100 1009.349 396.85004" version="1.1" sodipodi:docname="logo-nostrap.en.svg" width="1009.349" height="396.85004" inkscape:version="0.92.5 (2060ec1f9f, 2020-04-08)">
  <metadata id="metadata11">
    <rdf:RDF>
      <cc:Work rdf:about="">
        <dc:format>image/svg+xml</dc:format>
        <dc:type rdf:resource="http://purl.org/dc/dcmitype/StillImage"/>
        <dc:title/>
      </cc:Work>
    </rdf:RDF>
  </metadata>
  <defs id="defs9"/>
  <sodipodi:namedview pagecolor="#ffffff" bordercolor="#666666" borderopacity="1" objecttolerance="10" gridtolerance="10" guidetolerance="10" inkscape:pageopacity="0" inkscape:pageshadow="2" inkscape:window-width="768" inkscape:window-height="480" id="namedview7" showgrid="false" fit-margin-top="0" fit-margin-left="0" fit-margin-right="0" fit-margin-bottom="0" inkscape:zoom="0.31485149" inkscape:cx="504.437" inkscape:cy="204.17005" inkscape:window-x="0" inkscape:window-y="34" inkscape:window-maximized="0" inkscape:current-layer="RGB_Black"/>
  <style id="style2">path,polygon{fill:#fff}</style>
  <path d="m 309.427,100 c 109.58,0 198.414,88.827 198.427,198.404 H 396.789 a 87.362,87.362 0 0 0 -174.724,0 H 111 C 111.013,188.827 199.847,100 309.427,100 m 85.385,239.748 c -7.061,0 -19.116,2.757 -26.837,2.78 H 250.877 c -7.72,-0.023 -19.772,-2.78 -26.836,-2.78 h -108.73 q 0.885,4.162 1.933,8.256 h 106.899 c 6.962,0 17.807,-2.778 26.734,-2.778 h 117.1 c 8.927,0 19.775,2.778 26.734,2.778 H 501.61 q 1.053,-4.098 1.933,-8.256 z m -11.956,22.75 c -6.944,0 -19.343,3.977 -26.785,3.895 h -93.29 c -7.441,0.082 -19.84,-3.896 -26.785,-3.896 H 121.573 q 1.766,5.174 3.802,10.212 h 110.621 c 6.944,0 17.268,-3.617 26.786,-3.617 h 93.289 c 9.517,0 19.841,3.617 26.785,3.617 h 110.622 q 2.033,-5.036 3.801,-10.212 z m 81.536,59.866 q 5.537,-6.92 10.46,-14.324 H 144 q 4.917,7.398 10.46,14.324 z M 178.083,447.16 H 440.77 a 199.494,199.494 0 0 0 16.436,-16.32 H 161.647 a 199.895,199.895 0 0 0 16.436,16.32 m 45.154,30.045 a 198.896,198.896 0 0 0 172.38,0 z m 140.77,-91.913 c -8.848,0 -22.754,4.728 -36.338,4.792 h -36.487 c -13.581,-0.064 -27.49,-4.792 -36.336,-4.792 H 130.978 q 3.06,6.276 6.538,12.29 h 123.056 c 8.803,-0.008 17.029,-4.8 30.61,-4.8 h 36.487 c 13.584,0 21.81,4.792 30.612,4.8 h 123.054 q 3.481,-6.012 6.538,-12.29 z M 378.9,318.234 H 239.92 c -7.934,0 -14.669,-2.42 -19.678,-2.364 H 111.857 c 0.192,2.075 0.534,5.238 0.792,7.301 h 107.553 c 4.96,-0.053 11.804,-2.239 19.741,-2.239 h 138.934 c 7.94,0 14.781,2.18 19.742,2.234 l 107.555,0.003 c 0.255,-2.06 0.597,-5.224 0.789,-7.3 H 398.577 c -5.009,-0.055 -11.741,2.365 -19.678,2.365 M 407.427,471 a 198.918,198.918 0 0 0 25.03,-16.885 H 186.397 A 198.944,198.944 0 0 0 211.427,471 Z M 560.656,193.153 c 0,-25.236 17.223,-43.535 41.622,-43.535 17.7,0 31.696,8.969 37.317,26.071 l -13.996,4.547 c -3.107,-10.165 -10.522,-17.103 -23.203,-17.103 -15.785,0 -27.149,13.038 -27.149,30.14 0,17.94 11.841,30.02 27.509,30.02 12.917,0 19.854,-7.178 22.723,-15.548 l 13.756,4.544 c -5.86,15.31 -18.06,24.398 -36.718,24.398 -24.28,0 -41.861,-17.103 -41.861,-43.534 m 122.887,21.051 v -6.937 l -11.84,1.794 c -7.418,1.076 -10.764,3.587 -10.764,8.491 0,4.545 3.946,7.654 10.524,7.654 6.458,0 12.08,-3.828 12.08,-11.002 m -36.36,4.185 c 0,-8.73 4.544,-17.102 23.562,-19.736 l 12.798,-1.793 v -0.718 c 0,-6.815 -3.35,-10.882 -11.006,-10.882 -7.535,0 -10.884,3.587 -11.841,9.687 l -12.677,-3.109 c 3.23,-11.84 10.766,-18.06 25,-18.06 13.274,0 24.875,6.578 24.875,22.125 v 39.232 h -12.078 l -1.558,-5.382 c -2.39,3.348 -7.054,7.054 -16.623,7.054 -11.243,0 -20.453,-7.054 -20.453,-18.418 m 63.87,-42.937 h 11.841 l 2.034,7.176 c 3.71,-4.904 9.328,-8.85 18.18,-8.85 13.514,0 21.409,7.774 21.409,25.236 v 36.118 h -14.353 v -34.207 c 0,-10.522 -4.906,-13.87 -11.602,-13.87 -7.295,0 -13.157,5.14 -13.157,15.307 v 32.77 h -14.352 z m 100.688,38.752 v -6.937 l -11.84,1.794 c -7.414,1.076 -10.763,3.587 -10.763,8.491 0,4.545 3.945,7.654 10.525,7.654 6.458,0 12.078,-3.828 12.078,-11.002 m -36.359,4.185 c 0,-8.73 4.547,-17.102 23.562,-19.736 l 12.797,-1.793 v -0.718 c 0,-6.815 -3.348,-10.882 -11.004,-10.882 -7.534,0 -10.884,3.587 -11.841,9.687 l -12.677,-3.109 c 3.23,-11.84 10.766,-18.06 24.998,-18.06 13.274,0 24.879,6.578 24.879,22.125 v 39.232 h -12.083 l -1.553,-5.382 c -2.393,3.348 -7.058,7.054 -16.627,7.054 -11.241,0 -20.451,-7.054 -20.451,-18.418 m 64.468,-66.977 H 854.2 v 83.722 h -14.351 z m 91.648,44.969 h -12.32 c -8.013,0 -14.712,5.386 -14.712,13.757 0,8.372 6.34,13.515 13.873,13.515 7.176,0 13.158,-5.143 13.158,-13.515 z m 21.287,0.12 h -7.774 v 13.757 c 0,15.786 -11.96,26.551 -26.672,26.551 -16.506,0 -28.466,-10.526 -28.466,-26.433 a 23.869,23.869 0 0 1 11.125,-20.573 21.792,21.792 0 0 1 -6.938,-16.263 c 0,-13.996 11.362,-23.802 25.714,-23.802 13.516,0 21.768,7.295 24.04,17.822 l -12.676,3.226 c -1.196,-5.38 -5.861,-8.61 -11.364,-8.61 -6.819,0 -12.08,4.424 -12.08,11.243 0,6.936 5.261,11.243 11.842,11.243 h 11.961 v -7.178 h 13.514 v 7.297 h 7.774 z M 596.857,302.618 c 8.73,0 13.754,-5.025 13.754,-12.56 0,-7.773 -5.263,-12.438 -13.993,-12.438 h -14.832 v 24.998 z m -29.663,-38.154 h 30.618 c 17.583,0 27.27,10.884 27.27,24.877 0,13.397 -7.656,21.172 -16.386,24.042 l 19.975,34.804 h -16.147 l -18.299,-32.772 h -12.44 v 32.772 h -14.59 z m 72.601,24.041 h 14.353 v 59.682 H 639.795 Z M 638.36,271.88 a 8.422,8.422 0 0 1 8.373,-8.49 8.492,8.492 0 1 1 0,16.981 8.422,8.422 0 0 1 -8.373,-8.49 m 85.318,16.623 -22.607,59.681 H 686 l -22.603,-59.681 h 14.71 l 15.431,43.417 15.43,-43.417 z m 31.344,10.169 c -9.69,0 -15.071,6.576 -16.386,13.395 h 31.815 c -0.36,-5.384 -5.143,-13.395 -15.429,-13.395 m -16.506,24.397 a 16.479,16.479 0 0 0 16.506,14.951 c 8.373,0 13.156,-5.022 14.591,-9.09 l 12.08,3.708 c -3.47,9.567 -12.08,17.221 -26.67,17.221 -17.104,0 -30.262,-13.154 -30.262,-31.575 0,-18.058 13.158,-31.453 30.14,-31.453 17.344,0 28.228,12.556 28.228,30.736 v 5.502 z m 55.739,-34.566 h 11.84 l 2.033,6.938 a 17.163,17.163 0 0 1 15.069,-8.612 17.588,17.588 0 0 1 10.288,2.87 l -5.143,12.56 a 11.896,11.896 0 0 0 -7.179,-2.035 c -6.935,0 -12.558,5.502 -12.558,15.429 v 32.53 h -14.35 z m 79.984,-10.525 h -24.16 v -13.513 h 62.912 v 13.513 H 888.83 v 70.209 h -14.591 z m 40.958,10.525 h 11.84 l 2.035,6.938 a 17.158,17.158 0 0 1 15.07,-8.612 17.58,17.58 0 0 1 10.285,2.87 l -5.143,12.56 a 11.896,11.896 0 0 0 -7.178,-2.035 c -6.935,0 -12.558,5.502 -12.558,15.429 v 32.53 h -14.35 z m 98.096,59.684 h -11.84 l -2.035,-7.177 c -3.708,4.902 -9.328,8.849 -18.18,8.849 -13.635,0 -21.409,-7.893 -21.409,-25.355 v -36 h 14.355 v 34.089 c 0,10.645 4.902,13.87 11.6,13.87 7.297,0 13.156,-5.14 13.156,-15.307 v -32.652 h 14.353 z m 11.124,-16.148 12.677,-4.064 c 1.435,5.26 4.545,9.926 12.203,9.926 6.455,0 10.643,-2.511 10.643,-6.819 0,-2.989 -1.916,-5.5 -11.005,-7.056 -12.437,-2.272 -22.843,-6.1 -22.843,-18.538 0,-10.287 8.732,-18.658 23.205,-18.658 11.96,0 20.212,6.34 22.723,17.103 l -12.56,3.587 c -1.076,-4.304 -3.587,-8.73 -10.163,-8.73 -6.82,0 -9.81,2.99 -9.81,6.1 0,4.065 4.305,5.502 11.961,6.937 13.275,2.391 22.007,7.056 22.007,19.016 0,10.645 -9.449,19.018 -24.158,19.018 -13.04,0 -21.89,-6.699 -24.88,-17.822 m 64.477,0.12 v -31.096 h -10.286 v -12.56 h 10.286 v -15.549 h 14.352 v 15.55 h 15.192 v 12.56 h -15.192 v 29.06 c 0,4.426 2.034,6.343 5.623,6.343 a 8.089,8.089 0 0 0 5.5,-2.035 l 5.98,10.167 c -1.672,2.031 -6.337,5.261 -14.592,5.261 -9.21,0 -16.863,-5.98 -16.863,-17.7" id="path4" inkscape:connector-curvature="0" style="fill:#ffffff"/>
</svg>