<svg xmlns:dc="http://purl.org/dc/elements/1.1/" xmlns:cc="http://creativecommons.org/ns#" xmlns:rdf="http://www.w3.org/1999/02/22-rdf-syntax-ns#" xmlns:svg="http://www.w3.org/2000/svg" xmlns="http://www.w3.org/2000/svg" xmlns:sodipodi="http://sodipodi.sourceforge.net/DTD/sodipodi-0.dtd" xmlns:inkscape="http://www.inkscape.org/namespaces/inkscape" id="RGB_Black" data-name="RGB Black" viewBox="100 100 1159.996 396.85104" version="1.1" sodipodi:docname="logo-nostrap-center-water.en.svg" inkscape:version="0.92.5 (2060ec1f9f, 2020-04-08)" width="1159.996" height="396.85104">
  <path d="m 298.428,100 c 109.58,0 198.414,88.827 198.427,198.404 H 385.789 a 87.362,87.362 0 0 0 -174.723,0 H 100 C 100.013,188.827 188.848,100 298.428,100 m 85.385,239.748 c -7.062,0 -19.117,2.757 -26.837,2.78 H 239.878 c -7.72,-0.023 -19.773,-2.78 -26.836,-2.78 H 104.311 q 0.884,4.163 1.932,8.256 h 106.9 c 6.961,0 17.806,-2.777 26.734,-2.777 h 117.098 c 8.928,0 19.775,2.777 26.734,2.777 h 106.9 q 1.053,-4.097 1.932,-8.256 z m -11.956,22.75 c -6.944,0 -19.344,3.977 -26.785,3.895 h -93.29 c -7.442,0.082 -19.841,-3.895 -26.785,-3.895 H 110.574 q 1.765,5.173 3.801,10.211 h 110.622 c 6.944,0 17.268,-3.617 26.785,-3.617 h 93.29 c 9.517,0 19.841,3.617 26.785,3.617 h 110.621 q 2.034,-5.035 3.802,-10.211 z m 81.536,59.867 q 5.537,-6.92 10.46,-14.325 H 133.001 q 4.917,7.399 10.459,14.325 z m -286.31,24.796 H 429.771 A 199.493,199.493 0 0 0 446.206,430.84 H 150.648 a 199.896,199.896 0 0 0 16.436,16.32 m 45.153,30.046 a 198.896,198.896 0 0 0 172.38,0 z m 140.77,-91.914 c -8.848,0 -22.753,4.728 -36.338,4.792 h -36.486 c -13.582,-0.064 -27.49,-4.792 -36.336,-4.792 H 119.978 q 3.06,6.277 6.538,12.29 h 123.057 c 8.803,-0.007 17.028,-4.8 30.61,-4.8 h 36.486 c 13.584,0 21.81,4.793 30.613,4.8 h 123.054 q 3.48,-6.012 6.538,-12.29 z m 14.894,-67.057 h -138.98 c -7.934,0 -14.67,-2.42 -19.678,-2.364 H 100.858 c 0.192,2.076 0.534,5.239 0.791,7.302 h 107.553 c 4.96,-0.054 11.805,-2.24 19.742,-2.24 h 138.933 c 7.94,0 14.782,2.18 19.742,2.234 l 107.556,0.003 c 0.255,-2.06 0.597,-5.223 0.788,-7.299 H 387.578 c -5.008,-0.056 -11.74,2.364 -19.678,2.364 m 28.528,152.766 a 198.918,198.918 0 0 0 25.029,-16.885 h -246.06 a 198.944,198.944 0 0 0 25.031,16.885 z M 548.181,225.195 c 0,-32.095 21.904,-55.368 52.935,-55.368 22.511,0 40.31,11.407 47.459,33.158 l -17.8,5.782 c -3.951,-12.928 -13.382,-21.751 -29.509,-21.751 -20.076,0 -34.528,16.581 -34.528,38.332 0,22.816 15.06,38.18 34.985,38.18 16.428,0 25.251,-9.13 28.9,-19.776 l 17.495,5.78 c -7.452,19.472 -22.969,31.029 -46.699,31.029 -30.877,0 -53.238,-21.751 -53.238,-55.366 m 156.288,26.772 v -8.822 l -15.06,2.283 c -9.433,1.368 -13.689,4.562 -13.689,10.799 0,5.78 5.02,9.734 13.385,9.734 8.213,0 15.364,-4.869 15.364,-13.993 m -46.244,5.323 c 0,-11.103 5.78,-21.75 29.966,-25.1 l 16.278,-2.28 v -0.914 c 0,-8.667 -4.261,-13.84 -13.998,-13.84 -9.584,0 -13.842,4.563 -15.06,12.32 l -16.122,-3.954 c 4.108,-15.057 13.692,-22.968 31.795,-22.968 16.882,0 31.636,8.366 31.636,28.138 v 49.895 h -15.361 l -1.981,-6.845 c -3.04,4.259 -8.971,8.971 -21.141,8.971 -14.3,0 -26.012,-8.97 -26.012,-23.423 m 81.229,-54.608 h 15.06 l 2.586,9.126 c 4.718,-6.236 11.863,-11.256 23.122,-11.256 17.186,0 27.227,9.888 27.227,32.096 v 45.935 h -18.254 v -43.505 c 0,-13.382 -6.239,-17.64 -14.756,-17.64 -9.277,0 -16.732,6.538 -16.732,19.468 v 41.677 h -18.253 z m 128.055,49.284 v -8.822 l -15.057,2.283 c -9.43,1.368 -13.69,4.562 -13.69,10.799 0,5.78 5.017,9.734 13.386,9.734 8.213,0 15.36,-4.869 15.36,-13.993 m -46.24,5.323 c 0,-11.103 5.782,-21.75 29.966,-25.1 l 16.275,-2.28 v -0.914 c 0,-8.667 -4.259,-13.84 -13.995,-13.84 -9.582,0 -13.842,4.563 -15.06,12.32 l -16.122,-3.954 c 4.108,-15.057 13.691,-22.968 31.792,-22.968 16.882,0 31.64,8.366 31.64,28.138 v 49.895 h -15.365 l -1.976,-6.845 c -3.043,4.259 -8.976,8.971 -21.146,8.971 -14.297,0 -26.01,-8.97 -26.01,-23.423 m 81.991,-85.183 h 18.251 v 106.478 h -18.251 z m 116.556,57.192 h -15.667 c -10.191,0 -18.71,6.85 -18.71,17.496 0,10.648 8.062,17.188 17.643,17.188 9.127,0 16.734,-6.54 16.734,-17.188 z m 27.074,0.153 h -9.887 v 17.496 c 0,20.076 -15.21,33.767 -33.921,33.767 -20.993,0 -36.203,-13.387 -36.203,-33.617 a 30.357,30.357 0 0 1 14.148,-26.165 27.715,27.715 0 0 1 -8.823,-20.684 c 0,-17.799 14.45,-30.27 32.703,-30.27 17.19,0 27.684,9.278 30.574,22.665 l -16.122,4.103 c -1.521,-6.842 -7.454,-10.95 -14.452,-10.95 -8.672,0 -15.363,5.627 -15.363,14.3 0,8.82 6.69,14.298 15.06,14.298 h 15.212 v -9.13 h 17.187 v 9.28 h 9.887 z M 594.221,364.412 c 11.103,0 17.493,-6.39 17.493,-15.974 0,-9.885 -6.694,-15.818 -17.797,-15.818 h -18.864 v 31.792 z m -37.725,-48.524 h 38.94 c 22.361,0 34.682,13.842 34.682,31.639 0,17.038 -9.737,26.925 -20.84,30.576 l 25.404,44.263 h -20.535 l -23.273,-41.68 h -15.82 v 41.68 h -18.558 z m 92.335,30.575 h 18.253 v 75.904 H 648.83 Z m -1.826,-21.143 a 10.71,10.71 0 0 1 10.648,-10.8 10.8,10.8 0 1 1 0,21.598 10.71,10.71 0 0 1 -10.648,-10.799 m 108.507,21.143 -28.751,75.902 h -19.168 l -28.746,-75.902 h 18.708 l 19.625,55.218 19.624,-55.218 z m 39.863,12.933 c -12.323,0 -19.167,8.363 -20.84,17.035 h 40.462 c -0.457,-6.847 -6.54,-17.035 -19.622,-17.035 m -20.993,31.028 a 20.958,20.958 0 0 0 20.993,19.014 c 10.648,0 16.732,-6.387 18.557,-11.56 l 15.364,4.716 c -4.414,12.167 -15.364,21.902 -33.92,21.902 -21.752,0 -38.487,-16.73 -38.487,-40.158 0,-22.966 16.735,-40.002 38.333,-40.002 22.057,0 35.9,15.969 35.9,39.09 v 6.998 z m 70.889,-43.961 h 15.057 l 2.587,8.823 a 21.828,21.828 0 0 1 19.165,-10.952 c 6.086,0 10.648,1.825 13.083,3.65 l -6.54,15.975 c -1.52,-1.218 -4.718,-2.59 -9.13,-2.59 -8.82,0 -15.97,6.998 -15.97,19.623 v 41.373 H 845.271 Z M 946.995,333.076 H 916.268 V 315.89 h 80.011 v 17.186 h -30.727 v 89.292 h -18.557 z m 52.091,13.386 h 15.057 l 2.589,8.823 a 21.821,21.821 0 0 1 19.164,-10.952 c 6.084,0 10.649,1.825 13.082,3.65 l -6.541,15.975 c -1.522,-1.218 -4.715,-2.59 -9.13,-2.59 -8.82,0 -15.97,6.998 -15.97,19.623 v 41.373 h -18.251 z m 124.757,75.905 h -15.057 l -2.59,-9.127 c -4.714,6.235 -11.863,11.254 -23.121,11.254 -17.34,0 -27.227,-10.038 -27.227,-32.246 v -45.785 h 18.256 v 43.354 c 0,13.538 6.234,17.641 14.753,17.641 9.28,0 16.732,-6.538 16.732,-19.469 v -41.526 h 18.254 z m 14.148,-20.536 16.122,-5.17 c 1.825,6.692 5.78,12.625 15.52,12.625 8.21,0 13.535,-3.194 13.535,-8.672 0,-3.802 -2.436,-6.995 -13.995,-8.974 -15.818,-2.89 -29.053,-7.758 -29.053,-23.576 0,-13.084 11.106,-23.73 29.512,-23.73 15.21,0 25.706,8.062 28.9,21.751 l -15.974,4.562 c -1.369,-5.473 -4.562,-11.102 -12.926,-11.102 -8.672,0 -12.476,3.803 -12.476,7.758 0,5.17 5.476,6.998 15.213,8.823 16.883,3.04 27.988,8.973 27.988,24.184 0,13.538 -12.017,24.186 -30.725,24.186 -16.584,0 -27.84,-8.519 -31.64,-22.665 m 81.999,0.153 v -39.549 h -13.08 v -15.974 h 13.08 v -19.775 h 18.254 v 19.775 h 19.32 v 15.974 h -19.32 v 36.959 c 0,5.63 2.586,8.067 7.151,8.067 a 10.287,10.287 0 0 0 6.995,-2.588 l 7.605,12.93 c -2.126,2.584 -8.06,6.691 -18.557,6.691 -11.713,0 -21.447,-7.605 -21.447,-22.511" id="path4" style="fill:#1e29f5;fill-opacity:1" inkscape:connector-curvature="0"/>
</svg>