<svg width="288" height="95" viewBox="0 0 288 95" fill="none" xmlns="http://www.w3.org/2000/svg">
<g clip-path="url(#clip0_1580_4996)">
<path d="M47.0779 0.0761719C73.0661 0.0761719 94.1331 21.1432 94.1378 47.129H67.794C67.794 41.6341 65.6111 36.3643 61.7257 32.4789C57.8402 28.5934 52.5704 26.4106 47.0755 26.4106C41.5807 26.4106 36.3109 28.5934 32.4254 32.4789C28.54 36.3643 26.3571 41.6341 26.3571 47.129H0.015625C0.015625 21.1408 21.0874 0.0761719 47.0755 0.0761719H47.0779ZM67.3268 56.9356C65.6524 56.9356 62.7922 57.5902 60.9613 57.5949H33.1898C31.3589 57.5949 28.5011 56.9356 26.8243 56.9356H1.03779C1.17693 57.5933 1.3295 58.2463 1.49551 58.8946H26.8481C28.5082 58.8946 31.0719 58.2352 33.1874 58.2352H60.959C63.0768 58.2352 65.65 58.8946 67.2983 58.8946H92.6508C92.8169 58.2463 92.9694 57.5933 93.1086 56.9356H67.3268ZM64.4808 62.331C62.8349 62.331 59.8941 63.2797 58.1273 63.256H36.012C34.2475 63.2749 31.3067 62.331 29.6584 62.331H2.52479C2.80464 63.1484 3.10505 63.9556 3.42601 64.7524H29.6608C31.3067 64.7524 33.7566 63.8939 36.0143 63.8939H58.1391C60.3969 63.8939 62.8444 64.7524 64.4927 64.7524H90.7156C91.0318 63.9619 91.3322 63.1548 91.6168 62.331H64.4808ZM83.8379 76.5275C84.7138 75.4334 85.5407 74.3013 86.3186 73.1313H7.84195C8.61984 74.3013 9.44674 75.4334 10.3227 76.5275H83.8379ZM15.9268 82.4138H78.2243C79.5978 81.2003 80.8997 79.908 82.1232 78.5434H12.0278C13.2516 79.9078 14.5534 81.2001 15.9268 82.4138V82.4138ZM26.6346 89.5287C33.0125 92.5953 39.9987 94.1876 47.0755 94.1876C54.1524 94.1876 61.1386 92.5953 67.5165 89.5287H26.6346ZM60.0198 67.7312C57.9209 67.7312 54.6244 68.853 51.4014 68.8672H42.7497C39.5291 68.853 36.2302 67.7312 34.1313 67.7312H4.75411C5.23792 68.7241 5.75493 69.6957 6.30514 70.6459H35.4902C37.5772 70.6459 39.522 69.5075 42.7497 69.5075H51.4037C54.6244 69.5075 56.5762 70.6435 58.6633 70.6459H87.8459C88.3962 69.6973 88.9132 68.7257 89.397 67.7312H60.0198ZM63.5511 51.8271H30.5857C28.705 51.8271 27.1066 51.2532 25.9184 51.2674H0.219584C0.264645 51.7607 0.34528 52.5102 0.406942 52.9987H25.9136C27.0994 52.9869 28.7121 52.4675 30.5952 52.4675H63.5464C65.4295 52.4675 67.0516 52.9845 68.228 52.9963H93.737C93.7987 52.5078 93.8793 51.7584 93.9244 51.2651H68.2185C67.0327 51.2508 65.4342 51.8248 63.5511 51.8248V51.8271ZM70.3197 88.063C72.3946 86.8798 74.3767 85.5408 76.2488 84.0574H17.9071C19.7792 85.5407 21.7612 86.8798 23.8361 88.063H70.3197Z" fill="white"/>
<path d="M106.656 22.1746C106.656 16.1887 110.74 11.8486 116.527 11.8486C120.725 11.8486 124.045 13.9831 125.378 18.0314L122.058 19.1105C121.32 16.6938 119.563 15.0598 116.565 15.0598C112.82 15.0598 110.126 18.1429 110.126 22.2078C110.126 26.4625 112.934 29.3227 116.65 29.3227C119.714 29.3227 121.358 27.6199 122.039 25.6348L125.302 26.7115C123.912 30.3425 121.019 32.4983 116.593 32.4983C110.835 32.4983 106.666 28.4428 106.666 22.1746" fill="white"/>
<path d="M135.803 27.1553V25.5094L132.995 25.9339C131.235 26.1901 130.443 26.7854 130.443 27.9474C130.443 29.0242 131.38 29.7617 132.938 29.7617C134.496 29.7617 135.803 28.8534 135.803 27.153V27.1553ZM127.18 28.1467C127.18 26.0762 128.256 24.0912 132.767 23.4651L135.803 23.0406V22.8864C135.803 21.2714 135.008 20.3061 133.194 20.3061C131.38 20.3061 130.614 21.1575 130.386 22.6042L127.379 21.8666C128.145 19.0586 129.933 17.5835 133.308 17.5835C136.455 17.5835 139.208 19.144 139.208 22.8295V32.1357H136.341L135.971 30.8598C135.404 31.6543 134.299 32.5318 132.03 32.5318C129.364 32.5318 127.18 30.8598 127.18 28.1633" fill="white"/>
<path d="M142.324 17.9698H145.132L145.607 19.6726C146.486 18.5105 147.819 17.5737 149.918 17.5737C153.122 17.5737 154.996 19.4165 154.996 23.5597V32.1354H151.602V24.0127C151.602 21.5177 150.438 20.7232 148.851 20.7232C147.122 20.7232 145.73 21.9422 145.73 24.3542V32.1354H142.324V17.9698Z" fill="white"/>
<path d="M166.203 27.1553V25.5094L163.395 25.9339C161.635 26.1901 160.843 26.7854 160.843 27.9474C160.843 29.0242 161.777 29.7617 163.338 29.7617C164.898 29.7617 166.203 28.8534 166.203 27.153V27.1553ZM157.58 28.1467C157.58 26.0762 158.659 24.0912 163.167 23.4651L166.203 23.0406V22.8864C166.203 21.2714 165.408 20.3061 163.594 20.3061C161.78 20.3061 161.014 21.1575 160.786 22.6042L157.779 21.8666C158.545 19.0586 160.333 17.5835 163.708 17.5835C166.855 17.5835 169.608 19.144 169.608 22.8295V32.1357H166.744L166.369 30.8479C165.802 31.6424 164.694 32.5199 162.425 32.5199C159.759 32.5199 157.575 30.8479 157.575 28.1514" fill="white"/>
<path d="M172.871 12.2686H176.274V22.1677V32.1237H172.871V12.2686Z" fill="white"/>
<path d="M194.605 22.9338H191.683C189.786 22.9338 188.195 24.2121 188.195 26.1972C188.195 28.1822 189.698 29.4036 191.484 29.4036C193.187 29.4036 194.605 28.1846 194.605 26.1972V22.9338ZM199.654 22.9623H197.812V26.2256C197.812 29.9704 194.966 32.5223 191.487 32.5223C187.571 32.5223 184.735 30.025 184.735 26.2541C184.719 25.283 184.953 24.3242 185.415 23.4698C185.877 22.6155 186.551 21.8943 187.372 21.3757C186.843 20.8836 186.424 20.2862 186.14 19.622C185.857 18.9578 185.716 18.2415 185.726 17.5194C185.726 14.1992 188.42 11.875 191.823 11.875C195.03 11.875 196.986 13.6039 197.515 16.1012L194.508 16.8672C194.223 15.5913 193.118 14.8253 191.814 14.8253C190.196 14.8253 188.949 15.8735 188.949 17.491C188.949 19.1084 190.196 20.1567 191.757 20.1567H194.603V18.4515H197.807V20.1828H199.65L199.654 22.9623Z" fill="white"/>
<path d="M115.242 48.1297C117.312 48.1297 118.503 46.9439 118.503 45.151C118.503 43.3082 117.255 42.2007 115.182 42.2007H111.668V48.1297H115.242ZM108.207 39.082H115.469C119.639 39.082 121.937 41.6623 121.937 44.9826C121.937 48.1606 120.12 50.0033 118.05 50.6745L122.793 58.9277H118.958L114.618 51.1559H111.668V58.9348H108.207V39.082Z" fill="white"/>
<path d="M125.424 44.7808H128.827V58.9346H125.424V44.7808ZM125.082 40.8392C125.08 40.5766 125.13 40.3161 125.228 40.0726C125.327 39.8292 125.473 39.6076 125.657 39.4206C125.841 39.2336 126.061 39.0848 126.303 38.9827C126.545 38.8806 126.804 38.8272 127.067 38.8257C127.602 38.8257 128.115 39.0381 128.493 39.4161C128.871 39.7942 129.083 40.3069 129.083 40.8416C129.083 41.3762 128.871 41.8889 128.493 42.267C128.115 42.645 127.602 42.8574 127.067 42.8574C126.804 42.8559 126.545 42.8025 126.303 42.7004C126.061 42.5984 125.841 42.4495 125.657 42.2625C125.473 42.0755 125.327 41.8539 125.228 41.6105C125.13 41.367 125.08 41.1066 125.082 40.8439" fill="white"/>
<path d="M145.32 44.7812L139.957 58.935H136.383L131.023 44.7812H134.512L138.171 55.0788L141.831 44.7812H145.32Z" fill="white"/>
<path d="M152.752 47.1931C150.453 47.1931 149.178 48.7536 148.864 50.3711H156.406C156.321 49.0951 155.187 47.1931 152.747 47.1931H152.752ZM148.831 52.9798C148.919 53.9556 149.371 54.8628 150.096 55.5217C150.821 56.1805 151.767 56.543 152.747 56.5372C154.732 56.5372 155.868 55.3514 156.207 54.3814L159.072 55.2613C158.249 57.5309 156.207 59.3452 152.747 59.3452C148.691 59.3452 145.57 56.2266 145.57 51.8557C145.57 47.5726 148.691 44.397 152.718 44.397C156.831 44.397 159.413 47.3757 159.413 51.6873V52.9917L148.831 52.9798Z" fill="white"/>
<path d="M162.059 44.781H164.867L165.341 46.4269C165.701 45.7996 166.223 45.2797 166.851 44.9208C167.479 44.5618 168.191 44.3769 168.915 44.3849C169.778 44.3543 170.629 44.5922 171.351 45.0656L170.132 48.0443C169.629 47.708 169.033 47.5417 168.429 47.57C166.783 47.57 165.45 48.8744 165.45 51.2294V58.9348H162.059V44.781Z" fill="white"/>
<path d="M181.027 42.2861H175.297V39.082H190.217V42.2861H184.487V58.9372H181.027V42.2861Z" fill="white"/>
<path d="M190.738 44.781H193.546L194.021 46.427C194.381 45.7996 194.902 45.2797 195.53 44.9208C196.159 44.5619 196.871 44.3769 197.595 44.385C198.462 44.3512 199.319 44.5892 200.044 45.0656L198.825 48.0444C198.323 47.708 197.726 47.5418 197.123 47.5701C195.477 47.5701 194.144 48.8745 194.144 51.2295V58.9348H190.738V44.781Z" fill="white"/>
<path d="M214.005 58.9345H211.192L210.718 57.2317C209.838 58.3938 208.505 59.3306 206.406 59.3306C203.174 59.3306 201.329 57.4594 201.329 53.3185V44.7808H204.732V52.8656C204.732 55.389 205.894 56.155 207.483 56.155C209.214 56.155 210.604 54.936 210.604 52.5241V44.7831H214.007L214.005 58.9345Z" fill="white"/>
<path d="M216.647 55.1068L219.654 54.144C219.996 55.3914 220.731 56.499 222.548 56.499C224.08 56.499 225.071 55.9037 225.071 54.8815C225.071 54.17 224.616 53.5771 222.462 53.2072C219.512 52.6688 217.045 51.7605 217.045 48.8102C217.045 46.3698 219.116 44.3848 222.548 44.3848C225.394 44.3848 227.341 45.8884 227.936 48.4402L224.948 49.2916C224.692 48.2718 224.096 47.2212 222.538 47.2212C220.921 47.2212 220.212 47.9327 220.212 48.6679C220.212 49.6308 221.234 49.9723 223.058 50.3138C226.205 50.8806 228.275 51.9882 228.275 54.8199C228.275 57.3433 226.034 59.3259 222.545 59.3259C219.462 59.3259 217.354 57.7369 216.645 55.0997" fill="white"/>
<path d="M231.933 55.1404V47.7647H229.492V44.7812H231.933V41.0957H235.336V44.7836H238.938V47.7623H235.336V54.6542C235.336 55.7049 235.81 56.1578 236.669 56.1578C237.147 56.1681 237.613 55.9989 237.973 55.6835L239.396 58.0955C239 58.5698 237.892 59.3429 235.936 59.3429C233.752 59.3429 231.937 57.92 231.937 55.1452" fill="white"/>
<path d="M119.023 82.4468H118.158V72.773L114.05 82.4468H113.246L109.172 72.837L109.138 82.4468H108.266V71.2148H109.373L113.642 81.2895L117.911 71.2148H119.019L119.023 82.4468Z" fill="white"/>
<path d="M120.754 80.3434C120.754 78.8682 121.748 78.1449 123.707 77.8579L126 77.5212V77.1844C126 75.8848 125.288 75.2112 123.851 75.2112C122.414 75.2112 121.845 75.9962 121.7 76.9757L120.899 76.767C121.136 75.3227 122.229 74.4404 123.818 74.4404C125.822 74.4404 126.866 75.4673 126.866 77.1844V82.447H126.128L126.031 81.5814C125.533 82.2715 124.714 82.6723 123.479 82.6723C121.506 82.67 120.754 81.4509 120.754 80.3434ZM126 79.5892V78.3228L123.851 78.6429C122.585 78.835 121.622 79.1884 121.622 80.3031C121.622 81.266 122.393 81.8589 123.612 81.8589C124.831 81.8589 125.998 81.228 125.998 79.5892H126Z" fill="white"/>
<path d="M130.619 78.3226L129.464 79.5084V82.4444H128.599V71.2148H129.464V78.3534L133.107 74.6466H134.214L131.214 77.7107L134.615 82.4539H133.588L130.619 78.3226Z" fill="white"/>
<path d="M135.863 72.5007C135.863 72.3428 135.91 72.1885 135.997 72.0571C136.085 71.9256 136.209 71.8229 136.354 71.7618C136.5 71.7007 136.66 71.6838 136.815 71.7135C136.97 71.7431 137.113 71.8178 137.226 71.9282C137.339 72.0387 137.416 72.1799 137.449 72.3343C137.482 72.4887 137.468 72.6494 137.41 72.7961C137.352 72.9428 137.252 73.0691 137.122 73.1592C136.993 73.2492 136.839 73.299 136.682 73.3023C136.575 73.3051 136.468 73.2865 136.369 73.2474C136.269 73.2083 136.179 73.1497 136.102 73.0749C136.026 73.0001 135.966 72.9107 135.925 72.8121C135.883 72.7134 135.863 72.6075 135.863 72.5007V72.5007ZM136.233 74.6659H137.099V82.4472H136.233V74.6659Z" fill="white"/>
<path d="M139.041 74.6658H139.778L139.923 75.7734C140.231 75.3421 140.642 74.9945 141.118 74.7622C141.594 74.5298 142.121 74.4201 142.65 74.4429C144.073 74.4429 145.259 75.2445 145.259 77.1536V82.4471H144.394V77.4335C144.394 75.6524 143.478 75.235 142.387 75.235C141.152 75.235 139.902 76.2619 139.902 77.9292V82.4352H139.036L139.041 74.6658Z" fill="white"/>
<path d="M147.207 83.5994L148.042 83.3741C148.362 84.5599 149.133 85.2998 150.594 85.2998C152.6 85.2998 153.419 84.1923 153.419 82.6531V81.0333C153.118 81.5214 152.695 81.9221 152.191 82.1951C151.687 82.4681 151.12 82.604 150.547 82.5891C147.917 82.5891 146.84 80.3906 146.84 78.5573C146.84 76.7241 148.042 74.4497 150.513 74.4497C151.936 74.4497 152.823 75.0426 153.416 75.8727L153.544 74.6703H154.275V82.627C154.275 84.1022 153.537 86.0753 150.585 86.0753C148.635 86.0706 147.634 85.0224 147.207 83.5994ZM153.416 78.5455C153.416 76.6031 152.261 75.2086 150.57 75.2086C148.823 75.2086 147.698 76.6055 147.698 78.5455C147.698 80.4855 148.87 81.8183 150.601 81.8183C152.278 81.8207 153.416 80.4712 153.416 78.5479V78.5455Z" fill="white"/>
<path d="M160.07 71.2148H160.936V82.4444H160.07V71.2148Z" fill="white"/>
<path d="M162.512 72.5007C162.512 72.3428 162.558 72.1885 162.646 72.0571C162.733 71.9256 162.857 71.8229 163.003 71.7618C163.148 71.7007 163.309 71.6838 163.464 71.7135C163.619 71.7431 163.762 71.8178 163.874 71.9282C163.987 72.0387 164.065 72.1799 164.097 72.3343C164.13 72.4887 164.117 72.6494 164.059 72.7961C164 72.9428 163.9 73.0691 163.771 73.1592C163.641 73.2492 163.488 73.299 163.33 73.3023C163.223 73.3051 163.117 73.2865 163.017 73.2474C162.918 73.2083 162.827 73.1497 162.751 73.0749C162.675 73.0001 162.614 72.9107 162.573 72.8121C162.532 72.7134 162.511 72.6075 162.512 72.5007V72.5007ZM162.882 74.6659H163.747V82.4472H162.882V74.6659Z" fill="white"/>
<path d="M166.664 75.4673H165.203V74.6657H166.664V72.8846C166.664 71.8103 167.354 70.9873 168.462 70.9873C169.569 70.9873 169.987 71.4853 170.018 71.5328L169.408 72.1257C169.295 72.0133 169.159 71.9254 169.01 71.8674C168.861 71.8095 168.702 71.7828 168.542 71.7889C167.885 71.7889 167.532 72.1589 167.532 72.9273V74.6609H169.927V75.4625H167.532V82.4422H166.666L166.664 75.4673Z" fill="white"/>
<path d="M170.945 78.7403C171.009 80.5688 172.18 81.9016 173.897 81.9016C175.214 81.9016 176.191 81.1474 176.48 80.2178L177.282 80.4905C176.912 81.5815 175.757 82.6724 173.897 82.6724C171.443 82.6724 170.062 80.73 170.062 78.5505C170.062 76.371 171.651 74.4429 173.881 74.4429C176.015 74.4595 177.521 75.9346 177.521 78.3252V78.7426L170.945 78.7403ZM173.897 75.2113C172.237 75.2113 171.153 76.4303 170.961 77.9695H176.672C176.544 76.269 175.358 75.2113 173.897 75.2113Z" fill="white"/>
<path d="M183.521 81.1946L183.409 82.4468H182.672V71.2148H183.538V75.9154C183.862 75.4487 184.297 75.0696 184.803 74.8122C185.31 74.5547 185.872 74.4269 186.44 74.4402C189.07 74.4402 190.114 76.6529 190.114 78.5313C190.114 80.4096 188.881 82.6508 186.443 82.6508C185.873 82.6706 185.307 82.5478 184.797 82.2935C184.287 82.0392 183.848 81.6615 183.521 81.1946V81.1946ZM189.248 78.5313C189.248 76.5889 188.11 75.211 186.402 75.211C184.695 75.211 183.53 76.6079 183.53 78.5313C183.53 80.4546 184.652 81.8847 186.402 81.8847C188.153 81.8847 189.248 80.457 189.248 78.5313Z" fill="white"/>
<path d="M192.25 78.7403C192.314 80.5688 193.486 81.9016 195.203 81.9016C196.519 81.9016 197.496 81.1474 197.786 80.2178L198.587 80.4905C198.217 81.5815 197.062 82.6724 195.203 82.6724C192.748 82.6724 191.368 80.73 191.368 78.5505C191.368 76.371 192.957 74.4429 195.186 74.4429C197.321 74.4595 198.829 75.9346 198.829 78.3252V78.7426L192.25 78.7403ZM195.203 75.2113C193.543 75.2113 192.459 76.4303 192.267 77.9695H197.978C197.85 76.269 196.661 75.2113 195.203 75.2113Z" fill="white"/>
<path d="M201.25 80.7939V75.4672H199.758V74.6656H201.25V72.6284H202.115V74.6656H204.506V75.4672H202.118V80.7536C202.118 81.5718 202.502 81.8611 203.128 81.8611C203.443 81.8582 203.745 81.7381 203.977 81.5244L204.506 82.1173C204.344 82.3544 203.832 82.6627 203.031 82.6627C201.909 82.6698 201.25 81.9394 201.25 80.7939Z" fill="white"/>
<path d="M207.12 80.7939V75.4672H205.629V74.6656H207.12V72.6284H207.986V74.6656H210.377V75.4672H207.986V80.7536C207.986 81.5718 208.37 81.8611 208.996 81.8611C209.311 81.8582 209.614 81.7381 209.845 81.5244L210.374 82.1173C210.213 82.3544 209.701 82.6627 208.899 82.6627C207.777 82.6698 207.12 81.9394 207.12 80.7939Z" fill="white"/>
<path d="M212.141 78.7403C212.205 80.5688 213.377 81.9016 215.094 81.9016C216.41 81.9016 217.387 81.1474 217.676 80.2178L218.478 80.4905C218.108 81.5815 216.953 82.6724 215.094 82.6724C212.639 82.6724 211.259 80.73 211.259 78.5505C211.259 76.371 212.848 74.4429 215.077 74.4429C217.212 74.4595 218.72 75.9346 218.72 78.3252V78.7426L212.141 78.7403ZM215.094 75.2113C213.434 75.2113 212.35 76.4303 212.158 77.9695H217.868C217.74 76.269 216.552 75.2113 215.094 75.2113Z" fill="white"/>
<path d="M220.29 74.6659H221.027L221.172 75.7568C221.386 75.3599 221.703 75.0282 222.09 74.7966C222.477 74.5649 222.92 74.4419 223.371 74.4406C223.897 74.4159 224.416 74.5688 224.846 74.8746L224.445 75.586C224.106 75.3551 223.7 75.2426 223.29 75.2659C222.118 75.2659 221.155 76.3877 221.155 77.9932V82.4376H220.29V74.6659Z" fill="white"/>
<path d="M229.962 81.1946L229.851 82.4468H229.113V71.2148H229.979V75.9154C230.303 75.4487 230.738 75.0696 231.245 74.8122C231.751 74.5547 232.314 74.4269 232.882 74.4402C235.512 74.4402 236.555 76.653 236.555 78.5313C236.555 80.4096 235.32 82.6508 232.882 82.6508C232.312 82.6702 231.747 82.5473 231.237 82.293C230.728 82.0387 230.289 81.6611 229.962 81.1946V81.1946ZM235.69 78.5313C235.69 76.5889 234.551 75.211 232.844 75.211C231.136 75.211 229.972 76.6079 229.972 78.5313C229.972 80.4547 231.094 81.8847 232.844 81.8847C234.594 81.8847 235.69 80.457 235.69 78.5313V78.5313Z" fill="white"/>
<path d="M244.559 74.6655V82.6223C244.559 84.0974 243.917 86.0706 241.303 86.0706C239.441 86.0706 238.457 85.0603 238.047 83.5994L238.896 83.3741C239.202 84.5931 239.923 85.2714 241.303 85.2714C243.037 85.2714 243.694 84.1638 243.694 82.6626V81.2183C242.94 82.1669 242.169 82.5654 240.822 82.5654C239.569 82.5654 238.063 81.8278 238.063 79.9187V74.6655H238.939V79.4775C238.939 81.2586 239.854 81.7567 241.073 81.7567C242.496 81.7567 243.703 80.7297 243.703 79.0459V74.6655H244.559Z" fill="white"/>
<path d="M260.025 74.6655L257.634 82.4468H256.726L254.591 75.7897L252.457 82.4468H251.527L249.137 74.6655H250.036L252.009 81.2278L254.029 74.6655H255.087L257.141 81.1946L259.114 74.6655H260.025Z" fill="white"/>
<path d="M260.793 80.3434C260.793 78.8682 261.787 78.1449 263.746 77.8579L266.039 77.5212V77.1844C266.039 75.8848 265.328 75.2112 263.89 75.2112C262.453 75.2112 261.884 75.9962 261.739 76.9757L260.938 76.767C261.175 75.3227 262.268 74.4404 263.857 74.4404C265.861 74.4404 266.905 75.4673 266.905 77.1844V82.447H266.167L266.07 81.5814C265.572 82.2715 264.754 82.6723 263.518 82.6723C261.547 82.67 260.793 81.4509 260.793 80.3434ZM266.039 79.5892V78.3228L263.89 78.6429C262.624 78.835 261.661 79.1884 261.661 80.3031C261.661 81.266 262.432 81.8589 263.651 81.8589C264.87 81.8589 266.039 81.228 266.039 79.5892Z" fill="white"/>
<path d="M269.488 80.7939V75.4672H267.996V74.6656H269.488V72.6284H270.353V74.6656H272.744V75.4672H270.353V80.7536C270.353 81.5718 270.738 81.8611 271.364 81.8611C271.679 81.8582 271.981 81.7381 272.213 81.5244L272.742 82.1173C272.58 82.3544 272.068 82.6627 271.267 82.6627C270.145 82.6698 269.488 81.9394 269.488 80.7939Z" fill="white"/>
<path d="M274.347 78.7403C274.411 80.5688 275.583 81.9016 277.3 81.9016C278.616 81.9016 279.593 81.1474 279.882 80.2178L280.684 80.4905C280.314 81.5815 279.159 82.6724 277.3 82.6724C274.845 82.6724 273.465 80.73 273.465 78.5505C273.465 76.371 275.054 74.4429 277.283 74.4429C279.418 74.4595 280.926 75.9346 280.926 78.3252V78.7426L274.347 78.7403ZM277.3 75.2113C275.64 75.2113 274.556 76.4303 274.364 77.9695H280.074C279.946 76.269 278.761 75.2113 277.3 75.2113Z" fill="white"/>
<path d="M282.66 74.6659H283.398L283.542 75.7568C283.757 75.3599 284.074 75.0282 284.461 74.7966C284.848 74.5649 285.29 74.4419 285.741 74.4406C286.267 74.4159 286.787 74.5688 287.216 74.8746L286.815 75.586C286.476 75.3551 286.07 75.2426 285.66 75.2659C284.489 75.2659 283.526 76.3877 283.526 77.9932V82.4376H282.66V74.6659Z" fill="white"/>
</g>
<defs>
<clipPath id="clip0_1580_4996">
<rect width="287.938" height="95" fill="white"/>
</clipPath>
</defs>
</svg>
