<svg xmlns="http://www.w3.org/2000/svg" id="RGB_Black" data-name="RGB Black" viewBox="100 100 1234.114 419.44"><style>path,polygon{fill:#fff}</style><path d="M310.227 109.855c109.58 0 198.414 88.827 198.427 198.404H397.588a87.362 87.362 0 0 0-174.723 0H111.799c.013-109.577 88.848-198.404 198.428-198.404m85.385 239.748c-7.062 0-19.117 2.757-26.837 2.78H251.677c-7.72-.023-19.773-2.78-26.836-2.78H116.11q.884 4.163 1.932 8.256h106.9c6.961 0 17.806-2.777 26.734-2.777h117.098c8.928 0 19.775 2.777 26.734 2.777h106.9q1.053-4.097 1.932-8.256Zm-11.956 22.75c-6.944 0-19.344 3.977-26.785 3.895h-93.29c-7.442.082-19.841-3.895-26.785-3.895H122.373q1.765 5.173 3.801 10.211h110.622c6.944 0 17.268-3.617 26.785-3.617h93.29c9.517 0 19.841 3.617 26.785 3.617h110.621q2.034-5.035 3.802-10.211Zm81.536 59.867q5.537-6.92 10.46-14.325H144.8q4.917 7.399 10.459 14.325Zm-286.31 24.796H441.57a199.493 199.493 0 0 0 16.435-16.321H162.447a199.896 199.896 0 0 0 16.436 16.32m45.153 30.046a198.896 198.896 0 0 0 172.38 0Zm140.77-91.914c-8.848 0-22.753 4.728-36.338 4.792h-36.486c-13.582-.064-27.49-4.792-36.336-4.792H131.777q3.06 6.277 6.538 12.29h123.057c8.803-.007 17.028-4.8 30.61-4.8h36.486c13.584 0 21.81 4.793 30.613 4.8h123.054q3.48-6.012 6.538-12.29ZM379.7 328.09H240.72c-7.934 0-14.67-2.42-19.678-2.364H112.657c.192 2.076.534 5.239.791 7.302h107.553c4.96-.054 11.805-2.24 19.742-2.24h138.933c7.94 0 14.782 2.18 19.742 2.234l107.556.003c.255-2.06.597-5.223.788-7.299H399.377c-5.008-.056-11.74 2.364-19.678 2.364m28.528 152.766a198.918 198.918 0 0 0 25.029-16.885h-246.06a198.944 198.944 0 0 0 25.031 16.885ZM559.98 235.05c0-32.095 21.904-55.368 52.935-55.368 22.511 0 40.31 11.407 47.459 33.158l-17.8 5.782c-3.951-12.928-13.382-21.751-29.509-21.751-20.076 0-34.528 16.581-34.528 38.332 0 22.816 15.06 38.18 34.985 38.18 16.428 0 25.251-9.13 28.9-19.776l17.495 5.78c-7.452 19.472-22.969 31.029-46.699 31.029-30.877 0-53.238-21.751-53.238-55.366M716.268 261.822V253l-15.06 2.283c-9.433 1.368-13.689 4.562-13.689 10.799 0 5.78 5.02 9.734 13.385 9.734 8.213 0 15.364-4.869 15.364-13.993m-46.244 5.323c0-11.103 5.78-21.75 29.966-25.1l16.278-2.28v-.914c0-8.667-4.261-13.84-13.998-13.84-9.584 0-13.842 4.563-15.06 12.32l-16.122-3.954c4.108-15.057 13.692-22.968 31.795-22.968 16.882 0 31.636 8.366 31.636 28.138v49.895h-15.361l-1.981-6.845c-3.04 4.259-8.971 8.971-21.141 8.971-14.3 0-26.012-8.97-26.012-23.423M751.253 212.538h15.06l2.586 9.126c4.718-6.236 11.863-11.256 23.122-11.256 17.186 0 27.227 9.888 27.227 32.096v45.935h-18.254v-43.505c0-13.382-6.239-17.64-14.756-17.64-9.277 0-16.732 6.538-16.732 19.468v41.677h-18.253ZM879.308 261.822V253l-15.057 2.283c-9.43 1.368-13.69 4.562-13.69 10.799 0 5.78 5.017 9.734 13.386 9.734 8.213 0 15.36-4.869 15.36-13.993m-46.24 5.323c0-11.103 5.782-21.75 29.966-25.1l16.275-2.28v-.914c0-8.667-4.259-13.84-13.995-13.84-9.582 0-13.842 4.563-15.06 12.32l-16.122-3.954c4.108-15.057 13.691-22.968 31.792-22.968 16.882 0 31.64 8.366 31.64 28.138v49.895h-15.365l-1.976-6.845c-3.043 4.259-8.976 8.971-21.146 8.971-14.297 0-26.01-8.97-26.01-23.423M915.057 181.963h18.251V288.441h-18.251V181.963zM1031.613 239.155h-15.667c-10.191 0-18.71 6.85-18.71 17.496 0 10.648 8.062 17.188 17.643 17.188 9.127 0 16.734-6.54 16.734-17.188Zm27.074.153h-9.887v17.496c0 20.076-15.21 33.767-33.921 33.767-20.993 0-36.203-13.387-36.203-33.617a30.357 30.357 0 0 1 14.148-26.165 27.715 27.715 0 0 1-8.823-20.684c0-17.799 14.45-30.27 32.703-30.27 17.19 0 27.684 9.278 30.574 22.665l-16.122 4.103c-1.521-6.842-7.454-10.95-14.452-10.95-8.672 0-15.363 5.627-15.363 14.3 0 8.82 6.69 14.298 15.06 14.298h15.212v-9.13h17.187v9.28h9.887ZM606.02 374.267c11.103 0 17.493-6.39 17.493-15.974 0-9.885-6.694-15.818-17.797-15.818h-18.864v31.792Zm-37.725-48.524h38.94c22.361 0 34.682 13.842 34.682 31.639 0 17.038-9.737 26.925-20.84 30.576l25.404 44.263h-20.535l-23.273-41.68h-15.82v41.68h-18.558ZM660.63 356.318h18.253v75.904h-18.254Zm-1.826-21.143a10.71 10.71 0 0 1 10.648-10.8 10.8 10.8 0 1 1 0 21.598 10.71 10.71 0 0 1-10.648-10.799M767.311 356.317l-28.751 75.902h-19.168l-28.746-75.902h18.708l19.625 55.218 19.624-55.218h18.708zM807.174 369.25c-12.323 0-19.167 8.363-20.84 17.035h40.462c-.457-6.847-6.54-17.035-19.622-17.035m-20.993 31.028a20.958 20.958 0 0 0 20.993 19.014c10.648 0 16.732-6.387 18.557-11.56l15.364 4.716c-4.414 12.167-15.364 21.902-33.92 21.902-21.752 0-38.487-16.73-38.487-40.158 0-22.966 16.735-40.002 38.333-40.002 22.057 0 35.9 15.969 35.9 39.09v6.998ZM857.07 356.317h15.057l2.587 8.823a21.828 21.828 0 0 1 19.165-10.952c6.086 0 10.648 1.825 13.083 3.65l-6.54 15.975c-1.52-1.218-4.718-2.59-9.13-2.59-8.82 0-15.97 6.998-15.97 19.623v41.373H857.07ZM958.794 342.931h-30.727v-17.186h80.011v17.186h-30.727v89.292h-18.557v-89.292zM1010.885 356.317h15.057l2.589 8.823a21.821 21.821 0 0 1 19.164-10.952c6.084 0 10.649 1.825 13.082 3.65l-6.541 15.975c-1.522-1.218-4.715-2.59-9.13-2.59-8.82 0-15.97 6.998-15.97 19.623v41.373h-18.251ZM1135.642 432.222h-15.057l-2.59-9.127c-4.714 6.235-11.863 11.254-23.121 11.254-17.34 0-27.227-10.038-27.227-32.246v-45.785h18.256v43.354c0 13.538 6.234 17.641 14.753 17.641 9.28 0 16.732-6.538 16.732-19.469v-41.526h18.254ZM1149.79 411.686l16.122-5.17c1.825 6.692 5.78 12.625 15.52 12.625 8.21 0 13.535-3.194 13.535-8.672 0-3.802-2.436-6.995-13.995-8.974-15.818-2.89-29.053-7.758-29.053-23.576 0-13.084 11.106-23.73 29.512-23.73 15.21 0 25.706 8.062 28.9 21.751l-15.974 4.562c-1.369-5.473-4.562-11.102-12.926-11.102-8.672 0-12.476 3.803-12.476 7.758 0 5.17 5.476 6.998 15.213 8.823 16.883 3.04 27.988 8.973 27.988 24.184 0 13.538-12.017 24.186-30.725 24.186-16.584 0-27.84-8.519-31.64-22.665M1231.79 411.839V372.29h-13.08v-15.974h13.08v-19.775h18.254v19.775h19.32v15.974h-19.32v36.959c0 5.63 2.586 8.067 7.151 8.067a10.287 10.287 0 0 0 6.995-2.588l7.605 12.93c-2.126 2.584-8.06 6.691-18.557 6.691-11.713 0-21.447-7.605-21.447-22.511"/></svg>