<svg width="228" height="90" viewBox="0 0 228 90" fill="none" xmlns="http://www.w3.org/2000/svg">
<g clip-path="url(#clip0_1572_4987)">
<path d="M44.8223 0C69.5751 0 89.6417 20.1447 89.6446 44.9952H64.5564C64.5564 39.7406 62.4772 34.7013 58.7764 30.9857C55.0755 27.2701 50.0561 25.1828 44.8223 25.1828C39.5885 25.1828 34.5691 27.2701 30.8682 30.9857C27.1674 34.7013 25.0883 39.7406 25.0883 44.9952H0C0.00293655 20.1447 20.0695 0 44.8223 0ZM64.1098 54.3715C62.5148 54.3715 59.7917 54.9967 58.0476 55.0019H31.5966C29.8527 54.9967 27.1303 54.3715 25.5346 54.3715H0.973803C1.10708 55.0007 1.25263 55.6248 1.41045 56.2438H25.5577C27.1303 56.2438 29.5801 55.6138 31.5966 55.6138H58.0481C60.0646 55.6138 62.515 56.2438 64.087 56.2438H88.2342C88.3928 55.6242 88.5383 55.0001 88.6708 54.3715H64.1098ZM61.4091 59.5308C59.8405 59.5308 57.0397 60.4328 55.3586 60.4142H34.2855C32.6047 60.4328 29.8039 59.5306 28.2351 59.5306H2.38832C2.65426 60.3129 2.94054 61.0849 3.24714 61.8466H28.2351C29.8037 61.8466 32.1358 61.0263 34.2858 61.0263H55.3586C57.5084 61.0263 59.8405 61.8466 61.4091 61.8466H86.3973C86.7034 61.0852 86.9896 60.3132 87.2559 59.5306L61.4091 59.5308ZM79.8271 73.1076C80.6609 72.0614 81.4485 70.9785 82.1899 69.8591H7.45431C8.19477 70.9776 8.98237 72.0605 9.8171 73.1076H79.8271ZM15.1533 78.731H74.4911C75.7991 77.5705 77.0387 76.3347 78.2038 75.0299H11.4406C12.6058 76.3346 13.8455 77.5704 15.1533 78.731ZM25.353 85.5448C31.4277 88.4773 38.0818 90 44.8223 90C51.5628 90 58.2169 88.4773 64.2916 85.5448H25.353ZM57.1513 64.7002C55.1526 64.7002 52.0114 65.7725 48.943 65.787H40.701C37.6332 65.7725 34.4913 64.7002 32.4931 64.7002H4.51279C4.97361 65.6491 5.46589 66.5781 5.98965 67.4874H33.7865C35.775 67.4856 37.6332 66.3988 40.701 66.3988H48.943C52.0114 66.3988 53.8696 67.4856 55.8579 67.4874H83.6543C84.1785 66.5784 84.6708 65.6494 85.1312 64.7002H57.1513ZM60.5154 49.4924H29.1215C27.3293 49.4924 25.808 48.9436 24.6765 48.9563H0.193587C0.236957 49.4269 0.314211 50.1442 0.37249 50.612H24.6674C25.7878 50.6 27.3338 50.1043 29.1267 50.1043H60.5103C62.3038 50.1043 63.8491 50.5987 64.9697 50.6109L89.2651 50.6116C89.3227 50.1444 89.4 49.4269 89.4434 48.956H64.9602C63.8288 48.9436 62.3081 49.4924 60.5152 49.4924M66.9594 84.1376C68.9379 83.0068 70.828 81.7267 72.6133 80.3083H17.0313C18.8166 81.7267 20.7067 83.0068 22.6853 84.1376H66.9594ZM101.572 21.1258C101.572 15.4026 105.462 11.2527 110.974 11.2527C114.972 11.2527 118.134 13.2867 119.403 17.1652L116.242 18.1964C115.54 15.8911 113.865 14.3177 111.001 14.3177C107.435 14.3177 104.868 17.2745 104.868 21.153C104.868 25.2215 107.543 27.9611 111.082 27.9611C114 27.9611 115.567 26.3332 116.215 24.435L119.322 25.4656C117.998 28.9377 115.243 30.9987 111.028 30.9987C105.543 30.9987 101.572 27.12 101.572 21.1258ZM129.331 25.8999V24.3266L126.656 24.7335C124.981 24.9775 124.225 25.547 124.225 26.6591C124.225 27.6899 125.116 28.395 126.602 28.395C128.061 28.395 129.331 27.5268 129.331 25.8999ZM121.117 26.849C121.117 24.8691 122.144 22.9705 126.44 22.3731L129.331 21.9665V21.8037C129.331 20.2581 128.574 19.3358 126.845 19.3358C125.142 19.3358 124.386 20.1492 124.17 21.5326L121.306 20.8276C122.036 18.1424 123.738 16.7318 126.953 16.7318C129.952 16.7318 132.572 18.2236 132.572 21.7494V30.6467H129.844L129.492 29.4262C128.952 30.1854 127.899 31.0259 125.737 31.0259C123.198 31.0259 121.117 29.4262 121.117 26.849ZM135.545 17.1114H138.219L138.679 18.7389C139.517 17.6267 140.786 16.7318 142.785 16.7318C145.838 16.7318 147.622 18.4948 147.622 22.455V30.646H144.379V22.8884C144.379 20.5021 143.271 19.7428 141.759 19.7428C140.111 19.7428 138.787 20.9085 138.787 23.2143V30.646H135.545V17.1114ZM158.289 25.8999V24.3266L155.614 24.7335C153.94 24.9775 153.183 25.547 153.183 26.6591C153.183 27.6899 154.074 28.395 155.561 28.395C157.019 28.395 158.289 27.5268 158.289 25.8999ZM150.076 26.849C150.076 24.8691 151.103 22.9705 155.398 22.3731L158.289 21.9665V21.8037C158.289 20.2581 157.533 19.3358 155.803 19.3358C154.101 19.3358 153.345 20.1492 153.128 21.5326L150.265 20.8276C150.995 18.1424 152.697 16.7318 155.912 16.7318C158.91 16.7318 161.531 18.2236 161.531 21.7494V30.6467H158.802L158.451 29.4262C157.911 30.1854 156.857 31.0259 154.695 31.0259C152.156 31.0259 150.076 29.4262 150.076 26.849ZM164.638 11.6595H167.88V30.6465H164.638V11.6595ZM185.341 21.8579H182.558C180.748 21.8579 179.234 23.0793 179.234 24.9777C179.234 26.8764 180.666 28.0428 182.368 28.0428C183.989 28.0428 185.34 26.8764 185.34 24.9777L185.341 21.8579ZM190.149 21.8851H188.393V25.005C188.393 28.585 185.691 31.0264 182.368 31.0264C178.64 31.0264 175.938 28.6392 175.938 25.0317C175.923 24.1029 176.146 23.1858 176.586 22.3687C177.026 21.5516 177.669 20.8619 178.451 20.3661C177.948 19.8954 177.548 19.324 177.278 18.6887C177.008 18.0534 176.874 17.3684 176.884 16.6778C176.884 13.5037 179.45 11.2799 182.692 11.2799C185.745 11.2799 187.609 12.9343 188.123 15.3217L185.259 16.0533C184.989 14.8332 183.935 14.1006 182.692 14.1006C181.152 14.1006 179.964 15.1039 179.964 16.6504C179.964 18.2234 181.152 19.2001 182.638 19.2001H185.34V17.5723H188.393V19.2271H190.149V21.8851ZM109.749 45.9509C111.721 45.9509 112.856 44.8113 112.856 43.1025C112.856 41.3397 111.667 40.2817 109.695 40.2817H106.345V45.9509H109.749ZM103.049 37.2981H109.965C113.937 37.2981 116.125 39.7665 116.125 42.9399C116.125 45.9781 114.396 47.7414 112.424 48.3923L116.936 56.2853H113.288L109.155 48.8531H106.345V56.2853H103.049L103.049 37.2981ZM119.449 42.7503H122.691V56.2853H119.449V42.7503ZM119.124 38.98C119.122 38.7288 119.17 38.4797 119.264 38.2469C119.358 38.0141 119.497 37.8022 119.672 37.6233C119.848 37.4445 120.057 37.3022 120.288 37.2046C120.518 37.107 120.766 37.056 121.016 37.0546C121.271 37.0497 121.524 37.096 121.761 37.1906C121.998 37.2852 122.213 37.4263 122.395 37.6055C122.577 37.7848 122.722 37.9987 122.821 38.2347C122.919 38.4707 122.97 38.7241 122.97 38.9801C122.97 39.236 122.919 39.4894 122.821 39.7254C122.722 39.9614 122.577 40.1753 122.395 40.3546C122.213 40.5339 121.998 40.675 121.761 40.7696C121.524 40.8642 121.271 40.9104 121.016 40.9056C120.766 40.9041 120.518 40.8532 120.288 40.7556C120.057 40.658 119.848 40.5157 119.672 40.3368C119.497 40.158 119.358 39.9461 119.264 39.7133C119.17 39.4805 119.122 39.2314 119.124 38.9802M138.397 42.7501L133.29 56.2849H129.886L124.78 42.7501H128.103L131.588 52.5964L135.074 42.7501H138.397ZM145.477 45.0562C143.288 45.0562 142.073 46.5476 141.776 48.094H148.962C148.881 46.873 147.8 45.0562 145.477 45.0562ZM141.748 50.5891C141.835 51.5201 142.266 52.3848 142.956 53.0125C143.646 53.6402 144.546 53.9854 145.477 53.9798C147.368 53.9798 148.449 52.8409 148.773 51.9183L151.502 52.7592C150.718 54.9289 148.773 56.6647 145.477 56.6647C141.614 56.6647 138.641 53.6816 138.641 49.504C138.641 45.4087 141.614 42.3709 145.45 42.3709C149.367 42.3709 151.826 45.2184 151.826 49.3414V50.5891H141.748ZM154.339 42.7501H157.014L157.473 44.3235C157.816 43.7236 158.313 43.2264 158.911 42.8831C159.509 42.5398 160.188 42.3629 160.877 42.3704C161.7 42.3403 162.512 42.5677 163.201 43.0213L162.039 45.8697C161.562 45.5453 160.993 45.3835 160.417 45.4082C158.851 45.4082 157.581 46.656 157.581 48.9073V56.2846H154.339V42.7501ZM172.407 40.3631H166.949V37.2986H181.16V40.3631H175.703V56.2855H172.407V40.3631ZM181.659 42.7501H184.333L184.793 44.3235C185.136 43.7235 185.632 43.2262 186.231 42.8829C186.829 42.5396 187.508 42.3627 188.197 42.3704C189.02 42.3403 189.832 42.5677 190.52 43.0213L189.358 45.8697C188.881 45.5453 188.313 45.3835 187.737 45.4082C186.17 45.4082 184.9 46.656 184.9 48.9073V56.2846H181.659L181.659 42.7501ZM203.817 56.2855H201.143L200.683 54.6579C199.846 55.7696 198.576 56.6647 196.576 56.6647C193.496 56.6647 191.74 54.8747 191.74 50.9146V42.7503H194.983V50.4812C194.983 52.8953 196.09 53.6267 197.603 53.6267C199.252 53.6267 200.575 52.461 200.575 50.1553V42.7503H203.817V56.2855ZM206.33 52.6234L209.194 51.7017C209.518 52.8946 210.22 53.9528 211.95 53.9528C213.408 53.9528 214.354 53.3834 214.354 52.4064C214.354 51.7285 213.922 51.159 211.868 50.8062C209.059 50.2909 206.708 49.4228 206.708 46.602C206.708 44.2691 208.681 42.3706 211.95 42.3706C214.652 42.3706 216.516 43.8085 217.083 46.2494L214.246 47.0628C214.003 46.0868 213.436 45.083 211.95 45.083C210.41 45.083 209.734 45.7611 209.734 46.4664C209.734 47.3883 210.707 47.7142 212.436 48.0396C215.435 48.5819 217.407 49.6398 217.407 52.3522C217.407 54.7663 215.273 56.6652 211.95 56.6652C209.005 56.6652 207.006 55.1459 206.33 52.6234ZM220.895 52.6506V45.5985H218.571V42.7501H220.895V39.2238H224.137V42.7503H227.568V45.5987H224.137V52.1891C224.137 53.1929 224.596 53.6276 225.407 53.6276C225.864 53.6352 226.307 53.4705 226.649 53.1661L228 55.4718C227.622 55.9324 226.569 56.665 224.704 56.665C222.623 56.665 220.895 55.3088 220.895 52.6508" fill="white"/>
</g>
<defs>
<clipPath id="clip0_1572_4987">
<rect width="228" height="90" fill="white"/>
</clipPath>
</defs>
</svg>
