<svg xmlns="http://www.w3.org/2000/svg" width="3354.111" height="713.496" xml:space="preserve"><path d="M3335.258 476.767c-10.404 0-18.854 8.45-18.854 18.854s8.449 18.854 18.854 18.854c10.402 0 18.854-8.45 18.854-18.854-.001-10.404-8.452-18.854-18.854-18.854zm0 34.718c-8.77 0-15.865-7.136-15.865-15.864 0-8.77 7.135-15.864 15.865-15.864 8.77 0 15.904 7.135 15.904 15.864 0 8.729-7.135 15.864-15.904 15.864zm6.138-19.093c0-3.428-2.432-5.461-6.02-5.461h-6.02v17.18h2.949v-6.218h3.229l3.109 6.218h3.189l-3.428-6.855c1.836-.838 2.992-2.513 2.992-4.864zm-6.138 2.83h-2.91v-5.699h2.91c1.992 0 3.188.996 3.188 2.83-.001 1.873-1.235 2.869-3.188 2.869zm-2271.75-209.266v-45.6h-69.914v271.288h69.914V348.976c0-29.457 18.894-43.927 48.351-43.927h38.266v-64.692h-32.686c-25.59-.001-47.832 13.352-53.931 45.599zm152.107-152.903c-23.916 0-42.252 18.894-42.252 42.81 0 23.358 18.336 42.252 42.252 42.252s42.252-18.894 42.252-42.252c-.001-23.917-18.336-42.81-42.252-42.81zm-34.878 378.592h69.756V240.356h-69.756v271.289zM1582.766 376c0 77.448-62.779 140.229-140.228 140.229-31.251 0-59.591-10.244-82.312-27.544v102.601h-69.755v-350.93h69.755v22.959c22.721-17.299 51.061-27.543 82.312-27.543 77.449 0 140.228 62.78 140.228 140.228zm-70.193 0c0-42.052-34.12-76.173-76.173-76.173s-76.173 34.121-76.173 76.173c0 42.053 34.121 76.173 76.173 76.173 42.053 0 76.173-34.08 76.173-76.173zm1282.579-23.796-40.697-11.161c-26.785-6.976-37.189-15.187-37.189-29.337 0-13.792 14.668-23.438 35.635-23.438 19.971 0 35.635 13.074 35.635 29.815v1.554h64.295v-1.554c0-49.228-40.139-82.312-99.93-82.312-59.191 0-102.201 33.044-102.201 78.604 0 35.436 23.477 62.142 64.453 73.223l38.984 10.643c29.615 8.211 40.617 17.3 40.617 33.603 0 17.18-15.904 28.739-39.582 28.739-24.674 0-41.295-15.626-41.295-38.824v-1.555h-68.24v1.555c0 55.645 44.803 94.548 108.979 94.548 61.822 0 106.705-37.986 106.705-90.283-.001-25.67-11.481-59.231-66.169-73.82zm-964.933-111.848h69.754v271.288h-69.754v-22.96c-22.721 17.3-51.062 27.544-82.312 27.544-77.447 0-140.227-62.78-140.227-140.229s62.78-140.228 140.227-140.228c31.25 0 59.592 10.244 82.312 27.543v-22.958zm0 135.644c0-42.092-34.121-76.173-76.174-76.173s-76.172 34.121-76.172 76.173c0 42.053 34.119 76.173 76.172 76.173 42.092 0 76.174-34.08 76.174-76.173zm321.631-232.185h69.756v367.869h-69.756v-22.96c-22.721 17.3-51.061 27.544-82.311 27.544-77.449 0-140.229-62.78-140.229-140.229s62.779-140.228 140.229-140.228c31.25 0 59.59 10.244 82.311 27.543V143.815zm0 232.185c0-42.052-34.121-76.173-76.174-76.173-42.051 0-76.172 34.121-76.172 76.173 0 42.053 34.08 76.173 76.172 76.173 42.053 0 76.174-34.08 76.174-76.173zm393.619 135.645h69.754V240.356h-69.754v271.289zm34.877-378.592c-23.916 0-42.252 18.894-42.252 42.81 0 23.358 18.336 42.252 42.252 42.252s42.252-18.894 42.252-42.252c0-23.917-18.336-42.81-42.252-42.81zM3162.822 376c0 77.448-62.779 140.229-140.229 140.229-77.447 0-140.227-62.78-140.227-140.229s62.779-140.228 140.227-140.228c77.45 0 140.229 62.78 140.229 140.228zm-64.054 0c0-42.052-34.121-76.173-76.174-76.173s-76.172 34.121-76.172 76.173c0 42.053 34.08 76.173 76.172 76.173 42.052 0 76.174-34.08 76.174-76.173zM1027.793 143.815H760.212v62.222h99.053v305.607h69.516V206.037h99.053v-62.222h-.041zm1353.213 293.53-62.062-196.988h-73.264l93.074 271.288h83.945l93.631-271.288h-73.264l-62.06 196.988zm884.017-151.389v-45.6h-69.914v271.288h69.914V348.976c0-29.457 18.895-43.927 48.35-43.927h38.266v-64.692h-32.684c-25.592-.001-47.793 13.352-53.932 45.599z"/><circle fill="#34E0A1" cx="356.749" cy="356.748" r="356.748"/><path d="m577.095 287.152 43.049-46.836h-95.465c-47.792-32.646-105.51-51.659-167.931-51.659-62.342 0-119.899 19.054-167.612 51.659H93.432l43.049 46.836c-26.387 24.075-42.929 58.754-42.929 97.259 0 72.665 58.914 131.578 131.579 131.578 34.519 0 65.968-13.313 89.446-35.077l42.172 45.919 42.172-45.879c23.478 21.764 54.887 35.037 89.406 35.037 72.665 0 131.658-58.913 131.658-131.578.039-38.545-16.502-73.223-42.89-97.259zM225.17 473.458c-49.188 0-89.047-39.859-89.047-89.047s39.86-89.048 89.047-89.048 89.047 39.86 89.047 89.048-39.86 89.047-89.047 89.047zm131.618-91.638c0-58.595-42.61-108.898-98.853-130.383 30.413-12.716 63.776-19.771 98.813-19.771s68.439 7.055 98.853 19.771c-56.202 21.525-98.813 71.789-98.813 130.383zm131.579 91.638c-49.188 0-89.048-39.859-89.048-89.047s39.86-89.048 89.048-89.048 89.047 39.86 89.047 89.048-39.86 89.047-89.047 89.047zm0-135.764c-25.79 0-46.677 20.887-46.677 46.677 0 25.789 20.887 46.676 46.677 46.676 25.789 0 46.676-20.887 46.676-46.676-.001-25.75-20.887-46.677-46.676-46.677zm-216.521 46.717c0 25.789-20.887 46.676-46.676 46.676s-46.676-20.887-46.676-46.676c0-25.79 20.887-46.677 46.676-46.677 25.789-.04 46.676 20.887 46.676 46.677z"/></svg>