<svg width="112" height="16" viewBox="0 0 112 16" xmlns="http://www.w3.org/2000/svg"><g fill="none" fill-rule="evenodd"><path fill="#fff" fill-rule="nonzero" d="M18 0h6.5L31 8l-6.5 8H18l6.5-8M14 0H7.5L1 8l6.5 8H14L7.5 8"/><path d="M109 8.5a5 5 0 0 1-4.5 4.4v-3h-1v3A5 5 0 0 1 99 8.5h3v-1h-3a5 5 0 0 1 4.5-4.5v3h1V3a5 5 0 0 1 4.5 4.5h-3v1h3zm1-1a6 6 0 0 0-5.5-5.5V0h-1v2A6 6 0 0 0 98 7.5h-2v1h2a6 6 0 0 0 5.5 5.4V16h1v-2a6 6 0 0 0 5.5-5.5h2v-1h-2zM95.3 0h-.2L80.3 7a.6.6 0 0 0 0 1.2l5.4 2 2.1 5.4c.1.2.3.4.6.4.2 0 .4-.1.5-.3L96 .9V.3a.6.6 0 0 0-.6-.3zm-2.8 2.6l-6.4 6.5-4-1.6 10.4-4.9zm.9.9l-5 10.4-1.5-4 6.5-6.4zM40 4.5L35.5 0 32 3.5 36.5 8 32 12.5l3.5 3.5 4.5-4.5 4.5 4.5 3.5-3.5L43.5 8 48 3.5 44.5 0 40 4.5" fill="#fff"/><path d="M67.4 15.2l-.2-.4 4.8-2.6 4.8 2.6-.2.4-.3-.4a7.8 7.8 0 0 0 .5-.4l.4.4-.5.1-1-5.4 4-3.8.3.4-.5.1a7.7 7.7 0 0 0-.2-.6l.5-.2V6l-5.5-.8-2.3-5 .4-.2v.5a8 8 0 0 0-.6 0V0l.4.2-2.4 5-5.4.7v-.5l.4.2a7.7 7.7 0 0 0-.2.6l-.5-.1.3-.4 4 3.8-1 5.4h-.5l.4-.5a7.8 7.8 0 0 0 .5.4l-.3.4z" stroke="#fff"/><path d="M51.4 15.2l4.6-2.4 4.6 2.4.6-.4-1-5.1L64 6.1l-.2-.7-5.2-.7L56.3 0a8.4 8.4 0 0 0-.6 0l-2.3 4.7-5.2.7-.2.7 3.7 3.6-.9 5.1.6.4z" fill="#00BD08"/></g></svg>