<svg width="16" height="16" viewBox="0 0 16 16" xmlns="http://www.w3.org/2000/svg"><title>icon-crosshairs</title><path d="M13.013 8.48c-.242 2.344-2.117 4.204-4.475 4.445V9.977H7.534v2.953c-2.375-.225-4.268-2.095-4.512-4.45h3.005v-.997H3.02C3.246 5.113 5.146 3.227 7.533 3v2.986h1.004V3.003c2.37.243 4.25 2.12 4.478 4.48h-2.97v.998h2.967zm1.008-.997c-.232-2.91-2.558-5.232-5.482-5.48V0H7.534v2.002c-2.942.233-5.285 2.56-5.52 5.48H0v1h2.017c.25 2.904 2.587 5.214 5.517 5.446V16h1.004v-2.074c2.912-.247 5.232-2.55 5.48-5.445H16v-.997h-1.98z" fill="#000" fill-rule="evenodd"/></svg>