<svg width="156" height="72" viewBox="0 0 156 72" xmlns="http://www.w3.org/2000/svg"><g fill="none" fill-rule="evenodd"><rect fill="#222" width="36" height="72" rx="4"/><path d="M120 68V4a4 4 0 0 0-4-4H88a4 4 0 0 0-4 4v68h36v-4zM156 4V0h-36v68a4 4 0 0 0 4 4h28a4 4 0 0 0 4-4V4zM80 0H40a4 4 0 0 0-4 4v28a4 4 0 0 0 4 4h44V0h-4zM40 36h40a4 4 0 0 1 4 4v28a4 4 0 0 1-4 4H36V36h4z" fill="#222"/><path fill="#FFF" d="M18 15l5 6H13zM51 18l6-5v10zM69 54l-6 5V49zM18 57l5-6H13zM94 19h16v4H94z"/><path fill="#FFF" d="M104 13v16h-4V13zM130 52h16v4h-16z"/></g></svg>