<svg fill="none" height="72" viewBox="0 0 172 72" width="172" xmlns="http://www.w3.org/2000/svg"><g fill="#222"><path d="m36 4c0-2.20914 1.7909-4 4-4h44v36h-44c-2.2091 0-4-1.7909-4-4z"/><path d="m84 68c0 2.2091-1.7909 4-4 4h-44v-36h44c2.2091 0 4 1.7909 4 4z"/><path d="m0 4c0-2.20914 1.79086-4 4-4h28c2.2091 0 4 1.79086 4 4v32h-36z"/><path d="m36 68c0 2.2091-1.7909 4-4 4h-28c-2.20914 0-4-1.7909-4-4v-32h36z"/><path d="m92 4c0-2.20914 1.7909-4 4-4h28c2.209 0 4 1.79086 4 4v68h-36z"/></g><path d="m108 13h4v16h-4z" fill="#fff"/><path d="m102 23h4v16h-4z" fill="#fff" transform="matrix(0 -1 1 0 79 125)"/><path d="m136 0h36v68c0 2.2091-1.791 4-4 4h-28c-2.209 0-4-1.7909-4-4z" fill="#222"/><path d="m146 56h4v16h-4z" fill="#fff" transform="matrix(0 -1 1 0 90 202)"/><path clip-rule="evenodd" d="m18 13 5 6h-10z" fill="#fff" fill-rule="evenodd"/><path clip-rule="evenodd" d="m51 18 6-5v10z" fill="#fff" fill-rule="evenodd"/><path clip-rule="evenodd" d="m69 54-6 5v-10z" fill="#fff" fill-rule="evenodd"/><path clip-rule="evenodd" d="m18 59-5-6h10z" fill="#fff" fill-rule="evenodd"/></svg>