<svg width="24" height="24" viewBox="0 0 24 24" fill="none" xmlns="http://www.w3.org/2000/svg">
<path d="M13 4H8.8C7.11984 4 6.27976 4 5.63803 4.32698C5.07354 4.6146 4.6146 5.07354 4.32698 5.63803C4 6.27976 4 7.11984 4 8.8V15.2C4 16.8802 4 17.7202 4.32698 18.362C4.6146 18.9265 5.07354 19.3854 5.63803 19.673C6.27976 20 7.11984 20 8.8 20H15.2C16.8802 20 17.7202 20 18.362 19.673C18.9265 19.3854 19.3854 18.9265 19.673 18.362C20 17.7202 20 16.8802 20 15.2V11" stroke="#333333e6" stroke-width="1.2" stroke-linecap="round" stroke-linejoin="round"/>
<path d="M4 16.0001L8.29289 11.7072C8.68342 11.3167 9.31658 11.3167 9.70711 11.7072L13 15.0001M13 15.0001L15.7929 12.2072C16.1834 11.8167 16.8166 11.8167 17.2071 12.2072L20 15.0001M13 15.0001L15.25 17.2501" stroke="#333333e6" stroke-width="1.2" stroke-linecap="round" stroke-linejoin="round"/>
<path d="M18.0625 2.01221C20.2716 2.01221 22.0624 3.80318 22.0625 6.01221C22.0625 8.22135 20.2716 10.0122 18.0625 10.0122C15.8534 10.0122 14.0625 8.22135 14.0625 6.01221C14.0626 3.80318 15.8534 2.01221 18.0625 2.01221ZM18.2832 3.66553C18.1358 3.5184 17.9085 3.49942 17.7412 3.60986L17.6738 3.66553L15.9482 5.39111C15.7799 5.55949 15.7801 5.83201 15.9482 6.00049C16.1167 6.16895 16.3891 6.16893 16.5576 6.00049L17.5469 5.01123V8.28467C17.5471 8.52259 17.7406 8.71516 17.9785 8.71533C18.2166 8.71533 18.4099 8.5227 18.4102 8.28467V5.01123L19.3994 6.00049C19.5679 6.16895 19.8403 6.16893 20.0088 6.00049C20.1773 5.83202 20.1773 5.55958 20.0088 5.39111L18.2832 3.66553Z" fill="#333333e6"/>
</svg>
