<svg width="24" height="24" viewBox="0 0 24 24" xmlns="http://www.w3.org/2000/svg" xmlns:xlink="http://www.w3.org/1999/xlink"><title>icon-shortlist-active-hover</title><defs><path d="M5.1 22.832l6.9-3.627 6.9 3.627c.286-.192.565-.395.835-.61l-1.318-7.68L24 9.103c-.093-.334-.2-.66-.32-.983l-7.714-1.122L12.518.01C12.346.005 12.173 0 12 0c-.173 0-.346.004-.518.01L8.034 7 .32 8.118c-.12.323-.227.65-.32.983l5.583 5.443-1.318 7.68c.27.214.55.417.836.61z" id="a"/><mask id="b" x="0" y="0" width="24" height="22.832" fill="#fff"><use xlink:href="#a"/></mask></defs><use mask="url(#b)" xlink:href="#a" stroke="#000" stroke-width="4" fill="#000" fill-rule="evenodd" stroke-opacity=".2" fill-opacity=".15"/></svg>