<svg width="24" height="24" viewBox="0 0 24 24" xmlns="http://www.w3.org/2000/svg"><title>icon-shortlist-taken-hover</title><g fill="none" fill-rule="evenodd"><path d="M4.095 19.326l5.537-2.91 5.537 2.91c.23-.153.454-.316.67-.488l-1.057-6.165 4.48-4.368c-.074-.267-.16-.53-.255-.788l-6.192-.9-2.77-5.61C9.91 1.004 9.772 1 9.633 1c-.14 0-.278.003-.415.008l-2.77 5.61-6.19.9c-.097.257-.182.52-.257.787l4.48 4.368-1.056 6.165c.216.172.44.335.67.488z" fill="#00BD08"/><path d="M17.777 17.18c.142-.055.277-.118.402-.187.048-.026.102-.04.157-.04h.176c.057 0 .112.014.16.042 1.935.496 3.733 1.535 5.206 3.007.064.064.1.154.1.247L24 21.64c0 .19-.15.346-.336.346H8.336c-.185 0-.336-.156-.336-.346l-.02-1.393c0-.094.038-.183.103-.248.246-.246.5-.48.765-.7l.784-.414 4.335 2.28L17 21l.98-2.63-.203-1.19zm-.294-1.713c1.465-.742 2.498-2.538 2.498-4.635v-.167l-2.845 2.772.348 2.03z" fill-opacity=".3" fill="#000"/></g></svg>