<svg width="16" height="16" viewBox="0 0 16 16" xmlns="http://www.w3.org/2000/svg" xmlns:xlink="http://www.w3.org/1999/xlink"><title>icon-shortlist</title><defs><path d="M3.4 15.22L8 12.804l4.6 2.418c.19-.126.377-.262.557-.405l-.88-5.12L16 6.067c-.062-.222-.133-.44-.212-.654l-5.144-.747-2.3-4.66C8.232.003 8.117 0 8 0c-.116 0-.23.002-.345.007l-2.3 4.66-5.143.746c-.08.214-.15.432-.212.654l3.722 3.628-.88 5.12c.18.143.367.28.56.406z" id="a"/><mask id="b" x="0" y="0" width="16" height="15.221" fill="#fff"><use xlink:href="#a"/></mask></defs><use mask="url(#b)" xlink:href="#a" stroke-width="2" stroke="#000" fill="none" fill-rule="evenodd"/></svg>