<svg width="24" height="24" viewBox="0 0 24 24" xmlns="http://www.w3.org/2000/svg"><title>icon-shortlist-taken</title><path d="M12.167 5.303l-2.12-4.295C9.91 1.003 9.77 1 9.632 1c-.14 0-.278.003-.415.008l-2.77 5.61-6.19.9c-.097.257-.182.52-.257.787l4.48 4.368-1.056 6.165c.216.172.44.335.67.488L7.91 17.32c1.074-.93 2.244-1.644 3.47-2.116-.867-1.217-1.39-2.783-1.39-4.49 0-2.178.848-4.124 2.177-5.41zm6.495 11.686c.004 0 .008.003.012.005 1.934.496 3.732 1.535 5.205 3.007.064.064.1.154.1.247L24 21.64c0 .19-.15.346-.336.346H8.336c-.185 0-.336-.156-.336-.346l-.02-1.393c0-.094.038-.183.103-.248 1.477-1.476 3.28-2.516 5.22-3.012.806.473 1.716.74 2.678.74.965 0 1.876-.268 2.682-.74zm-2.68-1.158c2.208 0 4-2.24 4-5 0-2.762-1.792-5-4-5-2.21 0-4 2.238-4 5 0 2.76 1.79 5 4 5z" fill="#000" fill-rule="evenodd" fill-opacity=".3"/></svg>