<svg width="50" height="50" viewBox="0 0 50 50" fill="none" xmlns="http://www.w3.org/2000/svg">
<circle cx="25" cy="25" r="25" fill="#FFD100"/>
<path fill-rule="evenodd" clip-rule="evenodd" d="M15.6829 16.5301C15.8176 16.1103 16.0893 15.7429 16.458 15.4819C16.8267 15.221 17.2731 15.0802 17.7314 15.0803H20.7143C20.9984 15.0803 21.271 14.9721 21.4719 14.7796C21.6728 14.587 21.7857 14.3258 21.7857 14.0535C21.7857 13.7812 21.6728 13.52 21.4719 13.3275C21.271 13.1349 20.9984 13.0267 20.7143 13.0267H17.7314C16.8147 13.0266 15.9221 13.3081 15.1846 13.83C14.4472 14.3519 13.9038 15.0867 13.6343 15.9264L10.19 26.657C10.0642 27.0481 10.0002 27.4551 10 27.8645V33.5624C10 34.6517 10.4515 35.6964 11.2553 36.4666C12.059 37.2369 13.1491 37.6696 14.2857 37.6696H35.7143C36.8509 37.6696 37.941 37.2369 38.7447 36.4666C39.5485 35.6964 40 34.6517 40 33.5624V27.8645C40 27.4551 39.9357 27.0485 39.81 26.657L36.3657 15.9264C36.0962 15.0867 35.5528 14.3519 34.8154 13.83C34.0779 13.3081 33.1853 13.0266 32.2686 13.0267H29.2857C29.0016 13.0267 28.729 13.1349 28.5281 13.3275C28.3272 13.52 28.2143 13.7812 28.2143 14.0535C28.2143 14.3258 28.3272 14.587 28.5281 14.7796C28.729 14.9721 29.0016 15.0803 29.2857 15.0803H32.2686C32.7269 15.0802 33.1733 15.221 33.542 15.4819C33.9107 15.7429 34.1824 16.1103 34.3171 16.5301L37.4786 26.3749H33.4143C32.6183 26.3747 31.8379 26.587 31.1607 26.9879C30.4834 27.3888 29.9361 27.9625 29.58 28.6448L29.2143 29.3471C29.0362 29.6883 28.7626 29.9752 28.424 30.1756C28.0853 30.3761 27.6952 30.4822 27.2971 30.4821H22.7C22.3018 30.4821 21.9115 30.3758 21.5729 30.175C21.2343 29.9743 20.9607 29.6872 20.7829 29.3458L20.4171 28.6448C20.0611 27.9625 19.5137 27.3888 18.8365 26.9879C18.1593 26.587 17.3789 26.3747 16.5829 26.3749H12.5214L15.6829 16.5301Z" fill="#333333"/>
<path fill-rule="evenodd" clip-rule="evenodd" d="M25.1082 12C25.3805 12 25.6417 12.1082 25.8342 12.3007C26.0268 12.4933 26.135 12.7545 26.135 13.0268V21.8435L28.4897 19.4887C28.5837 19.3878 28.6971 19.3069 28.8231 19.2508C28.949 19.1947 29.085 19.1645 29.2228 19.162C29.3607 19.1596 29.4976 19.185 29.6255 19.2366C29.7534 19.2883 29.8695 19.3651 29.967 19.4626C30.0645 19.5601 30.1414 19.6763 30.193 19.8041C30.2446 19.932 30.27 20.0689 30.2676 20.2068C30.2651 20.3447 30.235 20.4806 30.1788 20.6066C30.1227 20.7325 30.0418 20.8459 29.9409 20.9399L25.8338 25.047C25.6413 25.2393 25.3803 25.3473 25.1082 25.3473C24.8361 25.3473 24.5751 25.2393 24.3826 25.047L20.2755 20.9399C20.0941 20.7452 19.9953 20.4878 20 20.2218C20.0047 19.9558 20.1125 19.702 20.3006 19.5139C20.4887 19.3257 20.7425 19.218 21.0086 19.2133C21.2746 19.2086 21.532 19.3073 21.7266 19.4887L24.0814 21.8435V13.0268C24.0814 12.7545 24.1896 12.4933 24.3821 12.3007C24.5747 12.1082 24.8359 12 25.1082 12Z" fill="#333333"/>
</svg>
