<svg width="135" height="40" viewBox="0 0 135 40" xmlns="http://www.w3.org/2000/svg"><g fill="none"><path d="M129.5 39.5H5.5c-2.8 0-5-2.1-5-4.9V5.4C.5 2.6 2.7.5 5.5.5h124c2.8 0 5 2.1 5 4.9v29.2a5 5 0 0 1-5 4.9z" fill="#000"/><path d="M130 .8c2.3 0 4.2 1.9 4.2 4.2v30c0 2.3-1.9 4.2-4.2 4.2H5A4.2 4.2 0 0 1 .8 35V5C.8 2.7 2.7.8 5 .8h125zm0-.8H5a5 5 0 0 0-5 5v30a5 5 0 0 0 5 5h125a5 5 0 0 0 5-5V5a5 5 0 0 0-5-5z" fill="#A6A6A6"/><path d="M29.8 20.3a5 5 0 0 1 2.3-4.2 5 5 0 0 0-4-2.1c-1.6-.2-3.3 1-4.1 1-.9 0-2.2-1-3.6-1a5.3 5.3 0 0 0-4.5 2.8c-2 3.3-.5 8.2 1.4 11 .9 1.3 2 2.7 3.4 2.7s1.9-.9 3.6-.9c1.6 0 2.1.9 3.5.9 1.5 0 2.5-1.4 3.4-2.7.6-1 1.1-2 1.5-3.1-1.8-.7-3-2.5-3-4.4zM27 12.2c.8-1 1.2-2.2 1.2-3.5a5 5 0 0 0-3.3 1.7c-.8.9-1.2 2.1-1.1 3.3a4 4 0 0 0 3.2-1.5zM51.3 27.1h-4.7l-1.2 3.4h-2L48 18.1h2l4.6 12.4h-2l-1.2-3.4zm-4.2-1.5h3.7L49 20l-2 5.5zm17.1.4c0 2.8-1.5 4.6-3.8 4.6a3 3 0 0 1-2.9-1.6v4.5h-1.9v-12h1.8v1.4c.7-1 1.8-1.6 3-1.6 2.2 0 3.8 1.9 3.8 4.7zm-2 0c0-1.9-.9-3-2.3-3-1.5 0-2.4 1.2-2.4 3s1 3 2.4 3 2.3-1.2 2.3-3zm11.9 0c0 2.8-1.5 4.6-3.8 4.6a3 3 0 0 1-2.8-1.6v4.5h-1.9v-12h1.8v1.4c.6-1 1.7-1.6 3-1.6 2.2 0 3.7 1.9 3.7 4.7zm-1.9 0c0-1.9-1-3-2.4-3s-2.4 1.2-2.4 3 1 3 2.4 3c1.5 0 2.4-1.2 2.4-3zm8.5 1c.1 1.3 1.3 2 3 2 1.5 0 2.7-.7 2.7-1.8 0-1-.7-1.6-2.3-2l-1.6-.4c-2.3-.5-3.4-1.6-3.4-3.3 0-2.2 1.9-3.6 4.6-3.6 2.6 0 4.4 1.4 4.4 3.6h-1.8c-.2-1.3-1.2-2-2.7-2-1.5 0-2.5.8-2.5 1.9 0 .8.7 1.4 2.3 1.7l1.3.4c2.6.6 3.6 1.6 3.6 3.4 0 2.3-1.8 3.8-4.8 3.8-2.7 0-4.6-1.4-4.7-3.7h2zm11.6-7.7v2.1h1.8V23h-1.8v5c0 .8.4 1.1 1.1 1.1h.7v1.5h-1c-2 0-2.6-.6-2.6-2.4V23h-1.3v-1.5h1.3v-2.1h1.8zM95 26c0-2.9 1.7-4.7 4.4-4.7 2.6 0 4.3 1.8 4.3 4.7 0 2.8-1.7 4.6-4.3 4.6-2.7 0-4.3-1.8-4.3-4.6zm6.8 0c0-2-1-3.1-2.4-3.1-1.5 0-2.4 1.1-2.4 3 0 2 .9 3.2 2.4 3.2s2.4-1.2 2.4-3.1zm3.4-4.6h1.8V23c.2-1 1.2-1.7 2.2-1.7l.6.1v1.8l-.8-.2a1.9 1.9 0 0 0-2 2.1v5.4h-1.8v-9zm13.2 6.4c-.3 1.7-1.9 2.8-4 2.8-2.5 0-4.2-1.8-4.2-4.6s1.7-4.7 4.2-4.7 4 1.8 4 4.5v.6h-6.3v.1a2.4 2.4 0 0 0 2.4 2.6 2 2 0 0 0 2.1-1.3h1.8zm-6.3-2.7h4.5a2.2 2.2 0 0 0-2.2-2.3 2.3 2.3 0 0 0-2.3 2.3zM46.8 8.7a2.6 2.6 0 0 1 2.8 3c0 1.9-1 3-2.8 3h-2.1v-6h2.1zM45.6 14h1.1a1.9 1.9 0 0 0 2-2.2 1.9 1.9 0 0 0-2-2.1h-1.1V14zm5.1-1.6a2.1 2.1 0 1 1 4.2 0 2.1 2.1 0 1 1-4.2 0zm3.3 0c0-1-.4-1.5-1.2-1.5-.8 0-1.2.6-1.2 1.5 0 1 .4 1.6 1.2 1.6.8 0 1.2-.6 1.2-1.6zm6.6 2.3h-1l-.9-3.3-1 3.3h-.9l-1.2-4.5h.9l.8 3.4 1-3.4h.8l1 3.4.8-3.4h1zm2.3-4.5h.8v.7c.3-.5.8-.8 1.4-.8a1.5 1.5 0 0 1 1.6 1.7v2.9h-1V12c0-.7-.2-1-.9-1a1 1 0 0 0-1 1v2.7h-1v-4.5zM68 8.4h1v6.3h-1zm2.2 4a2.1 2.1 0 1 1 4.3 0 2.1 2.1 0 1 1-4.3 0zm3.4 0c0-1-.5-1.5-1.3-1.5-.7 0-1.2.6-1.2 1.5 0 1 .5 1.6 1.2 1.6.8 0 1.3-.6 1.3-1.6zm1.8 1c0-.8.6-1.3 1.7-1.3h1.2v-.5c0-.5-.3-.7-1-.7-.4 0-.8.2-.9.5h-.8c0-.8.8-1.3 1.8-1.3 1.1 0 1.8.6 1.8 1.5v3.1h-.9v-.6a2 2 0 0 1-1.4.7 1.4 1.4 0 0 1-1.5-1.4zm2.9-.4v-.3h-1.1c-.6 0-1 .3-1 .7 0 .4.4.6 1 .6a1 1 0 0 0 1.1-1zm2-.6c0-1.4.8-2.3 2-2.3.5 0 1 .3 1.3.8V8.4h1v6.3h-.9V14c-.4.5-.9.8-1.5.8-1.1 0-1.9-1-1.9-2.4zm1 0c0 1 .4 1.6 1.2 1.6.7 0 1.2-.6 1.2-1.6 0-.9-.5-1.5-1.2-1.5-.8 0-1.2.6-1.2 1.5zm6.9 0a2.1 2.1 0 1 1 4.3 0 2.1 2.1 0 1 1-4.3 0zm3.4 0c0-1-.5-1.5-1.2-1.5-.8 0-1.3.6-1.3 1.5 0 1 .5 1.6 1.3 1.6.7 0 1.2-.6 1.2-1.6zm2.1-2.2h.8v.7c.3-.5.9-.8 1.4-.8a1.5 1.5 0 0 1 1.6 1.7v2.9h-.9V12c0-.7-.3-1-1-1a1 1 0 0 0-1 1v2.7h-1v-4.5zm8.8-1.2v1.2h1v.8h-1v2.3c0 .5.2.7.7.7h.3v.7a3 3 0 0 1-.5 0c-1 0-1.4-.3-1.4-1.2V11h-.7v-.8h.7V9.1h1zm2.2-.6h.9V11c.3-.5.8-.8 1.4-.8a1.5 1.5 0 0 1 1.6 1.7v2.9h-1V12c0-.7-.2-1-.9-1a1 1 0 0 0-1.1 1v2.7h-.9V8.4zm9.1 5.1a2 2 0 0 1-2 1.3 2 2 0 0 1-2-2.3 2 2 0 0 1 2-2.4c1.3 0 2 .9 2 2.3v.3h-3.2a1.2 1.2 0 0 0 1.2 1.3 1 1 0 0 0 1.1-.5h.9zm-3.2-1.5h2.3a1 1 0 0 0-1.1-1.1 1.2 1.2 0 0 0-1.2 1.1z" fill="#FFF"/></g></svg>