<svg xmlns="http://www.w3.org/2000/svg" width="36" height="36" viewBox="0 0 36 36"><path fill="#FFF" fill-rule="evenodd" d="M13.192 31.577l-8.485-8.485 1.414-1.414a6 6 0 118.486 8.485l-1.415 1.414zm6.364-19.092l-1.414-1.414-1.414 1.414-1.414 1.414-1.415-1.414.708-.707 1.414-1.414-1.414-1.414-3.536-3.536L9.657 4 8.243 5.414 5.414 8.243 4 9.657l1.414 1.414 3.536 3.536 1.414 1.414 1.414-1.414.707-.708 1.414 1.415-1.414 1.414-1.414 1.414 1.414 1.414 2.122 2.122 2.12 2.121 1.415 1.414 1.414-1.414 1.415-1.414 1.414 1.414-.707.707-1.415 1.414 1.415 1.414 3.535 3.536 1.414 1.414 1.415-1.414 2.828-2.828 1.414-1.415-1.414-1.414-3.535-3.535-1.415-1.415-1.414 1.415-.707.707-1.414-1.414 1.414-1.415 1.414-1.414-1.414-1.414 1.414-1.414 1.414-1.415-1.414-1.414-1.414-1.414-1.414-1.414-1.414 1.414-1.415 1.414zm1.415 1.414l1.414 1.415 1.414-1.415-1.414-1.414L20.97 13.9zm-2.829 0L13.9 18.142l4.243 4.243 4.243-4.243-1.414-1.414-1.415-1.414-1.414-1.415zm-4.95 9.193a4 4 0 010 5.657l-5.656-5.657a4 4 0 015.656 0zM7.536 10.364l-.708-.707 2.829-2.829.707.708-2.828 2.828zm.707.707l.707.707 2.828-2.828-.707-.707-2.828 2.828zm1.414 1.414l.707.707 2.828-2.828-.707-.707-2.828 2.828zm19.799 14.142l-.707-.707-2.829 2.829.707.707 2.829-2.829zm-2.121-2.12l.707.706-2.829 2.829-.707-.708 2.829-2.828zm-1.415-1.415l.707.707-2.828 2.828-.707-.707 2.828-2.828z"/></svg>