<svg width="108" height="12" viewbox="0 0 108 12" xmlns="http://www.w3.org/2000/svg"><g fill="none" fill-rule="evenodd"><path d="M15.7 9.6a1.4 1.4 0 1 1-2.7 0 1.4 1.4 0 0 1 2.7 0zM13 4.4v2c2.5 0 4.6 2 4.6 4.6h2c0-3.6-3-6.6-6.6-6.6zM13 3a8 8 0 0 1 8 8h2A10 10 0 0 0 13 1v2z" fill="#FFF" fill-rule="nonzero"/><path d="M26 4L31 9.2 29.7 12 28 8.7A3.9 3.9 0 0 1 26 4zm1.8-2.2A4 4 0 0 1 33.1 7l-5.3-5.3zM25.7 1L34 9.3l-.7.7L25 1.7l.7-.7zM42.5 12a5.5 5.5 0 1 1 0-11 5.5 5.5 0 0 1 0 11zm0-1.5a4 4 0 1 0 0-8 4 4 0 0 0 0 8z" fill="#FFF"/><path stroke="#FFF" d="M42 3v3l2 2"/><path fill="#FFF" d="M5 2L1 6l4 4zM7 2l4 4-4 4z"/><g fill="#FFF"><path d="M54 5.4l1-1.1c.2 0 .3.2.4.3a3 3 0 0 1 0 4.2L54 10.2A3 3 0 1 1 49.8 6l1-1-.3.3.6 1.5-.3.3A1.5 1.5 0 0 0 53 9l1.5-1.3a1.5 1.5 0 0 0-.5-2.4z"/><path d="M54 6.6l-1 1.1a3 3 0 0 1-.4-4.6L54 1.9A3 3 0 1 1 58.2 6l-1 1 .3-.3-.6-1.5.3-.3A1.5 1.5 0 0 0 55 3l-1.5 1.3a1.5 1.5 0 0 0 .5 2.4z"/></g><path d="M62.6 12c-.2 0-.3-.2-.5-.3l.7-3.7L60 5.4l.2-.5 3.8-.5L65.7 1a6.6 6.6 0 0 1 .6 0L68 4.4l3.8.5.2.5L69.2 8l.7 3.7-.5.3-3.4-1.7-3.4 1.7zM88.6 6H90v5l-1.8-1.8-2.5 2.5-1.4-1.4 2.5-2.5L85 6h3.6zm3.2-3.2L94.3.3l1.4 1.4-2.5 2.5L95.1 6H90V1l1.8 1.8zM78 7.4l-2.8 2.8 1.9 1.8H72V7l1.8 1.8L76.6 6 78 7.4zM79.4 6L78 4.6l2.8-2.8L79 0h5v5l-1.8-1.8L79.4 6z" fill="#FFF"/><path fill="#FFF" fill-rule="nonzero" d="M97 2h10v2H97zM99 5h6v2h-6zM101 8h2v2h-2z"/></g></svg>