<?xml version="1.0" encoding="utf-8"?>
<!-- Generator: Adobe Illustrator 16.0.0, SVG Export Plug-In . SVG Version: 6.00 Build 0)  -->
<!DOCTYPE svg PUBLIC "-//W3C//DTD SVG 1.1//EN" "http://www.w3.org/Graphics/SVG/1.1/DTD/svg11.dtd">
<svg version="1.1" id="Layer_1" xmlns="http://www.w3.org/2000/svg" xmlns:xlink="http://www.w3.org/1999/xlink" x="0px" y="0px"
	 width="22px" height="18px" viewBox="0 0 22 18" enable-background="new 0 0 22 18" xml:space="preserve">
<g>
	<g>
		<path fill-rule="evenodd" clip-rule="evenodd" fill="#000000" d="M2.008,4.017h17.958c1.108,0,2.008-0.899,2.008-2.009
			C21.974,0.899,21.074,0,19.966,0H2.008C0.899,0,0,0.899,0,2.008C0,3.117,0.899,4.017,2.008,4.017z M19.966,6.982H2.008
			C0.899,6.982,0,7.881,0,8.99s0.899,2.009,2.008,2.009h17.958c1.108,0,2.008-0.9,2.008-2.009S21.074,6.982,19.966,6.982z
			 M19.966,13.964H2.008C0.899,13.964,0,14.862,0,15.972c0,1.108,0.899,2.009,2.008,2.009h17.958c1.108,0,2.008-0.9,2.008-2.009
			C21.974,14.862,21.074,13.964,19.966,13.964z"/>
	</g>
</g>
</svg>
