<svg xmlns="http://www.w3.org/2000/svg" width="22" height="18" viewBox="0 0 22 18"><path fill-rule="evenodd" clip-rule="evenodd" d="M2.008 4.017h17.958c1.108 0 2.008-.9 2.008-2.01C21.974.9 21.074 0 19.966 0H2.008C.898 0 0 .9 0 2.008c0 1.11.9 2.01 2.008 2.01zm17.958 2.965H2.008C.898 6.982 0 7.882 0 8.99S.9 11 2.008 11h17.958c1.108 0 2.008-.9 2.008-2.01s-.9-2.008-2.008-2.008zm0 6.982H2.008c-1.11 0-2.008.898-2.008 2.008 0 1.108.9 2.01 2.008 2.01h17.958c1.108 0 2.008-.9 2.008-2.01 0-1.11-.9-2.008-2.008-2.008z"/></svg>