<svg width="254" height="70" viewBox="0 0 254 70" fill="none" xmlns="http://www.w3.org/2000/svg">
<g clip-path="url(#clip0_1368_75)">
<path d="M39.192 31.7688C39.2389 32.1095 39.2062 32.4565 39.0966 32.7825C38.987 33.1086 38.8034 33.4048 38.5602 33.648C38.317 33.8912 38.0208 34.0748 37.6947 34.1844C37.3687 34.294 37.0217 34.3267 36.681 34.2798H32.917C32.5787 34.3257 32.2343 34.2919 31.9114 34.1811C31.5885 34.0703 31.2959 33.8856 31.057 33.6416C30.8182 33.3977 30.6396 33.1014 30.5356 32.7762C30.4316 32.451 30.405 32.106 30.458 31.7688V15.5018C30.458 14.0778 29.694 13.3188 28.004 13.3188C26.5359 13.3264 25.1132 13.828 23.965 14.7428V31.7688C24.0179 32.106 23.9913 32.451 23.8873 32.7762C23.7833 33.1014 23.6047 33.3977 23.3659 33.6416C23.127 33.8856 22.8344 34.0703 22.5115 34.1811C22.1886 34.2919 21.8443 34.3257 21.506 34.2798H17.743C17.4022 34.3267 17.0552 34.294 16.7292 34.1844C16.4032 34.0748 16.1069 33.8912 15.8637 33.648C15.6205 33.4048 15.4369 33.1086 15.3273 32.7825C15.2177 32.4565 15.1851 32.1095 15.232 31.7688V15.5018C15.232 14.0778 14.468 13.3188 12.773 13.3188C11.3051 13.3275 9.8827 13.8289 8.73396 14.7428V31.7688C8.78583 32.1104 8.75667 32.4595 8.64883 32.7879C8.54099 33.1162 8.35748 33.4146 8.11311 33.6589C7.86875 33.9033 7.57036 34.0868 7.24204 34.1946C6.91371 34.3025 6.56463 34.3316 6.22296 34.2798H2.51096C2.16937 34.3312 1.82047 34.3017 1.49235 34.1937C1.16423 34.0857 0.866037 33.9022 0.621774 33.658C0.377511 33.4137 0.193996 33.1155 0.0859957 32.7874C-0.0220045 32.4593 -0.051474 32.1104 -4.14476e-05 31.7688V9.49277C-0.0519157 9.1511 -0.0227548 8.80202 0.085089 8.4737C0.192933 8.14537 0.37644 7.84699 0.620805 7.60262C0.865171 7.35825 1.16355 7.17475 1.49188 7.0669C1.82021 6.95906 2.16929 6.9299 2.51096 6.98177H3.87796C5.07796 6.98177 5.51596 7.45677 6.33196 8.94677C8.29996 7.25277 12.066 6.21777 14.9 6.21777C18.555 6.21777 20.359 7.20077 21.232 8.45377C23.2 6.98177 26.8 6.21777 30.079 6.21777C37.179 6.21777 39.192 10.4898 39.192 15.3878V31.7688Z" fill="#117EC1"/>
<path d="M55.0219 45.4147C54.8226 46.1741 54.3647 46.8403 53.7272 47.2986C53.0896 47.7569 52.3123 47.9786 51.5289 47.9257H48.3619C46.3449 47.9257 45.3049 46.1257 46.2349 44.1257L51.5839 32.5537L42.3039 10.8047C42.0869 10.4066 41.9791 9.95818 41.9913 9.50496C42.0035 9.05174 42.1353 8.60981 42.3734 8.22398C42.6115 7.83815 42.9474 7.52214 43.347 7.308C43.7467 7.09386 44.1958 6.98921 44.6489 7.00465H47.5969C48.3673 6.9532 49.1308 7.17759 49.7508 7.63766C50.3709 8.09773 50.8069 8.76345 50.9809 9.51565L56.0079 23.7267L60.4839 9.48665C60.6363 8.72273 61.0678 8.04295 61.6942 7.57983C62.3205 7.11672 63.0969 6.90347 63.8719 6.98165H66.8199C68.8419 6.98165 69.9859 8.78165 69.1929 10.7817L55.0219 45.4147Z" fill="#117EC1"/>
<path d="M95.405 13.6984C95.5836 14.6885 95.6756 15.6923 95.68 16.6984C95.68 23.5764 91.854 27.1784 83.396 27.1784C82.466 27.1988 81.5356 27.1624 80.61 27.0694C80.3699 27.3615 80.2359 27.7264 80.23 28.1044C80.23 28.6504 80.558 28.9774 81.322 29.0874L91.855 30.4544C97.589 31.2184 99.226 34.0544 99.226 38.4764C99.226 45.8474 90.768 48.6864 82.414 48.6864C75.536 48.6864 69.475 46.5604 69.475 41.2624C69.5144 39.6719 70.104 38.1442 71.1433 36.9395C72.1826 35.7348 73.6074 34.9276 75.175 34.6554C74.3824 34.2304 73.7262 33.5901 73.2819 32.8082C72.8376 32.0263 72.6234 31.1348 72.664 30.2364C72.7717 29.2887 73.0876 28.3765 73.5889 27.565C74.0902 26.7535 74.7647 26.0629 75.564 25.5424C72.564 23.7954 71.14 20.9004 71.14 16.6994C71.14 9.82141 74.94 6.21941 83.424 6.21941C85.5797 6.11617 87.7375 6.3744 89.808 6.98341H96.453C96.7938 6.93609 97.141 6.96842 97.4672 7.07787C97.7934 7.18733 98.0898 7.37092 98.3332 7.61424C98.5765 7.85755 98.7601 8.15397 98.8695 8.48019C98.979 8.80642 99.0113 9.15358 98.964 9.49441V10.6384C98.964 12.2234 98.2 12.9314 96.615 13.3674L95.405 13.6984ZM79.637 36.1354C79.0584 36.3487 78.5543 36.7256 78.186 37.2203C77.8178 37.7149 77.6013 38.3059 77.563 38.9214C77.563 40.8864 79.039 42.1444 83.349 42.1444C87.497 42.1444 90.611 40.7204 90.611 38.9214C90.611 38.0484 90.174 37.4974 89.083 37.3404L79.637 36.1354ZM83.405 20.7424C86.077 20.7424 87.387 19.3754 87.387 16.7034C87.387 14.0314 86.077 12.6644 83.405 12.6644C80.733 12.6644 79.418 14.0264 79.418 16.7034C79.418 19.3804 80.729 20.7424 83.405 20.7424Z" fill="#1B3156"/>
<path d="M100.599 20.6337C100.599 12.1187 103.328 6.22266 113.415 6.22266C123.502 6.22266 126.231 12.1227 126.231 20.6337C126.231 29.1447 123.502 35.0447 113.415 35.0447C103.328 35.0447 100.599 29.1487 100.599 20.6337ZM109.333 20.6337C109.333 26.0927 110.425 28.0577 113.433 28.0577C116.441 28.0577 117.525 26.0927 117.525 20.6337C117.525 15.1747 116.429 13.2127 113.429 13.2127C110.429 13.2127 109.333 15.1887 109.333 20.6337Z" fill="#1B3156"/>
<path d="M140.336 34.7154C138.043 34.7154 137.227 33.8944 136.406 31.8154L127.891 10.9154C126.965 8.62244 128.166 6.98544 130.184 6.98544H132.861C133.624 6.93555 134.379 7.16176 134.99 7.62275C135.6 8.08375 136.024 8.74879 136.184 9.49644L141.263 23.9074L146.342 9.49244C146.499 8.74299 146.922 8.07572 147.533 7.6141C148.144 7.15247 148.901 6.92773 149.665 6.98144H152.365C154.387 6.98144 155.588 8.61944 154.658 10.9114L146.124 31.8014C145.308 33.8754 144.486 34.7014 142.194 34.7014L140.336 34.7154Z" fill="#1B3156"/>
<path d="M158.734 33.8947C158.117 33.7042 157.585 33.307 157.227 32.77C156.869 32.233 156.708 31.5891 156.769 30.9467V29.4287C156.756 29.0242 156.843 28.6228 157.021 28.2597C157.2 27.8965 157.465 27.5827 157.793 27.3458C158.121 27.1089 158.502 26.956 158.903 26.9008C159.304 26.8455 159.712 26.8894 160.092 27.0287C162.316 27.6517 164.609 28.0007 166.918 28.0677C169.7 28.0677 170.957 27.5217 170.957 26.1677C170.957 24.8137 170.008 24.4207 168.228 24.2677C159.603 23.5037 157.202 21.2107 157.202 15.5337C157.202 9.96569 160.802 6.25369 169.211 6.25369C171.769 6.21315 174.322 6.50662 176.805 7.12669C177.422 7.3174 177.954 7.71483 178.311 8.252C178.669 8.78917 178.831 9.43325 178.769 10.0757V11.6037C178.782 12.0081 178.695 12.4096 178.517 12.7727C178.338 13.1359 178.073 13.4497 177.745 13.6866C177.417 13.9235 177.036 14.0763 176.635 14.1316C176.234 14.1869 175.826 14.143 175.446 14.0037C173.521 13.4922 171.538 13.2354 169.546 13.2397C167.087 13.2397 165.725 13.7857 165.725 15.1397C165.725 16.4937 166.651 16.8867 168.454 17.0397C177.089 17.8037 179.489 20.0967 179.489 25.7757C179.489 30.9967 176.375 35.0557 167.148 35.0557C164.304 35.0449 161.474 34.6544 158.734 33.8947Z" fill="#117EC1"/>
<path d="M197.162 27.5291C198.229 27.533 199.293 27.404 200.328 27.1451C202.511 26.6701 203.764 27.9661 203.764 29.5451V31.3251C203.849 31.9712 203.697 32.6261 203.335 33.1683C202.974 33.7105 202.428 34.1031 201.799 34.2731C199.993 34.8134 198.115 35.0711 196.231 35.0371C186.187 35.0371 182.466 29.9061 182.466 20.6261C182.466 11.3461 186.179 6.22115 196.232 6.22115C198.116 6.18479 199.995 6.44256 201.8 6.98515C202.429 7.15462 202.976 7.54708 203.337 8.08942C203.699 8.63177 203.851 9.28702 203.765 9.93315V11.7331C203.765 13.3181 202.512 14.6331 200.329 14.1331C199.293 13.8764 198.23 13.7488 197.163 13.7531C193.563 13.7531 191.102 15.4431 191.102 20.6311C191.102 25.8191 193.56 27.5291 197.162 27.5291Z" fill="#117EC1"/>
<path d="M206.475 20.6337C206.475 12.1187 209.204 6.22266 219.291 6.22266C229.378 6.22266 232.107 12.1227 232.107 20.6337C232.107 29.1447 229.375 35.0437 219.291 35.0437C209.207 35.0437 206.475 29.1487 206.475 20.6337ZM215.209 20.6337C215.209 26.0927 216.301 28.0577 219.301 28.0577C222.301 28.0577 223.401 26.0927 223.401 20.6337C223.401 15.1747 222.309 13.2097 219.301 13.2097C216.293 13.2097 215.228 15.1887 215.228 20.6337H215.209Z" fill="#117EC1"/>
<path d="M238.206 3.65433C238.206 2.07333 238.861 1.47133 240.826 0.925327L243.674 0.161327C245.967 -0.438673 246.949 0.707327 246.949 2.40133V6.98633H251.221C251.563 6.9333 251.913 6.96169 252.242 7.06919C252.57 7.17669 252.869 7.36027 253.114 7.60502C253.359 7.84976 253.542 8.14877 253.65 8.47775C253.757 8.80672 253.785 9.15638 253.732 9.49833V11.7343C253.785 12.0762 253.757 12.4257 253.649 12.7546C253.542 13.0834 253.358 13.3823 253.114 13.6269C252.869 13.8715 252.57 14.055 252.241 14.1625C251.912 14.2699 251.563 14.2983 251.221 14.2453H246.949V24.6813C246.949 26.8073 247.77 28.0043 250.549 28.0043H251.09C251.399 27.9873 251.709 28.0344 251.999 28.1425C252.289 28.2507 252.554 28.4176 252.777 28.6329C253 28.8482 253.176 29.1071 253.294 29.3935C253.412 29.6799 253.469 29.9876 253.463 30.2973V32.0973C253.481 32.7458 253.265 33.3791 252.853 33.8805C252.441 34.382 251.863 34.7179 251.223 34.8263C250.414 34.9762 249.592 35.0492 248.769 35.0443C241.018 35.0443 238.232 31.8213 238.232 25.3803V14.2393H236.105C235.763 14.2923 235.414 14.2639 235.085 14.1565C234.756 14.049 234.457 13.8655 234.212 13.6209C233.968 13.3763 233.784 13.0774 233.677 12.7486C233.569 12.4197 233.541 12.0702 233.594 11.7283V10.4793C233.594 9.05533 234.194 8.34833 235.777 7.91133L238.231 7.25633L238.206 3.65433Z" fill="#117EC1"/>
<path d="M117.344 60.499C117.37 60.6713 117.357 60.8473 117.304 61.0135C117.252 61.1798 117.163 61.3319 117.042 61.4583C116.922 61.5847 116.775 61.682 116.612 61.7428C116.448 61.8035 116.273 61.8262 116.1 61.809H114.918C114.745 61.825 114.57 61.8015 114.408 61.7403C114.245 61.6792 114.098 61.5819 113.978 61.4557C113.858 61.3296 113.769 61.178 113.716 61.0123C113.663 60.8466 113.649 60.6711 113.674 60.499V50.249C113.674 48.711 112.824 48.156 111.348 48.156C110.137 48.1496 108.948 48.478 107.912 49.105V60.497C107.938 60.6693 107.925 60.8453 107.872 61.0116C107.82 61.1778 107.73 61.3299 107.61 61.4563C107.49 61.5827 107.343 61.68 107.18 61.7408C107.016 61.8015 106.841 61.8242 106.668 61.807H105.486C105.313 61.823 105.138 61.7995 104.976 61.7383C104.813 61.6772 104.666 61.5799 104.546 61.4538C104.426 61.3277 104.337 61.176 104.284 61.0103C104.231 60.8446 104.217 60.6691 104.242 60.497V46.515C104.221 46.3708 104.233 46.2237 104.277 46.0849C104.322 45.9462 104.398 45.8196 104.499 45.715C104.601 45.6103 104.725 45.5305 104.862 45.4816C105 45.4327 105.146 45.416 105.291 45.433H105.652C106.34 45.433 106.535 45.694 106.829 46.382L106.995 46.743C108.422 45.6711 110.151 45.0762 111.936 45.043C114.136 45.043 115.444 45.665 116.136 46.681C117.674 45.6258 119.492 45.0553 121.357 45.043C125.221 45.043 126.757 47.143 126.757 50.264V60.517C126.784 60.6893 126.77 60.8655 126.718 61.032C126.666 61.1984 126.576 61.3507 126.456 61.4772C126.336 61.6037 126.189 61.701 126.025 61.7616C125.862 61.8222 125.687 61.8446 125.513 61.827H124.36C124.187 61.8432 124.012 61.82 123.849 61.7589C123.686 61.6979 123.538 61.6007 123.418 61.4746C123.298 61.3485 123.208 61.1968 123.155 61.031C123.102 60.8651 123.087 60.6894 123.112 60.517V50.26C123.112 48.722 122.229 48.167 120.791 48.167C119.537 48.1511 118.306 48.5025 117.25 49.178C117.318 49.7755 117.351 50.3765 117.35 50.978L117.344 60.499Z" fill="#1D1D1B"/>
<path d="M135.458 68.8813C135.356 69.2203 135.142 69.5148 134.852 69.7172C134.561 69.9195 134.211 70.0179 133.858 69.9963H132.282C132.069 69.993 131.861 69.9336 131.678 69.824C131.495 69.7144 131.345 69.5585 131.242 69.3721C131.139 69.1857 131.087 68.9754 131.091 68.7625C131.095 68.5496 131.156 68.3415 131.266 68.1593L134.774 61.2293L129.174 47.2123C129.065 47.0289 129.008 46.8192 129.009 46.6057C129.011 46.3923 129.07 46.1833 129.181 46.0012C129.293 45.8191 129.452 45.6709 129.641 45.5724C129.83 45.4739 130.043 45.4289 130.256 45.4423H131.3C131.646 45.4224 131.987 45.522 132.268 45.7243C132.549 45.9265 132.752 46.2193 132.843 46.5533L136.643 57.2993L140.443 46.5533C140.529 46.2167 140.73 45.921 141.012 45.7179C141.294 45.5148 141.638 45.4173 141.985 45.4423H143.034C143.247 45.4296 143.459 45.475 143.648 45.5738C143.836 45.6726 143.995 45.821 144.105 46.003C144.216 46.1851 144.275 46.3938 144.276 46.6069C144.277 46.82 144.22 47.0293 144.111 47.2123L135.458 68.8813Z" fill="#1D1D1B"/>
<path d="M159.366 60.7261C159.387 60.8702 159.375 61.0174 159.331 61.1561C159.286 61.2948 159.21 61.4214 159.109 61.5261C159.007 61.6307 158.883 61.7106 158.746 61.7595C158.608 61.8084 158.462 61.825 158.317 61.8081H157.956C157.268 61.8081 157.073 61.5471 156.779 60.8591L156.613 60.4981C155.204 61.6079 153.46 62.2072 151.667 62.1981C147.442 62.1981 146.033 59.5781 146.033 56.9771C146.033 53.4361 148.326 51.9311 152.028 51.6371L155.697 51.3431V50.5221C155.697 48.8511 154.909 48.1961 152.488 48.1961C151.152 48.2136 149.827 48.4344 148.558 48.8511C148.432 48.9143 148.292 48.9439 148.151 48.9369C148.01 48.9298 147.874 48.8864 147.755 48.8109C147.635 48.7353 147.538 48.6303 147.472 48.5059C147.405 48.3815 147.372 48.242 147.376 48.1011V46.8711C147.347 46.5908 147.425 46.3099 147.595 46.0853C147.765 45.8606 148.014 45.709 148.292 45.6611C149.745 45.265 151.243 45.056 152.749 45.0391C158.117 45.0391 159.366 47.4121 159.366 50.8681V60.7261ZM152.246 54.2421C150.608 54.4371 149.659 55.0581 149.659 56.7621C149.62 57.0988 149.66 57.4399 149.774 57.7589C149.889 58.0779 150.076 58.366 150.32 58.6008C150.565 58.8357 150.86 59.0109 151.183 59.1127C151.507 59.2146 151.849 59.2404 152.184 59.1881C153.435 59.1996 154.658 58.8214 155.684 58.1061V53.8341L152.246 54.2421Z" fill="#1D1D1B"/>
<path d="M169.974 45.0397C171.19 45.0275 172.402 45.1874 173.574 45.5147C173.853 45.5602 174.104 45.7112 174.274 45.9364C174.445 46.1617 174.522 46.444 174.49 46.7247V47.9687C174.49 48.5237 174.015 48.9177 173.313 48.6897C172.309 48.3595 171.254 48.2148 170.199 48.2627C167.023 48.2627 166.107 50.4267 166.107 53.6027C166.107 56.7787 167.023 58.9427 170.199 58.9427C171.254 58.9906 172.309 58.8459 173.313 58.5157C174.034 58.2877 174.49 58.6767 174.49 59.2367V60.4807C174.522 60.7614 174.445 61.0437 174.274 61.269C174.104 61.4942 173.853 61.6453 173.574 61.6907C172.402 62.0156 171.19 62.1755 169.974 62.1657C164.174 62.1657 162.408 58.6917 162.408 53.5837C162.408 48.4757 164.178 45.0397 169.974 45.0397Z" fill="#1D1D1B"/>
<path d="M184.712 45.0397C185.928 45.0275 187.14 45.1874 188.312 45.5147C188.591 45.5602 188.842 45.7112 189.012 45.9364C189.183 46.1617 189.26 46.444 189.228 46.7247V47.9687C189.228 48.5237 188.753 48.9177 188.051 48.6897C187.047 48.3594 185.992 48.2147 184.936 48.2627C181.761 48.2627 180.844 50.4267 180.844 53.6027C180.844 56.7787 181.76 58.9427 184.936 58.9427C185.991 58.9906 187.047 58.8459 188.05 58.5157C188.771 58.2877 189.227 58.6767 189.227 59.2367V60.4807C189.259 60.7614 189.182 61.0437 189.011 61.269C188.841 61.4942 188.59 61.6453 188.311 61.6907C187.139 62.0157 185.927 62.1755 184.711 62.1657C178.911 62.1657 177.145 58.6917 177.145 53.5837C177.145 48.4757 178.916 45.0397 184.712 45.0397Z" fill="#1D1D1B"/>
<path d="M191.884 53.6347C191.884 48.5887 193.308 45.0527 199.156 45.0527C205.004 45.0527 206.428 48.5747 206.428 53.6347C206.428 58.6947 205.004 62.2167 199.156 62.2167C193.308 62.2167 191.884 58.6627 191.884 53.6347ZM202.725 53.6347C202.725 50.1347 202.25 48.1347 199.156 48.1347C196.062 48.1347 195.587 50.1347 195.587 53.6347C195.587 57.1347 196.062 59.1347 199.156 59.1347C202.25 59.1347 202.724 57.1247 202.724 53.6347H202.725Z" fill="#1D1D1B"/>
<path d="M223.131 60.7258C223.152 60.87 223.14 61.0172 223.096 61.1559C223.051 61.2946 222.975 61.4212 222.874 61.5259C222.772 61.6305 222.648 61.7104 222.511 61.7593C222.373 61.8082 222.227 61.8248 222.082 61.8078H221.721C221.033 61.8078 220.838 61.5469 220.544 60.8589L220.378 60.4979C218.82 61.5854 216.971 62.1778 215.071 62.1978C210.913 62.1978 209.442 60.1328 209.442 56.9768V46.7428C209.415 46.5704 209.428 46.3941 209.48 46.2274C209.532 46.0608 209.621 45.9083 209.742 45.7817C209.862 45.6552 210.009 45.5579 210.173 45.4974C210.337 45.4369 210.512 45.4148 210.686 45.4328H211.863C212.036 45.4164 212.211 45.4396 212.374 45.5007C212.537 45.5617 212.684 45.659 212.804 45.7852C212.923 45.9114 213.013 46.0632 213.066 46.2291C213.118 46.395 213.132 46.5707 213.107 46.7428V56.6678C213.107 58.3338 213.961 59.0888 215.694 59.0888C217.012 59.1131 218.313 58.7855 219.463 58.1398V46.7479C219.436 46.5755 219.45 46.3993 219.502 46.2329C219.554 46.0664 219.643 45.9141 219.763 45.7876C219.884 45.6611 220.031 45.5639 220.195 45.5032C220.358 45.4426 220.533 45.4202 220.707 45.4378H221.892C222.065 45.4218 222.24 45.4453 222.402 45.5065C222.565 45.5677 222.712 45.665 222.832 45.7911C222.951 45.9172 223.041 46.0688 223.094 46.2345C223.146 46.4002 223.161 46.5757 223.136 46.7479L223.131 60.7258Z" fill="#1D1D1B"/>
<path d="M226.734 46.515C226.713 46.3713 226.725 46.2246 226.769 46.0863C226.813 45.948 226.889 45.8217 226.99 45.7172C227.091 45.6126 227.214 45.5327 227.351 45.4834C227.487 45.4341 227.634 45.4169 227.778 45.433H228.139C228.827 45.433 229.027 45.694 229.321 46.382L229.482 46.743C231.039 45.6537 232.889 45.061 234.789 45.043C238.947 45.043 240.423 47.108 240.423 50.264V60.517C240.449 60.6893 240.435 60.8653 240.383 61.0316C240.331 61.1978 240.241 61.3499 240.121 61.4763C240.001 61.6027 239.854 61.7 239.691 61.7608C239.527 61.8215 239.352 61.8442 239.179 61.827H237.997C237.824 61.843 237.649 61.8195 237.486 61.7583C237.324 61.6971 237.177 61.5998 237.057 61.4737C236.937 61.3476 236.848 61.196 236.795 61.0303C236.742 60.8646 236.728 60.6891 236.753 60.517V50.578C236.753 48.907 235.903 48.157 234.166 48.157C232.849 48.1327 231.55 48.4603 230.402 49.106V60.498C230.428 60.6706 230.414 60.8468 230.361 61.0132C230.309 61.1796 230.219 61.3318 230.098 61.4582C229.978 61.5846 229.83 61.6818 229.667 61.7424C229.503 61.803 229.328 61.8254 229.154 61.808H227.977C227.804 61.8244 227.629 61.8012 227.466 61.7401C227.303 61.6791 227.156 61.5818 227.036 61.4556C226.916 61.3294 226.827 61.1776 226.774 61.0117C226.722 60.8458 226.708 60.6701 226.733 60.498L226.734 46.515Z" fill="#1D1D1B"/>
<path d="M249.167 45.433H252.542C252.715 45.417 252.89 45.4405 253.052 45.5017C253.215 45.5628 253.362 45.6601 253.482 45.7862C253.601 45.9123 253.691 46.064 253.744 46.2297C253.796 46.3954 253.811 46.5709 253.786 46.743V47.218C253.812 47.3904 253.799 47.5666 253.747 47.733C253.695 47.8995 253.605 48.0518 253.485 48.1782C253.365 48.3047 253.218 48.402 253.054 48.4626C252.891 48.5233 252.715 48.5456 252.542 48.528H249.167V56.654C249.167 58.519 250.216 59.075 251.853 59.075C252.028 59.0786 252.202 59.0676 252.375 59.042C253.063 58.947 253.357 59.303 253.357 59.797V61.041C253.357 61.516 253.129 61.929 252.375 62.09C252.01 62.1673 251.637 62.2009 251.264 62.19C247.628 62.19 245.497 60.614 245.497 57.078V48.533H243.597C243.453 48.5543 243.307 48.5423 243.168 48.4979C243.03 48.4535 242.904 48.378 242.799 48.2772C242.695 48.1763 242.615 48.0528 242.565 47.9162C242.516 47.7795 242.499 47.6334 242.515 47.489V47.157C242.515 46.473 242.748 46.179 243.464 45.98L245.496 45.425V42.452C245.496 41.764 245.729 41.469 246.445 41.275L248.021 40.8C248.151 40.747 248.292 40.7276 248.431 40.7439C248.571 40.7601 248.704 40.8113 248.818 40.8928C248.932 40.9742 249.024 41.0833 249.084 41.2097C249.145 41.3362 249.173 41.476 249.165 41.616L249.167 45.433Z" fill="#1D1D1B"/>
</g>
<defs>
<clipPath id="clip0_1368_75">
<rect width="253.784" height="70" fill="white"/>
</clipPath>
</defs>
</svg>
