<svg width="50" height="50" viewBox="0 0 50 50" fill="none" xmlns="http://www.w3.org/2000/svg">
<circle cx="25" cy="25" r="25" fill="#FFD100"/>
<g clip-path="url(#clip0_1554_65)">
<path d="M36.6423 18.4167C36.4834 18.2686 36.2732 18.188 36.0561 18.1919C35.8389 18.1957 35.6317 18.2837 35.4782 18.4372C35.3246 18.5908 35.2366 18.798 35.2328 19.0152C35.2289 19.2323 35.3095 19.4425 35.4576 19.6014C36.2361 20.3798 36.8535 21.3039 37.2748 22.3209C37.6961 23.338 37.913 24.428 37.913 25.5289C37.913 26.6297 37.6961 27.7197 37.2748 28.7368C36.8535 29.7538 36.2361 30.6779 35.4576 31.4563C35.3048 31.6143 35.2203 31.826 35.2221 32.0458C35.2239 32.2656 35.3119 32.4759 35.4673 32.6314C35.6226 32.7868 35.8328 32.8751 36.0526 32.8771C36.2724 32.8791 36.4842 32.7947 36.6423 32.6421C37.5764 31.7081 38.3173 30.5992 38.8228 29.3788C39.3283 28.1584 39.5885 26.8504 39.5885 25.5294C39.5885 24.2085 39.3283 22.9004 38.8228 21.68C38.3173 20.4596 37.5764 19.3508 36.6423 18.4167ZM23.6027 19.6025C23.76 19.4453 23.8483 19.232 23.8483 19.0096C23.8483 18.7872 23.76 18.574 23.6027 18.4167C23.4455 18.2595 23.2322 18.1711 23.0098 18.1711C22.7874 18.1711 22.5742 18.2595 22.4169 18.4167C21.4828 19.3508 20.7419 20.4596 20.2364 21.68C19.7309 22.9004 19.4707 24.2085 19.4707 25.5294C19.4707 26.8504 19.7309 28.1584 20.2364 29.3788C20.7419 30.5992 21.4828 31.7081 22.4169 32.6421C22.4936 32.7245 22.5862 32.7905 22.689 32.8363C22.7918 32.8822 22.9028 32.9068 23.0154 32.9088C23.1279 32.9108 23.2397 32.8901 23.3441 32.8479C23.4485 32.8057 23.5433 32.743 23.6229 32.6634C23.7025 32.5838 23.7652 32.489 23.8074 32.3846C23.8496 32.2802 23.8703 32.1684 23.8683 32.0559C23.8663 31.9433 23.8417 31.8323 23.7958 31.7295C23.75 31.6267 23.684 31.5341 23.6016 31.4574C22.8232 30.679 22.2057 29.7549 21.7844 28.7379C21.3631 27.7209 21.1463 26.6308 21.1463 25.53C21.1463 24.4291 21.3631 23.3391 21.7844 22.322C22.2057 21.305 22.8243 20.3809 23.6027 19.6025Z" fill="#333333"/>
<path d="M32.2958 21.5774C32.453 21.4204 32.6661 21.3323 32.8882 21.3323C33.1103 21.3323 33.3234 21.4204 33.4805 21.5774C33.9996 22.0964 34.4114 22.7125 34.6923 23.3906C34.9732 24.0686 35.1178 24.7954 35.1178 25.5294C35.1178 26.2634 34.9732 26.9902 34.6923 27.6683C34.4114 28.3464 33.9996 28.9625 33.4805 29.4814C33.3224 29.634 33.1106 29.7184 32.8908 29.7164C32.671 29.7144 32.4608 29.6261 32.3055 29.4707C32.1502 29.3152 32.0621 29.1049 32.0603 28.8851C32.0585 28.6653 32.1431 28.4536 32.2958 28.2956C32.6591 27.9324 32.9473 27.5011 33.1439 27.0265C33.3405 26.5519 33.4417 26.0432 33.4417 25.5294C33.4417 25.0157 33.3405 24.507 33.1439 24.0324C32.9473 23.5577 32.6591 23.1265 32.2958 22.7632C32.1389 22.6061 32.0507 22.393 32.0507 22.1709C32.0507 21.9488 32.1389 21.7346 32.2958 21.5774ZM26.7635 21.5774C26.8414 21.6553 26.9032 21.7477 26.9453 21.8494C26.9875 21.9512 27.0092 22.0602 27.0092 22.1703C27.0092 22.2805 26.9875 22.3895 26.9453 22.4912C26.9032 22.593 26.8414 22.6854 26.7635 22.7632C26.4002 23.1265 26.112 23.5577 25.9154 24.0324C25.7188 24.507 25.6176 25.0157 25.6176 25.5294C25.6176 26.0432 25.7188 26.5519 25.9154 27.0265C26.112 27.5011 26.4002 27.9324 26.7635 28.2956C26.9116 28.4545 26.9922 28.6647 26.9883 28.8818C26.9845 29.099 26.8965 29.3062 26.743 29.4598C26.5894 29.6133 26.3822 29.7013 26.165 29.7051C25.9479 29.709 25.7377 29.6284 25.5788 29.4803C24.5312 28.4324 23.9426 27.0112 23.9426 25.5294C23.9426 24.0476 24.5312 22.6265 25.5788 21.5785C25.736 21.4216 25.949 21.3334 26.1711 21.3334C26.3933 21.3334 26.6063 21.4204 26.7635 21.5774ZM30.6473 25.5294C30.6473 25.8258 30.5296 26.1101 30.32 26.3197C30.1104 26.5293 29.8261 26.6471 29.5297 26.6471C29.2332 26.6471 28.949 26.5293 28.7394 26.3197C28.5298 26.1101 28.412 25.8258 28.412 25.5294C28.412 25.233 28.5298 24.9487 28.7394 24.7391C28.949 24.5295 29.2332 24.4118 29.5297 24.4118C29.8261 24.4118 30.1104 24.5295 30.32 24.7391C30.5296 24.9487 30.6473 25.233 30.6473 25.5294Z" fill="#333333"/>
</g>
<path d="M26.3636 11H16.1818C15.3379 11 14.5286 11.3352 13.9319 11.9319C13.3352 12.5286 13 13.3379 13 14.1818V35.8182C13 36.6621 13.3352 37.4714 13.9319 38.0681C14.5286 38.6648 15.3379 39 16.1818 39H26.3636C27.2075 39 28.0168 38.6648 28.6135 38.0681C29.2102 37.4714 29.5455 36.6621 29.5455 35.8182V14.1818C29.5455 13.3379 29.2102 12.5286 28.6135 11.9319C28.0168 11.3352 27.2075 11 26.3636 11ZM21.2727 37.7273C20.2164 37.7273 19.3636 36.8745 19.3636 35.8182C19.3636 34.7618 20.2164 33.9091 21.2727 33.9091C22.3291 33.9091 23.1818 34.7618 23.1818 35.8182C23.1818 36.8745 22.3291 37.7273 21.2727 37.7273ZM27 32.6364H15.5455V14.8182H27V32.6364Z" fill="#222222"/>
<defs>
<clipPath id="clip0_1554_65">
<rect width="10.0588" height="22.3529" fill="white" transform="translate(30.6472 14.3529)"/>
</clipPath>
</defs>
</svg>
