<svg width="50" height="50" viewBox="0 0 50 50" fill="none" xmlns="http://www.w3.org/2000/svg">
<circle cx="25" cy="25" r="25" fill="#FFD100"/>
<path d="M33.505 21.01C35.7169 21.01 37.51 19.2169 37.51 17.005C37.51 14.7931 35.7169 13 33.505 13C31.2931 13 29.5 14.7931 29.5 17.005C29.5 19.2169 31.2931 21.01 33.505 21.01Z" fill="#333333"/>
<path d="M16.505 21.01C18.7169 21.01 20.51 19.2169 20.51 17.005C20.51 14.7931 18.7169 13 16.505 13C14.2931 13 12.5 14.7931 12.5 17.005C12.5 19.2169 14.2931 21.01 16.505 21.01Z" fill="#333333"/>
<path d="M25.2717 28.0524C22.877 28.0528 20.5171 28.6257 18.3888 29.7233C16.2604 30.8208 14.4253 32.4113 13.0364 34.3621C12.7796 34.7229 12.6767 35.1709 12.7503 35.6076C12.8238 36.0443 13.0678 36.4338 13.4286 36.6906C13.7895 36.9474 14.2375 37.0503 14.6742 36.9767C15.1109 36.9032 15.5004 36.6592 15.7572 36.2984C16.8245 34.7993 18.2308 33.5734 19.8615 32.7207C21.4923 31.868 23.3014 31.4126 25.1415 31.3914C26.9816 31.3703 28.8006 31.784 30.4506 32.599C32.1005 33.414 33.5346 34.6072 34.636 36.0814C34.9016 36.4355 35.2971 36.6697 35.7353 36.7323C36.1736 36.7949 36.6188 36.6808 36.9729 36.4152C37.3271 36.1496 37.5612 35.7541 37.6238 35.3159C37.6864 34.8776 37.5724 34.4325 37.3068 34.0783C35.9075 32.2072 34.0911 30.6882 32.0018 29.6422C29.9126 28.5961 27.6082 28.0518 25.2717 28.0524Z" fill="#333333"/>
<path fill-rule="evenodd" clip-rule="evenodd" d="M13.0364 34.3621C14.4253 32.4113 16.2604 30.8208 18.3888 29.7233C20.5171 28.6257 22.877 28.0528 25.2717 28.0524C27.6082 28.0518 29.9126 28.5961 32.0018 29.6422C34.0911 30.6882 35.9075 32.2072 37.3068 34.0783C37.5724 34.4325 37.6864 34.8776 37.6238 35.3159C37.5612 35.7541 37.3271 36.1496 36.9729 36.4152C36.6188 36.6808 36.1736 36.7949 35.7353 36.7323C35.2971 36.6697 34.9016 36.4355 34.636 36.0814C33.5346 34.6072 32.1005 33.414 30.4506 32.599C28.8006 31.784 26.9816 31.3703 25.1415 31.3914C23.3014 31.4126 21.4923 31.868 19.8615 32.7207C18.2308 33.5734 16.8245 34.7993 15.7572 36.2984C15.5004 36.6592 15.1109 36.9032 14.6742 36.9767C14.2375 37.0503 13.7895 36.9474 13.4287 36.6906C13.0678 36.4338 12.8238 36.0443 12.7503 35.6076C12.6767 35.1709 12.7796 34.7229 13.0364 34.3621ZM16.1646 36.5883C17.1862 35.1533 18.5323 33.98 20.0932 33.1638C21.6542 32.3476 23.3858 31.9116 25.1472 31.8914C26.9086 31.8711 28.6498 32.2672 30.2291 33.0473C31.8084 33.8274 33.1812 34.9695 34.2355 36.3806L34.236 36.3814C34.5812 36.8416 35.0951 37.1459 35.6646 37.2272C36.2342 37.3086 36.8127 37.1604 37.2729 36.8152C37.7332 36.47 38.0375 35.9561 38.1188 35.3866C38.2001 34.8173 38.0521 34.239 37.7072 33.7789M16.1645 36.5883C15.8309 37.0571 15.3246 37.3742 14.7572 37.4698C14.1898 37.5654 13.6076 37.4316 13.1387 37.098C12.6699 36.7643 12.3528 36.2581 12.2572 35.6906C12.1616 35.1232 12.2954 34.541 12.629 34.0722L12.6291 34.0721C14.0642 32.0564 15.9604 30.413 18.1596 29.2789C20.3588 28.1448 22.7973 27.5529 25.2716 27.5524C27.6859 27.5518 30.0669 28.1142 32.2257 29.1951C34.3842 30.2759 36.261 31.8452 37.7068 33.7783" fill="#333333"/>
</svg>
