<svg fill="none" height="26" viewBox="0 0 25 26" width="25" xmlns="http://www.w3.org/2000/svg"><path d="m24.6582 21.6162-4.8682-4.8682c-.2197-.2197-.5175-.3418-.83-.3418h-.7959c1.3476-1.7236 2.1484-3.8916 2.1484-6.25 0-5.6103-4.5459-10.1562-10.1563-10.1562-5.6103 0-10.1562 4.5459-10.1562 10.1562 0 5.6104 4.5459 10.1563 10.1562 10.1563 2.3584 0 4.5264-.8008 6.25-2.1484v.7959c0 .3125.1221.6103.3418.83l4.8682 4.8682c.459.459 1.2012.459 1.6553 0l1.3818-1.3818c.459-.459.459-1.2012.0049-1.6602zm-14.502-5.21c-3.4521 0-6.24995-2.7929-6.24995-6.25 0-3.4521 2.79297-6.24995 6.24995-6.24995 3.4522 0 6.25 2.79297 6.25 6.24995 0 3.4522-2.7929 6.25-6.25 6.25z" fill="#000"/></svg>