<svg width="32" height="32" viewBox="0 0 32 32" xmlns="http://www.w3.org/2000/svg"><title>Artboard</title><g fill="#000" fill-rule="evenodd"><path d="M17.4 8H32v4h-7.3l-.152-1.527L18 10l-.6-2zm3.1 12H32v4H21.03l-.53-4zm4.4-6H32v4h-9.7l2.7-3-.1-1z"/><path d="M4.914 26.995L11.56 23.5l6.646 3.495c.276-.185.545-.38.805-.587l-1.268-7.4 5.378-5.24c-.09-.322-.192-.637-.307-.946l-7.432-1.08-3.32-6.732c-.167-.007-.333-.01-.5-.01-.167 0-.333.003-.5.01l-3.32 6.732-7.433 1.08c-.115.31-.217.624-.307.945l5.378 5.242-1.27 7.398c.26.207.53.402.806.587z"/></g></svg>