<svg width="175" height="35" viewBox="0 0 175 35" xmlns="http://www.w3.org/2000/svg"><g fill="none" fill-rule="evenodd"><path d="M16.8 30c-2.2 0-4.3-.5-6.1-1.5l5.6-5.8 1.5.1a6 6 0 0 0 5.7-7.4l-3 3.1-3.6-.7-.7-3.4 3.2-3.1c-.5-.2-1-.3-1.6-.3a6 6 0 0 0-6 6c0 .6.2 1.3.4 1.9l-5.7 5.8c-1.4-2-2.2-4.4-2.2-7 0-6.8 5.6-12.4 12.5-12.4 6.8 0 12.4 5.6 12.4 12.4 0 6.8-5.6 12.4-12.4 12.4m0-28C8 2 1 9 1 17.7s7 15.6 15.8 15.6c8.7 0 15.7-7 15.7-15.6s-7-15.6-15.7-15.6" fill="#FFF"/><path d="M94.4 30.2c1.1 0 1.9-.9 2.3-2l.8-1.8L93 16c-.2-.4-.5-.5-1-.5H92V14h.8c1.1 0 1.5.2 2 1.4l3.2 7.8.4 1.3.5-1.3 3.1-7.8c.4-1.2.8-1.4 2-1.4h.7v1.5h-.2c-.5 0-.7 0-.9.5l-5.4 13.1c-.7 1.6-2 2.6-3.6 2.6-1.8 0-2.8-1.2-2.8-1.2l.8-1.2s.8.9 2 .9M70.8 25h1c.3 0 .5-.2.5-.6L73.6 9h1.8l4.7 10.2.8 2 1-2L86.4 9h1.8l1.2 15.4c0 .4.2.6.6.6h.9v1.5h-1.7c-1 0-1.5-.5-1.5-1.5l-.9-10.6v-2.5l-1 2.5-4.2 8.8h-1.5L76 14.4l-1-2.5v2.5L74 25c0 1-.4 1.5-1.5 1.5h-1.7V25zm-7.6-5l-2.8-4c-.3-.4-.6-.5-1.1-.5h-.5V14h.9c1.3 0 1.6.2 2.3 1.4L64 18l.5.8.4-.8 1.9-2.7c.7-1.2 1-1.4 2.3-1.4h1v1.5h-.6c-.5 0-.9 0-1.2.5l-2.7 4 4.4 6.5h-2l-3-4.7-.5-.6-.5.6-3 4.7h-2l4.4-6.5zm-9-11H56v2.2h-1.6V9zm.1 7c0-.3-.2-.5-.5-.5h-1V14h1.7c1 0 1.5.4 1.5 1.5v9c0 .4.2.5.6.5h1v1.5H56c-1.1 0-1.6-.5-1.6-1.5v-9zm-12.1-5.4h-1.6V9H50c1.1 0 1.5.5 1.5 1.5v1.8H50V11c0-.4-.2-.5-.5-.5H44V17h6.3v1.6h-6.3v7.8h-1.8v-16z" fill="#FDD008"/><path d="M170.4 13.6l1.6.1c.2.1.7.5.7 1.2l-.2.7c-.4.7-.9.7-2.1.7v6.2c0 1.1.4 1.2 1.3 1.2 1 0 1.2.8 1.2 1.3 0 1.5-1.7 1.6-2.7 1.6-3.4 0-3.5-2-3.5-3.4v-6.9l-1.2-.1c0-.1-.6-.4-.6-1.3v-.6c.4-.7 1.2-.7 1.8-.7v-1.8c0-.6 0-1.2.5-1.7 0-.1.5-.6 1.3-.6l.7.1c1.1.4 1.1 1.5 1.2 2.2v1.8zm-9.4 4.8c-.1-.4-.2-.8-.5-1.2-.4-.7-1.2-1-2-1-2 0-2.5 1.4-2.8 2.2h5.3zm-5.3 2.8c0 .6.2 1.3.8 2 .8.8 1.8.8 2 .8 1 0 1.6-.4 1.8-.7l.5-.4c.4-.3.7-.4 1-.4 1 0 1.7.7 1.7 1.6 0 .6-.3 1.1-1 1.6a7 7 0 0 1-4 1.1c-5 0-6.6-3.6-6.6-6.7 0-3.8 2.5-6.8 6.6-6.8 4.6 0 6 3.7 6 6.1 0 1.7-1 1.7-1.6 1.8h-7.2zm-8.3-2.8c-.1-.4-.2-.8-.5-1.2-.4-.7-1.2-1-2-1-2 0-2.5 1.4-2.8 2.2h5.3zm-5.3 2.8c.1.6.2 1.3.8 2 .8.8 1.8.8 2 .8 1 0 1.6-.4 1.9-.7l.4-.4c.4-.3.8-.4 1-.4 1 0 1.7.7 1.7 1.6 0 .6-.2 1.1-1 1.6a7 7 0 0 1-4 1.1c-5 0-6.6-3.6-6.6-6.7 0-3.8 2.5-6.8 6.6-6.8 4.6 0 6 3.7 6 6.1 0 1.7-1 1.7-1.6 1.8h-7.2zm-12.3-5.4c0-.6 0-1.3.6-1.9.2-.2.6-.4 1.2-.4l.8.1c1 .5 1 1.6 1 2v.4c0-.4.2-.8.5-1.2a3 3 0 0 1 2.6-1.4c1.3 0 1.8.8 1.8 1.6 0 .5-.1 1-.4 1.2-.4.4-.9.5-1.3.5h-1c-2 .4-2 2.3-2 3.7v4c0 .5 0 1.3-.5 1.7-.3.4-.8.6-1.3.6l-.7-.1c-1.2-.4-1.3-1.5-1.3-2.3v-8.5zm-3.6-2.2l1.6.1c.2.1.7.5.7 1.2 0 .3 0 .5-.2.7-.3.7-.8.7-2.1.7v6.2c0 1.1.4 1.2 1.3 1.2 1 0 1.2.8 1.2 1.3 0 1.5-1.7 1.6-2.7 1.6-3.4 0-3.5-2-3.5-3.4v-6.9l-1.1-.1c-.2-.1-.7-.4-.7-1.3l.1-.6c.4-.7 1.1-.7 1.7-.7v-1.8c0-.6 0-1.2.5-1.7.1-.1.5-.6 1.4-.6l.7.1c1 .4 1 1.5 1 2.2v1.8zm-6.3-1c0 1.1-1.1 1.8-2 1.8-.6 0-1-.2-1.5-.9l-.4-.5c-.6-.7-1.5-1.2-3-1.2-1.7 0-3 .6-3 1.8 0 .4.2.7.5 1 .4.3 1 .5 2.3.8 3.9 1 4.3 1.2 5.2 1.8 1 .7 2.2 2 2.2 4 0 1.8-.9 3.3-2 4.2a8.4 8.4 0 0 1-5.3 1.5c-1.8 0-3.4-.3-4.7-1-2.7-1.3-2.8-3-2.8-3.4 0-1.2 1-2 2-2 .7 0 1.3.5 1.8 1.4.6.8 1.2 1.7 3.8 1.7.6 0 1.2 0 1.7-.3.2 0 1.4-.5 1.4-1.8 0-.7-.3-1-.8-1.4-.5-.3-.8-.4-3.2-1-3-.8-6.2-1.6-6.2-5.3 0-3.1 2.5-5.3 7.1-5.3 4.4 0 6.9 2.3 6.9 4z" fill="#FFF"/></g></svg>