<svg fill="none" height="12" viewBox="0 0 37 12" width="37" xmlns="http://www.w3.org/2000/svg"><g fill="#000"><path d="m5.05824 2.86808c-.03977-.37216-.20739-.66194-.50284-.86932-.29262-.20739-.6733-.31108-1.14205-.31108-.32954 0-.61221.04971-.84801.14915-.23579.09943-.41619.23437-.54119.40482-.125.17046-.18892.36506-.19176.58381 0 .18182.04119.33949.12358.47301.08522.13353.20028.24716.34517.34091.14488.09091.30539.16762.48153.23012s.35369.11505.53267.15767l.81818.20454c.32955.07671.64631.1804.95029.31108.30681.13068.58096.29546.82244.49432.24432.19886.4375.43892.57955.72017.14204.28125.21306.6108.21306.98864 0 .51136-.13068.96164-.39204 1.35085-.26137.38636-.63921.68892-1.13352.90767-.49148.21591-1.08665.32386-1.78552.32386-.67897 0-1.26846-.10511-1.76846-.31534-.49716-.21023-.886365-.51704-1.167615-.92045-.27841-.40341-.4289777-.89489-.451705-1.47443h1.5554c.02273.30397.11648.55681.28125.75852.16477.2017.37926.35227.64346.4517.26705.09943.56534.14915.89489.14915.34375 0 .64489-.05114.90341-.15341.26136-.10511.46591-.25.61364-.43466.14772-.1875.22301-.40625.22585-.65625-.00284-.22727-.0696-.41477-.20029-.5625-.13068-.15057-.31392-.27557-.54971-.375-.23296-.10227-.50568-.19318-.81818-.27273l-.9929-.25568c-.71875-.18466-1.28693-.46449-1.704547-.83949-.414773-.37784-.622159-.87926-.622159-1.50426 0-.5142.139204-.96449.417613-1.35085.28125-.38636.663353-.686079 1.146303-.899147.48296-.215909 1.02983-.323864 1.64063-.323864.61932 0 1.16193.107955 1.62784.323864.46875.213068.83665.509947 1.10369.890627.26705.37784.40483.8125.41336 1.30398z"/><path d="m8.28013 11.6507v-8.99995h1.51704v1.08238h.08949c.07955-.15909.19174-.32812.33664-.5071.1449-.18182.3409-.33665.5881-.46449.2471-.13068.5625-.19602.946-.19602.5057 0 .9616.12926 1.3679.38778.4091.25568.733.63495.9716 1.13779.2415.5.3622 1.11363.3622 1.84091 0 .71875-.1179 1.32954-.3537 1.83238s-.5568.88637-.9631 1.15057c-.4062.2642-.8664.39631-1.3806.39631-.375 0-.6861-.0625-.9333-.1875-.2471-.125-.446-.27557-.5966-.45171-.1477-.17897-.26275-.34801-.34514-.5071h-.06392v3.48575zm1.51278-5.72723c0 .4233.05966.79404.17898 1.11222.12211.31818.29691.56676.52411.74574.2302.17613.5086.2642.8353.2642.3409 0 .6264-.09091.8565-.27273.2301-.18465.4034-.43607.5199-.75426.1193-.32102.179-.68608.179-1.09517 0-.40625-.0583-.76704-.1748-1.08238-.1164-.31534-.2897-.5625-.5198-.74148-.2302-.17898-.5171-.26847-.8608-.26847-.3296 0-.6094.08665-.8395.25995-.2301.17329-.4049.41619-.52417.72869-.11648.3125-.17472.6804-.17472 1.10369z"/><path d="m17.9037 9.3283c-.4148 0-.7884-.07386-1.1208-.22159-.3295-.15057-.5909-.37216-.7841-.66477-.1903-.29261-.2855-.65341-.2855-1.08239 0-.36932.0682-.67471.2046-.91619.1363-.24148.3224-.43466.5582-.57955.2358-.14488.5014-.25426.7969-.32812.2983-.07671.6065-.1321.9247-.16619.3835-.03978.6946-.07529.9332-.10654.2387-.03409.412-.08523.5199-.15341.1108-.07102.1662-.1804.1662-.32812v-.02557c0-.32102-.0952-.5696-.2855-.74574s-.4645-.2642-.8225-.2642c-.3778 0-.6775.08238-.8991.24716-.2187.16477-.3665.35937-.4432.5838l-1.4403-.20454c.1136-.39773.3011-.73012.5625-.99716.2613-.26989.5809-.47159.9588-.60512.3778-.13636.7954-.20454 1.2528-.20454.3154 0 .6293.03693.9418.11079.3125.07387.598.19603.8565.36648.2585.16761.4659.39631.6222.68608.1591.28977.2386.65199.2386 1.08665v4.38068h-1.4829v-.89915h-.0512c-.0937.18182-.2258.35228-.3963.51137-.1676.15625-.3792.28267-.6349.37926-.2529.09375-.5497.14062-.8906.14062zm.4005-1.13352c.3097 0 .5781-.06108.8054-.18324.2273-.125.402-.28977.5242-.49432.125-.20454.1875-.42755.1875-.66903v-.77131c-.0483.03978-.1307.07671-.2472.1108-.1136.03409-.2415.06392-.3835.08949-.1421.02556-.2827.04829-.4219.06818-.1392.01988-.2599.03693-.3622.05113-.2301.03125-.4361.08239-.6179.15341-.1818.07103-.3253.17046-.4304.2983-.1051.125-.1577.28693-.1577.48579 0 .2841.1037.49858.3111.64347s.4716.21733.7926.21733z"/><path d="m26.0059 9.32404c-.6534 0-1.2145-.14346-1.6833-.4304-.4659-.28693-.8253-.68323-1.0781-1.18892-.25-.50852-.375-1.09375-.375-1.75568 0-.66477.1278-1.25142.3835-1.75994.2557-.51137.6165-.90909 1.0824-1.19318.4688-.28694 1.0227-.4304 1.6619-.4304.5313 0 1.0015.09801 1.4106.29403.4119.19318.74.46733.9843.82245.2443.35227.3836.7642.4176 1.23579h-1.4744c-.0596-.31534-.2017-.57812-.4261-.78835-.2216-.21307-.5185-.3196-.8906-.3196-.3154 0-.5924.08522-.831.25568-.2387.16761-.4247.40909-.5583.72443-.1306.31534-.196.69318-.196 1.13352 0 .44603.0654.82955.196 1.15057.1307.31818.314.56392.5498.73722.2386.17045.5184.25568.8395.25568.2272 0 .4303-.04261.6093-.12784.1818-.08807.3338-.21449.456-.37926.1222-.16478.206-.36506.2514-.60086h1.4744c-.0369.46307-.1733.87358-.409 1.23154-.2358.35511-.5569.63352-.9631.83523-.4063.19886-.8835.29829-1.4318.29829z"/><path d="m33.2143 9.32404c-.6563 0-1.2231-.13636-1.7003-.40909-.4745-.27557-.8395-.66477-1.0952-1.16761-.2557-.50569-.3835-1.10086-.3835-1.78551 0-.6733.1278-1.26421.3835-1.77273.2585-.51137.6193-.90909 1.0824-1.19318.4631-.28694 1.0071-.4304 1.6321-.4304.4034 0 .7841.06534 1.142.19602.3608.12784.679.32671.9546.59659.2784.26989.4971.61364.6562 1.03125.1591.41478.2387.90909.2387 1.48296v.47301h-5.3651v-1.03977h3.8864c-.0029-.29546-.0668-.55824-.1918-.78836-.125-.23295-.2997-.41619-.5241-.54971-.2216-.13353-.4801-.20029-.7756-.20029-.3153 0-.5923.07671-.831.23012-.2386.15056-.4247.34943-.5582.59659-.1307.24432-.1974.51278-.2003.8054v.90767c0 .38068.0696.70738.2088.98011.1392.26989.3338.47727.5838.62216.25.14204.5426.21307.8779.21307.2244 0 .4275-.03125.6093-.09375.1819-.06534.3395-.16051.4731-.28551.1335-.125.2343-.27983.3025-.46449l1.4403.16193c-.0909.38068-.2642.71307-.5198.99716-.2529.28125-.5767.5-.9716.65625-.3949.15341-.8466.23011-1.3551.23011z"/></g></svg>