<svg xmlns="http://www.w3.org/2000/svg" viewBox="0 0 36.03 36.04"><defs><style>.cls-1{fill:#ed6c52;}.cls-2{fill:#fff;}</style></defs><title>Asset 24</title><g id="Layer_2" data-name="Layer 2"><g id="Layer_1-2" data-name="Layer 1"><rect class="cls-1" width="36.03" height="36.04"/><path class="cls-2" d="M19.8,21.11a.3.3,0,0,0-.25-.11.39.39,0,0,0-.18,0,.59.59,0,0,0-.17.13v2.56a.81.81,0,0,0,.2.14.45.45,0,0,0,.19.05.27.27,0,0,0,.23-.09.51.51,0,0,0,.07-.29V21.42a.46.46,0,0,0-.09-.31m0,0a.3.3,0,0,0-.25-.11.39.39,0,0,0-.18,0,.59.59,0,0,0-.17.13v2.56a.81.81,0,0,0,.2.14.45.45,0,0,0,.19.05.27.27,0,0,0,.23-.09.51.51,0,0,0,.07-.29V21.42a.46.46,0,0,0-.09-.31M19.55,21a.39.39,0,0,0-.18,0,.59.59,0,0,0-.17.13v2.56a.81.81,0,0,0,.2.14.45.45,0,0,0,.19.05.27.27,0,0,0,.23-.09.51.51,0,0,0,.07-.29V21.42a.46.46,0,0,0-.09-.31.3.3,0,0,0-.25-.11m4,1.55H22v.78a.81.81,0,0,0,.07.44.3.3,0,0,0,.28.13.32.32,0,0,0,.28-.11.79.79,0,0,0,.08-.46v-.19h.86v.2a1.31,1.31,0,0,1-.32,1,1.18,1.18,0,0,1-.92.32,1.12,1.12,0,0,1-.87-.34,1.34,1.34,0,0,1-.32-.94V21.5a1.15,1.15,0,0,1,.36-.87,1.22,1.22,0,0,1,.9-.34,1.14,1.14,0,0,1,.86.32,1.23,1.23,0,0,1,.31.89Zm-2.85,1.1a1.06,1.06,0,0,1-.2.68.68.68,0,0,1-.56.23,1,1,0,0,1-.43-.09,1.11,1.11,0,0,1-.35-.28v.32h-.82V18.94h.82v1.79a1.27,1.27,0,0,1,.35-.28.81.81,0,0,1,.39-.1.73.73,0,0,1,.59.26,1.25,1.25,0,0,1,.21.76Zm-3,.86h-.83v-.46a1.36,1.36,0,0,1-.47.38.88.88,0,0,1-.47.14.52.52,0,0,1-.44-.19.89.89,0,0,1-.14-.54V20.39h.82v3.16a.31.31,0,0,0,.06.21s.09.07.16.07a.45.45,0,0,0,.23-.09.88.88,0,0,0,.25-.22V20.39h.83Zm-2.71-4.76h-1v4.76h-.93V19.75h-.95v-.81h2.84Zm9.41-1.81H11.58A2.59,2.59,0,0,0,9,20.52v2.63a2.59,2.59,0,0,0,2.57,2.57H24.46A2.58,2.58,0,0,0,27,23.15V20.52a2.58,2.58,0,0,0-2.57-2.58M19.8,21.11a.3.3,0,0,0-.25-.11.39.39,0,0,0-.18,0,.59.59,0,0,0-.17.13v2.56a.81.81,0,0,0,.2.14.45.45,0,0,0,.19.05.27.27,0,0,0,.23-.09.51.51,0,0,0,.07-.29V21.42a.46.46,0,0,0-.09-.31m0,0a.3.3,0,0,0-.25-.11.39.39,0,0,0-.18,0,.59.59,0,0,0-.17.13v2.56a.81.81,0,0,0,.2.14.45.45,0,0,0,.19.05.27.27,0,0,0,.23-.09.51.51,0,0,0,.07-.29V21.42a.46.46,0,0,0-.09-.31m2.85,0a.58.58,0,0,1,.08.36v.42H22v-.42a.52.52,0,0,1,.08-.36.32.32,0,0,1,.28-.12.32.32,0,0,1,.27.12m-7.22-10.8-.64,2.45h-.07L14,10.33H13L14.23,14v2.43h1V13.92l1.21-3.59Zm2.87,5.08a.37.37,0,0,1-.11.28.41.41,0,0,1-.3.11.39.39,0,0,1-.28-.11.43.43,0,0,1-.1-.28V12.93a.28.28,0,0,1,.11-.23.36.36,0,0,1,.27-.09.43.43,0,0,1,.3.09.26.26,0,0,1,.11.23Zm.58-3.26a1.35,1.35,0,0,0-.94-.33,1.55,1.55,0,0,0-1,.32,1,1,0,0,0-.37.83v2.35a1.22,1.22,0,0,0,.36.91,1.37,1.37,0,0,0,1,.35,1.35,1.35,0,0,0,1-.34,1.14,1.14,0,0,0,.37-.91V13a1.1,1.1,0,0,0-.37-.85m2.83-.21v3.43a1.05,1.05,0,0,1-.28.24.5.5,0,0,1-.27.1.21.21,0,0,1-.18-.07.35.35,0,0,1-.06-.23V11.94H20v3.77a1,1,0,0,0,.16.61.59.59,0,0,0,.49.2,1.22,1.22,0,0,0,.54-.13,2,2,0,0,0,.53-.43v.5h.92V11.94Z"/></g></g></svg>