<svg xmlns="http://www.w3.org/2000/svg" viewBox="0 0 36.18 36.19"><defs><style>.cls-1{fill:#65cdf0;}.cls-2{fill:#fff;}</style></defs><title>Asset 21</title><g id="Layer_2" data-name="Layer 2"><g id="Layer_1-2" data-name="Layer 1"><rect class="cls-1" width="36.18" height="36.19"/><path class="cls-2" d="M27.16,13.35a7.23,7.23,0,0,1-2.13.59,3.68,3.68,0,0,0,1.63-2.06,7.09,7.09,0,0,1-2.36.9,3.72,3.72,0,0,0-6.43,2.55,3.47,3.47,0,0,0,.1.85,10.56,10.56,0,0,1-7.66-3.89,3.71,3.71,0,0,0,1.15,5,3.72,3.72,0,0,1-1.69-.47v.05a3.71,3.71,0,0,0,3,3.64,3.56,3.56,0,0,1-1,.13,4,4,0,0,1-.7-.06,3.71,3.71,0,0,0,3.47,2.58,7.45,7.45,0,0,1-4.62,1.59,6.64,6.64,0,0,1-.89,0,10.58,10.58,0,0,0,16.28-8.91c0-.16,0-.32,0-.48a7.38,7.38,0,0,0,1.85-1.93"/></g></g></svg>