<svg width="272" height="49" viewBox="0 0 272 49" fill="none" xmlns="http://www.w3.org/2000/svg">
<path d="M94.9096 24.3197L83.0109 8.74312V22.761L84.8707 24.3197H80.1512L81.991 22.761V7.661L80.5012 5.78467H84.1008L94.4497 19.475V7.34332L92.6399 5.78467H97.3094L95.4896 7.34332V24.3197" fill="#333333"/>
<path d="M111.258 17.7575C111.258 22.364 107.948 24.5878 105.098 24.5878C101.259 24.5878 98.8892 21.4904 98.8892 18.2539C98.8892 13.4291 102.539 11.3442 105.098 11.3442C108.568 11.3442 111.258 14.1538 111.258 17.7575ZM101.579 17.3306C101.579 20.984 103.019 23.7142 105.338 23.7142C106.938 23.7142 108.568 22.2846 108.568 18.3929C108.568 14.9976 107.258 12.2179 104.829 12.2179C103.069 12.2179 101.579 14.0148 101.579 17.3306Z" fill="#333333"/>
<path d="M113.238 11.6025H117.267V14.2532C118.257 12.6847 119.427 11.5728 120.847 11.5728C121.917 11.5728 122.657 11.9202 122.657 11.9202V14.968L119.857 12.7144C119.137 13.0023 117.267 14.8588 117.267 16.8444V22.8606L119.057 24.3199H113.058L114.847 22.8606V13.0123" fill="#333333"/>
<path d="M127.666 12.5058C127.666 12.5058 127.696 20.6863 127.696 21.0635C127.746 22.4137 128.176 23.0789 129.296 23.0789C130.786 23.0789 131.966 22.2549 131.966 22.2549L132.156 22.5229C132.156 22.5229 130.716 24.5879 128.186 24.5879C125.626 24.5879 125.146 22.92 125.146 21.1231C125.146 20.1403 125.116 12.5158 125.116 12.5158H123.516V12.1485L127.676 8.78296V11.6124H132.056V12.5158" fill="#333333"/>
<path d="M140.875 24.3197L142.664 22.8106V16.6158C142.664 14.2331 141.974 13.012 139.995 13.012C138.905 13.012 137.915 13.6474 137.135 14.521V22.8106L138.945 24.3197H132.835L134.625 22.8106V6.67813L132.915 5.24854H137.125V13.4885C138.115 12.5355 139.555 11.3739 141.125 11.3739C143.494 11.3739 145.184 12.8532 145.184 16.3576V22.8206L146.974 24.3296" fill="#333333"/>
<path d="M151.973 11.6022V19.3061C151.973 21.6888 152.663 22.9397 154.453 22.9397C155.093 22.9397 156.423 22.7014 157.463 21.798V12.9027L156.103 11.6022H159.972V22.751L161.862 24.3097H158.003L157.603 22.8304C157.603 22.8304 155.333 24.5479 153.553 24.5479C151.043 24.5479 149.474 23.2474 149.474 19.7529V13.002L148.064 11.5923" fill="#333333"/>
<path d="M178.01 24.3198L179.74 22.8405V16.4272C179.74 14.3623 179.29 13.0121 177.58 13.0121C176.591 13.0121 175.711 13.7269 174.701 14.5708C174.761 14.9182 174.781 15.2359 174.781 15.7919V22.8405L176.511 24.3198H170.561L172.291 22.8405V16.4074C172.291 14.263 171.761 13.0121 170.101 13.0121C169.001 13.0121 168.152 13.7765 167.322 14.5211V22.8405L169.141 24.3198H163.002L164.822 22.8405V13.0419L163.252 11.6123H167.302V13.5482C167.302 13.5482 168.261 12.754 169.091 12.198C169.781 11.7513 170.451 11.4336 171.301 11.4336C172.611 11.4336 173.941 12.2278 174.501 13.7368C175.271 13.1015 175.921 12.6249 176.581 12.1782C177.171 11.7811 177.86 11.4336 178.63 11.4336C180.74 11.4336 182.26 12.9426 182.26 15.8018V22.8505L184.05 24.3297" fill="#333333"/>
<path d="M192.549 11.3144C195.509 11.3144 197.828 13.9948 197.828 17.4298C197.828 21.7186 195.109 24.5778 191.189 24.5778C189.989 24.5778 188.309 24.2899 186.679 23.5453V6.70791L184.94 5.24854H189.179V12.6348C189.189 12.6447 191.539 11.3144 192.549 11.3144ZM189.189 22.8404C189.189 22.8404 189.989 23.6346 191.429 23.6346C193.829 23.6346 194.979 21.5697 194.979 18.2042C194.979 14.8685 193.909 12.9624 191.489 12.9624C190.659 12.9624 189.729 13.2006 189.199 13.5183V22.8404H189.189Z" fill="#333333"/>
<path d="M211.037 22.0463C209.707 24.0021 207.777 24.5878 206.177 24.5878C202.738 24.5878 200.498 21.7286 200.498 18.1546C200.498 14.263 203.058 11.3442 206.177 11.3442C208.817 11.3442 211.137 13.5184 211.167 16.8243C211.167 16.8243 206.307 16.8541 202.948 16.8541C202.948 17.281 202.918 17.2016 202.918 17.5689C202.918 21.2024 205.157 22.8107 207.457 22.8107C208.447 22.8107 209.827 22.4931 210.847 21.7485M203.058 15.9805C204.627 15.9805 208.977 15.9507 208.977 15.9507C208.897 14.0942 207.837 12.3172 206.017 12.3172C204.527 12.3172 203.378 13.8361 203.058 15.9805Z" fill="#333333"/>
<path d="M213.147 11.6025H217.176V14.2532C218.166 12.6847 219.336 11.5728 220.746 11.5728C221.816 11.5728 222.566 11.9202 222.566 11.9202V14.968L219.766 12.7144C219.046 13.0023 217.176 14.8588 217.176 16.8444V22.8606L218.966 24.3199H212.957L214.746 22.8606V13.0123" fill="#333333"/>
<path d="M227.395 22.8404L229.205 24.3197H223.075L224.885 22.8404V6.70791L223.155 5.24854H227.395" fill="#333333"/>
<path d="M238.224 24.3197C238.224 24.3197 237.874 22.8901 237.904 22.9199C236.734 23.6843 235.104 24.5877 234.224 24.5877C232.144 24.5877 230.725 23.0291 230.725 21.2024C230.725 19.7728 231.525 18.8197 233.094 18.1546C234.854 17.41 236.644 16.993 237.764 16.4073V15.901C237.764 13.7764 236.804 12.3766 235.204 12.3766C234.694 12.3766 234.244 12.5355 234.244 12.5355L231.395 15.2855V12.4461C231.395 12.4461 233.204 11.3342 235.774 11.3342C237.154 11.3342 238.094 11.6519 238.734 12.1781C239.774 13.0219 240.224 14.1438 240.224 15.9903V22.7511L242.113 24.3097M237.774 17.41C236.974 17.7575 235.644 18.1744 235.024 18.4723C233.874 18.9984 233.234 19.7132 233.234 20.7556C233.234 22.2944 234.404 23.0092 235.314 23.0092C236.054 23.0092 237.204 22.483 237.764 21.9469V17.41H237.774Z" fill="#333333"/>
<path d="M251.112 24.3196L252.902 22.8404V16.6157C252.902 14.233 252.212 13.0119 250.232 13.0119C249.143 13.0119 248.343 13.6175 247.413 14.5209V22.8404L249.223 24.3196H243.083L244.893 22.8404V13.1211L243.083 11.6121H247.403V13.4984C248.333 12.6744 249.803 11.3838 251.372 11.3838C253.742 11.3838 255.422 12.863 255.422 16.3675V22.8602L257.242 24.3394" fill="#333333"/>
<path d="M272 24.3197H268.131L267.731 22.8901C267.731 22.8901 265.701 24.5281 264.021 24.5281C261.781 24.5281 258.902 22.6518 258.902 18.3333C258.902 13.9353 261.781 11.364 265.441 11.364C266.131 11.364 266.931 11.4931 267.571 11.7313V6.67813L265.731 5.24854H270.11V22.761M267.571 13.4885C267.571 13.4885 266.501 12.4263 264.901 12.4263C263.411 12.4263 261.651 13.5878 261.651 17.8071C261.651 21.3513 263.041 22.9397 265.141 22.9397C266.371 22.9397 267.571 21.937 267.571 21.937V13.4885Z" fill="#333333"/>
<path d="M90.0301 43.5695C90.0301 43.5695 88.1503 44.5424 86.2305 44.5424C81.661 44.5424 79.9812 40.9982 79.9812 37.4143C79.9812 32.7284 82.6309 29.9387 86.2305 29.9387C88.2903 29.9387 89.8801 30.6634 89.8801 30.6634V33.4631L88.1003 30.9116C88.1003 30.9116 87.4704 30.6138 86.3705 30.6138C83.1708 30.6138 82.131 33.6517 82.131 36.9775C82.131 41.0677 83.5608 43.8474 86.3505 43.8474C87.4904 43.8474 88.3503 43.3213 88.3503 43.3213L90.0301 40.5614" fill="#333333"/>
<path d="M101.349 39.3105C101.349 42.8348 98.8191 44.5324 96.6294 44.5324C93.6897 44.5324 91.8799 42.1597 91.8799 39.6877C91.8799 36.0045 94.6796 34.3962 96.6294 34.3962C99.2791 34.4062 101.349 36.5605 101.349 39.3105ZM93.9397 38.9928C93.9397 41.7924 95.0395 43.8772 96.8193 43.8772C98.0492 43.8772 99.2891 42.7851 99.2891 39.8068C99.2891 37.2157 98.2892 35.0813 96.4294 35.0813C95.0795 35.0713 93.9397 36.4513 93.9397 38.9928Z" fill="#333333"/>
<path d="M105.838 34.615V40.512C105.838 42.3387 106.368 43.2918 107.738 43.2918C108.228 43.2918 109.248 43.1131 110.048 42.4182V35.6078L109.008 34.615H111.968V43.1528L113.417 44.3441H110.458L110.158 43.2124C110.158 43.2124 108.418 44.5328 107.058 44.5328C105.138 44.5328 103.939 43.54 103.939 40.8694V35.6971L102.859 34.6249" fill="#333333"/>
<path d="M120.437 44.3338L121.807 43.202V38.4367C121.807 36.61 121.277 35.6768 119.767 35.6768C118.937 35.6768 118.317 36.1434 117.607 36.8284V43.1921L118.997 44.3239H114.307L115.697 43.1921V35.7563L114.307 34.5947H117.607V36.0342C118.317 35.4088 119.447 34.416 120.647 34.416C122.466 34.416 123.746 35.5577 123.746 38.2283V43.1921L125.136 44.3239" fill="#333333"/>
<path d="M129.276 35.2996C129.276 35.2996 129.296 41.564 129.296 41.842C129.336 42.8744 129.666 43.3808 130.516 43.3808C131.656 43.3808 132.556 42.7553 132.556 42.7553L132.696 42.9539C132.696 42.9539 131.596 44.5324 129.656 44.5324C127.696 44.5324 127.326 43.2517 127.326 41.8817C127.326 41.1272 127.306 35.2996 127.306 35.2996H126.086V35.0117L129.266 32.4404V34.6047H132.616V35.2897" fill="#333333"/>
<path d="M136.175 49.0002H133.355L135.705 47.521L137.375 44.1952L134.015 35.707L132.995 34.615H137.235L135.995 35.707L138.335 41.9119L140.784 35.707L139.275 34.615H142.624L141.604 35.707" fill="#333333"/>
<path d="M158.892 43.5695C158.892 43.5695 157.013 44.5424 155.093 44.5424C150.523 44.5424 148.854 40.9982 148.854 37.4143C148.854 32.7284 151.503 29.9387 155.093 29.9387C157.153 29.9387 158.742 30.6634 158.742 30.6634V33.4631L156.963 30.9116C156.963 30.9116 156.333 30.6138 155.223 30.6138C152.023 30.6138 150.983 33.6517 150.983 36.9775C150.983 41.0677 152.413 43.8474 155.213 43.8474C156.353 43.8474 157.213 43.3213 157.213 43.3213L158.882 40.5614" fill="#333333"/>
<path d="M170.211 39.3105C170.211 42.8348 167.682 44.5324 165.492 44.5324C162.552 44.5324 160.732 42.1597 160.732 39.6877C160.732 36.0045 163.532 34.3962 165.492 34.3962C168.141 34.4062 170.211 36.5605 170.211 39.3105ZM162.792 38.9928C162.792 41.7924 163.892 43.8772 165.672 43.8772C166.892 43.8772 168.141 42.7851 168.141 39.8068C168.141 37.2157 167.142 35.0813 165.282 35.0813C163.942 35.0713 162.792 36.4513 162.792 38.9928Z" fill="#333333"/>
<path d="M174.701 34.615V40.512C174.701 42.3387 175.231 43.2918 176.601 43.2918C177.09 43.2918 178.11 43.1131 178.91 42.4182V35.6078L177.87 34.615H180.83V43.1528L182.28 44.3441H179.32L179.01 43.2124C179.01 43.2124 177.28 44.5328 175.911 44.5328C173.991 44.5328 172.791 43.54 172.791 40.8694V35.6971L171.711 34.6249" fill="#333333"/>
<path d="M189.299 44.3338L190.669 43.202V38.4367C190.669 36.61 190.139 35.6768 188.629 35.6768C187.799 35.6768 187.179 36.1434 186.469 36.8284V43.1921L187.859 44.3239H183.16L184.55 43.1921V35.7563L183.16 34.5947H186.469V36.0342C187.179 35.4088 188.309 34.416 189.509 34.416C191.329 34.416 192.609 35.5577 192.609 38.2283V43.1921L193.999 44.3239" fill="#333333"/>
<path d="M199.749 44.5425C196.969 44.5425 195.259 42.418 195.259 39.5985C195.259 36.6996 197.359 34.4758 200.339 34.4758C201.629 34.4758 202.689 34.9623 202.689 34.9623V37.1563L200.279 35.3892C200.279 35.3892 200.019 35.3495 199.849 35.3495C198.359 35.3495 197.119 36.7294 197.119 39.0128C197.119 42.0507 199.039 43.1427 200.509 43.1427C201.649 43.1427 202.679 42.7357 203.209 42.3485L203.329 42.4676C202.379 43.9369 200.949 44.5425 199.749 44.5425Z" fill="#333333"/>
<path d="M207.567 43.2022L208.977 44.3339H204.287L205.677 43.2022V35.7068L204.347 34.6147H207.567M206.627 30.5344C207.317 30.5344 207.867 31.0804 207.867 31.7754C207.867 32.4604 207.317 33.0164 206.627 33.0164C205.927 33.0164 205.377 32.4703 205.377 31.7754C205.387 31.0904 205.937 30.5344 206.627 30.5344Z" fill="#333333"/>
<path d="M212.917 43.2023L214.307 44.334H209.607L210.997 43.2023V30.8622L209.677 29.7502H212.917" fill="#333333"/>
<path d="M40.5855 3.78922C24.7073 -2.19718 16.9581 0.701707 16.9581 0.701707L16.9381 4.62316C7.71916 6.61862 2.57973 3.69988 0.0100098 2.4192V39.7374C2.57973 41.0181 7.71916 43.9468 16.9381 41.9513L16.9581 38.0299C16.9581 38.0299 24.7073 35.131 40.5855 41.1174C56.2938 47.0343 64.4529 43.0037 68.2025 41.4252V4.09698C64.4529 5.67549 56.2938 9.70614 40.5855 3.78922Z" fill="#FFDD00"/>
<path d="M0.0100098 22.5327V39.7374C1.66001 40.5614 4.38001 42.0506 8.53001 42.4973V22.5327" fill="#DC1815"/>
<path d="M16.909 21.5797V4.63306C13.549 5.35778 10.729 5.42727 8.38904 5.15922V21.5797" fill="#DC1815"/>
<path d="M17.0581 20.6763V37.9902C17.5881 37.8214 20.4181 37.0272 25.5881 37.464V20.6862" fill="#DC1815"/>
<path d="M34.1072 19.3261V1.7044C30.7772 0.810908 27.9372 0.344306 25.5872 0.145752V19.336" fill="#DC1815"/>
<path d="M34.1062 22.7114V39.0127C36.0962 39.5488 38.2462 40.214 40.5862 41.0975C41.2862 41.3656 41.9562 41.584 42.6262 41.8123V22.7114" fill="#DC1815"/>
<path d="M51.1552 21.9173V6.56904C48.6152 6.22157 45.7852 5.55641 42.6252 4.49414V21.9173" fill="#DC1815"/>
<path d="M51.1543 26.4146V43.8873C54.4943 44.344 57.3043 44.2844 59.6743 43.9667V26.4146" fill="#DC1815"/>
<path d="M59.6735 23.7736H68.2035V4.09692C66.4435 4.8415 63.7035 6.11225 59.6735 6.64834" fill="#DC1815"/>
<path d="M40.5855 18.2339C26.2871 12.8531 18.348 14.65 16.9081 15.0669V18.7303L16.9281 19.0678C7.70915 21.0633 2.57972 18.1445 0 16.8539V25.2925C2.56972 26.5732 7.88913 29.4919 17.1081 27.5064L17.1181 23.575C17.1181 23.575 24.6973 20.686 40.5755 26.6625C56.2838 32.5893 64.4429 28.5488 68.1925 26.9703V18.5416C64.4529 20.1201 56.2938 24.1508 40.5855 18.2339Z" fill="#DC1815"/>
</svg>
