<svg fill="none" height="49" viewBox="0 0 272 49" width="272" xmlns="http://www.w3.org/2000/svg"><g fill="#f8f8f8"><path d="m94.9096 24.3197-11.8987-15.57658v14.01788l1.8598 1.5587h-4.7195l1.8398-1.5587v-15.1l-1.4898-1.87633h3.5996l10.3489 13.69033v-12.13168l-1.8098-1.55865h4.6695l-1.8198 1.55865v16.97638"/><path d="m111.258 17.7575c0 4.6065-3.31 6.8303-6.16 6.8303-3.839 0-6.2088-3.0974-6.2088-6.3339 0-4.8248 3.6498-6.9097 6.2088-6.9097 3.47 0 6.16 2.8096 6.16 6.4133zm-9.679-.4269c0 3.6534 1.44 6.3836 3.759 6.3836 1.6 0 3.23-1.4296 3.23-5.3213 0-3.3953-1.31-6.175-3.739-6.175-1.76 0-3.25 1.7969-3.25 5.1127z"/><path d="m113.238 11.6025h4.029v2.6507c.99-1.5685 2.16-2.6804 3.58-2.6804 1.07 0 1.81.3474 1.81.3474v3.0478l-2.8-2.2536c-.72.2879-2.59 2.1444-2.59 4.13v6.0162l1.79 1.4593h-5.999l1.789-1.4593v-9.8483"/><path d="m127.666 12.5058s.03 8.1805.03 8.5577c.05 1.3502.48 2.0154 1.6 2.0154 1.49 0 2.67-.824 2.67-.824l.19.268s-1.44 2.065-3.97 2.065c-2.56 0-3.04-1.6679-3.04-3.4648 0-.9828-.03-8.6073-.03-8.6073h-1.6v-.3673l4.16-3.36554v2.82944h4.38v.9034"/><path d="m140.875 24.3197 1.789-1.5091v-6.1948c0-2.3827-.69-3.6038-2.669-3.6038-1.09 0-2.08.6354-2.86 1.509v8.2896l1.81 1.5091h-6.11l1.79-1.5091v-16.13247l-1.71-1.42959h4.21v8.23996c.99-.953 2.43-2.1146 4-2.1146 2.369 0 4.059 1.4793 4.059 4.9837v6.463l1.79 1.509"/><path d="m151.973 11.6022v7.7039c0 2.3827.69 3.6336 2.48 3.6336.64 0 1.97-.2383 3.01-1.1417v-8.8953l-1.36-1.3005h3.869v11.1488l1.89 1.5587h-3.859l-.4-1.4793s-2.27 1.7175-4.05 1.7175c-2.51 0-4.079-1.3005-4.079-4.795v-6.7509l-1.41-1.4097"/><path d="m178.01 24.3198 1.73-1.4793v-6.4133c0-2.0649-.45-3.4151-2.16-3.4151-.989 0-1.869.7148-2.879 1.5587.06.3474.08.6651.08 1.2211v7.0486l1.73 1.4793h-5.95l1.73-1.4793v-6.4331c0-2.1444-.53-3.3953-2.19-3.3953-1.1 0-1.949.7644-2.779 1.509v8.3194l1.819 1.4793h-6.139l1.82-1.4793v-9.7986l-1.57-1.4296h4.05v1.9359s.959-.7942 1.789-1.3502c.69-.4467 1.36-.7644 2.21-.7644 1.31 0 2.64.7942 3.2 2.3032.77-.6353 1.42-1.1119 2.08-1.5586.59-.3971 1.279-.7446 2.049-.7446 2.11 0 3.63 1.509 3.63 4.3682v7.0487l1.79 1.4792"/><path d="m192.549 11.3144c2.96 0 5.279 2.6804 5.279 6.1154 0 4.2888-2.719 7.148-6.639 7.148-1.2 0-2.88-.2879-4.51-1.0325v-16.83739l-1.739-1.45937h4.239v7.38626c.01.0099 2.36-1.3204 3.37-1.3204zm-3.36 11.526s.8.7942 2.24.7942c2.4 0 3.55-2.0649 3.55-5.4304 0-3.3357-1.07-5.2418-3.49-5.2418-.83 0-1.76.2382-2.29.5559v9.3221z"/><path d="m211.037 22.0463c-1.33 1.9558-3.26 2.5415-4.86 2.5415-3.439 0-5.679-2.8592-5.679-6.4332 0-3.8916 2.56-6.8104 5.679-6.8104 2.64 0 4.96 2.1742 4.99 5.4801 0 0-4.86.0298-8.219.0298 0 .4269-.03.3475-.03.7148 0 3.6335 2.239 5.2418 4.539 5.2418.99 0 2.37-.3176 3.39-1.0622m-7.789-5.768c1.569 0 5.919-.0298 5.919-.0298-.08-1.8565-1.14-3.6335-2.96-3.6335-1.49 0-2.639 1.5189-2.959 3.6633z"/><path d="m213.147 11.6025h4.029v2.6507c.99-1.5685 2.16-2.6804 3.57-2.6804 1.07 0 1.82.3474 1.82.3474v3.0478l-2.8-2.2536c-.72.2879-2.59 2.1444-2.59 4.13v6.0162l1.79 1.4593h-6.009l1.789-1.4593v-9.8483"/><path d="m227.395 22.8404 1.81 1.4793h-6.13l1.81-1.4793v-16.13249l-1.73-1.45937h4.24"/><path d="m238.224 24.3197s-.35-1.4296-.32-1.3998c-1.17.7644-2.8 1.6678-3.68 1.6678-2.08 0-3.499-1.5586-3.499-3.3853 0-1.4296.8-2.3827 2.369-3.0478 1.76-.7446 3.55-1.1616 4.67-1.7473v-.5063c0-2.1246-.96-3.5244-2.56-3.5244-.51 0-.96.1589-.96.1589l-2.849 2.75v-2.8394s1.809-1.1119 4.379-1.1119c1.38 0 2.32.3177 2.96.8439 1.04.8438 1.49 1.9657 1.49 3.8122v6.7608l1.889 1.5586m-4.339-6.8997c-.8.3475-2.13.7644-2.75 1.0623-1.15.5261-1.79 1.2409-1.79 2.2833 0 1.5388 1.17 2.2536 2.08 2.2536.74 0 1.89-.5262 2.45-1.0623v-4.5369z"/><path d="m251.112 24.3196 1.79-1.4792v-6.2247c0-2.3827-.69-3.6038-2.67-3.6038-1.089 0-1.889.6056-2.819 1.509v8.3195l1.81 1.4792h-6.14l1.81-1.4792v-9.7193l-1.81-1.509h4.32v1.8863c.93-.824 2.4-2.1146 3.969-2.1146 2.37 0 4.05 1.4792 4.05 4.9837v6.4927l1.82 1.4792"/><path d="m272 24.3197h-3.869l-.4-1.4296s-2.03 1.638-3.71 1.638c-2.24 0-5.119-1.8763-5.119-6.1948 0-4.398 2.879-6.9693 6.539-6.9693.69 0 1.49.1291 2.13.3673v-5.05317l-1.84-1.42959h4.379v17.51246m-2.539-9.2725s-1.07-1.0622-2.67-1.0622c-1.49 0-3.25 1.1615-3.25 5.3808 0 3.5442 1.39 5.1326 3.49 5.1326 1.23 0 2.43-1.0027 2.43-1.0027z"/><path d="m90.0301 43.5695s-1.8798.9729-3.7996.9729c-4.5695 0-6.2493-3.5442-6.2493-7.1281 0-4.6859 2.6497-7.4756 6.2493-7.4756 2.0598 0 3.6496.7247 3.6496.7247v2.7997l-1.7798-2.5515s-.6299-.2978-1.7298-.2978c-3.1997 0-4.2395 3.0379-4.2395 6.3637 0 4.0902 1.4298 6.8699 4.2195 6.8699 1.1399 0 1.9998-.5261 1.9998-.5261l1.6798-2.7599"/><path d="m101.349 39.3105c0 3.5243-2.5299 5.2219-4.7196 5.2219-2.9397 0-4.7495-2.3727-4.7495-4.8447 0-3.6832 2.7997-5.2915 4.7495-5.2915 2.6497.01 4.7196 2.1643 4.7196 4.9143zm-7.4093-.3177c0 2.7996 1.0998 4.8844 2.8796 4.8844 1.2299 0 2.4698-1.0921 2.4698-4.0704 0-2.5911-.9999-4.7255-2.8597-4.7255-1.3499-.01-2.4897 1.37-2.4897 3.9115z"/><path d="m105.838 34.615v5.897c0 1.8267.53 2.7798 1.9 2.7798.49 0 1.51-.1787 2.31-.8736v-6.8104l-1.04-.9928h2.96v8.5378l1.449 1.1913h-2.959l-.3-1.1317s-1.74 1.3204-3.1 1.3204c-1.92 0-3.119-.9928-3.119-3.6634v-5.1723l-1.08-1.0722"/><path d="m120.437 44.3338 1.37-1.1318v-4.7653c0-1.8267-.53-2.7599-2.04-2.7599-.83 0-1.45.4666-2.16 1.1516v6.3637l1.39 1.1318h-4.69l1.39-1.1318v-7.4358l-1.39-1.1616h3.3v1.4395c.71-.6254 1.84-1.6182 3.04-1.6182 1.819 0 3.099 1.1417 3.099 3.8123v4.9638l1.39 1.1318"/><path d="m129.276 35.2996s.02 6.2644.02 6.5424c.04 1.0324.37 1.5388 1.22 1.5388 1.14 0 2.04-.6255 2.04-.6255l.14.1986s-1.1 1.5785-3.04 1.5785c-1.96 0-2.33-1.2807-2.33-2.6507 0-.7545-.02-6.5821-.02-6.5821h-1.22v-.2879l3.18-2.5713v2.1643h3.35v.685"/><path d="m136.175 49.0002h-2.82l2.35-1.4792 1.67-3.3258-3.36-8.4882-1.02-1.092h4.24l-1.24 1.092 2.34 6.2049 2.449-6.2049-1.509-1.092h3.349l-1.02 1.092"/><path d="m158.892 43.5695s-1.879.9729-3.799.9729c-4.57 0-6.239-3.5442-6.239-7.1281 0-4.6859 2.649-7.4756 6.239-7.4756 2.06 0 3.649.7247 3.649.7247v2.7997l-1.779-2.5515s-.63-.2978-1.74-.2978c-3.2 0-4.24 3.0379-4.24 6.3637 0 4.0902 1.43 6.8699 4.23 6.8699 1.14 0 2-.5261 2-.5261l1.669-2.7599"/><path d="m170.211 39.3105c0 3.5243-2.529 5.2219-4.719 5.2219-2.94 0-4.76-2.3727-4.76-4.8447 0-3.6832 2.8-5.2915 4.76-5.2915 2.649.01 4.719 2.1643 4.719 4.9143zm-7.419-.3177c0 2.7996 1.1 4.8844 2.88 4.8844 1.22 0 2.469-1.0921 2.469-4.0704 0-2.5911-.999-4.7255-2.859-4.7255-1.34-.01-2.49 1.37-2.49 3.9115z"/><path d="m174.701 34.615v5.897c0 1.8267.53 2.7798 1.9 2.7798.489 0 1.509-.1787 2.309-.8736v-6.8104l-1.04-.9928h2.96v8.5378l1.45 1.1913h-2.96l-.31-1.1317s-1.73 1.3204-3.099 1.3204c-1.92 0-3.12-.9928-3.12-3.6634v-5.1723l-1.08-1.0722"/><path d="m189.299 44.3338 1.37-1.1318v-4.7653c0-1.8267-.53-2.7599-2.04-2.7599-.83 0-1.45.4666-2.16 1.1516v6.3637l1.39 1.1318h-4.699l1.39-1.1318v-7.4358l-1.39-1.1616h3.309v1.4395c.71-.6254 1.84-1.6182 3.04-1.6182 1.82 0 3.1 1.1417 3.1 3.8123v4.9638l1.39 1.1318"/><path d="m199.749 44.5425c-2.78 0-4.49-2.1245-4.49-4.944 0-2.8989 2.1-5.1227 5.08-5.1227 1.29 0 2.35.4865 2.35.4865v2.194l-2.41-1.7671s-.26-.0397-.43-.0397c-1.49 0-2.73 1.3799-2.73 3.6633 0 3.0379 1.92 4.1299 3.39 4.1299 1.14 0 2.17-.407 2.7-.7942l.12.1191c-.95 1.4693-2.38 2.0749-3.58 2.0749z"/><path d="m207.567 43.2022 1.41 1.1317h-4.69l1.39-1.1317v-7.4954l-1.33-1.0921h3.22m-.94-4.0803c.69 0 1.24.546 1.24 1.241 0 .685-.55 1.241-1.24 1.241-.7 0-1.25-.5461-1.25-1.241.01-.685.56-1.241 1.25-1.241z"/><path d="m212.917 43.2023 1.39 1.1317h-4.7l1.39-1.1317v-12.3401l-1.32-1.112h3.24"/></g><path d="m40.5855 3.78922c-15.8782-5.9864-23.6274-3.087513-23.6274-3.087513l-.02 3.921453c-9.21894 1.99546-14.35837-.92328-16.9280902-2.20396v37.3182c2.5697202 1.2807 7.7091502 4.2094 16.9280902 2.2139l.02-3.9214s7.7492-2.8989 23.6274 3.0875c15.7083 5.9169 23.8674 1.8863 27.617.3078v-37.32822c-3.7496 1.57851-11.9087 5.60916-27.617-.30776z" fill="#fd0"/><path d="m.0100098 22.5327v17.2047c1.6500002.824 4.3700002 2.3132 8.5200002 2.7599v-19.9646" fill="#dc1815"/><path d="m16.909 21.5797v-16.94664c-3.36.72472-6.18.79421-8.51996.52616v16.42048" fill="#dc1815"/><path d="m17.0581 20.6763v17.3139c.53-.1688 3.36-.963 8.53-.5262v-16.7778" fill="#dc1815"/><path d="m34.1072 19.3261v-17.6217c-3.33-.893492-6.17-1.360094-8.52-1.558648v19.190248" fill="#dc1815"/><path d="m34.1062 22.7114v16.3013c1.99.5361 4.14 1.2013 6.48 2.0848.7.2681 1.37.4865 2.04.7148v-19.1009" fill="#dc1815"/><path d="m51.1552 21.9173v-15.34826c-2.54-.34747-5.37-1.01263-8.53-2.0749v17.42316" fill="#dc1815"/><path d="m51.1543 26.4146v17.4727c3.34.4567 6.15.3971 8.52.0794v-17.5521" fill="#dc1815"/><path d="m59.6735 23.7736h8.53v-19.67668c-1.76.74458-4.5 2.01533-8.53 2.55142" fill="#dc1815"/><path d="m40.5855 18.2339c-14.2984-5.3808-22.2375-3.5839-23.6774-3.167v3.6634l.02.3375c-9.21895 1.9955-14.34838-.9233-16.9281-2.2139v8.4386c2.56972 1.2807 7.88913 4.1994 17.1081 2.2139l.01-3.9314s7.5792-2.889 23.4574 3.0875c15.7083 5.9268 23.8674 1.8863 27.617.3078v-8.4287c-3.7396 1.5785-11.8987 5.6092-27.607-.3077z" fill="#dc1815"/></svg>