<?xml version="1.0" encoding="utf-8"?>
<!-- Generator: Adobe Illustrator 16.2.1, SVG Export Plug-In . SVG Version: 6.00 Build 0)  -->
<!DOCTYPE svg PUBLIC "-//W3C//DTD SVG 1.1//EN" "http://www.w3.org/Graphics/SVG/1.1/DTD/svg11.dtd">
<svg version="1.1" xmlns="http://www.w3.org/2000/svg" xmlns:xlink="http://www.w3.org/1999/xlink" x="0px" y="0px" width="640px"
	 height="640px" viewBox="0 0 640 640" style="enable-background:new 0 0 640 640;" xml:space="preserve">
     <g id="grid">

     	<g style="opacity:0.2;">

     		<g>

     			<path style="fill:none;stroke:#FFFFFF;stroke-width:2;stroke-miterlimit:10;" d="M320,640C143.125,640,0,496.875,0,320

     				S143.125,0,320,0s320,143.125,320,320S496.875,640,320,640z"/>

     			<path style="fill:none;stroke:#FFFFFF;stroke-width:2;stroke-miterlimit:10;" d="M586.719,320

     				c0-147.344-119.375-266.719-266.719-266.719S53.281,172.656,53.281,320S172.656,586.719,320,586.719S586.719,467.344,586.719,320

     				z"/>

     			<path style="fill:none;stroke:#FFFFFF;stroke-width:2;stroke-miterlimit:10;" d="M320,533.281

     				c-117.969,0-213.281-95.312-213.281-213.281S202.031,106.719,320,106.719S533.281,202.031,533.281,320

     				S437.969,533.281,320,533.281z"/>

     			<path style="fill:none;stroke:#FFFFFF;stroke-width:2;stroke-miterlimit:10;" d="M480,320c0-88.438-71.562-160-160-160

     				s-160,71.562-160,160s71.562,160,160,160S480,408.438,480,320z"/>

     			<path style="fill:none;stroke:#FFFFFF;stroke-width:2;stroke-miterlimit:10;" d="M320,426.719

     				c-58.906,0-106.719-47.812-106.719-106.719S261.094,213.281,320,213.281S426.719,261.094,426.719,320

     				S378.906,426.719,320,426.719z"/>

     			<path style="fill:none;stroke:#FFFFFF;stroke-width:2;stroke-miterlimit:10;" d="M373.281,320

     				c0-29.531-23.75-53.281-53.281-53.281s-53.281,23.75-53.281,53.281s23.75,53.281,53.281,53.281S373.281,349.531,373.281,320z"/>

     		</g>

     		<g>

     			<line style="fill:none;stroke:#FFFFFF;stroke-width:2;stroke-miterlimit:10;" x1="320" y1="320" x2="320" y2="640"/>

     			<line style="fill:none;stroke:#FFFFFF;stroke-width:2;stroke-miterlimit:10;" x1="320" y1="320" x2="546.25" y2="546.25"/>

     			<line style="fill:none;stroke:#FFFFFF;stroke-width:2;stroke-miterlimit:10;" x1="320" y1="320" x2="640" y2="320"/>

     			<line style="fill:none;stroke:#FFFFFF;stroke-width:2;stroke-miterlimit:10;" x1="320" y1="320" x2="546.25" y2="93.75"/>

     			<line style="fill:none;stroke:#FFFFFF;stroke-width:2;stroke-miterlimit:10;" x1="320" y1="320" x2="320" y2="0"/>

     			<line style="fill:none;stroke:#FFFFFF;stroke-width:2;stroke-miterlimit:10;" x1="320" y1="320" x2="93.75" y2="93.75"/>

     			<line style="fill:none;stroke:#FFFFFF;stroke-width:2;stroke-miterlimit:10;" x1="320" y1="320" x2="0" y2="320"/>

     			<line style="fill:none;stroke:#FFFFFF;stroke-width:2;stroke-miterlimit:10;" x1="320" y1="320" x2="93.75" y2="546.25"/>

     		</g>

     	</g>

     </g>
<g id="scanline">
    <animateTransform attributeName="transform" type="rotate" from="0 320 320" to="360 320 320" dur="8s" repeatDur="indefinite"/>
	<g>
		<circle style="opacity:0.02;" cx="320" cy="320" r="320"/>
		<g>
			<g>
				<g>
					
						<linearGradient id="SVGID_2_" gradientUnits="userSpaceOnUse" x1="-6182.6855" y1="-2381.0669" x2="-6296.6851" y2="-2342.0669" gradientTransform="matrix(7.605851e-04 -1 1 7.605851e-04 2534.6816 -5869.9629)">
						<stop  offset="0" style="stop-color:#FFFFFF;stop-opacity:0.2"/>
						<stop  offset="1" style="stop-color:#FFFFFF;stop-opacity:0"/>
					</linearGradient>
					<path style="fill:url(#SVGID_2_);" d="M62.248,508.312l258.947-188.126L1.194,319.943
						C1.141,390.377,23.799,455.464,62.248,508.312z"/>
				</g>
			</g>
			
				<line style="opacity:0.5;fill:none;stroke:#FFFFFF;stroke-width:4;stroke-miterlimit:10;" x1="1.194" y1="319.943" x2="321.195" y2="320.186"/>
		</g>
	</g>
</g>
<g id="logo">
	<g>
		<path style="fill:#FFECB5;" d="M320.005,208.692c-61.608,0-111.71,49.705-111.71,110.799s50.102,110.816,111.71,110.816
			c61.588,0,111.7-49.723,111.7-110.816S381.594,208.692,320.005,208.692 M320.005,407.114c-15.682,0-30.407-4.085-43.194-11.218
			l39.83-40.678c0.189-0.189,0.315-0.415,0.496-0.604c3.246,0.812,6.564,1.344,10.046,1.344
			c23.346,0.072,42.301-18.639,42.363-41.778c0.037-3.697-0.596-7.214-1.496-10.658l-22.256,21.948l-24.6-5.284l-5.185-24.446
			l22.3-21.967c-3.473-0.965-7.078-1.642-10.875-1.642c-23.32-0.054-42.301,18.612-42.365,41.778
			c-0.009,4.915,0.975,9.559,2.525,13.95l-40.381,41.22c-9.793-14.104-15.555-31.184-15.555-49.579
			c0-48.315,39.632-87.623,88.345-87.623c48.704,0,88.327,39.308,88.327,87.623C408.34,367.816,368.709,407.114,320.005,407.114"/>
		<path style="fill:#FFCF47;" d="M320.005,407.114c-15.682,0-30.407-4.085-43.194-11.218l39.83-40.678
			c0.189-0.189,0.315-0.415,0.496-0.604c3.246,0.812,6.564,1.344,10.046,1.344c23.346,0.072,42.301-18.639,42.363-41.778
			c0.037-3.697-0.596-7.214-1.496-10.658l-22.256,21.948l-24.6-5.284l-5.185-24.446l22.3-21.967
			c-3.473-0.965-7.078-1.642-10.875-1.642c-23.32-0.054-42.301,18.612-42.365,41.778c-0.009,4.915,0.975,9.559,2.525,13.95
			l-40.381,41.22c-9.793-14.104-15.555-31.184-15.555-49.579c0-48.315,39.632-87.623,88.345-87.623
			c48.704,0,88.327,39.308,88.327,87.623C408.34,367.816,368.709,407.114,320.005,407.114"/>
	</g>
	<g style="opacity:0.8;">
		<path style="fill:#FFFFFF;" d="M228.918,458.629h14.008v3.637h-9.578v6.699h8.932v3.637h-8.932V482.9h-4.43V458.629z"/>
		<path style="fill:#FFFFFF;" d="M250.988,460.465c0,1.332-0.971,2.377-2.52,2.377c-1.477,0-2.447-1.045-2.447-2.377
			c0-1.367,1.008-2.414,2.482-2.414C250.018,458.051,250.953,459.098,250.988,460.465z M246.271,482.9v-17.537h4.463v17.539h-4.463
			V482.9z"/>
		<path style="fill:#FFFFFF;" d="M258.441,465.363l2.088,3.312c0.576,0.938,1.08,1.801,1.584,2.703h0.107
			c0.504-0.973,1.01-1.875,1.514-2.773l1.945-3.242h4.824l-5.871,8.426l5.979,9.113h-5.006l-2.16-3.492
			c-0.576-0.938-1.082-1.875-1.586-2.846h-0.072c-0.504,1.008-1.008,1.873-1.584,2.846l-2.016,3.492h-4.898l6.086-8.932
			l-5.871-8.607H258.441z"/>
		<path style="fill:#FFFFFF;" d="M293.941,472.996c-0.145-3.133-0.324-6.914-0.289-10.227h-0.109
			c-0.793,2.99-1.801,6.266-2.879,9.328l-3.531,10.516h-3.42l-3.242-10.371c-0.936-3.096-1.799-6.41-2.447-9.469h-0.072
			c-0.111,3.205-0.252,7.057-0.434,10.371l-0.541,9.758h-4.141l1.621-24.273h5.834l3.17,9.76c0.863,2.844,1.621,5.725,2.232,8.426
			h0.107c0.648-2.627,1.477-5.619,2.412-8.463l3.35-9.723h5.762l1.406,24.273h-4.32L293.941,472.996z"/>
		<path style="fill:#FFFFFF;" d="M305.742,465.363l3.168,9.398c0.361,1.08,0.723,2.414,0.973,3.422h0.109
			c0.291-1.008,0.615-2.305,0.938-3.457l2.734-9.363h4.754l-4.393,11.955c-2.41,6.553-4.033,9.471-6.123,11.271
			c-1.727,1.549-3.527,2.125-4.645,2.27l-1.008-3.746c0.754-0.18,1.693-0.574,2.594-1.223c0.828-0.541,1.801-1.584,2.41-2.773
			c0.182-0.324,0.291-0.574,0.291-0.791c0-0.18-0.037-0.432-0.254-0.865l-6.406-16.098H305.742z"/>
		<path style="fill:#FFFFFF;" d="M321.043,478.074c1.438,0.828,3.602,1.547,5.867,1.547c2.848,0,4.43-1.332,4.43-3.311
			c0-1.838-1.221-2.916-4.318-4.033c-3.996-1.441-6.555-3.566-6.555-7.059c0-3.961,3.312-6.986,8.57-6.986
			c2.627,0,4.574,0.576,5.836,1.225l-1.082,3.566c-0.865-0.469-2.553-1.152-4.824-1.152c-2.807,0-4.037,1.512-4.037,2.914
			c0,1.873,1.406,2.738,4.645,4c4.215,1.582,6.27,3.707,6.27,7.201c0,3.889-2.953,7.311-9.217,7.311
			c-2.557,0-5.221-0.758-6.553-1.549L321.043,478.074z"/>
		<path style="fill:#FFFFFF;" d="M344.59,460.863v4.5h4.209v3.312h-4.209v7.742c0,2.125,0.574,3.242,2.266,3.242
			c0.828,0,1.227-0.072,1.73-0.215l0.07,3.383c-0.648,0.252-1.801,0.469-3.205,0.469c-1.623,0-2.988-0.576-3.816-1.477
			c-0.938-1.008-1.373-2.594-1.373-4.898v-8.246h-2.52v-3.312h2.52v-3.242L344.59,460.863z"/>
		<path style="fill:#FFFFFF;" d="M352.145,471.016c0-2.375-0.035-4.07-0.145-5.652h3.857l0.143,3.348h0.141
			c0.867-2.484,2.918-3.746,4.793-3.746c0.43,0,0.684,0.035,1.043,0.107v4.176c-0.361-0.072-0.76-0.143-1.297-0.143
			c-2.125,0-3.566,1.367-3.961,3.348c-0.07,0.395-0.145,0.863-0.145,1.369v9.074h-4.43V471.016z"/>
		<path style="fill:#FFFFFF;" d="M367.77,475.375c0.109,3.168,2.594,4.537,5.402,4.537c2.053,0,3.527-0.291,4.863-0.791l0.648,3.059
			c-1.516,0.613-3.602,1.117-6.125,1.117c-5.688,0-9.039-3.527-9.039-8.893c0-4.861,2.953-9.436,8.57-9.436
			c5.727,0,7.562,4.682,7.562,8.535c0,0.828-0.07,1.477-0.141,1.875H367.77V475.375z M375.477,472.277
			c0.035-1.621-0.684-4.285-3.637-4.285c-2.736,0-3.889,2.484-4.068,4.285H375.477z"/>
		<path style="fill:#FFFFFF;" d="M386.348,475.375c0.105,3.168,2.59,4.537,5.402,4.537c2.049,0,3.527-0.291,4.859-0.791l0.648,3.059
			c-1.512,0.613-3.602,1.117-6.123,1.117c-5.691,0-9.041-3.527-9.041-8.893c0-4.861,2.955-9.436,8.57-9.436
			c5.727,0,7.562,4.682,7.562,8.535c0,0.828-0.074,1.477-0.145,1.875h-11.734V475.375z M394.055,472.277
			c0.035-1.621-0.688-4.285-3.641-4.285c-2.734,0-3.885,2.484-4.064,4.285H394.055z"/>
		<path style="fill:#FFFFFF;" d="M406.867,460.863v4.5h4.215v3.312h-4.215v7.742c0,2.125,0.578,3.242,2.27,3.242
			c0.828,0,1.223-0.072,1.727-0.215l0.074,3.383c-0.648,0.252-1.801,0.469-3.207,0.469c-1.623,0-2.988-0.576-3.816-1.477
			c-0.939-1.008-1.369-2.594-1.369-4.898v-8.246h-2.523v-3.312h2.523v-3.242L406.867,460.863z"/>
	</g>
</g>
</svg>
