<svg xmlns="http://www.w3.org/2000/svg" width="91" height="84"><g fill="#FFF"><path d="M57.7 22.7h2.5l.7-2.8 4.7-1.3-1 4h3l-.8 3.2h-3.2l-1 3.6c-.2 1-.4 1.7-.4 2.3-.1.9.4 1.4 1.3 1.4.5 0 1-.2 1.4-.3l-.6 3-2.8.2c-2.2 0-4-1.1-3.7-3.9 0-.6.1-1.3.5-2.6l1-3.7h-2.4l.8-3.1zM35.7 33c-1 0-1.5-.7-1.4-1.3 0-1.2 1.6-2 3.7-1.9l1.2.1c-.5 1.8-1.7 3-3.5 3M39 22.5c-1.9 0-3.2.3-4.4.6l-1 3.4c1.6-.8 2.6-1 4.2-1 1.4 0 2.3.7 2.2 1.7v.5l-2.4-.1c-3.8 0-7 1.5-7.2 4.7-.2 2.5 1.2 3.8 4 3.8 1.7 0 3.3-.6 4.3-2.1l-.2 1.8h3.6c.7-4 2-6.8 2-8.9.3-3.2-2.1-4.4-5.1-4.4m13.1 0c-3 0-6.4 1.2-6.6 4.3-.3 4.2 5 3.3 4.9 5.1 0 1.1-1.8 1.2-2.5 1.2-1.2 0-2.4-.3-3.5-.7l-.8 3.1c1.4.3 3.2.6 5 .6 3.3 0 6-1.7 6.2-4.9.2-3.2-5.3-3.1-5.2-4.6 0-.9 1.2-1.1 2.1-1.1 1.3 0 2.4.2 3.5.7V26l.8-2.8c-1.5-.5-2.9-.7-3.9-.7M20.6 18.3h12.2l-.8 3.3h-7.8l-1 3.6h7.4l-.9 3.3h-7.4l-1 3.9h8l-.8 3.3H15.9zM5 38.1h4.6L8 44.8h5.4L15 38h4.5L15 55.5h-4.6l2-7.4H7l-2 7.4H.5zM27.4 47.8H22a3.5 3.5 0 0 1 3.4-2.6c1.6 0 2 1.2 2 2.6m-1.5-5.6c-5.7 0-7.9 4.7-8 7.7-.3 3.3 1.9 6 6 6 1.3 0 2.9-.3 4.4-.7L29 52a10 10 0 0 1-4 .8c-2.6 0-3.2-1-3.2-2.5h9l.5-2.4c.2-4-2.2-5.7-5.5-5.7m33.7 0c-3 0-6.5 1.3-6.7 4.3-.2 4.3 5 3.3 5 5.2-.1 1-1.9 1.1-2.6 1.1-1.2 0-2.4-.2-3.4-.7l-.8 3.1c1.3.4 3.2.6 5 .6 3.2 0 6-1.6 6.2-4.8.2-3.3-5.3-3.2-5.2-4.7 0-.8 1.1-1 2-1 1.4 0 2.5.2 3.5.6l.1-.1.7-2.9c-1.4-.4-2.8-.7-3.8-.7m-18.1 0c-1.8 0-3.3 1.5-4.1 3l.6-2.7h-4.1l-.7 3.4-2.6 9.6H35l1.6-6C37 47.6 38.2 46 40 46c.5 0 1 0 1.5.2l1-3.8-1.1-.2m7.6 3.5h3.1l.8-3.2h-3l1-4-4.6 1.2-.8 2.8h-2.2l-.9 3.2h2.2l-1 3.6a13 13 0 0 0-.5 2.7c-.2 2.7 1.5 3.8 3.8 3.8.8 0 1.6 0 2.5-.2l.8-3c-.5.2-1 .4-1.4.4-.8 0-1.4-.6-1.3-1.5 0-.6.2-1.2.5-2.2l1-3.6zM25 59.5c-.5-.3-1-.3-1.5-.3-1.7 0-2.4 1.1-2.5 2.3 0 1 .6 1.6 1.6 1.6.6 0 1.1-.1 1.6-.3l-.3 1.3-1.6.2c-2 0-3-1.1-3-2.8.2-2 1.7-3.5 4-3.5 1.2 0 1.8.2 2.2.3l-.5 1.2zm3.3 1.1c-.8 0-1.3.9-1.3 1.6 0 .6.2 1 .7 1 .8 0 1.3-.6 1.4-1.6 0-.5-.2-1-.8-1m-.7 3.7c-1.7 0-2.4-1-2.3-2 .1-1.7 1.4-2.8 3.2-2.8 1.5 0 2.3 1 2.2 2-.1 2-1.4 2.8-3.1 2.8m8.8-1.3l-.3 1.2h-1.4l.1-.7c-.5.5-1 .8-1.8.8-1 0-1.4-.7-1.3-1.6l.1-1 .6-2H34l-.5 2-.2.8c0 .2.2.5.6.5.7 0 1.1-.6 1.3-1.3l.6-2h1.5l-.9 3.3zm2.1-2.2l.3-1.2h1.5l-.2.8c.5-.5 1-.9 1.9-.9.9 0 1.3.7 1.3 1.6l-.2 1-.6 2.1H41l.6-2.1.1-.7c0-.3-.1-.6-.6-.6-.6 0-1 .6-1.2 1.3l-.6 2.1h-1.6l1-3.4zm9.2 3.3c-.4.2-.8.2-1.4.2-1.3 0-2.1-1-2-2 0-1.6 1.3-2.8 3.1-2.8.4 0 1 .1 1.4.3l-.4 1.1-1-.2c-.8 0-1.4.5-1.5 1.5 0 .5.4 1 1 1l1-.2-.2 1.1zm3-6.4h1.6L52 59h-1.6l.3-1.2zm-.5 2h1.6l-1.3 4.5H49l1.3-4.6zM54.1 57.6h1.6L54 64.2h-1.6zM77.2 25.6c.3-.2.6-.3 1.5-.3h4.2c.4 0 1.4.1 1.8.6 1 1.3 1 4 1.2 4.4.1.2-.3.7-.4 1-.2.2-.5.7 0 1.2s.5.9.5 1.3.1 1.2 1 1c.8-.2 2.5-.3 2.4.5 0 .9.8 1.8 1 2 .3.3 1.2 1 0 1.4-1.2.4-1.5 1-1.5 1.4 0 .4 0 1.4.7 1.6.8.3.4 1.2-.3 1.7-.6.6-3.7 3.9-5 4.3-1.4.4-3.3 1-4 1-.8-.2-1.8-.2-2.1.2-.4.3-.3 1-1 .8-.8-.2-1 .2-1.3.8-.3.6 0 2-.8 2.2L73 53c-.6.1-.9.2-1-.3-.9.3-1.6.8-2-.3-.3-1-.4-2.6-.9-3-.5-.3-2-1.5-1.5-2.2.5-.8.3-.6 0-1.1-.4-.5-1.1-1-.9-1.7.3-.7.4-.9 0-1.4-.3-.5-.2-1-.2-2 0-.8-.4-1.9.3-2.1.7-.3.4-.7.3-1.4-.2-.7-1.1-2.2-.7-3.1.4-1 .8-2 1.5-2s.8-.3.8-1c0-.5.5-.8 1.2-1.2.6-.4 2-2 2.7-1.6.6.4.8-.3.6-1-.1-.5-.2-.5.3-1l1.3-1.3c.2-.3.7-.4 1 0 .2 0 1 .7 1.4.3"/><path d="M78.9 48.4v.5c.1.3.2 1.1 0 1.3h.1c-.5.3-2.9 3-2.2 4.4.6 1.2.1 2.6 0 3.2-.3.5-1.4 1.2-2.1 1-1-.2-4.6-.4-5.5.3a29 29 0 0 0-4.2 3.7c-.5.8-1.6 2-3 1.7a3 3 0 0 0-3 .7l-2.6 2.1v.1l-.9.9c-.6.7-.7.8-1.2.7-1.8-.4-2.9.2-4 1.2l-.4.3c-1.1 1-2.2 1.8-2.8 1.3a11 11 0 0 1-2.2-2.2l-.2-.3c-.2-.2-.3-.3-.1-1.1 0-.9.1-2-1.1-2.8a.8.8 0 0 0-.9 1.5c.2.1.4.2.3 1-.2 1.4 0 1.9.5 2.5l.1.2c.5.6 1 1.3 2.6 2.6 1.7 1.4 3.7-.4 4.9-1.4l.4-.3c1-.9 1.6-1 2.6-.9 1.5.3 2.1-.4 2.8-1.2l.7-.8s1.9-1.4 2.7-2.2c.3-.4.8-.5 1.3-.3 1.8.5 3.6-.3 5-2.4a30.4 30.4 0 0 1 3.6-3.2c.5-.2 3.1-.3 4.2 0 1.5.3 3.5-.7 4-2.1.4-1 .8-2.8 0-4.5v.1c0-.4 1.2-2 1.6-2.3h-.1c1.2-.6 1-2 .8-3v-.5a.8.8 0 0 0-1.7.2m-14.2-31l.8-.5c.7 0 1.9.4 2.4 1.1l.3.4c.6 1 1.6 2.5 3.3 2.4l2.3-.3 2.5-.3c.6 0 1.2-.2 1.7-.4l.8-.3a.2.2 0 0 1-.2 0l.7 1c.8 1.4 1.6 2.6 2.2 4 .4.9 0 2.2-.3 3.5a.8.8 0 1 0 1.7.4c.4-1.6.7-3.2.2-4.5-.7-1.5-1.5-2.9-2.3-4.2l-.7-1.1c-.7-1.2-2-.7-2.8-.4-.3.2-.7.3-1 .3l-2.8.3-2.1.3c-.7 0-1.3-.9-1.8-1.6l-.4-.5a4.9 4.9 0 0 0-3.9-1.8c-.5 0-1 .3-1.6.7-.4.3-.4.9-.2 1.2.3.4.9.5 1.2.2"/><path d="M18.3 14.7a38.6 38.6 0 0 1 57 2.2c.8-.3 2-.6 3-.7A42.2 42.2 0 0 0 45.7.6c-20.8 0-38 15.3-41 35.2h2.7c1.3-8 5-15.3 10.8-21.1M83.8 50a39 39 0 0 1-73.6 7.7h-3a41.5 41.5 0 0 0 68 13.8 41.2 41.2 0 0 0 11.7-23.1 6 6 0 0 1-3 1.6"/></g></svg>