<svg xmlns="http://www.w3.org/2000/svg" xmlns:xlink="http://www.w3.org/1999/xlink" xmlns:serif="http://www.serif.com/" width="100%" height="100%" viewBox="0 0 150 45" version="1.1" xml:space="preserve" style="fill-rule:evenodd;clip-rule:evenodd;">
    <g transform="matrix(0.915854,0,0,0.915854,-164.352,-78.7573)">
        <g>
            <path d="M227.977,93.827C226.272,92.844 224.6,92.37 222.895,92.37C219.42,92.37 216.59,95.081 216.59,98.503C216.59,106.127 227.044,103.247 227.044,109.82C227.044,112.43 225.018,114.43 222.413,114.43C220.707,114.43 219.324,113.819 216.879,111.955L216.879,114.056C218.809,115.412 220.707,116.09 222.508,116.09C226.08,116.09 228.877,113.31 228.877,109.753C228.877,101.654 218.423,104.602 218.423,98.435C218.423,95.928 220.417,94.03 223.055,94.03C224.568,94.03 225.725,94.436 227.977,95.792L227.977,93.827Z" style="fill:white;fill-rule:nonzero;"/>
            <path d="M233.267,92.675L231.723,92.675L231.723,115.785L233.267,115.785L233.267,105.111C234.586,102.943 235.872,101.858 237.996,101.858C240.762,101.858 241.92,103.823 241.92,107.11L241.92,115.785L243.464,115.785L243.464,106.466C243.464,102.4 241.18,100.266 238.092,100.266C236.001,100.266 234.683,101.078 233.331,103.213L233.267,103.213L233.267,92.675Z" style="fill:white;fill-rule:nonzero;"/>
            <path d="M256.025,102.06C254.609,100.739 253.709,100.265 252.712,100.265C251.103,100.265 249.366,101.722 247.661,104.568L247.596,104.568L247.596,100.569L246.052,100.569L246.052,115.785L247.596,115.785L247.596,106.228C249.172,103.415 250.813,101.857 252.229,101.857C253.033,101.857 253.741,102.263 255.124,103.585L256.025,102.06Z" style="fill:white;fill-rule:nonzero;"/>
            <path d="M269.462,108.194C269.462,111.819 267.017,114.497 263.769,114.497C260.487,114.497 258.042,111.819 258.042,108.194C258.042,104.534 260.487,101.857 263.769,101.857C267.017,101.857 269.462,104.568 269.462,108.194M271.102,108.194C271.102,103.653 267.983,100.265 263.769,100.265C259.554,100.265 256.401,103.653 256.401,108.194C256.401,112.701 259.554,116.09 263.769,116.09C267.983,116.09 271.102,112.701 271.102,108.194" style="fill:white;"/>
            <path d="M275.093,102.975C276.606,102.128 277.602,101.857 278.89,101.857C282.364,101.857 284.872,104.534 284.872,108.261C284.872,111.989 282.557,114.496 279.082,114.496C277.635,114.496 276.573,114.192 275.093,113.344L275.093,102.975ZM275.093,100.569L273.55,100.569L273.55,123.669L275.093,123.669L275.093,114.937C276.734,115.785 277.924,116.089 279.371,116.089C283.424,116.089 286.577,112.599 286.577,108.125C286.577,103.585 283.553,100.265 279.436,100.265C277.924,100.265 276.734,100.569 275.093,101.416L275.093,100.569Z" style="fill:white;"/>
            <path d="M297.538,101.553C296.09,100.672 294.932,100.266 293.677,100.266C291.072,100.266 289.014,102.095 289.014,104.433C289.014,109.313 296.508,108.228 296.508,111.854C296.508,113.412 295.222,114.497 293.453,114.497C292.069,114.497 290.814,114.124 288.916,113.108L288.916,114.7C290.396,115.65 291.779,116.09 293.259,116.09C295.93,116.09 297.988,114.26 297.988,111.888C297.988,106.602 290.492,107.991 290.492,104.331C290.492,102.874 291.844,101.756 293.581,101.756C294.867,101.756 295.93,102.197 297.538,103.315L297.538,101.553Z" style="fill:white;fill-rule:nonzero;"/>
            <path d="M301.875,92.675L300.33,92.675L300.33,115.785L301.875,115.785L301.875,105.111C303.193,102.943 304.48,101.858 306.604,101.858C309.37,101.858 310.527,103.823 310.527,107.11L310.527,115.785L312.072,115.785L312.072,106.466C312.072,102.4 309.788,100.266 306.699,100.266C304.609,100.266 303.29,101.078 301.939,103.213L301.875,103.213L301.875,92.675Z" style="fill:white;fill-rule:nonzero;"/>
            <path d="M316.285,94.942L314.741,94.942L314.741,97.72L316.285,97.72L316.285,94.942ZM316.285,100.569L314.741,100.569L314.741,115.785L316.285,115.785L316.285,100.569Z" style="fill:white;"/>
            <path d="M329.57,102.06C328.155,100.739 327.255,100.265 326.257,100.265C324.648,100.265 322.912,101.722 321.207,104.568L321.142,104.568L321.142,100.569L319.598,100.569L319.598,115.785L321.142,115.785L321.142,106.228C322.718,103.415 324.359,101.857 325.775,101.857C326.579,101.857 327.287,102.263 328.67,103.585L329.57,102.06Z" style="fill:white;fill-rule:nonzero;"/>
            <path d="M332.038,106.297C332.585,103.518 334.451,101.858 336.831,101.858C339.309,101.858 340.852,103.315 341.398,106.297L332.038,106.297ZM343.233,107.618C343.233,102.535 339.92,100.266 336.831,100.266C333.004,100.266 330.204,103.518 330.204,107.991C330.204,112.701 333.228,116.09 337.41,116.09C339.501,116.09 341.27,115.445 342.976,114.057L342.976,112.227C341.109,113.819 339.533,114.497 337.603,114.497C334.322,114.497 331.394,111.515 331.846,107.618L343.233,107.618Z" style="fill:white;"/>
            <path d="M297.388,122.116C296.159,121.504 295.107,121.228 293.951,121.228C291.67,121.228 289.974,122.616 289.974,124.492C289.974,126.405 291.612,127.73 294.01,127.73C295.136,127.73 296.364,127.393 297.491,126.767L297.491,128.106C296.511,128.544 295.444,128.856 293.878,128.856C290.135,128.856 288.497,126.392 288.497,124.604C288.497,122.004 290.793,120.102 293.966,120.102C294.99,120.102 296.028,120.315 297.388,120.803L297.388,122.116Z" style="fill:white;fill-rule:nonzero;"/>
            <path d="M301.76,125.88C301.76,127.068 302.623,127.856 303.881,127.856C305.255,127.856 306.118,127.106 306.118,125.893C306.118,124.805 305.183,124.017 303.881,124.017C302.653,124.017 301.76,124.805 301.76,125.88M307.448,125.88C307.448,127.655 306.001,128.857 303.895,128.857C301.877,128.857 300.43,127.606 300.43,125.88C300.43,124.267 301.936,123.017 303.895,123.017C305.957,123.017 307.448,124.217 307.448,125.88" style="fill:white;fill-rule:nonzero;"/>
            <path d="M314.5,128.743L314.5,128.03C313.959,128.531 313.199,128.856 312.555,128.856C311.225,128.856 310.289,128.043 310.289,126.618L310.289,123.129L311.59,123.129L311.59,126.693C311.59,127.48 312.044,127.931 312.936,127.931C313.521,127.931 314.076,127.655 314.5,127.142L314.5,123.129L315.802,123.129L315.802,128.743L314.5,128.743Z" style="fill:white;fill-rule:nonzero;"/>
            <path d="M320.671,123.866L320.7,123.866C321.197,123.329 321.929,123.016 322.66,123.016C323.903,123.016 324.898,123.742 324.898,125.28L324.898,128.743L323.596,128.743L323.596,125.267C323.596,124.442 323.099,123.904 322.309,123.904C321.738,123.904 321.285,124.13 320.671,124.718L320.671,128.743L319.369,128.743L319.369,123.129L320.671,123.129L320.671,123.866Z" style="fill:white;fill-rule:nonzero;"/>
            <path d="M333.291,124.592C332.545,124.167 332.048,124.042 331.479,124.042C330.293,124.042 329.475,124.805 329.475,125.943C329.475,127.106 330.353,127.806 331.696,127.806C332.253,127.806 332.779,127.681 333.437,127.431L333.437,128.531C332.998,128.706 332.165,128.857 331.479,128.857C329.519,128.857 328.144,127.694 328.144,126.043C328.144,124.192 329.4,123.017 331.39,123.017C332.15,123.017 332.662,123.166 333.291,123.405L333.291,124.592Z" style="fill:white;fill-rule:nonzero;"/>
            <rect x="336.653" y="123.129" width="1.303" height="5.614" style="fill:white;fill-rule:nonzero;"/>
            <rect x="341.611" y="120.215" width="1.302" height="8.528" style="fill:white;fill-rule:nonzero;"/>
            <rect x="336.653" y="120.945" width="1.303" height="1.33" style="fill:white;fill-rule:nonzero;"/>
        </g>
        <g>
            <path d="M196.019,129.14C195.031,128.712 192.247,127.203 188.849,124.234C185.831,121.592 183.675,117.985 182.384,114.043C180.685,108.851 180.543,104.463 180.543,104.463L180.644,93.372C183.805,92.714 196.019,92.378 196.019,92.378C196.019,92.378 196.223,92.385 196.579,92.398C199.006,92.468 208.643,92.795 211.405,93.371L211.415,94.536L211.498,104.463C211.498,104.463 211.358,108.851 209.66,114.041C208.369,117.985 206.216,121.587 203.193,124.234C199.8,127.203 197.01,128.712 196.019,129.14Z" style="fill:none;fill-rule:nonzero;stroke:white;stroke-width:1.22px;"/>
            <path d="M201.699,114.787C201.904,114.82 202.016,114.477 202.034,114.338C202.053,114.197 202.063,113.988 202.059,113.947C202.05,113.896 202.084,113.833 202.139,113.89C202.219,113.966 202.459,114.07 202.727,114.054C202.998,114.036 203.315,113.694 203.258,113.67C203.2,113.648 202.703,113.498 202.32,112.91C201.935,112.324 201.946,111.018 201.928,110.933C201.895,110.781 201.699,110.771 201.699,110.771L201.717,110.771C201.717,110.771 201.52,110.781 201.487,110.933C201.47,111.018 201.478,112.324 201.095,112.91C200.712,113.498 200.214,113.648 200.156,113.67C200.096,113.694 200.419,114.036 200.687,114.054C200.957,114.068 201.199,113.963 201.274,113.89C201.333,113.833 201.365,113.896 201.354,113.947C201.348,113.988 201.365,114.197 201.381,114.338C201.397,114.475 201.511,114.82 201.717,114.787L201.699,114.787Z" style="fill:white;fill-rule:nonzero;"/>
            <path d="M201.234,111.213C201.234,111.466 201.027,111.672 200.772,111.672C200.519,111.672 200.311,111.466 200.311,111.213C200.311,110.958 200.519,110.752 200.772,110.752C201.027,110.752 201.234,110.958 201.234,111.213" style="fill:white;fill-rule:nonzero;"/>
            <path d="M203.091,111.213C203.091,111.466 202.884,111.672 202.632,111.672C202.375,111.672 202.17,111.466 202.17,111.213C202.17,110.958 202.375,110.752 202.632,110.752C202.884,110.752 203.091,110.958 203.091,111.213" style="fill:white;fill-rule:nonzero;"/>
            <path d="M202.177,110.151C202.177,110.406 201.971,110.611 201.717,110.611C201.461,110.611 201.255,110.406 201.255,110.151C201.255,109.895 201.461,109.689 201.717,109.689C201.971,109.689 202.177,109.895 202.177,110.151" style="fill:white;fill-rule:nonzero;"/>
            <path d="M190.437,114.735C190.642,114.766 190.755,114.425 190.772,114.286C190.79,114.144 190.802,113.932 190.795,113.895C190.79,113.844 190.821,113.778 190.875,113.834C190.954,113.911 191.195,114.013 191.464,114C191.736,113.984 192.055,113.638 191.997,113.614C191.939,113.589 191.44,113.444 191.056,112.855C190.672,112.269 190.684,110.964 190.666,110.881C190.631,110.728 190.437,110.716 190.437,110.716L190.454,110.716C190.454,110.716 190.255,110.726 190.224,110.881C190.207,110.964 190.216,112.269 189.832,112.855C189.45,113.443 188.951,113.589 188.893,113.614C188.835,113.638 189.155,113.984 189.425,114C189.698,114.013 189.938,113.911 190.011,113.834C190.07,113.778 190.101,113.844 190.095,113.892C190.088,113.932 190.101,114.143 190.118,114.286C190.136,114.423 190.249,114.766 190.454,114.733L190.437,114.735Z" style="fill:white;fill-rule:nonzero;"/>
            <path d="M189.972,111.159C189.972,111.413 189.767,111.621 189.509,111.621C189.256,111.621 189.051,111.413 189.051,111.159C189.051,110.902 189.256,110.696 189.509,110.696C189.767,110.696 189.972,110.902 189.972,111.159" style="fill:white;fill-rule:nonzero;"/>
            <path d="M191.83,111.159C191.83,111.413 191.622,111.621 191.366,111.621C191.111,111.621 190.906,111.413 190.906,111.159C190.906,110.902 191.111,110.696 191.366,110.696C191.622,110.696 191.83,110.902 191.83,111.159" style="fill:white;fill-rule:nonzero;"/>
            <path d="M190.918,110.097C190.918,110.353 190.707,110.556 190.453,110.556C190.198,110.556 189.991,110.353 189.991,110.097C189.991,109.842 190.198,109.636 190.453,109.636C190.707,109.636 190.918,109.842 190.918,110.097" style="fill:white;fill-rule:nonzero;"/>
            <path d="M184.348,114.74C184.554,114.774 184.667,114.432 184.681,114.291C184.697,114.151 184.713,113.942 184.709,113.9C184.697,113.852 184.731,113.785 184.789,113.844C184.863,113.92 185.109,114.022 185.375,114.006C185.645,113.991 185.963,113.648 185.907,113.623C185.851,113.599 185.351,113.452 184.968,112.863C184.584,112.278 184.593,110.973 184.578,110.886C184.545,110.733 184.348,110.726 184.348,110.726L184.365,110.726C184.365,110.726 184.167,110.733 184.136,110.886C184.119,110.97 184.128,112.276 183.744,112.863C183.362,113.45 182.86,113.599 182.805,113.623C182.745,113.648 183.067,113.991 183.336,114.006C183.607,114.022 183.847,113.919 183.925,113.844C183.982,113.785 184.012,113.852 184.007,113.9C183.996,113.939 184.012,114.151 184.031,114.291C184.047,114.428 184.161,114.774 184.365,114.74L184.348,114.74Z" style="fill:white;fill-rule:nonzero;"/>
            <path d="M183.882,111.165C183.882,111.422 183.676,111.627 183.422,111.627C183.164,111.627 182.959,111.422 182.959,111.165C182.959,110.911 183.164,110.706 183.422,110.706C183.676,110.706 183.882,110.911 183.882,111.165" style="fill:white;fill-rule:nonzero;"/>
            <path d="M185.738,111.165C185.738,111.422 185.534,111.627 185.276,111.627C185.024,111.627 184.816,111.422 184.816,111.165C184.816,110.911 185.024,110.706 185.276,110.706C185.534,110.706 185.738,110.911 185.738,111.165" style="fill:white;fill-rule:nonzero;"/>
            <path d="M184.825,110.105C184.825,110.359 184.616,110.564 184.364,110.564C184.109,110.564 183.903,110.359 183.903,110.105C183.903,109.85 184.109,109.644 184.364,109.644C184.616,109.644 184.825,109.85 184.825,110.105" style="fill:white;fill-rule:nonzero;"/>
            <path d="M207.828,114.808C208.031,114.842 208.145,114.497 208.162,114.361C208.179,114.218 208.197,114.007 208.185,113.966C208.179,113.918 208.212,113.853 208.267,113.911C208.345,113.988 208.586,114.088 208.855,114.074C209.129,114.055 209.444,113.713 209.388,113.689C209.33,113.667 208.835,113.52 208.446,112.929C208.063,112.344 208.073,111.039 208.056,110.954C208.023,110.799 207.828,110.79 207.828,110.79L207.844,110.79C207.844,110.79 207.649,110.799 207.615,110.954C207.598,111.039 207.607,112.344 207.223,112.929C206.841,113.52 206.341,113.667 206.284,113.689C206.228,113.713 206.545,114.055 206.814,114.074C207.086,114.088 207.328,113.985 207.402,113.911C207.463,113.853 207.493,113.918 207.483,113.966C207.478,114.007 207.493,114.218 207.511,114.361C207.524,114.496 207.642,114.842 207.844,114.807L207.828,114.808Z" style="fill:white;fill-rule:nonzero;"/>
            <path d="M207.362,111.234C207.362,111.488 207.154,111.695 206.902,111.695C206.647,111.695 206.437,111.488 206.437,111.234C206.437,110.977 206.647,110.771 206.902,110.771C207.154,110.771 207.362,110.977 207.362,111.234" style="fill:white;fill-rule:nonzero;"/>
            <path d="M209.22,111.234C209.22,111.488 209.014,111.695 208.756,111.695C208.504,111.695 208.297,111.488 208.297,111.234C208.297,110.977 208.504,110.771 208.756,110.771C209.014,110.771 209.22,110.977 209.22,111.234" style="fill:white;fill-rule:nonzero;"/>
            <path d="M208.306,110.172C208.306,110.428 208.097,110.632 207.844,110.632C207.59,110.632 207.383,110.428 207.383,110.172C207.383,109.915 207.59,109.713 207.844,109.713C208.097,109.713 208.306,109.915 208.306,110.172" style="fill:white;fill-rule:nonzero;"/>
            <path d="M187.883,121.511C188.09,121.544 188.204,121.202 188.219,121.064C188.236,120.923 188.251,120.713 188.244,120.672C188.236,120.623 188.268,120.56 188.324,120.615C188.402,120.691 188.645,120.795 188.913,120.78C189.183,120.761 189.499,120.418 189.443,120.397C189.386,120.369 188.889,120.225 188.505,119.636C188.121,119.047 188.13,117.742 188.112,117.66C188.082,117.505 187.883,117.497 187.883,117.497L187.903,117.497C187.903,117.497 187.705,117.505 187.672,117.66C187.654,117.74 187.664,119.047 187.282,119.636C186.897,120.225 186.401,120.369 186.339,120.393C186.286,120.418 186.603,120.761 186.873,120.777C187.14,120.795 187.384,120.691 187.461,120.615C187.518,120.558 187.551,120.623 187.542,120.672C187.534,120.713 187.551,120.923 187.565,121.064C187.583,121.202 187.696,121.544 187.903,121.511L187.883,121.511Z" style="fill:white;fill-rule:nonzero;"/>
            <path d="M187.418,117.937C187.418,118.192 187.212,118.398 186.959,118.398C186.704,118.398 186.497,118.192 186.497,117.937C186.497,117.684 186.704,117.475 186.959,117.475C187.212,117.475 187.418,117.684 187.418,117.937" style="fill:white;fill-rule:nonzero;"/>
            <path d="M189.276,117.937C189.276,118.192 189.07,118.398 188.815,118.398C188.558,118.398 188.354,118.192 188.354,117.937C188.354,117.684 188.558,117.475 188.815,117.475C189.07,117.475 189.276,117.684 189.276,117.937" style="fill:white;fill-rule:nonzero;"/>
            <path d="M188.361,116.874C188.361,117.133 188.156,117.338 187.902,117.338C187.645,117.338 187.44,117.133 187.44,116.874C187.44,116.621 187.645,116.414 187.902,116.414C188.156,116.414 188.361,116.621 188.361,116.874" style="fill:white;fill-rule:nonzero;"/>
            <path d="M204.234,121.511C204.437,121.544 204.55,121.202 204.569,121.064C204.585,120.923 204.6,120.713 204.593,120.672C204.585,120.623 204.619,120.56 204.672,120.615C204.748,120.691 204.994,120.795 205.263,120.78C205.532,120.761 205.851,120.418 205.793,120.397C205.736,120.369 205.238,120.225 204.855,119.636C204.47,119.047 204.48,117.742 204.463,117.66C204.429,117.505 204.234,117.497 204.234,117.497L204.249,117.497C204.249,117.497 204.053,117.505 204.021,117.66C204.005,117.74 204.015,119.047 203.63,119.636C203.247,120.225 202.75,120.369 202.691,120.393C202.634,120.418 202.952,120.761 203.223,120.777C203.489,120.795 203.735,120.691 203.807,120.615C203.866,120.558 203.9,120.623 203.892,120.672C203.884,120.713 203.898,120.923 203.917,121.064C203.93,121.202 204.047,121.544 204.249,121.511L204.234,121.511Z" style="fill:white;fill-rule:nonzero;"/>
            <path d="M203.769,117.937C203.769,118.192 203.563,118.398 203.308,118.398C203.051,118.398 202.845,118.192 202.845,117.937C202.845,117.684 203.051,117.475 203.308,117.475C203.563,117.475 203.769,117.684 203.769,117.937" style="fill:white;fill-rule:nonzero;"/>
            <path d="M205.627,117.937C205.627,118.192 205.419,118.398 205.164,118.398C204.911,118.398 204.703,118.192 204.703,117.937C204.703,117.684 204.911,117.475 205.164,117.475C205.419,117.475 205.627,117.684 205.627,117.937" style="fill:white;fill-rule:nonzero;"/>
            <path d="M204.711,116.874C204.711,117.133 204.503,117.338 204.249,117.338C203.997,117.338 203.788,117.133 203.788,116.874C203.788,116.621 203.997,116.414 204.249,116.414C204.503,116.414 204.711,116.621 204.711,116.874" style="fill:white;fill-rule:nonzero;"/>
            <path d="M182.515,108.33C182.722,108.362 182.834,108.017 182.851,107.881C182.869,107.737 182.882,107.531 182.877,107.49C182.869,107.441 182.902,107.374 182.955,107.432C183.033,107.508 183.277,107.61 183.546,107.595C183.816,107.58 184.131,107.236 184.074,107.213C184.019,107.188 183.519,107.041 183.136,106.454C182.754,105.864 182.765,104.559 182.744,104.476C182.714,104.322 182.515,104.312 182.515,104.312L182.533,104.312C182.533,104.312 182.339,104.322 182.305,104.476C182.288,104.559 182.297,105.864 181.914,106.454C181.528,107.039 181.034,107.186 180.973,107.208C180.918,107.232 181.236,107.58 181.506,107.595C181.773,107.61 182.02,107.508 182.092,107.431C182.149,107.374 182.182,107.437 182.174,107.487C182.169,107.53 182.182,107.737 182.198,107.881C182.216,108.017 182.329,108.362 182.533,108.33L182.515,108.33Z" style="fill:white;fill-rule:nonzero;"/>
            <path d="M182.052,104.753C182.052,105.009 181.846,105.217 181.59,105.217C181.336,105.217 181.13,105.009 181.13,104.753C181.13,104.502 181.336,104.295 181.59,104.295C181.846,104.295 182.052,104.502 182.052,104.753" style="fill:white;fill-rule:nonzero;"/>
            <path d="M183.908,104.753C183.908,105.009 183.703,105.217 183.447,105.217C183.191,105.217 182.986,105.009 182.986,104.753C182.986,104.502 183.191,104.295 183.447,104.295C183.703,104.295 183.908,104.502 183.908,104.753" style="fill:white;fill-rule:nonzero;"/>
            <path d="M182.992,103.691C182.992,103.948 182.789,104.152 182.532,104.152C182.278,104.152 182.071,103.948 182.071,103.691C182.071,103.437 182.278,103.234 182.532,103.234C182.789,103.234 182.992,103.437 182.992,103.691" style="fill:white;fill-rule:nonzero;"/>
            <path d="M209.552,108.33C209.758,108.362 209.87,108.017 209.887,107.881C209.902,107.737 209.917,107.531 209.909,107.49C209.902,107.441 209.936,107.374 209.993,107.432C210.069,107.508 210.312,107.61 210.579,107.595C210.851,107.58 211.167,107.236 211.11,107.213C211.055,107.188 210.554,107.041 210.172,106.454C209.788,105.864 209.798,104.559 209.779,104.476C209.749,104.322 209.552,104.312 209.552,104.312L209.571,104.312C209.571,104.312 209.373,104.322 209.339,104.476C209.323,104.559 209.332,105.864 208.948,106.454C208.562,107.039 208.064,107.186 208.006,107.208C207.952,107.232 208.268,107.58 208.536,107.595C208.808,107.61 209.055,107.508 209.129,107.431C209.184,107.374 209.219,107.437 209.207,107.487C209.2,107.53 209.219,107.737 209.232,107.881C209.251,108.017 209.363,108.362 209.571,108.33L209.552,108.33Z" style="fill:white;fill-rule:nonzero;"/>
            <path d="M209.085,104.753C209.085,105.009 208.88,105.217 208.624,105.217C208.369,105.217 208.164,105.009 208.164,104.753C208.164,104.502 208.369,104.295 208.624,104.295C208.88,104.295 209.085,104.502 209.085,104.753" style="fill:white;fill-rule:nonzero;"/>
            <path d="M210.943,104.753C210.943,105.009 210.736,105.217 210.482,105.217C210.228,105.217 210.021,105.009 210.021,104.753C210.021,104.502 210.228,104.295 210.482,104.295C210.736,104.295 210.943,104.502 210.943,104.753" style="fill:white;fill-rule:nonzero;"/>
            <path d="M210.027,103.691C210.027,103.948 209.822,104.152 209.57,104.152C209.312,104.152 209.108,103.948 209.108,103.691C209.108,103.437 209.312,103.234 209.57,103.234C209.822,103.234 210.027,103.437 210.027,103.691" style="fill:white;fill-rule:nonzero;"/>
            <path d="M192.899,107.64C193.105,107.671 193.22,107.331 193.236,107.191C193.251,107.05 193.267,106.84 193.26,106.8C193.25,106.749 193.283,106.687 193.341,106.743C193.418,106.817 193.66,106.921 193.927,106.907C194.199,106.89 194.516,106.545 194.461,106.522C194.402,106.496 193.904,106.351 193.522,105.762C193.136,105.175 193.147,103.871 193.129,103.786C193.097,103.632 192.899,103.625 192.899,103.625L192.914,103.624C192.914,103.624 192.72,103.632 192.688,103.786C192.67,103.871 192.679,105.175 192.294,105.762C191.913,106.348 191.415,106.496 191.359,106.522C191.299,106.545 191.621,106.89 191.888,106.907C192.159,106.921 192.399,106.817 192.474,106.743C192.533,106.685 192.567,106.749 192.555,106.8C192.551,106.84 192.567,107.05 192.581,107.191C192.6,107.33 192.712,107.671 192.914,107.64L192.899,107.64Z" style="fill:white;fill-rule:nonzero;"/>
            <path d="M192.435,104.064C192.435,104.321 192.227,104.524 191.977,104.524C191.718,104.524 191.512,104.321 191.512,104.064C191.512,103.811 191.718,103.604 191.977,103.604C192.227,103.604 192.435,103.811 192.435,104.064" style="fill:white;fill-rule:nonzero;"/>
            <path d="M194.291,104.064C194.291,104.321 194.087,104.524 193.831,104.524C193.576,104.524 193.371,104.321 193.371,104.064C193.371,103.811 193.576,103.604 193.831,103.604C194.087,103.604 194.291,103.811 194.291,104.064" style="fill:white;fill-rule:nonzero;"/>
            <path d="M193.376,103.002C193.376,103.256 193.174,103.465 192.914,103.465C192.662,103.465 192.455,103.256 192.455,103.002C192.455,102.749 192.662,102.542 192.914,102.542C193.174,102.542 193.376,102.749 193.376,103.002" style="fill:white;fill-rule:nonzero;"/>
            <path d="M199.221,107.624C199.422,107.658 199.538,107.314 199.554,107.176C199.571,107.033 199.588,106.824 199.579,106.785C199.571,106.734 199.604,106.67 199.658,106.726C199.736,106.802 199.979,106.907 200.25,106.891C200.52,106.873 200.836,106.532 200.781,106.507C200.724,106.478 200.222,106.335 199.841,105.745C199.457,105.159 199.466,103.853 199.448,103.773C199.416,103.617 199.221,103.609 199.221,103.609L199.236,103.609C199.236,103.609 199.041,103.617 199.008,103.773C198.991,103.853 199,105.159 198.617,105.745C198.232,106.335 197.735,106.478 197.676,106.507C197.622,106.532 197.941,106.873 198.207,106.891C198.477,106.907 198.719,106.801 198.796,106.726C198.854,106.67 198.885,106.734 198.878,106.784C198.873,106.824 198.885,107.033 198.903,107.176C198.916,107.314 199.035,107.656 199.236,107.624L199.221,107.624Z" style="fill:white;fill-rule:nonzero;"/>
            <path d="M198.755,104.047C198.755,104.304 198.547,104.51 198.295,104.51C198.039,104.51 197.833,104.304 197.833,104.047C197.833,103.795 198.039,103.586 198.295,103.586C198.547,103.586 198.755,103.795 198.755,104.047" style="fill:white;fill-rule:nonzero;"/>
            <path d="M200.611,104.047C200.611,104.304 200.405,104.51 200.15,104.51C199.894,104.51 199.689,104.304 199.689,104.047C199.689,103.795 199.894,103.586 200.15,103.586C200.405,103.586 200.611,103.795 200.611,104.047" style="fill:white;fill-rule:nonzero;"/>
            <path d="M199.698,102.986C199.698,103.241 199.49,103.45 199.235,103.45C198.981,103.45 198.774,103.241 198.774,102.986C198.774,102.734 198.981,102.526 199.235,102.526C199.49,102.526 199.698,102.734 199.698,102.986" style="fill:white;fill-rule:nonzero;"/>
            <path d="M196.037,100.887C196.243,100.92 196.358,100.578 196.373,100.437C196.39,100.296 196.405,100.087 196.396,100.049C196.39,99.996 196.422,99.933 196.48,99.99C196.554,100.063 196.799,100.169 197.069,100.153C197.338,100.136 197.656,99.794 197.599,99.769C197.544,99.745 197.045,99.598 196.659,99.01C196.276,98.422 196.285,97.119 196.267,97.034C196.234,96.877 196.037,96.868 196.037,96.868L196.055,96.868C196.055,96.868 195.857,96.877 195.828,97.034C195.807,97.116 195.822,98.422 195.435,99.01C195.05,99.597 194.555,99.742 194.496,99.769C194.44,99.794 194.759,100.136 195.025,100.153C195.295,100.169 195.539,100.063 195.613,99.989C195.673,99.93 195.705,99.996 195.695,100.049C195.687,100.087 195.704,100.296 195.722,100.437C195.737,100.578 195.852,100.918 196.055,100.887L196.037,100.887Z" style="fill:white;fill-rule:nonzero;"/>
            <path d="M195.574,97.309C195.574,97.566 195.368,97.772 195.112,97.772C194.858,97.772 194.65,97.566 194.65,97.309C194.65,97.056 194.858,96.851 195.112,96.851C195.368,96.851 195.574,97.056 195.574,97.309" style="fill:white;fill-rule:nonzero;"/>
            <path d="M197.432,97.309C197.432,97.566 197.226,97.772 196.97,97.772C196.716,97.772 196.509,97.566 196.509,97.309C196.509,97.056 196.716,96.851 196.97,96.851C197.226,96.851 197.432,97.056 197.432,97.309" style="fill:white;fill-rule:nonzero;"/>
            <path d="M196.516,96.249C196.516,96.505 196.309,96.713 196.055,96.713C195.802,96.713 195.595,96.505 195.595,96.249C195.595,95.998 195.802,95.788 196.055,95.788C196.309,95.788 196.516,95.998 196.516,96.249" style="fill:white;fill-rule:nonzero;"/>
            <path d="M186.039,99.582C186.039,99.582 185.432,98.684 182.363,98.911C182.363,98.911 182.278,98.919 182.284,99.001C182.289,99.075 182.357,99.082 182.357,99.082C185.426,98.856 185.967,99.761 185.967,99.761C185.967,99.761 186.055,99.83 186.082,99.755C186.098,99.709 186.063,99.613 186.039,99.582" style="fill:white;fill-rule:nonzero;"/>
            <path d="M185.259,96.236C185.259,96.236 185.165,96.195 185.195,96.114C185.232,95.992 185.256,95.809 185.174,95.62C185.151,95.568 185.112,95.563 185.077,95.548C185.041,95.534 184.578,95.33 184.247,95.366C183.965,95.397 183.868,95.556 183.858,95.65C183.822,95.934 183.948,96.354 184.137,96.693C184.186,96.782 184.211,96.729 184.237,96.706C184.26,96.682 184.486,96.464 184.53,96.446C184.578,96.429 184.728,96.351 184.759,96.351C184.789,96.351 184.848,96.391 184.855,96.425C184.863,96.479 184.855,96.509 184.813,96.535C184.77,96.56 184.701,96.583 184.64,96.612C184.551,96.657 184.36,96.868 184.315,96.891C184.273,96.92 184.175,97.022 184.038,96.873C183.834,96.655 183.679,96.067 183.664,95.9C183.65,95.739 183.643,95.521 183.792,95.367C183.904,95.252 184.123,95.181 184.259,95.17C184.658,95.147 185.165,95.381 185.214,95.402C185.289,95.432 185.314,95.459 185.345,95.532C185.415,95.672 185.424,95.923 185.415,96.011C185.402,96.095 185.397,96.259 185.259,96.236" style="fill:white;fill-rule:nonzero;"/>
            <path d="M190.353,96.28C190.353,96.28 190.446,96.242 190.421,96.161C190.38,96.04 190.355,95.855 190.437,95.666C190.459,95.616 190.502,95.609 190.537,95.595C190.571,95.581 191.038,95.379 191.364,95.413C191.647,95.441 191.741,95.6 191.758,95.698C191.79,95.979 191.666,96.404 191.479,96.74C191.428,96.827 191.403,96.775 191.379,96.752C191.352,96.724 191.129,96.511 191.083,96.492C191.038,96.475 190.885,96.398 190.856,96.398C190.822,96.398 190.767,96.437 190.757,96.472C190.747,96.527 190.757,96.556 190.801,96.583C190.842,96.605 190.911,96.628 190.972,96.657C191.063,96.706 191.255,96.916 191.299,96.94C191.34,96.966 191.438,97.067 191.576,96.92C191.781,96.7 191.933,96.114 191.947,95.945C191.96,95.78 191.97,95.566 191.819,95.416C191.707,95.301 191.487,95.223 191.359,95.221C190.955,95.194 190.446,95.426 190.4,95.447C190.326,95.479 190.298,95.509 190.265,95.578C190.199,95.718 190.19,95.97 190.199,96.054C190.207,96.14 190.213,96.304 190.353,96.28" style="fill:white;fill-rule:nonzero;"/>
            <path d="M185.617,99.987C185.374,99.733 184.659,99.33 182.499,99.487C182.499,99.487 182.42,99.468 182.414,99.412C182.412,99.321 182.502,99.319 182.502,99.319C184.907,99.143 185.555,99.655 185.721,99.883C185.721,99.883 185.754,99.958 185.724,99.994C185.677,100.049 185.617,99.987 185.617,99.987" style="fill:white;fill-rule:nonzero;"/>
            <path d="M185.34,100.308C185.098,100.057 184.778,99.792 182.621,99.95C182.621,99.95 182.537,99.933 182.535,99.874C182.528,99.787 182.623,99.78 182.623,99.78C185.029,99.606 185.277,99.977 185.444,100.205C185.444,100.205 185.474,100.279 185.444,100.313C185.4,100.373 185.34,100.308 185.34,100.308" style="fill:white;fill-rule:nonzero;"/>
            <path d="M185.189,100.663C184.943,100.412 183.865,99.967 182.85,100.485C182.85,100.485 182.752,100.522 182.734,100.444C182.713,100.358 182.824,100.317 182.824,100.317C183.957,99.768 185.097,100.278 185.287,100.543C185.287,100.543 185.331,100.616 185.306,100.654C185.264,100.728 185.189,100.663 185.189,100.663" style="fill:white;fill-rule:nonzero;"/>
            <path d="M185.061,100.978C184.579,100.808 183.778,100.691 183.058,101.107C183.058,101.107 182.962,101.151 182.939,101.072C182.915,100.984 183.022,100.942 183.022,100.942C183.809,100.507 184.64,100.622 185.122,100.814C185.122,100.814 185.23,100.856 185.194,100.933C185.154,101.009 185.109,100.995 185.061,100.978" style="fill:white;fill-rule:nonzero;"/>
            <path d="M186.369,99.466C186.369,99.466 185.617,99.277 185.163,99.892C184.74,100.461 184.777,101.219 184.777,101.232C184.777,101.245 184.783,101.372 184.899,101.384C184.943,101.387 185.029,101.356 185.036,101.236C185.043,101.112 185.029,100.478 185.367,100.046C185.682,99.642 186.222,99.695 186.31,99.716C186.4,99.738 186.478,99.675 186.478,99.614C186.473,99.553 186.457,99.479 186.369,99.466" style="fill:white;fill-rule:nonzero;"/>
            <path d="M189.352,99.601C189.352,99.601 189.961,98.705 193.031,98.926C193.031,98.926 193.118,98.939 193.108,99.018C193.102,99.092 193.032,99.102 193.032,99.102C189.965,98.876 189.422,99.783 189.422,99.783C189.422,99.783 189.339,99.85 189.309,99.775C189.295,99.729 189.329,99.632 189.352,99.601" style="fill:white;fill-rule:nonzero;"/>
            <path d="M189.772,100.006C190.02,99.755 190.734,99.354 192.893,99.508C192.893,99.508 192.975,99.491 192.975,99.433C192.981,99.344 192.89,99.339 192.89,99.339C190.484,99.163 189.836,99.675 189.67,99.903C189.67,99.903 189.639,99.977 189.668,100.013C189.716,100.068 189.772,100.006 189.772,100.006" style="fill:white;fill-rule:nonzero;"/>
            <path d="M190.054,100.328C190.298,100.073 190.613,99.813 192.772,99.97C192.772,99.97 192.854,99.953 192.854,99.894C192.864,99.806 192.771,99.803 192.771,99.803C190.365,99.624 190.116,99.995 189.948,100.224C189.948,100.224 189.916,100.298 189.948,100.335C189.993,100.395 190.054,100.328 190.054,100.328" style="fill:white;fill-rule:nonzero;"/>
            <path d="M190.203,100.686C190.448,100.433 191.526,99.988 192.542,100.507C192.542,100.507 192.635,100.543 192.655,100.462C192.678,100.377 192.569,100.334 192.569,100.334C191.437,99.789 190.294,100.299 190.105,100.56C190.105,100.56 190.064,100.636 190.088,100.675C190.132,100.748 190.203,100.686 190.203,100.686" style="fill:white;fill-rule:nonzero;"/>
            <path d="M190.332,100.998C190.816,100.827 191.617,100.712 192.334,101.128C192.334,101.128 192.428,101.174 192.452,101.092C192.477,101.007 192.37,100.963 192.37,100.963C191.58,100.526 190.755,100.642 190.271,100.834C190.271,100.834 190.162,100.879 190.201,100.953C190.236,101.029 190.288,101.016 190.332,100.998" style="fill:white;fill-rule:nonzero;"/>
            <path d="M189.021,99.488C189.021,99.488 189.773,99.298 190.231,99.907C190.653,100.48 190.615,101.239 190.615,101.252C190.615,101.264 190.611,101.39 190.493,101.404C190.452,101.407 190.363,101.376 190.355,101.254C190.353,101.134 190.363,100.496 190.029,100.062C189.708,99.658 189.172,99.715 189.082,99.737C188.994,99.758 188.914,99.696 188.914,99.635C188.918,99.573 188.934,99.5 189.021,99.488" style="fill:white;fill-rule:nonzero;"/>
            <path d="M186.037,98.03C185.956,98.03 185.891,98.096 185.891,98.177C185.891,98.259 185.956,98.323 186.037,98.323C186.117,98.323 186.181,98.259 186.181,98.177C186.181,98.096 186.117,98.03 186.037,98.03M186.613,98.217C186.613,98.217 186.523,98.753 185.903,98.737C185.567,98.728 185.422,98.5 185.399,98.474C185.378,98.452 185.363,98.434 185.363,98.434C185.363,98.434 185.341,98.474 185.324,98.5C185.308,98.524 185.143,98.749 184.913,98.691C184.689,98.635 184.646,98.362 184.64,98.335C184.64,98.306 184.66,98.207 184.74,98.199C184.802,98.191 184.859,98.212 184.887,98.267C184.92,98.331 184.913,98.372 184.924,98.389C184.933,98.405 184.971,98.48 185.041,98.427C185.108,98.378 185.224,98.212 185.216,98.173C185.209,98.136 185.209,98.149 185.202,98.13C185.197,98.113 185.165,97.997 185.165,97.985C185.163,97.967 185.158,97.944 185.158,97.944C185.158,97.944 185.125,97.942 185.111,97.94C185.1,97.938 184.82,97.906 184.691,97.801C184.578,97.708 184.554,97.543 184.545,97.51C184.525,97.45 184.545,97.208 184.545,97.189C184.549,97.169 184.582,97.067 184.68,97.082C184.771,97.093 184.802,97.165 184.8,97.192C184.797,97.224 184.783,97.433 184.803,97.507C184.825,97.58 184.85,97.605 184.898,97.621C184.943,97.638 185.141,97.696 185.331,97.711C185.518,97.726 185.951,97.748 186.082,97.764C186.213,97.78 186.538,97.842 186.724,97.98C186.746,97.998 186.784,98.021 186.784,98.021L186.808,97.697C186.808,97.697 186.602,97.557 186.575,97.543C186.549,97.529 186.471,97.464 186.529,97.356C186.564,97.292 186.654,97.29 186.687,97.306C186.721,97.322 186.921,97.464 186.921,97.464C186.921,97.464 187.007,97.377 187.016,97.375C187.026,97.367 187.112,97.313 187.185,97.388C187.244,97.457 187.223,97.522 187.2,97.548C187.178,97.576 187.065,97.689 187.065,97.689L187.01,98.448C187.01,98.448 187.016,98.599 186.992,98.726C186.968,98.854 186.912,98.979 186.891,99.001C186.861,99.045 186.808,99.077 186.731,99.042C186.664,99.002 186.658,98.912 186.667,98.883C186.678,98.856 186.755,98.72 186.755,98.599C186.755,98.478 186.755,98.329 186.613,98.217" style="fill:white;fill-rule:nonzero;"/>
            <path d="M189.137,98.163C189.137,98.246 189.203,98.309 189.283,98.309C189.366,98.309 189.43,98.246 189.43,98.163C189.43,98.087 189.366,98.02 189.283,98.02C189.203,98.02 189.137,98.087 189.137,98.163M188.569,98.584C188.569,98.709 188.645,98.844 188.654,98.873C188.663,98.901 188.658,98.994 188.586,99.03C188.517,99.065 188.462,99.034 188.428,98.992C188.408,98.964 188.355,98.843 188.327,98.715C188.302,98.584 188.313,98.439 188.313,98.439L188.255,97.676C188.255,97.676 188.144,97.566 188.12,97.536C188.1,97.511 188.076,97.447 188.137,97.382C188.206,97.3 188.293,97.356 188.306,97.364C188.317,97.367 188.402,97.448 188.402,97.448C188.402,97.448 188.6,97.313 188.634,97.296C188.663,97.278 188.757,97.278 188.791,97.344C188.848,97.452 188.774,97.515 188.746,97.532C188.719,97.548 188.512,97.686 188.512,97.686L188.536,98.012C188.536,98.012 188.576,97.985 188.596,97.97C188.785,97.83 189.107,97.769 189.239,97.752C189.368,97.738 189.801,97.711 189.991,97.697C190.182,97.684 190.38,97.624 190.425,97.61C190.47,97.595 190.492,97.567 190.514,97.498C190.536,97.423 190.525,97.213 190.522,97.181C190.52,97.153 190.546,97.083 190.646,97.069C190.738,97.056 190.775,97.158 190.776,97.176C190.78,97.192 190.795,97.439 190.78,97.499C190.769,97.532 190.745,97.696 190.627,97.789C190.502,97.897 190.221,97.925 190.206,97.93C190.194,97.93 190.162,97.933 190.162,97.933C190.162,97.933 190.16,97.955 190.157,97.974C190.156,97.985 190.124,98.102 190.118,98.117C190.114,98.137 190.114,98.125 190.106,98.163C190.099,98.201 190.212,98.365 190.282,98.419C190.349,98.469 190.386,98.392 190.399,98.378C190.409,98.362 190.403,98.32 190.436,98.257C190.462,98.201 190.518,98.18 190.581,98.187C190.662,98.197 190.681,98.294 190.678,98.323C190.675,98.351 190.632,98.624 190.409,98.679C190.175,98.74 190.014,98.513 189.996,98.485C189.981,98.463 189.956,98.423 189.956,98.423C189.956,98.423 189.945,98.439 189.922,98.463C189.9,98.485 189.752,98.718 189.416,98.726C188.798,98.742 188.704,98.206 188.704,98.206C188.569,98.317 188.569,98.463 188.569,98.584" style="fill:white;fill-rule:nonzero;"/>
            <path d="M187.025,100.92C186.822,100.889 186.373,100.641 186.289,100.578C186.204,100.517 186.054,100.417 185.89,100.543C185.818,100.593 185.742,100.684 185.747,100.772C185.754,100.932 185.956,101.347 185.974,101.394C186.001,101.445 186.062,101.586 186.066,101.816C186.071,102.074 186.107,102.399 186.135,102.451C186.155,102.498 186.155,102.568 186.289,102.599C186.419,102.628 186.616,102.654 186.746,102.651C186.877,102.646 187.29,102.55 187.351,102.537C187.418,102.522 187.599,102.481 187.671,102.479C187.75,102.473 187.93,102.522 187.994,102.537C188.054,102.55 188.475,102.646 188.602,102.651C188.73,102.654 188.927,102.628 189.057,102.599C189.191,102.568 189.183,102.493 189.214,102.451C189.244,102.411 189.276,102.074 189.28,101.816C189.285,101.586 189.347,101.445 189.368,101.394C189.391,101.347 189.59,100.932 189.6,100.772C189.606,100.684 189.527,100.593 189.458,100.543C189.293,100.417 189.14,100.517 189.057,100.578C188.974,100.641 188.525,100.889 188.323,100.92C188.206,100.935 187.671,100.729 187.671,100.729C187.671,100.729 187.138,100.935 187.025,100.92M187.649,102.725C187.526,102.718 187.083,102.854 187.001,102.864C186.923,102.879 186.934,102.906 186.335,102.864C185.733,102.826 185.792,102.115 185.783,102.027C185.773,101.938 185.78,101.772 185.761,101.661C185.743,101.548 185.716,101.531 185.706,101.483C185.691,101.432 185.496,101.016 185.479,100.916C185.462,100.82 185.438,100.772 185.467,100.629C185.555,100.238 185.981,100.189 186.146,100.211C186.31,100.234 186.682,100.485 186.835,100.572C186.985,100.661 187.006,100.634 187.04,100.624C187.069,100.618 187.558,100.463 187.558,100.463L187.558,100.247C187.558,100.247 187.577,100.205 187.543,100.205C187.515,100.205 187.426,100.193 187.345,100.098C187.277,100.019 187.268,99.924 187.253,99.875C187.241,99.828 187.27,99.721 187.27,99.721C187.27,99.721 186.966,99.849 186.925,99.853C186.886,99.858 186.602,99.86 186.56,99.633C186.516,99.402 186.59,99.272 186.78,99.168C186.971,99.066 187.661,98.996 187.661,98.996L187.664,98.996C187.664,98.996 188.354,99.066 188.545,99.168C188.735,99.272 188.807,99.402 188.765,99.633C188.721,99.86 188.438,99.858 188.401,99.853C188.358,99.849 188.054,99.721 188.054,99.721C188.054,99.721 188.085,99.828 188.073,99.875C188.059,99.927 188.046,100.019 187.98,100.102C187.9,100.193 187.812,100.207 187.781,100.207C187.75,100.207 187.767,100.247 187.767,100.247L187.767,100.463C187.767,100.463 188.256,100.618 188.286,100.624C188.319,100.634 188.342,100.661 188.489,100.572C188.642,100.485 189.017,100.234 189.18,100.211C189.341,100.189 189.77,100.238 189.854,100.629C189.888,100.772 189.867,100.82 189.847,100.916C189.828,101.016 189.636,101.432 189.622,101.483C189.609,101.531 189.582,101.548 189.562,101.661C189.547,101.772 189.55,101.938 189.541,102.027C189.532,102.115 189.59,102.826 188.991,102.864C188.39,102.906 188.401,102.879 188.324,102.864C188.244,102.854 187.797,102.718 187.675,102.725L187.649,102.725Z" style="fill:white;fill-rule:nonzero;"/>
            <path d="M188.354,100.774C188.354,100.774 188.545,101.154 188.57,101.292C188.6,101.428 188.623,101.709 188.476,101.927C188.321,102.156 188.278,102.143 188.05,102.196C187.914,102.225 187.821,102.245 187.6,102.157C187.433,102.088 187.26,101.961 187.176,101.858C187.089,101.754 186.933,101.503 186.91,101.365C186.885,101.184 186.908,100.879 186.913,100.827C186.921,100.777 187.051,100.76 187.085,100.771C187.121,100.782 187.172,100.836 187.168,100.9C187.165,100.967 187.146,101.188 187.159,101.261C187.186,101.435 187.333,101.664 187.398,101.722C187.57,101.89 187.784,101.957 187.801,101.957C187.819,101.957 187.805,101.957 187.841,101.961C187.874,101.961 188.139,101.937 188.192,101.884C188.282,101.791 188.325,101.654 188.333,101.547C188.338,101.445 188.354,101.439 188.312,101.335C188.287,101.274 188.124,100.888 188.112,100.854C188.101,100.82 188.133,100.737 188.163,100.73C188.194,100.723 188.333,100.753 188.354,100.774" style="fill:white;fill-rule:nonzero;"/>
            <path d="M186.635,100.679C186.635,100.679 186.471,101.025 186.444,101.046C186.41,101.067 186.419,100.629 186.432,100.587C186.444,100.543 186.305,100.401 186.249,100.428C186.204,100.45 186.173,100.483 186.173,100.492C186.173,100.505 186.119,101.274 186.348,101.357C186.583,101.445 186.809,100.88 186.845,100.827C186.877,100.778 186.816,100.696 186.804,100.687C186.793,100.676 186.653,100.658 186.635,100.679" style="fill:white;fill-rule:nonzero;"/>
            <path d="M188.737,100.699C188.737,100.699 188.897,101.044 188.93,101.064C188.96,101.085 188.951,100.649 188.942,100.607C188.93,100.56 189.066,100.421 189.118,100.444C189.17,100.468 189.201,100.503 189.201,100.512C189.201,100.522 189.252,101.293 189.027,101.376C188.791,101.463 188.563,100.9 188.531,100.848C188.498,100.798 188.556,100.715 188.567,100.706C188.579,100.695 188.718,100.678 188.737,100.699" style="fill:white;fill-rule:nonzero;"/>
            <path d="M186.535,102.729C186.535,102.729 186.465,102.711 186.438,102.518C186.415,102.323 186.445,102.078 186.48,101.981C186.522,101.872 186.577,101.83 186.619,101.807C186.631,101.798 186.642,101.798 186.664,101.811C186.691,101.826 186.742,101.877 186.846,102.053C186.899,102.142 187.062,102.343 187.123,102.38C187.179,102.424 187.389,102.55 187.433,102.568C187.477,102.585 187.427,102.659 187.382,102.678C187.34,102.697 187.179,102.676 187.139,102.659C187.097,102.649 186.989,102.605 186.93,102.55C186.873,102.494 186.751,102.34 186.731,102.307C186.714,102.275 186.698,102.245 186.687,102.244C186.678,102.238 186.678,102.266 186.678,102.283C186.675,102.333 186.679,102.444 186.69,102.513C186.701,102.58 186.728,102.638 186.746,102.657C186.762,102.676 186.755,102.711 186.704,102.719C186.652,102.734 186.589,102.765 186.535,102.729" style="fill:white;fill-rule:nonzero;"/>
            <path d="M188.874,102.718C188.874,102.718 188.944,102.7 188.968,102.506C188.994,102.311 188.966,102.065 188.929,101.968C188.887,101.859 188.832,101.82 188.791,101.797C188.776,101.787 188.769,101.786 188.744,101.799C188.715,101.813 188.667,101.865 188.565,102.04C188.512,102.13 188.346,102.333 188.286,102.37C188.228,102.413 188.019,102.539 187.978,102.557C187.931,102.571 187.983,102.65 188.028,102.667C188.073,102.682 188.228,102.663 188.27,102.65C188.312,102.637 188.422,102.592 188.478,102.539C188.537,102.486 188.658,102.327 188.677,102.296C188.699,102.262 188.712,102.235 188.724,102.234C188.731,102.226 188.731,102.253 188.731,102.268C188.735,102.319 188.728,102.433 188.719,102.501C188.71,102.57 188.682,102.628 188.663,102.646C188.646,102.663 188.653,102.7 188.704,102.71C188.755,102.72 188.821,102.752 188.874,102.718" style="fill:white;fill-rule:nonzero;"/>
            <path d="M202.606,99.582C202.606,99.582 201.999,98.684 198.927,98.908C198.927,98.908 198.844,98.917 198.85,99.001C198.857,99.071 198.925,99.082 198.925,99.082C201.995,98.856 202.537,99.761 202.537,99.761C202.537,99.761 202.624,99.829 202.651,99.755C202.668,99.707 202.631,99.609 202.606,99.582" style="fill:white;fill-rule:nonzero;"/>
            <path d="M201.828,96.236C201.828,96.236 201.73,96.192 201.758,96.11C201.797,95.99 201.821,95.806 201.739,95.62C201.721,95.568 201.679,95.561 201.644,95.548C201.608,95.532 201.142,95.33 200.816,95.366C200.532,95.393 200.436,95.556 200.425,95.65C200.387,95.931 200.513,96.354 200.704,96.693C200.751,96.782 200.776,96.727 200.802,96.702C200.826,96.676 201.051,96.463 201.097,96.445C201.142,96.428 201.298,96.351 201.327,96.351C201.359,96.351 201.416,96.391 201.421,96.423C201.434,96.475 201.421,96.509 201.38,96.535C201.338,96.557 201.267,96.58 201.206,96.612C201.12,96.655 200.925,96.868 200.882,96.891C200.842,96.918 200.743,97.019 200.605,96.871C200.4,96.654 200.245,96.067 200.23,95.9C200.216,95.736 200.211,95.52 200.36,95.367C200.474,95.252 200.692,95.181 200.825,95.17C201.224,95.146 201.73,95.381 201.782,95.4C201.855,95.431 201.88,95.459 201.917,95.531C201.981,95.672 201.993,95.923 201.981,96.007C201.971,96.094 201.962,96.255 201.828,96.236" style="fill:white;fill-rule:nonzero;"/>
            <path d="M206.923,96.28C206.923,96.28 207.011,96.24 206.988,96.161C206.948,96.038 206.925,95.853 207.005,95.662C207.026,95.614 207.069,95.608 207.104,95.595C207.141,95.578 207.602,95.376 207.932,95.411C208.216,95.441 208.31,95.6 208.324,95.698C208.357,95.976 208.233,96.403 208.042,96.738C207.994,96.827 207.97,96.775 207.944,96.751C207.923,96.724 207.695,96.509 207.65,96.492C207.602,96.475 207.453,96.395 207.422,96.395C207.389,96.395 207.333,96.437 207.328,96.472C207.317,96.526 207.328,96.553 207.366,96.58C207.411,96.603 207.481,96.626 207.539,96.657C207.628,96.702 207.821,96.916 207.863,96.94C207.905,96.966 208.004,97.067 208.143,96.918C208.347,96.7 208.502,96.114 208.516,95.945C208.528,95.779 208.536,95.566 208.391,95.416C208.277,95.3 208.054,95.223 207.923,95.219C207.522,95.194 207.011,95.426 206.966,95.444C206.893,95.479 206.867,95.507 206.832,95.578C206.767,95.718 206.756,95.97 206.767,96.053C206.776,96.14 206.783,96.301 206.923,96.28" style="fill:white;fill-rule:nonzero;"/>
            <path d="M202.183,99.987C201.94,99.733 201.225,99.329 199.069,99.487C199.069,99.487 198.986,99.466 198.982,99.412C198.977,99.321 199.07,99.319 199.07,99.319C201.475,99.143 202.121,99.652 202.291,99.883C202.291,99.883 202.322,99.956 202.294,99.989C202.247,100.049 202.183,99.987 202.183,99.987" style="fill:white;fill-rule:nonzero;"/>
            <path d="M201.906,100.305C201.664,100.054 201.346,99.791 199.189,99.948C199.189,99.948 199.105,99.929 199.099,99.873C199.096,99.783 199.19,99.779 199.19,99.779C201.597,99.604 201.844,99.974 202.011,100.201C202.011,100.201 202.04,100.278 202.016,100.311C201.965,100.372 201.906,100.305 201.906,100.305" style="fill:white;fill-rule:nonzero;"/>
            <path d="M201.755,100.663C201.511,100.412 200.433,99.967 199.42,100.485C199.42,100.485 199.322,100.522 199.302,100.443C199.281,100.358 199.392,100.317 199.392,100.317C200.521,99.768 201.666,100.278 201.856,100.543C201.856,100.543 201.898,100.616 201.876,100.654C201.83,100.728 201.755,100.663 201.755,100.663" style="fill:white;fill-rule:nonzero;"/>
            <path d="M201.629,100.978C201.143,100.808 200.345,100.691 199.627,101.107C199.627,101.107 199.529,101.148 199.508,101.072C199.483,100.984 199.59,100.941 199.59,100.941C200.38,100.507 201.206,100.619 201.69,100.811C201.69,100.811 201.797,100.856 201.761,100.931C201.725,101.009 201.674,100.992 201.629,100.978" style="fill:white;fill-rule:nonzero;"/>
            <path d="M202.935,99.466C202.935,99.466 202.186,99.277 201.731,99.892C201.308,100.458 201.343,101.218 201.343,101.232C201.343,101.242 201.349,101.368 201.469,101.384C201.509,101.385 201.598,101.354 201.604,101.235C201.61,101.112 201.599,100.478 201.936,100.044C202.251,99.639 202.79,99.695 202.878,99.716C202.969,99.737 203.048,99.675 203.046,99.613C203.04,99.551 203.026,99.479 202.935,99.466" style="fill:white;fill-rule:nonzero;"/>
            <path d="M205.919,99.599C205.919,99.599 206.527,98.702 209.598,98.926C209.598,98.926 209.681,98.939 209.675,99.015C209.668,99.092 209.603,99.1 209.603,99.1C206.532,98.876 205.991,99.779 205.991,99.779C205.991,99.779 205.906,99.848 205.878,99.773C205.859,99.729 205.895,99.629 205.919,99.599" style="fill:white;fill-rule:nonzero;"/>
            <path d="M206.346,100.006C206.587,99.755 207.303,99.35 209.462,99.508C209.462,99.508 209.541,99.488 209.544,99.433C209.55,99.341 209.457,99.338 209.457,99.338C207.051,99.16 206.407,99.675 206.239,99.903C206.239,99.903 206.208,99.977 206.235,100.013C206.284,100.068 206.346,100.006 206.346,100.006" style="fill:white;fill-rule:nonzero;"/>
            <path d="M206.619,100.328C206.867,100.073 207.181,99.813 209.341,99.969C209.341,99.969 209.422,99.949 209.429,99.894C209.431,99.806 209.339,99.8 209.339,99.8C206.931,99.624 206.684,99.995 206.516,100.224C206.516,100.224 206.484,100.296 206.512,100.335C206.559,100.39 206.619,100.328 206.619,100.328" style="fill:white;fill-rule:nonzero;"/>
            <path d="M206.771,100.683C207.015,100.433 208.095,99.987 209.108,100.507C209.108,100.507 209.207,100.542 209.227,100.462C209.246,100.374 209.134,100.334 209.134,100.334C208.004,99.788 206.86,100.297 206.671,100.56C206.671,100.56 206.628,100.635 206.656,100.671C206.699,100.745 206.771,100.683 206.771,100.683" style="fill:white;fill-rule:nonzero;"/>
            <path d="M206.9,100.998C207.384,100.827 208.184,100.711 208.899,101.126C208.899,101.126 208.996,101.173 209.016,101.091C209.046,101.003 208.937,100.961 208.937,100.961C208.148,100.526 207.321,100.641 206.84,100.834C206.84,100.834 206.728,100.879 206.767,100.952C206.805,101.029 206.851,101.012 206.9,100.998" style="fill:white;fill-rule:nonzero;"/>
            <path d="M205.591,99.488C205.591,99.488 206.339,99.298 206.798,99.907C207.223,100.478 207.184,101.239 207.184,101.252C207.184,101.264 207.178,101.39 207.059,101.404C207.02,101.407 206.932,101.376 206.925,101.254C206.919,101.133 206.93,100.496 206.594,100.062C206.278,99.657 205.738,99.715 205.649,99.737C205.563,99.758 205.481,99.695 205.482,99.633C205.486,99.573 205.5,99.5 205.591,99.488" style="fill:white;fill-rule:nonzero;"/>
            <path d="M202.603,98.03C202.525,98.03 202.458,98.095 202.458,98.176C202.458,98.257 202.525,98.32 202.603,98.32C202.685,98.32 202.749,98.257 202.749,98.176C202.749,98.095 202.685,98.03 202.603,98.03M203.182,98.217C203.182,98.217 203.09,98.752 202.471,98.735C202.134,98.728 201.987,98.5 201.964,98.472C201.946,98.448 201.935,98.434 201.935,98.434C201.935,98.434 201.91,98.472 201.889,98.5C201.875,98.521 201.714,98.749 201.48,98.69C201.254,98.634 201.214,98.36 201.209,98.334C201.206,98.306 201.227,98.207 201.307,98.199C201.37,98.19 201.427,98.212 201.454,98.263C201.484,98.329 201.48,98.371 201.493,98.386C201.5,98.403 201.541,98.48 201.608,98.427C201.673,98.375 201.791,98.212 201.782,98.173C201.776,98.136 201.776,98.148 201.768,98.129C201.765,98.112 201.73,97.995 201.73,97.985C201.729,97.966 201.724,97.944 201.724,97.944C201.724,97.944 201.695,97.94 201.679,97.94C201.666,97.937 201.388,97.906 201.259,97.8C201.142,97.707 201.12,97.543 201.109,97.51C201.093,97.448 201.109,97.208 201.115,97.189C201.116,97.169 201.15,97.065 201.246,97.082C201.338,97.092 201.368,97.165 201.368,97.192C201.365,97.222 201.348,97.433 201.37,97.507C201.397,97.58 201.417,97.601 201.464,97.619C201.509,97.637 201.707,97.696 201.897,97.71C202.084,97.726 202.518,97.748 202.651,97.761C202.781,97.78 203.105,97.841 203.29,97.98C203.314,97.997 203.353,98.02 203.353,98.02L203.375,97.696C203.375,97.696 203.17,97.556 203.145,97.543C203.115,97.524 203.04,97.464 203.097,97.356C203.13,97.29 203.223,97.29 203.254,97.306C203.29,97.322 203.488,97.461 203.488,97.461C203.488,97.461 203.574,97.376 203.582,97.371C203.594,97.367 203.681,97.309 203.752,97.388C203.811,97.456 203.788,97.522 203.766,97.548C203.745,97.574 203.633,97.687 203.633,97.687L203.577,98.448C203.577,98.448 203.585,98.599 203.562,98.726C203.536,98.854 203.481,98.976 203.458,99.001C203.425,99.045 203.375,99.077 203.304,99.042C203.231,99.002 203.224,98.911 203.233,98.883C203.247,98.856 203.321,98.72 203.321,98.599C203.321,98.474 203.321,98.328 203.182,98.217" style="fill:white;fill-rule:nonzero;"/>
            <path d="M205.707,98.163C205.707,98.243 205.772,98.307 205.852,98.307C205.932,98.307 205.997,98.243 205.997,98.163C205.997,98.084 205.932,98.02 205.852,98.02C205.772,98.02 205.707,98.084 205.707,98.163M205.135,98.584C205.135,98.707 205.212,98.844 205.221,98.871C205.23,98.9 205.225,98.994 205.155,99.03C205.08,99.065 205.031,99.034 204.994,98.992C204.977,98.964 204.92,98.843 204.897,98.712C204.868,98.584 204.881,98.436 204.881,98.436L204.821,97.676C204.821,97.676 204.71,97.566 204.69,97.533C204.666,97.511 204.641,97.445 204.703,97.38C204.772,97.3 204.86,97.356 204.872,97.363C204.884,97.367 204.968,97.448 204.968,97.448C204.968,97.448 205.167,97.309 205.2,97.294C205.232,97.277 205.325,97.278 205.357,97.344C205.413,97.45 205.34,97.515 205.314,97.529C205.286,97.548 205.079,97.684 205.079,97.684L205.104,98.007C205.104,98.007 205.142,97.985 205.164,97.967C205.348,97.83 205.674,97.769 205.806,97.749C205.937,97.734 206.369,97.711 206.559,97.697C206.747,97.684 206.945,97.624 206.993,97.607C207.037,97.592 207.061,97.567 207.083,97.495C207.103,97.423 207.093,97.211 207.091,97.178C207.088,97.153 207.113,97.082 207.21,97.067C207.305,97.056 207.34,97.156 207.342,97.176C207.345,97.192 207.362,97.437 207.345,97.498C207.334,97.529 207.312,97.696 207.197,97.789C207.068,97.895 206.79,97.923 206.775,97.927C206.765,97.93 206.728,97.932 206.728,97.932C206.728,97.932 206.727,97.955 206.724,97.974C206.722,97.985 206.691,98.102 206.686,98.116C206.681,98.137 206.681,98.124 206.672,98.161C206.666,98.199 206.781,98.365 206.85,98.419C206.916,98.469 206.954,98.392 206.966,98.375C206.976,98.36 206.969,98.317 207.004,98.253C207.03,98.201 207.088,98.18 207.147,98.187C207.226,98.194 207.247,98.294 207.246,98.323C207.243,98.347 207.201,98.624 206.976,98.679C206.745,98.737 206.582,98.51 206.566,98.484C206.548,98.462 206.526,98.422 206.526,98.422C206.526,98.422 206.511,98.437 206.489,98.462C206.467,98.484 206.321,98.715 205.984,98.725C205.364,98.74 205.273,98.204 205.273,98.204C205.135,98.316 205.135,98.463 205.135,98.584" style="fill:white;fill-rule:nonzero;"/>
            <path d="M203.591,100.918C203.389,100.889 202.944,100.641 202.855,100.578C202.775,100.513 202.624,100.417 202.454,100.543C202.385,100.593 202.31,100.684 202.314,100.772C202.323,100.932 202.526,101.347 202.543,101.394C202.569,101.444 202.632,101.582 202.635,101.814C202.64,102.074 202.678,102.396 202.701,102.45C202.723,102.494 202.724,102.566 202.855,102.599C202.99,102.628 203.186,102.654 203.315,102.65C203.442,102.646 203.86,102.55 203.92,102.537C203.985,102.522 204.166,102.48 204.242,102.479C204.317,102.471 204.5,102.522 204.56,102.537C204.623,102.55 205.042,102.646 205.17,102.65C205.299,102.654 205.495,102.628 205.627,102.599C205.759,102.566 205.752,102.491 205.781,102.45C205.814,102.411 205.844,102.074 205.849,101.814C205.853,101.582 205.915,101.444 205.937,101.394C205.96,101.347 206.158,100.932 206.167,100.772C206.175,100.684 206.097,100.593 206.029,100.543C205.86,100.417 205.711,100.513 205.627,100.578C205.54,100.641 205.094,100.889 204.889,100.918C204.778,100.934 204.242,100.729 204.242,100.729C204.242,100.729 203.706,100.934 203.591,100.918M204.216,102.724C204.098,102.716 203.647,102.851 203.57,102.864C203.488,102.879 203.503,102.903 202.904,102.864C202.301,102.824 202.359,102.113 202.351,102.024C202.341,101.938 202.348,101.769 202.328,101.657C202.31,101.548 202.283,101.529 202.273,101.482C202.259,101.432 202.063,101.012 202.047,100.916C202.028,100.82 202.007,100.772 202.038,100.628C202.12,100.238 202.551,100.189 202.713,100.211C202.876,100.231 203.251,100.482 203.401,100.572C203.553,100.66 203.574,100.634 203.606,100.624C203.634,100.616 204.126,100.463 204.126,100.463L204.126,100.247C204.126,100.247 204.146,100.205 204.113,100.205C204.082,100.205 203.993,100.19 203.912,100.098C203.844,100.019 203.835,99.924 203.82,99.874C203.808,99.824 203.842,99.72 203.842,99.72C203.842,99.72 203.532,99.849 203.497,99.853C203.453,99.856 203.172,99.858 203.126,99.63C203.084,99.402 203.157,99.272 203.349,99.166C203.538,99.065 204.228,98.996 204.228,98.996L204.232,98.996C204.232,98.996 204.922,99.065 205.112,99.166C205.305,99.272 205.375,99.402 205.333,99.63C205.29,99.858 205.005,99.856 204.966,99.853C204.923,99.849 204.62,99.72 204.62,99.72C204.62,99.72 204.654,99.824 204.64,99.874C204.626,99.924 204.614,100.019 204.546,100.098C204.467,100.19 204.38,100.205 204.347,100.205C204.317,100.205 204.332,100.247 204.332,100.247L204.332,100.463C204.332,100.463 204.824,100.616 204.856,100.624C204.887,100.634 204.909,100.661 205.059,100.572C205.209,100.482 205.585,100.231 205.748,100.211C205.911,100.189 206.337,100.238 206.427,100.628C206.455,100.772 206.436,100.82 206.413,100.916C206.398,101.012 206.203,101.432 206.19,101.482C206.176,101.529 206.151,101.548 206.134,101.657C206.114,101.769 206.119,101.938 206.11,102.024C206.104,102.113 206.158,102.826 205.557,102.864C204.958,102.903 204.971,102.879 204.889,102.864C204.811,102.851 204.365,102.716 204.246,102.724L204.216,102.724Z" style="fill:white;fill-rule:nonzero;"/>
            <path d="M204.919,100.771C204.919,100.771 205.112,101.154 205.139,101.29C205.164,101.428 205.19,101.706 205.042,101.927C204.889,102.152 204.845,102.143 204.619,102.194C204.481,102.225 204.391,102.245 204.166,102.157C203.997,102.088 203.828,101.961 203.743,101.858C203.656,101.754 203.501,101.503 203.48,101.365C203.451,101.183 203.476,100.879 203.482,100.827C203.488,100.777 203.618,100.758 203.654,100.771C203.688,100.781 203.737,100.835 203.735,100.9C203.73,100.963 203.713,101.184 203.724,101.261C203.753,101.431 203.903,101.663 203.964,101.721C204.136,101.887 204.351,101.953 204.369,101.953C204.386,101.953 204.376,101.953 204.409,101.958C204.445,101.961 204.708,101.937 204.758,101.882C204.847,101.791 204.892,101.654 204.899,101.545C204.906,101.445 204.919,101.437 204.878,101.334C204.856,101.274 204.69,100.886 204.68,100.852C204.67,100.817 204.701,100.735 204.732,100.73C204.761,100.723 204.901,100.752 204.919,100.771" style="fill:white;fill-rule:nonzero;"/>
            <path d="M203.2,100.678C203.2,100.678 203.04,101.025 203.009,101.044C202.976,101.065 202.99,100.629 202.998,100.587C203.009,100.543 202.872,100.401 202.821,100.426C202.769,100.449 202.74,100.482 202.74,100.492C202.74,100.503 202.685,101.273 202.914,101.356C203.149,101.441 203.376,100.88 203.409,100.827C203.443,100.778 203.384,100.696 203.371,100.687C203.362,100.672 203.222,100.658 203.2,100.678" style="fill:white;fill-rule:nonzero;"/>
            <path d="M205.306,100.697C205.306,100.697 205.467,101.044 205.497,101.064C205.532,101.085 205.518,100.649 205.509,100.607C205.497,100.56 205.636,100.421 205.686,100.444C205.739,100.468 205.768,100.502 205.768,100.51C205.768,100.522 205.824,101.292 205.594,101.376C205.358,101.463 205.133,100.9 205.098,100.848C205.064,100.798 205.124,100.715 205.135,100.704C205.145,100.691 205.286,100.677 205.306,100.697" style="fill:white;fill-rule:nonzero;"/>
            <path d="M203.103,102.725C203.103,102.725 203.032,102.711 203.008,102.517C202.986,102.322 203.013,102.078 203.048,101.978C203.09,101.868 203.145,101.829 203.187,101.806C203.2,101.798 203.208,101.798 203.232,101.811C203.261,101.826 203.309,101.875 203.411,102.05C203.465,102.142 203.629,102.34 203.69,102.38C203.747,102.423 203.955,102.55 204.001,102.568C204.042,102.585 203.995,102.659 203.948,102.676C203.904,102.693 203.747,102.674 203.706,102.659C203.665,102.645 203.553,102.605 203.497,102.55C203.439,102.494 203.321,102.34 203.296,102.306C203.279,102.273 203.263,102.245 203.253,102.243C203.245,102.238 203.245,102.266 203.245,102.279C203.242,102.332 203.248,102.444 203.257,102.513C203.267,102.579 203.296,102.638 203.314,102.657C203.331,102.674 203.322,102.711 203.27,102.719C203.222,102.732 203.157,102.761 203.103,102.725" style="fill:white;fill-rule:nonzero;"/>
            <path d="M205.44,102.718C205.44,102.718 205.513,102.699 205.536,102.504C205.561,102.308 205.532,102.065 205.495,101.965C205.454,101.858 205.401,101.817 205.357,101.795C205.342,101.786 205.333,101.786 205.312,101.799C205.283,101.812 205.234,101.864 205.132,102.038C205.079,102.129 204.913,102.327 204.855,102.369C204.797,102.411 204.587,102.538 204.542,102.557C204.5,102.571 204.55,102.65 204.593,102.667C204.639,102.68 204.797,102.659 204.837,102.65C204.878,102.635 204.989,102.592 205.044,102.538C205.104,102.481 205.224,102.327 205.244,102.296C205.264,102.261 205.28,102.235 205.29,102.234C205.304,102.226 205.3,102.252 205.304,102.268C205.304,102.319 205.295,102.433 205.286,102.5C205.275,102.569 205.251,102.628 205.232,102.646C205.213,102.659 205.22,102.699 205.273,102.71C205.323,102.719 205.388,102.749 205.44,102.718" style="fill:white;fill-rule:nonzero;"/>
            <path d="M194.322,122.135C194.322,122.135 193.715,121.237 190.647,121.463C190.647,121.463 190.563,121.473 190.57,121.553C190.574,121.625 190.645,121.637 190.645,121.637C193.712,121.41 194.255,122.315 194.255,122.315C194.255,122.315 194.342,122.382 194.365,122.307C194.381,122.261 194.351,122.166 194.322,122.135" style="fill:white;fill-rule:nonzero;"/>
            <path d="M193.543,118.789C193.543,118.789 193.449,118.75 193.476,118.664C193.516,118.546 193.538,118.361 193.458,118.175C193.437,118.122 193.395,118.116 193.36,118.102C193.324,118.086 192.858,117.886 192.533,117.919C192.253,117.949 192.154,118.107 192.141,118.203C192.105,118.484 192.234,118.909 192.421,119.245C192.47,119.334 192.493,119.28 192.52,119.257C192.542,119.232 192.769,119.017 192.815,119C192.858,118.981 193.012,118.906 193.043,118.906C193.074,118.906 193.132,118.943 193.137,118.981C193.15,119.032 193.137,119.064 193.098,119.088C193.056,119.113 192.986,119.134 192.926,119.164C192.835,119.211 192.641,119.422 192.601,119.445C192.556,119.471 192.461,119.574 192.321,119.427C192.117,119.206 191.961,118.62 191.946,118.452C191.936,118.286 191.928,118.074 192.077,117.922C192.189,117.806 192.408,117.731 192.542,117.726C192.942,117.701 193.449,117.934 193.496,117.953C193.569,117.985 193.597,118.017 193.633,118.085C193.701,118.224 193.709,118.478 193.701,118.561C193.689,118.646 193.68,118.81 193.543,118.789" style="fill:white;fill-rule:nonzero;"/>
            <path d="M198.639,118.834C198.639,118.834 198.734,118.79 198.703,118.711C198.665,118.594 198.643,118.408 198.721,118.217C198.743,118.17 198.785,118.162 198.819,118.147C198.858,118.132 199.323,117.93 199.647,117.965C199.932,117.997 200.029,118.159 200.039,118.25C200.073,118.532 199.948,118.956 199.763,119.292C199.711,119.378 199.689,119.326 199.663,119.303C199.639,119.277 199.411,119.064 199.367,119.047C199.323,119.028 199.172,118.951 199.136,118.951C199.106,118.951 199.051,118.99 199.041,119.024C199.035,119.078 199.041,119.111 199.085,119.134C199.127,119.156 199.197,119.182 199.256,119.212C199.347,119.257 199.539,119.466 199.581,119.494C199.622,119.519 199.721,119.623 199.86,119.474C200.063,119.254 200.221,118.664 200.231,118.5C200.245,118.335 200.252,118.121 200.107,117.968C199.991,117.853 199.773,117.779 199.642,117.77C199.239,117.746 198.73,117.98 198.686,117.999C198.61,118.03 198.584,118.061 198.55,118.129C198.485,118.27 198.472,118.525 198.485,118.608C198.494,118.695 198.499,118.855 198.639,118.834" style="fill:white;fill-rule:nonzero;"/>
            <path d="M193.901,122.539C193.656,122.285 192.942,121.883 190.784,122.04C190.784,122.04 190.703,122.024 190.699,121.965C190.693,121.874 190.786,121.871 190.786,121.871C193.192,121.695 193.839,122.205 194.005,122.436C194.005,122.436 194.036,122.509 194.009,122.546C193.961,122.6 193.901,122.539 193.901,122.539" style="fill:white;fill-rule:nonzero;"/>
            <path d="M193.622,122.86C193.382,122.606 193.061,122.347 190.902,122.501C190.902,122.501 190.823,122.485 190.82,122.427C190.816,122.339 190.906,122.336 190.906,122.336C193.313,122.157 193.561,122.527 193.728,122.756C193.728,122.756 193.758,122.829 193.731,122.866C193.686,122.925 193.622,122.86 193.622,122.86" style="fill:white;fill-rule:nonzero;"/>
            <path d="M193.471,123.217C193.228,122.966 192.149,122.522 191.138,123.039C191.138,123.039 191.039,123.077 191.021,122.996C190.999,122.911 191.107,122.87 191.107,122.87C192.241,122.323 193.382,122.832 193.57,123.097C193.57,123.097 193.615,123.169 193.59,123.208C193.548,123.279 193.471,123.217 193.471,123.217" style="fill:white;fill-rule:nonzero;"/>
            <path d="M193.346,123.531C192.859,123.36 192.064,123.245 191.347,123.661C191.347,123.661 191.247,123.705 191.224,123.626C191.2,123.54 191.306,123.492 191.306,123.492C192.095,123.059 192.926,123.174 193.407,123.367C193.407,123.367 193.516,123.41 193.477,123.487C193.44,123.562 193.393,123.55 193.346,123.531" style="fill:white;fill-rule:nonzero;"/>
            <path d="M194.653,122.023C194.653,122.023 193.904,121.829 193.447,122.444C193.024,123.011 193.06,123.771 193.06,123.784C193.06,123.797 193.069,123.926 193.185,123.937C193.225,123.941 193.316,123.909 193.32,123.787C193.326,123.668 193.316,123.029 193.651,122.596C193.967,122.192 194.505,122.248 194.597,122.268C194.682,122.292 194.764,122.228 194.761,122.168C194.758,122.105 194.743,122.036 194.653,122.023" style="fill:white;fill-rule:nonzero;"/>
            <path d="M197.639,122.157C197.639,122.157 198.246,121.257 201.315,121.483C201.315,121.483 201.399,121.489 201.393,121.572C201.389,121.645 201.319,121.654 201.319,121.654C198.25,121.429 197.708,122.336 197.708,122.336C197.708,122.336 197.622,122.4 197.598,122.326C197.58,122.283 197.612,122.185 197.639,122.157" style="fill:white;fill-rule:nonzero;"/>
            <path d="M198.062,122.56C198.306,122.306 199.017,121.904 201.178,122.062C201.178,122.062 201.26,122.044 201.262,121.984C201.267,121.894 201.176,121.892 201.176,121.892C198.767,121.716 198.123,122.227 197.957,122.456C197.957,122.456 197.922,122.529 197.952,122.564C197.999,122.623 198.062,122.56 198.062,122.56" style="fill:white;fill-rule:nonzero;"/>
            <path d="M198.338,122.88C198.582,122.629 198.899,122.364 201.059,122.524C201.059,122.524 201.14,122.506 201.143,122.447C201.149,122.359 201.055,122.35 201.055,122.35C198.648,122.179 198.4,122.549 198.232,122.778C198.232,122.778 198.201,122.848 198.232,122.886C198.277,122.946 198.338,122.88 198.338,122.88" style="fill:white;fill-rule:nonzero;"/>
            <path d="M198.488,123.24C198.733,122.986 199.811,122.541 200.825,123.059C200.825,123.059 200.924,123.097 200.942,123.016C200.962,122.929 200.853,122.889 200.853,122.889C199.721,122.341 198.577,122.852 198.388,123.115C198.388,123.115 198.348,123.189 198.372,123.23C198.413,123.298 198.488,123.24 198.488,123.24" style="fill:white;fill-rule:nonzero;"/>
            <path d="M198.617,123.552C199.099,123.382 199.899,123.267 200.618,123.682C200.618,123.682 200.716,123.726 200.735,123.645C200.763,123.561 200.652,123.511 200.652,123.511C199.868,123.079 199.039,123.194 198.558,123.388C198.558,123.388 198.447,123.433 198.485,123.507C198.522,123.583 198.571,123.565 198.617,123.552" style="fill:white;fill-rule:nonzero;"/>
            <path d="M197.308,122.044C197.308,122.044 198.057,121.85 198.514,122.461C198.938,123.031 198.899,123.793 198.899,123.804C198.899,123.816 198.894,123.943 198.778,123.957C198.737,123.962 198.648,123.928 198.639,123.81C198.637,123.689 198.648,123.049 198.311,122.617C197.995,122.214 197.455,122.268 197.37,122.292C197.28,122.31 197.197,122.25 197.202,122.187C197.204,122.127 197.219,122.056 197.308,122.044" style="fill:white;fill-rule:nonzero;"/>
            <path d="M194.321,120.584C194.242,120.584 194.177,120.649 194.177,120.728C194.177,120.81 194.242,120.872 194.321,120.872C194.402,120.872 194.467,120.81 194.467,120.728C194.467,120.649 194.402,120.584 194.321,120.584M194.899,120.771C194.899,120.771 194.807,121.305 194.188,121.29C193.853,121.281 193.704,121.053 193.684,121.028C193.662,121.004 193.648,120.988 193.648,120.988C193.648,120.988 193.625,121.028 193.607,121.053C193.59,121.077 193.429,121.302 193.196,121.245C192.97,121.188 192.93,120.914 192.927,120.887C192.925,120.859 192.944,120.761 193.024,120.752C193.087,120.746 193.146,120.768 193.171,120.818C193.201,120.884 193.196,120.926 193.208,120.941C193.22,120.958 193.257,121.033 193.324,120.98C193.392,120.93 193.507,120.765 193.5,120.727C193.492,120.69 193.492,120.701 193.485,120.682C193.482,120.668 193.449,120.55 193.449,120.539C193.447,120.522 193.445,120.499 193.445,120.499C193.445,120.499 193.409,120.496 193.397,120.492C193.384,120.491 193.105,120.46 192.975,120.354C192.858,120.26 192.835,120.095 192.828,120.062C192.81,120.005 192.828,119.757 192.83,119.739C192.831,119.723 192.867,119.618 192.962,119.635C193.055,119.646 193.087,119.718 193.084,119.746C193.082,119.775 193.069,119.986 193.087,120.061C193.111,120.131 193.134,120.159 193.181,120.174C193.225,120.191 193.425,120.251 193.614,120.262C193.803,120.274 194.235,120.302 194.367,120.318C194.501,120.333 194.827,120.397 195.009,120.533C195.029,120.55 195.069,120.574 195.069,120.574L195.091,120.251C195.091,120.251 194.887,120.109 194.859,120.095C194.832,120.078 194.758,120.017 194.814,119.91C194.847,119.846 194.939,119.845 194.972,119.861C195.002,119.876 195.206,120.016 195.206,120.016C195.206,120.016 195.291,119.932 195.3,119.928C195.313,119.919 195.396,119.863 195.468,119.943C195.53,120.012 195.505,120.075 195.485,120.101C195.463,120.129 195.352,120.24 195.352,120.24L195.294,121.004C195.294,121.004 195.304,121.15 195.28,121.277C195.25,121.407 195.196,121.53 195.175,121.557C195.144,121.598 195.091,121.631 195.019,121.593C194.947,121.557 194.942,121.466 194.951,121.436C194.962,121.41 195.037,121.274 195.037,121.15C195.037,121.028 195.037,120.884 194.899,120.771" style="fill:white;fill-rule:nonzero;"/>
            <path d="M197.422,120.717C197.422,120.795 197.487,120.862 197.568,120.862C197.648,120.862 197.712,120.795 197.712,120.717C197.712,120.637 197.648,120.574 197.568,120.574C197.487,120.574 197.422,120.637 197.422,120.717M196.852,121.14C196.852,121.263 196.928,121.4 196.937,121.427C196.948,121.452 196.943,121.545 196.87,121.583C196.799,121.62 196.746,121.587 196.714,121.544C196.691,121.518 196.638,121.397 196.61,121.268C196.586,121.14 196.596,120.99 196.596,120.99L196.536,120.232C196.536,120.232 196.429,120.117 196.405,120.092C196.385,120.062 196.36,119.999 196.418,119.932C196.49,119.854 196.577,119.911 196.588,119.911C196.599,119.919 196.685,120.001 196.685,120.001C196.685,120.001 196.882,119.863 196.917,119.85C196.948,119.833 197.045,119.833 197.078,119.897C197.13,120.005 197.058,120.068 197.028,120.084C197.006,120.101 196.797,120.238 196.797,120.238L196.82,120.561C196.82,120.561 196.86,120.539 196.882,120.523C197.066,120.384 197.391,120.321 197.522,120.306C197.654,120.288 198.087,120.267 198.277,120.252C198.466,120.238 198.661,120.177 198.709,120.161C198.755,120.146 198.779,120.121 198.801,120.048C198.824,119.977 198.809,119.765 198.806,119.737C198.804,119.705 198.834,119.636 198.928,119.623C199.023,119.61 199.058,119.711 199.059,119.729C199.061,119.748 199.077,119.993 199.061,120.052C199.053,120.084 199.028,120.251 198.916,120.342C198.785,120.448 198.508,120.478 198.494,120.481C198.479,120.485 198.447,120.487 198.447,120.487C198.447,120.487 198.443,120.509 198.442,120.528C198.439,120.539 198.409,120.655 198.401,120.669C198.397,120.691 198.397,120.68 198.389,120.716C198.385,120.752 198.497,120.917 198.567,120.97C198.632,121.022 198.669,120.946 198.682,120.93C198.693,120.913 198.688,120.871 198.719,120.81C198.745,120.757 198.804,120.733 198.868,120.74C198.945,120.749 198.964,120.85 198.962,120.876C198.96,120.902 198.916,121.177 198.693,121.232C198.461,121.29 198.298,121.066 198.282,121.042C198.264,121.015 198.242,120.979 198.242,120.979C198.242,120.979 198.23,120.99 198.206,121.015C198.184,121.042 198.034,121.27 197.702,121.278C197.082,121.29 196.99,120.759 196.99,120.759C196.852,120.871 196.852,121.015 196.852,121.14" style="fill:white;fill-rule:nonzero;"/>
            <path d="M195.311,123.473C195.105,123.441 194.657,123.192 194.573,123.132C194.49,123.071 194.342,122.971 194.176,123.094C194.104,123.148 194.027,123.237 194.03,123.324C194.04,123.488 194.242,123.901 194.262,123.95C194.285,123.994 194.345,124.136 194.351,124.37C194.355,124.626 194.396,124.949 194.419,125.004C194.44,125.049 194.44,125.119 194.573,125.15C194.706,125.185 194.901,125.209 195.029,125.205C195.159,125.199 195.576,125.101 195.636,125.087C195.7,125.077 195.885,125.038 195.956,125.032C196.034,125.026 196.212,125.077 196.278,125.087C196.339,125.101 196.758,125.199 196.885,125.205C197.016,125.209 197.208,125.185 197.343,125.15C197.478,125.119 197.467,125.043 197.499,125.004C197.53,124.964 197.562,124.626 197.564,124.37C197.571,124.136 197.63,123.994 197.654,123.95C197.676,123.901 197.874,123.488 197.885,123.324C197.891,123.237 197.813,123.148 197.746,123.094C197.579,122.971 197.43,123.071 197.343,123.132C197.258,123.192 196.809,123.441 196.605,123.473C196.496,123.49 195.956,123.281 195.956,123.281C195.956,123.281 195.424,123.49 195.311,123.473M195.932,125.277C195.813,125.269 195.368,125.406 195.284,125.42C195.207,125.431 195.219,125.46 194.619,125.42C194.018,125.379 194.077,124.669 194.068,124.579C194.058,124.49 194.063,124.323 194.045,124.213C194.027,124.103 193.998,124.085 193.987,124.035C193.976,123.987 193.779,123.565 193.765,123.473C193.748,123.373 193.724,123.324 193.754,123.184C193.838,122.792 194.265,122.743 194.428,122.765C194.595,122.785 194.964,123.039 195.119,123.123C195.267,123.214 195.29,123.189 195.319,123.178C195.355,123.169 195.845,123.015 195.845,123.015L195.845,122.799C195.845,122.799 195.861,122.757 195.831,122.757C195.795,122.757 195.711,122.744 195.629,122.656C195.561,122.572 195.551,122.477 195.539,122.429C195.523,122.379 195.557,122.274 195.557,122.274C195.557,122.274 195.249,122.401 195.211,122.405C195.171,122.411 194.887,122.416 194.843,122.186C194.801,121.955 194.874,121.825 195.063,121.722C195.256,121.62 195.944,121.546 195.944,121.546L195.952,121.546C195.952,121.546 196.637,121.62 196.829,121.722C197.018,121.825 197.097,121.955 197.046,122.186C197.005,122.416 196.722,122.411 196.683,122.407C196.645,122.401 196.337,122.274 196.337,122.274C196.337,122.274 196.368,122.379 196.359,122.429C196.343,122.477 196.333,122.572 196.264,122.656C196.184,122.744 196.094,122.76 196.065,122.76C196.034,122.76 196.051,122.799 196.051,122.799L196.051,123.015C196.051,123.015 196.54,123.169 196.571,123.178C196.604,123.189 196.624,123.214 196.774,123.123C196.926,123.039 197.302,122.785 197.464,122.765C197.629,122.743 198.055,122.792 198.141,123.184C198.171,123.324 198.151,123.373 198.133,123.473C198.117,123.565 197.92,123.991 197.907,124.035C197.891,124.085 197.869,124.103 197.849,124.213C197.831,124.323 197.836,124.493 197.827,124.579C197.82,124.669 197.873,125.379 197.272,125.42C196.676,125.46 196.688,125.431 196.607,125.42C196.528,125.406 196.085,125.269 195.96,125.277L195.932,125.277Z" style="fill:white;fill-rule:nonzero;"/>
            <path d="M196.637,123.33C196.637,123.33 196.828,123.705 196.856,123.844C196.882,123.982 196.908,124.265 196.76,124.481C196.605,124.706 196.562,124.695 196.334,124.747C196.197,124.779 196.106,124.799 195.885,124.71C195.713,124.645 195.546,124.515 195.457,124.414C195.374,124.311 195.217,124.057 195.197,123.92C195.169,123.735 195.192,123.434 195.197,123.382C195.206,123.332 195.335,123.314 195.37,123.323C195.402,123.335 195.455,123.389 195.455,123.454C195.45,123.519 195.43,123.738 195.441,123.813C195.469,123.99 195.62,124.217 195.68,124.274C195.853,124.443 196.068,124.51 196.086,124.51C196.104,124.51 196.093,124.51 196.125,124.513C196.16,124.515 196.424,124.488 196.475,124.436C196.566,124.347 196.609,124.206 196.616,124.102C196.622,123.997 196.637,123.991 196.595,123.89C196.571,123.828 196.406,123.44 196.397,123.407C196.387,123.373 196.418,123.289 196.45,123.282C196.479,123.277 196.617,123.311 196.637,123.33" style="fill:white;fill-rule:nonzero;"/>
            <path d="M194.919,123.231C194.919,123.231 194.759,123.578 194.728,123.599C194.696,123.62 194.707,123.183 194.715,123.137C194.728,123.093 194.588,122.954 194.54,122.977C194.488,123.002 194.455,123.039 194.455,123.046C194.455,123.056 194.403,123.828 194.629,123.91C194.867,123.994 195.094,123.434 195.127,123.381C195.159,123.332 195.1,123.248 195.091,123.24C195.078,123.228 194.939,123.213 194.919,123.231" style="fill:white;fill-rule:nonzero;"/>
            <path d="M197.025,123.251C197.025,123.251 197.183,123.598 197.215,123.62C197.247,123.638 197.233,123.203 197.225,123.16C197.215,123.113 197.351,122.975 197.402,122.998C197.453,123.022 197.483,123.057 197.483,123.066C197.483,123.077 197.537,123.848 197.308,123.928C197.073,124.015 196.85,123.452 196.812,123.4C196.782,123.351 196.84,123.268 196.851,123.258C196.863,123.248 197.001,123.231 197.025,123.251" style="fill:white;fill-rule:nonzero;"/>
            <path d="M194.819,125.281C194.819,125.281 194.747,125.265 194.726,125.069C194.701,124.874 194.728,124.633 194.764,124.533C194.807,124.423 194.859,124.384 194.902,124.363C194.919,124.355 194.926,124.352 194.951,124.363C194.976,124.378 195.025,124.429 195.129,124.603C195.181,124.695 195.348,124.896 195.403,124.937C195.463,124.977 195.673,125.103 195.715,125.121C195.76,125.136 195.711,125.214 195.668,125.23C195.623,125.247 195.463,125.23 195.423,125.214C195.382,125.198 195.272,125.161 195.213,125.103C195.156,125.049 195.037,124.894 195.015,124.863C194.994,124.828 194.981,124.799 194.972,124.797C194.961,124.794 194.961,124.821 194.961,124.833C194.961,124.886 194.962,124.998 194.974,125.068C194.984,125.135 195.011,125.194 195.029,125.211C195.047,125.23 195.04,125.265 194.989,125.276C194.938,125.285 194.872,125.315 194.819,125.281" style="fill:white;fill-rule:nonzero;"/>
            <path d="M197.158,125.268C197.158,125.268 197.227,125.253 197.252,125.058C197.279,124.863 197.247,124.62 197.212,124.52C197.172,124.41 197.118,124.37 197.073,124.348C197.06,124.344 197.052,124.339 197.028,124.349C197,124.367 196.949,124.421 196.85,124.592C196.797,124.683 196.63,124.884 196.571,124.924C196.515,124.965 196.305,125.088 196.26,125.107C196.213,125.124 196.267,125.202 196.309,125.22C196.358,125.235 196.515,125.215 196.554,125.202C196.596,125.187 196.707,125.145 196.764,125.088C196.825,125.038 196.942,124.881 196.961,124.849C196.982,124.813 196.997,124.787 197.007,124.783C197.018,124.779 197.018,124.806 197.018,124.822C197.018,124.869 197.013,124.987 197.006,125.055C196.993,125.121 196.965,125.179 196.948,125.198C196.929,125.215 196.936,125.253 196.99,125.261C197.042,125.273 197.107,125.304 197.158,125.268" style="fill:white;fill-rule:nonzero;"/>
            <path d="M196.579,92.398C199.007,92.468 208.643,92.795 211.405,93.372L211.415,94.151L204.748,114.938L196.579,92.398ZM208.535,94.95C208.535,94.95 208.404,94.875 208.188,94.886C207.935,94.9 207.445,94.861 206.775,95.283C206.389,95.525 205.861,95.306 205.655,95.257C205.451,95.206 204.98,95.019 204.398,94.999C203.912,94.974 202.952,95.252 202.644,95.305C202.336,95.357 201.112,94.525 200.17,95.15C199.398,95.667 200.53,97.367 200.53,97.367C200.53,97.367 199.756,98.655 200.015,99.944C200.274,101.235 201.457,101.029 201.564,101.183C201.666,101.335 201.923,101.594 201.976,102.003C202.027,102.419 202.181,102.934 202.492,103.14C202.8,103.348 203.213,103.296 203.213,103.296C203.213,103.296 203.828,103.571 204.295,103.605C204.964,103.654 205.495,103.248 205.531,103.243C205.975,103.197 205.985,103.172 206.203,102.986C206.626,102.625 206.614,102.058 206.666,101.904C206.717,101.751 206.699,101.139 206.967,101.072C207.586,100.916 208.266,100.51 208.522,99.894C208.855,99.082 208.087,97.619 208.188,97.318C208.225,97.203 209.358,95.724 208.535,94.95" style="fill:white;"/>
            <path d="M195.46,92.398C193.032,92.468 183.394,92.795 180.637,93.372L180.636,94.145L187.29,114.938L195.46,92.398ZM191.964,94.95C191.964,94.95 191.837,94.875 191.622,94.888C191.366,94.903 190.878,94.861 190.206,95.283C189.817,95.53 189.295,95.31 189.09,95.258C188.884,95.206 188.414,95.024 187.829,94.999C187.344,94.976 186.386,95.257 186.078,95.306C185.768,95.357 184.545,94.525 183.605,95.154C182.831,95.667 183.965,97.37 183.965,97.37C183.965,97.37 183.189,98.66 183.45,99.944C183.706,101.235 184.891,101.029 184.995,101.184C185.098,101.338 185.356,101.595 185.406,102.006C185.459,102.42 185.614,102.935 185.921,103.142C186.23,103.348 186.647,103.296 186.647,103.296C186.647,103.296 187.261,103.571 187.725,103.605C188.398,103.657 188.924,103.248 188.963,103.246C189.406,103.197 189.416,103.172 189.633,102.986C190.059,102.627 190.047,102.058 190.099,101.905C190.15,101.751 190.132,101.139 190.399,101.072C191.019,100.916 191.698,100.51 191.955,99.894C192.289,99.085 191.522,97.621 191.622,97.318C191.66,97.205 192.79,95.724 191.964,94.95" style="fill:white;"/>
            <path d="M196.019,102.844L188.849,124.235C192.247,127.204 195.031,128.713 196.019,129.141C197.01,128.713 199.8,127.204 203.193,124.235L196.019,102.844ZM200.249,117.505C200.249,117.505 200.121,117.429 199.907,117.445C199.648,117.456 199.166,117.414 198.494,117.837C198.102,118.08 197.581,117.862 197.374,117.811C197.165,117.76 196.699,117.575 196.114,117.549C195.628,117.531 194.67,117.81 194.361,117.861C194.053,117.91 192.83,117.076 191.887,117.706C191.115,118.221 192.247,119.919 192.247,119.919C192.247,119.919 191.475,121.208 191.732,122.498C191.989,123.787 193.174,123.582 193.278,123.736C193.381,123.89 193.64,124.15 193.692,124.56C193.742,124.974 193.898,125.489 194.207,125.697C194.516,125.901 194.927,125.853 194.927,125.853C194.927,125.853 195.546,126.125 196.011,126.159C196.679,126.21 197.206,125.802 197.247,125.799C197.692,125.749 197.702,125.725 197.919,125.542C198.342,125.18 198.33,124.614 198.38,124.458C198.433,124.303 198.416,123.691 198.685,123.626C199.301,123.473 199.982,123.065 200.238,122.448C200.571,121.638 199.806,120.171 199.907,119.874C199.942,119.756 201.075,118.279 200.249,117.505" style="fill:white;"/>
        </g>
    </g>
</svg>