<svg width="469" height="248" viewBox="0 0 469 248" fill="none" xmlns="http://www.w3.org/2000/svg">
<style>
.main { fill: var(--primary-color, var(--default-color)); }
.recycling-logo { fill: #ffffff; opacity: var(--recycling-logo, 0); }
</style>
<path class="main" d="M0 0V35.5752H24.2934L64.49 248H404.041L444.707 35.5752H469V0H0Z"/>
<g style="mix-blend-mode:multiply" opacity="0.1">
<path d="M36.79 103.437L24.6528 35.5754H445.056L439.951 58.5748L36.79 103.437Z" fill="black"/>
</g>
<path class="recycling-logo" d="M222.847 127.742L208.912 119.65L216.164 106.985C218.172 103.457 225.614 103.367 228.191 106.417L231.727 112.316L222.847 127.742Z"/>
<path class="recycling-logo" d="M210.69 151.967H203.248C200.381 151.658 195.616 145.779 198.473 140.448L201.72 135.017L196.665 132.067H212.697L220.809 145.968L215.754 143.208L210.7 151.967H210.69Z"/>
<path class="recycling-logo" d="M229.87 156.66V172.943H212.02C210.971 173.042 210.202 171.986 209.632 171.129C201.232 156.271 201.331 156.371 200.942 155.893C201.391 156.271 201.901 156.65 203.329 156.65H229.86L229.87 156.66Z"/>
<path class="recycling-logo" d="M266.191 156.66C268.009 156.471 268.289 155.993 268.768 155.704L259.798 171.508C259.419 172.265 258.649 172.933 257.511 172.933H247.582V178.743L239.47 164.931L247.582 151.03V156.65H266.191V156.66Z"/>
<path class="recycling-logo" d="M250.158 136.74L264.193 128.738L271.545 141.214C274.222 146.356 269.636 151.309 266.58 151.877H259.038L250.158 136.74Z"/>
<path class="recycling-logo" d="M232.896 105.171C232.326 104.414 231.178 103.457 230.129 103.268H248.928C249.977 103.268 250.936 103.646 251.405 104.503L256.27 113.073L261.135 110.313L253.213 124.025H237.371L242.145 121.165L232.885 105.171H232.896Z"/>
</svg>
