<svg width="760" height="778" viewBox="0 0 760 778" fill="none" xmlns="http://www.w3.org/2000/svg">
<style>
.wheel { fill: #333333; }
.main { fill: var(--primary-color, var(--default-color)); }
.lid { fill: var(--lid-color, var(--primary-color, var(--default-color))); }
.recycling-logo { fill: #ffffff; opacity: var(--recycling-logo, 0); }
</style>
<path d="M681.153 778C689.438 778 696.155 764.568 696.155 747.999C696.155 731.43 689.438 717.998 681.153 717.998C672.867 717.998 666.15 731.43 666.15 747.999C666.15 764.568 672.867 778 681.153 778Z" fill="#2A2A2A"/>
<path d="M666.151 778C657.865 778 651.148 764.564 651.148 747.999C651.148 731.434 657.865 717.998 666.151 717.998H681.153V778H666.151Z" fill="#2A2A2A"/>
<path d="M681.15 769.121C686.979 769.121 691.704 759.664 691.704 747.998C691.704 736.331 686.979 726.874 681.15 726.874C675.321 726.874 670.596 736.331 670.596 747.998C670.596 759.664 675.321 769.121 681.15 769.121Z" fill="#767472"/>
<path d="M733.154 133.562H16.9707V150.957H30.0437L31.9928 181.997L56.8696 708.301H66.5345C51.6123 718.488 42.8769 736.523 45.5555 755.637C45.5955 755.907 45.6656 756.167 45.7056 756.437L60.3278 754.388C60.2878 754.118 60.2179 753.858 60.1779 753.588C57.5293 734.693 70.5824 717.249 89.3325 714.609C92.6708 714.14 95.9691 714.19 99.1474 714.669L103.945 708.301H665.959C654.575 717.428 646.459 736.293 649.288 756.477C649.328 756.747 654.345 756.167 654.385 756.437L663.59 755.147C663.55 754.877 663.491 754.617 663.451 754.348C660.802 735.453 668.218 718.798 680.022 717.139C682.121 716.839 684.22 717.069 686.268 717.699L690.486 708.301H704.879L729.756 181.997L731.924 150.957H745.098V133.562H733.124H733.154Z" class="main"/>
<path d="M29.2746 133.56H0V88.6636C0 75.1576 14.0525 64.2009 31.3834 64.2009H51.5029V30.7708C51.5029 22.2733 55.9105 14.5956 63.0967 9.03723C70.2229 3.4389 80.0779 0 90.9722 0H668.678C690.477 0 708.147 13.7758 708.147 30.7708V64.2009H728.617C745.948 64.2009 760 75.1576 760 88.6636V133.56H29.2746Z" class="lid"/>
<g style="mix-blend-mode:multiply" opacity="0.1">
<path d="M706.627 41.7571H51.502V63.6806H706.627V41.7571Z" fill="black"/>
</g>
<g style="mix-blend-mode:multiply" opacity="0.1">
<path d="M759.2 111.646H0V133.57H759.2V111.646Z" fill="black"/>
</g>
<g style="mix-blend-mode:plus-darker" opacity="0.1">
<path d="M34.4608 234.271L30.043 151.195H731.974L730.914 166.631L34.4608 234.271Z" fill="black"/>
</g>
<path d="M93.7696 778C110.335 778 123.764 764.568 123.764 747.999C123.764 731.43 110.335 717.998 93.7696 717.998C77.2043 717.998 63.7754 731.43 63.7754 747.999C63.7754 764.568 77.2043 778 93.7696 778Z" fill="#2A2A2A"/>
<path d="M93.7697 769.121C105.351 769.121 114.739 759.664 114.739 747.998C114.739 736.331 105.351 726.874 93.7697 726.874C82.1889 726.874 72.8008 736.331 72.8008 747.998C72.8008 759.664 82.1889 769.121 93.7697 769.121Z" fill="#767472"/>
<g style="mix-blend-mode:multiply" opacity="0.12">
<path d="M702.991 708.3H632.488L658.115 151.195H729.817L702.991 708.3Z" fill="black"/>
</g>
<g style="mix-blend-mode:multiply" opacity="0.12">
<path d="M56.8689 708.3H127.362L101.745 151.195H30.043L56.8689 708.3Z" fill="black"/>
</g>
<path d="M356.66 373.19L327.57 356.26L342.71 329.76C346.89 322.39 362.43 322.19 367.81 328.56L375.18 340.91L356.65 373.18L356.66 373.19Z" class="recycling-logo"/>
<path d="M331.29 423.89H315.75C309.77 423.24 299.81 410.94 305.79 399.78L312.56 388.42L302 382.24H335.47L352.4 411.33L341.84 405.55L331.28 423.88L331.29 423.89Z" class="recycling-logo"/>
<path d="M371.331 433.699V467.77H334.081C331.891 467.97 330.291 465.779 329.101 463.979C311.571 432.899 311.771 433.099 310.971 432.109C311.921 432.909 312.961 433.699 315.951 433.699H371.331Z" class="recycling-logo"/>
<path d="M447.129 433.701C450.919 433.301 451.51 432.311 452.51 431.711L433.78 464.781C432.98 466.371 431.39 467.771 429 467.771H408.28V479.921L391.35 451.031L408.28 421.941V433.691H447.129V433.701Z" class="recycling-logo"/>
<path d="M413.67 392.019L442.95 375.289L458.29 401.389C463.87 412.149 454.31 422.509 447.93 423.699H432.19L413.66 392.019H413.67Z" class="recycling-logo"/>
<path d="M377.629 325.98C376.429 324.39 374.04 322.39 371.85 322H411.1C413.29 322 415.28 322.8 416.28 324.59L426.439 342.52L436.6 336.74L420.07 365.43H387L396.959 359.45L377.64 325.98H377.629Z" class="recycling-logo"/>
</svg>
